%TF.GenerationSoftware,KiCad,Pcbnew,10.0.3*%
%TF.CreationDate,2026-06-04T13:32:58+09:00*%
%TF.ProjectId,power-IP2326-MP1584-FPC,706f7765-722d-4495-9032-3332362d4d50,rev?*%
%TF.SameCoordinates,Original*%
%TF.FileFunction,Legend,Bot*%
%TF.FilePolarity,Positive*%
%FSLAX46Y46*%
G04 Gerber Fmt 4.6, Leading zero omitted, Abs format (unit mm)*
G04 Created by KiCad (PCBNEW 10.0.3) date 2026-06-04 13:32:58*
%MOMM*%
%LPD*%
G01*
G04 APERTURE LIST*
G04 Aperture macros list*
%AMRoundRect*
0 Rectangle with rounded corners*
0 $1 Rounding radius*
0 $2 $3 $4 $5 $6 $7 $8 $9 X,Y pos of 4 corners*
0 Add a 4 corners polygon primitive as box body*
4,1,4,$2,$3,$4,$5,$6,$7,$8,$9,$2,$3,0*
0 Add four circle primitives for the rounded corners*
1,1,$1+$1,$2,$3*
1,1,$1+$1,$4,$5*
1,1,$1+$1,$6,$7*
1,1,$1+$1,$8,$9*
0 Add four rect primitives between the rounded corners*
20,1,$1+$1,$2,$3,$4,$5,0*
20,1,$1+$1,$4,$5,$6,$7,0*
20,1,$1+$1,$6,$7,$8,$9,0*
20,1,$1+$1,$8,$9,$2,$3,0*%
G04 Aperture macros list end*
%ADD10C,0.150000*%
%ADD11C,0.100000*%
%ADD12C,0.120000*%
%ADD13C,2.000000*%
%ADD14R,1.350000X1.350000*%
%ADD15C,1.350000*%
%ADD16R,1.700000X1.700000*%
%ADD17C,1.700000*%
%ADD18RoundRect,0.218750X-0.218750X-0.256250X0.218750X-0.256250X0.218750X0.256250X-0.218750X0.256250X0*%
G04 APERTURE END LIST*
D10*
X58266666Y-37159580D02*
X58299999Y-37207200D01*
X58299999Y-37207200D02*
X58399999Y-37254819D01*
X58399999Y-37254819D02*
X58466666Y-37254819D01*
X58466666Y-37254819D02*
X58566666Y-37207200D01*
X58566666Y-37207200D02*
X58633333Y-37111961D01*
X58633333Y-37111961D02*
X58666666Y-37016723D01*
X58666666Y-37016723D02*
X58699999Y-36826247D01*
X58699999Y-36826247D02*
X58699999Y-36683390D01*
X58699999Y-36683390D02*
X58666666Y-36492914D01*
X58666666Y-36492914D02*
X58633333Y-36397676D01*
X58633333Y-36397676D02*
X58566666Y-36302438D01*
X58566666Y-36302438D02*
X58466666Y-36254819D01*
X58466666Y-36254819D02*
X58399999Y-36254819D01*
X58399999Y-36254819D02*
X58299999Y-36302438D01*
X58299999Y-36302438D02*
X58266666Y-36350057D01*
X57966666Y-37254819D02*
X57966666Y-36254819D01*
X57966666Y-36731009D02*
X57566666Y-36731009D01*
X57566666Y-37254819D02*
X57566666Y-36254819D01*
X57266666Y-36969104D02*
X56933333Y-36969104D01*
X57333333Y-37254819D02*
X57100000Y-36254819D01*
X57100000Y-36254819D02*
X56866666Y-37254819D01*
X56233333Y-37254819D02*
X56466666Y-36778628D01*
X56633333Y-37254819D02*
X56633333Y-36254819D01*
X56633333Y-36254819D02*
X56366666Y-36254819D01*
X56366666Y-36254819D02*
X56300000Y-36302438D01*
X56300000Y-36302438D02*
X56266666Y-36350057D01*
X56266666Y-36350057D02*
X56233333Y-36445295D01*
X56233333Y-36445295D02*
X56233333Y-36588152D01*
X56233333Y-36588152D02*
X56266666Y-36683390D01*
X56266666Y-36683390D02*
X56300000Y-36731009D01*
X56300000Y-36731009D02*
X56366666Y-36778628D01*
X56366666Y-36778628D02*
X56633333Y-36778628D01*
X55566666Y-36302438D02*
X55633333Y-36254819D01*
X55633333Y-36254819D02*
X55733333Y-36254819D01*
X55733333Y-36254819D02*
X55833333Y-36302438D01*
X55833333Y-36302438D02*
X55900000Y-36397676D01*
X55900000Y-36397676D02*
X55933333Y-36492914D01*
X55933333Y-36492914D02*
X55966666Y-36683390D01*
X55966666Y-36683390D02*
X55966666Y-36826247D01*
X55966666Y-36826247D02*
X55933333Y-37016723D01*
X55933333Y-37016723D02*
X55900000Y-37111961D01*
X55900000Y-37111961D02*
X55833333Y-37207200D01*
X55833333Y-37207200D02*
X55733333Y-37254819D01*
X55733333Y-37254819D02*
X55666666Y-37254819D01*
X55666666Y-37254819D02*
X55566666Y-37207200D01*
X55566666Y-37207200D02*
X55533333Y-37159580D01*
X55533333Y-37159580D02*
X55533333Y-36826247D01*
X55533333Y-36826247D02*
X55666666Y-36826247D01*
X55233333Y-36731009D02*
X55000000Y-36731009D01*
X54900000Y-37254819D02*
X55233333Y-37254819D01*
X55233333Y-37254819D02*
X55233333Y-36254819D01*
X55233333Y-36254819D02*
X54900000Y-36254819D01*
X49249999Y-36831009D02*
X49149999Y-36878628D01*
X49149999Y-36878628D02*
X49116665Y-36926247D01*
X49116665Y-36926247D02*
X49083332Y-37021485D01*
X49083332Y-37021485D02*
X49083332Y-37164342D01*
X49083332Y-37164342D02*
X49116665Y-37259580D01*
X49116665Y-37259580D02*
X49149999Y-37307200D01*
X49149999Y-37307200D02*
X49216665Y-37354819D01*
X49216665Y-37354819D02*
X49483332Y-37354819D01*
X49483332Y-37354819D02*
X49483332Y-36354819D01*
X49483332Y-36354819D02*
X49249999Y-36354819D01*
X49249999Y-36354819D02*
X49183332Y-36402438D01*
X49183332Y-36402438D02*
X49149999Y-36450057D01*
X49149999Y-36450057D02*
X49116665Y-36545295D01*
X49116665Y-36545295D02*
X49116665Y-36640533D01*
X49116665Y-36640533D02*
X49149999Y-36735771D01*
X49149999Y-36735771D02*
X49183332Y-36783390D01*
X49183332Y-36783390D02*
X49249999Y-36831009D01*
X49249999Y-36831009D02*
X49483332Y-36831009D01*
X48816665Y-37069104D02*
X48483332Y-37069104D01*
X48883332Y-37354819D02*
X48649999Y-36354819D01*
X48649999Y-36354819D02*
X48416665Y-37354819D01*
X48283332Y-36354819D02*
X47883332Y-36354819D01*
X48083332Y-37354819D02*
X48083332Y-36354819D01*
X47749999Y-36354819D02*
X47349999Y-36354819D01*
X47549999Y-37354819D02*
X47549999Y-36354819D01*
X47116666Y-36831009D02*
X46883333Y-36831009D01*
X46783333Y-37354819D02*
X47116666Y-37354819D01*
X47116666Y-37354819D02*
X47116666Y-36354819D01*
X47116666Y-36354819D02*
X46783333Y-36354819D01*
X46083333Y-37354819D02*
X46316666Y-36878628D01*
X46483333Y-37354819D02*
X46483333Y-36354819D01*
X46483333Y-36354819D02*
X46216666Y-36354819D01*
X46216666Y-36354819D02*
X46150000Y-36402438D01*
X46150000Y-36402438D02*
X46116666Y-36450057D01*
X46116666Y-36450057D02*
X46083333Y-36545295D01*
X46083333Y-36545295D02*
X46083333Y-36688152D01*
X46083333Y-36688152D02*
X46116666Y-36783390D01*
X46116666Y-36783390D02*
X46150000Y-36831009D01*
X46150000Y-36831009D02*
X46216666Y-36878628D01*
X46216666Y-36878628D02*
X46483333Y-36878628D01*
X45650000Y-36878628D02*
X45650000Y-37354819D01*
X45883333Y-36354819D02*
X45650000Y-36878628D01*
X45650000Y-36878628D02*
X45416666Y-36354819D01*
X36454819Y-62816667D02*
X35454819Y-62816667D01*
X35454819Y-62816667D02*
X35454819Y-62983334D01*
X35454819Y-62983334D02*
X35502438Y-63083334D01*
X35502438Y-63083334D02*
X35597676Y-63150001D01*
X35597676Y-63150001D02*
X35692914Y-63183334D01*
X35692914Y-63183334D02*
X35883390Y-63216667D01*
X35883390Y-63216667D02*
X36026247Y-63216667D01*
X36026247Y-63216667D02*
X36216723Y-63183334D01*
X36216723Y-63183334D02*
X36311961Y-63150001D01*
X36311961Y-63150001D02*
X36407200Y-63083334D01*
X36407200Y-63083334D02*
X36454819Y-62983334D01*
X36454819Y-62983334D02*
X36454819Y-62816667D01*
X36454819Y-63516667D02*
X35454819Y-63516667D01*
X36454819Y-64250000D02*
X35978628Y-64016667D01*
X36454819Y-63850000D02*
X35454819Y-63850000D01*
X35454819Y-63850000D02*
X35454819Y-64116667D01*
X35454819Y-64116667D02*
X35502438Y-64183334D01*
X35502438Y-64183334D02*
X35550057Y-64216667D01*
X35550057Y-64216667D02*
X35645295Y-64250000D01*
X35645295Y-64250000D02*
X35788152Y-64250000D01*
X35788152Y-64250000D02*
X35883390Y-64216667D01*
X35883390Y-64216667D02*
X35931009Y-64183334D01*
X35931009Y-64183334D02*
X35978628Y-64116667D01*
X35978628Y-64116667D02*
X35978628Y-63850000D01*
X35931009Y-64550000D02*
X35931009Y-64783334D01*
X36454819Y-64883334D02*
X36454819Y-64550000D01*
X36454819Y-64550000D02*
X35454819Y-64550000D01*
X35454819Y-64550000D02*
X35454819Y-64883334D01*
X36359580Y-65583333D02*
X36407200Y-65550000D01*
X36407200Y-65550000D02*
X36454819Y-65450000D01*
X36454819Y-65450000D02*
X36454819Y-65383333D01*
X36454819Y-65383333D02*
X36407200Y-65283333D01*
X36407200Y-65283333D02*
X36311961Y-65216667D01*
X36311961Y-65216667D02*
X36216723Y-65183333D01*
X36216723Y-65183333D02*
X36026247Y-65150000D01*
X36026247Y-65150000D02*
X35883390Y-65150000D01*
X35883390Y-65150000D02*
X35692914Y-65183333D01*
X35692914Y-65183333D02*
X35597676Y-65216667D01*
X35597676Y-65216667D02*
X35502438Y-65283333D01*
X35502438Y-65283333D02*
X35454819Y-65383333D01*
X35454819Y-65383333D02*
X35454819Y-65450000D01*
X35454819Y-65450000D02*
X35502438Y-65550000D01*
X35502438Y-65550000D02*
X35550057Y-65583333D01*
X35454819Y-65783333D02*
X35454819Y-66183333D01*
X36454819Y-65983333D02*
X35454819Y-65983333D01*
X37454819Y-49516668D02*
X37454819Y-49650001D01*
X37454819Y-49650001D02*
X37502438Y-49716668D01*
X37502438Y-49716668D02*
X37597676Y-49783334D01*
X37597676Y-49783334D02*
X37788152Y-49816668D01*
X37788152Y-49816668D02*
X38121485Y-49816668D01*
X38121485Y-49816668D02*
X38311961Y-49783334D01*
X38311961Y-49783334D02*
X38407200Y-49716668D01*
X38407200Y-49716668D02*
X38454819Y-49650001D01*
X38454819Y-49650001D02*
X38454819Y-49516668D01*
X38454819Y-49516668D02*
X38407200Y-49450001D01*
X38407200Y-49450001D02*
X38311961Y-49383334D01*
X38311961Y-49383334D02*
X38121485Y-49350001D01*
X38121485Y-49350001D02*
X37788152Y-49350001D01*
X37788152Y-49350001D02*
X37597676Y-49383334D01*
X37597676Y-49383334D02*
X37502438Y-49450001D01*
X37502438Y-49450001D02*
X37454819Y-49516668D01*
X37454819Y-50116667D02*
X38264342Y-50116667D01*
X38264342Y-50116667D02*
X38359580Y-50150001D01*
X38359580Y-50150001D02*
X38407200Y-50183334D01*
X38407200Y-50183334D02*
X38454819Y-50250001D01*
X38454819Y-50250001D02*
X38454819Y-50383334D01*
X38454819Y-50383334D02*
X38407200Y-50450001D01*
X38407200Y-50450001D02*
X38359580Y-50483334D01*
X38359580Y-50483334D02*
X38264342Y-50516667D01*
X38264342Y-50516667D02*
X37454819Y-50516667D01*
X37454819Y-50750000D02*
X37454819Y-51150000D01*
X38454819Y-50950000D02*
X37454819Y-50950000D01*
X38454819Y-51383333D02*
X37454819Y-51383333D01*
X37454819Y-51383333D02*
X37454819Y-51650000D01*
X37454819Y-51650000D02*
X37502438Y-51716667D01*
X37502438Y-51716667D02*
X37550057Y-51750000D01*
X37550057Y-51750000D02*
X37645295Y-51783333D01*
X37645295Y-51783333D02*
X37788152Y-51783333D01*
X37788152Y-51783333D02*
X37883390Y-51750000D01*
X37883390Y-51750000D02*
X37931009Y-51716667D01*
X37931009Y-51716667D02*
X37978628Y-51650000D01*
X37978628Y-51650000D02*
X37978628Y-51383333D01*
X37454819Y-52083333D02*
X38264342Y-52083333D01*
X38264342Y-52083333D02*
X38359580Y-52116667D01*
X38359580Y-52116667D02*
X38407200Y-52150000D01*
X38407200Y-52150000D02*
X38454819Y-52216667D01*
X38454819Y-52216667D02*
X38454819Y-52350000D01*
X38454819Y-52350000D02*
X38407200Y-52416667D01*
X38407200Y-52416667D02*
X38359580Y-52450000D01*
X38359580Y-52450000D02*
X38264342Y-52483333D01*
X38264342Y-52483333D02*
X37454819Y-52483333D01*
X37454819Y-52716666D02*
X37454819Y-53116666D01*
X38454819Y-52916666D02*
X37454819Y-52916666D01*
D11*
X69933609Y-64500001D02*
X69981228Y-64600001D01*
X69981228Y-64600001D02*
X70028847Y-64633334D01*
X70028847Y-64633334D02*
X70124085Y-64666667D01*
X70124085Y-64666667D02*
X70266942Y-64666667D01*
X70266942Y-64666667D02*
X70362180Y-64633334D01*
X70362180Y-64633334D02*
X70409800Y-64600001D01*
X70409800Y-64600001D02*
X70457419Y-64533334D01*
X70457419Y-64533334D02*
X70457419Y-64266667D01*
X70457419Y-64266667D02*
X69457419Y-64266667D01*
X69457419Y-64266667D02*
X69457419Y-64500001D01*
X69457419Y-64500001D02*
X69505038Y-64566667D01*
X69505038Y-64566667D02*
X69552657Y-64600001D01*
X69552657Y-64600001D02*
X69647895Y-64633334D01*
X69647895Y-64633334D02*
X69743133Y-64633334D01*
X69743133Y-64633334D02*
X69838371Y-64600001D01*
X69838371Y-64600001D02*
X69885990Y-64566667D01*
X69885990Y-64566667D02*
X69933609Y-64500001D01*
X69933609Y-64500001D02*
X69933609Y-64266667D01*
X70171704Y-64933334D02*
X70171704Y-65266667D01*
X70457419Y-64866667D02*
X69457419Y-65100001D01*
X69457419Y-65100001D02*
X70457419Y-65333334D01*
X69457419Y-65466667D02*
X69457419Y-65866667D01*
X70457419Y-65666667D02*
X69457419Y-65666667D01*
X69457419Y-66000000D02*
X69457419Y-66400000D01*
X70457419Y-66200000D02*
X69457419Y-66200000D01*
X69933609Y-66633333D02*
X69933609Y-66866667D01*
X70457419Y-66966667D02*
X70457419Y-66633333D01*
X70457419Y-66633333D02*
X69457419Y-66633333D01*
X69457419Y-66633333D02*
X69457419Y-66966667D01*
X70457419Y-67666666D02*
X69981228Y-67433333D01*
X70457419Y-67266666D02*
X69457419Y-67266666D01*
X69457419Y-67266666D02*
X69457419Y-67533333D01*
X69457419Y-67533333D02*
X69505038Y-67600000D01*
X69505038Y-67600000D02*
X69552657Y-67633333D01*
X69552657Y-67633333D02*
X69647895Y-67666666D01*
X69647895Y-67666666D02*
X69790752Y-67666666D01*
X69790752Y-67666666D02*
X69885990Y-67633333D01*
X69885990Y-67633333D02*
X69933609Y-67600000D01*
X69933609Y-67600000D02*
X69981228Y-67533333D01*
X69981228Y-67533333D02*
X69981228Y-67266666D01*
X69981228Y-68100000D02*
X70457419Y-68100000D01*
X69457419Y-67866666D02*
X69981228Y-68100000D01*
X69981228Y-68100000D02*
X69457419Y-68333333D01*
%TO.C,FB1*%
D12*
X56337221Y-53490000D02*
X56662779Y-53490000D01*
X56337221Y-54510000D02*
X56662779Y-54510000D01*
%TO.C,J1*%
X44390000Y-35510000D02*
X44390000Y-33290000D01*
X48500000Y-33290000D02*
X44390000Y-33290000D01*
X48500000Y-35510000D02*
X44390000Y-35510000D01*
X48500000Y-35510000D02*
X48500000Y-33290000D01*
X49500000Y-35510000D02*
X50610000Y-35510000D01*
X50610000Y-35510000D02*
X50610000Y-34400000D01*
%TO.C,J4*%
X32890000Y-62340000D02*
X35110000Y-62340000D01*
X32890000Y-64450000D02*
X32890000Y-62340000D01*
X32890000Y-64450000D02*
X35110000Y-64450000D01*
X32890000Y-65450000D02*
X32890000Y-66560000D01*
X32890000Y-66560000D02*
X34000000Y-66560000D01*
X35110000Y-64450000D02*
X35110000Y-62340000D01*
%TO.C,J9*%
X34890000Y-49090000D02*
X37110000Y-49090000D01*
X34890000Y-51200000D02*
X34890000Y-49090000D01*
X34890000Y-51200000D02*
X37110000Y-51200000D01*
X34890000Y-52200000D02*
X34890000Y-53310000D01*
X34890000Y-53310000D02*
X36000000Y-53310000D01*
X37110000Y-51200000D02*
X37110000Y-49090000D01*
%TO.C,J3*%
X66640000Y-64140000D02*
X68860000Y-64140000D01*
X66640000Y-66250000D02*
X66640000Y-64140000D01*
X66640000Y-66250000D02*
X68860000Y-66250000D01*
X66640000Y-67250000D02*
X66640000Y-68360000D01*
X66640000Y-68360000D02*
X67750000Y-68360000D01*
X68860000Y-66250000D02*
X68860000Y-64140000D01*
%TD*%
%LPC*%
D13*
%TO.C,U3*%
X63361608Y-69499133D03*
X63361608Y-66959133D03*
X63361608Y-58831133D03*
X63361608Y-56291133D03*
X44819608Y-58831133D03*
X44819608Y-56291133D03*
X44819608Y-69499133D03*
X44819608Y-66959133D03*
%TD*%
D14*
%TO.C,J14*%
X58000000Y-34400000D03*
D15*
X56000000Y-34400000D03*
%TD*%
D16*
%TO.C,J8*%
X74740000Y-45350000D03*
D17*
X74740000Y-47890000D03*
X74740000Y-50430000D03*
X74740000Y-52970000D03*
X74740000Y-55510000D03*
D16*
X74740000Y-58050000D03*
%TD*%
%TO.C,J7*%
X29660000Y-45350000D03*
D17*
X29660000Y-47890000D03*
X29660000Y-50430000D03*
X29660000Y-52970000D03*
X29660000Y-55510000D03*
D16*
X29660000Y-58050000D03*
%TD*%
D17*
%TO.C,U2*%
X42514971Y-42433697D03*
X42530000Y-37380000D03*
X42514971Y-44932365D03*
X42514971Y-47502422D03*
X42514971Y-52571148D03*
X70357267Y-52785320D03*
X70372296Y-37594172D03*
%TD*%
D18*
%TO.C,FB1*%
X55712500Y-54000000D03*
X57287500Y-54000000D03*
%TD*%
D14*
%TO.C,J1*%
X49500000Y-34400000D03*
D15*
X47500000Y-34400000D03*
X45500000Y-34400000D03*
%TD*%
D14*
%TO.C,J4*%
X34000000Y-65450000D03*
D15*
X34000000Y-63450000D03*
%TD*%
D14*
%TO.C,J9*%
X36000000Y-52200000D03*
D15*
X36000000Y-50200000D03*
%TD*%
D14*
%TO.C,J3*%
X67750000Y-67250000D03*
D15*
X67750000Y-65250000D03*
%TD*%
%LPD*%
M02*
