%TF.GenerationSoftware,KiCad,Pcbnew,10.0.3*%
%TF.CreationDate,2026-06-04T13:32:58+09:00*%
%TF.ProjectId,power-IP2326-MP1584-FPC,706f7765-722d-4495-9032-3332362d4d50,rev?*%
%TF.SameCoordinates,Original*%
%TF.FileFunction,Soldermask,Bot*%
%TF.FilePolarity,Negative*%
%FSLAX46Y46*%
G04 Gerber Fmt 4.6, Leading zero omitted, Abs format (unit mm)*
G04 Created by KiCad (PCBNEW 10.0.3) date 2026-06-04 13:32:58*
%MOMM*%
%LPD*%
G01*
G04 APERTURE LIST*
G04 Aperture macros list*
%AMRoundRect*
0 Rectangle with rounded corners*
0 $1 Rounding radius*
0 $2 $3 $4 $5 $6 $7 $8 $9 X,Y pos of 4 corners*
0 Add a 4 corners polygon primitive as box body*
4,1,4,$2,$3,$4,$5,$6,$7,$8,$9,$2,$3,0*
0 Add four circle primitives for the rounded corners*
1,1,$1+$1,$2,$3*
1,1,$1+$1,$4,$5*
1,1,$1+$1,$6,$7*
1,1,$1+$1,$8,$9*
0 Add four rect primitives between the rounded corners*
20,1,$1+$1,$2,$3,$4,$5,0*
20,1,$1+$1,$4,$5,$6,$7,0*
20,1,$1+$1,$6,$7,$8,$9,0*
20,1,$1+$1,$8,$9,$2,$3,0*%
G04 Aperture macros list end*
%ADD10C,2.000000*%
%ADD11R,1.350000X1.350000*%
%ADD12C,1.350000*%
%ADD13R,1.700000X1.700000*%
%ADD14C,1.700000*%
%ADD15RoundRect,0.218750X-0.218750X-0.256250X0.218750X-0.256250X0.218750X0.256250X-0.218750X0.256250X0*%
G04 APERTURE END LIST*
D10*
%TO.C,U3*%
X63361608Y-69499133D03*
X63361608Y-66959133D03*
X63361608Y-58831133D03*
X63361608Y-56291133D03*
X44819608Y-58831133D03*
X44819608Y-56291133D03*
X44819608Y-69499133D03*
X44819608Y-66959133D03*
%TD*%
D11*
%TO.C,J14*%
X58000000Y-34400000D03*
D12*
X56000000Y-34400000D03*
%TD*%
D13*
%TO.C,J8*%
X74740000Y-45350000D03*
D14*
X74740000Y-47890000D03*
X74740000Y-50430000D03*
X74740000Y-52970000D03*
X74740000Y-55510000D03*
D13*
X74740000Y-58050000D03*
%TD*%
%TO.C,J7*%
X29660000Y-45350000D03*
D14*
X29660000Y-47890000D03*
X29660000Y-50430000D03*
X29660000Y-52970000D03*
X29660000Y-55510000D03*
D13*
X29660000Y-58050000D03*
%TD*%
D14*
%TO.C,U2*%
X42514971Y-42433697D03*
X42530000Y-37380000D03*
X42514971Y-44932365D03*
X42514971Y-47502422D03*
X42514971Y-52571148D03*
X70357267Y-52785320D03*
X70372296Y-37594172D03*
%TD*%
D15*
%TO.C,FB1*%
X55712500Y-54000000D03*
X57287500Y-54000000D03*
%TD*%
D11*
%TO.C,J1*%
X49500000Y-34400000D03*
D12*
X47500000Y-34400000D03*
X45500000Y-34400000D03*
%TD*%
D11*
%TO.C,J4*%
X34000000Y-65450000D03*
D12*
X34000000Y-63450000D03*
%TD*%
D11*
%TO.C,J9*%
X36000000Y-52200000D03*
D12*
X36000000Y-50200000D03*
%TD*%
D11*
%TO.C,J3*%
X67750000Y-67250000D03*
D12*
X67750000Y-65250000D03*
%TD*%
M02*
