%TF.GenerationSoftware,KiCad,Pcbnew,10.0.3*%
%TF.CreationDate,2026-06-04T13:32:58+09:00*%
%TF.ProjectId,power-IP2326-MP1584-FPC,706f7765-722d-4495-9032-3332362d4d50,rev?*%
%TF.SameCoordinates,Original*%
%TF.FileFunction,Copper,L1,Top*%
%TF.FilePolarity,Positive*%
%FSLAX46Y46*%
G04 Gerber Fmt 4.6, Leading zero omitted, Abs format (unit mm)*
G04 Created by KiCad (PCBNEW 10.0.3) date 2026-06-04 13:32:58*
%MOMM*%
%LPD*%
G01*
G04 APERTURE LIST*
G04 Aperture macros list*
%AMRoundRect*
0 Rectangle with rounded corners*
0 $1 Rounding radius*
0 $2 $3 $4 $5 $6 $7 $8 $9 X,Y pos of 4 corners*
0 Add a 4 corners polygon primitive as box body*
4,1,4,$2,$3,$4,$5,$6,$7,$8,$9,$2,$3,0*
0 Add four circle primitives for the rounded corners*
1,1,$1+$1,$2,$3*
1,1,$1+$1,$4,$5*
1,1,$1+$1,$6,$7*
1,1,$1+$1,$8,$9*
0 Add four rect primitives between the rounded corners*
20,1,$1+$1,$2,$3,$4,$5,0*
20,1,$1+$1,$4,$5,$6,$7,0*
20,1,$1+$1,$6,$7,$8,$9,0*
20,1,$1+$1,$8,$9,$2,$3,0*%
G04 Aperture macros list end*
%TA.AperFunction,SMDPad,CuDef*%
%ADD10RoundRect,0.225000X0.250000X-0.225000X0.250000X0.225000X-0.250000X0.225000X-0.250000X-0.225000X0*%
%TD*%
%TA.AperFunction,SMDPad,CuDef*%
%ADD11RoundRect,0.200000X-0.275000X0.200000X-0.275000X-0.200000X0.275000X-0.200000X0.275000X0.200000X0*%
%TD*%
%TA.AperFunction,SMDPad,CuDef*%
%ADD12RoundRect,0.250000X-0.475000X0.250000X-0.475000X-0.250000X0.475000X-0.250000X0.475000X0.250000X0*%
%TD*%
%TA.AperFunction,SMDPad,CuDef*%
%ADD13RoundRect,0.250000X-0.250000X-0.475000X0.250000X-0.475000X0.250000X0.475000X-0.250000X0.475000X0*%
%TD*%
%TA.AperFunction,SMDPad,CuDef*%
%ADD14RoundRect,0.225000X-0.250000X0.225000X-0.250000X-0.225000X0.250000X-0.225000X0.250000X0.225000X0*%
%TD*%
%TA.AperFunction,SMDPad,CuDef*%
%ADD15RoundRect,0.250000X0.475000X-0.250000X0.475000X0.250000X-0.475000X0.250000X-0.475000X-0.250000X0*%
%TD*%
%TA.AperFunction,SMDPad,CuDef*%
%ADD16RoundRect,0.250000X-0.420000X-0.945000X0.420000X-0.945000X0.420000X0.945000X-0.420000X0.945000X0*%
%TD*%
%TA.AperFunction,SMDPad,CuDef*%
%ADD17RoundRect,0.250000X1.300000X0.850000X-1.300000X0.850000X-1.300000X-0.850000X1.300000X-0.850000X0*%
%TD*%
%TA.AperFunction,SMDPad,CuDef*%
%ADD18RoundRect,0.250000X0.500000X0.510000X-0.500000X0.510000X-0.500000X-0.510000X0.500000X-0.510000X0*%
%TD*%
%TA.AperFunction,ComponentPad*%
%ADD19C,2.000000*%
%TD*%
%TA.AperFunction,SMDPad,CuDef*%
%ADD20RoundRect,0.162500X0.482500X0.162499X-0.482500X0.162499X-0.482500X-0.162499X0.482500X-0.162499X0*%
%TD*%
%TA.AperFunction,SMDPad,CuDef*%
%ADD21RoundRect,0.165040X0.477350X0.165039X-0.477350X0.165039X-0.477350X-0.165039X0.477350X-0.165039X0*%
%TD*%
%TA.AperFunction,SMDPad,CuDef*%
%ADD22RoundRect,0.162500X0.482500X0.162500X-0.482500X0.162500X-0.482500X-0.162500X0.482500X-0.162500X0*%
%TD*%
%TA.AperFunction,SMDPad,CuDef*%
%ADD23RoundRect,0.171999X0.472778X0.171999X-0.472778X0.171999X-0.472778X-0.171999X0.472778X-0.171999X0*%
%TD*%
%TA.AperFunction,ComponentPad*%
%ADD24R,1.350000X1.350000*%
%TD*%
%TA.AperFunction,ComponentPad*%
%ADD25C,1.350000*%
%TD*%
%TA.AperFunction,ComponentPad*%
%ADD26R,1.700000X1.700000*%
%TD*%
%TA.AperFunction,ComponentPad*%
%ADD27C,1.700000*%
%TD*%
%TA.AperFunction,SMDPad,CuDef*%
%ADD28RoundRect,0.225000X-0.225000X-0.250000X0.225000X-0.250000X0.225000X0.250000X-0.225000X0.250000X0*%
%TD*%
%TA.AperFunction,SMDPad,CuDef*%
%ADD29RoundRect,0.150000X-0.587500X-0.150000X0.587500X-0.150000X0.587500X0.150000X-0.587500X0.150000X0*%
%TD*%
%TA.AperFunction,ViaPad*%
%ADD30C,1.000000*%
%TD*%
%TA.AperFunction,ViaPad*%
%ADD31C,0.600000*%
%TD*%
%TA.AperFunction,Conductor*%
%ADD32C,0.250000*%
%TD*%
%TA.AperFunction,Conductor*%
%ADD33C,1.000000*%
%TD*%
%TA.AperFunction,Conductor*%
%ADD34C,0.500000*%
%TD*%
%TA.AperFunction,Conductor*%
%ADD35C,0.800000*%
%TD*%
G04 APERTURE END LIST*
D10*
%TO.P,C8,1*%
%TO.N,POWER*%
X40450000Y-41165000D03*
%TO.P,C8,2*%
%TO.N,PGND*%
X40450000Y-39615000D03*
%TD*%
D11*
%TO.P,R4,1*%
%TO.N,GATE*%
X33850000Y-39565000D03*
%TO.P,R4,2*%
%TO.N,VOUT*%
X33850000Y-41215000D03*
%TD*%
D12*
%TO.P,C3,1*%
%TO.N,VIN*%
X69000000Y-56300000D03*
%TO.P,C3,2*%
%TO.N,PGND*%
X69000000Y-58200000D03*
%TD*%
D13*
%TO.P,C5,1*%
%TO.N,VOUT*%
X39550000Y-61200000D03*
%TO.P,C5,2*%
%TO.N,PGND*%
X41450000Y-61200000D03*
%TD*%
D14*
%TO.P,C2,1*%
%TO.N,VIN*%
X67000000Y-56475000D03*
%TO.P,C2,2*%
%TO.N,PGND*%
X67000000Y-58025000D03*
%TD*%
D15*
%TO.P,C6,1*%
%TO.N,VOUT*%
X36500000Y-61400000D03*
%TO.P,C6,2*%
%TO.N,PGND*%
X36500000Y-59500000D03*
%TD*%
D16*
%TO.P,C1,1*%
%TO.N,VIN*%
X66960000Y-60750000D03*
%TO.P,C1,2*%
%TO.N,PGND*%
X70040000Y-60750000D03*
%TD*%
D17*
%TO.P,D1,1,K_1*%
%TO.N,CHARGE*%
X64020000Y-34400000D03*
D18*
%TO.P,D1,2,A_2*%
%TO.N,POWER*%
X60800000Y-34400000D03*
%TD*%
D19*
%TO.P,U3,1,IN-_1*%
%TO.N,PGND*%
X63361608Y-69499133D03*
X63361608Y-66959133D03*
%TO.P,U3,2,IN+_2*%
%TO.N,VIN*%
X63361608Y-58831133D03*
X63361608Y-56291133D03*
%TO.P,U3,3,OUT+_3*%
%TO.N,VOUT*%
X44819608Y-58831133D03*
X44819608Y-56291133D03*
%TO.P,U3,4,OUT-_4*%
%TO.N,PGND*%
X44819608Y-69499133D03*
X44819608Y-66959133D03*
%TD*%
D20*
%TO.P,U1,1,IN_1*%
%TO.N,POWER*%
X38505000Y-41089999D03*
D21*
%TO.P,U1,2,GND_2*%
%TO.N,PGND*%
X38502390Y-40134921D03*
D22*
%TO.P,U1,3,CLR_3*%
X38505000Y-39190000D03*
%TO.P,U1,4,OUT__4*%
%TO.N,GATE*%
X35795000Y-39190000D03*
D23*
%TO.P,U1,5,OUT_5*%
%TO.N,unconnected-(U1-OUT-Pad5)*%
X35795223Y-40121002D03*
D22*
%TO.P,U1,6,VCC_6*%
%TO.N,VOUT*%
X35795000Y-41090000D03*
%TD*%
D24*
%TO.P,J14,1,Pin_1_1*%
%TO.N,PGND*%
X58000000Y-34400000D03*
D25*
%TO.P,J14,2,Pin_2_2*%
%TO.N,POWER*%
X56000000Y-34400000D03*
%TD*%
D16*
%TO.P,C7,1*%
%TO.N,VOUT*%
X38710000Y-64200000D03*
%TO.P,C7,2*%
%TO.N,PGND*%
X41790000Y-64200000D03*
%TD*%
D26*
%TO.P,J8,1,Pin_1_1*%
%TO.N,PGND*%
X74740000Y-45350000D03*
D27*
%TO.P,J8,2,Pin_2_2*%
%TO.N,CHARGE*%
X74740000Y-47890000D03*
%TO.P,J8,3,Pin_3_3*%
X74740000Y-50430000D03*
%TO.P,J8,4,Pin_4_4*%
%TO.N,VIN*%
X74740000Y-52970000D03*
%TO.P,J8,5,Pin_5_5*%
X74740000Y-55510000D03*
D26*
%TO.P,J8,6,Pin_6_6*%
%TO.N,PGND*%
X74740000Y-58050000D03*
%TD*%
D28*
%TO.P,C4,1*%
%TO.N,VOUT*%
X39700000Y-59250000D03*
%TO.P,C4,2*%
%TO.N,PGND*%
X41250000Y-59250000D03*
%TD*%
D29*
%TO.P,Q2,1,G_1*%
%TO.N,GATE*%
X35325000Y-43450000D03*
%TO.P,Q2,2,S_2*%
%TO.N,VOUT_SWITCHED*%
X35325000Y-45350000D03*
%TO.P,Q2,3,D_3*%
%TO.N,VOUT*%
X37200000Y-44400000D03*
%TD*%
D11*
%TO.P,R5,1*%
%TO.N,POWER*%
X39800000Y-43550000D03*
%TO.P,R5,2*%
%TO.N,PGND*%
X39800000Y-45200000D03*
%TD*%
D26*
%TO.P,J7,1,Pin_1_1*%
%TO.N,PGND*%
X29660000Y-45350000D03*
D27*
%TO.P,J7,2,Pin_2_2*%
%TO.N,VOUT_SWITCHED*%
X29660000Y-47890000D03*
%TO.P,J7,3,Pin_3_3*%
X29660000Y-50430000D03*
%TO.P,J7,4,Pin_4_4*%
%TO.N,VOUT*%
X29660000Y-52970000D03*
%TO.P,J7,5,Pin_5_5*%
X29660000Y-55510000D03*
D26*
%TO.P,J7,6,Pin_6_6*%
%TO.N,PGND*%
X29660000Y-58050000D03*
%TD*%
D27*
%TO.P,U2,1,B+_1*%
%TO.N,P+*%
X42514971Y-42433697D03*
X42530000Y-37380000D03*
%TO.P,U2,2,BM_2*%
%TO.N,BM*%
X42514971Y-44932365D03*
%TO.P,U2,3,B-_3*%
%TO.N,P-*%
X42514971Y-47502422D03*
X42514971Y-52571148D03*
%TO.P,U2,4,VIN_4*%
%TO.N,CHARGE*%
X70357267Y-52785320D03*
%TO.P,U2,5,GND_5*%
%TO.N,PGND*%
X70372296Y-37594172D03*
%TD*%
D24*
%TO.P,J1,1,Pin_1_1*%
%TO.N,P-*%
X49500000Y-34400000D03*
D25*
%TO.P,J1,2,Pin_2_2*%
%TO.N,BM*%
X47500000Y-34400000D03*
%TO.P,J1,3,Pin_3_3*%
%TO.N,P+*%
X45500000Y-34400000D03*
%TD*%
D24*
%TO.P,J4,1,Pin_1_1*%
%TO.N,PGND*%
X34000000Y-65450000D03*
D25*
%TO.P,J4,2,Pin_2_2*%
%TO.N,VOUT*%
X34000000Y-63450000D03*
%TD*%
D24*
%TO.P,J9,1,Pin_1_1*%
%TO.N,PGND*%
X36000000Y-52200000D03*
D25*
%TO.P,J9,2,Pin_2_2*%
%TO.N,VOUT_SWITCHED*%
X36000000Y-50200000D03*
%TD*%
D24*
%TO.P,J3,1,Pin_1_1*%
%TO.N,PGND*%
X67750000Y-67250000D03*
D25*
%TO.P,J3,2,Pin_2_2*%
%TO.N,VIN*%
X67750000Y-65250000D03*
%TD*%
D30*
%TO.N,POWER*%
X38800000Y-42400000D03*
D31*
%TO.N,PGND*%
X38502390Y-38000000D03*
X39800000Y-46600000D03*
%TD*%
%TO.N,POWER*%
D32*
X40374999Y-41089999D02*
X40450000Y-41165000D01*
X39800000Y-43550000D02*
X40450000Y-42900000D01*
X38505000Y-41089999D02*
X40374999Y-41089999D01*
D33*
X60800000Y-34400000D02*
X60800000Y-33400000D01*
X60800000Y-33400000D02*
X60100000Y-32700000D01*
X56000000Y-33400000D02*
X56000000Y-34400000D01*
D32*
X38505000Y-41089999D02*
X38505000Y-42105000D01*
D33*
X60100000Y-32700000D02*
X56700000Y-32700000D01*
D32*
X38505000Y-42105000D02*
X38800000Y-42400000D01*
X38800000Y-43210050D02*
X38800000Y-42400000D01*
D33*
X56700000Y-32700000D02*
X56000000Y-33400000D01*
D32*
X39800000Y-43550000D02*
X39139950Y-43550000D01*
X39139950Y-43550000D02*
X38800000Y-43210050D01*
X40450000Y-42900000D02*
X40450000Y-41165000D01*
%TO.N,PGND*%
D34*
X70040000Y-59240000D02*
X69000000Y-58200000D01*
X41250000Y-61000000D02*
X41450000Y-61200000D01*
D32*
X39800000Y-45200000D02*
X37410000Y-42810000D01*
D35*
X44819608Y-65419608D02*
X44819608Y-66959133D01*
D34*
X70040000Y-65960000D02*
X68750000Y-67250000D01*
D32*
X38502390Y-39192610D02*
X38505000Y-39190000D01*
X38505000Y-39190000D02*
X40025000Y-39190000D01*
D34*
X68825000Y-58025000D02*
X69000000Y-58200000D01*
X67000000Y-58025000D02*
X68825000Y-58025000D01*
D35*
X43600000Y-64200000D02*
X44819608Y-65419608D01*
D32*
X37410000Y-42810000D02*
X37410000Y-40584922D01*
D34*
X70040000Y-60750000D02*
X70040000Y-65960000D01*
D32*
X38502390Y-40134921D02*
X38502390Y-39200000D01*
X38505000Y-39190000D02*
X38505000Y-38002610D01*
D34*
X41250000Y-59250000D02*
X41250000Y-61000000D01*
D32*
X37410000Y-40584922D02*
X37860001Y-40134921D01*
D35*
X36500000Y-59500000D02*
X36500000Y-56000000D01*
D32*
X38502390Y-39200000D02*
X38502390Y-39192610D01*
D35*
X41790000Y-64200000D02*
X43600000Y-64200000D01*
D34*
X70040000Y-60750000D02*
X70040000Y-59240000D01*
D32*
X40025000Y-39190000D02*
X40450000Y-39615000D01*
X38505000Y-38002610D02*
X38502390Y-38000000D01*
D34*
X68750000Y-67250000D02*
X67750000Y-67250000D01*
D35*
X36000000Y-55500000D02*
X36000000Y-52200000D01*
D32*
X37860001Y-40134921D02*
X38502390Y-40134921D01*
D34*
X41450000Y-61200000D02*
X41450000Y-63860000D01*
D35*
X36500000Y-56000000D02*
X36000000Y-55500000D01*
D34*
X41450000Y-63860000D02*
X41790000Y-64200000D01*
X39800000Y-45200000D02*
X39800000Y-46600000D01*
%TO.N,GATE*%
D32*
X32825000Y-39975000D02*
X32825000Y-42825000D01*
X34225000Y-39190000D02*
X33850000Y-39565000D01*
X35795000Y-39190000D02*
X34225000Y-39190000D01*
X33850000Y-39565000D02*
X33235000Y-39565000D01*
X33450000Y-43450000D02*
X35325000Y-43450000D01*
X32825000Y-42825000D02*
X33450000Y-43450000D01*
X33235000Y-39565000D02*
X32825000Y-39975000D01*
%TO.N,VOUT*%
D33*
X29660000Y-55510000D02*
X29660000Y-52970000D01*
X34600000Y-61400000D02*
X34600000Y-58100000D01*
X32010000Y-55510000D02*
X29660000Y-55510000D01*
D34*
X40500000Y-57500000D02*
X39700000Y-58300000D01*
X39700000Y-58300000D02*
X39700000Y-59250000D01*
X40508867Y-56291133D02*
X40500000Y-56300000D01*
D33*
X38000000Y-57500000D02*
X39208867Y-56291133D01*
X40508867Y-56291133D02*
X40508867Y-51708867D01*
D35*
X44819608Y-56291133D02*
X44819608Y-58831133D01*
D33*
X34000000Y-62000000D02*
X34000000Y-63450000D01*
D32*
X37200000Y-44400000D02*
X36512500Y-43712500D01*
X35795000Y-41742500D02*
X35795000Y-41090000D01*
X36512500Y-43712500D02*
X36512500Y-42460000D01*
D33*
X37100000Y-61400000D02*
X38000000Y-60500000D01*
X44819608Y-56291133D02*
X40508867Y-56291133D01*
D34*
X39550000Y-61200000D02*
X39550000Y-63360000D01*
D33*
X38000000Y-60500000D02*
X38000000Y-57500000D01*
D34*
X39700000Y-59250000D02*
X39700000Y-61050000D01*
D32*
X35795000Y-41090000D02*
X33975000Y-41090000D01*
D33*
X34600000Y-61400000D02*
X34000000Y-62000000D01*
X36500000Y-61400000D02*
X34600000Y-61400000D01*
X37200000Y-48400000D02*
X37200000Y-44400000D01*
X34600000Y-58100000D02*
X32010000Y-55510000D01*
D34*
X39550000Y-63360000D02*
X38710000Y-64200000D01*
X40500000Y-56300000D02*
X40500000Y-57500000D01*
D32*
X36512500Y-42460000D02*
X35795000Y-41742500D01*
D33*
X36500000Y-61400000D02*
X37100000Y-61400000D01*
X39208867Y-56291133D02*
X40508867Y-56291133D01*
X40508867Y-51708867D02*
X37200000Y-48400000D01*
D32*
X33975000Y-41090000D02*
X33850000Y-41215000D01*
D34*
X39700000Y-61050000D02*
X39550000Y-61200000D01*
%TO.N,VIN*%
X67000000Y-56475000D02*
X63545475Y-56475000D01*
X67175000Y-56300000D02*
X67000000Y-56475000D01*
D35*
X65280475Y-60750000D02*
X66960000Y-60750000D01*
D34*
X69000000Y-56300000D02*
X67175000Y-56300000D01*
D35*
X74740000Y-55510000D02*
X71990000Y-55510000D01*
X74740000Y-55510000D02*
X74740000Y-52970000D01*
X63361608Y-58831133D02*
X65280475Y-60750000D01*
X71990000Y-55510000D02*
X71200000Y-56300000D01*
X63361608Y-56291133D02*
X63361608Y-58831133D01*
D34*
X63545475Y-56475000D02*
X63361608Y-56291133D01*
D35*
X71200000Y-56300000D02*
X69000000Y-56300000D01*
%TO.N,CHARGE*%
D33*
X64020000Y-39820000D02*
X70357267Y-46157267D01*
X64020000Y-34400000D02*
X64020000Y-39820000D01*
X72712587Y-50430000D02*
X74740000Y-50430000D01*
D35*
X74740000Y-47890000D02*
X74740000Y-50430000D01*
D33*
X70357267Y-52785320D02*
X72712587Y-50430000D01*
X70357267Y-46157267D02*
X70357267Y-52785320D01*
%TO.N,VOUT_SWITCHED*%
X33700000Y-50200000D02*
X31390000Y-47890000D01*
X36000000Y-50200000D02*
X33700000Y-50200000D01*
X36000000Y-47750000D02*
X36000000Y-50200000D01*
X35325000Y-47075000D02*
X36000000Y-47750000D01*
X31390000Y-47890000D02*
X29660000Y-47890000D01*
X35325000Y-45350000D02*
X35325000Y-47075000D01*
X29660000Y-47890000D02*
X29660000Y-50430000D01*
%TO.N,P+*%
X42514971Y-37395029D02*
X42530000Y-37380000D01*
X44802944Y-43700000D02*
X46300000Y-42202944D01*
X46300000Y-42202944D02*
X46300000Y-35200000D01*
X43781274Y-43700000D02*
X44802944Y-43700000D01*
X42514971Y-42433697D02*
X42514971Y-37395029D01*
X42514971Y-42433697D02*
X43781274Y-43700000D01*
X46300000Y-35200000D02*
X45500000Y-34400000D01*
%TO.N,BM*%
X47500000Y-42700000D02*
X45267635Y-44932365D01*
X47500000Y-34400000D02*
X47500000Y-42700000D01*
X45267635Y-44932365D02*
X42514971Y-44932365D01*
%TO.N,P-*%
X42514971Y-47502422D02*
X42514971Y-52571148D01*
X43885028Y-46132365D02*
X45764691Y-46132365D01*
X48700000Y-35200000D02*
X49500000Y-34400000D01*
X48700000Y-43197056D02*
X48700000Y-35200000D01*
X45764691Y-46132365D02*
X48700000Y-43197056D01*
X42514971Y-47502422D02*
X43885028Y-46132365D01*
%TD*%
%TA.AperFunction,Conductor*%
%TO.N,VOUT_SWITCHED*%
G36*
X33130617Y-44002382D02*
G01*
X33154112Y-44007055D01*
X33160958Y-44009131D01*
X33164827Y-44009687D01*
X33171225Y-44011563D01*
X33267548Y-44051463D01*
X33388388Y-44075499D01*
X33388392Y-44075500D01*
X33388393Y-44075500D01*
X33388394Y-44075500D01*
X34223861Y-44075500D01*
X34258795Y-44080523D01*
X34284035Y-44087934D01*
X34301875Y-44098519D01*
X34302267Y-44098554D01*
X34318663Y-44108479D01*
X34328619Y-44114387D01*
X34329466Y-44113296D01*
X34332942Y-44115992D01*
X34332949Y-44115998D01*
X34333946Y-44116772D01*
X34334011Y-44116701D01*
X34334021Y-44116710D01*
X34334711Y-44117365D01*
X34335632Y-44118079D01*
X34335634Y-44118080D01*
X34335635Y-44118081D01*
X34477102Y-44201744D01*
X34494209Y-44206714D01*
X34518708Y-44213832D01*
X34518717Y-44213834D01*
X34518724Y-44213836D01*
X34624135Y-44244461D01*
X34625330Y-44244930D01*
X34634168Y-44247386D01*
X34634903Y-44247595D01*
X34634925Y-44247596D01*
X34634926Y-44247597D01*
X34634928Y-44247597D01*
X34634929Y-44247597D01*
X34634931Y-44247598D01*
X34671806Y-44250500D01*
X35820171Y-44250500D01*
X35841609Y-44252367D01*
X35850935Y-44254004D01*
X35853769Y-44255405D01*
X35855102Y-44255522D01*
X35859472Y-44256805D01*
X35859187Y-44257774D01*
X35875299Y-44261887D01*
X35875556Y-44261199D01*
X35878402Y-44262261D01*
X35879249Y-44262895D01*
X35881019Y-44263347D01*
X35883727Y-44264584D01*
X35883160Y-44265823D01*
X35895080Y-44274746D01*
X35904805Y-44277599D01*
X35909438Y-44282943D01*
X35913562Y-44284983D01*
X35917479Y-44291514D01*
X35929566Y-44300563D01*
X35930592Y-44299675D01*
X35931507Y-44300731D01*
X35932398Y-44302683D01*
X35934310Y-44304114D01*
X35936137Y-44306554D01*
X35934669Y-44307653D01*
X35938911Y-44316938D01*
X35950574Y-44330391D01*
X35960526Y-44364252D01*
X35960733Y-44365689D01*
X35962000Y-44383369D01*
X35962000Y-44408170D01*
X35956975Y-44443114D01*
X35952570Y-44458112D01*
X35914827Y-44516855D01*
X35913458Y-44518042D01*
X35858597Y-44545518D01*
X35851039Y-44547163D01*
X35824668Y-44550000D01*
X35575000Y-44550000D01*
X35575000Y-46150000D01*
X35858171Y-46150000D01*
X35893106Y-46155023D01*
X35908104Y-46159427D01*
X35966855Y-46197172D01*
X35966879Y-46197200D01*
X35966882Y-46197202D01*
X35966883Y-46197204D01*
X35968042Y-46198541D01*
X35995518Y-46253402D01*
X35997163Y-46260960D01*
X36000000Y-46287331D01*
X36000000Y-48886618D01*
X35999999Y-48886624D01*
X36000000Y-48886627D01*
X35994975Y-48921562D01*
X35990570Y-48936560D01*
X35952800Y-48995327D01*
X35947817Y-48999645D01*
X35886011Y-49028407D01*
X35724849Y-49053933D01*
X35548962Y-49111081D01*
X35384162Y-49195051D01*
X35363568Y-49210014D01*
X35363567Y-49210015D01*
X35817054Y-49663501D01*
X35850539Y-49724824D01*
X35845555Y-49794515D01*
X35803684Y-49850449D01*
X35791374Y-49858568D01*
X35754400Y-49879915D01*
X35754392Y-49879921D01*
X35679921Y-49954392D01*
X35679915Y-49954400D01*
X35658568Y-49991374D01*
X35608001Y-50039589D01*
X35539393Y-50052811D01*
X35474529Y-50026843D01*
X35463501Y-50017054D01*
X35010015Y-49563567D01*
X35010014Y-49563568D01*
X34995051Y-49584162D01*
X34911081Y-49748962D01*
X34853933Y-49924850D01*
X34853933Y-49924852D01*
X34825000Y-50107526D01*
X34825000Y-50292473D01*
X34839466Y-50383810D01*
X34853933Y-50475148D01*
X34911081Y-50651036D01*
X34911082Y-50651039D01*
X34911083Y-50651040D01*
X34911084Y-50651043D01*
X34988928Y-50803817D01*
X34988928Y-50803818D01*
X34988929Y-50803819D01*
X35000313Y-50837226D01*
X35002875Y-50850869D01*
X34995901Y-50920390D01*
X34952458Y-50975098D01*
X34952450Y-50975103D01*
X34952449Y-50975105D01*
X34952447Y-50975105D01*
X34949732Y-50977020D01*
X34898583Y-50998003D01*
X34896637Y-50998326D01*
X34876333Y-51000000D01*
X32547123Y-51000000D01*
X32529477Y-50998738D01*
X32500001Y-50994500D01*
X32500000Y-50994500D01*
X32500000Y-45600000D01*
X34090203Y-45600000D01*
X34090398Y-45602480D01*
X34090398Y-45602483D01*
X34090399Y-45602486D01*
X34136218Y-45760198D01*
X34136219Y-45760199D01*
X34219812Y-45901549D01*
X34219821Y-45901561D01*
X34335936Y-46017676D01*
X34335947Y-46017685D01*
X34335952Y-46017688D01*
X34477299Y-46101280D01*
X34477300Y-46101280D01*
X34477303Y-46101282D01*
X34477306Y-46101283D01*
X34477328Y-46101289D01*
X34477333Y-46101291D01*
X34634993Y-46147096D01*
X34634997Y-46147097D01*
X34635004Y-46147099D01*
X34635010Y-46147100D01*
X34671850Y-46149999D01*
X34671866Y-46150000D01*
X35075000Y-46150000D01*
X35075000Y-45600000D01*
X34090203Y-45600000D01*
X32500000Y-45600000D01*
X32500000Y-45099996D01*
X34090203Y-45099996D01*
X34090204Y-45099999D01*
X34090205Y-45100000D01*
X35075000Y-45100000D01*
X35075000Y-44550000D01*
X34671844Y-44550000D01*
X34640272Y-44552484D01*
X34635010Y-44552899D01*
X34635004Y-44552900D01*
X34634997Y-44552901D01*
X34634993Y-44552902D01*
X34477333Y-44598707D01*
X34477302Y-44598717D01*
X34477299Y-44598718D01*
X34335952Y-44682310D01*
X34335947Y-44682313D01*
X34335936Y-44682322D01*
X34219821Y-44798437D01*
X34219812Y-44798449D01*
X34136219Y-44939799D01*
X34090399Y-45097514D01*
X34090398Y-45097519D01*
X34090203Y-45099996D01*
X32500000Y-45099996D01*
X32500000Y-44000000D01*
X33106428Y-44000000D01*
X33130617Y-44002382D01*
G37*
%TD.AperFunction*%
%TD*%
%TA.AperFunction,Conductor*%
%TO.N,PGND*%
G36*
X46500000Y-71199500D02*
G01*
X45223422Y-71199500D01*
X45156383Y-71179815D01*
X45110628Y-71127011D01*
X45100684Y-71057853D01*
X45129709Y-70994297D01*
X45185104Y-70957569D01*
X45395410Y-70889235D01*
X45605771Y-70782051D01*
X45605777Y-70782047D01*
X45688712Y-70721791D01*
X45688713Y-70721791D01*
X45067096Y-70100174D01*
X45127498Y-70075155D01*
X45233959Y-70004021D01*
X45324496Y-69913484D01*
X45395630Y-69807023D01*
X45420649Y-69746621D01*
X46042266Y-70368238D01*
X46042266Y-70368237D01*
X46102522Y-70285302D01*
X46102526Y-70285296D01*
X46209710Y-70074935D01*
X46282673Y-69850380D01*
X46319608Y-69617185D01*
X46319608Y-69381080D01*
X46282673Y-69147885D01*
X46209710Y-68923330D01*
X46102522Y-68712961D01*
X46042266Y-68630027D01*
X46042266Y-68630026D01*
X45420649Y-69251644D01*
X45395630Y-69191243D01*
X45324496Y-69084782D01*
X45233959Y-68994245D01*
X45127498Y-68923111D01*
X45067095Y-68898091D01*
X45688712Y-68276473D01*
X45685752Y-68238868D01*
X45685752Y-68219408D01*
X45688712Y-68181790D01*
X45067096Y-67560174D01*
X45127498Y-67535155D01*
X45233959Y-67464021D01*
X45324496Y-67373484D01*
X45395630Y-67267023D01*
X45420649Y-67206621D01*
X46042266Y-67828238D01*
X46042266Y-67828237D01*
X46102522Y-67745302D01*
X46102526Y-67745296D01*
X46209710Y-67534935D01*
X46282673Y-67310380D01*
X46319608Y-67077185D01*
X46319608Y-66841080D01*
X46282673Y-66607885D01*
X46209710Y-66383330D01*
X46106259Y-66180295D01*
X46093363Y-66111626D01*
X46119639Y-66046885D01*
X46176746Y-66006628D01*
X46216744Y-66000000D01*
X46500000Y-66000000D01*
X46500000Y-71199500D01*
G37*
%TD.AperFunction*%
%TD*%
%TA.AperFunction,NonConductor*%
G36*
X34250000Y-66625000D02*
G01*
X34722828Y-66625000D01*
X34722844Y-66624999D01*
X34782372Y-66618598D01*
X34782379Y-66618596D01*
X34917086Y-66568354D01*
X34917093Y-66568350D01*
X35032187Y-66482190D01*
X35032190Y-66482187D01*
X35118350Y-66367093D01*
X35118354Y-66367086D01*
X35168596Y-66232379D01*
X35168598Y-66232372D01*
X35174999Y-66172844D01*
X35175000Y-66172827D01*
X35175000Y-66124000D01*
X35194685Y-66056961D01*
X35247489Y-66011206D01*
X35299000Y-66000000D01*
X43422472Y-66000000D01*
X43489511Y-66019685D01*
X43535266Y-66072489D01*
X43545210Y-66141647D01*
X43532957Y-66180295D01*
X43429505Y-66383330D01*
X43356542Y-66607885D01*
X43319608Y-66841080D01*
X43319608Y-67077185D01*
X43356542Y-67310380D01*
X43429505Y-67534935D01*
X43536695Y-67745307D01*
X43596946Y-67828237D01*
X43596948Y-67828238D01*
X44218566Y-67206620D01*
X44243586Y-67267023D01*
X44314720Y-67373484D01*
X44405257Y-67464021D01*
X44511718Y-67535155D01*
X44572119Y-67560174D01*
X43950501Y-68181791D01*
X43953462Y-68219409D01*
X43953462Y-68238866D01*
X43950502Y-68276473D01*
X44572120Y-68898091D01*
X44511718Y-68923111D01*
X44405257Y-68994245D01*
X44314720Y-69084782D01*
X44243586Y-69191243D01*
X44218566Y-69251645D01*
X43596948Y-68630027D01*
X43536692Y-68712963D01*
X43429505Y-68923330D01*
X43356542Y-69147885D01*
X43319608Y-69381080D01*
X43319608Y-69617185D01*
X43356542Y-69850380D01*
X43429505Y-70074935D01*
X43536695Y-70285307D01*
X43596946Y-70368237D01*
X43596948Y-70368238D01*
X44218566Y-69746620D01*
X44243586Y-69807023D01*
X44314720Y-69913484D01*
X44405257Y-70004021D01*
X44511718Y-70075155D01*
X44572119Y-70100174D01*
X43950501Y-70721791D01*
X44033436Y-70782047D01*
X44243805Y-70889235D01*
X44454112Y-70957569D01*
X44511788Y-70997007D01*
X44538986Y-71061365D01*
X44527071Y-71130212D01*
X44479827Y-71181687D01*
X44415794Y-71199500D01*
X35771288Y-71199500D01*
X35704249Y-71179815D01*
X35658494Y-71127011D01*
X35649671Y-71099691D01*
X35599691Y-70848427D01*
X35599690Y-70848426D01*
X35599690Y-70848422D01*
X35499850Y-70519295D01*
X35368231Y-70201538D01*
X35326868Y-70124154D01*
X35206106Y-69898224D01*
X35206105Y-69898222D01*
X35206100Y-69898213D01*
X35015019Y-69612240D01*
X34796827Y-69346373D01*
X34796826Y-69346372D01*
X34796822Y-69346367D01*
X34553632Y-69103177D01*
X34287765Y-68884985D01*
X34287764Y-68884984D01*
X34287760Y-68884981D01*
X34001787Y-68693900D01*
X34001782Y-68693897D01*
X34001775Y-68693893D01*
X33698469Y-68531772D01*
X33698464Y-68531770D01*
X33380706Y-68400150D01*
X33258960Y-68363219D01*
X33051578Y-68300310D01*
X33051573Y-68300309D01*
X32829571Y-68256149D01*
X32800308Y-68250328D01*
X32738397Y-68217943D01*
X32703823Y-68157227D01*
X32700500Y-68128711D01*
X32700500Y-66497664D01*
X32720185Y-66430625D01*
X32772989Y-66384870D01*
X32842147Y-66374926D01*
X32905703Y-66403951D01*
X32923767Y-66423353D01*
X32967813Y-66482190D01*
X33082906Y-66568350D01*
X33082913Y-66568354D01*
X33217620Y-66618596D01*
X33217627Y-66618598D01*
X33277155Y-66624999D01*
X33277172Y-66625000D01*
X33750000Y-66625000D01*
X33750000Y-66000000D01*
X34250000Y-66000000D01*
X34250000Y-66625000D01*
G37*
%TD.AperFunction*%
%TA.AperFunction,Conductor*%
%TO.N,VIN*%
G36*
X73595733Y-52025185D02*
G01*
X73641488Y-52077989D01*
X73651432Y-52147147D01*
X73629012Y-52202385D01*
X73585381Y-52262438D01*
X73585379Y-52262442D01*
X73488904Y-52451782D01*
X73488903Y-52451784D01*
X73488903Y-52451785D01*
X73423242Y-52653865D01*
X73421716Y-52663505D01*
X73390000Y-52863753D01*
X73390000Y-53076246D01*
X73415860Y-53239517D01*
X73421715Y-53276485D01*
X73421716Y-53276493D01*
X73423242Y-53286133D01*
X73471913Y-53435925D01*
X73488904Y-53488217D01*
X73585374Y-53677548D01*
X73585375Y-53677550D01*
X73620674Y-53726137D01*
X73624728Y-53731716D01*
X74130297Y-53226145D01*
X74191618Y-53192662D01*
X74261309Y-53197646D01*
X74317243Y-53239517D01*
X74325362Y-53251826D01*
X74339898Y-53277003D01*
X74339900Y-53277005D01*
X74339901Y-53277007D01*
X74432993Y-53370099D01*
X74458169Y-53384634D01*
X74506384Y-53435200D01*
X74519608Y-53503807D01*
X74493640Y-53568672D01*
X74483850Y-53579702D01*
X74009971Y-54053581D01*
X74009970Y-54053581D01*
X74078773Y-54156090D01*
X74087078Y-54170455D01*
X74089285Y-54174941D01*
X74090303Y-54180815D01*
X74093386Y-54188084D01*
X74094064Y-54187871D01*
X74094676Y-54189810D01*
X74094183Y-54189965D01*
X74098384Y-54199869D01*
X74100809Y-54209660D01*
X74099892Y-54209886D01*
X74099574Y-54234313D01*
X74101216Y-54243784D01*
X74099395Y-54248095D01*
X74099029Y-54276207D01*
X74061726Y-54333432D01*
X74053486Y-54340573D01*
X74036204Y-54352221D01*
X74036584Y-54352841D01*
X74032434Y-54355383D01*
X73978282Y-54394726D01*
X73978281Y-54394727D01*
X74483850Y-54900296D01*
X74517335Y-54961619D01*
X74512351Y-55031311D01*
X74470479Y-55087244D01*
X74458173Y-55095362D01*
X74432996Y-55109898D01*
X74432990Y-55109903D01*
X74339903Y-55202990D01*
X74339898Y-55202996D01*
X74325362Y-55228173D01*
X74274793Y-55276387D01*
X74206185Y-55289607D01*
X74141322Y-55263637D01*
X74130296Y-55253850D01*
X73624728Y-54748282D01*
X73624727Y-54748282D01*
X73585380Y-54802438D01*
X73488903Y-54991784D01*
X73423242Y-55193865D01*
X73421798Y-55202990D01*
X73390000Y-55403753D01*
X73390000Y-55616246D01*
X73415860Y-55779519D01*
X73421715Y-55816485D01*
X73421716Y-55816493D01*
X73423242Y-55826133D01*
X73457886Y-55932754D01*
X73488904Y-56028217D01*
X73585374Y-56217548D01*
X73585375Y-56217550D01*
X73620674Y-56266137D01*
X73624728Y-56271716D01*
X74130297Y-55766147D01*
X74191619Y-55732663D01*
X74261311Y-55737647D01*
X74317244Y-55779519D01*
X74325363Y-55791828D01*
X74339896Y-55817000D01*
X74339899Y-55817004D01*
X74339901Y-55817007D01*
X74432993Y-55910099D01*
X74458169Y-55924634D01*
X74506384Y-55975202D01*
X74519606Y-56043809D01*
X74493638Y-56108673D01*
X74483849Y-56119702D01*
X73952977Y-56650573D01*
X73939572Y-56660608D01*
X73924726Y-56671722D01*
X73901638Y-56684330D01*
X73844922Y-56698807D01*
X73844948Y-56699372D01*
X73842225Y-56699495D01*
X73842208Y-56699500D01*
X73842134Y-56699500D01*
X73842123Y-56699501D01*
X73842120Y-56699501D01*
X73842099Y-56699503D01*
X73782517Y-56705907D01*
X73647666Y-56756204D01*
X73647665Y-56756205D01*
X73532456Y-56842450D01*
X73532450Y-56842456D01*
X73446205Y-56957665D01*
X73446203Y-56957668D01*
X73395908Y-57092516D01*
X73389500Y-57152125D01*
X73389500Y-58947876D01*
X73389659Y-58949806D01*
X73389885Y-58951454D01*
X73395907Y-59007482D01*
X73423690Y-59081971D01*
X73446202Y-59142328D01*
X73446203Y-59142330D01*
X73446204Y-59142332D01*
X73446205Y-59142333D01*
X73532450Y-59257542D01*
X73532452Y-59257544D01*
X73532455Y-59257547D01*
X73647664Y-59343793D01*
X73647671Y-59343797D01*
X73782517Y-59394091D01*
X73782516Y-59394091D01*
X73789444Y-59394835D01*
X73842127Y-59400500D01*
X75637872Y-59400499D01*
X75697483Y-59394091D01*
X75832331Y-59343796D01*
X75947546Y-59257546D01*
X76033796Y-59142331D01*
X76084091Y-59007483D01*
X76090500Y-58947873D01*
X76090499Y-57152128D01*
X76084091Y-57092517D01*
X76033796Y-56957669D01*
X76033795Y-56957668D01*
X76033793Y-56957664D01*
X76033782Y-56957649D01*
X76031392Y-56953929D01*
X76031391Y-56953928D01*
X76028489Y-56950579D01*
X75947547Y-56842455D01*
X75947544Y-56842452D01*
X75947542Y-56842450D01*
X75889616Y-56799086D01*
X75832335Y-56756206D01*
X75832332Y-56756204D01*
X75832330Y-56756203D01*
X75832328Y-56756202D01*
X75697482Y-56705908D01*
X75697483Y-56705908D01*
X75637883Y-56699501D01*
X75637881Y-56699500D01*
X75637873Y-56699500D01*
X75637865Y-56699500D01*
X75636841Y-56699500D01*
X75628644Y-56697319D01*
X75626575Y-56696831D01*
X75610203Y-56694477D01*
X75584961Y-56687065D01*
X75532216Y-56655769D01*
X74996149Y-56119702D01*
X74962664Y-56058379D01*
X74967648Y-55988687D01*
X75009520Y-55932754D01*
X75021822Y-55924639D01*
X75047007Y-55910099D01*
X75140099Y-55817007D01*
X75154634Y-55791830D01*
X75205199Y-55743616D01*
X75273805Y-55730391D01*
X75338671Y-55756358D01*
X75349702Y-55766149D01*
X75855269Y-56271717D01*
X75855269Y-56271716D01*
X75855270Y-56271717D01*
X75855270Y-56271716D01*
X75868738Y-56266137D01*
X75874955Y-56244967D01*
X75878954Y-56239118D01*
X75894621Y-56217555D01*
X75894625Y-56217548D01*
X75991095Y-56028217D01*
X76056757Y-55826130D01*
X76056757Y-55826127D01*
X76090000Y-55616246D01*
X76090000Y-55403753D01*
X76076260Y-55317007D01*
X76058284Y-55203511D01*
X76058283Y-55203505D01*
X76058283Y-55203506D01*
X76056756Y-55193865D01*
X76029473Y-55109898D01*
X75991095Y-54991782D01*
X75894624Y-54802449D01*
X75855270Y-54748282D01*
X75855269Y-54748282D01*
X75855268Y-54748282D01*
X75349702Y-55253849D01*
X75288379Y-55287334D01*
X75218687Y-55282350D01*
X75162754Y-55240478D01*
X75154634Y-55228169D01*
X75140099Y-55202993D01*
X75047007Y-55109901D01*
X75047004Y-55109899D01*
X75047000Y-55109896D01*
X75021828Y-55095363D01*
X74973613Y-55044796D01*
X74960391Y-54976189D01*
X74986359Y-54911324D01*
X74996135Y-54900310D01*
X75501716Y-54394728D01*
X75501715Y-54394727D01*
X75447552Y-54355376D01*
X75445944Y-54354391D01*
X75425602Y-54338821D01*
X75415577Y-54329352D01*
X75380355Y-54269015D01*
X75383345Y-54199209D01*
X75419508Y-54145496D01*
X75426526Y-54139415D01*
X75443787Y-54127813D01*
X75443394Y-54127172D01*
X75447546Y-54124626D01*
X75447545Y-54124626D01*
X75447554Y-54124622D01*
X75469121Y-54108951D01*
X75495859Y-54099411D01*
X75501717Y-54085269D01*
X74996149Y-53579702D01*
X74962664Y-53518379D01*
X74967648Y-53448688D01*
X75009519Y-53392754D01*
X75021822Y-53384639D01*
X75047007Y-53370099D01*
X75140099Y-53277007D01*
X75154634Y-53251830D01*
X75205199Y-53203616D01*
X75273805Y-53190391D01*
X75338671Y-53216358D01*
X75349702Y-53226149D01*
X75855269Y-53731717D01*
X75855269Y-53731716D01*
X75855270Y-53731717D01*
X75855270Y-53731716D01*
X75868738Y-53726137D01*
X75874955Y-53704967D01*
X75878954Y-53699118D01*
X75894621Y-53677555D01*
X75894625Y-53677548D01*
X75991095Y-53488217D01*
X76056757Y-53286130D01*
X76056757Y-53286127D01*
X76090000Y-53076246D01*
X76090000Y-52863753D01*
X76056757Y-52653872D01*
X76056757Y-52653869D01*
X75991095Y-52451782D01*
X75894620Y-52262442D01*
X75888499Y-52254017D01*
X75850987Y-52202385D01*
X75827507Y-52136579D01*
X75843333Y-52068525D01*
X75893439Y-52019830D01*
X75951305Y-52005500D01*
X76575500Y-52005500D01*
X76642539Y-52025185D01*
X76688294Y-52077989D01*
X76699500Y-52129500D01*
X76699500Y-60357670D01*
X76699499Y-60357676D01*
X76699500Y-60357679D01*
X76694475Y-60392614D01*
X76690070Y-60407612D01*
X76652327Y-60466355D01*
X76652292Y-60466385D01*
X76652291Y-60466387D01*
X76652289Y-60466387D01*
X76650958Y-60467542D01*
X76596097Y-60495018D01*
X76588539Y-60496663D01*
X76562168Y-60499500D01*
X72134108Y-60499500D01*
X72072456Y-60516018D01*
X72002608Y-60514356D01*
X71944746Y-60475193D01*
X71917242Y-60410964D01*
X71916365Y-60396244D01*
X71916365Y-52710333D01*
X71921387Y-52675400D01*
X71928799Y-52650155D01*
X71960093Y-52597413D01*
X72466968Y-52090540D01*
X72515689Y-52041819D01*
X72577012Y-52008334D01*
X72603370Y-52005500D01*
X73528694Y-52005500D01*
X73595733Y-52025185D01*
G37*
%TD.AperFunction*%
%TD*%
%TA.AperFunction,Conductor*%
%TO.N,VOUT*%
G36*
X37343106Y-44405023D02*
G01*
X37358104Y-44409427D01*
X37373094Y-44419057D01*
X37390175Y-44424067D01*
X37416855Y-44447172D01*
X37418042Y-44448541D01*
X37445518Y-44503402D01*
X37447163Y-44510960D01*
X37450000Y-44537331D01*
X37450000Y-45200000D01*
X37853129Y-45200000D01*
X37853134Y-45200000D01*
X37853149Y-45199999D01*
X37889989Y-45197100D01*
X37889995Y-45197099D01*
X38047693Y-45151283D01*
X38047696Y-45151282D01*
X38189052Y-45067685D01*
X38189061Y-45067678D01*
X38305178Y-44951561D01*
X38305184Y-44951553D01*
X38349182Y-44877156D01*
X38371276Y-44849658D01*
X38381431Y-44840176D01*
X38443860Y-44808813D01*
X38513335Y-44816180D01*
X38521531Y-44819561D01*
X38561915Y-44846505D01*
X38775573Y-45060163D01*
X38796723Y-45088415D01*
X38809331Y-45111504D01*
X38824500Y-45170933D01*
X38824500Y-45456620D01*
X38829747Y-45514361D01*
X38830913Y-45527192D01*
X38830913Y-45527194D01*
X38830914Y-45527196D01*
X38835643Y-45542374D01*
X38835647Y-45542390D01*
X38881520Y-45689603D01*
X38881522Y-45689607D01*
X38924316Y-45760397D01*
X38969528Y-45835186D01*
X38969529Y-45835187D01*
X38969530Y-45835188D01*
X39000576Y-45866234D01*
X39010586Y-45879605D01*
X39021722Y-45894480D01*
X39034331Y-45917572D01*
X39049500Y-45976998D01*
X39049500Y-46283185D01*
X39047116Y-46307381D01*
X39042442Y-46330874D01*
X39035391Y-46354120D01*
X39030268Y-46366489D01*
X39030259Y-46366512D01*
X39030258Y-46366516D01*
X38999500Y-46521148D01*
X38999500Y-46521153D01*
X38999500Y-46678846D01*
X38999500Y-46678848D01*
X38999499Y-46678848D01*
X39030257Y-46833471D01*
X39030264Y-46833502D01*
X39090598Y-46979165D01*
X39090603Y-46979174D01*
X39090613Y-46979191D01*
X39178211Y-47110290D01*
X39178212Y-47110291D01*
X39178217Y-47110297D01*
X39289701Y-47221781D01*
X39289707Y-47221786D01*
X39289711Y-47221789D01*
X39420814Y-47309390D01*
X39420827Y-47309397D01*
X39559480Y-47366828D01*
X39566503Y-47369737D01*
X39699214Y-47396135D01*
X39713516Y-47398979D01*
X39716246Y-47399703D01*
X39721155Y-47400500D01*
X39878844Y-47400500D01*
X39882964Y-47400500D01*
X39890814Y-47398118D01*
X40033497Y-47369737D01*
X40179179Y-47309394D01*
X40310289Y-47221789D01*
X40340985Y-47191093D01*
X40367948Y-47176369D01*
X40393812Y-47159772D01*
X40398336Y-47159775D01*
X40402307Y-47157607D01*
X40432948Y-47159798D01*
X40463682Y-47159819D01*
X40467487Y-47162268D01*
X40471999Y-47162591D01*
X40496590Y-47180999D01*
X40522435Y-47197633D01*
X40524964Y-47202238D01*
X40527933Y-47204461D01*
X40541496Y-47227337D01*
X40545016Y-47235059D01*
X40552829Y-47261135D01*
X40566451Y-47282079D01*
X40570288Y-47290495D01*
X40570508Y-47292038D01*
X40572855Y-47295867D01*
X40572867Y-47295889D01*
X40580530Y-47308394D01*
X40580531Y-47308395D01*
X40589512Y-47323051D01*
X40610725Y-47357670D01*
X40610729Y-47357675D01*
X40610732Y-47357679D01*
X40665745Y-47424469D01*
X40693173Y-47488730D01*
X40681505Y-47557618D01*
X40663753Y-47584499D01*
X40619475Y-47635606D01*
X40619468Y-47635616D01*
X40581701Y-47694393D01*
X40521952Y-47825243D01*
X40521946Y-47825260D01*
X40519993Y-47831914D01*
X40519990Y-47831925D01*
X40504662Y-47902398D01*
X40499642Y-47937324D01*
X40499641Y-47937334D01*
X40494500Y-48009241D01*
X40494500Y-50723237D01*
X40510202Y-50848245D01*
X40510204Y-50848255D01*
X40525366Y-50907662D01*
X40525372Y-50907678D01*
X40571491Y-51024900D01*
X40571494Y-51024906D01*
X40571496Y-51024911D01*
X40571497Y-51024912D01*
X40584102Y-51047999D01*
X40623085Y-51108662D01*
X40623093Y-51108673D01*
X40644228Y-51136910D01*
X40644239Y-51136923D01*
X40691466Y-51191427D01*
X40691479Y-51191442D01*
X40884722Y-51384684D01*
X40900139Y-51403470D01*
X40940743Y-51464238D01*
X40952202Y-51485675D01*
X40990561Y-51578281D01*
X41000000Y-51625733D01*
X41000000Y-54000000D01*
X42501896Y-54000000D01*
X42523638Y-54006384D01*
X42546230Y-54008196D01*
X42556522Y-54016040D01*
X42568935Y-54019685D01*
X42583774Y-54036810D01*
X42601800Y-54050549D01*
X42611674Y-54069008D01*
X42614690Y-54072489D01*
X42618447Y-54081670D01*
X42620357Y-54086929D01*
X42620480Y-54088889D01*
X42637392Y-54125929D01*
X42637392Y-54125930D01*
X42654840Y-54164143D01*
X42654844Y-54164151D01*
X42654846Y-54164154D01*
X42732624Y-54285194D01*
X42810524Y-54352703D01*
X42810530Y-54352707D01*
X42818530Y-54359640D01*
X42829869Y-54371179D01*
X42837013Y-54376625D01*
X42853390Y-54388597D01*
X42861526Y-54394298D01*
X42878301Y-54405560D01*
X42891151Y-54411429D01*
X42900130Y-54417200D01*
X43030996Y-54476975D01*
X43041251Y-54479987D01*
X43163451Y-54500068D01*
X43181245Y-54500781D01*
X43193902Y-54501942D01*
X43218648Y-54505500D01*
X43218651Y-54505500D01*
X45870500Y-54505500D01*
X45937539Y-54525185D01*
X45983294Y-54577989D01*
X45994500Y-54629500D01*
X45994500Y-55047277D01*
X45974815Y-55114316D01*
X45922011Y-55160071D01*
X45852853Y-55170015D01*
X45797614Y-55147595D01*
X45688712Y-55068473D01*
X45605779Y-55008218D01*
X45605777Y-55008217D01*
X45395414Y-54901031D01*
X45326007Y-54878479D01*
X45263823Y-54858274D01*
X45234354Y-54838124D01*
X44937665Y-54791133D01*
X44937660Y-54791133D01*
X44701556Y-54791133D01*
X44701551Y-54791133D01*
X44468363Y-54828066D01*
X44243802Y-54901031D01*
X44033433Y-55008219D01*
X43950502Y-55068472D01*
X43950501Y-55068473D01*
X44456084Y-55574055D01*
X44489569Y-55635378D01*
X44484585Y-55705069D01*
X44442714Y-55761003D01*
X44437295Y-55764837D01*
X44405257Y-55786244D01*
X44405251Y-55786249D01*
X44314724Y-55876776D01*
X44314719Y-55876782D01*
X44293312Y-55908820D01*
X44239699Y-55953625D01*
X44170374Y-55962331D01*
X44107347Y-55932175D01*
X44102530Y-55927609D01*
X43596948Y-55422026D01*
X43596947Y-55422027D01*
X43536694Y-55504958D01*
X43429506Y-55715327D01*
X43356541Y-55939888D01*
X43319608Y-56173074D01*
X43319608Y-56409190D01*
X43356541Y-56642376D01*
X43356542Y-56642380D01*
X43421551Y-56842456D01*
X43429506Y-56866937D01*
X43536694Y-57077305D01*
X43536695Y-57077307D01*
X43596945Y-57160236D01*
X43596947Y-57160238D01*
X43596947Y-57160237D01*
X43596948Y-57160238D01*
X44102532Y-56654653D01*
X44163853Y-56621170D01*
X44233544Y-56626154D01*
X44289478Y-56668025D01*
X44293299Y-56673425D01*
X44314720Y-56705484D01*
X44314724Y-56705488D01*
X44314724Y-56705489D01*
X44405254Y-56796019D01*
X44437292Y-56817426D01*
X44482097Y-56871039D01*
X44490804Y-56940364D01*
X44460649Y-57003391D01*
X44456082Y-57008209D01*
X43950501Y-57513790D01*
X43953080Y-57546554D01*
X43953462Y-57556285D01*
X43953462Y-57565990D01*
X43953080Y-57575718D01*
X43950502Y-57608472D01*
X43950502Y-57608473D01*
X44456084Y-58114055D01*
X44489569Y-58175378D01*
X44484585Y-58245070D01*
X44442713Y-58301003D01*
X44437295Y-58304837D01*
X44405257Y-58326244D01*
X44405251Y-58326249D01*
X44314724Y-58416776D01*
X44314719Y-58416782D01*
X44293312Y-58448820D01*
X44239699Y-58493625D01*
X44170374Y-58502331D01*
X44107347Y-58472175D01*
X44102530Y-58467609D01*
X43596948Y-57962026D01*
X43596947Y-57962027D01*
X43536694Y-58044958D01*
X43429506Y-58255327D01*
X43356541Y-58479888D01*
X43319608Y-58713074D01*
X43319608Y-58949190D01*
X43353972Y-59166154D01*
X43356542Y-59182380D01*
X43428977Y-59405311D01*
X43429506Y-59406937D01*
X43536694Y-59617305D01*
X43536695Y-59617307D01*
X43596945Y-59700236D01*
X43596947Y-59700238D01*
X43596947Y-59700237D01*
X43596948Y-59700238D01*
X44102532Y-59194653D01*
X44163853Y-59161170D01*
X44233544Y-59166154D01*
X44289478Y-59208025D01*
X44293299Y-59213425D01*
X44314720Y-59245484D01*
X44314724Y-59245488D01*
X44314724Y-59245489D01*
X44405254Y-59336019D01*
X44437292Y-59357426D01*
X44482097Y-59411039D01*
X44490804Y-59480364D01*
X44460649Y-59543391D01*
X44456082Y-59548209D01*
X43950500Y-60053790D01*
X43950501Y-60053790D01*
X43950501Y-60053791D01*
X44033436Y-60114047D01*
X44243805Y-60221235D01*
X44375390Y-60263990D01*
X44404860Y-60284140D01*
X44468357Y-60294197D01*
X44468360Y-60294198D01*
X44468359Y-60294198D01*
X44701556Y-60331133D01*
X44937659Y-60331133D01*
X44937660Y-60331133D01*
X45170855Y-60294198D01*
X45395410Y-60221235D01*
X45605779Y-60114047D01*
X45796794Y-59975266D01*
X45796798Y-59975261D01*
X45797614Y-59974669D01*
X45863420Y-59951189D01*
X45931474Y-59967014D01*
X45980169Y-60017120D01*
X45994500Y-60074987D01*
X45994500Y-65461938D01*
X45990212Y-65476540D01*
X45990864Y-65491747D01*
X45980567Y-65509385D01*
X45974815Y-65528977D01*
X45962770Y-65539873D01*
X45955641Y-65552088D01*
X45926794Y-65572423D01*
X45900402Y-65585870D01*
X45831732Y-65598766D01*
X45766992Y-65572489D01*
X45726736Y-65515382D01*
X45720108Y-65475385D01*
X45720108Y-65330915D01*
X45719034Y-65325519D01*
X45713520Y-65297799D01*
X45713520Y-65297794D01*
X45695431Y-65206853D01*
X45685503Y-65156942D01*
X45647789Y-65065894D01*
X45617621Y-64993061D01*
X45555081Y-64899464D01*
X45519072Y-64845572D01*
X45519070Y-64845569D01*
X45519067Y-64845566D01*
X44850827Y-64177326D01*
X44174043Y-63500542D01*
X44174029Y-63500530D01*
X44174026Y-63500528D01*
X44116413Y-63462034D01*
X44116399Y-63462025D01*
X44114959Y-63461063D01*
X44026547Y-63401987D01*
X44026544Y-63401985D01*
X44026540Y-63401983D01*
X43944607Y-63368046D01*
X43944606Y-63368046D01*
X43862666Y-63334105D01*
X43862658Y-63334103D01*
X43862651Y-63334101D01*
X43862632Y-63334097D01*
X43688699Y-63299500D01*
X43688696Y-63299500D01*
X43688692Y-63299500D01*
X43688691Y-63299500D01*
X43099962Y-63299500D01*
X43099957Y-63299499D01*
X43099955Y-63299500D01*
X43065021Y-63294475D01*
X43050022Y-63290070D01*
X42991260Y-63252309D01*
X42987885Y-63248415D01*
X42961922Y-63199698D01*
X42961434Y-63197901D01*
X42957742Y-63178005D01*
X42957420Y-63174856D01*
X42952830Y-63129920D01*
X42949999Y-63102203D01*
X42894814Y-62935666D01*
X42802712Y-62786344D01*
X42678656Y-62662288D01*
X42617886Y-62624805D01*
X42536355Y-62574516D01*
X42536351Y-62574514D01*
X42530075Y-62570643D01*
X42529336Y-62570187D01*
X42529331Y-62570185D01*
X42527862Y-62569698D01*
X42521161Y-62567477D01*
X42521160Y-62567477D01*
X42362798Y-62515001D01*
X42352050Y-62513903D01*
X42352044Y-62513902D01*
X42329630Y-62511611D01*
X42329628Y-62511610D01*
X42325841Y-62510665D01*
X42325823Y-62510815D01*
X42323706Y-62510554D01*
X42310981Y-62506956D01*
X42295407Y-62503070D01*
X42294164Y-62502563D01*
X42294295Y-62502239D01*
X42287374Y-62500283D01*
X42276321Y-62495236D01*
X42263763Y-62484797D01*
X42250521Y-62479392D01*
X42226338Y-62453686D01*
X42223035Y-62448981D01*
X42201754Y-62395164D01*
X42201731Y-62395002D01*
X42200933Y-62383706D01*
X42200627Y-62382802D01*
X42200815Y-62382045D01*
X42200500Y-62377572D01*
X42200500Y-62305059D01*
X42205522Y-62270126D01*
X42206317Y-62267419D01*
X42212934Y-62244881D01*
X42244229Y-62192138D01*
X42292712Y-62143656D01*
X42384814Y-61994334D01*
X42439999Y-61827797D01*
X42450500Y-61725009D01*
X42450499Y-60674992D01*
X42439999Y-60572203D01*
X42384814Y-60405666D01*
X42292712Y-60256344D01*
X42168656Y-60132288D01*
X42168652Y-60132285D01*
X42121850Y-60103417D01*
X42121849Y-60103416D01*
X42121847Y-60103416D01*
X42094751Y-60080800D01*
X42084300Y-60069180D01*
X42054106Y-60006174D01*
X42053814Y-60004378D01*
X42059236Y-59943309D01*
X42061805Y-59936009D01*
X42073230Y-59912085D01*
X42137003Y-59808697D01*
X42190349Y-59647708D01*
X42200500Y-59548345D01*
X42200499Y-58951656D01*
X42200112Y-58947872D01*
X42190349Y-58852292D01*
X42190348Y-58852289D01*
X42155529Y-58747212D01*
X42137074Y-58691518D01*
X42137003Y-58691303D01*
X42137001Y-58691300D01*
X42136853Y-58690997D01*
X42135859Y-58689447D01*
X42099296Y-58630171D01*
X42047970Y-58546959D01*
X42047967Y-58546955D01*
X42047964Y-58546952D01*
X42047962Y-58546949D01*
X41928049Y-58427036D01*
X41928046Y-58427034D01*
X41928045Y-58427033D01*
X41928044Y-58427032D01*
X41928040Y-58427029D01*
X41869619Y-58390994D01*
X41783709Y-58338003D01*
X41783699Y-58337998D01*
X41783700Y-58337998D01*
X41622709Y-58284651D01*
X41622702Y-58284650D01*
X41523353Y-58274500D01*
X41523346Y-58274500D01*
X40976662Y-58274500D01*
X40976644Y-58274501D01*
X40976636Y-58274501D01*
X40976617Y-58274503D01*
X40910861Y-58281220D01*
X40877292Y-58284650D01*
X40877290Y-58284650D01*
X40877286Y-58284651D01*
X40877282Y-58284651D01*
X40877121Y-58284706D01*
X40716304Y-58337996D01*
X40716295Y-58338000D01*
X40716292Y-58338002D01*
X40571968Y-58427022D01*
X40571959Y-58427028D01*
X40567215Y-58430918D01*
X40566665Y-58430247D01*
X40546675Y-58445206D01*
X40532960Y-58452695D01*
X40464687Y-58467547D01*
X40464640Y-58467544D01*
X40462832Y-58467414D01*
X40404691Y-58448052D01*
X40400262Y-58445206D01*
X40398184Y-58443870D01*
X40381178Y-58430164D01*
X40381054Y-58430308D01*
X40377734Y-58427429D01*
X40377732Y-58427427D01*
X40377728Y-58427424D01*
X40377722Y-58427420D01*
X40377712Y-58427413D01*
X40269990Y-58360969D01*
X40233492Y-58338457D01*
X40233490Y-58338456D01*
X40233476Y-58338449D01*
X40072604Y-58285143D01*
X39973327Y-58275000D01*
X39973322Y-58275000D01*
X39950000Y-58275000D01*
X39950000Y-60213170D01*
X39949999Y-60213176D01*
X39950000Y-60213179D01*
X39944975Y-60248114D01*
X39940570Y-60263112D01*
X39902827Y-60321855D01*
X39902792Y-60321885D01*
X39902791Y-60321887D01*
X39902789Y-60321887D01*
X39901458Y-60323042D01*
X39846597Y-60350518D01*
X39839039Y-60352163D01*
X39812668Y-60355000D01*
X39800000Y-60355000D01*
X39800000Y-62424999D01*
X39849960Y-62424999D01*
X39849972Y-62424999D01*
X39849986Y-62424998D01*
X39952697Y-62414505D01*
X40119119Y-62359358D01*
X40119124Y-62359356D01*
X40268345Y-62267315D01*
X40392318Y-62143342D01*
X40392318Y-62143341D01*
X40397424Y-62138236D01*
X40397538Y-62138350D01*
X40403779Y-62131697D01*
X40417740Y-62119139D01*
X40480742Y-62088943D01*
X40550065Y-62097598D01*
X40553721Y-62099186D01*
X40601481Y-62139037D01*
X40602807Y-62137989D01*
X40607288Y-62143656D01*
X40652013Y-62188381D01*
X40653163Y-62189955D01*
X40654053Y-62190469D01*
X40666595Y-62208346D01*
X40674533Y-62219213D01*
X40674933Y-62219988D01*
X40681014Y-62232208D01*
X40685042Y-62239585D01*
X40685701Y-62240862D01*
X40687906Y-62252290D01*
X40699500Y-62297711D01*
X40699500Y-62863899D01*
X40696561Y-62890737D01*
X40690544Y-62917878D01*
X40684619Y-62937080D01*
X40683636Y-62939537D01*
X40682652Y-62943310D01*
X40641047Y-63068862D01*
X40641032Y-63068912D01*
X40630001Y-63102203D01*
X40630001Y-63102204D01*
X40630000Y-63102204D01*
X40629230Y-63109734D01*
X40629230Y-63109737D01*
X40619500Y-63204973D01*
X40619500Y-63204983D01*
X40619500Y-65195001D01*
X40619501Y-65195018D01*
X40619502Y-65195026D01*
X40630174Y-65299501D01*
X40632414Y-65305079D01*
X40641168Y-65331496D01*
X40643570Y-65401323D01*
X40607839Y-65461366D01*
X40545319Y-65492559D01*
X40523462Y-65494500D01*
X39976011Y-65494500D01*
X39908972Y-65474815D01*
X39863217Y-65422011D01*
X39853273Y-65352853D01*
X39858305Y-65331495D01*
X39858497Y-65330916D01*
X39869505Y-65297697D01*
X39869506Y-65297690D01*
X39879999Y-65194986D01*
X39880000Y-65194973D01*
X39880000Y-64450000D01*
X37540001Y-64450000D01*
X37540001Y-65194995D01*
X37550493Y-65297694D01*
X37550494Y-65297699D01*
X37561694Y-65331497D01*
X37564095Y-65401325D01*
X37528364Y-65461367D01*
X37465843Y-65492559D01*
X37443988Y-65494500D01*
X35299499Y-65494500D01*
X35232460Y-65474815D01*
X35186705Y-65422011D01*
X35175499Y-65370500D01*
X35175499Y-64727122D01*
X35175339Y-64725197D01*
X35175113Y-64723543D01*
X35169091Y-64667516D01*
X35118797Y-64532671D01*
X35118793Y-64532664D01*
X35032547Y-64417455D01*
X35022107Y-64409640D01*
X35011235Y-64401501D01*
X34999245Y-64392524D01*
X34961332Y-64364143D01*
X34961331Y-64364141D01*
X34936377Y-64339188D01*
X34927007Y-64326671D01*
X34920776Y-64309965D01*
X34919463Y-64308211D01*
X34919306Y-64306024D01*
X34902591Y-64261208D01*
X34902426Y-64258895D01*
X34912950Y-64199390D01*
X34913381Y-64198428D01*
X34915784Y-64193065D01*
X34928626Y-64170884D01*
X35004944Y-64065842D01*
X35004943Y-64065842D01*
X35004947Y-64065838D01*
X35088915Y-63901043D01*
X35088916Y-63901040D01*
X35146066Y-63725147D01*
X35175000Y-63542473D01*
X35175000Y-63357526D01*
X35175000Y-63357520D01*
X35153418Y-63221260D01*
X35153417Y-63221257D01*
X35150843Y-63205007D01*
X37540000Y-63205007D01*
X37540000Y-63205010D01*
X37540000Y-63205013D01*
X37540000Y-63950000D01*
X38460000Y-63950000D01*
X38460000Y-62505000D01*
X38240037Y-62505000D01*
X38240029Y-62505000D01*
X38240019Y-62505000D01*
X38240006Y-62505001D01*
X38137304Y-62515493D01*
X38137302Y-62515494D01*
X37970887Y-62570638D01*
X37970879Y-62570641D01*
X37970877Y-62570642D01*
X37970875Y-62570643D01*
X37871394Y-62632003D01*
X37821652Y-62662685D01*
X37697685Y-62786652D01*
X37668377Y-62834168D01*
X37609342Y-62929879D01*
X37605641Y-62935879D01*
X37605638Y-62935888D01*
X37550494Y-63102299D01*
X37550493Y-63102304D01*
X37540000Y-63205007D01*
X35150843Y-63205007D01*
X35150839Y-63204983D01*
X35146066Y-63174852D01*
X35095636Y-63019641D01*
X35088924Y-62998982D01*
X35088917Y-62998963D01*
X35088917Y-62998962D01*
X35088916Y-62998961D01*
X35088916Y-62998959D01*
X35088915Y-62998956D01*
X35004949Y-62834165D01*
X34989983Y-62813568D01*
X34989982Y-62813568D01*
X34536497Y-63267053D01*
X34475174Y-63300538D01*
X34405482Y-63295554D01*
X34349549Y-63253682D01*
X34341430Y-63241374D01*
X34320080Y-63204394D01*
X34245606Y-63129920D01*
X34245603Y-63129918D01*
X34245602Y-63129917D01*
X34208626Y-63108569D01*
X34160410Y-63058002D01*
X34147188Y-62989395D01*
X34173156Y-62924530D01*
X34182937Y-62913509D01*
X34636431Y-62460016D01*
X34636430Y-62460015D01*
X34615834Y-62445050D01*
X34451043Y-62361084D01*
X34451040Y-62361083D01*
X34451039Y-62361082D01*
X34451036Y-62361081D01*
X34275148Y-62303933D01*
X34169689Y-62287230D01*
X34092473Y-62275000D01*
X34092472Y-62275000D01*
X33907528Y-62275000D01*
X33907527Y-62275000D01*
X33846635Y-62284644D01*
X33724850Y-62303933D01*
X33548962Y-62361081D01*
X33384162Y-62445051D01*
X33363568Y-62460014D01*
X33363567Y-62460015D01*
X33817055Y-62913501D01*
X33850540Y-62974824D01*
X33845556Y-63044515D01*
X33803685Y-63100449D01*
X33791374Y-63108569D01*
X33754397Y-63129917D01*
X33754392Y-63129921D01*
X33679921Y-63204392D01*
X33679915Y-63204400D01*
X33658568Y-63241374D01*
X33608001Y-63289589D01*
X33539393Y-63302811D01*
X33474529Y-63276843D01*
X33463501Y-63267054D01*
X33010015Y-62813567D01*
X33010014Y-62813568D01*
X32995051Y-62834163D01*
X32943078Y-62936165D01*
X32932845Y-62946999D01*
X32922745Y-62965009D01*
X32915408Y-62972778D01*
X32900007Y-62981767D01*
X32895103Y-62986961D01*
X32886368Y-62991603D01*
X32878275Y-62995498D01*
X32875786Y-62995907D01*
X32855067Y-63008002D01*
X32813147Y-63006206D01*
X32809331Y-63006834D01*
X32807301Y-63005956D01*
X32785261Y-63005012D01*
X32753724Y-62982782D01*
X32745203Y-62979096D01*
X32742243Y-62974688D01*
X32728154Y-62964757D01*
X32711907Y-62929514D01*
X32706251Y-62921091D01*
X32706169Y-62917067D01*
X32703552Y-62911389D01*
X32702796Y-62907515D01*
X32700500Y-62883765D01*
X32700500Y-61699995D01*
X35275001Y-61699995D01*
X35285493Y-61802694D01*
X35285493Y-61802695D01*
X35285494Y-61802697D01*
X35340641Y-61969119D01*
X35340643Y-61969124D01*
X35432684Y-62118345D01*
X35556654Y-62242315D01*
X35705875Y-62334356D01*
X35705880Y-62334358D01*
X35872299Y-62389504D01*
X35872300Y-62389504D01*
X35872302Y-62389505D01*
X35872309Y-62389506D01*
X35975019Y-62399999D01*
X36249999Y-62399999D01*
X36750000Y-62399999D01*
X37024960Y-62399999D01*
X37024972Y-62399999D01*
X37024986Y-62399998D01*
X37127697Y-62389505D01*
X37294119Y-62334358D01*
X37294124Y-62334356D01*
X37443345Y-62242315D01*
X37567315Y-62118345D01*
X37659356Y-61969124D01*
X37659358Y-61969119D01*
X37714505Y-61802697D01*
X37714506Y-61802690D01*
X37722444Y-61724995D01*
X38550001Y-61724995D01*
X38560493Y-61827694D01*
X38560493Y-61827695D01*
X38560494Y-61827697D01*
X38615641Y-61994119D01*
X38615643Y-61994124D01*
X38707684Y-62143345D01*
X38831654Y-62267315D01*
X38909398Y-62315268D01*
X38926276Y-62329355D01*
X38936489Y-62337879D01*
X38945774Y-62348201D01*
X38975969Y-62411210D01*
X38967308Y-62480534D01*
X38960000Y-62497353D01*
X38960000Y-62497356D01*
X38960000Y-63950000D01*
X39879999Y-63950000D01*
X39879999Y-63205028D01*
X39879998Y-63205013D01*
X39869505Y-63102302D01*
X39814358Y-62935880D01*
X39814356Y-62935875D01*
X39722315Y-62786654D01*
X39598345Y-62662684D01*
X39598341Y-62662681D01*
X39449127Y-62570644D01*
X39449109Y-62570638D01*
X39449017Y-62570607D01*
X39414354Y-62559121D01*
X39399917Y-62553308D01*
X39374052Y-62540954D01*
X39322043Y-62494299D01*
X39318540Y-62488635D01*
X39300000Y-62423411D01*
X39300000Y-61450000D01*
X38550001Y-61450000D01*
X38550001Y-61724995D01*
X37722444Y-61724995D01*
X37724999Y-61699986D01*
X37725000Y-61699973D01*
X37725000Y-61650000D01*
X36750000Y-61650000D01*
X36750000Y-62399999D01*
X36249999Y-62399999D01*
X36250000Y-62399998D01*
X36250000Y-61650000D01*
X35275001Y-61650000D01*
X35275001Y-61699995D01*
X32700500Y-61699995D01*
X32700500Y-60934110D01*
X32700500Y-60934108D01*
X32666392Y-60806814D01*
X32600500Y-60692686D01*
X32507314Y-60599500D01*
X32500000Y-60595277D01*
X32500000Y-51503420D01*
X32511063Y-51504212D01*
X32547123Y-51505500D01*
X34700500Y-51505500D01*
X34767539Y-51525185D01*
X34813294Y-51577989D01*
X34824500Y-51629500D01*
X34824500Y-52922876D01*
X34824659Y-52924806D01*
X34824885Y-52926454D01*
X34830907Y-52982482D01*
X34858690Y-53056971D01*
X34881202Y-53117328D01*
X34881206Y-53117335D01*
X34967452Y-53232544D01*
X34967453Y-53232545D01*
X34967454Y-53232546D01*
X35036137Y-53283962D01*
X35036752Y-53284434D01*
X35037542Y-53285517D01*
X35060495Y-53308471D01*
X35074122Y-53326675D01*
X35096879Y-53378940D01*
X35097525Y-53382516D01*
X35099500Y-53404560D01*
X35099500Y-55588699D01*
X35134097Y-55762632D01*
X35134105Y-55762666D01*
X35134106Y-55762668D01*
X35160850Y-55827236D01*
X35160854Y-55827243D01*
X35168046Y-55844606D01*
X35168046Y-55844607D01*
X35201984Y-55926542D01*
X35201985Y-55926544D01*
X35261063Y-56014960D01*
X35268891Y-56026675D01*
X35272004Y-56031334D01*
X35272009Y-56031343D01*
X35300536Y-56074036D01*
X35550578Y-56324077D01*
X35571726Y-56352328D01*
X35584332Y-56375414D01*
X35599500Y-56434841D01*
X35599500Y-58545302D01*
X35594477Y-58580238D01*
X35587827Y-58602885D01*
X35560711Y-58651241D01*
X35546432Y-58666989D01*
X35542252Y-58671378D01*
X35432291Y-58781338D01*
X35340185Y-58930667D01*
X35340182Y-58930675D01*
X35323324Y-58981549D01*
X35323324Y-58981552D01*
X35295299Y-59066123D01*
X35286852Y-59079067D01*
X35285365Y-59093630D01*
X35284542Y-59099881D01*
X35284359Y-59103476D01*
X35274500Y-59199973D01*
X35274500Y-59199983D01*
X35274500Y-59800001D01*
X35274500Y-59800009D01*
X35274503Y-59800045D01*
X35282360Y-59876957D01*
X35285000Y-59902796D01*
X35285001Y-59902799D01*
X35340185Y-60069331D01*
X35340186Y-60069334D01*
X35428904Y-60213170D01*
X35432289Y-60218657D01*
X35561454Y-60347822D01*
X35561376Y-60347899D01*
X35568476Y-60354562D01*
X35580856Y-60368325D01*
X35611054Y-60431332D01*
X35602395Y-60500663D01*
X35602392Y-60500670D01*
X35600985Y-60503908D01*
X35568468Y-60548197D01*
X35566001Y-60550335D01*
X35558660Y-60556078D01*
X35556655Y-60557682D01*
X35439358Y-60674980D01*
X35432684Y-60681654D01*
X35355486Y-60806812D01*
X35340641Y-60830879D01*
X35340638Y-60830888D01*
X35285494Y-60997299D01*
X35285493Y-60997304D01*
X35275000Y-61100007D01*
X35275000Y-61100010D01*
X35275000Y-61100013D01*
X35275000Y-61150000D01*
X37724999Y-61150000D01*
X37724999Y-61100028D01*
X37724998Y-61100013D01*
X37714505Y-60997302D01*
X37659358Y-60830880D01*
X37659356Y-60830875D01*
X37601429Y-60736961D01*
X37601430Y-60736960D01*
X37601425Y-60736955D01*
X37567315Y-60681654D01*
X37560668Y-60675007D01*
X38550000Y-60675007D01*
X38550000Y-60675013D01*
X38550000Y-60950000D01*
X39300000Y-60950000D01*
X39300000Y-59986829D01*
X39305023Y-59951893D01*
X39309427Y-59936895D01*
X39310404Y-59935375D01*
X39347172Y-59878144D01*
X39347200Y-59878119D01*
X39347199Y-59878119D01*
X39348541Y-59876956D01*
X39403420Y-59849477D01*
X39410979Y-59847833D01*
X39437332Y-59845000D01*
X39450000Y-59845000D01*
X39450000Y-59500000D01*
X38750001Y-59500000D01*
X38750001Y-59548331D01*
X38760144Y-59647608D01*
X38813449Y-59808473D01*
X38813453Y-59808483D01*
X38813458Y-59808493D01*
X38888870Y-59930754D01*
X38888871Y-59930755D01*
X38902936Y-59963126D01*
X38907061Y-59978202D01*
X38905767Y-60048059D01*
X38905766Y-60048061D01*
X38905223Y-60049791D01*
X38872952Y-60101951D01*
X38867384Y-60107316D01*
X38846447Y-60123558D01*
X38831657Y-60132680D01*
X38707685Y-60256652D01*
X38690730Y-60284140D01*
X38619317Y-60399920D01*
X38615641Y-60405879D01*
X38615638Y-60405888D01*
X38560494Y-60572299D01*
X38560493Y-60572304D01*
X38550000Y-60675007D01*
X37560668Y-60675007D01*
X37443344Y-60557683D01*
X37443343Y-60557682D01*
X37439013Y-60553352D01*
X37439065Y-60553299D01*
X37431958Y-60546510D01*
X37419137Y-60532255D01*
X37388943Y-60469250D01*
X37397603Y-60399922D01*
X37399012Y-60396680D01*
X37431555Y-60352369D01*
X37432784Y-60351304D01*
X37438132Y-60347381D01*
X37437985Y-60347195D01*
X37443649Y-60342716D01*
X37443656Y-60342712D01*
X37567712Y-60218656D01*
X37659814Y-60069334D01*
X37714999Y-59902797D01*
X37725500Y-59800009D01*
X37725499Y-59199992D01*
X37723982Y-59185146D01*
X37714999Y-59097203D01*
X37666774Y-58951671D01*
X38750000Y-58951671D01*
X38750000Y-58951677D01*
X38750000Y-59000000D01*
X39450000Y-59000000D01*
X39450000Y-58274999D01*
X39426705Y-58274999D01*
X39426686Y-58275000D01*
X39426685Y-58275000D01*
X39426661Y-58275002D01*
X39327394Y-58285143D01*
X39327393Y-58285143D01*
X39166522Y-58338449D01*
X39166508Y-58338456D01*
X39166505Y-58338458D01*
X39022286Y-58427413D01*
X39022264Y-58427429D01*
X39022261Y-58427431D01*
X38902431Y-58547261D01*
X38902429Y-58547264D01*
X38902413Y-58547286D01*
X38813458Y-58691505D01*
X38813456Y-58691508D01*
X38813452Y-58691518D01*
X38760143Y-58852394D01*
X38750000Y-58951671D01*
X37666774Y-58951671D01*
X37659814Y-58930666D01*
X37567712Y-58781344D01*
X37457026Y-58670658D01*
X37443508Y-58654635D01*
X37440434Y-58650294D01*
X37440435Y-58650294D01*
X37423643Y-58626579D01*
X37402528Y-58575293D01*
X37402183Y-58573227D01*
X37401182Y-58561119D01*
X37400968Y-58560494D01*
X37401089Y-58559997D01*
X37400500Y-58552864D01*
X37400500Y-55911305D01*
X37400409Y-55910573D01*
X37399917Y-55908379D01*
X37391122Y-55864160D01*
X37365895Y-55737334D01*
X37315738Y-55616246D01*
X37304625Y-55589416D01*
X37304621Y-55589408D01*
X37304325Y-55588692D01*
X37298013Y-55573453D01*
X37298012Y-55573451D01*
X37298011Y-55573449D01*
X37199465Y-55425966D01*
X37177252Y-55403753D01*
X37074035Y-55300536D01*
X36949423Y-55175923D01*
X36928271Y-55147666D01*
X36915666Y-55124580D01*
X36900500Y-55065156D01*
X36900500Y-53411293D01*
X36905523Y-53376358D01*
X36911930Y-53354538D01*
X36940160Y-53304969D01*
X36942637Y-53302309D01*
X36949399Y-53296234D01*
X36949705Y-53295760D01*
X36950159Y-53295552D01*
X36959071Y-53287548D01*
X37032546Y-53232546D01*
X37118796Y-53117331D01*
X37169091Y-52982483D01*
X37175500Y-52922873D01*
X37175499Y-51477128D01*
X37169091Y-51417517D01*
X37168010Y-51414620D01*
X37156843Y-51384679D01*
X37150560Y-51367834D01*
X37118797Y-51282671D01*
X37118793Y-51282664D01*
X37032547Y-51167455D01*
X37032543Y-51167452D01*
X37025343Y-51162061D01*
X37025325Y-51162049D01*
X36983599Y-51130812D01*
X36961732Y-51114442D01*
X36936781Y-51089491D01*
X36927411Y-51076975D01*
X36902993Y-51011514D01*
X36902829Y-51009228D01*
X36913352Y-50949684D01*
X36916188Y-50943356D01*
X36929018Y-50921194D01*
X37005378Y-50816096D01*
X37089379Y-50651235D01*
X37146555Y-50475264D01*
X37175500Y-50292514D01*
X37175500Y-50107486D01*
X37146555Y-49924736D01*
X37089379Y-49748765D01*
X37089379Y-49748764D01*
X37020320Y-49613230D01*
X37019953Y-49612485D01*
X37019781Y-49611500D01*
X37010589Y-49586587D01*
X37003924Y-49558825D01*
X37000500Y-49529883D01*
X37000500Y-47651453D01*
X36961812Y-47456963D01*
X36959726Y-47452553D01*
X36944621Y-47416087D01*
X36944621Y-47416086D01*
X36938165Y-47400500D01*
X36937526Y-47398957D01*
X36894835Y-47295889D01*
X36886635Y-47276093D01*
X36886634Y-47276092D01*
X36886632Y-47276086D01*
X36812525Y-47165176D01*
X36783967Y-47122436D01*
X36783966Y-47122435D01*
X36777569Y-47112861D01*
X36777139Y-47112217D01*
X36634686Y-46969764D01*
X36634655Y-46969735D01*
X36541819Y-46876899D01*
X36508334Y-46815576D01*
X36505500Y-46789218D01*
X36505500Y-46287330D01*
X36502600Y-46233269D01*
X36502600Y-46233261D01*
X36499763Y-46206890D01*
X36491099Y-46153455D01*
X36489454Y-46145897D01*
X36447501Y-46027036D01*
X36436074Y-46004221D01*
X36423655Y-45935466D01*
X36440213Y-45885576D01*
X36514244Y-45760398D01*
X36560098Y-45602569D01*
X36563000Y-45565694D01*
X36563000Y-45341829D01*
X36566160Y-45319854D01*
X36568023Y-45306893D01*
X36572427Y-45291895D01*
X36610172Y-45233144D01*
X36610200Y-45233119D01*
X36610199Y-45233119D01*
X36611541Y-45231956D01*
X36666420Y-45204477D01*
X36673979Y-45202833D01*
X36700332Y-45200000D01*
X36950000Y-45200000D01*
X36950000Y-44541829D01*
X36955023Y-44506893D01*
X36959427Y-44491895D01*
X36997172Y-44433144D01*
X36997200Y-44433119D01*
X36997199Y-44433119D01*
X36998541Y-44431956D01*
X37053420Y-44404477D01*
X37060979Y-44402833D01*
X37087332Y-44400000D01*
X37308170Y-44400000D01*
X37343106Y-44405023D01*
G37*
%TD.AperFunction*%
%TA.AperFunction,Conductor*%
G36*
X30709704Y-51392709D02*
G01*
X30718089Y-51396910D01*
X30718329Y-51396385D01*
X30726394Y-51400068D01*
X30726395Y-51400069D01*
X30758258Y-51414620D01*
X30774093Y-51423297D01*
X30803514Y-51442330D01*
X30839251Y-51452939D01*
X30851959Y-51457478D01*
X30853738Y-51458224D01*
X30857273Y-51459839D01*
X30865777Y-51462336D01*
X30865777Y-51462335D01*
X30898775Y-51472024D01*
X30898775Y-51472025D01*
X30924302Y-51479521D01*
X30924312Y-51479524D01*
X30928606Y-51480141D01*
X30933081Y-51481127D01*
X30934104Y-51481689D01*
X30937109Y-51482347D01*
X30937115Y-51482321D01*
X30941424Y-51483270D01*
X30941445Y-51483277D01*
X30967769Y-51487142D01*
X30967769Y-51487140D01*
X31006051Y-51492762D01*
X31019960Y-51493275D01*
X31066728Y-51500000D01*
X30512362Y-51500000D01*
X30518465Y-51490687D01*
X30519685Y-51486534D01*
X30531018Y-51471535D01*
X30537184Y-51464546D01*
X30537259Y-51464461D01*
X30548379Y-51451858D01*
X30553666Y-51446229D01*
X30578689Y-51421207D01*
X30640012Y-51387723D01*
X30709704Y-51392709D01*
G37*
%TD.AperFunction*%
%TA.AperFunction,Conductor*%
G36*
X32441673Y-51496812D02*
G01*
X32443711Y-51497105D01*
X32457539Y-51499093D01*
X32465976Y-51500000D01*
X32376000Y-51500000D01*
X32410770Y-51496261D01*
X32441673Y-51496812D01*
G37*
%TD.AperFunction*%
%TD*%
%TA.AperFunction,Conductor*%
%TO.N,CHARGE*%
G36*
X72006814Y-42966392D02*
G01*
X72134108Y-43000500D01*
X76575500Y-43000500D01*
X76642539Y-43020185D01*
X76688294Y-43072989D01*
X76699500Y-43124500D01*
X76699500Y-51376000D01*
X76679815Y-51443039D01*
X76627011Y-51488794D01*
X76575500Y-51500000D01*
X75874655Y-51500000D01*
X75807616Y-51480315D01*
X75761861Y-51427511D01*
X75751917Y-51358353D01*
X75774337Y-51303115D01*
X75894620Y-51137557D01*
X75991095Y-50948217D01*
X76056757Y-50746130D01*
X76056757Y-50746127D01*
X76090000Y-50536246D01*
X76090000Y-50323753D01*
X76056757Y-50113872D01*
X76056757Y-50113869D01*
X75991095Y-49911782D01*
X75894624Y-49722449D01*
X75855270Y-49668282D01*
X75855269Y-49668282D01*
X75222962Y-50300590D01*
X75205925Y-50237007D01*
X75140099Y-50122993D01*
X75047007Y-50029901D01*
X74932993Y-49964075D01*
X74869409Y-49947037D01*
X75501716Y-49314728D01*
X75447550Y-49275375D01*
X75437954Y-49270486D01*
X75387157Y-49222512D01*
X75370361Y-49154692D01*
X75392897Y-49088556D01*
X75437954Y-49049514D01*
X75447554Y-49044622D01*
X75501716Y-49005270D01*
X75501717Y-49005270D01*
X74869408Y-48372962D01*
X74932993Y-48355925D01*
X75047007Y-48290099D01*
X75140099Y-48197007D01*
X75205925Y-48082993D01*
X75222962Y-48019408D01*
X75855270Y-48651717D01*
X75855270Y-48651716D01*
X75894622Y-48597554D01*
X75991095Y-48408217D01*
X76056757Y-48206130D01*
X76056757Y-48206127D01*
X76090000Y-47996246D01*
X76090000Y-47783753D01*
X76056757Y-47573872D01*
X76056757Y-47573869D01*
X75991095Y-47371782D01*
X75894624Y-47182449D01*
X75855270Y-47128282D01*
X75855269Y-47128282D01*
X75222962Y-47760590D01*
X75205925Y-47697007D01*
X75140099Y-47582993D01*
X75047007Y-47489901D01*
X74932993Y-47424075D01*
X74869409Y-47407037D01*
X75539627Y-46736818D01*
X75600950Y-46703333D01*
X75627307Y-46700499D01*
X75637872Y-46700499D01*
X75697483Y-46694091D01*
X75832331Y-46643796D01*
X75947546Y-46557546D01*
X76033796Y-46442331D01*
X76084091Y-46307483D01*
X76090500Y-46247873D01*
X76090499Y-44452128D01*
X76084091Y-44392517D01*
X76033796Y-44257669D01*
X76033795Y-44257668D01*
X76033793Y-44257664D01*
X75947547Y-44142455D01*
X75947544Y-44142452D01*
X75832335Y-44056206D01*
X75832328Y-44056202D01*
X75697482Y-44005908D01*
X75697483Y-44005908D01*
X75637883Y-43999501D01*
X75637881Y-43999500D01*
X75637873Y-43999500D01*
X75637864Y-43999500D01*
X73842129Y-43999500D01*
X73842123Y-43999501D01*
X73782516Y-44005908D01*
X73647671Y-44056202D01*
X73647664Y-44056206D01*
X73532455Y-44142452D01*
X73532452Y-44142455D01*
X73446206Y-44257664D01*
X73446202Y-44257671D01*
X73395908Y-44392517D01*
X73389501Y-44452116D01*
X73389501Y-44452123D01*
X73389500Y-44452135D01*
X73389500Y-46247870D01*
X73389501Y-46247876D01*
X73395908Y-46307483D01*
X73446202Y-46442328D01*
X73446206Y-46442335D01*
X73532452Y-46557544D01*
X73532455Y-46557547D01*
X73647664Y-46643793D01*
X73647671Y-46643797D01*
X73692618Y-46660561D01*
X73782517Y-46694091D01*
X73842127Y-46700500D01*
X73852685Y-46700499D01*
X73919723Y-46720179D01*
X73940372Y-46736818D01*
X74610591Y-47407037D01*
X74547007Y-47424075D01*
X74432993Y-47489901D01*
X74339901Y-47582993D01*
X74274075Y-47697007D01*
X74257037Y-47760591D01*
X73624728Y-47128282D01*
X73624727Y-47128282D01*
X73585380Y-47182439D01*
X73488904Y-47371782D01*
X73423242Y-47573869D01*
X73423242Y-47573872D01*
X73390000Y-47783753D01*
X73390000Y-47996246D01*
X73423242Y-48206127D01*
X73423242Y-48206130D01*
X73488904Y-48408217D01*
X73585375Y-48597550D01*
X73624728Y-48651716D01*
X74257037Y-48019408D01*
X74274075Y-48082993D01*
X74339901Y-48197007D01*
X74432993Y-48290099D01*
X74547007Y-48355925D01*
X74610591Y-48372962D01*
X74009971Y-48973581D01*
X74088711Y-49090895D01*
X74089920Y-49094729D01*
X74092844Y-49097491D01*
X74100343Y-49127778D01*
X74109727Y-49157529D01*
X74108671Y-49161408D01*
X74109638Y-49165312D01*
X74099573Y-49194844D01*
X74091383Y-49224947D01*
X74088397Y-49227640D01*
X74087100Y-49231447D01*
X74042051Y-49270483D01*
X74032440Y-49275380D01*
X73978282Y-49314727D01*
X73978282Y-49314728D01*
X74610591Y-49947037D01*
X74547007Y-49964075D01*
X74432993Y-50029901D01*
X74339901Y-50122993D01*
X74274075Y-50237007D01*
X74257037Y-50300591D01*
X73624728Y-49668282D01*
X73624727Y-49668282D01*
X73585380Y-49722439D01*
X73488904Y-49911782D01*
X73423242Y-50113869D01*
X73423242Y-50113872D01*
X73390000Y-50323753D01*
X73390000Y-50536246D01*
X73423242Y-50746127D01*
X73423242Y-50746130D01*
X73488904Y-50948217D01*
X73585375Y-51137550D01*
X73624728Y-51191716D01*
X74257037Y-50559408D01*
X74274075Y-50622993D01*
X74339901Y-50737007D01*
X74432993Y-50830099D01*
X74547007Y-50895925D01*
X74610590Y-50912962D01*
X74023552Y-51500000D01*
X71916365Y-51500000D01*
X71916365Y-42914171D01*
X72006814Y-42966392D01*
G37*
%TD.AperFunction*%
%TD*%
%TA.AperFunction,Conductor*%
%TO.N,VOUT_SWITCHED*%
G36*
X32139564Y-43003316D02*
G01*
X32139589Y-43003090D01*
X32145788Y-43003753D01*
X32149920Y-43004805D01*
X32154907Y-43005522D01*
X32161334Y-43007409D01*
X32161251Y-43007690D01*
X32179978Y-43012458D01*
X32187060Y-43015386D01*
X32217508Y-43033442D01*
X32218091Y-43033912D01*
X32230222Y-43050121D01*
X32241493Y-43059191D01*
X32245096Y-43069993D01*
X32254827Y-43082995D01*
X32270687Y-43121284D01*
X32270687Y-43121285D01*
X32282043Y-43138281D01*
X32304915Y-43172509D01*
X32307951Y-43177054D01*
X32307953Y-43177056D01*
X32311342Y-43182128D01*
X32311342Y-43182130D01*
X32339136Y-43223726D01*
X32339138Y-43223729D01*
X32379144Y-43263735D01*
X32391672Y-43286678D01*
X32426286Y-43312639D01*
X32439567Y-43324158D01*
X32443703Y-43328294D01*
X32443709Y-43328299D01*
X32451073Y-43335663D01*
X32472223Y-43363915D01*
X32484831Y-43387004D01*
X32500000Y-43446433D01*
X32500000Y-50870500D01*
X32480315Y-50937539D01*
X32427511Y-50983294D01*
X32376000Y-50994500D01*
X31066728Y-50994500D01*
X31041201Y-50987004D01*
X31014877Y-50983139D01*
X31008193Y-50977312D01*
X30999689Y-50974815D01*
X30982269Y-50954712D01*
X30962211Y-50937225D01*
X30959738Y-50928709D01*
X30953934Y-50922011D01*
X30950147Y-50895677D01*
X30942729Y-50870127D01*
X30944700Y-50857796D01*
X30943990Y-50852853D01*
X30947857Y-50835207D01*
X30948310Y-50833678D01*
X30976757Y-50746130D01*
X30976757Y-50746127D01*
X31010000Y-50536246D01*
X31010000Y-50323753D01*
X30996260Y-50237007D01*
X30978284Y-50123511D01*
X30978283Y-50123505D01*
X30978283Y-50123506D01*
X30976756Y-50113865D01*
X30949473Y-50029898D01*
X30911095Y-49911782D01*
X30814624Y-49722449D01*
X30775270Y-49668282D01*
X30775269Y-49668282D01*
X30775268Y-49668282D01*
X30269701Y-50173849D01*
X30208378Y-50207334D01*
X30138686Y-50202350D01*
X30082753Y-50160478D01*
X30074637Y-50148173D01*
X30060099Y-50122993D01*
X29967007Y-50029901D01*
X29967004Y-50029899D01*
X29967000Y-50029896D01*
X29941828Y-50015363D01*
X29893613Y-49964796D01*
X29880391Y-49896189D01*
X29906359Y-49831324D01*
X29916135Y-49820310D01*
X30421716Y-49314728D01*
X30421715Y-49314727D01*
X30367552Y-49275376D01*
X30365944Y-49274391D01*
X30345602Y-49258821D01*
X30335577Y-49249352D01*
X30300355Y-49189015D01*
X30303345Y-49119209D01*
X30339508Y-49065496D01*
X30346526Y-49059415D01*
X30363787Y-49047813D01*
X30363394Y-49047172D01*
X30367546Y-49044626D01*
X30367545Y-49044626D01*
X30367554Y-49044622D01*
X30389121Y-49028951D01*
X30415859Y-49019411D01*
X30421717Y-49005269D01*
X29916149Y-48499702D01*
X29882664Y-48438379D01*
X29887648Y-48368688D01*
X29929519Y-48312754D01*
X29941822Y-48304639D01*
X29967007Y-48290099D01*
X30060099Y-48197007D01*
X30074634Y-48171830D01*
X30125199Y-48123616D01*
X30193805Y-48110391D01*
X30258671Y-48136358D01*
X30269702Y-48146149D01*
X30775269Y-48651717D01*
X30775269Y-48651716D01*
X30775270Y-48651717D01*
X30775270Y-48651716D01*
X30788738Y-48646137D01*
X30794955Y-48624967D01*
X30798954Y-48619118D01*
X30814621Y-48597555D01*
X30814625Y-48597548D01*
X30911095Y-48408217D01*
X30976757Y-48206130D01*
X30976757Y-48206127D01*
X31010000Y-47996246D01*
X31010000Y-47783753D01*
X30996260Y-47697007D01*
X30978284Y-47583511D01*
X30978283Y-47583505D01*
X30978283Y-47583506D01*
X30976756Y-47573865D01*
X30949473Y-47489898D01*
X30911095Y-47371782D01*
X30814624Y-47182449D01*
X30775270Y-47128282D01*
X30775269Y-47128282D01*
X30775268Y-47128282D01*
X30269702Y-47633849D01*
X30208379Y-47667334D01*
X30138687Y-47662350D01*
X30082754Y-47620478D01*
X30074634Y-47608169D01*
X30060099Y-47582993D01*
X29967007Y-47489901D01*
X29967004Y-47489899D01*
X29967000Y-47489896D01*
X29941828Y-47475363D01*
X29893613Y-47424796D01*
X29880391Y-47356189D01*
X29906359Y-47291324D01*
X29916133Y-47280312D01*
X30447028Y-46749416D01*
X30475272Y-46728274D01*
X30498364Y-46715666D01*
X30554598Y-46701313D01*
X30554576Y-46700900D01*
X30554571Y-46700854D01*
X30554573Y-46700853D01*
X30554564Y-46700676D01*
X30557767Y-46700504D01*
X30557789Y-46700499D01*
X30557871Y-46700499D01*
X30557872Y-46700499D01*
X30617483Y-46694091D01*
X30752331Y-46643796D01*
X30867546Y-46557546D01*
X30953796Y-46442331D01*
X31004091Y-46307483D01*
X31010500Y-46247873D01*
X31010499Y-44452128D01*
X31004091Y-44392517D01*
X30953796Y-44257669D01*
X30953795Y-44257668D01*
X30953793Y-44257664D01*
X30953782Y-44257649D01*
X30951392Y-44253929D01*
X30951391Y-44253928D01*
X30948489Y-44250579D01*
X30867547Y-44142455D01*
X30867544Y-44142452D01*
X30867542Y-44142450D01*
X30809616Y-44099086D01*
X30752335Y-44056206D01*
X30752332Y-44056204D01*
X30752330Y-44056203D01*
X30752328Y-44056202D01*
X30617482Y-44005908D01*
X30617483Y-44005908D01*
X30557883Y-43999501D01*
X30557881Y-43999500D01*
X30557873Y-43999500D01*
X30557864Y-43999500D01*
X30556841Y-43999500D01*
X28762123Y-43999500D01*
X28760192Y-43999659D01*
X28758545Y-43999885D01*
X28702516Y-44005908D01*
X28567666Y-44056204D01*
X28567665Y-44056205D01*
X28452456Y-44142450D01*
X28452450Y-44142456D01*
X28366205Y-44257665D01*
X28366203Y-44257668D01*
X28315908Y-44392516D01*
X28309500Y-44452125D01*
X28309500Y-46247876D01*
X28309659Y-46249806D01*
X28309885Y-46251454D01*
X28315907Y-46307482D01*
X28343690Y-46381971D01*
X28366202Y-46442328D01*
X28366203Y-46442330D01*
X28366204Y-46442332D01*
X28366205Y-46442333D01*
X28452450Y-46557542D01*
X28452452Y-46557544D01*
X28452455Y-46557547D01*
X28567664Y-46643793D01*
X28567671Y-46643797D01*
X28612618Y-46660561D01*
X28702517Y-46694091D01*
X28702516Y-46694091D01*
X28765432Y-46700856D01*
X28765390Y-46701240D01*
X28788905Y-46705260D01*
X28815031Y-46712930D01*
X28867781Y-46744227D01*
X29403850Y-47280296D01*
X29437335Y-47341619D01*
X29432351Y-47411311D01*
X29390479Y-47467244D01*
X29378173Y-47475362D01*
X29352996Y-47489898D01*
X29352990Y-47489903D01*
X29259903Y-47582990D01*
X29259898Y-47582996D01*
X29245362Y-47608173D01*
X29194793Y-47656387D01*
X29126185Y-47669607D01*
X29061322Y-47643637D01*
X29050296Y-47633850D01*
X28544728Y-47128282D01*
X28544727Y-47128282D01*
X28505380Y-47182438D01*
X28408903Y-47371784D01*
X28343242Y-47573865D01*
X28341798Y-47582990D01*
X28310000Y-47783753D01*
X28310000Y-47996246D01*
X28335860Y-48159519D01*
X28341715Y-48196485D01*
X28341716Y-48196493D01*
X28343242Y-48206133D01*
X28391913Y-48355925D01*
X28408904Y-48408217D01*
X28505374Y-48597548D01*
X28505375Y-48597550D01*
X28540674Y-48646137D01*
X28544728Y-48651716D01*
X29050297Y-48146147D01*
X29111619Y-48112663D01*
X29181311Y-48117647D01*
X29237244Y-48159519D01*
X29245363Y-48171828D01*
X29259896Y-48197000D01*
X29259899Y-48197004D01*
X29259901Y-48197007D01*
X29352993Y-48290099D01*
X29378169Y-48304634D01*
X29426384Y-48355200D01*
X29439608Y-48423807D01*
X29413640Y-48488672D01*
X29403850Y-48499702D01*
X28929971Y-48973581D01*
X28929970Y-48973581D01*
X28998773Y-49076090D01*
X29007078Y-49090455D01*
X29009285Y-49094941D01*
X29010303Y-49100815D01*
X29013386Y-49108084D01*
X29014064Y-49107871D01*
X29014676Y-49109810D01*
X29014183Y-49109965D01*
X29018384Y-49119869D01*
X29020809Y-49129660D01*
X29019892Y-49129886D01*
X29019574Y-49154313D01*
X29021216Y-49163784D01*
X29019395Y-49168095D01*
X29019029Y-49196207D01*
X28981726Y-49253432D01*
X28973486Y-49260573D01*
X28956204Y-49272221D01*
X28956584Y-49272841D01*
X28952434Y-49275383D01*
X28898282Y-49314726D01*
X28898281Y-49314727D01*
X29403850Y-49820296D01*
X29437335Y-49881619D01*
X29432351Y-49951311D01*
X29390479Y-50007244D01*
X29378173Y-50015362D01*
X29352996Y-50029898D01*
X29352990Y-50029903D01*
X29259903Y-50122990D01*
X29259898Y-50122996D01*
X29245362Y-50148173D01*
X29194793Y-50196387D01*
X29126185Y-50209607D01*
X29061322Y-50183637D01*
X29050296Y-50173850D01*
X28544728Y-49668282D01*
X28544727Y-49668282D01*
X28505380Y-49722438D01*
X28408903Y-49911784D01*
X28343242Y-50113865D01*
X28341716Y-50123506D01*
X28341715Y-50123513D01*
X28310000Y-50323753D01*
X28310000Y-50536245D01*
X28340436Y-50728414D01*
X28340437Y-50728417D01*
X28343242Y-50746127D01*
X28343242Y-50746130D01*
X28371696Y-50833702D01*
X28372143Y-50835208D01*
X28372243Y-50868642D01*
X28373197Y-50902023D01*
X28372348Y-50903430D01*
X28372353Y-50905077D01*
X28354367Y-50933248D01*
X28337117Y-50961856D01*
X28335640Y-50962581D01*
X28334755Y-50963969D01*
X28304404Y-50977939D01*
X28274416Y-50992684D01*
X28271904Y-50992899D01*
X28271287Y-50993184D01*
X28270266Y-50993040D01*
X28253271Y-50994500D01*
X27824500Y-50994500D01*
X27757461Y-50974815D01*
X27711706Y-50922011D01*
X27700500Y-50870500D01*
X27700500Y-43142329D01*
X27705523Y-43107393D01*
X27709927Y-43092395D01*
X27719557Y-43077404D01*
X27724567Y-43060324D01*
X27747672Y-43033644D01*
X27749041Y-43032457D01*
X27803920Y-43004977D01*
X27811479Y-43003333D01*
X27837832Y-43000500D01*
X32119975Y-43000500D01*
X32139564Y-43003316D01*
G37*
%TD.AperFunction*%
%TD*%
%TA.AperFunction,Conductor*%
%TO.N,VOUT*%
G36*
X28813887Y-51505595D02*
G01*
X28833737Y-51506262D01*
X28857304Y-51518344D01*
X28861870Y-51519685D01*
X28865332Y-51521992D01*
X28866524Y-51522816D01*
X28952184Y-51585051D01*
X28968885Y-51593560D01*
X28975702Y-51598272D01*
X28992675Y-51619242D01*
X29012290Y-51637766D01*
X29014327Y-51645992D01*
X29019660Y-51652581D01*
X29022601Y-51679402D01*
X29029087Y-51705587D01*
X29026353Y-51713608D01*
X29027278Y-51722034D01*
X29015253Y-51746184D01*
X29006552Y-51771722D01*
X28999493Y-51777839D01*
X28996137Y-51784580D01*
X28981962Y-51793031D01*
X28961505Y-51810760D01*
X28952446Y-51815376D01*
X28952440Y-51815380D01*
X28898282Y-51854727D01*
X28898282Y-51854728D01*
X29530591Y-52487037D01*
X29467007Y-52504075D01*
X29352993Y-52569901D01*
X29259901Y-52662993D01*
X29194075Y-52777007D01*
X29177037Y-52840591D01*
X28544728Y-52208282D01*
X28544727Y-52208282D01*
X28505380Y-52262439D01*
X28408904Y-52451782D01*
X28343242Y-52653869D01*
X28343242Y-52653872D01*
X28310000Y-52863753D01*
X28310000Y-53076246D01*
X28343242Y-53286127D01*
X28343242Y-53286130D01*
X28408904Y-53488217D01*
X28505375Y-53677550D01*
X28544728Y-53731716D01*
X29177037Y-53099408D01*
X29194075Y-53162993D01*
X29259901Y-53277007D01*
X29352993Y-53370099D01*
X29467007Y-53435925D01*
X29530591Y-53452962D01*
X28929971Y-54053581D01*
X29008711Y-54170895D01*
X29009920Y-54174729D01*
X29012844Y-54177491D01*
X29020343Y-54207778D01*
X29029727Y-54237529D01*
X29028671Y-54241408D01*
X29029638Y-54245312D01*
X29019573Y-54274844D01*
X29011383Y-54304947D01*
X29008397Y-54307640D01*
X29007100Y-54311447D01*
X28962051Y-54350483D01*
X28952440Y-54355380D01*
X28898282Y-54394727D01*
X28898282Y-54394728D01*
X29530591Y-55027037D01*
X29467007Y-55044075D01*
X29352993Y-55109901D01*
X29259901Y-55202993D01*
X29194075Y-55317007D01*
X29177037Y-55380591D01*
X28544728Y-54748282D01*
X28544727Y-54748282D01*
X28505380Y-54802439D01*
X28408904Y-54991782D01*
X28343242Y-55193869D01*
X28343242Y-55193872D01*
X28310000Y-55403753D01*
X28310000Y-55616246D01*
X28343242Y-55826127D01*
X28343242Y-55826130D01*
X28408904Y-56028217D01*
X28505375Y-56217550D01*
X28544728Y-56271716D01*
X29177037Y-55639408D01*
X29194075Y-55702993D01*
X29259901Y-55817007D01*
X29352993Y-55910099D01*
X29467007Y-55975925D01*
X29530590Y-55992962D01*
X28860370Y-56663181D01*
X28799047Y-56696666D01*
X28772698Y-56699500D01*
X28762134Y-56699500D01*
X28762123Y-56699501D01*
X28702516Y-56705908D01*
X28567671Y-56756202D01*
X28567664Y-56756206D01*
X28452455Y-56842452D01*
X28452452Y-56842455D01*
X28366206Y-56957664D01*
X28366202Y-56957671D01*
X28315908Y-57092517D01*
X28309501Y-57152116D01*
X28309501Y-57152123D01*
X28309500Y-57152135D01*
X28309500Y-58947870D01*
X28309501Y-58947876D01*
X28315908Y-59007483D01*
X28366202Y-59142328D01*
X28366206Y-59142335D01*
X28452452Y-59257544D01*
X28452455Y-59257547D01*
X28567664Y-59343793D01*
X28567671Y-59343797D01*
X28702517Y-59394091D01*
X28702516Y-59394091D01*
X28709444Y-59394835D01*
X28762127Y-59400500D01*
X30557872Y-59400499D01*
X30617483Y-59394091D01*
X30752331Y-59343796D01*
X30867546Y-59257546D01*
X30953796Y-59142331D01*
X31004091Y-59007483D01*
X31010500Y-58947873D01*
X31010499Y-57152128D01*
X31004091Y-57092517D01*
X30953796Y-56957669D01*
X30953795Y-56957668D01*
X30953793Y-56957664D01*
X30867547Y-56842455D01*
X30867544Y-56842452D01*
X30752335Y-56756206D01*
X30752328Y-56756202D01*
X30617482Y-56705908D01*
X30617483Y-56705908D01*
X30557883Y-56699501D01*
X30557881Y-56699500D01*
X30557873Y-56699500D01*
X30557865Y-56699500D01*
X30547309Y-56699500D01*
X30480270Y-56679815D01*
X30459628Y-56663181D01*
X29789408Y-55992962D01*
X29852993Y-55975925D01*
X29967007Y-55910099D01*
X30060099Y-55817007D01*
X30125925Y-55702993D01*
X30142962Y-55639408D01*
X30775270Y-56271717D01*
X30775270Y-56271716D01*
X30814622Y-56217554D01*
X30911095Y-56028217D01*
X30976757Y-55826130D01*
X30976757Y-55826127D01*
X31010000Y-55616246D01*
X31010000Y-55403753D01*
X30976757Y-55193872D01*
X30976757Y-55193869D01*
X30911095Y-54991782D01*
X30814624Y-54802449D01*
X30775270Y-54748282D01*
X30775269Y-54748282D01*
X30142962Y-55380590D01*
X30125925Y-55317007D01*
X30060099Y-55202993D01*
X29967007Y-55109901D01*
X29852993Y-55044075D01*
X29789409Y-55027037D01*
X30421716Y-54394728D01*
X30367550Y-54355375D01*
X30357954Y-54350486D01*
X30307157Y-54302512D01*
X30290361Y-54234692D01*
X30312897Y-54168556D01*
X30357954Y-54129514D01*
X30367554Y-54124622D01*
X30421716Y-54085270D01*
X30421717Y-54085270D01*
X29789408Y-53452962D01*
X29852993Y-53435925D01*
X29967007Y-53370099D01*
X30060099Y-53277007D01*
X30125925Y-53162993D01*
X30142962Y-53099408D01*
X30775270Y-53731717D01*
X30775270Y-53731716D01*
X30814622Y-53677554D01*
X30911095Y-53488217D01*
X30976757Y-53286130D01*
X30976757Y-53286127D01*
X31010000Y-53076246D01*
X31010000Y-52863753D01*
X30976757Y-52653872D01*
X30976757Y-52653869D01*
X30911095Y-52451782D01*
X30814624Y-52262449D01*
X30775270Y-52208282D01*
X30775269Y-52208282D01*
X30142962Y-52840590D01*
X30125925Y-52777007D01*
X30060099Y-52662993D01*
X29967007Y-52569901D01*
X29852993Y-52504075D01*
X29789409Y-52487037D01*
X30421716Y-51854728D01*
X30367547Y-51815373D01*
X30367547Y-51815372D01*
X30358500Y-51810763D01*
X30355410Y-51807844D01*
X30351295Y-51806785D01*
X30330234Y-51784065D01*
X30307706Y-51762788D01*
X30306684Y-51758661D01*
X30303795Y-51755545D01*
X30298358Y-51725039D01*
X30290912Y-51694966D01*
X30292282Y-51690943D01*
X30291537Y-51686759D01*
X30303457Y-51658155D01*
X30313451Y-51628832D01*
X30317243Y-51625074D01*
X30318414Y-51622266D01*
X30327536Y-51614877D01*
X30344298Y-51598272D01*
X30351115Y-51593560D01*
X30367816Y-51585051D01*
X30453456Y-51522830D01*
X30454669Y-51521992D01*
X30486495Y-51511475D01*
X30489650Y-51510349D01*
X30499999Y-51500000D01*
X32500000Y-51500000D01*
X32500000Y-60595277D01*
X32393187Y-60533608D01*
X32329539Y-60516554D01*
X32265892Y-60499500D01*
X32265891Y-60499500D01*
X27824500Y-60499500D01*
X27757461Y-60479815D01*
X27711706Y-60427011D01*
X27700500Y-60375500D01*
X27700500Y-51624000D01*
X27720185Y-51556961D01*
X27772989Y-51511206D01*
X27824500Y-51500000D01*
X28794831Y-51500000D01*
X28813887Y-51505595D01*
G37*
%TD.AperFunction*%
%TD*%
%TA.AperFunction,Conductor*%
%TO.N,CHARGE*%
G36*
X68645818Y-32205523D02*
G01*
X68660816Y-32209927D01*
X68675815Y-32219566D01*
X68692916Y-32224587D01*
X68719590Y-32247698D01*
X68724402Y-32253251D01*
X68752309Y-32310266D01*
X68800302Y-32551551D01*
X68800305Y-32551562D01*
X68900151Y-32880711D01*
X69031488Y-33197785D01*
X69031723Y-33198364D01*
X69031768Y-33198459D01*
X69031770Y-33198464D01*
X69031772Y-33198469D01*
X69193893Y-33501775D01*
X69193904Y-33501793D01*
X69384975Y-33787751D01*
X69384985Y-33787765D01*
X69551262Y-33990373D01*
X69603181Y-34053637D01*
X69846360Y-34296816D01*
X69846435Y-34296883D01*
X69846956Y-34297305D01*
X70112240Y-34515019D01*
X70258103Y-34612481D01*
X70398214Y-34706101D01*
X70398877Y-34706469D01*
X70399659Y-34706873D01*
X70696230Y-34865394D01*
X70700503Y-34867678D01*
X70700504Y-34867679D01*
X70705001Y-34870083D01*
X70709978Y-34871727D01*
X71019295Y-34999850D01*
X71348422Y-35099690D01*
X71582207Y-35146192D01*
X71615489Y-35157934D01*
X71629341Y-35165180D01*
X71679613Y-35213685D01*
X71679618Y-35213694D01*
X71679620Y-35213696D01*
X71679620Y-35213698D01*
X71683248Y-35220067D01*
X71699500Y-35281437D01*
X71699500Y-36723840D01*
X71694476Y-36758778D01*
X71691289Y-36769631D01*
X71681655Y-36784620D01*
X71676638Y-36801718D01*
X71663158Y-36813400D01*
X71653514Y-36828408D01*
X71637304Y-36835810D01*
X71623840Y-36847480D01*
X71606183Y-36850021D01*
X71589957Y-36857431D01*
X71572314Y-36854895D01*
X71554683Y-36857433D01*
X71520821Y-36847496D01*
X71517996Y-36846206D01*
X71469180Y-36806295D01*
X71402405Y-36714386D01*
X71402401Y-36714381D01*
X71252082Y-36564062D01*
X71080116Y-36439123D01*
X71066463Y-36432166D01*
X70912541Y-36353739D01*
X70912536Y-36353737D01*
X70890710Y-36342616D01*
X70890709Y-36342615D01*
X70890708Y-36342615D01*
X70793846Y-36311142D01*
X70697370Y-36279795D01*
X70692848Y-36277942D01*
X70683658Y-36275772D01*
X70678895Y-36275398D01*
X70527253Y-36251380D01*
X70507785Y-36248296D01*
X70478586Y-36243672D01*
X70478583Y-36243672D01*
X70266009Y-36243672D01*
X70266005Y-36243672D01*
X70227072Y-36249838D01*
X70217338Y-36251380D01*
X70179950Y-36257301D01*
X70056059Y-36276924D01*
X69853878Y-36342617D01*
X69664478Y-36439121D01*
X69492506Y-36564064D01*
X69342188Y-36714382D01*
X69309933Y-36758778D01*
X69228070Y-36871455D01*
X69217245Y-36886354D01*
X69120741Y-37075752D01*
X69055048Y-37277931D01*
X69021796Y-37487879D01*
X69021796Y-37700463D01*
X69055048Y-37910411D01*
X69120741Y-38112590D01*
X69213828Y-38295283D01*
X69217247Y-38301992D01*
X69342186Y-38473958D01*
X69342188Y-38473960D01*
X69492512Y-38624284D01*
X69664465Y-38749214D01*
X69664473Y-38749219D01*
X69664475Y-38749220D01*
X69664477Y-38749221D01*
X69664478Y-38749222D01*
X69664496Y-38749232D01*
X69664738Y-38749354D01*
X69853884Y-38845729D01*
X70056053Y-38911418D01*
X70266009Y-38944672D01*
X70266010Y-38944672D01*
X70478582Y-38944672D01*
X70478583Y-38944672D01*
X70688539Y-38911418D01*
X70890708Y-38845729D01*
X71080112Y-38749223D01*
X71102085Y-38733258D01*
X71252082Y-38624281D01*
X71252082Y-38624280D01*
X71252138Y-38624239D01*
X71252846Y-38623517D01*
X71402400Y-38473964D01*
X71464702Y-38388209D01*
X71478495Y-38377457D01*
X71488269Y-38363703D01*
X71489224Y-38362957D01*
X71498257Y-38355992D01*
X71513784Y-38349947D01*
X71518816Y-38346025D01*
X71529296Y-38341817D01*
X71536438Y-38341127D01*
X71563366Y-38330644D01*
X71589721Y-38335984D01*
X71598843Y-38335104D01*
X71607600Y-38339607D01*
X71631844Y-38344520D01*
X71648357Y-38360566D01*
X71660978Y-38367057D01*
X71668613Y-38380251D01*
X71681942Y-38393203D01*
X71683466Y-38395901D01*
X71688290Y-38414251D01*
X71695975Y-38427530D01*
X71695343Y-38441077D01*
X71699500Y-38456887D01*
X71699500Y-42565890D01*
X71733608Y-42693188D01*
X71766554Y-42750250D01*
X71799500Y-42807314D01*
X71892686Y-42900500D01*
X71916365Y-42914171D01*
X71916365Y-51500000D01*
X72603368Y-51500000D01*
X72549319Y-51502897D01*
X72549318Y-51502897D01*
X72522985Y-51505729D01*
X72522958Y-51505732D01*
X72469562Y-51514385D01*
X72469560Y-51514385D01*
X72334755Y-51564666D01*
X72273430Y-51598151D01*
X72177388Y-51670048D01*
X72158247Y-51684377D01*
X72109526Y-51733097D01*
X72109525Y-51733098D01*
X72109524Y-51733097D01*
X71717958Y-52124662D01*
X71656635Y-52158147D01*
X71586943Y-52153163D01*
X71531010Y-52111291D01*
X71519792Y-52093276D01*
X71511891Y-52077769D01*
X71472537Y-52023602D01*
X71472536Y-52023602D01*
X71472535Y-52023602D01*
X71003572Y-52492566D01*
X70942249Y-52526051D01*
X70872557Y-52521067D01*
X70816624Y-52479195D01*
X70808503Y-52466883D01*
X70797379Y-52447615D01*
X70797375Y-52447610D01*
X70694974Y-52345209D01*
X70675700Y-52334082D01*
X70627484Y-52283515D01*
X70614260Y-52214908D01*
X70640228Y-52150043D01*
X70650011Y-52139020D01*
X71118983Y-51670048D01*
X71064817Y-51630695D01*
X71004444Y-51599933D01*
X70875481Y-51534222D01*
X70673397Y-51468562D01*
X70463518Y-51435320D01*
X70463513Y-51435320D01*
X70251021Y-51435320D01*
X70251016Y-51435320D01*
X70050780Y-51467035D01*
X70050772Y-51467035D01*
X70050773Y-51467036D01*
X70041132Y-51468562D01*
X69839051Y-51534223D01*
X69649705Y-51630700D01*
X69595549Y-51670047D01*
X69595549Y-51670048D01*
X70064514Y-52139013D01*
X70097999Y-52200336D01*
X70093015Y-52270028D01*
X70051143Y-52325961D01*
X70038835Y-52334080D01*
X70019562Y-52345207D01*
X70019557Y-52345211D01*
X69917158Y-52447610D01*
X69917154Y-52447615D01*
X69906027Y-52466888D01*
X69855459Y-52515103D01*
X69786851Y-52528324D01*
X69721987Y-52502355D01*
X69710960Y-52492567D01*
X69241995Y-52023602D01*
X69241994Y-52023602D01*
X69202647Y-52077758D01*
X69106170Y-52267104D01*
X69040509Y-52469185D01*
X69038983Y-52478826D01*
X69007267Y-52679073D01*
X69007267Y-52891566D01*
X69038982Y-53091805D01*
X69038983Y-53091813D01*
X69040509Y-53101453D01*
X69100837Y-53287122D01*
X69106171Y-53303537D01*
X69202642Y-53492870D01*
X69241995Y-53547036D01*
X69710961Y-53078070D01*
X69772283Y-53044586D01*
X69841975Y-53049570D01*
X69897908Y-53091442D01*
X69906026Y-53103749D01*
X69917157Y-53123028D01*
X70019559Y-53225430D01*
X70019560Y-53225431D01*
X70019562Y-53225432D01*
X70038830Y-53236556D01*
X70087047Y-53287122D01*
X70100271Y-53355729D01*
X70074304Y-53420594D01*
X70064513Y-53431625D01*
X69595549Y-53900588D01*
X69588357Y-53917953D01*
X69544516Y-53972356D01*
X69478222Y-53994421D01*
X69473796Y-53994500D01*
X62629500Y-53994500D01*
X62562461Y-53974815D01*
X62516706Y-53922011D01*
X62505500Y-53870500D01*
X62505500Y-37637330D01*
X62502600Y-37583269D01*
X62502600Y-37583261D01*
X62499763Y-37556890D01*
X62491099Y-37503455D01*
X62489454Y-37495897D01*
X62478268Y-37464205D01*
X62447502Y-37377037D01*
X62420029Y-37322183D01*
X62420025Y-37322175D01*
X62420014Y-37322158D01*
X62419926Y-37322026D01*
X62419912Y-37321983D01*
X62418074Y-37318822D01*
X62418791Y-37318404D01*
X62399035Y-37255353D01*
X62410221Y-37201603D01*
X62465338Y-37080917D01*
X62485023Y-37013878D01*
X62485024Y-37013874D01*
X62505500Y-36871458D01*
X62505500Y-36120505D01*
X62525185Y-36053466D01*
X62577989Y-36007711D01*
X62642102Y-35997147D01*
X62670019Y-35999999D01*
X63769999Y-35999999D01*
X64270000Y-35999999D01*
X65369960Y-35999999D01*
X65369972Y-35999999D01*
X65369986Y-35999998D01*
X65472697Y-35989505D01*
X65639119Y-35934358D01*
X65639124Y-35934356D01*
X65788345Y-35842315D01*
X65912315Y-35718345D01*
X66004356Y-35569124D01*
X66004358Y-35569119D01*
X66059505Y-35402697D01*
X66059506Y-35402690D01*
X66069999Y-35299986D01*
X66070000Y-35299973D01*
X66070000Y-34650000D01*
X64270000Y-34650000D01*
X64270000Y-35999999D01*
X63769999Y-35999999D01*
X63770000Y-35999998D01*
X63770000Y-34150000D01*
X64270000Y-34150000D01*
X66069999Y-34150000D01*
X66069999Y-33500028D01*
X66069998Y-33500013D01*
X66059505Y-33397302D01*
X66004358Y-33230880D01*
X66004356Y-33230875D01*
X65912315Y-33081654D01*
X65788345Y-32957684D01*
X65639124Y-32865643D01*
X65639119Y-32865641D01*
X65606192Y-32854730D01*
X65472699Y-32810494D01*
X65472694Y-32810493D01*
X65369991Y-32800000D01*
X65369986Y-32800000D01*
X64270000Y-32800000D01*
X64270000Y-34150000D01*
X63770000Y-34150000D01*
X63770000Y-32800000D01*
X62670037Y-32800000D01*
X62670028Y-32800000D01*
X62670012Y-32800001D01*
X62670006Y-32800001D01*
X62669998Y-32800002D01*
X62642101Y-32802852D01*
X62573408Y-32790082D01*
X62522524Y-32742201D01*
X62505500Y-32679494D01*
X62505500Y-32337834D01*
X62505141Y-32331144D01*
X62521205Y-32263146D01*
X62571482Y-32214628D01*
X62628963Y-32200500D01*
X68610882Y-32200500D01*
X68645818Y-32205523D01*
G37*
%TD.AperFunction*%
%TA.AperFunction,Conductor*%
G36*
X73980315Y-51533835D02*
G01*
X73927511Y-51579590D01*
X73858353Y-51589534D01*
X73824488Y-51579590D01*
X73738159Y-51540164D01*
X73738154Y-51540162D01*
X73738153Y-51540162D01*
X73671114Y-51520477D01*
X73671116Y-51520477D01*
X73671111Y-51520476D01*
X73623638Y-51513650D01*
X73528694Y-51500000D01*
X73990250Y-51500000D01*
X73980315Y-51533835D01*
G37*
%TD.AperFunction*%
%TA.AperFunction,Conductor*%
G36*
X73421716Y-50123506D02*
G01*
X73421715Y-50123513D01*
X73390000Y-50323753D01*
X73421716Y-50123506D01*
G37*
%TD.AperFunction*%
%TA.AperFunction,Conductor*%
G36*
X73421716Y-47583506D02*
G01*
X73421715Y-47583513D01*
X73390000Y-47783753D01*
X73421716Y-47583506D01*
G37*
%TD.AperFunction*%
%TA.AperFunction,Conductor*%
G36*
X73868905Y-46705260D02*
G01*
X73895031Y-46712930D01*
X73868899Y-46705259D01*
X73868905Y-46705260D01*
G37*
%TD.AperFunction*%
%TD*%
%TA.AperFunction,Conductor*%
%TO.N,VIN*%
G36*
X71916365Y-60585827D02*
G01*
X71892696Y-60599493D01*
X71892682Y-60599502D01*
X71892677Y-60599506D01*
X71799506Y-60692677D01*
X71799502Y-60692682D01*
X71799493Y-60692696D01*
X71733610Y-60806806D01*
X71733609Y-60806808D01*
X71699500Y-60934108D01*
X71699500Y-65370500D01*
X71679815Y-65437539D01*
X71627011Y-65483294D01*
X71575500Y-65494500D01*
X70914500Y-65494500D01*
X70847461Y-65474815D01*
X70801706Y-65422011D01*
X70790500Y-65370500D01*
X70790500Y-62459962D01*
X70795523Y-62425027D01*
X70801096Y-62406047D01*
X70833200Y-62352500D01*
X70839472Y-62346342D01*
X70861243Y-62329290D01*
X70928656Y-62287712D01*
X71052712Y-62163656D01*
X71144814Y-62014334D01*
X71199999Y-61847797D01*
X71210500Y-61745009D01*
X71210499Y-59754992D01*
X71199999Y-59652203D01*
X71144814Y-59485666D01*
X71052712Y-59336344D01*
X70928656Y-59212288D01*
X70928655Y-59212287D01*
X70842806Y-59159334D01*
X70815711Y-59136721D01*
X70813994Y-59134812D01*
X70798620Y-59117719D01*
X70769197Y-59058988D01*
X70761658Y-59021087D01*
X70761511Y-59020731D01*
X70744395Y-58979409D01*
X70705090Y-58884517D01*
X70705085Y-58884508D01*
X70705080Y-58884498D01*
X70703752Y-58882511D01*
X70622955Y-58761589D01*
X70622949Y-58761581D01*
X70574448Y-58713081D01*
X70274425Y-58413058D01*
X70274420Y-58413053D01*
X70253273Y-58384802D01*
X70240666Y-58361713D01*
X70225499Y-58302288D01*
X70225499Y-57900008D01*
X70225499Y-57899998D01*
X70225498Y-57899981D01*
X70214999Y-57797203D01*
X70214998Y-57797200D01*
X70166979Y-57652290D01*
X70159814Y-57630666D01*
X70067712Y-57481344D01*
X69943656Y-57357288D01*
X69943655Y-57357287D01*
X69938553Y-57352185D01*
X69938629Y-57352108D01*
X69931514Y-57345429D01*
X69919140Y-57331672D01*
X69888943Y-57268664D01*
X69897604Y-57199334D01*
X69899013Y-57196090D01*
X69931538Y-57151799D01*
X69932781Y-57150722D01*
X69937849Y-57147002D01*
X69937683Y-57146792D01*
X69943335Y-57142322D01*
X69943342Y-57142318D01*
X70067315Y-57018345D01*
X70159356Y-56869124D01*
X70159358Y-56869119D01*
X70214505Y-56702697D01*
X70214506Y-56702690D01*
X70224999Y-56599986D01*
X70225000Y-56599973D01*
X70225000Y-56550000D01*
X68105000Y-56550000D01*
X68105000Y-56583170D01*
X68104999Y-56583176D01*
X68105000Y-56583179D01*
X68099975Y-56618114D01*
X68095570Y-56633112D01*
X68057827Y-56691855D01*
X68057792Y-56691885D01*
X68057791Y-56691887D01*
X68057789Y-56691887D01*
X68056458Y-56693042D01*
X68001597Y-56720518D01*
X67994039Y-56722163D01*
X67967668Y-56725000D01*
X66025001Y-56725000D01*
X66025001Y-56748331D01*
X66035144Y-56847608D01*
X66071613Y-56957664D01*
X66088452Y-57008481D01*
X66088457Y-57008492D01*
X66110969Y-57044990D01*
X66177413Y-57152712D01*
X66177432Y-57152739D01*
X66177433Y-57152740D01*
X66179987Y-57155685D01*
X66195148Y-57177510D01*
X66202697Y-57191336D01*
X66217548Y-57259594D01*
X66217419Y-57261400D01*
X66198049Y-57319605D01*
X66193871Y-57326106D01*
X66180901Y-57342201D01*
X66180918Y-57342215D01*
X66179367Y-57344106D01*
X66177247Y-57346738D01*
X66177041Y-57346943D01*
X66177028Y-57346959D01*
X66177022Y-57346968D01*
X66088002Y-57491292D01*
X66088000Y-57491295D01*
X66087993Y-57491309D01*
X66034652Y-57652285D01*
X66034650Y-57652295D01*
X66024500Y-57751639D01*
X66024500Y-58298334D01*
X66024503Y-58298381D01*
X66034650Y-58397707D01*
X66034653Y-58397715D01*
X66034720Y-58397918D01*
X66087995Y-58558691D01*
X66088000Y-58558703D01*
X66088002Y-58558706D01*
X66177018Y-58703024D01*
X66177027Y-58703037D01*
X66177029Y-58703040D01*
X66177032Y-58703044D01*
X66296956Y-58822968D01*
X66342813Y-58851253D01*
X66359948Y-58865554D01*
X66369905Y-58873864D01*
X66377683Y-58882511D01*
X66407882Y-58945517D01*
X66399222Y-59014848D01*
X66355270Y-59067941D01*
X66346218Y-59074103D01*
X66315446Y-59089304D01*
X66220981Y-59120607D01*
X66220916Y-59120629D01*
X66220871Y-59120644D01*
X66071657Y-59212681D01*
X66071653Y-59212684D01*
X65947685Y-59336652D01*
X65943280Y-59343794D01*
X65855771Y-59485669D01*
X65855641Y-59485879D01*
X65855641Y-59485881D01*
X65800494Y-59652299D01*
X65800493Y-59652304D01*
X65790000Y-59755007D01*
X65790000Y-59755010D01*
X65790000Y-59755013D01*
X65790000Y-60500000D01*
X68129999Y-60500000D01*
X68129999Y-59755028D01*
X68129998Y-59755013D01*
X68119505Y-59652302D01*
X68064358Y-59485880D01*
X68064356Y-59485875D01*
X67972315Y-59336654D01*
X67848345Y-59212684D01*
X67848341Y-59212681D01*
X67699127Y-59120644D01*
X67699121Y-59120642D01*
X67678356Y-59113761D01*
X67657070Y-59106707D01*
X67632368Y-59095384D01*
X67628848Y-59093276D01*
X67626920Y-59091941D01*
X67626316Y-59091760D01*
X67620529Y-59088294D01*
X67600503Y-59066607D01*
X67578591Y-59046832D01*
X67577068Y-59041229D01*
X67573128Y-59036963D01*
X67568006Y-59007893D01*
X67560263Y-58979409D01*
X67562003Y-58973826D01*
X67561004Y-58968153D01*
X67571824Y-58942329D01*
X67580809Y-58913513D01*
X67582332Y-58911210D01*
X67587122Y-58905818D01*
X67588005Y-58903712D01*
X67590551Y-58901959D01*
X67605668Y-58884946D01*
X67606942Y-58883868D01*
X67621921Y-58873005D01*
X67703044Y-58822968D01*
X67703048Y-58822963D01*
X67707806Y-58820029D01*
X67707903Y-58819919D01*
X67708213Y-58819778D01*
X67709194Y-58819174D01*
X67709272Y-58819300D01*
X67738998Y-58805871D01*
X67740042Y-58805333D01*
X67740115Y-58805311D01*
X67746280Y-58803540D01*
X67746481Y-58803458D01*
X67749566Y-58802561D01*
X67781532Y-58802636D01*
X67813455Y-58801117D01*
X67816446Y-58802719D01*
X67819436Y-58802727D01*
X67833902Y-58812073D01*
X67868356Y-58830533D01*
X67878132Y-58839563D01*
X67899533Y-58865554D01*
X67932284Y-58918651D01*
X67932287Y-58918655D01*
X67932288Y-58918656D01*
X68056344Y-59042712D01*
X68205666Y-59134814D01*
X68372203Y-59189999D01*
X68474991Y-59200500D01*
X68869941Y-59200499D01*
X68904870Y-59205520D01*
X68917216Y-59209145D01*
X68917222Y-59209146D01*
X68918134Y-59209414D01*
X68976914Y-59247186D01*
X69005942Y-59310740D01*
X69006891Y-59337219D01*
X69006459Y-59343261D01*
X68997093Y-59372302D01*
X68996002Y-59379899D01*
X68993839Y-59382395D01*
X68988314Y-59399528D01*
X68935190Y-59485658D01*
X68935184Y-59485669D01*
X68935159Y-59485746D01*
X68935116Y-59485879D01*
X68935115Y-59485881D01*
X68891045Y-59618870D01*
X68891034Y-59618904D01*
X68880001Y-59652203D01*
X68880001Y-59652204D01*
X68880000Y-59652204D01*
X68879230Y-59659734D01*
X68879230Y-59659737D01*
X68869500Y-59754973D01*
X68869500Y-59754981D01*
X68869500Y-59754983D01*
X68869500Y-61745001D01*
X68869501Y-61745018D01*
X68869502Y-61745026D01*
X68880000Y-61847797D01*
X68880001Y-61847799D01*
X68935115Y-62014119D01*
X68935152Y-62014231D01*
X68935185Y-62014333D01*
X68935186Y-62014334D01*
X69027096Y-62163345D01*
X69027289Y-62163657D01*
X69151345Y-62287713D01*
X69215415Y-62327231D01*
X69215416Y-62327231D01*
X69215419Y-62327233D01*
X69242515Y-62349847D01*
X69255744Y-62364554D01*
X69284468Y-62419993D01*
X69286415Y-62428558D01*
X69289500Y-62456045D01*
X69289500Y-65370500D01*
X69269815Y-65437539D01*
X69217011Y-65483294D01*
X69165500Y-65494500D01*
X69046106Y-65494500D01*
X68979067Y-65474815D01*
X68933312Y-65422011D01*
X68923368Y-65352853D01*
X68923633Y-65351101D01*
X68925000Y-65342473D01*
X68925000Y-65157526D01*
X68896066Y-64974852D01*
X68838916Y-64798959D01*
X68838915Y-64798956D01*
X68754949Y-64634165D01*
X68739983Y-64613568D01*
X68739982Y-64613568D01*
X68286497Y-65067053D01*
X68225174Y-65100538D01*
X68155482Y-65095554D01*
X68099549Y-65053682D01*
X68091430Y-65041374D01*
X68070080Y-65004394D01*
X67995606Y-64929920D01*
X67995605Y-64929919D01*
X67995602Y-64929917D01*
X67958626Y-64908569D01*
X67910410Y-64858002D01*
X67897188Y-64789395D01*
X67923156Y-64724530D01*
X67932937Y-64713509D01*
X68386431Y-64260016D01*
X68386430Y-64260015D01*
X68365834Y-64245050D01*
X68201043Y-64161084D01*
X68201040Y-64161083D01*
X68201039Y-64161082D01*
X68201036Y-64161081D01*
X68025148Y-64103933D01*
X67933810Y-64089466D01*
X67842473Y-64075000D01*
X67842472Y-64075000D01*
X67657528Y-64075000D01*
X67657527Y-64075000D01*
X67596635Y-64084644D01*
X67474850Y-64103933D01*
X67298962Y-64161081D01*
X67134162Y-64245051D01*
X67113568Y-64260014D01*
X67113567Y-64260015D01*
X67567055Y-64713501D01*
X67600540Y-64774824D01*
X67595556Y-64844515D01*
X67553685Y-64900449D01*
X67541374Y-64908569D01*
X67504397Y-64929917D01*
X67504392Y-64929921D01*
X67429921Y-65004392D01*
X67429915Y-65004400D01*
X67408568Y-65041374D01*
X67358001Y-65089589D01*
X67289393Y-65102811D01*
X67224529Y-65076843D01*
X67213501Y-65067054D01*
X66760015Y-64613567D01*
X66760014Y-64613568D01*
X66745051Y-64634162D01*
X66661081Y-64798962D01*
X66603933Y-64974850D01*
X66589329Y-65067054D01*
X66575000Y-65157526D01*
X66575000Y-65342473D01*
X66576367Y-65351101D01*
X66567413Y-65420394D01*
X66522417Y-65473847D01*
X66455666Y-65494487D01*
X66453894Y-65494500D01*
X64758743Y-65494500D01*
X64717424Y-65497900D01*
X64676105Y-65501301D01*
X64676103Y-65501301D01*
X64676096Y-65501302D01*
X64636112Y-65507927D01*
X64555691Y-65528148D01*
X64555685Y-65528150D01*
X64427497Y-65593464D01*
X64427495Y-65593465D01*
X64378038Y-65628328D01*
X64378029Y-65628335D01*
X64370386Y-65633724D01*
X64370380Y-65633728D01*
X64322577Y-65678875D01*
X64321716Y-65679661D01*
X64291248Y-65694509D01*
X64261076Y-65709883D01*
X64259938Y-65709768D01*
X64258908Y-65710271D01*
X64225235Y-65706288D01*
X64191555Y-65702911D01*
X64190169Y-65702141D01*
X64189522Y-65702065D01*
X64188466Y-65701195D01*
X64165302Y-65688331D01*
X64164366Y-65687651D01*
X64148041Y-65675790D01*
X64147635Y-65675583D01*
X64126488Y-65664807D01*
X64126488Y-65664808D01*
X63937604Y-65568566D01*
X63712976Y-65495579D01*
X63712970Y-65495578D01*
X63479710Y-65458633D01*
X63479705Y-65458633D01*
X63479700Y-65458633D01*
X63243516Y-65458633D01*
X63243511Y-65458633D01*
X63243506Y-65458633D01*
X63010244Y-65495578D01*
X63010242Y-65495578D01*
X63010239Y-65495579D01*
X62785611Y-65568566D01*
X62657725Y-65633728D01*
X62575172Y-65675791D01*
X62558848Y-65687651D01*
X62493041Y-65711130D01*
X62424988Y-65695304D01*
X62404764Y-65681047D01*
X62304808Y-65594433D01*
X62304805Y-65594431D01*
X62304803Y-65594430D01*
X62173937Y-65534664D01*
X62173932Y-65534662D01*
X62173931Y-65534662D01*
X62106892Y-65514977D01*
X62106894Y-65514977D01*
X62106889Y-65514976D01*
X62044826Y-65506053D01*
X61964472Y-65494500D01*
X61964470Y-65494500D01*
X57129500Y-65494500D01*
X57062461Y-65474815D01*
X57016706Y-65422011D01*
X57005500Y-65370500D01*
X57005500Y-61744995D01*
X65790001Y-61744995D01*
X65800493Y-61847694D01*
X65800493Y-61847695D01*
X65800494Y-61847697D01*
X65855641Y-62014119D01*
X65855643Y-62014124D01*
X65947684Y-62163345D01*
X66071654Y-62287315D01*
X66220875Y-62379356D01*
X66220880Y-62379358D01*
X66387299Y-62434504D01*
X66387300Y-62434504D01*
X66387302Y-62434505D01*
X66387309Y-62434506D01*
X66490019Y-62444999D01*
X66709999Y-62444999D01*
X67210000Y-62444999D01*
X67429960Y-62444999D01*
X67429972Y-62444999D01*
X67429986Y-62444998D01*
X67532697Y-62434505D01*
X67699119Y-62379358D01*
X67699124Y-62379356D01*
X67848345Y-62287315D01*
X67972315Y-62163345D01*
X68064356Y-62014124D01*
X68064358Y-62014119D01*
X68119505Y-61847697D01*
X68119506Y-61847690D01*
X68129999Y-61744986D01*
X68130000Y-61744973D01*
X68130000Y-61000000D01*
X67210000Y-61000000D01*
X67210000Y-62444999D01*
X66709999Y-62444999D01*
X66710000Y-62444998D01*
X66710000Y-61000000D01*
X65790001Y-61000000D01*
X65790001Y-61744995D01*
X57005500Y-61744995D01*
X57005500Y-56173074D01*
X61861608Y-56173074D01*
X61861608Y-56409190D01*
X61895972Y-56626154D01*
X61898542Y-56642380D01*
X61965225Y-56847608D01*
X61971506Y-56866937D01*
X62078694Y-57077305D01*
X62078695Y-57077307D01*
X62138945Y-57160236D01*
X62138947Y-57160238D01*
X62138947Y-57160237D01*
X62138948Y-57160238D01*
X62644532Y-56654653D01*
X62705853Y-56621170D01*
X62775544Y-56626154D01*
X62831478Y-56668025D01*
X62835299Y-56673425D01*
X62856720Y-56705484D01*
X62856724Y-56705488D01*
X62856724Y-56705489D01*
X62947251Y-56796016D01*
X62947254Y-56796018D01*
X62947257Y-56796021D01*
X62979293Y-56817426D01*
X63024097Y-56871037D01*
X63032805Y-56940362D01*
X63002651Y-57003390D01*
X62998083Y-57008209D01*
X62492501Y-57513790D01*
X62495080Y-57546554D01*
X62495462Y-57556285D01*
X62495462Y-57565990D01*
X62495080Y-57575718D01*
X62492502Y-57608472D01*
X62492502Y-57608473D01*
X62998084Y-58114055D01*
X63031569Y-58175378D01*
X63026585Y-58245070D01*
X62984713Y-58301003D01*
X62979295Y-58304837D01*
X62947257Y-58326244D01*
X62947251Y-58326249D01*
X62856724Y-58416776D01*
X62856719Y-58416782D01*
X62835312Y-58448820D01*
X62781699Y-58493625D01*
X62712374Y-58502331D01*
X62649347Y-58472175D01*
X62644530Y-58467609D01*
X62138948Y-57962026D01*
X62138947Y-57962027D01*
X62078694Y-58044958D01*
X61971506Y-58255327D01*
X61898541Y-58479888D01*
X61861608Y-58713074D01*
X61861608Y-58949190D01*
X61895972Y-59166154D01*
X61898542Y-59182380D01*
X61969098Y-59399528D01*
X61971506Y-59406937D01*
X62078694Y-59617305D01*
X62078695Y-59617307D01*
X62138945Y-59700236D01*
X62138947Y-59700238D01*
X62138947Y-59700237D01*
X62138948Y-59700238D01*
X62644532Y-59194653D01*
X62705853Y-59161170D01*
X62775544Y-59166154D01*
X62831478Y-59208025D01*
X62835299Y-59213425D01*
X62856720Y-59245484D01*
X62856724Y-59245488D01*
X62856724Y-59245489D01*
X62947251Y-59336016D01*
X62947254Y-59336018D01*
X62947257Y-59336021D01*
X62979293Y-59357426D01*
X63024097Y-59411037D01*
X63032805Y-59480362D01*
X63002651Y-59543390D01*
X62998083Y-59548209D01*
X62492500Y-60053790D01*
X62492501Y-60053790D01*
X62492501Y-60053791D01*
X62575436Y-60114047D01*
X62785805Y-60221235D01*
X62917390Y-60263990D01*
X62946860Y-60284140D01*
X63010357Y-60294197D01*
X63010360Y-60294198D01*
X63010359Y-60294198D01*
X63243556Y-60331133D01*
X63479659Y-60331133D01*
X63479660Y-60331133D01*
X63712855Y-60294198D01*
X63937410Y-60221235D01*
X64147771Y-60114051D01*
X64147777Y-60114047D01*
X64198117Y-60077473D01*
X64224855Y-60067932D01*
X64230713Y-60053790D01*
X63725132Y-59548209D01*
X63691647Y-59486886D01*
X63696631Y-59417194D01*
X63738503Y-59361261D01*
X63743878Y-59357456D01*
X63775959Y-59336021D01*
X63866496Y-59245484D01*
X63887903Y-59213445D01*
X63941511Y-59168643D01*
X64010835Y-59159934D01*
X64073864Y-59190088D01*
X64078684Y-59194657D01*
X64584265Y-59700238D01*
X64584265Y-59700237D01*
X64584266Y-59700238D01*
X64584266Y-59700237D01*
X64597734Y-59694658D01*
X64603951Y-59673488D01*
X64607948Y-59667642D01*
X64619167Y-59652200D01*
X64644522Y-59617302D01*
X64644526Y-59617296D01*
X64751710Y-59406935D01*
X64824673Y-59182380D01*
X64861608Y-58949185D01*
X64861608Y-58713080D01*
X64824673Y-58479885D01*
X64751710Y-58255330D01*
X64644522Y-58044961D01*
X64607946Y-57994620D01*
X64598407Y-57967883D01*
X64584265Y-57962025D01*
X64078684Y-58467608D01*
X64017361Y-58501093D01*
X63947670Y-58496109D01*
X63891736Y-58454238D01*
X63887914Y-58448837D01*
X63866496Y-58416782D01*
X63866491Y-58416777D01*
X63866491Y-58416776D01*
X63775964Y-58326249D01*
X63775960Y-58326246D01*
X63775959Y-58326245D01*
X63743919Y-58304837D01*
X63699116Y-58251227D01*
X63690408Y-58181902D01*
X63720562Y-58118874D01*
X63725115Y-58114070D01*
X64230712Y-57608473D01*
X64228134Y-57575718D01*
X64227752Y-57565991D01*
X64227752Y-57556280D01*
X64228134Y-57546553D01*
X64230712Y-57513790D01*
X64230710Y-57513788D01*
X64230710Y-57513787D01*
X63725132Y-57008209D01*
X63691647Y-56946886D01*
X63696631Y-56877194D01*
X63738503Y-56821261D01*
X63743878Y-56817456D01*
X63775959Y-56796021D01*
X63866496Y-56705484D01*
X63887903Y-56673445D01*
X63941511Y-56628643D01*
X64010835Y-56619934D01*
X64073864Y-56650088D01*
X64078684Y-56654657D01*
X64584265Y-57160238D01*
X64584265Y-57160237D01*
X64584266Y-57160238D01*
X64584266Y-57160237D01*
X64597734Y-57154658D01*
X64603951Y-57133488D01*
X64607948Y-57127642D01*
X64615711Y-57116955D01*
X64644522Y-57077302D01*
X64644526Y-57077296D01*
X64751710Y-56866935D01*
X64824673Y-56642380D01*
X64861608Y-56409185D01*
X64861608Y-56201671D01*
X66025000Y-56201671D01*
X66025000Y-56201677D01*
X66025000Y-56225000D01*
X66750000Y-56225000D01*
X66750000Y-55525000D01*
X67250000Y-55525000D01*
X67250000Y-56225000D01*
X67645000Y-56225000D01*
X67645000Y-56191829D01*
X67645453Y-56188681D01*
X67650023Y-56156893D01*
X67654427Y-56141895D01*
X67692172Y-56083144D01*
X67692200Y-56083119D01*
X67692199Y-56083119D01*
X67693541Y-56081956D01*
X67748420Y-56054477D01*
X67755979Y-56052833D01*
X67782332Y-56050000D01*
X68750000Y-56050000D01*
X69250000Y-56050000D01*
X70224999Y-56050000D01*
X70224999Y-56000028D01*
X70224998Y-56000013D01*
X70214505Y-55897302D01*
X70159358Y-55730880D01*
X70159356Y-55730875D01*
X70067315Y-55581654D01*
X69943345Y-55457684D01*
X69794124Y-55365643D01*
X69794119Y-55365641D01*
X69794110Y-55365638D01*
X69627699Y-55310494D01*
X69627694Y-55310493D01*
X69524991Y-55300000D01*
X69524986Y-55300000D01*
X69250000Y-55300000D01*
X69250000Y-56050000D01*
X68750000Y-56050000D01*
X68750000Y-55300000D01*
X68475029Y-55300000D01*
X68475019Y-55300000D01*
X68475006Y-55300001D01*
X68372304Y-55310493D01*
X68372302Y-55310494D01*
X68205887Y-55365638D01*
X68205879Y-55365641D01*
X68205877Y-55365642D01*
X68205875Y-55365643D01*
X68114466Y-55422025D01*
X68056652Y-55457685D01*
X67932682Y-55581655D01*
X67932679Y-55581659D01*
X67900096Y-55634483D01*
X67877488Y-55661573D01*
X67866766Y-55671218D01*
X67803760Y-55701418D01*
X67735932Y-55693401D01*
X67722110Y-55687611D01*
X67704933Y-55678784D01*
X67702726Y-55677423D01*
X67702724Y-55677421D01*
X67603543Y-55616245D01*
X67558499Y-55588461D01*
X67558494Y-55588458D01*
X67558492Y-55588457D01*
X67558488Y-55588455D01*
X67558476Y-55588449D01*
X67397604Y-55535143D01*
X67298327Y-55525000D01*
X67298322Y-55525000D01*
X67250000Y-55525000D01*
X66750000Y-55525000D01*
X66750000Y-55524999D01*
X66749999Y-55524998D01*
X66749998Y-55524998D01*
X66701713Y-55524999D01*
X66701685Y-55525000D01*
X66701651Y-55525003D01*
X66602390Y-55535144D01*
X66441520Y-55588451D01*
X66441508Y-55588456D01*
X66441505Y-55588458D01*
X66297286Y-55677413D01*
X66297264Y-55677429D01*
X66297261Y-55677431D01*
X66177431Y-55797261D01*
X66177429Y-55797264D01*
X66177413Y-55797286D01*
X66088458Y-55941505D01*
X66088456Y-55941508D01*
X66088449Y-55941522D01*
X66035143Y-56102394D01*
X66025000Y-56201671D01*
X64861608Y-56201671D01*
X64861608Y-56173080D01*
X64824673Y-55939885D01*
X64751710Y-55715330D01*
X64644522Y-55504961D01*
X64607946Y-55454620D01*
X64598407Y-55427883D01*
X64584265Y-55422025D01*
X64078684Y-55927608D01*
X64017361Y-55961093D01*
X63947670Y-55956109D01*
X63891736Y-55914238D01*
X63887914Y-55908837D01*
X63866496Y-55876782D01*
X63866491Y-55876777D01*
X63866491Y-55876776D01*
X63775961Y-55786246D01*
X63743921Y-55764838D01*
X63699116Y-55711225D01*
X63690409Y-55641900D01*
X63720564Y-55578873D01*
X63725116Y-55574070D01*
X64230713Y-55068473D01*
X64230712Y-55068471D01*
X64147782Y-55008220D01*
X64115521Y-54991782D01*
X63937414Y-54901031D01*
X63868007Y-54878479D01*
X63805823Y-54858274D01*
X63776354Y-54838124D01*
X63479665Y-54791133D01*
X63479660Y-54791133D01*
X63243556Y-54791133D01*
X63243551Y-54791133D01*
X63010363Y-54828066D01*
X62785802Y-54901031D01*
X62575433Y-55008219D01*
X62492502Y-55068472D01*
X62492501Y-55068473D01*
X62998084Y-55574055D01*
X63031569Y-55635378D01*
X63026585Y-55705069D01*
X62984714Y-55761003D01*
X62979295Y-55764837D01*
X62947257Y-55786244D01*
X62947251Y-55786249D01*
X62856724Y-55876776D01*
X62856719Y-55876782D01*
X62835312Y-55908820D01*
X62781699Y-55953625D01*
X62712374Y-55962331D01*
X62649347Y-55932175D01*
X62644530Y-55927609D01*
X62138948Y-55422026D01*
X62138947Y-55422027D01*
X62078694Y-55504958D01*
X61971506Y-55715327D01*
X61898541Y-55939888D01*
X61861608Y-56173074D01*
X57005500Y-56173074D01*
X57005500Y-54624000D01*
X57025185Y-54556961D01*
X57077989Y-54511206D01*
X57129500Y-54500000D01*
X71916365Y-54500000D01*
X71916365Y-60585827D01*
G37*
%TD.AperFunction*%
%TD*%
%TA.AperFunction,NonConductor*%
G36*
X73893106Y-61505523D02*
G01*
X73908104Y-61509927D01*
X73923094Y-61519557D01*
X73940175Y-61524567D01*
X73966855Y-61547672D01*
X73968042Y-61549041D01*
X73995518Y-61603902D01*
X73997163Y-61611460D01*
X74000000Y-61637831D01*
X74000000Y-65370500D01*
X73980315Y-65437539D01*
X73927511Y-65483294D01*
X73876000Y-65494500D01*
X72824500Y-65494500D01*
X72757461Y-65474815D01*
X72711706Y-65422011D01*
X72700500Y-65370500D01*
X72700500Y-61642329D01*
X72705523Y-61607393D01*
X72709927Y-61592395D01*
X72747672Y-61533644D01*
X72747700Y-61533619D01*
X72747699Y-61533619D01*
X72749041Y-61532456D01*
X72803920Y-61504977D01*
X72811479Y-61503333D01*
X72837832Y-61500500D01*
X73858170Y-61500500D01*
X73893106Y-61505523D01*
G37*
%TD.AperFunction*%
%TA.AperFunction,Conductor*%
%TO.N,POWER*%
G36*
X61893106Y-32205523D02*
G01*
X61908104Y-32209927D01*
X61923094Y-32219557D01*
X61940175Y-32224567D01*
X61966855Y-32247672D01*
X61968042Y-32249041D01*
X61995518Y-32303902D01*
X61997163Y-32311460D01*
X62000000Y-32337831D01*
X62000000Y-33212147D01*
X61994976Y-33247085D01*
X61991789Y-33257938D01*
X61982151Y-33272933D01*
X61977131Y-33290035D01*
X61963656Y-33301711D01*
X61954014Y-33316715D01*
X61937798Y-33324119D01*
X61924329Y-33335792D01*
X61906678Y-33338330D01*
X61890457Y-33345738D01*
X61872813Y-33343201D01*
X61855171Y-33345739D01*
X61821308Y-33335797D01*
X61814329Y-33332610D01*
X61778157Y-33307496D01*
X61768346Y-33297685D01*
X61768345Y-33297684D01*
X61619124Y-33205643D01*
X61619119Y-33205641D01*
X61619110Y-33205638D01*
X61452699Y-33150494D01*
X61452694Y-33150493D01*
X61349991Y-33140000D01*
X61349986Y-33140000D01*
X61050000Y-33140000D01*
X61050000Y-35659999D01*
X61349960Y-35659999D01*
X61349972Y-35659999D01*
X61349986Y-35659998D01*
X61452697Y-35649505D01*
X61619119Y-35594358D01*
X61619124Y-35594356D01*
X61768345Y-35502315D01*
X61775712Y-35494947D01*
X61803957Y-35473802D01*
X61813891Y-35468378D01*
X61882161Y-35453525D01*
X61947626Y-35477939D01*
X61989499Y-35533871D01*
X61989501Y-35533875D01*
X61992182Y-35541063D01*
X62000000Y-35584397D01*
X62000000Y-36871458D01*
X61980315Y-36938497D01*
X61927511Y-36984252D01*
X61867159Y-36995142D01*
X61858184Y-36994500D01*
X61858170Y-36994500D01*
X51629500Y-36994500D01*
X51562461Y-36974815D01*
X51516706Y-36922011D01*
X51505500Y-36870500D01*
X51505500Y-34307526D01*
X54825000Y-34307526D01*
X54825000Y-34492472D01*
X54853933Y-34675148D01*
X54911081Y-34851036D01*
X54911082Y-34851039D01*
X54911083Y-34851040D01*
X54911084Y-34851043D01*
X54995050Y-35015834D01*
X54995054Y-35015839D01*
X54995056Y-35015843D01*
X55010014Y-35036429D01*
X55010015Y-35036430D01*
X55463501Y-34582944D01*
X55524824Y-34549459D01*
X55594515Y-34554443D01*
X55650449Y-34596314D01*
X55658567Y-34608622D01*
X55679920Y-34645606D01*
X55754394Y-34720080D01*
X55791372Y-34741429D01*
X55839587Y-34791995D01*
X55852811Y-34860602D01*
X55826843Y-34925467D01*
X55817053Y-34936497D01*
X55363567Y-35389983D01*
X55363568Y-35389983D01*
X55363568Y-35389984D01*
X55384165Y-35404949D01*
X55548956Y-35488915D01*
X55548959Y-35488916D01*
X55724852Y-35546066D01*
X55907527Y-35575000D01*
X56092472Y-35575000D01*
X56092473Y-35575000D01*
X56275147Y-35546066D01*
X56451040Y-35488916D01*
X56451043Y-35488915D01*
X56615838Y-35404947D01*
X56716885Y-35331531D01*
X56748093Y-35315064D01*
X56762815Y-35309810D01*
X56832569Y-35305818D01*
X56834802Y-35306337D01*
X56888580Y-35333981D01*
X56893780Y-35338552D01*
X56911179Y-35357374D01*
X56967452Y-35432545D01*
X56967455Y-35432547D01*
X57082664Y-35518793D01*
X57082671Y-35518797D01*
X57217517Y-35569091D01*
X57217516Y-35569091D01*
X57224444Y-35569835D01*
X57277127Y-35575500D01*
X58722872Y-35575499D01*
X58782483Y-35569091D01*
X58917331Y-35518796D01*
X59032546Y-35432546D01*
X59118796Y-35317331D01*
X59169091Y-35182483D01*
X59175500Y-35122873D01*
X59175500Y-34959995D01*
X59550001Y-34959995D01*
X59560493Y-35062694D01*
X59560493Y-35062695D01*
X59560494Y-35062697D01*
X59615641Y-35229119D01*
X59615643Y-35229124D01*
X59707684Y-35378345D01*
X59831654Y-35502315D01*
X59980875Y-35594356D01*
X59980880Y-35594358D01*
X60147299Y-35649504D01*
X60147300Y-35649504D01*
X60147302Y-35649505D01*
X60147309Y-35649506D01*
X60250019Y-35659999D01*
X60549999Y-35659999D01*
X60550000Y-35659998D01*
X60550000Y-34650000D01*
X59550001Y-34650000D01*
X59550001Y-34959995D01*
X59175500Y-34959995D01*
X59175499Y-34400000D01*
X59175499Y-33840007D01*
X59550000Y-33840007D01*
X59550000Y-33840013D01*
X59550000Y-34150000D01*
X60550000Y-34150000D01*
X60550000Y-33140000D01*
X60250037Y-33140000D01*
X60250028Y-33140000D01*
X60250012Y-33140001D01*
X60250002Y-33140001D01*
X60250002Y-33140002D01*
X60147304Y-33150493D01*
X60147302Y-33150494D01*
X59980887Y-33205638D01*
X59980879Y-33205641D01*
X59980877Y-33205642D01*
X59980875Y-33205643D01*
X59902585Y-33253933D01*
X59831652Y-33297685D01*
X59707685Y-33421652D01*
X59697193Y-33438663D01*
X59660860Y-33497568D01*
X59615641Y-33570879D01*
X59615638Y-33570888D01*
X59560494Y-33737299D01*
X59560493Y-33737304D01*
X59550000Y-33840007D01*
X59175499Y-33840007D01*
X59175499Y-33836864D01*
X59175499Y-33677129D01*
X59175499Y-33677122D01*
X59175339Y-33675197D01*
X59175113Y-33673543D01*
X59169091Y-33617516D01*
X59118797Y-33482671D01*
X59118793Y-33482664D01*
X59054229Y-33396419D01*
X59032548Y-33367456D01*
X59032542Y-33367450D01*
X58966028Y-33317658D01*
X58917335Y-33281206D01*
X58917332Y-33281204D01*
X58917330Y-33281203D01*
X58917328Y-33281202D01*
X58782482Y-33230908D01*
X58782483Y-33230908D01*
X58722883Y-33224501D01*
X58722881Y-33224500D01*
X58722873Y-33224500D01*
X58722864Y-33224500D01*
X58721841Y-33224500D01*
X57277123Y-33224500D01*
X57275192Y-33224659D01*
X57273545Y-33224885D01*
X57226177Y-33229977D01*
X57217516Y-33230908D01*
X57104842Y-33272933D01*
X57082666Y-33281204D01*
X57082665Y-33281205D01*
X56967452Y-33367453D01*
X56914146Y-33438660D01*
X56914146Y-33438663D01*
X56889189Y-33463620D01*
X56876672Y-33472990D01*
X56811216Y-33497405D01*
X56811208Y-33497405D01*
X56811207Y-33497406D01*
X56811205Y-33497405D01*
X56808939Y-33497568D01*
X56749367Y-33487038D01*
X56743051Y-33484207D01*
X56720884Y-33471372D01*
X56615836Y-33395051D01*
X56615835Y-33395050D01*
X56615833Y-33395049D01*
X56475784Y-33323690D01*
X56451042Y-33311083D01*
X56275148Y-33253933D01*
X56123896Y-33229977D01*
X56092473Y-33225000D01*
X56092472Y-33225000D01*
X55907528Y-33225000D01*
X55907527Y-33225000D01*
X55876104Y-33229977D01*
X55724850Y-33253933D01*
X55548962Y-33311081D01*
X55384162Y-33395051D01*
X55363568Y-33410014D01*
X55363567Y-33410015D01*
X55817054Y-33863501D01*
X55850539Y-33924824D01*
X55845555Y-33994515D01*
X55803684Y-34050449D01*
X55791374Y-34058568D01*
X55754400Y-34079915D01*
X55754392Y-34079921D01*
X55679921Y-34154392D01*
X55679915Y-34154400D01*
X55658568Y-34191374D01*
X55608001Y-34239589D01*
X55539393Y-34252811D01*
X55474529Y-34226843D01*
X55463501Y-34217054D01*
X55010015Y-33763567D01*
X55010014Y-33763568D01*
X54995051Y-33784162D01*
X54911081Y-33948962D01*
X54853933Y-34124850D01*
X54825000Y-34307526D01*
X51505500Y-34307526D01*
X51505500Y-32337831D01*
X51505141Y-32331144D01*
X51521205Y-32263146D01*
X51571482Y-32214628D01*
X51628963Y-32200500D01*
X61858170Y-32200500D01*
X61893106Y-32205523D01*
G37*
%TD.AperFunction*%
%TD*%
%TA.AperFunction,Conductor*%
%TO.N,P-*%
G36*
X50893106Y-32205523D02*
G01*
X50908104Y-32209927D01*
X50923094Y-32219557D01*
X50940175Y-32224567D01*
X50966855Y-32247672D01*
X50968042Y-32249041D01*
X50995518Y-32303902D01*
X50997163Y-32311460D01*
X51000000Y-32337831D01*
X51000000Y-36921367D01*
X50980315Y-36988406D01*
X50927511Y-37034161D01*
X50917260Y-37038301D01*
X50877097Y-37052471D01*
X50877091Y-37052474D01*
X50822217Y-37079950D01*
X50822215Y-37079952D01*
X50747277Y-37130033D01*
X50747262Y-37130044D01*
X50717484Y-37149946D01*
X50716142Y-37151109D01*
X50710847Y-37156404D01*
X50710529Y-37156048D01*
X50710501Y-37156073D01*
X50706553Y-37160698D01*
X50698115Y-37169135D01*
X50698107Y-37169143D01*
X50665170Y-37202084D01*
X50651226Y-37223780D01*
X50641235Y-37237231D01*
X50621876Y-37259914D01*
X50621873Y-37259918D01*
X50584137Y-37318655D01*
X50524403Y-37449479D01*
X50521363Y-37459830D01*
X50520001Y-37464472D01*
X50513716Y-37493360D01*
X50504667Y-37534953D01*
X50499645Y-37569888D01*
X50494500Y-37641826D01*
X50494500Y-53796680D01*
X50474815Y-53863719D01*
X50422011Y-53909474D01*
X50356807Y-53919922D01*
X47999805Y-53658034D01*
X46693515Y-53512891D01*
X46693511Y-53512891D01*
X46693508Y-53512890D01*
X46557712Y-53516166D01*
X46557709Y-53516166D01*
X46492508Y-53526613D01*
X46362497Y-53565927D01*
X46241462Y-53643712D01*
X46241451Y-53643720D01*
X46188659Y-53689464D01*
X46094433Y-53798205D01*
X46094430Y-53798209D01*
X46035379Y-53927512D01*
X45989624Y-53980316D01*
X45922585Y-54000000D01*
X43218648Y-54000000D01*
X43204354Y-53995802D01*
X43183704Y-53994974D01*
X43173449Y-53991962D01*
X43158457Y-53982326D01*
X43151609Y-53980315D01*
X43143473Y-53974614D01*
X43136329Y-53969168D01*
X43134844Y-53967147D01*
X43114674Y-53954183D01*
X43097226Y-53915970D01*
X43094948Y-53912871D01*
X43094810Y-53910679D01*
X43085654Y-53890626D01*
X43091153Y-53852395D01*
X43090573Y-53843138D01*
X43093150Y-53838513D01*
X43095603Y-53821468D01*
X43119660Y-53790955D01*
X43124592Y-53782110D01*
X43128125Y-53780220D01*
X43131982Y-53775328D01*
X43135095Y-53772892D01*
X43155200Y-53760074D01*
X43222525Y-53725770D01*
X43229665Y-53720581D01*
X43244092Y-53710101D01*
X43270829Y-53700560D01*
X43276688Y-53686417D01*
X42807724Y-53217453D01*
X42774239Y-53156130D01*
X42779223Y-53086438D01*
X42821095Y-53030505D01*
X42833404Y-53022386D01*
X42852679Y-53011258D01*
X42955081Y-52908856D01*
X42966208Y-52889582D01*
X43016773Y-52841367D01*
X43085380Y-52828142D01*
X43150245Y-52854109D01*
X43161277Y-52863900D01*
X43630240Y-53332865D01*
X43630240Y-53332864D01*
X43630241Y-53332865D01*
X43630241Y-53332864D01*
X43643709Y-53327285D01*
X43649926Y-53306115D01*
X43653925Y-53300266D01*
X43669592Y-53278703D01*
X43669593Y-53278702D01*
X43766066Y-53089365D01*
X43831728Y-52887278D01*
X43831728Y-52887275D01*
X43864971Y-52677394D01*
X43864971Y-52464901D01*
X43840734Y-52311879D01*
X43833255Y-52264659D01*
X43833254Y-52264653D01*
X43833254Y-52264654D01*
X43831727Y-52255013D01*
X43771398Y-52069341D01*
X43766066Y-52052930D01*
X43669595Y-51863597D01*
X43630241Y-51809430D01*
X43630240Y-51809430D01*
X43630239Y-51809430D01*
X43161276Y-52278394D01*
X43099953Y-52311879D01*
X43030261Y-52306895D01*
X42974328Y-52265023D01*
X42966207Y-52252711D01*
X42955083Y-52233443D01*
X42955079Y-52233438D01*
X42852680Y-52131039D01*
X42852675Y-52131035D01*
X42833402Y-52119908D01*
X42785186Y-52069341D01*
X42771963Y-52000734D01*
X42797931Y-51935869D01*
X42807711Y-51924850D01*
X43276687Y-51455876D01*
X43222521Y-51416523D01*
X43215160Y-51412772D01*
X43033185Y-51320050D01*
X42831101Y-51254390D01*
X42621222Y-51221148D01*
X42621217Y-51221148D01*
X42408725Y-51221148D01*
X42408720Y-51221148D01*
X42208484Y-51252863D01*
X42208476Y-51252863D01*
X42208477Y-51252864D01*
X42198836Y-51254390D01*
X41996750Y-51320053D01*
X41807416Y-51416524D01*
X41728464Y-51473887D01*
X41684455Y-51505860D01*
X41684450Y-51505863D01*
X41684449Y-51505865D01*
X41653235Y-51522332D01*
X41648582Y-51523993D01*
X41640161Y-51526997D01*
X41570405Y-51530980D01*
X41509580Y-51496631D01*
X41506425Y-51493384D01*
X41473816Y-51431593D01*
X41473728Y-51431153D01*
X41473012Y-51427555D01*
X41470919Y-51417032D01*
X41395499Y-51234953D01*
X41395498Y-51234952D01*
X41395495Y-51234946D01*
X41286007Y-51071086D01*
X41286004Y-51071082D01*
X41286001Y-51071079D01*
X41286000Y-51071077D01*
X41048926Y-50834004D01*
X41048921Y-50833999D01*
X41027774Y-50805748D01*
X41015167Y-50782659D01*
X41000000Y-50723234D01*
X41000000Y-48009247D01*
X41005020Y-47974322D01*
X41006524Y-47969199D01*
X41006978Y-47967653D01*
X41044746Y-47908874D01*
X41108300Y-47879844D01*
X41177459Y-47889781D01*
X41229302Y-47934053D01*
X41232575Y-47938989D01*
X41247161Y-47969199D01*
X41263872Y-48020633D01*
X41263874Y-48020638D01*
X41360345Y-48209970D01*
X41360346Y-48209972D01*
X41395645Y-48258559D01*
X41399699Y-48264138D01*
X41868665Y-47795172D01*
X41929987Y-47761688D01*
X41999679Y-47766672D01*
X42055612Y-47808544D01*
X42063730Y-47820851D01*
X42068154Y-47828513D01*
X42074859Y-47840128D01*
X42074861Y-47840130D01*
X42177263Y-47942532D01*
X42177264Y-47942533D01*
X42177266Y-47942534D01*
X42196534Y-47953658D01*
X42244751Y-48004224D01*
X42257975Y-48072831D01*
X42232008Y-48137696D01*
X42222217Y-48148727D01*
X41753253Y-48617690D01*
X41753253Y-48617691D01*
X41753253Y-48617692D01*
X41807420Y-48657046D01*
X41996753Y-48753517D01*
X41996755Y-48753518D01*
X42198837Y-48819178D01*
X42198838Y-48819178D01*
X42198841Y-48819179D01*
X42408725Y-48852422D01*
X42621216Y-48852422D01*
X42621217Y-48852422D01*
X42734021Y-48834554D01*
X42821458Y-48820706D01*
X42821464Y-48820705D01*
X42831098Y-48819179D01*
X42831101Y-48819179D01*
X43033188Y-48753517D01*
X43222525Y-48657044D01*
X43224947Y-48655284D01*
X43244092Y-48641375D01*
X43270829Y-48631834D01*
X43276688Y-48617691D01*
X42807723Y-48148728D01*
X42774238Y-48087405D01*
X42779222Y-48017714D01*
X42821093Y-47961780D01*
X42833400Y-47953662D01*
X42852679Y-47942532D01*
X42955081Y-47840130D01*
X42966208Y-47820856D01*
X43016773Y-47772641D01*
X43085380Y-47759416D01*
X43150245Y-47785383D01*
X43161277Y-47795174D01*
X43630240Y-48264139D01*
X43630240Y-48264138D01*
X43630241Y-48264139D01*
X43630241Y-48264138D01*
X43643709Y-48258559D01*
X43649926Y-48237389D01*
X43653925Y-48231540D01*
X43669592Y-48209977D01*
X43669596Y-48209970D01*
X43766066Y-48020639D01*
X43831728Y-47818552D01*
X43831728Y-47818549D01*
X43864971Y-47608668D01*
X43864971Y-47396175D01*
X43840734Y-47243153D01*
X43833255Y-47195933D01*
X43833254Y-47195927D01*
X43833254Y-47195928D01*
X43831727Y-47186287D01*
X43790350Y-47058942D01*
X43766066Y-46984204D01*
X43669595Y-46794871D01*
X43630241Y-46740704D01*
X43630240Y-46740704D01*
X43630239Y-46740704D01*
X43161276Y-47209668D01*
X43099953Y-47243153D01*
X43030261Y-47238169D01*
X42974328Y-47196297D01*
X42966207Y-47183985D01*
X42955083Y-47164717D01*
X42955079Y-47164712D01*
X42852678Y-47062311D01*
X42841062Y-47055605D01*
X42833403Y-47051183D01*
X42785188Y-47000617D01*
X42771964Y-46932010D01*
X42797932Y-46867145D01*
X42807715Y-46856122D01*
X43276687Y-46387150D01*
X43222521Y-46347797D01*
X43222522Y-46347797D01*
X43222520Y-46347796D01*
X43199863Y-46336252D01*
X43171018Y-46315918D01*
X43161604Y-46307027D01*
X43126381Y-46246685D01*
X43129373Y-46176879D01*
X43165534Y-46123172D01*
X43172547Y-46117095D01*
X43197451Y-46100324D01*
X43222787Y-46087416D01*
X43260254Y-46060194D01*
X43384164Y-45970170D01*
X43406319Y-45957342D01*
X43436743Y-45943707D01*
X43487451Y-45932865D01*
X45366176Y-45932865D01*
X45366177Y-45932865D01*
X45376335Y-45930844D01*
X45397193Y-45926695D01*
X45397196Y-45926693D01*
X45397201Y-45926693D01*
X45462823Y-45913640D01*
X45559471Y-45894416D01*
X45612800Y-45872326D01*
X45741549Y-45818997D01*
X45905417Y-45709504D01*
X46044774Y-45570147D01*
X46044774Y-45570145D01*
X46054982Y-45559938D01*
X46054984Y-45559935D01*
X48137778Y-43477141D01*
X48137782Y-43477139D01*
X48277139Y-43337782D01*
X48386632Y-43173914D01*
X48462051Y-42991835D01*
X48500500Y-42798541D01*
X48500500Y-35684038D01*
X48505522Y-35649105D01*
X48509433Y-35635786D01*
X48547206Y-35577009D01*
X48610758Y-35547984D01*
X48616671Y-35547134D01*
X48677651Y-35553688D01*
X48717623Y-35568597D01*
X48717627Y-35568598D01*
X48728068Y-35569720D01*
X48777141Y-35574998D01*
X48777152Y-35574998D01*
X48777155Y-35574999D01*
X48777172Y-35575000D01*
X49250000Y-35575000D01*
X49250000Y-34908722D01*
X49269685Y-34841683D01*
X49322489Y-34795928D01*
X49391647Y-34785984D01*
X49406082Y-34788945D01*
X49447339Y-34800000D01*
X49552659Y-34800000D01*
X49552661Y-34800000D01*
X49593907Y-34788948D01*
X49663755Y-34790609D01*
X49721618Y-34829771D01*
X49749123Y-34893999D01*
X49750000Y-34908722D01*
X49750000Y-35575000D01*
X50222828Y-35575000D01*
X50222836Y-35575000D01*
X50222847Y-35574999D01*
X50258560Y-35571158D01*
X50282372Y-35568598D01*
X50282379Y-35568596D01*
X50417086Y-35518354D01*
X50417093Y-35518350D01*
X50532187Y-35432190D01*
X50532190Y-35432187D01*
X50618350Y-35317093D01*
X50618354Y-35317086D01*
X50668596Y-35182379D01*
X50668598Y-35182372D01*
X50670069Y-35168689D01*
X50674998Y-35122860D01*
X50675000Y-35122827D01*
X50675000Y-34650000D01*
X50008723Y-34650000D01*
X49941684Y-34630315D01*
X49895929Y-34577511D01*
X49885985Y-34508353D01*
X49888948Y-34493907D01*
X49900000Y-34452661D01*
X49900000Y-34347339D01*
X49888948Y-34306092D01*
X49890611Y-34236243D01*
X49929774Y-34178381D01*
X49994002Y-34150877D01*
X50008723Y-34150000D01*
X50675000Y-34150000D01*
X50675000Y-33677172D01*
X50674998Y-33677138D01*
X50668598Y-33617628D01*
X50668596Y-33617621D01*
X50668596Y-33617620D01*
X50618354Y-33482913D01*
X50618350Y-33482906D01*
X50532190Y-33367812D01*
X50532187Y-33367809D01*
X50532185Y-33367807D01*
X50455793Y-33310620D01*
X50417093Y-33281649D01*
X50417086Y-33281645D01*
X50341477Y-33253445D01*
X50282377Y-33231402D01*
X50282370Y-33231400D01*
X50222852Y-33225000D01*
X50222844Y-33225000D01*
X49750000Y-33225000D01*
X49750000Y-33891277D01*
X49730315Y-33958316D01*
X49677511Y-34004071D01*
X49608353Y-34014015D01*
X49593911Y-34011052D01*
X49552661Y-34000000D01*
X49552660Y-34000000D01*
X49447339Y-34000000D01*
X49406092Y-34011051D01*
X49336243Y-34009389D01*
X49278381Y-33970226D01*
X49250877Y-33905998D01*
X49250000Y-33891277D01*
X49250000Y-33225000D01*
X48777155Y-33225000D01*
X48777146Y-33225000D01*
X48717628Y-33231400D01*
X48717621Y-33231402D01*
X48582909Y-33281646D01*
X48582909Y-33281647D01*
X48582903Y-33281650D01*
X48467816Y-33367805D01*
X48467812Y-33367809D01*
X48414848Y-33438560D01*
X48389891Y-33463516D01*
X48377375Y-33472885D01*
X48311924Y-33497300D01*
X48309648Y-33497463D01*
X48250084Y-33486938D01*
X48243761Y-33484105D01*
X48221591Y-33471269D01*
X48116096Y-33394622D01*
X48102672Y-33387782D01*
X47951235Y-33310620D01*
X47951232Y-33310619D01*
X47951231Y-33310618D01*
X47951228Y-33310617D01*
X47951208Y-33310610D01*
X47775267Y-33253445D01*
X47775268Y-33253445D01*
X47636097Y-33231403D01*
X47636078Y-33231400D01*
X47592514Y-33224500D01*
X47592513Y-33224500D01*
X47407487Y-33224500D01*
X47407486Y-33224500D01*
X47363921Y-33231400D01*
X47363915Y-33231401D01*
X47224730Y-33253445D01*
X47048790Y-33310610D01*
X47048767Y-33310618D01*
X47048766Y-33310619D01*
X46883898Y-33394624D01*
X46805865Y-33451319D01*
X46805864Y-33451320D01*
X46774648Y-33467790D01*
X46761811Y-33472370D01*
X46692055Y-33476358D01*
X46631217Y-33442000D01*
X46600399Y-33387786D01*
X46598255Y-33379816D01*
X46594102Y-33352583D01*
X46592424Y-33310620D01*
X46553890Y-32347263D01*
X46557512Y-32312164D01*
X46561314Y-32296997D01*
X46596614Y-32236849D01*
X46596733Y-32236736D01*
X46596971Y-32236513D01*
X46653177Y-32206202D01*
X46662904Y-32203881D01*
X46691667Y-32200500D01*
X50858170Y-32200500D01*
X50893106Y-32205523D01*
G37*
%TD.AperFunction*%
%TA.AperFunction,Conductor*%
G36*
X41177459Y-45321339D02*
G01*
X41229302Y-45365611D01*
X41232575Y-45370547D01*
X41247160Y-45400754D01*
X41263414Y-45450779D01*
X41324234Y-45570144D01*
X41359922Y-45640185D01*
X41484861Y-45812151D01*
X41484863Y-45812153D01*
X41635187Y-45962477D01*
X41807140Y-46087407D01*
X41807148Y-46087412D01*
X41807150Y-46087413D01*
X41807152Y-46087414D01*
X41807153Y-46087415D01*
X41807171Y-46087425D01*
X41807410Y-46087546D01*
X41830077Y-46099095D01*
X41837862Y-46104583D01*
X41858922Y-46119429D01*
X41868336Y-46128320D01*
X41903559Y-46188662D01*
X41900567Y-46258468D01*
X41864406Y-46312175D01*
X41857401Y-46318246D01*
X41832486Y-46335025D01*
X41807409Y-46347802D01*
X41753252Y-46387149D01*
X42222218Y-46856115D01*
X42255703Y-46917438D01*
X42250719Y-46987130D01*
X42208847Y-47043063D01*
X42196539Y-47051182D01*
X42177266Y-47062309D01*
X42177261Y-47062313D01*
X42074862Y-47164712D01*
X42074858Y-47164717D01*
X42063731Y-47183990D01*
X42013163Y-47232205D01*
X41944555Y-47245426D01*
X41879691Y-47219457D01*
X41868664Y-47209669D01*
X41399699Y-46740704D01*
X41399698Y-46740704D01*
X41360351Y-46794860D01*
X41263874Y-46984203D01*
X41263873Y-46984206D01*
X41247440Y-47034785D01*
X41239765Y-47046008D01*
X41231869Y-47066456D01*
X41227947Y-47072192D01*
X41214144Y-47083479D01*
X41208003Y-47092460D01*
X41197982Y-47096694D01*
X41173859Y-47116421D01*
X41104445Y-47124387D01*
X41041743Y-47093561D01*
X41020530Y-47058942D01*
X41011488Y-47048622D01*
X41010612Y-47042757D01*
X41006122Y-47035430D01*
X41004535Y-47029724D01*
X41000000Y-46996497D01*
X41000000Y-45440805D01*
X41005020Y-45405880D01*
X41006525Y-45400754D01*
X41006978Y-45399211D01*
X41044746Y-45340432D01*
X41108300Y-45311402D01*
X41177459Y-45321339D01*
G37*
%TD.AperFunction*%
%TD*%
%TA.AperFunction,NonConductor*%
G36*
X41660178Y-43504787D02*
G01*
X41661819Y-43505023D01*
X41665136Y-43505997D01*
X41672117Y-43507205D01*
X41671976Y-43508019D01*
X41679569Y-43512899D01*
X41725056Y-43529100D01*
X41784425Y-43572234D01*
X41809731Y-43596826D01*
X41818208Y-43607820D01*
X41843558Y-43672927D01*
X41829683Y-43741405D01*
X41829678Y-43741415D01*
X41826416Y-43747596D01*
X41789637Y-43790039D01*
X41635180Y-43902258D01*
X41484861Y-44052578D01*
X41359920Y-44224547D01*
X41263414Y-44413947D01*
X41263412Y-44413953D01*
X41247439Y-44463116D01*
X41239763Y-44474341D01*
X41231857Y-44494804D01*
X41227935Y-44500538D01*
X41214140Y-44511814D01*
X41208002Y-44520792D01*
X41197973Y-44525030D01*
X41173839Y-44544759D01*
X41104424Y-44552714D01*
X41041727Y-44521877D01*
X41020518Y-44487256D01*
X41011478Y-44476933D01*
X41010603Y-44471069D01*
X41006118Y-44463748D01*
X41004531Y-44458041D01*
X41000000Y-44424828D01*
X41000000Y-43641829D01*
X41005023Y-43606893D01*
X41009427Y-43591895D01*
X41047172Y-43533144D01*
X41048541Y-43531957D01*
X41103420Y-43504477D01*
X41110979Y-43502833D01*
X41137332Y-43500000D01*
X41626884Y-43500000D01*
X41660178Y-43504787D01*
G37*
%TD.AperFunction*%
%TA.AperFunction,Conductor*%
%TO.N,PGND*%
G36*
X61893106Y-37505023D02*
G01*
X61908104Y-37509427D01*
X61923094Y-37519057D01*
X61940175Y-37524067D01*
X61966855Y-37547172D01*
X61968042Y-37548541D01*
X61995518Y-37603402D01*
X61997163Y-37610960D01*
X62000000Y-37637331D01*
X62000000Y-53870500D01*
X61980315Y-53937539D01*
X61927511Y-53983294D01*
X61876000Y-53994500D01*
X57129500Y-53994500D01*
X57129491Y-53994500D01*
X57129490Y-53994501D01*
X57022049Y-54006052D01*
X57022037Y-54006054D01*
X56970527Y-54017260D01*
X56868002Y-54051383D01*
X56867996Y-54051386D01*
X56746962Y-54129171D01*
X56746951Y-54129179D01*
X56694159Y-54174923D01*
X56599933Y-54283664D01*
X56599930Y-54283668D01*
X56540160Y-54414542D01*
X56538616Y-54418685D01*
X56536696Y-54417969D01*
X56503460Y-54469702D01*
X56439908Y-54498735D01*
X56422244Y-54500000D01*
X51124000Y-54500000D01*
X51056961Y-54480315D01*
X51011206Y-54427511D01*
X51000000Y-54376000D01*
X51000000Y-37641829D01*
X51005023Y-37606893D01*
X51009427Y-37591895D01*
X51047172Y-37533144D01*
X51047200Y-37533119D01*
X51047199Y-37533119D01*
X51048541Y-37531956D01*
X51103420Y-37504477D01*
X51110979Y-37502833D01*
X51137332Y-37500000D01*
X61858170Y-37500000D01*
X61893106Y-37505023D01*
G37*
%TD.AperFunction*%
%TD*%
%TA.AperFunction,Conductor*%
%TO.N,PGND*%
G36*
X66703299Y-66019685D02*
G01*
X66749054Y-66072489D01*
X66758998Y-66141647D01*
X66729973Y-66205203D01*
X66723941Y-66211681D01*
X66717809Y-66217812D01*
X66631649Y-66332906D01*
X66631645Y-66332913D01*
X66581403Y-66467620D01*
X66581401Y-66467627D01*
X66575000Y-66527155D01*
X66575000Y-67000000D01*
X67434314Y-67000000D01*
X67429920Y-67004394D01*
X67377259Y-67095606D01*
X67350000Y-67197339D01*
X67350000Y-67302661D01*
X67377259Y-67404394D01*
X67429920Y-67495606D01*
X67434314Y-67500000D01*
X66575000Y-67500000D01*
X66575000Y-67972844D01*
X66581401Y-68032372D01*
X66581403Y-68032379D01*
X66631645Y-68167086D01*
X66631649Y-68167093D01*
X66717809Y-68282187D01*
X66717812Y-68282190D01*
X66832906Y-68368350D01*
X66832913Y-68368354D01*
X66967620Y-68418596D01*
X66967627Y-68418598D01*
X67027155Y-68424999D01*
X67027172Y-68425000D01*
X67500000Y-68425000D01*
X67500000Y-67565686D01*
X67504394Y-67570080D01*
X67595606Y-67622741D01*
X67697339Y-67650000D01*
X67802661Y-67650000D01*
X67904394Y-67622741D01*
X67995606Y-67570080D01*
X68000000Y-67565686D01*
X68000000Y-68425000D01*
X68472828Y-68425000D01*
X68472844Y-68424999D01*
X68532372Y-68418598D01*
X68532379Y-68418596D01*
X68667086Y-68368354D01*
X68667093Y-68368350D01*
X68782187Y-68282190D01*
X68782190Y-68282187D01*
X68868350Y-68167093D01*
X68868354Y-68167086D01*
X68918596Y-68032379D01*
X68918598Y-68032372D01*
X68924999Y-67972844D01*
X68925000Y-67972827D01*
X68925000Y-67500000D01*
X68065686Y-67500000D01*
X68070080Y-67495606D01*
X68122741Y-67404394D01*
X68150000Y-67302661D01*
X68150000Y-67197339D01*
X68122741Y-67095606D01*
X68070080Y-67004394D01*
X68065686Y-67000000D01*
X68925000Y-67000000D01*
X68925000Y-66527172D01*
X68924999Y-66527155D01*
X68918598Y-66467627D01*
X68918596Y-66467620D01*
X68868354Y-66332913D01*
X68868350Y-66332906D01*
X68782190Y-66217812D01*
X68776059Y-66211681D01*
X68742574Y-66150358D01*
X68747558Y-66080666D01*
X68789430Y-66024733D01*
X68854894Y-66000316D01*
X68863740Y-66000000D01*
X71575500Y-66000000D01*
X71642539Y-66019685D01*
X71688294Y-66072489D01*
X71699500Y-66124000D01*
X71699500Y-68128711D01*
X71679815Y-68195750D01*
X71627011Y-68241505D01*
X71599692Y-68250328D01*
X71348426Y-68300309D01*
X71348424Y-68300309D01*
X71348422Y-68300310D01*
X71262783Y-68326288D01*
X71019293Y-68400150D01*
X70701535Y-68531770D01*
X70701530Y-68531772D01*
X70398224Y-68693893D01*
X70398206Y-68693904D01*
X70112248Y-68884975D01*
X70112234Y-68884985D01*
X69846367Y-69103177D01*
X69603177Y-69346367D01*
X69384985Y-69612234D01*
X69384975Y-69612248D01*
X69193904Y-69898206D01*
X69193893Y-69898224D01*
X69031772Y-70201530D01*
X69031770Y-70201535D01*
X68900150Y-70519293D01*
X68800308Y-70848427D01*
X68750329Y-71099691D01*
X68717944Y-71161602D01*
X68657228Y-71196177D01*
X68628712Y-71199500D01*
X63765422Y-71199500D01*
X63698383Y-71179815D01*
X63652628Y-71127011D01*
X63642684Y-71057853D01*
X63671709Y-70994297D01*
X63727104Y-70957569D01*
X63937410Y-70889235D01*
X64147771Y-70782051D01*
X64147777Y-70782047D01*
X64230712Y-70721791D01*
X64230713Y-70721791D01*
X63609096Y-70100174D01*
X63669498Y-70075155D01*
X63775959Y-70004021D01*
X63866496Y-69913484D01*
X63937630Y-69807023D01*
X63962649Y-69746621D01*
X64584266Y-70368238D01*
X64584266Y-70368237D01*
X64644522Y-70285302D01*
X64644526Y-70285296D01*
X64751710Y-70074935D01*
X64824673Y-69850380D01*
X64861608Y-69617185D01*
X64861608Y-69381080D01*
X64824673Y-69147885D01*
X64751710Y-68923330D01*
X64644522Y-68712961D01*
X64584266Y-68630027D01*
X64584266Y-68630026D01*
X63962649Y-69251644D01*
X63937630Y-69191243D01*
X63866496Y-69084782D01*
X63775959Y-68994245D01*
X63669498Y-68923111D01*
X63609095Y-68898091D01*
X64230712Y-68276473D01*
X64227752Y-68238868D01*
X64227752Y-68219408D01*
X64230712Y-68181790D01*
X63609096Y-67560174D01*
X63669498Y-67535155D01*
X63775959Y-67464021D01*
X63866496Y-67373484D01*
X63937630Y-67267023D01*
X63962649Y-67206621D01*
X64584266Y-67828238D01*
X64584266Y-67828237D01*
X64644522Y-67745302D01*
X64644526Y-67745296D01*
X64751710Y-67534935D01*
X64792201Y-67410320D01*
X64792201Y-67410319D01*
X64824673Y-67310378D01*
X64861608Y-67077185D01*
X64861608Y-66841080D01*
X64824673Y-66607885D01*
X64751710Y-66383330D01*
X64648259Y-66180295D01*
X64635363Y-66111626D01*
X64661639Y-66046885D01*
X64718746Y-66006628D01*
X64758744Y-66000000D01*
X66636260Y-66000000D01*
X66703299Y-66019685D01*
G37*
%TD.AperFunction*%
%TD*%
%TA.AperFunction,NonConductor*%
G36*
X51000000Y-54500000D02*
G01*
X56500000Y-54500000D01*
X56500000Y-66000000D01*
X61964472Y-66000000D01*
X62031511Y-66019685D01*
X62077266Y-66072489D01*
X62087210Y-66141647D01*
X62074957Y-66180295D01*
X61971505Y-66383330D01*
X61898542Y-66607885D01*
X61861608Y-66841080D01*
X61861608Y-67077185D01*
X61898542Y-67310380D01*
X61971505Y-67534935D01*
X62078695Y-67745307D01*
X62138946Y-67828237D01*
X62138948Y-67828238D01*
X62760566Y-67206620D01*
X62785586Y-67267023D01*
X62856720Y-67373484D01*
X62947257Y-67464021D01*
X63053718Y-67535155D01*
X63114119Y-67560174D01*
X62492501Y-68181791D01*
X62495462Y-68219409D01*
X62495462Y-68238866D01*
X62492502Y-68276473D01*
X63114120Y-68898091D01*
X63053718Y-68923111D01*
X62947257Y-68994245D01*
X62856720Y-69084782D01*
X62785586Y-69191243D01*
X62760566Y-69251645D01*
X62138948Y-68630027D01*
X62078692Y-68712963D01*
X61971505Y-68923330D01*
X61898542Y-69147885D01*
X61861608Y-69381080D01*
X61861608Y-69617185D01*
X61898542Y-69850380D01*
X61971505Y-70074935D01*
X62078695Y-70285307D01*
X62138946Y-70368237D01*
X62138948Y-70368238D01*
X62760566Y-69746620D01*
X62785586Y-69807023D01*
X62856720Y-69913484D01*
X62947257Y-70004021D01*
X63053718Y-70075155D01*
X63114119Y-70100174D01*
X62492501Y-70721791D01*
X62575436Y-70782047D01*
X62785805Y-70889235D01*
X62996112Y-70957569D01*
X63053788Y-70997007D01*
X63080986Y-71061365D01*
X63069071Y-71130212D01*
X63021827Y-71181687D01*
X62957794Y-71199500D01*
X46500000Y-71199500D01*
X46500000Y-54138541D01*
X46519685Y-54071502D01*
X46572489Y-54025747D01*
X46637692Y-54015299D01*
X51000000Y-54500000D01*
G37*
%TD.AperFunction*%
%TA.AperFunction,Conductor*%
%TO.N,P+*%
G36*
X45993123Y-32220185D02*
G01*
X46038878Y-32272989D01*
X46050022Y-32328392D01*
X46048794Y-32367466D01*
X46048794Y-32367467D01*
X46081206Y-33177781D01*
X46064216Y-33245554D01*
X46013283Y-33293383D01*
X45944577Y-33306082D01*
X45918988Y-33300668D01*
X45775149Y-33253933D01*
X45775150Y-33253933D01*
X45638141Y-33232233D01*
X45592473Y-33225000D01*
X45592472Y-33225000D01*
X45407528Y-33225000D01*
X45407527Y-33225000D01*
X45346635Y-33234644D01*
X45224850Y-33253933D01*
X45048962Y-33311081D01*
X44884162Y-33395051D01*
X44863568Y-33410014D01*
X44863567Y-33410015D01*
X45317055Y-33863501D01*
X45350540Y-33924824D01*
X45345556Y-33994515D01*
X45303685Y-34050449D01*
X45291374Y-34058569D01*
X45254397Y-34079917D01*
X45254392Y-34079921D01*
X45179921Y-34154392D01*
X45179915Y-34154400D01*
X45158568Y-34191374D01*
X45108001Y-34239589D01*
X45039393Y-34252811D01*
X44974529Y-34226843D01*
X44963501Y-34217054D01*
X44510015Y-33763567D01*
X44510014Y-33763568D01*
X44495051Y-33784162D01*
X44411081Y-33948962D01*
X44353933Y-34124850D01*
X44325000Y-34307526D01*
X44325000Y-34492472D01*
X44353933Y-34675148D01*
X44411081Y-34851036D01*
X44411082Y-34851039D01*
X44411083Y-34851040D01*
X44411084Y-34851043D01*
X44495050Y-35015834D01*
X44495052Y-35015836D01*
X44495052Y-35015838D01*
X44501552Y-35024783D01*
X44510015Y-35036430D01*
X44510016Y-35036431D01*
X44963503Y-34582943D01*
X45024824Y-34549460D01*
X45094515Y-34554444D01*
X45150449Y-34596315D01*
X45158569Y-34608626D01*
X45179917Y-34645602D01*
X45179919Y-34645604D01*
X45179920Y-34645606D01*
X45254394Y-34720080D01*
X45254395Y-34720081D01*
X45254397Y-34720082D01*
X45291373Y-34741430D01*
X45339588Y-34791996D01*
X45352812Y-34860603D01*
X45326844Y-34925468D01*
X45317054Y-34936498D01*
X44863568Y-35389982D01*
X44863567Y-35389983D01*
X44863568Y-35389983D01*
X44863568Y-35389984D01*
X44884165Y-35404949D01*
X45048956Y-35488915D01*
X45048959Y-35488916D01*
X45224852Y-35546066D01*
X45407527Y-35575000D01*
X45592472Y-35575000D01*
X45592473Y-35575000D01*
X45775147Y-35546066D01*
X45951040Y-35488916D01*
X45951043Y-35488915D01*
X46115836Y-35404947D01*
X46115845Y-35404942D01*
X46136430Y-35389984D01*
X46136431Y-35389983D01*
X45682945Y-34936497D01*
X45649460Y-34875174D01*
X45654444Y-34805482D01*
X45696316Y-34749549D01*
X45708609Y-34741439D01*
X45745606Y-34720080D01*
X45820080Y-34645606D01*
X45841430Y-34608625D01*
X45891994Y-34560411D01*
X45960601Y-34547186D01*
X46025466Y-34573153D01*
X46036498Y-34582944D01*
X46450574Y-34997020D01*
X46471723Y-35025271D01*
X46484331Y-35048360D01*
X46499500Y-35107789D01*
X46499500Y-42216388D01*
X46494476Y-42251325D01*
X46487064Y-42276566D01*
X46455769Y-42329310D01*
X45334006Y-43451073D01*
X45305755Y-43472222D01*
X45282667Y-43484830D01*
X45223237Y-43500000D01*
X43670142Y-43500000D01*
X43635201Y-43494975D01*
X43622776Y-43491326D01*
X43564000Y-43453549D01*
X43534978Y-43389992D01*
X43542819Y-43325720D01*
X43546304Y-43317133D01*
X43560880Y-43290883D01*
X43669591Y-43141254D01*
X43766066Y-42951914D01*
X43831728Y-42749827D01*
X43831728Y-42749824D01*
X43864971Y-42539943D01*
X43864971Y-42327450D01*
X43836981Y-42150732D01*
X43833255Y-42127208D01*
X43833254Y-42127202D01*
X43833254Y-42127203D01*
X43831727Y-42117562D01*
X43785190Y-41974338D01*
X43766066Y-41915479D01*
X43669595Y-41726146D01*
X43630241Y-41671979D01*
X43630240Y-41671979D01*
X43630239Y-41671979D01*
X43161276Y-42140942D01*
X43099953Y-42174427D01*
X43030261Y-42169443D01*
X42974328Y-42127571D01*
X42966208Y-42115261D01*
X42955083Y-42095992D01*
X42955079Y-42095987D01*
X42852678Y-41993586D01*
X42833404Y-41982459D01*
X42785188Y-41931892D01*
X42771964Y-41863285D01*
X42797932Y-41798420D01*
X42807715Y-41787397D01*
X43276687Y-41318425D01*
X43222521Y-41279072D01*
X43215160Y-41275321D01*
X43033185Y-41182599D01*
X42831101Y-41116939D01*
X42621222Y-41083697D01*
X42621217Y-41083697D01*
X42408725Y-41083697D01*
X42408720Y-41083697D01*
X42208484Y-41115412D01*
X42208476Y-41115412D01*
X42208477Y-41115413D01*
X42198836Y-41116939D01*
X41996755Y-41182600D01*
X41807409Y-41279077D01*
X41753253Y-41318424D01*
X41753253Y-41318425D01*
X42222218Y-41787390D01*
X42255703Y-41848713D01*
X42250719Y-41918405D01*
X42208847Y-41974338D01*
X42196539Y-41982457D01*
X42177266Y-41993584D01*
X42177261Y-41993588D01*
X42074862Y-42095987D01*
X42074858Y-42095992D01*
X42063731Y-42115265D01*
X42013163Y-42163480D01*
X41944555Y-42176701D01*
X41879691Y-42150732D01*
X41868664Y-42140944D01*
X41444728Y-41717008D01*
X41444723Y-41717003D01*
X41423575Y-41688753D01*
X41415487Y-41673942D01*
X41400491Y-41607952D01*
X41401212Y-41594342D01*
X41407331Y-41561900D01*
X41415349Y-41537708D01*
X41425500Y-41438345D01*
X41425499Y-41151605D01*
X41425499Y-40891662D01*
X41425498Y-40891644D01*
X41415349Y-40792292D01*
X41415348Y-40792289D01*
X41362003Y-40631303D01*
X41361999Y-40631297D01*
X41361998Y-40631294D01*
X41359909Y-40627907D01*
X41359908Y-40627904D01*
X41272980Y-40486974D01*
X41272975Y-40486967D01*
X41272970Y-40486959D01*
X41272967Y-40486955D01*
X41272964Y-40486952D01*
X41270354Y-40483942D01*
X41255196Y-40462120D01*
X41247656Y-40448311D01*
X41232804Y-40380051D01*
X41232933Y-40378242D01*
X41252299Y-40320047D01*
X41256492Y-40313523D01*
X41271405Y-40295020D01*
X41272962Y-40293049D01*
X41272968Y-40293044D01*
X41362003Y-40148697D01*
X41415349Y-39987708D01*
X41425500Y-39888345D01*
X41425499Y-39341656D01*
X41415349Y-39242292D01*
X41362003Y-39081303D01*
X41361854Y-39080998D01*
X41360861Y-39079450D01*
X41272980Y-38936974D01*
X41272975Y-38936967D01*
X41272970Y-38936959D01*
X41272967Y-38936955D01*
X41272964Y-38936952D01*
X41272962Y-38936949D01*
X41153044Y-38817031D01*
X41153040Y-38817028D01*
X41074076Y-38768322D01*
X41055999Y-38754752D01*
X41048385Y-38747866D01*
X41047129Y-38745818D01*
X41046972Y-38745700D01*
X41043543Y-38741887D01*
X41044301Y-38741204D01*
X41044100Y-38740877D01*
X41033055Y-38729123D01*
X41032952Y-38729202D01*
X41032499Y-38729610D01*
X41032465Y-38729573D01*
X41032145Y-38729818D01*
X41026076Y-38721866D01*
X41027914Y-38720462D01*
X41023856Y-38712006D01*
X41011413Y-38697632D01*
X41002712Y-38667948D01*
X41001853Y-38666157D01*
X41001486Y-38663763D01*
X41001254Y-38662144D01*
X41000000Y-38644555D01*
X41000000Y-37840571D01*
X41005020Y-37805646D01*
X41005064Y-37805493D01*
X41006978Y-37798977D01*
X41044746Y-37740198D01*
X41108300Y-37711168D01*
X41177459Y-37721105D01*
X41229295Y-37765368D01*
X41232568Y-37770303D01*
X41247161Y-37800522D01*
X41278901Y-37898211D01*
X41278903Y-37898216D01*
X41375374Y-38087548D01*
X41375375Y-38087550D01*
X41410674Y-38136137D01*
X41414728Y-38141716D01*
X41883694Y-37672750D01*
X41945016Y-37639266D01*
X42014708Y-37644250D01*
X42070641Y-37686122D01*
X42078759Y-37698429D01*
X42079669Y-37700004D01*
X42089888Y-37717706D01*
X42089890Y-37717708D01*
X42192292Y-37820110D01*
X42192293Y-37820111D01*
X42192295Y-37820112D01*
X42211563Y-37831236D01*
X42259780Y-37881802D01*
X42273004Y-37950409D01*
X42247037Y-38015274D01*
X42237246Y-38026305D01*
X41768282Y-38495268D01*
X41768282Y-38495269D01*
X41768282Y-38495270D01*
X41822449Y-38534624D01*
X42011782Y-38631095D01*
X42011784Y-38631096D01*
X42213866Y-38696756D01*
X42213867Y-38696756D01*
X42213870Y-38696757D01*
X42423754Y-38730000D01*
X42636245Y-38730000D01*
X42636246Y-38730000D01*
X42781369Y-38707014D01*
X42836487Y-38698284D01*
X42836493Y-38698283D01*
X42846127Y-38696757D01*
X42846130Y-38696757D01*
X43048217Y-38631095D01*
X43237554Y-38534622D01*
X43239976Y-38532862D01*
X43259121Y-38518953D01*
X43285858Y-38509412D01*
X43291717Y-38495269D01*
X42822752Y-38026306D01*
X42789267Y-37964983D01*
X42794251Y-37895292D01*
X42836122Y-37839358D01*
X42848429Y-37831240D01*
X42867708Y-37820110D01*
X42970110Y-37717708D01*
X42981237Y-37698434D01*
X43031802Y-37650219D01*
X43100409Y-37636994D01*
X43165274Y-37662961D01*
X43176306Y-37672752D01*
X43645269Y-38141717D01*
X43645269Y-38141716D01*
X43645270Y-38141717D01*
X43645270Y-38141716D01*
X43658738Y-38136137D01*
X43664955Y-38114967D01*
X43668954Y-38109118D01*
X43684621Y-38087555D01*
X43684625Y-38087548D01*
X43781095Y-37898217D01*
X43846757Y-37696130D01*
X43846757Y-37696127D01*
X43880000Y-37486246D01*
X43880000Y-37273753D01*
X43855763Y-37120731D01*
X43848284Y-37073511D01*
X43848283Y-37073505D01*
X43848283Y-37073506D01*
X43846756Y-37063865D01*
X43820389Y-36982718D01*
X43781095Y-36861782D01*
X43684624Y-36672449D01*
X43645270Y-36618282D01*
X43645269Y-36618282D01*
X43645268Y-36618282D01*
X43176305Y-37087246D01*
X43114982Y-37120731D01*
X43045290Y-37115747D01*
X42989357Y-37073875D01*
X42981236Y-37061563D01*
X42970112Y-37042295D01*
X42970108Y-37042290D01*
X42867707Y-36939889D01*
X42848433Y-36928762D01*
X42800217Y-36878195D01*
X42786993Y-36809588D01*
X42812961Y-36744723D01*
X42822744Y-36733700D01*
X43291716Y-36264728D01*
X43237550Y-36225375D01*
X43230189Y-36221624D01*
X43048214Y-36128902D01*
X42846130Y-36063242D01*
X42636251Y-36030000D01*
X42636246Y-36030000D01*
X42423754Y-36030000D01*
X42423749Y-36030000D01*
X42223513Y-36061715D01*
X42223505Y-36061715D01*
X42223506Y-36061716D01*
X42213865Y-36063242D01*
X42011784Y-36128903D01*
X41822438Y-36225380D01*
X41768282Y-36264727D01*
X41768282Y-36264728D01*
X42237247Y-36733693D01*
X42270732Y-36795016D01*
X42265748Y-36864708D01*
X42223876Y-36920641D01*
X42211568Y-36928760D01*
X42192295Y-36939887D01*
X42192290Y-36939891D01*
X42089891Y-37042290D01*
X42089887Y-37042295D01*
X42078760Y-37061568D01*
X42028192Y-37109783D01*
X41959584Y-37123004D01*
X41894720Y-37097035D01*
X41883693Y-37087247D01*
X41414728Y-36618282D01*
X41414727Y-36618282D01*
X41375380Y-36672438D01*
X41278904Y-36861782D01*
X41247439Y-36958621D01*
X41239776Y-36969826D01*
X41231865Y-36990295D01*
X41227944Y-36996029D01*
X41214143Y-37007313D01*
X41208001Y-37016296D01*
X41197975Y-37020532D01*
X41173854Y-37040256D01*
X41104439Y-37048219D01*
X41041739Y-37017390D01*
X41020495Y-36982718D01*
X41011459Y-36972393D01*
X41010590Y-36966552D01*
X41006120Y-36959257D01*
X41004533Y-36953550D01*
X41000000Y-36920329D01*
X41000000Y-32342329D01*
X41005023Y-32307393D01*
X41009427Y-32292395D01*
X41047172Y-32233644D01*
X41048541Y-32232457D01*
X41103420Y-32204977D01*
X41110979Y-32203333D01*
X41137332Y-32200500D01*
X45926084Y-32200500D01*
X45993123Y-32220185D01*
G37*
%TD.AperFunction*%
%TD*%
M02*
