%TF.GenerationSoftware,KiCad,Pcbnew,10.0.3*%
%TF.CreationDate,2026-06-04T13:32:58+09:00*%
%TF.ProjectId,power-IP2326-MP1584-FPC,706f7765-722d-4495-9032-3332362d4d50,rev?*%
%TF.SameCoordinates,Original*%
%TF.FileFunction,Soldermask,Top*%
%TF.FilePolarity,Negative*%
%FSLAX46Y46*%
G04 Gerber Fmt 4.6, Leading zero omitted, Abs format (unit mm)*
G04 Created by KiCad (PCBNEW 10.0.3) date 2026-06-04 13:32:58*
%MOMM*%
%LPD*%
G01*
G04 APERTURE LIST*
G04 Aperture macros list*
%AMRoundRect*
0 Rectangle with rounded corners*
0 $1 Rounding radius*
0 $2 $3 $4 $5 $6 $7 $8 $9 X,Y pos of 4 corners*
0 Add a 4 corners polygon primitive as box body*
4,1,4,$2,$3,$4,$5,$6,$7,$8,$9,$2,$3,0*
0 Add four circle primitives for the rounded corners*
1,1,$1+$1,$2,$3*
1,1,$1+$1,$4,$5*
1,1,$1+$1,$6,$7*
1,1,$1+$1,$8,$9*
0 Add four rect primitives between the rounded corners*
20,1,$1+$1,$2,$3,$4,$5,0*
20,1,$1+$1,$4,$5,$6,$7,0*
20,1,$1+$1,$6,$7,$8,$9,0*
20,1,$1+$1,$8,$9,$2,$3,0*%
G04 Aperture macros list end*
%ADD10RoundRect,0.225000X0.250000X-0.225000X0.250000X0.225000X-0.250000X0.225000X-0.250000X-0.225000X0*%
%ADD11RoundRect,0.200000X-0.275000X0.200000X-0.275000X-0.200000X0.275000X-0.200000X0.275000X0.200000X0*%
%ADD12RoundRect,0.250000X-0.475000X0.250000X-0.475000X-0.250000X0.475000X-0.250000X0.475000X0.250000X0*%
%ADD13RoundRect,0.250000X-0.250000X-0.475000X0.250000X-0.475000X0.250000X0.475000X-0.250000X0.475000X0*%
%ADD14RoundRect,0.225000X-0.250000X0.225000X-0.250000X-0.225000X0.250000X-0.225000X0.250000X0.225000X0*%
%ADD15RoundRect,0.250000X0.475000X-0.250000X0.475000X0.250000X-0.475000X0.250000X-0.475000X-0.250000X0*%
%ADD16RoundRect,0.250000X-0.420000X-0.945000X0.420000X-0.945000X0.420000X0.945000X-0.420000X0.945000X0*%
%ADD17RoundRect,0.250000X1.300000X0.850000X-1.300000X0.850000X-1.300000X-0.850000X1.300000X-0.850000X0*%
%ADD18RoundRect,0.250000X0.500000X0.510000X-0.500000X0.510000X-0.500000X-0.510000X0.500000X-0.510000X0*%
%ADD19C,2.000000*%
%ADD20RoundRect,0.162500X0.482500X0.162499X-0.482500X0.162499X-0.482500X-0.162499X0.482500X-0.162499X0*%
%ADD21RoundRect,0.165040X0.477350X0.165039X-0.477350X0.165039X-0.477350X-0.165039X0.477350X-0.165039X0*%
%ADD22RoundRect,0.162500X0.482500X0.162500X-0.482500X0.162500X-0.482500X-0.162500X0.482500X-0.162500X0*%
%ADD23RoundRect,0.171999X0.472778X0.171999X-0.472778X0.171999X-0.472778X-0.171999X0.472778X-0.171999X0*%
%ADD24R,1.350000X1.350000*%
%ADD25C,1.350000*%
%ADD26R,1.700000X1.700000*%
%ADD27C,1.700000*%
%ADD28RoundRect,0.225000X-0.225000X-0.250000X0.225000X-0.250000X0.225000X0.250000X-0.225000X0.250000X0*%
%ADD29RoundRect,0.150000X-0.587500X-0.150000X0.587500X-0.150000X0.587500X0.150000X-0.587500X0.150000X0*%
G04 APERTURE END LIST*
D10*
%TO.C,C8*%
X40450000Y-41165000D03*
X40450000Y-39615000D03*
%TD*%
D11*
%TO.C,R4*%
X33850000Y-39565000D03*
X33850000Y-41215000D03*
%TD*%
D12*
%TO.C,C3*%
X69000000Y-56300000D03*
X69000000Y-58200000D03*
%TD*%
D13*
%TO.C,C5*%
X39550000Y-61200000D03*
X41450000Y-61200000D03*
%TD*%
D14*
%TO.C,C2*%
X67000000Y-56475000D03*
X67000000Y-58025000D03*
%TD*%
D15*
%TO.C,C6*%
X36500000Y-61400000D03*
X36500000Y-59500000D03*
%TD*%
D16*
%TO.C,C1*%
X66960000Y-60750000D03*
X70040000Y-60750000D03*
%TD*%
D17*
%TO.C,D1*%
X64020000Y-34400000D03*
D18*
X60800000Y-34400000D03*
%TD*%
D19*
%TO.C,U3*%
X63361608Y-69499133D03*
X63361608Y-66959133D03*
X63361608Y-58831133D03*
X63361608Y-56291133D03*
X44819608Y-58831133D03*
X44819608Y-56291133D03*
X44819608Y-69499133D03*
X44819608Y-66959133D03*
%TD*%
D20*
%TO.C,U1*%
X38505000Y-41089999D03*
D21*
X38502390Y-40134921D03*
D22*
X38505000Y-39190000D03*
X35795000Y-39190000D03*
D23*
X35795223Y-40121002D03*
D22*
X35795000Y-41090000D03*
%TD*%
D24*
%TO.C,J14*%
X58000000Y-34400000D03*
D25*
X56000000Y-34400000D03*
%TD*%
D16*
%TO.C,C7*%
X38710000Y-64200000D03*
X41790000Y-64200000D03*
%TD*%
D26*
%TO.C,J8*%
X74740000Y-45350000D03*
D27*
X74740000Y-47890000D03*
X74740000Y-50430000D03*
X74740000Y-52970000D03*
X74740000Y-55510000D03*
D26*
X74740000Y-58050000D03*
%TD*%
D28*
%TO.C,C4*%
X39700000Y-59250000D03*
X41250000Y-59250000D03*
%TD*%
D29*
%TO.C,Q2*%
X35325000Y-43450000D03*
X35325000Y-45350000D03*
X37200000Y-44400000D03*
%TD*%
D11*
%TO.C,R5*%
X39800000Y-43550000D03*
X39800000Y-45200000D03*
%TD*%
D26*
%TO.C,J7*%
X29660000Y-45350000D03*
D27*
X29660000Y-47890000D03*
X29660000Y-50430000D03*
X29660000Y-52970000D03*
X29660000Y-55510000D03*
D26*
X29660000Y-58050000D03*
%TD*%
D27*
%TO.C,U2*%
X42514971Y-42433697D03*
X42530000Y-37380000D03*
X42514971Y-44932365D03*
X42514971Y-47502422D03*
X42514971Y-52571148D03*
X70357267Y-52785320D03*
X70372296Y-37594172D03*
%TD*%
D24*
%TO.C,J1*%
X49500000Y-34400000D03*
D25*
X47500000Y-34400000D03*
X45500000Y-34400000D03*
%TD*%
D24*
%TO.C,J4*%
X34000000Y-65450000D03*
D25*
X34000000Y-63450000D03*
%TD*%
D24*
%TO.C,J9*%
X36000000Y-52200000D03*
D25*
X36000000Y-50200000D03*
%TD*%
D24*
%TO.C,J3*%
X67750000Y-67250000D03*
D25*
X67750000Y-65250000D03*
%TD*%
M02*
