%TF.GenerationSoftware,KiCad,Pcbnew,10.0.3*%
%TF.CreationDate,2026-06-04T13:32:58+09:00*%
%TF.ProjectId,power-IP2326-MP1584-FPC,706f7765-722d-4495-9032-3332362d4d50,rev?*%
%TF.SameCoordinates,Original*%
%TF.FileFunction,Copper,L2,Bot*%
%TF.FilePolarity,Positive*%
%FSLAX46Y46*%
G04 Gerber Fmt 4.6, Leading zero omitted, Abs format (unit mm)*
G04 Created by KiCad (PCBNEW 10.0.3) date 2026-06-04 13:32:58*
%MOMM*%
%LPD*%
G01*
G04 APERTURE LIST*
G04 Aperture macros list*
%AMRoundRect*
0 Rectangle with rounded corners*
0 $1 Rounding radius*
0 $2 $3 $4 $5 $6 $7 $8 $9 X,Y pos of 4 corners*
0 Add a 4 corners polygon primitive as box body*
4,1,4,$2,$3,$4,$5,$6,$7,$8,$9,$2,$3,0*
0 Add four circle primitives for the rounded corners*
1,1,$1+$1,$2,$3*
1,1,$1+$1,$4,$5*
1,1,$1+$1,$6,$7*
1,1,$1+$1,$8,$9*
0 Add four rect primitives between the rounded corners*
20,1,$1+$1,$2,$3,$4,$5,0*
20,1,$1+$1,$4,$5,$6,$7,0*
20,1,$1+$1,$6,$7,$8,$9,0*
20,1,$1+$1,$8,$9,$2,$3,0*%
G04 Aperture macros list end*
%TA.AperFunction,ComponentPad*%
%ADD10C,2.000000*%
%TD*%
%TA.AperFunction,ComponentPad*%
%ADD11R,1.350000X1.350000*%
%TD*%
%TA.AperFunction,ComponentPad*%
%ADD12C,1.350000*%
%TD*%
%TA.AperFunction,ComponentPad*%
%ADD13R,1.700000X1.700000*%
%TD*%
%TA.AperFunction,ComponentPad*%
%ADD14C,1.700000*%
%TD*%
%TA.AperFunction,SMDPad,CuDef*%
%ADD15RoundRect,0.218750X-0.218750X-0.256250X0.218750X-0.256250X0.218750X0.256250X-0.218750X0.256250X0*%
%TD*%
%TA.AperFunction,ViaPad*%
%ADD16C,1.000000*%
%TD*%
%TA.AperFunction,ViaPad*%
%ADD17C,0.600000*%
%TD*%
%TA.AperFunction,Conductor*%
%ADD18C,0.250000*%
%TD*%
%TA.AperFunction,Conductor*%
%ADD19C,1.000000*%
%TD*%
%TA.AperFunction,Conductor*%
%ADD20C,0.800000*%
%TD*%
%TA.AperFunction,Conductor*%
%ADD21C,0.500000*%
%TD*%
G04 APERTURE END LIST*
D10*
%TO.P,U3,1,IN-_1*%
%TO.N,PGND*%
X63361608Y-69499133D03*
X63361608Y-66959133D03*
%TO.P,U3,2,IN+_2*%
%TO.N,VIN*%
X63361608Y-58831133D03*
X63361608Y-56291133D03*
%TO.P,U3,3,OUT+_3*%
%TO.N,VOUT*%
X44819608Y-58831133D03*
X44819608Y-56291133D03*
%TO.P,U3,4,OUT-_4*%
%TO.N,PGND*%
X44819608Y-69499133D03*
X44819608Y-66959133D03*
%TD*%
D11*
%TO.P,J14,1,Pin_1_1*%
%TO.N,PGND*%
X58000000Y-34400000D03*
D12*
%TO.P,J14,2,Pin_2_2*%
%TO.N,POWER*%
X56000000Y-34400000D03*
%TD*%
D13*
%TO.P,J8,1,Pin_1_1*%
%TO.N,PGND*%
X74740000Y-45350000D03*
D14*
%TO.P,J8,2,Pin_2_2*%
%TO.N,CHARGE*%
X74740000Y-47890000D03*
%TO.P,J8,3,Pin_3_3*%
X74740000Y-50430000D03*
%TO.P,J8,4,Pin_4_4*%
%TO.N,VIN*%
X74740000Y-52970000D03*
%TO.P,J8,5,Pin_5_5*%
X74740000Y-55510000D03*
D13*
%TO.P,J8,6,Pin_6_6*%
%TO.N,PGND*%
X74740000Y-58050000D03*
%TD*%
%TO.P,J7,1,Pin_1_1*%
%TO.N,PGND*%
X29660000Y-45350000D03*
D14*
%TO.P,J7,2,Pin_2_2*%
%TO.N,VOUT_SWITCHED*%
X29660000Y-47890000D03*
%TO.P,J7,3,Pin_3_3*%
X29660000Y-50430000D03*
%TO.P,J7,4,Pin_4_4*%
%TO.N,VOUT*%
X29660000Y-52970000D03*
%TO.P,J7,5,Pin_5_5*%
X29660000Y-55510000D03*
D13*
%TO.P,J7,6,Pin_6_6*%
%TO.N,PGND*%
X29660000Y-58050000D03*
%TD*%
D14*
%TO.P,U2,1,B+_1*%
%TO.N,P+*%
X42514971Y-42433697D03*
X42530000Y-37380000D03*
%TO.P,U2,2,BM_2*%
%TO.N,BM*%
X42514971Y-44932365D03*
%TO.P,U2,3,B-_3*%
%TO.N,P-*%
X42514971Y-47502422D03*
X42514971Y-52571148D03*
%TO.P,U2,4,VIN_4*%
%TO.N,CHARGE*%
X70357267Y-52785320D03*
%TO.P,U2,5,GND_5*%
%TO.N,PGND*%
X70372296Y-37594172D03*
%TD*%
D15*
%TO.P,FB1,1*%
%TO.N,P+*%
X55712500Y-54000000D03*
%TO.P,FB1,2*%
%TO.N,VIN*%
X57287500Y-54000000D03*
%TD*%
D11*
%TO.P,J1,1,Pin_1_1*%
%TO.N,P-*%
X49500000Y-34400000D03*
D12*
%TO.P,J1,2,Pin_2_2*%
%TO.N,BM*%
X47500000Y-34400000D03*
%TO.P,J1,3,Pin_3_3*%
%TO.N,P+*%
X45500000Y-34400000D03*
%TD*%
D11*
%TO.P,J4,1,Pin_1_1*%
%TO.N,PGND*%
X34000000Y-65450000D03*
D12*
%TO.P,J4,2,Pin_2_2*%
%TO.N,VOUT*%
X34000000Y-63450000D03*
%TD*%
D11*
%TO.P,J9,1,Pin_1_1*%
%TO.N,PGND*%
X36000000Y-52200000D03*
D12*
%TO.P,J9,2,Pin_2_2*%
%TO.N,VOUT_SWITCHED*%
X36000000Y-50200000D03*
%TD*%
D11*
%TO.P,J3,1,Pin_1_1*%
%TO.N,PGND*%
X67750000Y-67250000D03*
D12*
%TO.P,J3,2,Pin_2_2*%
%TO.N,VIN*%
X67750000Y-65250000D03*
%TD*%
D16*
%TO.N,POWER*%
X38800000Y-42400000D03*
D17*
%TO.N,PGND*%
X38502390Y-38000000D03*
X39800000Y-46600000D03*
%TD*%
%TO.N,POWER*%
D18*
X38800000Y-42400000D02*
X41000000Y-40200000D01*
X55600000Y-32800000D02*
X56000000Y-33200000D01*
X41836396Y-32800000D02*
X55600000Y-32800000D01*
X56000000Y-33200000D02*
X56000000Y-34400000D01*
X41000000Y-40200000D02*
X41000000Y-33636396D01*
X41000000Y-33636396D02*
X41836396Y-32800000D01*
%TO.N,PGND*%
D19*
X34000000Y-52200000D02*
X32500000Y-50700000D01*
D20*
X36000000Y-59150000D02*
X35275000Y-59875000D01*
D18*
X38502390Y-35497610D02*
X41675000Y-32325000D01*
X41675000Y-32325000D02*
X55925000Y-32325000D01*
D21*
X39800000Y-50800000D02*
X38400000Y-52200000D01*
D19*
X63652475Y-67250000D02*
X63361608Y-66959133D01*
D20*
X29660000Y-58050000D02*
X33450000Y-58050000D01*
X69178124Y-36400000D02*
X70372296Y-37594172D01*
D19*
X32500000Y-46000000D02*
X31850000Y-45350000D01*
D20*
X58000000Y-34400000D02*
X60000000Y-36400000D01*
X63361608Y-66959133D02*
X63361608Y-69499133D01*
D18*
X38502390Y-38000000D02*
X38502390Y-35497610D01*
D20*
X63361608Y-69499133D02*
X44819608Y-69499133D01*
X44819608Y-66959133D02*
X44819608Y-69499133D01*
D18*
X55925000Y-32325000D02*
X58000000Y-34400000D01*
D20*
X44819608Y-66959133D02*
X35509133Y-66959133D01*
X36000000Y-52200000D02*
X36000000Y-59150000D01*
D19*
X32500000Y-50700000D02*
X32500000Y-46000000D01*
D20*
X35275000Y-64175000D02*
X34000000Y-65450000D01*
X35509133Y-66959133D02*
X34000000Y-65450000D01*
D21*
X38400000Y-52200000D02*
X36000000Y-52200000D01*
D19*
X31850000Y-45350000D02*
X29660000Y-45350000D01*
D21*
X39800000Y-46600000D02*
X39800000Y-50800000D01*
D19*
X36000000Y-52200000D02*
X34000000Y-52200000D01*
D20*
X35275000Y-59875000D02*
X35275000Y-64175000D01*
X60000000Y-36400000D02*
X69178124Y-36400000D01*
D19*
X67750000Y-67250000D02*
X63652475Y-67250000D01*
D20*
X33450000Y-58050000D02*
X35275000Y-59875000D01*
%TO.N,VIN*%
D19*
X63361608Y-56291133D02*
X61070475Y-54000000D01*
X63361608Y-58831133D02*
X63361608Y-62961608D01*
X63361608Y-62961608D02*
X65650000Y-65250000D01*
X61070475Y-54000000D02*
X57287500Y-54000000D01*
X65650000Y-65250000D02*
X67750000Y-65250000D01*
%TO.N,P+*%
X54081274Y-54000000D02*
X55712500Y-54000000D01*
X42514971Y-42433697D02*
X54081274Y-54000000D01*
%TD*%
%TA.AperFunction,Conductor*%
%TO.N,PGND*%
G36*
X41318981Y-32220185D02*
G01*
X41364736Y-32272989D01*
X41374680Y-32342147D01*
X41345655Y-32405703D01*
X41339623Y-32412181D01*
X40950538Y-32801267D01*
X40601269Y-33150536D01*
X40601267Y-33150538D01*
X40557704Y-33194100D01*
X40514142Y-33237662D01*
X40503595Y-33253447D01*
X40445686Y-33340113D01*
X40445685Y-33340114D01*
X40412347Y-33420603D01*
X40409145Y-33428334D01*
X40398537Y-33453941D01*
X40398535Y-33453949D01*
X40374500Y-33574785D01*
X40374500Y-39889547D01*
X40354815Y-39956586D01*
X40338181Y-39977228D01*
X38952228Y-41363181D01*
X38890905Y-41396666D01*
X38864547Y-41399500D01*
X38701457Y-41399500D01*
X38508170Y-41437947D01*
X38508160Y-41437950D01*
X38326092Y-41513364D01*
X38326079Y-41513371D01*
X38162218Y-41622860D01*
X38162214Y-41622863D01*
X38022863Y-41762214D01*
X38022860Y-41762218D01*
X37913371Y-41926079D01*
X37913364Y-41926092D01*
X37837950Y-42108160D01*
X37837947Y-42108170D01*
X37799500Y-42301456D01*
X37799500Y-42301459D01*
X37799500Y-42498541D01*
X37799500Y-42498543D01*
X37799499Y-42498543D01*
X37837947Y-42691829D01*
X37837950Y-42691839D01*
X37913364Y-42873907D01*
X37913371Y-42873920D01*
X38022860Y-43037781D01*
X38022863Y-43037785D01*
X38162214Y-43177136D01*
X38162218Y-43177139D01*
X38326079Y-43286628D01*
X38326092Y-43286635D01*
X38508160Y-43362049D01*
X38508165Y-43362051D01*
X38508169Y-43362051D01*
X38508170Y-43362052D01*
X38701456Y-43400500D01*
X38701459Y-43400500D01*
X38898543Y-43400500D01*
X39028582Y-43374632D01*
X39091835Y-43362051D01*
X39273914Y-43286632D01*
X39437782Y-43177139D01*
X39577139Y-43037782D01*
X39686632Y-42873914D01*
X39762051Y-42691835D01*
X39787103Y-42565890D01*
X39800500Y-42498543D01*
X39800500Y-42335451D01*
X39802861Y-42327410D01*
X41164471Y-42327410D01*
X41164471Y-42539984D01*
X41174505Y-42603341D01*
X41188522Y-42691839D01*
X41197725Y-42749940D01*
X41246644Y-42900497D01*
X41263415Y-42952111D01*
X41359922Y-43141517D01*
X41484861Y-43313483D01*
X41635180Y-43463802D01*
X41635185Y-43463806D01*
X41798847Y-43582713D01*
X41841513Y-43638042D01*
X41847492Y-43707656D01*
X41814887Y-43769451D01*
X41798847Y-43783349D01*
X41635185Y-43902255D01*
X41635180Y-43902259D01*
X41484861Y-44052578D01*
X41359922Y-44224544D01*
X41263415Y-44413950D01*
X41197724Y-44616125D01*
X41164471Y-44826078D01*
X41164471Y-45038652D01*
X41197725Y-45248608D01*
X41221222Y-45320925D01*
X41263415Y-45450779D01*
X41359922Y-45640185D01*
X41484861Y-45812151D01*
X41635184Y-45962474D01*
X41807153Y-46087415D01*
X41845410Y-46106908D01*
X41896207Y-46154882D01*
X41913002Y-46222703D01*
X41890465Y-46288838D01*
X41845412Y-46327877D01*
X41807153Y-46347371D01*
X41635184Y-46472312D01*
X41484861Y-46622635D01*
X41359922Y-46794601D01*
X41263415Y-46984007D01*
X41197724Y-47186182D01*
X41168359Y-47371588D01*
X41164471Y-47396135D01*
X41164471Y-47608709D01*
X41197725Y-47818665D01*
X41255438Y-47996287D01*
X41263415Y-48020836D01*
X41359922Y-48210242D01*
X41484861Y-48382208D01*
X41635184Y-48532531D01*
X41807150Y-48657470D01*
X41807152Y-48657471D01*
X41807155Y-48657473D01*
X41996559Y-48753979D01*
X42198728Y-48819668D01*
X42408684Y-48852922D01*
X42408685Y-48852922D01*
X42621257Y-48852922D01*
X42621258Y-48852922D01*
X42831214Y-48819668D01*
X43033383Y-48753979D01*
X43222787Y-48657473D01*
X43244760Y-48641508D01*
X43394757Y-48532531D01*
X43394759Y-48532528D01*
X43394763Y-48532526D01*
X43545075Y-48382214D01*
X43545077Y-48382210D01*
X43545080Y-48382208D01*
X43670019Y-48210242D01*
X43670018Y-48210242D01*
X43670022Y-48210238D01*
X43766528Y-48020834D01*
X43832217Y-47818665D01*
X43865471Y-47608709D01*
X43865471Y-47396135D01*
X43832217Y-47186179D01*
X43766528Y-46984010D01*
X43670022Y-46794606D01*
X43670020Y-46794603D01*
X43670019Y-46794601D01*
X43545080Y-46622635D01*
X43394757Y-46472312D01*
X43222790Y-46347373D01*
X43222789Y-46347372D01*
X43222787Y-46347371D01*
X43184530Y-46327878D01*
X43133734Y-46279903D01*
X43116939Y-46212082D01*
X43139477Y-46145947D01*
X43184529Y-46106909D01*
X43222787Y-46087416D01*
X43244760Y-46071451D01*
X43394757Y-45962474D01*
X43394759Y-45962471D01*
X43394763Y-45962469D01*
X43545075Y-45812157D01*
X43545077Y-45812153D01*
X43545080Y-45812151D01*
X43670019Y-45640185D01*
X43670018Y-45640185D01*
X43670022Y-45640181D01*
X43766528Y-45450777D01*
X43789980Y-45378597D01*
X43829416Y-45320925D01*
X43893774Y-45293726D01*
X43962621Y-45305640D01*
X43995591Y-45329237D01*
X53443489Y-54777137D01*
X53443493Y-54777140D01*
X53607353Y-54886628D01*
X53607359Y-54886631D01*
X53607360Y-54886632D01*
X53789439Y-54962052D01*
X53937926Y-54991588D01*
X53982729Y-55000500D01*
X53982732Y-55000501D01*
X53982734Y-55000501D01*
X54185929Y-55000501D01*
X54185949Y-55000500D01*
X55811043Y-55000500D01*
X55887051Y-54985380D01*
X55924743Y-54977882D01*
X55948934Y-54975500D01*
X55979169Y-54975500D01*
X55979174Y-54975500D01*
X56077685Y-54965436D01*
X56237287Y-54912549D01*
X56380391Y-54824281D01*
X56412319Y-54792353D01*
X56473642Y-54758868D01*
X56543334Y-54763852D01*
X56587681Y-54792353D01*
X56619608Y-54824280D01*
X56619612Y-54824283D01*
X56762704Y-54912544D01*
X56762707Y-54912545D01*
X56762713Y-54912549D01*
X56922315Y-54965436D01*
X57020826Y-54975500D01*
X57051066Y-54975500D01*
X57075256Y-54977882D01*
X57103506Y-54983502D01*
X57188956Y-55000500D01*
X57188959Y-55000500D01*
X60604693Y-55000500D01*
X60671732Y-55020185D01*
X60692374Y-55036819D01*
X61824789Y-56169234D01*
X61858274Y-56230557D01*
X61861108Y-56256915D01*
X61861108Y-56409230D01*
X61898054Y-56642501D01*
X61971041Y-56867129D01*
X62078265Y-57077566D01*
X62217091Y-57268643D01*
X62384098Y-57435650D01*
X62418735Y-57460816D01*
X62461400Y-57516146D01*
X62467379Y-57585759D01*
X62434773Y-57647554D01*
X62418738Y-57661448D01*
X62400973Y-57674355D01*
X62384096Y-57686617D01*
X62217093Y-57853620D01*
X62217093Y-57853621D01*
X62217091Y-57853623D01*
X62157470Y-57935683D01*
X62078265Y-58044699D01*
X61971041Y-58255136D01*
X61898054Y-58479764D01*
X61861108Y-58713035D01*
X61861108Y-58949230D01*
X61898054Y-59182501D01*
X61971041Y-59407129D01*
X62078265Y-59617566D01*
X62217091Y-59808643D01*
X62217093Y-59808645D01*
X62324789Y-59916341D01*
X62358274Y-59977664D01*
X62361108Y-60004022D01*
X62361108Y-63060149D01*
X62361108Y-63060151D01*
X62361107Y-63060151D01*
X62399555Y-63253437D01*
X62399558Y-63253447D01*
X62474972Y-63435515D01*
X62474979Y-63435528D01*
X62584468Y-63599389D01*
X62584471Y-63599393D01*
X62728145Y-63743067D01*
X62728167Y-63743087D01*
X64869735Y-65884655D01*
X64869764Y-65884686D01*
X65012214Y-66027136D01*
X65012218Y-66027139D01*
X65176079Y-66136628D01*
X65176092Y-66136635D01*
X65304833Y-66189961D01*
X65347744Y-66207735D01*
X65358164Y-66212051D01*
X65454812Y-66231275D01*
X65503135Y-66240887D01*
X65551458Y-66250500D01*
X65551459Y-66250500D01*
X65551460Y-66250500D01*
X65748540Y-66250500D01*
X66483791Y-66250500D01*
X66550830Y-66270185D01*
X66596585Y-66322989D01*
X66606529Y-66392147D01*
X66599973Y-66417834D01*
X66581402Y-66467623D01*
X66581401Y-66467627D01*
X66575000Y-66527155D01*
X66575000Y-67000000D01*
X67434314Y-67000000D01*
X67429920Y-67004394D01*
X67377259Y-67095606D01*
X67350000Y-67197339D01*
X67350000Y-67302661D01*
X67377259Y-67404394D01*
X67429920Y-67495606D01*
X67434314Y-67500000D01*
X66575000Y-67500000D01*
X66575000Y-67972844D01*
X66581401Y-68032372D01*
X66581403Y-68032379D01*
X66631645Y-68167086D01*
X66631649Y-68167093D01*
X66717809Y-68282187D01*
X66717812Y-68282190D01*
X66832906Y-68368350D01*
X66832913Y-68368354D01*
X66967620Y-68418596D01*
X66967627Y-68418598D01*
X67027155Y-68424999D01*
X67027172Y-68425000D01*
X67500000Y-68425000D01*
X67500000Y-67565686D01*
X67504394Y-67570080D01*
X67595606Y-67622741D01*
X67697339Y-67650000D01*
X67802661Y-67650000D01*
X67904394Y-67622741D01*
X67995606Y-67570080D01*
X68000000Y-67565686D01*
X68000000Y-68425000D01*
X68472828Y-68425000D01*
X68472844Y-68424999D01*
X68532372Y-68418598D01*
X68532379Y-68418596D01*
X68667086Y-68368354D01*
X68667093Y-68368350D01*
X68782187Y-68282190D01*
X68782190Y-68282187D01*
X68868350Y-68167093D01*
X68868354Y-68167086D01*
X68918596Y-68032379D01*
X68918598Y-68032372D01*
X68924999Y-67972844D01*
X68925000Y-67972827D01*
X68925000Y-67500000D01*
X68065686Y-67500000D01*
X68070080Y-67495606D01*
X68122741Y-67404394D01*
X68150000Y-67302661D01*
X68150000Y-67197339D01*
X68122741Y-67095606D01*
X68070080Y-67004394D01*
X68065686Y-67000000D01*
X68925000Y-67000000D01*
X68925000Y-66527172D01*
X68924999Y-66527155D01*
X68918598Y-66467627D01*
X68918596Y-66467620D01*
X68868354Y-66332913D01*
X68868350Y-66332906D01*
X68782190Y-66217812D01*
X68697166Y-66154162D01*
X68655296Y-66098228D01*
X68650312Y-66028536D01*
X68671157Y-65982015D01*
X68755378Y-65866096D01*
X68839379Y-65701235D01*
X68896555Y-65525264D01*
X68925500Y-65342514D01*
X68925500Y-65157486D01*
X68896555Y-64974736D01*
X68839379Y-64798765D01*
X68839379Y-64798764D01*
X68796577Y-64714763D01*
X68755378Y-64633904D01*
X68646621Y-64484213D01*
X68515787Y-64353379D01*
X68366096Y-64244622D01*
X68337036Y-64229815D01*
X68201235Y-64160620D01*
X68201232Y-64160619D01*
X68025265Y-64103445D01*
X67933889Y-64088972D01*
X67842514Y-64074500D01*
X67657486Y-64074500D01*
X67596569Y-64084148D01*
X67474734Y-64103445D01*
X67298767Y-64160619D01*
X67298764Y-64160620D01*
X67150855Y-64235985D01*
X67094560Y-64249500D01*
X66115782Y-64249500D01*
X66048743Y-64229815D01*
X66028101Y-64213181D01*
X64398427Y-62583507D01*
X64364942Y-62522184D01*
X64362108Y-62495826D01*
X64362108Y-60004022D01*
X64381793Y-59936983D01*
X64398427Y-59916341D01*
X64506125Y-59808643D01*
X64644951Y-59617566D01*
X64752176Y-59407125D01*
X64825161Y-59182501D01*
X64862108Y-58949230D01*
X64862108Y-58713035D01*
X64825161Y-58479764D01*
X64752174Y-58255136D01*
X64644950Y-58044699D01*
X64506125Y-57853623D01*
X64339118Y-57686616D01*
X64304480Y-57661450D01*
X64261815Y-57606122D01*
X64255836Y-57536508D01*
X64288441Y-57474713D01*
X64304481Y-57460815D01*
X64339118Y-57435650D01*
X64506125Y-57268643D01*
X64644951Y-57077566D01*
X64752176Y-56867125D01*
X64825161Y-56642501D01*
X64841379Y-56540104D01*
X64862108Y-56409230D01*
X64862108Y-56173035D01*
X64825161Y-55939764D01*
X64752174Y-55715136D01*
X64644950Y-55504699D01*
X64506125Y-55313623D01*
X64339118Y-55146616D01*
X64148041Y-55007790D01*
X64116243Y-54991588D01*
X63937604Y-54900566D01*
X63712976Y-54827579D01*
X63479705Y-54790633D01*
X63479700Y-54790633D01*
X63327391Y-54790633D01*
X63260352Y-54770948D01*
X63239710Y-54754314D01*
X61854684Y-53369289D01*
X61854681Y-53369285D01*
X61854681Y-53369286D01*
X61847614Y-53362219D01*
X61847614Y-53362218D01*
X61708257Y-53222861D01*
X61708256Y-53222860D01*
X61708255Y-53222859D01*
X61544395Y-53113371D01*
X61544386Y-53113366D01*
X61454868Y-53076287D01*
X61415640Y-53060038D01*
X61362311Y-53037949D01*
X61362307Y-53037948D01*
X61362303Y-53037946D01*
X61265663Y-53018724D01*
X61169019Y-52999500D01*
X61169016Y-52999500D01*
X57188959Y-52999500D01*
X57188957Y-52999500D01*
X57112948Y-53014619D01*
X57075256Y-53022117D01*
X57051066Y-53024500D01*
X57020818Y-53024500D01*
X56922316Y-53034563D01*
X56922315Y-53034564D01*
X56845440Y-53060038D01*
X56762715Y-53087450D01*
X56762704Y-53087455D01*
X56619612Y-53175716D01*
X56619608Y-53175719D01*
X56587681Y-53207647D01*
X56526358Y-53241132D01*
X56456666Y-53236148D01*
X56412319Y-53207647D01*
X56380391Y-53175719D01*
X56380387Y-53175716D01*
X56237295Y-53087455D01*
X56237289Y-53087452D01*
X56237287Y-53087451D01*
X56077685Y-53034564D01*
X56077683Y-53034563D01*
X55979181Y-53024500D01*
X55979174Y-53024500D01*
X55948934Y-53024500D01*
X55924743Y-53022117D01*
X55887051Y-53014619D01*
X55811043Y-52999500D01*
X55811041Y-52999500D01*
X54547057Y-52999500D01*
X54480018Y-52979815D01*
X54459376Y-52963181D01*
X54175228Y-52679033D01*
X69006767Y-52679033D01*
X69006767Y-52891607D01*
X69016801Y-52954964D01*
X69037785Y-53087450D01*
X69040021Y-53101563D01*
X69103124Y-53295774D01*
X69105711Y-53303734D01*
X69202218Y-53493140D01*
X69327157Y-53665106D01*
X69477480Y-53815429D01*
X69649446Y-53940368D01*
X69649448Y-53940369D01*
X69649451Y-53940371D01*
X69838855Y-54036877D01*
X70041024Y-54102566D01*
X70250980Y-54135820D01*
X70250981Y-54135820D01*
X70463553Y-54135820D01*
X70463554Y-54135820D01*
X70673510Y-54102566D01*
X70875679Y-54036877D01*
X71065083Y-53940371D01*
X71136624Y-53888394D01*
X71237053Y-53815429D01*
X71237055Y-53815426D01*
X71237059Y-53815424D01*
X71387371Y-53665112D01*
X71387373Y-53665108D01*
X71387376Y-53665106D01*
X71512315Y-53493140D01*
X71512314Y-53493140D01*
X71512318Y-53493136D01*
X71608824Y-53303732D01*
X71674513Y-53101563D01*
X71707767Y-52891607D01*
X71707767Y-52679033D01*
X71674513Y-52469077D01*
X71608824Y-52266908D01*
X71512318Y-52077504D01*
X71512316Y-52077501D01*
X71512315Y-52077499D01*
X71387376Y-51905533D01*
X71237053Y-51755210D01*
X71065087Y-51630271D01*
X70875681Y-51533764D01*
X70875680Y-51533763D01*
X70875679Y-51533763D01*
X70673510Y-51468074D01*
X70673508Y-51468073D01*
X70673507Y-51468073D01*
X70512224Y-51442528D01*
X70463554Y-51434820D01*
X70250980Y-51434820D01*
X70202309Y-51442528D01*
X70041027Y-51468073D01*
X69838852Y-51533764D01*
X69649446Y-51630271D01*
X69477480Y-51755210D01*
X69327157Y-51905533D01*
X69202218Y-52077499D01*
X69105711Y-52266905D01*
X69040020Y-52469080D01*
X69010770Y-52653757D01*
X69006767Y-52679033D01*
X54175228Y-52679033D01*
X43901394Y-42405199D01*
X43867909Y-42343876D01*
X43865626Y-42328394D01*
X43865471Y-42327415D01*
X43865471Y-42327410D01*
X43832217Y-42117454D01*
X43766528Y-41915285D01*
X43670022Y-41725881D01*
X43670020Y-41725878D01*
X43670019Y-41725876D01*
X43545080Y-41553910D01*
X43394757Y-41403587D01*
X43222791Y-41278648D01*
X43033385Y-41182141D01*
X43033384Y-41182140D01*
X43033383Y-41182140D01*
X42831214Y-41116451D01*
X42831212Y-41116450D01*
X42831211Y-41116450D01*
X42669928Y-41090905D01*
X42621258Y-41083197D01*
X42408684Y-41083197D01*
X42360013Y-41090905D01*
X42198731Y-41116450D01*
X41996556Y-41182141D01*
X41807150Y-41278648D01*
X41635184Y-41403587D01*
X41484861Y-41553910D01*
X41359922Y-41725876D01*
X41263415Y-41915282D01*
X41197724Y-42117457D01*
X41185809Y-42192686D01*
X41164471Y-42327410D01*
X39802861Y-42327410D01*
X39809144Y-42306010D01*
X39815668Y-42276024D01*
X39819422Y-42271008D01*
X39820185Y-42268412D01*
X39836819Y-42247770D01*
X39849732Y-42234857D01*
X40571225Y-41513364D01*
X41398729Y-40685860D01*
X41398733Y-40685858D01*
X41485858Y-40598733D01*
X41554311Y-40496286D01*
X41554312Y-40496285D01*
X41554313Y-40496282D01*
X41554315Y-40496279D01*
X41564672Y-40471272D01*
X41601463Y-40382451D01*
X41625500Y-40261607D01*
X41625500Y-40138393D01*
X41625500Y-38635515D01*
X41645185Y-38568476D01*
X41697989Y-38522721D01*
X41767147Y-38512777D01*
X41817573Y-38533247D01*
X41818028Y-38532505D01*
X41822175Y-38535046D01*
X41822182Y-38535049D01*
X41822184Y-38535051D01*
X42011588Y-38631557D01*
X42213757Y-38697246D01*
X42423713Y-38730500D01*
X42423714Y-38730500D01*
X42636286Y-38730500D01*
X42636287Y-38730500D01*
X42846243Y-38697246D01*
X43048412Y-38631557D01*
X43237816Y-38535051D01*
X43268474Y-38512777D01*
X43409786Y-38410109D01*
X43409788Y-38410106D01*
X43409792Y-38410104D01*
X43560104Y-38259792D01*
X43560106Y-38259788D01*
X43560109Y-38259786D01*
X43685048Y-38087820D01*
X43685047Y-38087820D01*
X43685051Y-38087816D01*
X43781557Y-37898412D01*
X43847246Y-37696243D01*
X43880500Y-37486287D01*
X43880500Y-37273713D01*
X43847246Y-37063757D01*
X43781557Y-36861588D01*
X43685051Y-36672184D01*
X43685049Y-36672181D01*
X43685048Y-36672179D01*
X43631913Y-36599044D01*
X43560109Y-36500214D01*
X43560105Y-36500209D01*
X43409786Y-36349890D01*
X43237820Y-36224951D01*
X43048414Y-36128444D01*
X43048413Y-36128443D01*
X43048412Y-36128443D01*
X42846243Y-36062754D01*
X42846241Y-36062753D01*
X42846240Y-36062753D01*
X42684957Y-36037208D01*
X42636287Y-36029500D01*
X42423713Y-36029500D01*
X42375042Y-36037208D01*
X42213760Y-36062753D01*
X42213757Y-36062754D01*
X42023773Y-36124484D01*
X42011585Y-36128444D01*
X41822175Y-36224953D01*
X41818028Y-36227495D01*
X41817456Y-36226562D01*
X41756573Y-36248282D01*
X41688520Y-36232454D01*
X41639828Y-36182346D01*
X41625500Y-36124484D01*
X41625500Y-33946848D01*
X41645185Y-33879809D01*
X41661819Y-33859167D01*
X42059168Y-33461819D01*
X42120491Y-33428334D01*
X42146849Y-33425500D01*
X44512730Y-33425500D01*
X44579769Y-33445185D01*
X44625524Y-33497989D01*
X44635468Y-33567147D01*
X44606534Y-33630501D01*
X44606543Y-33630509D01*
X44606518Y-33630537D01*
X44606443Y-33630703D01*
X44605649Y-33631555D01*
X44603381Y-33634211D01*
X44603379Y-33634213D01*
X44556672Y-33698499D01*
X44494622Y-33783903D01*
X44410620Y-33948764D01*
X44410619Y-33948767D01*
X44353445Y-34124734D01*
X44344704Y-34179923D01*
X44324500Y-34307486D01*
X44324500Y-34492514D01*
X44328065Y-34515024D01*
X44353445Y-34675265D01*
X44410619Y-34851232D01*
X44410620Y-34851235D01*
X44486344Y-34999849D01*
X44494622Y-35016096D01*
X44603379Y-35165787D01*
X44734213Y-35296621D01*
X44883904Y-35405378D01*
X44937224Y-35432546D01*
X45048764Y-35489379D01*
X45048767Y-35489380D01*
X45136750Y-35517967D01*
X45224736Y-35546555D01*
X45407486Y-35575500D01*
X45407487Y-35575500D01*
X45592513Y-35575500D01*
X45592514Y-35575500D01*
X45775264Y-35546555D01*
X45951235Y-35489379D01*
X46116096Y-35405378D01*
X46265787Y-35296621D01*
X46396621Y-35165787D01*
X46399680Y-35161576D01*
X46455006Y-35118909D01*
X46524619Y-35112926D01*
X46586415Y-35145529D01*
X46600315Y-35161570D01*
X46603379Y-35165787D01*
X46734213Y-35296621D01*
X46883904Y-35405378D01*
X46937224Y-35432546D01*
X47048764Y-35489379D01*
X47048767Y-35489380D01*
X47136750Y-35517967D01*
X47224736Y-35546555D01*
X47407486Y-35575500D01*
X47407487Y-35575500D01*
X47592513Y-35575500D01*
X47592514Y-35575500D01*
X47775264Y-35546555D01*
X47951235Y-35489379D01*
X48116096Y-35405378D01*
X48231608Y-35321453D01*
X48297412Y-35297974D01*
X48365466Y-35313799D01*
X48403758Y-35347460D01*
X48447115Y-35405377D01*
X48467187Y-35432190D01*
X48467455Y-35432547D01*
X48582664Y-35518793D01*
X48582671Y-35518797D01*
X48717517Y-35569091D01*
X48717516Y-35569091D01*
X48724444Y-35569835D01*
X48777127Y-35575500D01*
X50222872Y-35575499D01*
X50282483Y-35569091D01*
X50417331Y-35518796D01*
X50532546Y-35432546D01*
X50618796Y-35317331D01*
X50669091Y-35182483D01*
X50675500Y-35122873D01*
X50675499Y-33677128D01*
X50669091Y-33617517D01*
X50669090Y-33617514D01*
X50659885Y-33592832D01*
X50654901Y-33523140D01*
X50688387Y-33461818D01*
X50749711Y-33428333D01*
X50776067Y-33425500D01*
X55012730Y-33425500D01*
X55079769Y-33445185D01*
X55125524Y-33497989D01*
X55135468Y-33567147D01*
X55106534Y-33630501D01*
X55106543Y-33630509D01*
X55106518Y-33630537D01*
X55106443Y-33630703D01*
X55105649Y-33631555D01*
X55103381Y-33634211D01*
X55103379Y-33634213D01*
X55056672Y-33698499D01*
X54994622Y-33783903D01*
X54910620Y-33948764D01*
X54910619Y-33948767D01*
X54853445Y-34124734D01*
X54844704Y-34179923D01*
X54824500Y-34307486D01*
X54824500Y-34492514D01*
X54828065Y-34515024D01*
X54853445Y-34675265D01*
X54910619Y-34851232D01*
X54910620Y-34851235D01*
X54986344Y-34999849D01*
X54994622Y-35016096D01*
X55103379Y-35165787D01*
X55234213Y-35296621D01*
X55383904Y-35405378D01*
X55437224Y-35432546D01*
X55548764Y-35489379D01*
X55548767Y-35489380D01*
X55636750Y-35517967D01*
X55724736Y-35546555D01*
X55907486Y-35575500D01*
X55907487Y-35575500D01*
X56092513Y-35575500D01*
X56092514Y-35575500D01*
X56275264Y-35546555D01*
X56451235Y-35489379D01*
X56616096Y-35405378D01*
X56732013Y-35321158D01*
X56797816Y-35297680D01*
X56865870Y-35313505D01*
X56904162Y-35347166D01*
X56967812Y-35432190D01*
X57082906Y-35518350D01*
X57082913Y-35518354D01*
X57217620Y-35568596D01*
X57217627Y-35568598D01*
X57277155Y-35574999D01*
X57277172Y-35575000D01*
X57750000Y-35575000D01*
X57750000Y-34715686D01*
X57754394Y-34720080D01*
X57845606Y-34772741D01*
X57947339Y-34800000D01*
X58052661Y-34800000D01*
X58154394Y-34772741D01*
X58245606Y-34720080D01*
X58250000Y-34715686D01*
X58250000Y-35575000D01*
X58722828Y-35575000D01*
X58722844Y-35574999D01*
X58782372Y-35568598D01*
X58782379Y-35568596D01*
X58917086Y-35518354D01*
X58917093Y-35518350D01*
X59032187Y-35432190D01*
X59032190Y-35432187D01*
X59118350Y-35317093D01*
X59118354Y-35317086D01*
X59168596Y-35182379D01*
X59168598Y-35182372D01*
X59174999Y-35122844D01*
X59175000Y-35122827D01*
X59175000Y-34650000D01*
X58315686Y-34650000D01*
X58320080Y-34645606D01*
X58372741Y-34554394D01*
X58400000Y-34452661D01*
X58400000Y-34347339D01*
X58372741Y-34245606D01*
X58320080Y-34154394D01*
X58315686Y-34150000D01*
X59175000Y-34150000D01*
X59175000Y-33677172D01*
X59174999Y-33677155D01*
X59168598Y-33617627D01*
X59168596Y-33617620D01*
X59118354Y-33482913D01*
X59118350Y-33482906D01*
X59032190Y-33367812D01*
X59032187Y-33367809D01*
X58917093Y-33281649D01*
X58917086Y-33281645D01*
X58782379Y-33231403D01*
X58782372Y-33231401D01*
X58722844Y-33225000D01*
X58250000Y-33225000D01*
X58250000Y-34084314D01*
X58245606Y-34079920D01*
X58154394Y-34027259D01*
X58052661Y-34000000D01*
X57947339Y-34000000D01*
X57845606Y-34027259D01*
X57754394Y-34079920D01*
X57750000Y-34084314D01*
X57750000Y-33225000D01*
X57277155Y-33225000D01*
X57217627Y-33231401D01*
X57217620Y-33231403D01*
X57082913Y-33281645D01*
X57082906Y-33281649D01*
X56967812Y-33367809D01*
X56904163Y-33452833D01*
X56897629Y-33457723D01*
X56893821Y-33464942D01*
X56870064Y-33478357D01*
X56848229Y-33494703D01*
X56840089Y-33495285D01*
X56832982Y-33499299D01*
X56805746Y-33497741D01*
X56778537Y-33499687D01*
X56769577Y-33495672D01*
X56763226Y-33495309D01*
X56732011Y-33478838D01*
X56676614Y-33438589D01*
X56633948Y-33383259D01*
X56625500Y-33338272D01*
X56625500Y-33138394D01*
X56621817Y-33119878D01*
X56617124Y-33096286D01*
X56601463Y-33017548D01*
X56554311Y-32903714D01*
X56526175Y-32861606D01*
X56485858Y-32801267D01*
X56398733Y-32714142D01*
X56398732Y-32714141D01*
X56096770Y-32412180D01*
X56063286Y-32350858D01*
X56068270Y-32281167D01*
X56110141Y-32225233D01*
X56175606Y-32200816D01*
X56184452Y-32200500D01*
X68628712Y-32200500D01*
X68695751Y-32220185D01*
X68741506Y-32272989D01*
X68750329Y-32300309D01*
X68800308Y-32551572D01*
X68900150Y-32880706D01*
X68909681Y-32903716D01*
X69011917Y-33150536D01*
X69031770Y-33198464D01*
X69031772Y-33198469D01*
X69193893Y-33501775D01*
X69193904Y-33501793D01*
X69384975Y-33787751D01*
X69384985Y-33787765D01*
X69603177Y-34053632D01*
X69846367Y-34296822D01*
X69846372Y-34296826D01*
X69846373Y-34296827D01*
X70112240Y-34515019D01*
X70398213Y-34706100D01*
X70398222Y-34706105D01*
X70398224Y-34706106D01*
X70701530Y-34868227D01*
X70701532Y-34868227D01*
X70701538Y-34868231D01*
X71019295Y-34999850D01*
X71348422Y-35099690D01*
X71599693Y-35149671D01*
X71661602Y-35182055D01*
X71696176Y-35242770D01*
X71699500Y-35271287D01*
X71699500Y-36742522D01*
X71679815Y-36809561D01*
X71627011Y-36855316D01*
X71557853Y-36865260D01*
X71494297Y-36836235D01*
X71491081Y-36832731D01*
X71487565Y-36832454D01*
X70896083Y-37423937D01*
X70884814Y-37381880D01*
X70812406Y-37256464D01*
X70710004Y-37154062D01*
X70584588Y-37081654D01*
X70542529Y-37070384D01*
X71134012Y-36478900D01*
X71079846Y-36439547D01*
X70890513Y-36343076D01*
X70688425Y-36277414D01*
X70478542Y-36244172D01*
X70266050Y-36244172D01*
X70056168Y-36277414D01*
X70056165Y-36277414D01*
X69854078Y-36343076D01*
X69664735Y-36439552D01*
X69610578Y-36478899D01*
X69610578Y-36478900D01*
X70202062Y-37070384D01*
X70160004Y-37081654D01*
X70034588Y-37154062D01*
X69932186Y-37256464D01*
X69859778Y-37381880D01*
X69848508Y-37423938D01*
X69257024Y-36832454D01*
X69257023Y-36832454D01*
X69217676Y-36886611D01*
X69121200Y-37075954D01*
X69055538Y-37278041D01*
X69055538Y-37278044D01*
X69022296Y-37487925D01*
X69022296Y-37700418D01*
X69055538Y-37910299D01*
X69055538Y-37910302D01*
X69121200Y-38112389D01*
X69217671Y-38301722D01*
X69257024Y-38355888D01*
X69848508Y-37764405D01*
X69859778Y-37806464D01*
X69932186Y-37931880D01*
X70034588Y-38034282D01*
X70160004Y-38106690D01*
X70202061Y-38117959D01*
X69610578Y-38709441D01*
X69610578Y-38709442D01*
X69664745Y-38748796D01*
X69854078Y-38845267D01*
X70056166Y-38910929D01*
X70266050Y-38944172D01*
X70478542Y-38944172D01*
X70688423Y-38910929D01*
X70688426Y-38910929D01*
X70890513Y-38845267D01*
X71079850Y-38748794D01*
X71134012Y-38709442D01*
X71134013Y-38709442D01*
X70542529Y-38117959D01*
X70584588Y-38106690D01*
X70710004Y-38034282D01*
X70812406Y-37931880D01*
X70884814Y-37806464D01*
X70896083Y-37764405D01*
X71487566Y-38355889D01*
X71498393Y-38355036D01*
X71530512Y-38330270D01*
X71600126Y-38324291D01*
X71661921Y-38356897D01*
X71696278Y-38417736D01*
X71699500Y-38445821D01*
X71699500Y-42565891D01*
X71733608Y-42693187D01*
X71766373Y-42749936D01*
X71799500Y-42807314D01*
X71892686Y-42900500D01*
X72006814Y-42966392D01*
X72134108Y-43000500D01*
X72134110Y-43000500D01*
X73000000Y-43000500D01*
X73000000Y-60499500D01*
X72134108Y-60499500D01*
X72006812Y-60533608D01*
X71892686Y-60599500D01*
X71892683Y-60599502D01*
X71799502Y-60692683D01*
X71799500Y-60692686D01*
X71733608Y-60806812D01*
X71699500Y-60934108D01*
X71699500Y-68128711D01*
X71679815Y-68195750D01*
X71627011Y-68241505D01*
X71599692Y-68250328D01*
X71348426Y-68300309D01*
X71348424Y-68300309D01*
X71348422Y-68300310D01*
X71262783Y-68326288D01*
X71019293Y-68400150D01*
X70701535Y-68531770D01*
X70701530Y-68531772D01*
X70398224Y-68693893D01*
X70398206Y-68693904D01*
X70112248Y-68884975D01*
X70112234Y-68884985D01*
X69846367Y-69103177D01*
X69603177Y-69346367D01*
X69384985Y-69612234D01*
X69384975Y-69612248D01*
X69193904Y-69898206D01*
X69193893Y-69898224D01*
X69031772Y-70201530D01*
X69031770Y-70201535D01*
X68900150Y-70519293D01*
X68800308Y-70848427D01*
X68750329Y-71099691D01*
X68717944Y-71161602D01*
X68657228Y-71196177D01*
X68628712Y-71199500D01*
X63765422Y-71199500D01*
X63698383Y-71179815D01*
X63652628Y-71127011D01*
X63642684Y-71057853D01*
X63671709Y-70994297D01*
X63727104Y-70957569D01*
X63937410Y-70889235D01*
X64147771Y-70782051D01*
X64147777Y-70782047D01*
X64230712Y-70721791D01*
X64230713Y-70721791D01*
X63609096Y-70100174D01*
X63669498Y-70075155D01*
X63775959Y-70004021D01*
X63866496Y-69913484D01*
X63937630Y-69807023D01*
X63962649Y-69746621D01*
X64584266Y-70368238D01*
X64584266Y-70368237D01*
X64644522Y-70285302D01*
X64644526Y-70285296D01*
X64751710Y-70074935D01*
X64824673Y-69850380D01*
X64861608Y-69617185D01*
X64861608Y-69381080D01*
X64824673Y-69147885D01*
X64751710Y-68923330D01*
X64644522Y-68712961D01*
X64584266Y-68630027D01*
X64584266Y-68630026D01*
X63962649Y-69251644D01*
X63937630Y-69191243D01*
X63866496Y-69084782D01*
X63775959Y-68994245D01*
X63669498Y-68923111D01*
X63609095Y-68898091D01*
X64230712Y-68276473D01*
X64227752Y-68238868D01*
X64227752Y-68219408D01*
X64230712Y-68181790D01*
X63609096Y-67560174D01*
X63669498Y-67535155D01*
X63775959Y-67464021D01*
X63866496Y-67373484D01*
X63937630Y-67267023D01*
X63962649Y-67206621D01*
X64584266Y-67828238D01*
X64584266Y-67828237D01*
X64644522Y-67745302D01*
X64644526Y-67745296D01*
X64751710Y-67534935D01*
X64792201Y-67410320D01*
X64792201Y-67410319D01*
X64824673Y-67310378D01*
X64861608Y-67077185D01*
X64861608Y-66841080D01*
X64824673Y-66607885D01*
X64751710Y-66383330D01*
X64644522Y-66172961D01*
X64584266Y-66090027D01*
X64584266Y-66090026D01*
X63962649Y-66711644D01*
X63937630Y-66651243D01*
X63866496Y-66544782D01*
X63775959Y-66454245D01*
X63669498Y-66383111D01*
X63609096Y-66358091D01*
X64230713Y-65736473D01*
X64230712Y-65736471D01*
X64147782Y-65676220D01*
X63937410Y-65569030D01*
X63712855Y-65496067D01*
X63712856Y-65496067D01*
X63479660Y-65459133D01*
X63243556Y-65459133D01*
X63010360Y-65496067D01*
X62785805Y-65569030D01*
X62575438Y-65676217D01*
X62492502Y-65736473D01*
X63114120Y-66358091D01*
X63053718Y-66383111D01*
X62947257Y-66454245D01*
X62856720Y-66544782D01*
X62785586Y-66651243D01*
X62760566Y-66711645D01*
X62138948Y-66090027D01*
X62078692Y-66172963D01*
X61971505Y-66383330D01*
X61898542Y-66607885D01*
X61861608Y-66841080D01*
X61861608Y-67077185D01*
X61898542Y-67310380D01*
X61971505Y-67534935D01*
X62078695Y-67745307D01*
X62138946Y-67828237D01*
X62138948Y-67828238D01*
X62760566Y-67206620D01*
X62785586Y-67267023D01*
X62856720Y-67373484D01*
X62947257Y-67464021D01*
X63053718Y-67535155D01*
X63114119Y-67560174D01*
X62492501Y-68181791D01*
X62495462Y-68219409D01*
X62495462Y-68238866D01*
X62492502Y-68276473D01*
X63114120Y-68898091D01*
X63053718Y-68923111D01*
X62947257Y-68994245D01*
X62856720Y-69084782D01*
X62785586Y-69191243D01*
X62760566Y-69251645D01*
X62138948Y-68630027D01*
X62078692Y-68712963D01*
X61971505Y-68923330D01*
X61898542Y-69147885D01*
X61861608Y-69381080D01*
X61861608Y-69617185D01*
X61898542Y-69850380D01*
X61971505Y-70074935D01*
X62078695Y-70285307D01*
X62138946Y-70368237D01*
X62138948Y-70368238D01*
X62760566Y-69746620D01*
X62785586Y-69807023D01*
X62856720Y-69913484D01*
X62947257Y-70004021D01*
X63053718Y-70075155D01*
X63114119Y-70100174D01*
X62492501Y-70721791D01*
X62575436Y-70782047D01*
X62785805Y-70889235D01*
X62996112Y-70957569D01*
X63053788Y-70997007D01*
X63080986Y-71061365D01*
X63069071Y-71130212D01*
X63021827Y-71181687D01*
X62957794Y-71199500D01*
X45223422Y-71199500D01*
X45156383Y-71179815D01*
X45110628Y-71127011D01*
X45100684Y-71057853D01*
X45129709Y-70994297D01*
X45185104Y-70957569D01*
X45395410Y-70889235D01*
X45605771Y-70782051D01*
X45605777Y-70782047D01*
X45688712Y-70721791D01*
X45688713Y-70721791D01*
X45067096Y-70100174D01*
X45127498Y-70075155D01*
X45233959Y-70004021D01*
X45324496Y-69913484D01*
X45395630Y-69807023D01*
X45420649Y-69746621D01*
X46042266Y-70368238D01*
X46042266Y-70368237D01*
X46102522Y-70285302D01*
X46102526Y-70285296D01*
X46209710Y-70074935D01*
X46282673Y-69850380D01*
X46319608Y-69617185D01*
X46319608Y-69381080D01*
X46282673Y-69147885D01*
X46209710Y-68923330D01*
X46102522Y-68712961D01*
X46042266Y-68630027D01*
X46042266Y-68630026D01*
X45420649Y-69251644D01*
X45395630Y-69191243D01*
X45324496Y-69084782D01*
X45233959Y-68994245D01*
X45127498Y-68923111D01*
X45067095Y-68898091D01*
X45688712Y-68276473D01*
X45685752Y-68238868D01*
X45685752Y-68219408D01*
X45688712Y-68181790D01*
X45067096Y-67560174D01*
X45127498Y-67535155D01*
X45233959Y-67464021D01*
X45324496Y-67373484D01*
X45395630Y-67267023D01*
X45420649Y-67206621D01*
X46042266Y-67828238D01*
X46042266Y-67828237D01*
X46102522Y-67745302D01*
X46102526Y-67745296D01*
X46209710Y-67534935D01*
X46282673Y-67310380D01*
X46319608Y-67077185D01*
X46319608Y-66841080D01*
X46282673Y-66607885D01*
X46209710Y-66383330D01*
X46102522Y-66172961D01*
X46042266Y-66090027D01*
X46042266Y-66090026D01*
X45420649Y-66711644D01*
X45395630Y-66651243D01*
X45324496Y-66544782D01*
X45233959Y-66454245D01*
X45127498Y-66383111D01*
X45067096Y-66358091D01*
X45688713Y-65736473D01*
X45688712Y-65736472D01*
X45605782Y-65676220D01*
X45395410Y-65569030D01*
X45170855Y-65496067D01*
X45170856Y-65496067D01*
X44937660Y-65459133D01*
X44701556Y-65459133D01*
X44468360Y-65496067D01*
X44243805Y-65569030D01*
X44033438Y-65676217D01*
X43950502Y-65736473D01*
X44572120Y-66358091D01*
X44511718Y-66383111D01*
X44405257Y-66454245D01*
X44314720Y-66544782D01*
X44243586Y-66651243D01*
X44218566Y-66711645D01*
X43596948Y-66090027D01*
X43536692Y-66172963D01*
X43429505Y-66383330D01*
X43356542Y-66607885D01*
X43319608Y-66841080D01*
X43319608Y-67077185D01*
X43356542Y-67310380D01*
X43429505Y-67534935D01*
X43536695Y-67745307D01*
X43596946Y-67828237D01*
X43596948Y-67828238D01*
X44218566Y-67206620D01*
X44243586Y-67267023D01*
X44314720Y-67373484D01*
X44405257Y-67464021D01*
X44511718Y-67535155D01*
X44572119Y-67560174D01*
X43950501Y-68181791D01*
X43953462Y-68219409D01*
X43953462Y-68238866D01*
X43950502Y-68276473D01*
X44572120Y-68898091D01*
X44511718Y-68923111D01*
X44405257Y-68994245D01*
X44314720Y-69084782D01*
X44243586Y-69191243D01*
X44218566Y-69251645D01*
X43596948Y-68630027D01*
X43536692Y-68712963D01*
X43429505Y-68923330D01*
X43356542Y-69147885D01*
X43319608Y-69381080D01*
X43319608Y-69617185D01*
X43356542Y-69850380D01*
X43429505Y-70074935D01*
X43536695Y-70285307D01*
X43596946Y-70368237D01*
X43596948Y-70368238D01*
X44218566Y-69746620D01*
X44243586Y-69807023D01*
X44314720Y-69913484D01*
X44405257Y-70004021D01*
X44511718Y-70075155D01*
X44572119Y-70100174D01*
X43950501Y-70721791D01*
X44033436Y-70782047D01*
X44243805Y-70889235D01*
X44454112Y-70957569D01*
X44511788Y-70997007D01*
X44538986Y-71061365D01*
X44527071Y-71130212D01*
X44479827Y-71181687D01*
X44415794Y-71199500D01*
X35771288Y-71199500D01*
X35704249Y-71179815D01*
X35658494Y-71127011D01*
X35649671Y-71099691D01*
X35599691Y-70848427D01*
X35599690Y-70848426D01*
X35599690Y-70848422D01*
X35499850Y-70519295D01*
X35368231Y-70201538D01*
X35326868Y-70124154D01*
X35206106Y-69898224D01*
X35206105Y-69898222D01*
X35206100Y-69898213D01*
X35015019Y-69612240D01*
X34796827Y-69346373D01*
X34796826Y-69346372D01*
X34796822Y-69346367D01*
X34553632Y-69103177D01*
X34287765Y-68884985D01*
X34287764Y-68884984D01*
X34287760Y-68884981D01*
X34001787Y-68693900D01*
X34001782Y-68693897D01*
X34001775Y-68693893D01*
X33698469Y-68531772D01*
X33698464Y-68531770D01*
X33380706Y-68400150D01*
X33258960Y-68363219D01*
X33051578Y-68300310D01*
X33051573Y-68300309D01*
X32829571Y-68256149D01*
X32800308Y-68250328D01*
X32738397Y-68217943D01*
X32703823Y-68157227D01*
X32700500Y-68128711D01*
X32700500Y-66497664D01*
X32720185Y-66430625D01*
X32772989Y-66384870D01*
X32842147Y-66374926D01*
X32905703Y-66403951D01*
X32923767Y-66423353D01*
X32967813Y-66482190D01*
X33082906Y-66568350D01*
X33082913Y-66568354D01*
X33217620Y-66618596D01*
X33217627Y-66618598D01*
X33277155Y-66624999D01*
X33277172Y-66625000D01*
X33750000Y-66625000D01*
X33750000Y-65765686D01*
X33754394Y-65770080D01*
X33845606Y-65822741D01*
X33947339Y-65850000D01*
X34052661Y-65850000D01*
X34154394Y-65822741D01*
X34245606Y-65770080D01*
X34250000Y-65765686D01*
X34250000Y-66625000D01*
X34722828Y-66625000D01*
X34722844Y-66624999D01*
X34782372Y-66618598D01*
X34782379Y-66618596D01*
X34917086Y-66568354D01*
X34917093Y-66568350D01*
X35032187Y-66482190D01*
X35032190Y-66482187D01*
X35118350Y-66367093D01*
X35118354Y-66367086D01*
X35168596Y-66232379D01*
X35168598Y-66232372D01*
X35174999Y-66172844D01*
X35175000Y-66172827D01*
X35175000Y-65700000D01*
X34315686Y-65700000D01*
X34320080Y-65695606D01*
X34372741Y-65604394D01*
X34400000Y-65502661D01*
X34400000Y-65397339D01*
X34372741Y-65295606D01*
X34320080Y-65204394D01*
X34315686Y-65200000D01*
X35175000Y-65200000D01*
X35175000Y-64727172D01*
X35174999Y-64727155D01*
X35168598Y-64667627D01*
X35168596Y-64667620D01*
X35118354Y-64532913D01*
X35118350Y-64532906D01*
X35032190Y-64417812D01*
X34947166Y-64354162D01*
X34905296Y-64298228D01*
X34900312Y-64228536D01*
X34921157Y-64182015D01*
X35005378Y-64066096D01*
X35089379Y-63901235D01*
X35146555Y-63725264D01*
X35175500Y-63542514D01*
X35175500Y-63357486D01*
X35146555Y-63174736D01*
X35089379Y-62998765D01*
X35089379Y-62998764D01*
X35005377Y-62833903D01*
X34896621Y-62684213D01*
X34765787Y-62553379D01*
X34616096Y-62444622D01*
X34451235Y-62360620D01*
X34451232Y-62360619D01*
X34275265Y-62303445D01*
X34183889Y-62288972D01*
X34092514Y-62274500D01*
X33907486Y-62274500D01*
X33846569Y-62284148D01*
X33724734Y-62303445D01*
X33548767Y-62360619D01*
X33548764Y-62360620D01*
X33383903Y-62444622D01*
X33313428Y-62495826D01*
X33234213Y-62553379D01*
X33234211Y-62553381D01*
X33234210Y-62553381D01*
X33103381Y-62684210D01*
X33103381Y-62684211D01*
X33103379Y-62684213D01*
X33056672Y-62748499D01*
X32994622Y-62833903D01*
X32934985Y-62950947D01*
X32887010Y-63001743D01*
X32819189Y-63018538D01*
X32753054Y-62996000D01*
X32709603Y-62941285D01*
X32700500Y-62894652D01*
X32700500Y-60934110D01*
X32700500Y-60934108D01*
X32666392Y-60806814D01*
X32600500Y-60692686D01*
X32507314Y-60599500D01*
X32500000Y-60595277D01*
X32500000Y-56173035D01*
X43319108Y-56173035D01*
X43319108Y-56409230D01*
X43356054Y-56642501D01*
X43429041Y-56867129D01*
X43536265Y-57077566D01*
X43675091Y-57268643D01*
X43842098Y-57435650D01*
X43876735Y-57460816D01*
X43919400Y-57516146D01*
X43925379Y-57585759D01*
X43892773Y-57647554D01*
X43876738Y-57661448D01*
X43858973Y-57674355D01*
X43842096Y-57686617D01*
X43675093Y-57853620D01*
X43675093Y-57853621D01*
X43675091Y-57853623D01*
X43615470Y-57935683D01*
X43536265Y-58044699D01*
X43429041Y-58255136D01*
X43356054Y-58479764D01*
X43319108Y-58713035D01*
X43319108Y-58949230D01*
X43356054Y-59182501D01*
X43429041Y-59407129D01*
X43536265Y-59617566D01*
X43675091Y-59808643D01*
X43842098Y-59975650D01*
X44033175Y-60114476D01*
X44132599Y-60165135D01*
X44243611Y-60221699D01*
X44243613Y-60221699D01*
X44243616Y-60221701D01*
X44364020Y-60260822D01*
X44468239Y-60294686D01*
X44701511Y-60331633D01*
X44701516Y-60331633D01*
X44937705Y-60331633D01*
X45170976Y-60294686D01*
X45395600Y-60221701D01*
X45606041Y-60114476D01*
X45797118Y-59975650D01*
X45964125Y-59808643D01*
X46102951Y-59617566D01*
X46210176Y-59407125D01*
X46283161Y-59182501D01*
X46320108Y-58949230D01*
X46320108Y-58713035D01*
X46283161Y-58479764D01*
X46210174Y-58255136D01*
X46102950Y-58044699D01*
X45964125Y-57853623D01*
X45797118Y-57686616D01*
X45762480Y-57661450D01*
X45719815Y-57606122D01*
X45713836Y-57536508D01*
X45746441Y-57474713D01*
X45762481Y-57460815D01*
X45797118Y-57435650D01*
X45964125Y-57268643D01*
X46102951Y-57077566D01*
X46210176Y-56867125D01*
X46283161Y-56642501D01*
X46299379Y-56540104D01*
X46320108Y-56409230D01*
X46320108Y-56173035D01*
X46283161Y-55939764D01*
X46210174Y-55715136D01*
X46102950Y-55504699D01*
X45964125Y-55313623D01*
X45797118Y-55146616D01*
X45606041Y-55007790D01*
X45574243Y-54991588D01*
X45395604Y-54900566D01*
X45170976Y-54827579D01*
X44937705Y-54790633D01*
X44937700Y-54790633D01*
X44701516Y-54790633D01*
X44701511Y-54790633D01*
X44468239Y-54827579D01*
X44243611Y-54900566D01*
X44033174Y-55007790D01*
X43993220Y-55036819D01*
X43842098Y-55146616D01*
X43842096Y-55146618D01*
X43842095Y-55146618D01*
X43675093Y-55313620D01*
X43675093Y-55313621D01*
X43675091Y-55313623D01*
X43615470Y-55395683D01*
X43536265Y-55504699D01*
X43429041Y-55715136D01*
X43356054Y-55939764D01*
X43319108Y-56173035D01*
X32500000Y-56173035D01*
X32500000Y-50107486D01*
X34824500Y-50107486D01*
X34824500Y-50292514D01*
X34838972Y-50383889D01*
X34853445Y-50475265D01*
X34910619Y-50651232D01*
X34910620Y-50651235D01*
X34959030Y-50746243D01*
X34994622Y-50816096D01*
X35078840Y-50932012D01*
X35102320Y-50997817D01*
X35086495Y-51065871D01*
X35052833Y-51104164D01*
X34967809Y-51167813D01*
X34881649Y-51282906D01*
X34881645Y-51282913D01*
X34831403Y-51417620D01*
X34831401Y-51417627D01*
X34825000Y-51477155D01*
X34825000Y-51950000D01*
X35684314Y-51950000D01*
X35679920Y-51954394D01*
X35627259Y-52045606D01*
X35600000Y-52147339D01*
X35600000Y-52252661D01*
X35627259Y-52354394D01*
X35679920Y-52445606D01*
X35684314Y-52450000D01*
X34825000Y-52450000D01*
X34825000Y-52922844D01*
X34831401Y-52982372D01*
X34831403Y-52982379D01*
X34881645Y-53117086D01*
X34881649Y-53117093D01*
X34967809Y-53232187D01*
X34967812Y-53232190D01*
X35082906Y-53318350D01*
X35082913Y-53318354D01*
X35217620Y-53368596D01*
X35217627Y-53368598D01*
X35277155Y-53374999D01*
X35277172Y-53375000D01*
X35750000Y-53375000D01*
X35750000Y-52515686D01*
X35754394Y-52520080D01*
X35845606Y-52572741D01*
X35947339Y-52600000D01*
X36052661Y-52600000D01*
X36154394Y-52572741D01*
X36245606Y-52520080D01*
X36250000Y-52515686D01*
X36250000Y-53375000D01*
X36722828Y-53375000D01*
X36722844Y-53374999D01*
X36782372Y-53368598D01*
X36782379Y-53368596D01*
X36917086Y-53318354D01*
X36917093Y-53318350D01*
X37032187Y-53232190D01*
X37032190Y-53232187D01*
X37118350Y-53117093D01*
X37118354Y-53117086D01*
X37168596Y-52982379D01*
X37168598Y-52982372D01*
X37174999Y-52922844D01*
X37175000Y-52922827D01*
X37175000Y-52464861D01*
X41164471Y-52464861D01*
X41164471Y-52677434D01*
X41193974Y-52863713D01*
X41197725Y-52887391D01*
X41262728Y-53087450D01*
X41263415Y-53089562D01*
X41359922Y-53278968D01*
X41484861Y-53450934D01*
X41635184Y-53601257D01*
X41807150Y-53726196D01*
X41807152Y-53726197D01*
X41807155Y-53726199D01*
X41996559Y-53822705D01*
X42198728Y-53888394D01*
X42408684Y-53921648D01*
X42408685Y-53921648D01*
X42621257Y-53921648D01*
X42621258Y-53921648D01*
X42831214Y-53888394D01*
X43033383Y-53822705D01*
X43222787Y-53726199D01*
X43306875Y-53665106D01*
X43394757Y-53601257D01*
X43394759Y-53601254D01*
X43394763Y-53601252D01*
X43545075Y-53450940D01*
X43545077Y-53450936D01*
X43545080Y-53450934D01*
X43658655Y-53294609D01*
X43670022Y-53278964D01*
X43766528Y-53089560D01*
X43832217Y-52887391D01*
X43865471Y-52677435D01*
X43865471Y-52464861D01*
X43832217Y-52254905D01*
X43766528Y-52052736D01*
X43670022Y-51863332D01*
X43670020Y-51863329D01*
X43670019Y-51863327D01*
X43545080Y-51691361D01*
X43394757Y-51541038D01*
X43222791Y-51416099D01*
X43033385Y-51319592D01*
X43033384Y-51319591D01*
X43033383Y-51319591D01*
X42831214Y-51253902D01*
X42831212Y-51253901D01*
X42831211Y-51253901D01*
X42669928Y-51228356D01*
X42621258Y-51220648D01*
X42408684Y-51220648D01*
X42360013Y-51228356D01*
X42198731Y-51253901D01*
X41996556Y-51319592D01*
X41807150Y-51416099D01*
X41635184Y-51541038D01*
X41484861Y-51691361D01*
X41359922Y-51863327D01*
X41263415Y-52052733D01*
X41197724Y-52254908D01*
X41164471Y-52464861D01*
X37175000Y-52464861D01*
X37175000Y-52450000D01*
X36315686Y-52450000D01*
X36320080Y-52445606D01*
X36372741Y-52354394D01*
X36400000Y-52252661D01*
X36400000Y-52147339D01*
X36372741Y-52045606D01*
X36320080Y-51954394D01*
X36315686Y-51950000D01*
X37175000Y-51950000D01*
X37175000Y-51477172D01*
X37174999Y-51477155D01*
X37168598Y-51417627D01*
X37168596Y-51417620D01*
X37118354Y-51282913D01*
X37118350Y-51282906D01*
X37032190Y-51167812D01*
X36947166Y-51104162D01*
X36905296Y-51048228D01*
X36900312Y-50978536D01*
X36921157Y-50932015D01*
X37005378Y-50816096D01*
X37089379Y-50651235D01*
X37146555Y-50475264D01*
X37175500Y-50292514D01*
X37175500Y-50107486D01*
X37146555Y-49924736D01*
X37089379Y-49748765D01*
X37089379Y-49748764D01*
X37005377Y-49583903D01*
X36980896Y-49550208D01*
X36896621Y-49434213D01*
X36765787Y-49303379D01*
X36616096Y-49194622D01*
X36548147Y-49160000D01*
X36451235Y-49110620D01*
X36451232Y-49110619D01*
X36275265Y-49053445D01*
X36183889Y-49038972D01*
X36092514Y-49024500D01*
X35907486Y-49024500D01*
X35846569Y-49034148D01*
X35724734Y-49053445D01*
X35548767Y-49110619D01*
X35548764Y-49110620D01*
X35383903Y-49194622D01*
X35298499Y-49256672D01*
X35234213Y-49303379D01*
X35234211Y-49303381D01*
X35234210Y-49303381D01*
X35103381Y-49434210D01*
X35103381Y-49434211D01*
X35103379Y-49434213D01*
X35056672Y-49498499D01*
X34994622Y-49583903D01*
X34910620Y-49748764D01*
X34910619Y-49748767D01*
X34853445Y-49924734D01*
X34853445Y-49924736D01*
X34824500Y-50107486D01*
X32500000Y-50107486D01*
X32500000Y-42904722D01*
X32507314Y-42900500D01*
X32600500Y-42807314D01*
X32666392Y-42693186D01*
X32700500Y-42565892D01*
X32700500Y-35271287D01*
X32720185Y-35204248D01*
X32772989Y-35158493D01*
X32800303Y-35149671D01*
X33051578Y-35099690D01*
X33380705Y-34999850D01*
X33698462Y-34868231D01*
X34001787Y-34706100D01*
X34287760Y-34515019D01*
X34553627Y-34296827D01*
X34796827Y-34053627D01*
X35015019Y-33787760D01*
X35206100Y-33501787D01*
X35368231Y-33198462D01*
X35499850Y-32880705D01*
X35599690Y-32551578D01*
X35627418Y-32412181D01*
X35649671Y-32300309D01*
X35682056Y-32238398D01*
X35742772Y-32203823D01*
X35771288Y-32200500D01*
X41251942Y-32200500D01*
X41318981Y-32220185D01*
G37*
%TD.AperFunction*%
%TD*%
%TA.AperFunction,Conductor*%
%TO.N,PGND*%
G36*
X76642539Y-43020185D02*
G01*
X76688294Y-43072989D01*
X76699500Y-43124500D01*
X76699500Y-60375500D01*
X76679815Y-60442539D01*
X76627011Y-60488294D01*
X76575500Y-60499500D01*
X73000000Y-60499500D01*
X73000000Y-47783713D01*
X73389500Y-47783713D01*
X73389500Y-47996286D01*
X73422753Y-48206239D01*
X73488444Y-48408414D01*
X73584951Y-48597820D01*
X73709890Y-48769786D01*
X73860213Y-48920109D01*
X74032182Y-49045050D01*
X74040946Y-49049516D01*
X74091742Y-49097491D01*
X74108536Y-49165312D01*
X74085998Y-49231447D01*
X74040946Y-49270484D01*
X74032182Y-49274949D01*
X73860213Y-49399890D01*
X73709890Y-49550213D01*
X73584951Y-49722179D01*
X73488444Y-49911585D01*
X73422753Y-50113760D01*
X73389500Y-50323713D01*
X73389500Y-50536286D01*
X73422753Y-50746239D01*
X73488444Y-50948414D01*
X73584951Y-51137820D01*
X73709890Y-51309786D01*
X73860213Y-51460109D01*
X74032182Y-51585050D01*
X74040946Y-51589516D01*
X74091742Y-51637491D01*
X74108536Y-51705312D01*
X74085998Y-51771447D01*
X74040946Y-51810484D01*
X74032182Y-51814949D01*
X73860213Y-51939890D01*
X73709890Y-52090213D01*
X73584951Y-52262179D01*
X73488444Y-52451585D01*
X73422753Y-52653760D01*
X73389500Y-52863713D01*
X73389500Y-53076286D01*
X73422753Y-53286239D01*
X73488444Y-53488414D01*
X73584951Y-53677820D01*
X73709890Y-53849786D01*
X73860213Y-54000109D01*
X74032182Y-54125050D01*
X74040946Y-54129516D01*
X74091742Y-54177491D01*
X74108536Y-54245312D01*
X74085998Y-54311447D01*
X74040946Y-54350484D01*
X74032182Y-54354949D01*
X73860213Y-54479890D01*
X73709890Y-54630213D01*
X73584951Y-54802179D01*
X73488444Y-54991585D01*
X73422753Y-55193760D01*
X73389500Y-55403713D01*
X73389500Y-55616286D01*
X73422753Y-55826239D01*
X73488444Y-56028414D01*
X73584951Y-56217820D01*
X73709890Y-56389786D01*
X73823818Y-56503714D01*
X73857303Y-56565037D01*
X73852319Y-56634729D01*
X73810447Y-56690662D01*
X73779471Y-56707577D01*
X73647912Y-56756646D01*
X73647906Y-56756649D01*
X73532812Y-56842809D01*
X73532809Y-56842812D01*
X73446649Y-56957906D01*
X73446645Y-56957913D01*
X73396403Y-57092620D01*
X73396401Y-57092627D01*
X73390000Y-57152155D01*
X73390000Y-57800000D01*
X74306988Y-57800000D01*
X74274075Y-57857007D01*
X74240000Y-57984174D01*
X74240000Y-58115826D01*
X74274075Y-58242993D01*
X74306988Y-58300000D01*
X73390000Y-58300000D01*
X73390000Y-58947844D01*
X73396401Y-59007372D01*
X73396403Y-59007379D01*
X73446645Y-59142086D01*
X73446649Y-59142093D01*
X73532809Y-59257187D01*
X73532812Y-59257190D01*
X73647906Y-59343350D01*
X73647913Y-59343354D01*
X73782620Y-59393596D01*
X73782627Y-59393598D01*
X73842155Y-59399999D01*
X73842172Y-59400000D01*
X74490000Y-59400000D01*
X74490000Y-58483012D01*
X74547007Y-58515925D01*
X74674174Y-58550000D01*
X74805826Y-58550000D01*
X74932993Y-58515925D01*
X74990000Y-58483012D01*
X74990000Y-59400000D01*
X75637828Y-59400000D01*
X75637844Y-59399999D01*
X75697372Y-59393598D01*
X75697379Y-59393596D01*
X75832086Y-59343354D01*
X75832093Y-59343350D01*
X75947187Y-59257190D01*
X75947190Y-59257187D01*
X76033350Y-59142093D01*
X76033354Y-59142086D01*
X76083596Y-59007379D01*
X76083598Y-59007372D01*
X76089999Y-58947844D01*
X76090000Y-58947827D01*
X76090000Y-58300000D01*
X75173012Y-58300000D01*
X75205925Y-58242993D01*
X75240000Y-58115826D01*
X75240000Y-57984174D01*
X75205925Y-57857007D01*
X75173012Y-57800000D01*
X76090000Y-57800000D01*
X76090000Y-57152172D01*
X76089999Y-57152155D01*
X76083598Y-57092627D01*
X76083596Y-57092620D01*
X76033354Y-56957913D01*
X76033350Y-56957906D01*
X75947190Y-56842812D01*
X75947187Y-56842809D01*
X75832093Y-56756649D01*
X75832088Y-56756646D01*
X75700528Y-56707577D01*
X75644595Y-56665705D01*
X75620178Y-56600241D01*
X75635030Y-56531968D01*
X75656175Y-56503720D01*
X75770104Y-56389792D01*
X75895051Y-56217816D01*
X75991557Y-56028412D01*
X76057246Y-55826243D01*
X76090500Y-55616287D01*
X76090500Y-55403713D01*
X76057246Y-55193757D01*
X75991557Y-54991588D01*
X75895051Y-54802184D01*
X75895049Y-54802181D01*
X75895048Y-54802179D01*
X75770109Y-54630213D01*
X75619786Y-54479890D01*
X75447820Y-54354951D01*
X75447115Y-54354591D01*
X75439054Y-54350485D01*
X75388259Y-54302512D01*
X75371463Y-54234692D01*
X75393999Y-54168556D01*
X75439054Y-54129515D01*
X75447816Y-54125051D01*
X75469789Y-54109086D01*
X75619786Y-54000109D01*
X75619788Y-54000106D01*
X75619792Y-54000104D01*
X75770104Y-53849792D01*
X75770106Y-53849788D01*
X75770109Y-53849786D01*
X75895048Y-53677820D01*
X75895047Y-53677820D01*
X75895051Y-53677816D01*
X75991557Y-53488412D01*
X76057246Y-53286243D01*
X76090500Y-53076287D01*
X76090500Y-52863713D01*
X76057246Y-52653757D01*
X75991557Y-52451588D01*
X75895051Y-52262184D01*
X75895049Y-52262181D01*
X75895048Y-52262179D01*
X75770109Y-52090213D01*
X75619786Y-51939890D01*
X75447820Y-51814951D01*
X75447115Y-51814591D01*
X75439054Y-51810485D01*
X75388259Y-51762512D01*
X75371463Y-51694692D01*
X75393999Y-51628556D01*
X75439054Y-51589515D01*
X75447816Y-51585051D01*
X75469789Y-51569086D01*
X75619786Y-51460109D01*
X75619788Y-51460106D01*
X75619792Y-51460104D01*
X75770104Y-51309792D01*
X75770106Y-51309788D01*
X75770109Y-51309786D01*
X75895048Y-51137820D01*
X75895047Y-51137820D01*
X75895051Y-51137816D01*
X75991557Y-50948412D01*
X76057246Y-50746243D01*
X76090500Y-50536287D01*
X76090500Y-50323713D01*
X76057246Y-50113757D01*
X75991557Y-49911588D01*
X75895051Y-49722184D01*
X75895049Y-49722181D01*
X75895048Y-49722179D01*
X75770109Y-49550213D01*
X75619786Y-49399890D01*
X75447820Y-49274951D01*
X75447115Y-49274591D01*
X75439054Y-49270485D01*
X75388259Y-49222512D01*
X75371463Y-49154692D01*
X75393999Y-49088556D01*
X75439054Y-49049515D01*
X75447816Y-49045051D01*
X75469789Y-49029086D01*
X75619786Y-48920109D01*
X75619788Y-48920106D01*
X75619792Y-48920104D01*
X75770104Y-48769792D01*
X75770106Y-48769788D01*
X75770109Y-48769786D01*
X75895048Y-48597820D01*
X75895047Y-48597820D01*
X75895051Y-48597816D01*
X75991557Y-48408412D01*
X76057246Y-48206243D01*
X76090500Y-47996287D01*
X76090500Y-47783713D01*
X76057246Y-47573757D01*
X75991557Y-47371588D01*
X75895051Y-47182184D01*
X75895049Y-47182181D01*
X75895048Y-47182179D01*
X75770109Y-47010213D01*
X75656181Y-46896285D01*
X75622696Y-46834962D01*
X75627680Y-46765270D01*
X75669552Y-46709337D01*
X75700529Y-46692422D01*
X75832086Y-46643354D01*
X75832093Y-46643350D01*
X75947187Y-46557190D01*
X75947190Y-46557187D01*
X76033350Y-46442093D01*
X76033354Y-46442086D01*
X76083596Y-46307379D01*
X76083598Y-46307372D01*
X76089999Y-46247844D01*
X76090000Y-46247827D01*
X76090000Y-45600000D01*
X75173012Y-45600000D01*
X75205925Y-45542993D01*
X75240000Y-45415826D01*
X75240000Y-45284174D01*
X75205925Y-45157007D01*
X75173012Y-45100000D01*
X76090000Y-45100000D01*
X76090000Y-44452172D01*
X76089999Y-44452155D01*
X76083598Y-44392627D01*
X76083596Y-44392620D01*
X76033354Y-44257913D01*
X76033350Y-44257906D01*
X75947190Y-44142812D01*
X75947187Y-44142809D01*
X75832093Y-44056649D01*
X75832086Y-44056645D01*
X75697379Y-44006403D01*
X75697372Y-44006401D01*
X75637844Y-44000000D01*
X74990000Y-44000000D01*
X74990000Y-44916988D01*
X74932993Y-44884075D01*
X74805826Y-44850000D01*
X74674174Y-44850000D01*
X74547007Y-44884075D01*
X74490000Y-44916988D01*
X74490000Y-44000000D01*
X73842155Y-44000000D01*
X73782627Y-44006401D01*
X73782620Y-44006403D01*
X73647913Y-44056645D01*
X73647906Y-44056649D01*
X73532812Y-44142809D01*
X73532809Y-44142812D01*
X73446649Y-44257906D01*
X73446645Y-44257913D01*
X73396403Y-44392620D01*
X73396401Y-44392627D01*
X73390000Y-44452155D01*
X73390000Y-45100000D01*
X74306988Y-45100000D01*
X74274075Y-45157007D01*
X74240000Y-45284174D01*
X74240000Y-45415826D01*
X74274075Y-45542993D01*
X74306988Y-45600000D01*
X73390000Y-45600000D01*
X73390000Y-46247844D01*
X73396401Y-46307372D01*
X73396403Y-46307379D01*
X73446645Y-46442086D01*
X73446649Y-46442093D01*
X73532809Y-46557187D01*
X73532812Y-46557190D01*
X73647906Y-46643350D01*
X73647913Y-46643354D01*
X73779470Y-46692422D01*
X73835404Y-46734293D01*
X73859821Y-46799758D01*
X73844969Y-46868031D01*
X73823819Y-46896285D01*
X73709889Y-47010215D01*
X73584951Y-47182179D01*
X73488444Y-47371585D01*
X73422753Y-47573760D01*
X73389500Y-47783713D01*
X73000000Y-47783713D01*
X73000000Y-43000500D01*
X76575500Y-43000500D01*
X76642539Y-43020185D01*
G37*
%TD.AperFunction*%
%TD*%
%TA.AperFunction,Conductor*%
%TO.N,PGND*%
G36*
X32500000Y-60595277D02*
G01*
X32393187Y-60533608D01*
X32329539Y-60516554D01*
X32265892Y-60499500D01*
X32265891Y-60499500D01*
X27824500Y-60499500D01*
X27757461Y-60479815D01*
X27711706Y-60427011D01*
X27700500Y-60375500D01*
X27700500Y-47783713D01*
X28309500Y-47783713D01*
X28309500Y-47996286D01*
X28342753Y-48206239D01*
X28408444Y-48408414D01*
X28504951Y-48597820D01*
X28629890Y-48769786D01*
X28780213Y-48920109D01*
X28952182Y-49045050D01*
X28960946Y-49049516D01*
X29011742Y-49097491D01*
X29028536Y-49165312D01*
X29005998Y-49231447D01*
X28960946Y-49270484D01*
X28952182Y-49274949D01*
X28780213Y-49399890D01*
X28629890Y-49550213D01*
X28504951Y-49722179D01*
X28408444Y-49911585D01*
X28342753Y-50113760D01*
X28309500Y-50323713D01*
X28309500Y-50536286D01*
X28342753Y-50746239D01*
X28408444Y-50948414D01*
X28504951Y-51137820D01*
X28629890Y-51309786D01*
X28780213Y-51460109D01*
X28952182Y-51585050D01*
X28960946Y-51589516D01*
X29011742Y-51637491D01*
X29028536Y-51705312D01*
X29005998Y-51771447D01*
X28960946Y-51810484D01*
X28952182Y-51814949D01*
X28780213Y-51939890D01*
X28629890Y-52090213D01*
X28504951Y-52262179D01*
X28408444Y-52451585D01*
X28342753Y-52653760D01*
X28309500Y-52863713D01*
X28309500Y-53076286D01*
X28342753Y-53286239D01*
X28408444Y-53488414D01*
X28504951Y-53677820D01*
X28629890Y-53849786D01*
X28780213Y-54000109D01*
X28952182Y-54125050D01*
X28960946Y-54129516D01*
X29011742Y-54177491D01*
X29028536Y-54245312D01*
X29005998Y-54311447D01*
X28960946Y-54350484D01*
X28952182Y-54354949D01*
X28780213Y-54479890D01*
X28629890Y-54630213D01*
X28504951Y-54802179D01*
X28408444Y-54991585D01*
X28342753Y-55193760D01*
X28309500Y-55403713D01*
X28309500Y-55616286D01*
X28342753Y-55826239D01*
X28408444Y-56028414D01*
X28504951Y-56217820D01*
X28629890Y-56389786D01*
X28743818Y-56503714D01*
X28777303Y-56565037D01*
X28772319Y-56634729D01*
X28730447Y-56690662D01*
X28699471Y-56707577D01*
X28567912Y-56756646D01*
X28567906Y-56756649D01*
X28452812Y-56842809D01*
X28452809Y-56842812D01*
X28366649Y-56957906D01*
X28366645Y-56957913D01*
X28316403Y-57092620D01*
X28316401Y-57092627D01*
X28310000Y-57152155D01*
X28310000Y-57800000D01*
X29226988Y-57800000D01*
X29194075Y-57857007D01*
X29160000Y-57984174D01*
X29160000Y-58115826D01*
X29194075Y-58242993D01*
X29226988Y-58300000D01*
X28310000Y-58300000D01*
X28310000Y-58947844D01*
X28316401Y-59007372D01*
X28316403Y-59007379D01*
X28366645Y-59142086D01*
X28366649Y-59142093D01*
X28452809Y-59257187D01*
X28452812Y-59257190D01*
X28567906Y-59343350D01*
X28567913Y-59343354D01*
X28702620Y-59393596D01*
X28702627Y-59393598D01*
X28762155Y-59399999D01*
X28762172Y-59400000D01*
X29410000Y-59400000D01*
X29410000Y-58483012D01*
X29467007Y-58515925D01*
X29594174Y-58550000D01*
X29725826Y-58550000D01*
X29852993Y-58515925D01*
X29910000Y-58483012D01*
X29910000Y-59400000D01*
X30557828Y-59400000D01*
X30557844Y-59399999D01*
X30617372Y-59393598D01*
X30617379Y-59393596D01*
X30752086Y-59343354D01*
X30752093Y-59343350D01*
X30867187Y-59257190D01*
X30867190Y-59257187D01*
X30953350Y-59142093D01*
X30953354Y-59142086D01*
X31003596Y-59007379D01*
X31003598Y-59007372D01*
X31009999Y-58947844D01*
X31010000Y-58947827D01*
X31010000Y-58300000D01*
X30093012Y-58300000D01*
X30125925Y-58242993D01*
X30160000Y-58115826D01*
X30160000Y-57984174D01*
X30125925Y-57857007D01*
X30093012Y-57800000D01*
X31010000Y-57800000D01*
X31010000Y-57152172D01*
X31009999Y-57152155D01*
X31003598Y-57092627D01*
X31003596Y-57092620D01*
X30953354Y-56957913D01*
X30953350Y-56957906D01*
X30867190Y-56842812D01*
X30867187Y-56842809D01*
X30752093Y-56756649D01*
X30752088Y-56756646D01*
X30620528Y-56707577D01*
X30564595Y-56665705D01*
X30540178Y-56600241D01*
X30555030Y-56531968D01*
X30576175Y-56503720D01*
X30690104Y-56389792D01*
X30815051Y-56217816D01*
X30911557Y-56028412D01*
X30977246Y-55826243D01*
X31010500Y-55616287D01*
X31010500Y-55403713D01*
X30977246Y-55193757D01*
X30911557Y-54991588D01*
X30815051Y-54802184D01*
X30815049Y-54802181D01*
X30815048Y-54802179D01*
X30690109Y-54630213D01*
X30539786Y-54479890D01*
X30367820Y-54354951D01*
X30367115Y-54354591D01*
X30359054Y-54350485D01*
X30308259Y-54302512D01*
X30291463Y-54234692D01*
X30313999Y-54168556D01*
X30359054Y-54129515D01*
X30367816Y-54125051D01*
X30389789Y-54109086D01*
X30539786Y-54000109D01*
X30539788Y-54000106D01*
X30539792Y-54000104D01*
X30690104Y-53849792D01*
X30690106Y-53849788D01*
X30690109Y-53849786D01*
X30815048Y-53677820D01*
X30815047Y-53677820D01*
X30815051Y-53677816D01*
X30911557Y-53488412D01*
X30977246Y-53286243D01*
X31010500Y-53076287D01*
X31010500Y-52863713D01*
X30977246Y-52653757D01*
X30911557Y-52451588D01*
X30815051Y-52262184D01*
X30815049Y-52262181D01*
X30815048Y-52262179D01*
X30690109Y-52090213D01*
X30539786Y-51939890D01*
X30367820Y-51814951D01*
X30367115Y-51814591D01*
X30359054Y-51810485D01*
X30308259Y-51762512D01*
X30291463Y-51694692D01*
X30313999Y-51628556D01*
X30359054Y-51589515D01*
X30367816Y-51585051D01*
X30389789Y-51569086D01*
X30539786Y-51460109D01*
X30539788Y-51460106D01*
X30539792Y-51460104D01*
X30690104Y-51309792D01*
X30690106Y-51309788D01*
X30690109Y-51309786D01*
X30815048Y-51137820D01*
X30815047Y-51137820D01*
X30815051Y-51137816D01*
X30911557Y-50948412D01*
X30977246Y-50746243D01*
X31010500Y-50536287D01*
X31010500Y-50323713D01*
X30977246Y-50113757D01*
X30911557Y-49911588D01*
X30815051Y-49722184D01*
X30815049Y-49722181D01*
X30815048Y-49722179D01*
X30690109Y-49550213D01*
X30539786Y-49399890D01*
X30367820Y-49274951D01*
X30367115Y-49274591D01*
X30359054Y-49270485D01*
X30308259Y-49222512D01*
X30291463Y-49154692D01*
X30313999Y-49088556D01*
X30359054Y-49049515D01*
X30367816Y-49045051D01*
X30389789Y-49029086D01*
X30539786Y-48920109D01*
X30539788Y-48920106D01*
X30539792Y-48920104D01*
X30690104Y-48769792D01*
X30690106Y-48769788D01*
X30690109Y-48769786D01*
X30815048Y-48597820D01*
X30815047Y-48597820D01*
X30815051Y-48597816D01*
X30911557Y-48408412D01*
X30977246Y-48206243D01*
X31010500Y-47996287D01*
X31010500Y-47783713D01*
X30977246Y-47573757D01*
X30911557Y-47371588D01*
X30815051Y-47182184D01*
X30815049Y-47182181D01*
X30815048Y-47182179D01*
X30690109Y-47010213D01*
X30576181Y-46896285D01*
X30542696Y-46834962D01*
X30547680Y-46765270D01*
X30589552Y-46709337D01*
X30620529Y-46692422D01*
X30752086Y-46643354D01*
X30752093Y-46643350D01*
X30867187Y-46557190D01*
X30867190Y-46557187D01*
X30953350Y-46442093D01*
X30953354Y-46442086D01*
X31003596Y-46307379D01*
X31003598Y-46307372D01*
X31009999Y-46247844D01*
X31010000Y-46247827D01*
X31010000Y-45600000D01*
X30093012Y-45600000D01*
X30125925Y-45542993D01*
X30160000Y-45415826D01*
X30160000Y-45284174D01*
X30125925Y-45157007D01*
X30093012Y-45100000D01*
X31010000Y-45100000D01*
X31010000Y-44452172D01*
X31009999Y-44452155D01*
X31003598Y-44392627D01*
X31003596Y-44392620D01*
X30953354Y-44257913D01*
X30953350Y-44257906D01*
X30867190Y-44142812D01*
X30867187Y-44142809D01*
X30752093Y-44056649D01*
X30752086Y-44056645D01*
X30617379Y-44006403D01*
X30617372Y-44006401D01*
X30557844Y-44000000D01*
X29910000Y-44000000D01*
X29910000Y-44916988D01*
X29852993Y-44884075D01*
X29725826Y-44850000D01*
X29594174Y-44850000D01*
X29467007Y-44884075D01*
X29410000Y-44916988D01*
X29410000Y-44000000D01*
X28762155Y-44000000D01*
X28702627Y-44006401D01*
X28702620Y-44006403D01*
X28567913Y-44056645D01*
X28567906Y-44056649D01*
X28452812Y-44142809D01*
X28452809Y-44142812D01*
X28366649Y-44257906D01*
X28366645Y-44257913D01*
X28316403Y-44392620D01*
X28316401Y-44392627D01*
X28310000Y-44452155D01*
X28310000Y-45100000D01*
X29226988Y-45100000D01*
X29194075Y-45157007D01*
X29160000Y-45284174D01*
X29160000Y-45415826D01*
X29194075Y-45542993D01*
X29226988Y-45600000D01*
X28310000Y-45600000D01*
X28310000Y-46247844D01*
X28316401Y-46307372D01*
X28316403Y-46307379D01*
X28366645Y-46442086D01*
X28366649Y-46442093D01*
X28452809Y-46557187D01*
X28452812Y-46557190D01*
X28567906Y-46643350D01*
X28567913Y-46643354D01*
X28699470Y-46692422D01*
X28755404Y-46734293D01*
X28779821Y-46799758D01*
X28764969Y-46868031D01*
X28743819Y-46896285D01*
X28629889Y-47010215D01*
X28504951Y-47182179D01*
X28408444Y-47371585D01*
X28342753Y-47573760D01*
X28309500Y-47783713D01*
X27700500Y-47783713D01*
X27700500Y-43124500D01*
X27720185Y-43057461D01*
X27772989Y-43011706D01*
X27824500Y-43000500D01*
X32265890Y-43000500D01*
X32265892Y-43000500D01*
X32393186Y-42966392D01*
X32500000Y-42904722D01*
X32500000Y-60595277D01*
G37*
%TD.AperFunction*%
%TD*%
M02*
