M48
; DRILL file KiCad 10.0.3 date 2026-06-04T13:32:58
; FORMAT={-:-/ absolute / inch / decimal}
; #@! TF.CreationDate,2026-06-04T13:32:58+09:00
; #@! TF.GenerationSoftware,Kicad,Pcbnew,10.0.3
; #@! TF.FileFunction,Plated,1,2,PTH
FMAT,2
INCH
; #@! TA.AperFunction,Plated,PTH,ViaDrill
T1C0.0118
; #@! TA.AperFunction,Plated,PTH,ViaDrill
T2C0.0236
; #@! TA.AperFunction,Plated,PTH,ComponentDrill
T3C0.0315
; #@! TA.AperFunction,Plated,PTH,ComponentDrill
T4C0.0394
; #@! TA.AperFunction,Plated,PTH,ComponentDrill
T5C0.0433
; #@! TA.AperFunction,Plated,PTH,ComponentDrill
T6C0.0512
%
G90
G05
T1
X1.5158Y-1.4961
X1.5669Y-1.8346
T2
X1.5276Y-1.6693
T3
X1.3386Y-2.498
X1.3386Y-2.5768
X1.4173Y-1.9764
X1.4173Y-2.0551
X1.7913Y-1.3543
X1.8701Y-1.3543
X1.9488Y-1.3543
X2.2047Y-1.3543
X2.2835Y-1.3543
X2.6673Y-2.5689
X2.6673Y-2.6476
T4
X1.1677Y-1.7854
X1.1677Y-1.8854
X1.1677Y-1.9854
X1.1677Y-2.0854
X1.1677Y-2.1854
X1.1677Y-2.2854
X2.9425Y-1.7854
X2.9425Y-1.8854
X2.9425Y-1.9854
X2.9425Y-2.0854
X2.9425Y-2.1854
X2.9425Y-2.2854
T5
X1.6738Y-1.6706
X1.6738Y-1.769
X1.6738Y-1.8702
X1.6738Y-2.0697
X1.6744Y-1.4717
X2.77Y-2.0782
X2.7706Y-1.4801
T6
X1.7646Y-2.2162
X1.7646Y-2.3162
X1.7646Y-2.6362
X1.7646Y-2.7362
X2.4946Y-2.2162
X2.4946Y-2.3162
X2.4946Y-2.6362
X2.4946Y-2.7362
M30
