M48
; DRILL file KiCad 10.0.1 date 2026-05-16T15:39:36
; FORMAT={-:-/ absolute / inch / decimal}
; #@! TF.CreationDate,2026-05-16T15:39:36+09:00
; #@! TF.GenerationSoftware,Kicad,Pcbnew,10.0.1
; #@! TF.FileFunction,Plated,1,2,PTH
FMAT,2
INCH
; #@! TA.AperFunction,Plated,PTH,ViaDrill
T1C0.0118
; #@! TA.AperFunction,Plated,PTH,ComponentDrill
T2C0.0315
; #@! TA.AperFunction,Plated,PTH,ComponentDrill
T3C0.0394
; #@! TA.AperFunction,Plated,PTH,ComponentDrill
T4C0.0433
; #@! TA.AperFunction,Plated,PTH,ComponentDrill
T5C0.0512
%
G90
G05
T1
X5.3543Y-3.2362
X5.7776Y-2.9035
T2
X5.4116Y-2.7874
X5.4116Y-2.8661
X5.4116Y-2.9449
X5.4116Y-3.0236
X5.4222Y-2.283
X5.4222Y-2.3617
X5.4222Y-2.4404
X5.4245Y-3.3268
X5.4245Y-3.4055
X5.59Y-3.5073
X5.6687Y-3.5073
X6.4465Y-2.1087
X6.5252Y-2.1087
X6.7004Y-3.3008
X6.7004Y-3.3795
T3
X5.5512Y-2.9134
T4
X5.5478Y-2.4108
X5.5478Y-2.5091
X5.5478Y-2.6103
X5.5478Y-2.8099
X5.5484Y-2.2118
X6.644Y-2.8183
X6.6446Y-2.2202
T5
X5.8118Y-3.0154
X5.8118Y-3.1154
X5.8118Y-3.4354
X5.8118Y-3.5354
X6.5418Y-3.0154
X6.5418Y-3.1154
X6.5418Y-3.4354
X6.5418Y-3.5354
M30
