%TF.GenerationSoftware,KiCad,Pcbnew,10.0.1*%
%TF.CreationDate,2026-05-16T15:39:36+09:00*%
%TF.ProjectId,power_IP2326_MP1584,706f7765-725f-4495-9032-3332365f4d50,rev?*%
%TF.SameCoordinates,Original*%
%TF.FileFunction,Copper,L2,Bot*%
%TF.FilePolarity,Positive*%
%FSLAX46Y46*%
G04 Gerber Fmt 4.6, Leading zero omitted, Abs format (unit mm)*
G04 Created by KiCad (PCBNEW 10.0.1) date 2026-05-16 15:39:36*
%MOMM*%
%LPD*%
G01*
G04 APERTURE LIST*
%TA.AperFunction,ComponentPad*%
%ADD10R,1.350000X1.350000*%
%TD*%
%TA.AperFunction,ComponentPad*%
%ADD11C,1.350000*%
%TD*%
%TA.AperFunction,ComponentPad*%
%ADD12C,1.700000*%
%TD*%
%TA.AperFunction,ComponentPad*%
%ADD13C,2.000000*%
%TD*%
%TA.AperFunction,ViaPad*%
%ADD14C,0.600000*%
%TD*%
%TA.AperFunction,Conductor*%
%ADD15C,0.200000*%
%TD*%
%TA.AperFunction,Conductor*%
%ADD16C,1.000000*%
%TD*%
G04 APERTURE END LIST*
D10*
%TO.P,J3,1,Pin_1_1*%
%TO.N,PGND*%
X170190000Y-85840000D03*
D11*
%TO.P,J3,2,Pin_2_2*%
%TO.N,VIN*%
X170190000Y-83840000D03*
%TD*%
D12*
%TO.P,U2,1,B+_1*%
%TO.N,P+*%
X140914971Y-61233697D03*
X140930000Y-56180000D03*
%TO.P,U2,2,BM_2*%
%TO.N,BM*%
X140914971Y-63732365D03*
%TO.P,U2,3,B-_3*%
%TO.N,P-*%
X140914971Y-66302422D03*
X140914971Y-71371148D03*
%TO.P,U2,4,VIN_4*%
%TO.N,POUT*%
X168757267Y-71585320D03*
%TO.P,U2,5,GND_5*%
%TO.N,PGND*%
X168772296Y-56394172D03*
%TD*%
D10*
%TO.P,J14,1,Pin_1_1*%
%TO.N,PGND*%
X165740000Y-53560000D03*
D11*
%TO.P,J14,2,Pin_2_2*%
%TO.N,POUT*%
X163740000Y-53560000D03*
%TD*%
D10*
%TO.P,J2,1,Pin_1_1*%
%TO.N,P-*%
X137724115Y-61987411D03*
D11*
%TO.P,J2,2,Pin_2_2*%
%TO.N,BM*%
X137724115Y-59987411D03*
%TO.P,J2,3,Pin_3_3*%
%TO.N,P+*%
X137724115Y-57987411D03*
%TD*%
D12*
%TO.P,J8,1,Pin_1_1*%
%TO.N,EN*%
X141000000Y-74000000D03*
%TD*%
D10*
%TO.P,J4,1,Pin_1_1*%
%TO.N,PGND*%
X143985939Y-89085090D03*
D11*
%TO.P,J4,2,Pin_2_2*%
%TO.N,VOUT*%
X141985939Y-89085090D03*
%TD*%
D13*
%TO.P,U3,1,IN-_1*%
%TO.N,PGND*%
X166161608Y-89799133D03*
X166161608Y-87259133D03*
%TO.P,U3,2,IN+_2*%
%TO.N,VIN*%
X166161608Y-79131133D03*
X166161608Y-76591133D03*
%TO.P,U3,3,OUT+_3*%
%TO.N,VOUT*%
X147619608Y-79131133D03*
X147619608Y-76591133D03*
%TO.P,U3,4,OUT-_4*%
%TO.N,PGND*%
X147619608Y-89799133D03*
X147619608Y-87259133D03*
%TD*%
D10*
%TO.P,J9,1,Pin_1_1*%
%TO.N,PGND*%
X137782724Y-86500000D03*
D11*
%TO.P,J9,2,Pin_2_2*%
%TO.N,VOUT*%
X137782724Y-84500000D03*
%TD*%
D10*
%TO.P,J7,1,Pin_1_1*%
%TO.N,PGND*%
X137453528Y-70799309D03*
D11*
%TO.P,J7,2,Pin_2_2*%
%TO.N,VCC*%
X137453528Y-72799309D03*
%TO.P,J7,3,Pin_3_3*%
X137453528Y-74799309D03*
%TO.P,J7,4,Pin_4_4*%
%TO.N,SWITCH*%
X137453528Y-76799309D03*
%TD*%
D14*
%TO.N,EN*%
X136000000Y-82200000D03*
%TO.N,PGND*%
X146750000Y-73750000D03*
%TD*%
%TO.N,EN*%
D15*
X136000000Y-82200000D02*
X138800000Y-82200000D01*
X139400000Y-81600000D02*
X139400000Y-75750000D01*
X139400000Y-75750000D02*
X141000000Y-74150000D01*
X138800000Y-82200000D02*
X139400000Y-81600000D01*
%TO.N,PGND*%
D16*
X146905565Y-89085090D02*
X143985939Y-89085090D01*
X143985939Y-90038675D02*
X143985939Y-89085090D01*
D15*
X143400000Y-72800000D02*
X139454219Y-72800000D01*
D16*
X168770867Y-87259133D02*
X166161608Y-87259133D01*
X170190000Y-85840000D02*
X168770867Y-87259133D01*
X143146982Y-90877632D02*
X143985939Y-90038675D01*
D15*
X144350000Y-73750000D02*
X143400000Y-72800000D01*
D16*
X147658000Y-86560000D02*
X147658000Y-89760741D01*
X137782724Y-88159790D02*
X140500566Y-90877632D01*
D15*
X139454219Y-72800000D02*
X137453528Y-70799309D01*
D16*
X147619608Y-89799133D02*
X146905565Y-89085090D01*
X147658000Y-89760741D02*
X147619608Y-89799133D01*
D15*
X146750000Y-73750000D02*
X144350000Y-73750000D01*
D16*
X137782724Y-86500000D02*
X137782724Y-88159790D01*
X166161608Y-89799133D02*
X166161608Y-87259133D01*
X140500566Y-90877632D02*
X143146982Y-90877632D01*
%TO.N,P-*%
X140714971Y-66502422D02*
X140914971Y-66302422D01*
X137724115Y-61987411D02*
X137724115Y-65824115D01*
X140914971Y-66302422D02*
X140914971Y-71371148D01*
X138402422Y-66502422D02*
X140714971Y-66502422D01*
X137724115Y-65824115D02*
X138402422Y-66502422D01*
%TD*%
%TA.AperFunction,Conductor*%
%TO.N,PGND*%
G36*
X162904769Y-52520185D02*
G01*
X162950524Y-52572989D01*
X162960468Y-52642147D01*
X162931443Y-52705703D01*
X162925411Y-52712181D01*
X162843381Y-52794210D01*
X162843381Y-52794211D01*
X162843379Y-52794213D01*
X162801705Y-52851572D01*
X162734622Y-52943903D01*
X162650620Y-53108764D01*
X162650619Y-53108767D01*
X162593445Y-53284734D01*
X162564500Y-53467486D01*
X162564500Y-53652513D01*
X162593445Y-53835265D01*
X162650619Y-54011232D01*
X162650620Y-54011235D01*
X162689612Y-54087760D01*
X162734622Y-54176096D01*
X162843379Y-54325787D01*
X162974213Y-54456621D01*
X163123904Y-54565378D01*
X163185616Y-54596822D01*
X163288764Y-54649379D01*
X163288767Y-54649380D01*
X163376750Y-54677967D01*
X163464736Y-54706555D01*
X163647486Y-54735500D01*
X163647487Y-54735500D01*
X163832513Y-54735500D01*
X163832514Y-54735500D01*
X164015264Y-54706555D01*
X164191235Y-54649379D01*
X164356096Y-54565378D01*
X164472013Y-54481158D01*
X164537816Y-54457680D01*
X164605870Y-54473505D01*
X164644162Y-54507166D01*
X164707812Y-54592190D01*
X164822906Y-54678350D01*
X164822913Y-54678354D01*
X164957620Y-54728596D01*
X164957627Y-54728598D01*
X165017155Y-54734999D01*
X165017172Y-54735000D01*
X165490000Y-54735000D01*
X165490000Y-53875686D01*
X165494394Y-53880080D01*
X165585606Y-53932741D01*
X165687339Y-53960000D01*
X165792661Y-53960000D01*
X165894394Y-53932741D01*
X165985606Y-53880080D01*
X165990000Y-53875686D01*
X165990000Y-54735000D01*
X166462828Y-54735000D01*
X166462844Y-54734999D01*
X166522372Y-54728598D01*
X166522379Y-54728596D01*
X166657086Y-54678354D01*
X166657093Y-54678350D01*
X166772187Y-54592190D01*
X166772190Y-54592187D01*
X166858350Y-54477093D01*
X166858354Y-54477086D01*
X166908596Y-54342379D01*
X166908598Y-54342372D01*
X166914999Y-54282844D01*
X166915000Y-54282827D01*
X166915000Y-53810000D01*
X166055686Y-53810000D01*
X166060080Y-53805606D01*
X166112741Y-53714394D01*
X166140000Y-53612661D01*
X166140000Y-53507339D01*
X166112741Y-53405606D01*
X166060080Y-53314394D01*
X166055686Y-53310000D01*
X166915000Y-53310000D01*
X166915000Y-52837172D01*
X166914999Y-52837155D01*
X166908598Y-52777627D01*
X166908596Y-52777620D01*
X166867649Y-52667833D01*
X166862665Y-52598141D01*
X166896150Y-52536818D01*
X166957474Y-52503334D01*
X166983831Y-52500500D01*
X171428712Y-52500500D01*
X171495751Y-52520185D01*
X171541506Y-52572989D01*
X171550329Y-52600309D01*
X171600308Y-52851572D01*
X171700150Y-53180706D01*
X171831770Y-53498464D01*
X171831772Y-53498469D01*
X171993893Y-53801775D01*
X171993904Y-53801793D01*
X172184975Y-54087751D01*
X172184985Y-54087765D01*
X172403177Y-54353632D01*
X172646367Y-54596822D01*
X172646372Y-54596826D01*
X172646373Y-54596827D01*
X172912240Y-54815019D01*
X173198213Y-55006100D01*
X173198222Y-55006105D01*
X173198224Y-55006106D01*
X173501530Y-55168227D01*
X173501532Y-55168227D01*
X173501538Y-55168231D01*
X173819295Y-55299850D01*
X174148422Y-55399690D01*
X174399693Y-55449671D01*
X174461602Y-55482055D01*
X174496176Y-55542770D01*
X174499500Y-55571287D01*
X174499500Y-56375500D01*
X174479815Y-56442539D01*
X174427011Y-56488294D01*
X174375500Y-56499500D01*
X170565892Y-56499500D01*
X170434108Y-56499500D01*
X170306814Y-56533608D01*
X170306813Y-56533608D01*
X170306811Y-56533609D01*
X170299300Y-56536720D01*
X170298628Y-56535098D01*
X170240383Y-56549223D01*
X170174359Y-56526364D01*
X170131174Y-56471438D01*
X170122296Y-56425364D01*
X170122296Y-56287925D01*
X170089053Y-56078044D01*
X170089053Y-56078041D01*
X170023391Y-55875954D01*
X169926920Y-55686621D01*
X169887566Y-55632454D01*
X169887565Y-55632454D01*
X169296083Y-56223937D01*
X169284814Y-56181880D01*
X169212406Y-56056464D01*
X169110004Y-55954062D01*
X168984588Y-55881654D01*
X168942529Y-55870384D01*
X169534012Y-55278900D01*
X169479846Y-55239547D01*
X169290513Y-55143076D01*
X169088425Y-55077414D01*
X168878542Y-55044172D01*
X168666050Y-55044172D01*
X168456168Y-55077414D01*
X168456165Y-55077414D01*
X168254078Y-55143076D01*
X168064735Y-55239552D01*
X168010578Y-55278899D01*
X168010578Y-55278900D01*
X168602062Y-55870384D01*
X168560004Y-55881654D01*
X168434588Y-55954062D01*
X168332186Y-56056464D01*
X168259778Y-56181880D01*
X168248508Y-56223938D01*
X167657024Y-55632454D01*
X167657023Y-55632454D01*
X167617676Y-55686611D01*
X167521200Y-55875954D01*
X167455538Y-56078041D01*
X167455538Y-56078044D01*
X167422296Y-56287925D01*
X167422296Y-56500418D01*
X167455538Y-56710299D01*
X167455538Y-56710302D01*
X167521200Y-56912389D01*
X167617671Y-57101722D01*
X167657024Y-57155888D01*
X168248507Y-56564404D01*
X168259778Y-56606464D01*
X168332186Y-56731880D01*
X168434588Y-56834282D01*
X168560004Y-56906690D01*
X168602061Y-56917959D01*
X168010578Y-57509441D01*
X168010578Y-57509442D01*
X168064745Y-57548796D01*
X168254078Y-57645267D01*
X168456166Y-57710929D01*
X168666050Y-57744172D01*
X168878542Y-57744172D01*
X169088423Y-57710929D01*
X169088426Y-57710929D01*
X169290513Y-57645267D01*
X169479850Y-57548794D01*
X169534012Y-57509442D01*
X169534013Y-57509442D01*
X168942529Y-56917959D01*
X168984588Y-56906690D01*
X169110004Y-56834282D01*
X169212406Y-56731880D01*
X169284814Y-56606464D01*
X169296083Y-56564405D01*
X169895533Y-57163856D01*
X169934148Y-57171968D01*
X169983905Y-57221019D01*
X169999500Y-57281222D01*
X169999500Y-70618295D01*
X169979815Y-70685334D01*
X169927011Y-70731089D01*
X169857853Y-70741033D01*
X169794297Y-70712008D01*
X169787819Y-70705976D01*
X169637053Y-70555210D01*
X169465087Y-70430271D01*
X169275681Y-70333764D01*
X169275680Y-70333763D01*
X169275679Y-70333763D01*
X169073510Y-70268074D01*
X169073508Y-70268073D01*
X169073507Y-70268073D01*
X168912224Y-70242528D01*
X168863554Y-70234820D01*
X168650980Y-70234820D01*
X168602309Y-70242528D01*
X168441027Y-70268073D01*
X168238852Y-70333764D01*
X168049446Y-70430271D01*
X167877480Y-70555210D01*
X167727157Y-70705533D01*
X167602218Y-70877499D01*
X167505711Y-71066905D01*
X167440020Y-71269080D01*
X167407020Y-71477434D01*
X167406767Y-71479033D01*
X167406767Y-71691607D01*
X167440021Y-71901563D01*
X167505263Y-72102357D01*
X167505711Y-72103734D01*
X167602218Y-72293140D01*
X167727157Y-72465106D01*
X167877480Y-72615429D01*
X168049446Y-72740368D01*
X168049448Y-72740369D01*
X168049451Y-72740371D01*
X168238855Y-72836877D01*
X168441024Y-72902566D01*
X168650980Y-72935820D01*
X168650981Y-72935820D01*
X168863553Y-72935820D01*
X168863554Y-72935820D01*
X169073510Y-72902566D01*
X169275679Y-72836877D01*
X169465083Y-72740371D01*
X169577632Y-72658600D01*
X169637053Y-72615429D01*
X169637055Y-72615426D01*
X169637059Y-72615424D01*
X169787371Y-72465112D01*
X169900458Y-72309458D01*
X169955786Y-72266795D01*
X170025399Y-72260816D01*
X170087194Y-72293421D01*
X170099145Y-72306851D01*
X170099499Y-72307312D01*
X170099500Y-72307314D01*
X170192686Y-72400500D01*
X170291521Y-72457563D01*
X170304586Y-72465106D01*
X170306814Y-72466392D01*
X170434108Y-72500500D01*
X174375500Y-72500500D01*
X174442539Y-72520185D01*
X174488294Y-72572989D01*
X174499500Y-72624500D01*
X174499500Y-88428711D01*
X174479815Y-88495750D01*
X174427011Y-88541505D01*
X174399692Y-88550328D01*
X174148426Y-88600309D01*
X174148424Y-88600309D01*
X174148422Y-88600310D01*
X174062783Y-88626288D01*
X173819293Y-88700150D01*
X173501535Y-88831770D01*
X173501530Y-88831772D01*
X173198224Y-88993893D01*
X173198206Y-88993904D01*
X172912248Y-89184975D01*
X172912234Y-89184985D01*
X172646367Y-89403177D01*
X172403177Y-89646367D01*
X172184985Y-89912234D01*
X172184975Y-89912248D01*
X171993904Y-90198206D01*
X171993893Y-90198224D01*
X171831772Y-90501530D01*
X171831770Y-90501535D01*
X171700150Y-90819293D01*
X171600308Y-91148427D01*
X171550329Y-91399691D01*
X171517944Y-91461602D01*
X171457228Y-91496177D01*
X171428712Y-91499500D01*
X166565422Y-91499500D01*
X166498383Y-91479815D01*
X166452628Y-91427011D01*
X166442684Y-91357853D01*
X166471709Y-91294297D01*
X166527104Y-91257569D01*
X166737410Y-91189235D01*
X166947771Y-91082051D01*
X166947777Y-91082047D01*
X167030712Y-91021791D01*
X167030713Y-91021791D01*
X166409096Y-90400174D01*
X166469498Y-90375155D01*
X166575959Y-90304021D01*
X166666496Y-90213484D01*
X166737630Y-90107023D01*
X166762649Y-90046621D01*
X167384266Y-90668238D01*
X167384266Y-90668237D01*
X167444522Y-90585302D01*
X167444526Y-90585296D01*
X167551710Y-90374935D01*
X167624673Y-90150380D01*
X167661608Y-89917185D01*
X167661608Y-89681080D01*
X167624673Y-89447885D01*
X167551710Y-89223330D01*
X167444522Y-89012961D01*
X167384266Y-88930027D01*
X167384266Y-88930026D01*
X166762649Y-89551644D01*
X166737630Y-89491243D01*
X166666496Y-89384782D01*
X166575959Y-89294245D01*
X166469498Y-89223111D01*
X166409095Y-89198091D01*
X167030712Y-88576473D01*
X167027752Y-88538868D01*
X167027752Y-88519408D01*
X167030712Y-88481790D01*
X166409096Y-87860174D01*
X166469498Y-87835155D01*
X166575959Y-87764021D01*
X166666496Y-87673484D01*
X166737630Y-87567023D01*
X166762649Y-87506621D01*
X167384266Y-88128238D01*
X167384266Y-88128237D01*
X167444522Y-88045302D01*
X167444526Y-88045296D01*
X167551710Y-87834935D01*
X167624673Y-87610380D01*
X167661608Y-87377185D01*
X167661608Y-87141080D01*
X167624673Y-86907885D01*
X167551710Y-86683330D01*
X167444522Y-86472961D01*
X167384266Y-86390027D01*
X167384266Y-86390026D01*
X166762649Y-87011644D01*
X166737630Y-86951243D01*
X166666496Y-86844782D01*
X166575959Y-86754245D01*
X166469498Y-86683111D01*
X166409096Y-86658091D01*
X167030713Y-86036474D01*
X167030712Y-86036471D01*
X166947782Y-85976220D01*
X166737410Y-85869030D01*
X166512855Y-85796067D01*
X166512856Y-85796067D01*
X166279660Y-85759133D01*
X166043556Y-85759133D01*
X165810360Y-85796067D01*
X165585805Y-85869030D01*
X165375438Y-85976217D01*
X165292502Y-86036473D01*
X165914120Y-86658091D01*
X165853718Y-86683111D01*
X165747257Y-86754245D01*
X165656720Y-86844782D01*
X165585586Y-86951243D01*
X165560566Y-87011645D01*
X164938948Y-86390027D01*
X164878692Y-86472963D01*
X164771505Y-86683330D01*
X164698542Y-86907885D01*
X164661608Y-87141080D01*
X164661608Y-87377185D01*
X164698542Y-87610380D01*
X164771505Y-87834935D01*
X164878695Y-88045307D01*
X164938946Y-88128237D01*
X164938948Y-88128238D01*
X165560566Y-87506620D01*
X165585586Y-87567023D01*
X165656720Y-87673484D01*
X165747257Y-87764021D01*
X165853718Y-87835155D01*
X165914119Y-87860174D01*
X165292501Y-88481791D01*
X165295462Y-88519409D01*
X165295462Y-88538866D01*
X165292502Y-88576473D01*
X165914120Y-89198091D01*
X165853718Y-89223111D01*
X165747257Y-89294245D01*
X165656720Y-89384782D01*
X165585586Y-89491243D01*
X165560566Y-89551645D01*
X164938948Y-88930027D01*
X164878692Y-89012963D01*
X164771505Y-89223330D01*
X164698542Y-89447885D01*
X164661608Y-89681080D01*
X164661608Y-89917185D01*
X164698542Y-90150380D01*
X164771505Y-90374935D01*
X164878695Y-90585307D01*
X164938946Y-90668237D01*
X164938948Y-90668238D01*
X165560566Y-90046620D01*
X165585586Y-90107023D01*
X165656720Y-90213484D01*
X165747257Y-90304021D01*
X165853718Y-90375155D01*
X165914119Y-90400174D01*
X165292501Y-91021791D01*
X165375436Y-91082047D01*
X165585805Y-91189235D01*
X165796112Y-91257569D01*
X165853788Y-91297007D01*
X165880986Y-91361365D01*
X165869071Y-91430212D01*
X165821827Y-91481687D01*
X165757794Y-91499500D01*
X148023422Y-91499500D01*
X147956383Y-91479815D01*
X147910628Y-91427011D01*
X147900684Y-91357853D01*
X147929709Y-91294297D01*
X147985104Y-91257569D01*
X148195410Y-91189235D01*
X148405771Y-91082051D01*
X148405777Y-91082047D01*
X148488712Y-91021791D01*
X148488713Y-91021791D01*
X147867096Y-90400174D01*
X147927498Y-90375155D01*
X148033959Y-90304021D01*
X148124496Y-90213484D01*
X148195630Y-90107023D01*
X148220649Y-90046621D01*
X148842266Y-90668238D01*
X148842266Y-90668237D01*
X148902522Y-90585302D01*
X148902526Y-90585296D01*
X149009710Y-90374935D01*
X149082673Y-90150380D01*
X149119608Y-89917185D01*
X149119608Y-89681080D01*
X149082673Y-89447885D01*
X149009710Y-89223330D01*
X148902522Y-89012961D01*
X148842266Y-88930027D01*
X148842266Y-88930026D01*
X148220649Y-89551644D01*
X148195630Y-89491243D01*
X148124496Y-89384782D01*
X148033959Y-89294245D01*
X147927498Y-89223111D01*
X147867095Y-89198091D01*
X148488712Y-88576473D01*
X148485752Y-88538868D01*
X148485752Y-88519408D01*
X148488712Y-88481790D01*
X147867096Y-87860174D01*
X147927498Y-87835155D01*
X148033959Y-87764021D01*
X148124496Y-87673484D01*
X148195630Y-87567023D01*
X148220649Y-87506621D01*
X148842266Y-88128238D01*
X148842266Y-88128237D01*
X148902522Y-88045302D01*
X148902526Y-88045296D01*
X149009710Y-87834935D01*
X149082673Y-87610380D01*
X149119608Y-87377185D01*
X149119608Y-87141080D01*
X149082673Y-86907885D01*
X149009710Y-86683330D01*
X148902522Y-86472961D01*
X148842266Y-86390027D01*
X148842266Y-86390026D01*
X148220649Y-87011644D01*
X148195630Y-86951243D01*
X148124496Y-86844782D01*
X148033959Y-86754245D01*
X147927498Y-86683111D01*
X147867096Y-86658091D01*
X148488713Y-86036473D01*
X148488712Y-86036472D01*
X148405782Y-85976220D01*
X148195410Y-85869030D01*
X147970855Y-85796067D01*
X147970856Y-85796067D01*
X147737660Y-85759133D01*
X147501556Y-85759133D01*
X147268360Y-85796067D01*
X147043805Y-85869030D01*
X146833438Y-85976217D01*
X146750502Y-86036473D01*
X147372120Y-86658091D01*
X147311718Y-86683111D01*
X147205257Y-86754245D01*
X147114720Y-86844782D01*
X147043586Y-86951243D01*
X147018566Y-87011644D01*
X146396948Y-86390027D01*
X146336692Y-86472963D01*
X146229505Y-86683330D01*
X146156542Y-86907885D01*
X146119608Y-87141080D01*
X146119608Y-87377185D01*
X146156542Y-87610380D01*
X146229505Y-87834935D01*
X146336695Y-88045307D01*
X146396946Y-88128237D01*
X146396948Y-88128238D01*
X147018566Y-87506620D01*
X147043586Y-87567023D01*
X147114720Y-87673484D01*
X147205257Y-87764021D01*
X147311718Y-87835155D01*
X147372119Y-87860174D01*
X146750501Y-88481791D01*
X146753462Y-88519409D01*
X146753462Y-88538866D01*
X146750502Y-88576473D01*
X147372120Y-89198091D01*
X147311718Y-89223111D01*
X147205257Y-89294245D01*
X147114720Y-89384782D01*
X147043586Y-89491243D01*
X147018566Y-89551644D01*
X146396948Y-88930027D01*
X146336692Y-89012963D01*
X146229505Y-89223330D01*
X146156542Y-89447885D01*
X146119608Y-89681080D01*
X146119608Y-89917185D01*
X146156542Y-90150380D01*
X146229505Y-90374935D01*
X146336695Y-90585307D01*
X146396946Y-90668237D01*
X146396948Y-90668238D01*
X147018566Y-90046620D01*
X147043586Y-90107023D01*
X147114720Y-90213484D01*
X147205257Y-90304021D01*
X147311718Y-90375155D01*
X147372119Y-90400174D01*
X146750501Y-91021791D01*
X146833436Y-91082047D01*
X147043805Y-91189235D01*
X147254112Y-91257569D01*
X147311788Y-91297007D01*
X147338986Y-91361365D01*
X147327071Y-91430212D01*
X147279827Y-91481687D01*
X147215794Y-91499500D01*
X138571288Y-91499500D01*
X138504249Y-91479815D01*
X138458494Y-91427011D01*
X138449671Y-91399691D01*
X138399691Y-91148427D01*
X138399690Y-91148426D01*
X138399690Y-91148422D01*
X138299850Y-90819295D01*
X138168231Y-90501538D01*
X138126868Y-90424154D01*
X138006106Y-90198224D01*
X138006105Y-90198222D01*
X138006100Y-90198213D01*
X137815019Y-89912240D01*
X137596827Y-89646373D01*
X137596826Y-89646372D01*
X137596822Y-89646367D01*
X137353632Y-89403177D01*
X137087765Y-89184985D01*
X137087764Y-89184984D01*
X137087760Y-89184981D01*
X136801787Y-88993900D01*
X136801782Y-88993897D01*
X136801775Y-88993893D01*
X136799311Y-88992576D01*
X140810439Y-88992576D01*
X140810439Y-89177604D01*
X140811608Y-89184985D01*
X140839384Y-89360355D01*
X140896558Y-89536322D01*
X140896559Y-89536325D01*
X140933862Y-89609535D01*
X140980561Y-89701186D01*
X141089318Y-89850877D01*
X141220152Y-89981711D01*
X141369843Y-90090468D01*
X141445659Y-90129098D01*
X141534703Y-90174469D01*
X141534706Y-90174470D01*
X141607781Y-90198213D01*
X141710675Y-90231645D01*
X141893425Y-90260590D01*
X141893426Y-90260590D01*
X142078452Y-90260590D01*
X142078453Y-90260590D01*
X142261203Y-90231645D01*
X142437174Y-90174469D01*
X142602035Y-90090468D01*
X142717952Y-90006248D01*
X142783755Y-89982770D01*
X142851809Y-89998595D01*
X142890101Y-90032256D01*
X142953751Y-90117280D01*
X143068845Y-90203440D01*
X143068852Y-90203444D01*
X143203559Y-90253686D01*
X143203566Y-90253688D01*
X143263094Y-90260089D01*
X143263111Y-90260090D01*
X143735939Y-90260090D01*
X143735939Y-89400776D01*
X143740333Y-89405170D01*
X143831545Y-89457831D01*
X143933278Y-89485090D01*
X144038600Y-89485090D01*
X144140333Y-89457831D01*
X144231545Y-89405170D01*
X144235939Y-89400776D01*
X144235939Y-90260090D01*
X144708767Y-90260090D01*
X144708783Y-90260089D01*
X144768311Y-90253688D01*
X144768318Y-90253686D01*
X144903025Y-90203444D01*
X144903032Y-90203440D01*
X145018126Y-90117280D01*
X145018129Y-90117277D01*
X145104289Y-90002183D01*
X145104293Y-90002176D01*
X145154535Y-89867469D01*
X145154537Y-89867462D01*
X145160938Y-89807934D01*
X145160939Y-89807917D01*
X145160939Y-89335090D01*
X144301625Y-89335090D01*
X144306019Y-89330696D01*
X144358680Y-89239484D01*
X144385939Y-89137751D01*
X144385939Y-89032429D01*
X144358680Y-88930696D01*
X144306019Y-88839484D01*
X144301625Y-88835090D01*
X145160939Y-88835090D01*
X145160939Y-88362262D01*
X145160938Y-88362245D01*
X145154537Y-88302717D01*
X145154535Y-88302710D01*
X145104293Y-88168003D01*
X145104289Y-88167996D01*
X145018129Y-88052902D01*
X145018126Y-88052899D01*
X144903032Y-87966739D01*
X144903025Y-87966735D01*
X144768318Y-87916493D01*
X144768311Y-87916491D01*
X144708783Y-87910090D01*
X144235939Y-87910090D01*
X144235939Y-88769404D01*
X144231545Y-88765010D01*
X144140333Y-88712349D01*
X144038600Y-88685090D01*
X143933278Y-88685090D01*
X143831545Y-88712349D01*
X143740333Y-88765010D01*
X143735939Y-88769404D01*
X143735939Y-87910090D01*
X143263094Y-87910090D01*
X143203566Y-87916491D01*
X143203559Y-87916493D01*
X143068852Y-87966735D01*
X143068845Y-87966739D01*
X142953752Y-88052899D01*
X142890103Y-88137923D01*
X142834169Y-88179794D01*
X142764477Y-88184778D01*
X142717952Y-88163931D01*
X142602035Y-88079712D01*
X142437174Y-87995710D01*
X142437171Y-87995709D01*
X142261204Y-87938535D01*
X142122036Y-87916493D01*
X142078453Y-87909590D01*
X141893425Y-87909590D01*
X141849854Y-87916491D01*
X141710673Y-87938535D01*
X141534706Y-87995709D01*
X141534703Y-87995710D01*
X141369842Y-88079712D01*
X141284438Y-88141762D01*
X141220152Y-88188469D01*
X141220150Y-88188471D01*
X141220149Y-88188471D01*
X141089320Y-88319300D01*
X141089320Y-88319301D01*
X141089318Y-88319303D01*
X141042611Y-88383589D01*
X140980561Y-88468993D01*
X140896559Y-88633854D01*
X140896558Y-88633857D01*
X140839384Y-88809824D01*
X140820346Y-88930026D01*
X140810439Y-88992576D01*
X136799311Y-88992576D01*
X136498469Y-88831772D01*
X136498464Y-88831770D01*
X136180706Y-88700150D01*
X136058960Y-88663219D01*
X135851578Y-88600310D01*
X135851573Y-88600309D01*
X135600308Y-88550328D01*
X135538397Y-88517943D01*
X135503823Y-88457227D01*
X135500500Y-88428711D01*
X135500500Y-84407486D01*
X136607224Y-84407486D01*
X136607224Y-84592513D01*
X136636169Y-84775265D01*
X136693343Y-84951232D01*
X136693344Y-84951235D01*
X136777346Y-85116096D01*
X136861564Y-85232012D01*
X136885044Y-85297817D01*
X136869219Y-85365871D01*
X136835557Y-85404164D01*
X136750533Y-85467813D01*
X136664373Y-85582906D01*
X136664369Y-85582913D01*
X136614127Y-85717620D01*
X136614125Y-85717627D01*
X136607724Y-85777155D01*
X136607724Y-86250000D01*
X137467038Y-86250000D01*
X137462644Y-86254394D01*
X137409983Y-86345606D01*
X137382724Y-86447339D01*
X137382724Y-86552661D01*
X137409983Y-86654394D01*
X137462644Y-86745606D01*
X137467038Y-86750000D01*
X136607724Y-86750000D01*
X136607724Y-87222844D01*
X136614125Y-87282372D01*
X136614127Y-87282379D01*
X136664369Y-87417086D01*
X136664373Y-87417093D01*
X136750533Y-87532187D01*
X136750536Y-87532190D01*
X136865630Y-87618350D01*
X136865637Y-87618354D01*
X137000344Y-87668596D01*
X137000351Y-87668598D01*
X137059879Y-87674999D01*
X137059896Y-87675000D01*
X137532724Y-87675000D01*
X137532724Y-86815686D01*
X137537118Y-86820080D01*
X137628330Y-86872741D01*
X137730063Y-86900000D01*
X137835385Y-86900000D01*
X137937118Y-86872741D01*
X138028330Y-86820080D01*
X138032724Y-86815686D01*
X138032724Y-87675000D01*
X138505552Y-87675000D01*
X138505568Y-87674999D01*
X138565096Y-87668598D01*
X138565103Y-87668596D01*
X138699810Y-87618354D01*
X138699817Y-87618350D01*
X138814911Y-87532190D01*
X138814914Y-87532187D01*
X138901074Y-87417093D01*
X138901078Y-87417086D01*
X138951320Y-87282379D01*
X138951322Y-87282372D01*
X138957723Y-87222844D01*
X138957724Y-87222827D01*
X138957724Y-86750000D01*
X138098410Y-86750000D01*
X138102804Y-86745606D01*
X138155465Y-86654394D01*
X138182724Y-86552661D01*
X138182724Y-86447339D01*
X138155465Y-86345606D01*
X138102804Y-86254394D01*
X138098410Y-86250000D01*
X138957724Y-86250000D01*
X138957724Y-85777172D01*
X138957723Y-85777155D01*
X138951322Y-85717627D01*
X138951320Y-85717620D01*
X138901078Y-85582913D01*
X138901074Y-85582906D01*
X138814914Y-85467812D01*
X138729890Y-85404162D01*
X138688020Y-85348228D01*
X138683036Y-85278536D01*
X138703881Y-85232015D01*
X138788102Y-85116096D01*
X138872103Y-84951235D01*
X138929279Y-84775264D01*
X138958224Y-84592514D01*
X138958224Y-84407486D01*
X138929279Y-84224736D01*
X138872103Y-84048765D01*
X138872103Y-84048764D01*
X138812870Y-83932514D01*
X138788102Y-83883904D01*
X138688988Y-83747486D01*
X169014500Y-83747486D01*
X169014500Y-83932513D01*
X169043445Y-84115265D01*
X169100619Y-84291232D01*
X169100620Y-84291235D01*
X169159854Y-84407486D01*
X169184622Y-84456096D01*
X169268840Y-84572012D01*
X169292320Y-84637817D01*
X169276495Y-84705871D01*
X169242833Y-84744164D01*
X169157809Y-84807813D01*
X169071649Y-84922906D01*
X169071645Y-84922913D01*
X169021403Y-85057620D01*
X169021401Y-85057627D01*
X169015000Y-85117155D01*
X169015000Y-85590000D01*
X169874314Y-85590000D01*
X169869920Y-85594394D01*
X169817259Y-85685606D01*
X169790000Y-85787339D01*
X169790000Y-85892661D01*
X169817259Y-85994394D01*
X169869920Y-86085606D01*
X169874314Y-86090000D01*
X169015000Y-86090000D01*
X169015000Y-86562844D01*
X169021401Y-86622372D01*
X169021403Y-86622379D01*
X169071645Y-86757086D01*
X169071649Y-86757093D01*
X169157809Y-86872187D01*
X169157812Y-86872190D01*
X169272906Y-86958350D01*
X169272913Y-86958354D01*
X169407620Y-87008596D01*
X169407627Y-87008598D01*
X169467155Y-87014999D01*
X169467172Y-87015000D01*
X169940000Y-87015000D01*
X169940000Y-86155686D01*
X169944394Y-86160080D01*
X170035606Y-86212741D01*
X170137339Y-86240000D01*
X170242661Y-86240000D01*
X170344394Y-86212741D01*
X170435606Y-86160080D01*
X170440000Y-86155686D01*
X170440000Y-87015000D01*
X170912828Y-87015000D01*
X170912844Y-87014999D01*
X170972372Y-87008598D01*
X170972379Y-87008596D01*
X171107086Y-86958354D01*
X171107093Y-86958350D01*
X171222187Y-86872190D01*
X171222190Y-86872187D01*
X171308350Y-86757093D01*
X171308354Y-86757086D01*
X171358596Y-86622379D01*
X171358598Y-86622372D01*
X171364999Y-86562844D01*
X171365000Y-86562827D01*
X171365000Y-86090000D01*
X170505686Y-86090000D01*
X170510080Y-86085606D01*
X170562741Y-85994394D01*
X170590000Y-85892661D01*
X170590000Y-85787339D01*
X170562741Y-85685606D01*
X170510080Y-85594394D01*
X170505686Y-85590000D01*
X171365000Y-85590000D01*
X171365000Y-85117172D01*
X171364999Y-85117155D01*
X171358598Y-85057627D01*
X171358596Y-85057620D01*
X171308354Y-84922913D01*
X171308350Y-84922906D01*
X171222190Y-84807812D01*
X171137166Y-84744162D01*
X171095296Y-84688228D01*
X171090312Y-84618536D01*
X171111157Y-84572015D01*
X171195378Y-84456096D01*
X171279379Y-84291235D01*
X171336555Y-84115264D01*
X171365500Y-83932514D01*
X171365500Y-83747486D01*
X171336555Y-83564736D01*
X171307967Y-83476750D01*
X171279380Y-83388767D01*
X171279379Y-83388764D01*
X171195377Y-83223903D01*
X171086621Y-83074213D01*
X170955787Y-82943379D01*
X170806096Y-82834622D01*
X170780910Y-82821789D01*
X170641235Y-82750620D01*
X170641232Y-82750619D01*
X170465265Y-82693445D01*
X170373889Y-82678972D01*
X170282514Y-82664500D01*
X170097486Y-82664500D01*
X170036569Y-82674148D01*
X169914734Y-82693445D01*
X169738767Y-82750619D01*
X169738764Y-82750620D01*
X169573903Y-82834622D01*
X169488499Y-82896672D01*
X169424213Y-82943379D01*
X169424211Y-82943381D01*
X169424210Y-82943381D01*
X169293381Y-83074210D01*
X169293381Y-83074211D01*
X169293379Y-83074213D01*
X169246672Y-83138499D01*
X169184622Y-83223903D01*
X169100620Y-83388764D01*
X169100619Y-83388767D01*
X169043445Y-83564734D01*
X169014500Y-83747486D01*
X138688988Y-83747486D01*
X138679345Y-83734213D01*
X138548511Y-83603379D01*
X138398820Y-83494622D01*
X138233959Y-83410620D01*
X138233956Y-83410619D01*
X138057989Y-83353445D01*
X137966613Y-83338972D01*
X137875238Y-83324500D01*
X137690210Y-83324500D01*
X137629293Y-83334148D01*
X137507458Y-83353445D01*
X137331491Y-83410619D01*
X137331488Y-83410620D01*
X137166627Y-83494622D01*
X137081223Y-83556672D01*
X137016937Y-83603379D01*
X137016935Y-83603381D01*
X137016934Y-83603381D01*
X136886105Y-83734210D01*
X136886105Y-83734211D01*
X136886103Y-83734213D01*
X136876460Y-83747486D01*
X136777346Y-83883903D01*
X136693344Y-84048764D01*
X136693343Y-84048767D01*
X136636169Y-84224734D01*
X136607224Y-84407486D01*
X135500500Y-84407486D01*
X135500500Y-83045134D01*
X135520185Y-82978095D01*
X135572989Y-82932340D01*
X135642147Y-82922396D01*
X135671950Y-82930572D01*
X135766503Y-82969737D01*
X135921153Y-83000499D01*
X135921156Y-83000500D01*
X135921158Y-83000500D01*
X136078844Y-83000500D01*
X136078845Y-83000499D01*
X136233497Y-82969737D01*
X136379179Y-82909394D01*
X136379185Y-82909390D01*
X136510875Y-82821398D01*
X136577553Y-82800520D01*
X136579766Y-82800500D01*
X138713331Y-82800500D01*
X138713347Y-82800501D01*
X138720943Y-82800501D01*
X138879054Y-82800501D01*
X138879057Y-82800501D01*
X139031785Y-82759577D01*
X139081904Y-82730639D01*
X139168716Y-82680520D01*
X139280520Y-82568716D01*
X139280520Y-82568714D01*
X139290728Y-82558507D01*
X139290730Y-82558504D01*
X139768713Y-82080521D01*
X139768716Y-82080520D01*
X139880520Y-81968716D01*
X139930639Y-81881904D01*
X139959577Y-81831785D01*
X140000500Y-81679057D01*
X140000500Y-81520943D01*
X140000500Y-76473035D01*
X146119108Y-76473035D01*
X146119108Y-76709230D01*
X146156054Y-76942501D01*
X146229041Y-77167129D01*
X146336265Y-77377566D01*
X146475091Y-77568643D01*
X146642098Y-77735650D01*
X146676735Y-77760816D01*
X146719400Y-77816146D01*
X146725379Y-77885759D01*
X146692773Y-77947554D01*
X146676738Y-77961448D01*
X146658973Y-77974355D01*
X146642096Y-77986617D01*
X146475093Y-78153620D01*
X146475093Y-78153621D01*
X146475091Y-78153623D01*
X146415470Y-78235683D01*
X146336265Y-78344699D01*
X146229041Y-78555136D01*
X146156054Y-78779764D01*
X146119108Y-79013035D01*
X146119108Y-79249230D01*
X146156054Y-79482501D01*
X146229041Y-79707129D01*
X146336265Y-79917566D01*
X146475091Y-80108643D01*
X146642098Y-80275650D01*
X146833175Y-80414476D01*
X146932599Y-80465135D01*
X147043611Y-80521699D01*
X147043613Y-80521699D01*
X147043616Y-80521701D01*
X147164020Y-80560822D01*
X147268239Y-80594686D01*
X147501511Y-80631633D01*
X147501516Y-80631633D01*
X147737705Y-80631633D01*
X147970976Y-80594686D01*
X148195600Y-80521701D01*
X148406041Y-80414476D01*
X148597118Y-80275650D01*
X148764125Y-80108643D01*
X148902951Y-79917566D01*
X149010176Y-79707125D01*
X149083161Y-79482501D01*
X149120108Y-79249230D01*
X149120108Y-79013035D01*
X149083161Y-78779764D01*
X149010174Y-78555136D01*
X148902950Y-78344699D01*
X148764125Y-78153623D01*
X148597118Y-77986616D01*
X148562480Y-77961450D01*
X148519815Y-77906122D01*
X148513836Y-77836508D01*
X148546441Y-77774713D01*
X148562481Y-77760815D01*
X148597118Y-77735650D01*
X148764125Y-77568643D01*
X148902951Y-77377566D01*
X149010176Y-77167125D01*
X149083161Y-76942501D01*
X149091188Y-76891822D01*
X149120108Y-76709230D01*
X149120108Y-76473035D01*
X164661108Y-76473035D01*
X164661108Y-76709230D01*
X164698054Y-76942501D01*
X164771041Y-77167129D01*
X164878265Y-77377566D01*
X165017091Y-77568643D01*
X165184098Y-77735650D01*
X165218735Y-77760816D01*
X165261400Y-77816146D01*
X165267379Y-77885759D01*
X165234773Y-77947554D01*
X165218738Y-77961448D01*
X165200973Y-77974355D01*
X165184096Y-77986617D01*
X165017093Y-78153620D01*
X165017093Y-78153621D01*
X165017091Y-78153623D01*
X164957470Y-78235683D01*
X164878265Y-78344699D01*
X164771041Y-78555136D01*
X164698054Y-78779764D01*
X164661108Y-79013035D01*
X164661108Y-79249230D01*
X164698054Y-79482501D01*
X164771041Y-79707129D01*
X164878265Y-79917566D01*
X165017091Y-80108643D01*
X165184098Y-80275650D01*
X165375175Y-80414476D01*
X165474599Y-80465135D01*
X165585611Y-80521699D01*
X165585613Y-80521699D01*
X165585616Y-80521701D01*
X165706020Y-80560822D01*
X165810239Y-80594686D01*
X166043511Y-80631633D01*
X166043516Y-80631633D01*
X166279705Y-80631633D01*
X166512976Y-80594686D01*
X166737600Y-80521701D01*
X166948041Y-80414476D01*
X167139118Y-80275650D01*
X167306125Y-80108643D01*
X167444951Y-79917566D01*
X167552176Y-79707125D01*
X167625161Y-79482501D01*
X167662108Y-79249230D01*
X167662108Y-79013035D01*
X167625161Y-78779764D01*
X167552174Y-78555136D01*
X167444950Y-78344699D01*
X167306125Y-78153623D01*
X167139118Y-77986616D01*
X167104480Y-77961450D01*
X167061815Y-77906122D01*
X167055836Y-77836508D01*
X167088441Y-77774713D01*
X167104481Y-77760815D01*
X167139118Y-77735650D01*
X167306125Y-77568643D01*
X167444951Y-77377566D01*
X167552176Y-77167125D01*
X167625161Y-76942501D01*
X167633188Y-76891822D01*
X167662108Y-76709230D01*
X167662108Y-76473035D01*
X167625161Y-76239764D01*
X167591297Y-76135545D01*
X167552176Y-76015141D01*
X167552174Y-76015138D01*
X167552174Y-76015136D01*
X167486240Y-75885735D01*
X167444951Y-75804700D01*
X167306125Y-75613623D01*
X167139118Y-75446616D01*
X166948041Y-75307790D01*
X166737604Y-75200566D01*
X166512976Y-75127579D01*
X166279705Y-75090633D01*
X166279700Y-75090633D01*
X166043516Y-75090633D01*
X166043511Y-75090633D01*
X165810239Y-75127579D01*
X165585611Y-75200566D01*
X165375174Y-75307790D01*
X165274018Y-75381285D01*
X165184098Y-75446616D01*
X165184096Y-75446618D01*
X165184095Y-75446618D01*
X165017093Y-75613620D01*
X165017093Y-75613621D01*
X165017091Y-75613623D01*
X164975444Y-75670945D01*
X164878265Y-75804699D01*
X164771041Y-76015136D01*
X164698054Y-76239764D01*
X164661108Y-76473035D01*
X149120108Y-76473035D01*
X149083161Y-76239764D01*
X149049297Y-76135545D01*
X149010176Y-76015141D01*
X149010174Y-76015138D01*
X149010174Y-76015136D01*
X148944240Y-75885735D01*
X148902951Y-75804700D01*
X148764125Y-75613623D01*
X148597118Y-75446616D01*
X148406041Y-75307790D01*
X148195604Y-75200566D01*
X147970976Y-75127579D01*
X147737705Y-75090633D01*
X147737700Y-75090633D01*
X147501516Y-75090633D01*
X147501511Y-75090633D01*
X147268239Y-75127579D01*
X147043611Y-75200566D01*
X146833174Y-75307790D01*
X146732018Y-75381285D01*
X146642098Y-75446616D01*
X146642096Y-75446618D01*
X146642095Y-75446618D01*
X146475093Y-75613620D01*
X146475093Y-75613621D01*
X146475091Y-75613623D01*
X146433444Y-75670945D01*
X146336265Y-75804699D01*
X146229041Y-76015136D01*
X146156054Y-76239764D01*
X146119108Y-76473035D01*
X140000500Y-76473035D01*
X140000500Y-76050096D01*
X140020185Y-75983057D01*
X140036815Y-75962419D01*
X140637556Y-75361677D01*
X140698877Y-75328194D01*
X140744628Y-75326887D01*
X140893713Y-75350500D01*
X140893715Y-75350500D01*
X141106286Y-75350500D01*
X141106287Y-75350500D01*
X141316243Y-75317246D01*
X141518412Y-75251557D01*
X141707816Y-75155051D01*
X141745628Y-75127579D01*
X141879786Y-75030109D01*
X141879788Y-75030106D01*
X141879792Y-75030104D01*
X142030104Y-74879792D01*
X142030106Y-74879788D01*
X142030109Y-74879786D01*
X142155048Y-74707820D01*
X142155047Y-74707820D01*
X142155051Y-74707816D01*
X142251557Y-74518412D01*
X142317246Y-74316243D01*
X142350500Y-74106287D01*
X142350500Y-73893713D01*
X142317246Y-73683757D01*
X142251557Y-73481588D01*
X142155051Y-73292184D01*
X142155049Y-73292181D01*
X142155048Y-73292179D01*
X142030109Y-73120213D01*
X141879786Y-72969890D01*
X141707819Y-72844951D01*
X141707818Y-72844950D01*
X141707816Y-72844949D01*
X141649880Y-72815429D01*
X141569349Y-72774396D01*
X141518553Y-72726421D01*
X141501758Y-72658600D01*
X141524296Y-72592465D01*
X141569351Y-72553426D01*
X141622786Y-72526200D01*
X141622786Y-72526199D01*
X141622787Y-72526199D01*
X141714164Y-72459809D01*
X141794757Y-72401257D01*
X141794759Y-72401254D01*
X141794763Y-72401252D01*
X141945075Y-72250940D01*
X141945077Y-72250936D01*
X141945080Y-72250934D01*
X142070019Y-72078968D01*
X142070018Y-72078968D01*
X142070022Y-72078964D01*
X142166528Y-71889560D01*
X142232217Y-71687391D01*
X142265471Y-71477435D01*
X142265471Y-71264861D01*
X142232217Y-71054905D01*
X142166528Y-70852736D01*
X142070022Y-70663332D01*
X142070020Y-70663329D01*
X142070019Y-70663327D01*
X141942212Y-70487414D01*
X141943079Y-70486783D01*
X141916612Y-70427729D01*
X141915471Y-70410948D01*
X141915471Y-67262621D01*
X141935156Y-67195582D01*
X141944442Y-67183086D01*
X142070019Y-67010242D01*
X142070018Y-67010242D01*
X142070022Y-67010238D01*
X142166528Y-66820834D01*
X142232217Y-66618665D01*
X142265471Y-66408709D01*
X142265471Y-66196135D01*
X142232217Y-65986179D01*
X142166528Y-65784010D01*
X142070022Y-65594606D01*
X142070020Y-65594603D01*
X142070019Y-65594601D01*
X141945080Y-65422635D01*
X141794757Y-65272312D01*
X141622790Y-65147373D01*
X141622789Y-65147372D01*
X141622787Y-65147371D01*
X141584530Y-65127878D01*
X141533734Y-65079903D01*
X141516939Y-65012082D01*
X141539477Y-64945947D01*
X141584529Y-64906909D01*
X141622787Y-64887416D01*
X141644760Y-64871451D01*
X141794757Y-64762474D01*
X141794759Y-64762471D01*
X141794763Y-64762469D01*
X141945075Y-64612157D01*
X141945077Y-64612153D01*
X141945080Y-64612151D01*
X142070019Y-64440185D01*
X142070018Y-64440185D01*
X142070022Y-64440181D01*
X142166528Y-64250777D01*
X142232217Y-64048608D01*
X142265471Y-63838652D01*
X142265471Y-63626078D01*
X142232217Y-63416122D01*
X142166528Y-63213953D01*
X142070022Y-63024549D01*
X142070020Y-63024546D01*
X142070019Y-63024544D01*
X141945080Y-62852578D01*
X141794763Y-62702261D01*
X141794755Y-62702255D01*
X141631092Y-62583348D01*
X141588428Y-62528020D01*
X141582449Y-62458407D01*
X141615054Y-62396611D01*
X141631089Y-62382716D01*
X141794763Y-62263801D01*
X141945075Y-62113489D01*
X141945077Y-62113485D01*
X141945080Y-62113483D01*
X142070019Y-61941517D01*
X142070018Y-61941517D01*
X142070022Y-61941513D01*
X142166528Y-61752109D01*
X142232217Y-61549940D01*
X142265471Y-61339984D01*
X142265471Y-61127410D01*
X142232217Y-60917454D01*
X142166528Y-60715285D01*
X142070022Y-60525881D01*
X142070020Y-60525878D01*
X142070019Y-60525876D01*
X141945080Y-60353910D01*
X141794757Y-60203587D01*
X141622791Y-60078648D01*
X141433385Y-59982141D01*
X141433384Y-59982140D01*
X141433383Y-59982140D01*
X141231214Y-59916451D01*
X141231212Y-59916450D01*
X141231211Y-59916450D01*
X141069928Y-59890905D01*
X141021258Y-59883197D01*
X140808684Y-59883197D01*
X140760013Y-59890905D01*
X140598731Y-59916450D01*
X140396556Y-59982141D01*
X140207150Y-60078648D01*
X140035184Y-60203587D01*
X139884861Y-60353910D01*
X139759922Y-60525876D01*
X139663415Y-60715282D01*
X139597724Y-60917457D01*
X139564471Y-61127410D01*
X139564471Y-61339983D01*
X139597724Y-61549936D01*
X139663415Y-61752111D01*
X139759922Y-61941517D01*
X139884861Y-62113483D01*
X140035180Y-62263802D01*
X140035185Y-62263806D01*
X140198847Y-62382713D01*
X140241513Y-62438042D01*
X140247492Y-62507656D01*
X140214887Y-62569451D01*
X140198847Y-62583349D01*
X140035185Y-62702255D01*
X140035180Y-62702259D01*
X139884861Y-62852578D01*
X139759922Y-63024544D01*
X139663415Y-63213950D01*
X139597724Y-63416125D01*
X139564471Y-63626078D01*
X139564471Y-63838651D01*
X139597724Y-64048604D01*
X139663415Y-64250779D01*
X139759922Y-64440185D01*
X139884861Y-64612151D01*
X140035184Y-64762474D01*
X140207153Y-64887415D01*
X140245410Y-64906908D01*
X140296207Y-64954882D01*
X140313002Y-65022703D01*
X140290465Y-65088838D01*
X140245412Y-65127877D01*
X140207153Y-65147371D01*
X140035184Y-65272312D01*
X139884869Y-65422627D01*
X139884869Y-65422628D01*
X139884867Y-65422630D01*
X139864393Y-65450808D01*
X139809065Y-65493473D01*
X139764077Y-65501922D01*
X138868204Y-65501922D01*
X138838763Y-65493277D01*
X138808777Y-65486754D01*
X138803761Y-65482999D01*
X138801165Y-65482237D01*
X138780523Y-65465603D01*
X138760934Y-65446014D01*
X138727449Y-65384691D01*
X138724615Y-65358333D01*
X138724615Y-63103366D01*
X138744300Y-63036327D01*
X138751610Y-63027255D01*
X138751346Y-63027057D01*
X138756661Y-63019957D01*
X138842911Y-62904742D01*
X138893206Y-62769894D01*
X138899615Y-62710284D01*
X138899614Y-61264539D01*
X138893206Y-61204928D01*
X138842911Y-61070080D01*
X138842910Y-61070079D01*
X138842908Y-61070075D01*
X138756662Y-60954866D01*
X138671575Y-60891169D01*
X138629705Y-60835235D01*
X138624721Y-60765543D01*
X138645569Y-60719018D01*
X138729493Y-60603507D01*
X138813494Y-60438646D01*
X138870670Y-60262675D01*
X138899615Y-60079925D01*
X138899615Y-59894897D01*
X138870670Y-59712147D01*
X138813494Y-59536176D01*
X138813494Y-59536175D01*
X138729492Y-59371314D01*
X138620736Y-59221624D01*
X138489902Y-59090790D01*
X138485691Y-59087730D01*
X138443024Y-59032405D01*
X138437041Y-58962792D01*
X138469644Y-58900996D01*
X138485685Y-58887095D01*
X138489902Y-58884032D01*
X138620736Y-58753198D01*
X138729493Y-58603507D01*
X138813494Y-58438646D01*
X138870670Y-58262675D01*
X138899615Y-58079925D01*
X138899615Y-57894897D01*
X138870670Y-57712147D01*
X138842082Y-57624161D01*
X138813495Y-57536178D01*
X138813494Y-57536175D01*
X138760187Y-57431555D01*
X138729493Y-57371315D01*
X138620736Y-57221624D01*
X138489902Y-57090790D01*
X138340211Y-56982033D01*
X138175350Y-56898031D01*
X138175347Y-56898030D01*
X137999380Y-56840856D01*
X137908004Y-56826383D01*
X137816629Y-56811911D01*
X137631601Y-56811911D01*
X137570684Y-56821559D01*
X137448849Y-56840856D01*
X137272882Y-56898030D01*
X137272879Y-56898031D01*
X137108018Y-56982033D01*
X137022614Y-57044083D01*
X136958328Y-57090790D01*
X136958326Y-57090792D01*
X136958325Y-57090792D01*
X136827496Y-57221621D01*
X136827496Y-57221622D01*
X136827494Y-57221624D01*
X136780787Y-57285910D01*
X136718737Y-57371314D01*
X136634735Y-57536175D01*
X136634734Y-57536178D01*
X136577560Y-57712145D01*
X136548615Y-57894897D01*
X136548615Y-58079924D01*
X136577560Y-58262676D01*
X136634734Y-58438643D01*
X136634735Y-58438646D01*
X136718737Y-58603507D01*
X136827494Y-58753198D01*
X136958328Y-58884032D01*
X136962536Y-58887089D01*
X136962547Y-58887097D01*
X137005209Y-58942430D01*
X137011184Y-59012044D01*
X136978574Y-59073837D01*
X136962547Y-59087725D01*
X136958325Y-59090792D01*
X136827496Y-59221621D01*
X136827496Y-59221622D01*
X136827494Y-59221624D01*
X136780787Y-59285910D01*
X136718737Y-59371314D01*
X136634735Y-59536175D01*
X136634734Y-59536178D01*
X136577560Y-59712145D01*
X136548615Y-59894897D01*
X136548615Y-60079924D01*
X136577560Y-60262676D01*
X136634734Y-60438643D01*
X136634735Y-60438646D01*
X136718739Y-60603510D01*
X136802660Y-60719018D01*
X136826140Y-60784824D01*
X136810315Y-60852878D01*
X136776654Y-60891169D01*
X136691567Y-60954866D01*
X136605321Y-61070075D01*
X136605317Y-61070082D01*
X136555023Y-61204928D01*
X136548616Y-61264527D01*
X136548616Y-61264534D01*
X136548615Y-61264546D01*
X136548615Y-62710281D01*
X136548616Y-62710287D01*
X136555023Y-62769894D01*
X136605317Y-62904739D01*
X136605318Y-62904740D01*
X136605319Y-62904742D01*
X136689761Y-63017542D01*
X136696884Y-63027057D01*
X136694485Y-63028852D01*
X136720781Y-63077008D01*
X136723615Y-63103366D01*
X136723615Y-65922658D01*
X136744670Y-66028508D01*
X136762062Y-66115942D01*
X136762065Y-66115954D01*
X136837479Y-66298022D01*
X136837486Y-66298035D01*
X136946975Y-66461896D01*
X136946978Y-66461900D01*
X137090652Y-66605574D01*
X137090674Y-66605594D01*
X137622157Y-67137077D01*
X137622186Y-67137108D01*
X137764636Y-67279558D01*
X137764640Y-67279561D01*
X137928501Y-67389050D01*
X137928514Y-67389057D01*
X138057255Y-67442383D01*
X138100166Y-67460157D01*
X138110586Y-67464473D01*
X138207234Y-67483697D01*
X138255557Y-67493309D01*
X138303880Y-67502922D01*
X138303881Y-67502922D01*
X138303882Y-67502922D01*
X138500962Y-67502922D01*
X139790471Y-67502922D01*
X139857510Y-67522607D01*
X139903265Y-67575411D01*
X139914471Y-67626922D01*
X139914471Y-70410948D01*
X139894786Y-70477987D01*
X139885477Y-70490513D01*
X139759922Y-70663327D01*
X139663415Y-70852733D01*
X139597724Y-71054908D01*
X139564471Y-71264861D01*
X139564471Y-71477434D01*
X139587654Y-71623809D01*
X139597725Y-71687391D01*
X139644547Y-71831495D01*
X139663415Y-71889562D01*
X139759922Y-72078968D01*
X139884861Y-72250934D01*
X140035184Y-72401257D01*
X140171783Y-72500500D01*
X140207155Y-72526199D01*
X140298986Y-72572989D01*
X140345621Y-72596751D01*
X140396417Y-72644726D01*
X140413212Y-72712547D01*
X140390675Y-72778682D01*
X140345622Y-72817720D01*
X140292182Y-72844949D01*
X140120213Y-72969890D01*
X139969890Y-73120213D01*
X139844951Y-73292179D01*
X139748444Y-73481585D01*
X139682753Y-73683760D01*
X139649500Y-73893713D01*
X139649500Y-74106286D01*
X139682753Y-74316240D01*
X139733277Y-74471736D01*
X139735272Y-74541577D01*
X139703027Y-74597735D01*
X139031286Y-75269478D01*
X138919481Y-75381282D01*
X138919480Y-75381284D01*
X138885215Y-75440633D01*
X138840423Y-75518215D01*
X138799499Y-75670943D01*
X138799499Y-75670945D01*
X138799499Y-75839046D01*
X138799500Y-75839059D01*
X138799500Y-76354880D01*
X138779815Y-76421919D01*
X138727011Y-76467674D01*
X138657853Y-76477618D01*
X138594297Y-76448593D01*
X138557569Y-76393198D01*
X138542908Y-76348076D01*
X138542907Y-76348073D01*
X138458905Y-76183212D01*
X138350149Y-76033522D01*
X138219315Y-75902688D01*
X138215104Y-75899628D01*
X138172437Y-75844303D01*
X138166454Y-75774690D01*
X138199057Y-75712894D01*
X138215098Y-75698993D01*
X138219315Y-75695930D01*
X138350149Y-75565096D01*
X138458906Y-75415405D01*
X138542907Y-75250544D01*
X138600083Y-75074573D01*
X138629028Y-74891823D01*
X138629028Y-74706795D01*
X138600083Y-74524045D01*
X138542907Y-74348074D01*
X138542907Y-74348073D01*
X138458905Y-74183212D01*
X138350149Y-74033522D01*
X138219315Y-73902688D01*
X138215104Y-73899628D01*
X138172437Y-73844303D01*
X138166454Y-73774690D01*
X138199057Y-73712894D01*
X138215098Y-73698993D01*
X138219315Y-73695930D01*
X138350149Y-73565096D01*
X138458906Y-73415405D01*
X138542907Y-73250544D01*
X138600083Y-73074573D01*
X138629028Y-72891823D01*
X138629028Y-72706795D01*
X138600083Y-72524045D01*
X138560187Y-72401257D01*
X138542908Y-72348076D01*
X138542907Y-72348073D01*
X138493412Y-72250934D01*
X138458906Y-72183213D01*
X138374687Y-72067296D01*
X138351208Y-72001492D01*
X138367033Y-71933438D01*
X138400695Y-71895145D01*
X138485718Y-71831495D01*
X138571878Y-71716402D01*
X138571882Y-71716395D01*
X138622124Y-71581688D01*
X138622126Y-71581681D01*
X138628527Y-71522153D01*
X138628528Y-71522136D01*
X138628528Y-71049309D01*
X137769214Y-71049309D01*
X137773608Y-71044915D01*
X137826269Y-70953703D01*
X137853528Y-70851970D01*
X137853528Y-70746648D01*
X137826269Y-70644915D01*
X137773608Y-70553703D01*
X137769214Y-70549309D01*
X138628528Y-70549309D01*
X138628528Y-70076481D01*
X138628527Y-70076464D01*
X138622126Y-70016936D01*
X138622124Y-70016929D01*
X138571882Y-69882222D01*
X138571878Y-69882215D01*
X138485718Y-69767121D01*
X138485715Y-69767118D01*
X138370621Y-69680958D01*
X138370614Y-69680954D01*
X138235907Y-69630712D01*
X138235900Y-69630710D01*
X138176372Y-69624309D01*
X137703528Y-69624309D01*
X137703528Y-70483623D01*
X137699134Y-70479229D01*
X137607922Y-70426568D01*
X137506189Y-70399309D01*
X137400867Y-70399309D01*
X137299134Y-70426568D01*
X137207922Y-70479229D01*
X137203528Y-70483623D01*
X137203528Y-69624309D01*
X136730683Y-69624309D01*
X136671155Y-69630710D01*
X136671148Y-69630712D01*
X136536441Y-69680954D01*
X136536434Y-69680958D01*
X136421340Y-69767118D01*
X136421337Y-69767121D01*
X136335177Y-69882215D01*
X136335173Y-69882222D01*
X136284931Y-70016929D01*
X136284929Y-70016936D01*
X136278528Y-70076464D01*
X136278528Y-70549309D01*
X137137842Y-70549309D01*
X137133448Y-70553703D01*
X137080787Y-70644915D01*
X137053528Y-70746648D01*
X137053528Y-70851970D01*
X137080787Y-70953703D01*
X137133448Y-71044915D01*
X137137842Y-71049309D01*
X136278528Y-71049309D01*
X136278528Y-71522153D01*
X136284929Y-71581681D01*
X136284931Y-71581688D01*
X136335173Y-71716395D01*
X136335177Y-71716402D01*
X136421337Y-71831495D01*
X136506360Y-71895144D01*
X136548231Y-71951078D01*
X136553215Y-72020770D01*
X136532367Y-72067296D01*
X136448152Y-72183209D01*
X136364148Y-72348073D01*
X136364147Y-72348076D01*
X136306973Y-72524043D01*
X136302319Y-72553426D01*
X136278028Y-72706795D01*
X136278028Y-72891823D01*
X136290393Y-72969890D01*
X136306973Y-73074574D01*
X136364147Y-73250541D01*
X136364148Y-73250544D01*
X136448150Y-73415405D01*
X136556907Y-73565096D01*
X136687741Y-73695930D01*
X136691949Y-73698987D01*
X136691960Y-73698995D01*
X136734622Y-73754328D01*
X136740597Y-73823942D01*
X136707987Y-73885735D01*
X136691960Y-73899623D01*
X136687738Y-73902690D01*
X136556909Y-74033519D01*
X136556909Y-74033520D01*
X136556907Y-74033522D01*
X136510200Y-74097808D01*
X136448150Y-74183212D01*
X136364148Y-74348073D01*
X136364147Y-74348076D01*
X136306973Y-74524043D01*
X136278028Y-74706795D01*
X136278028Y-74891822D01*
X136306973Y-75074574D01*
X136364147Y-75250541D01*
X136364148Y-75250544D01*
X136415079Y-75350500D01*
X136448150Y-75415405D01*
X136556907Y-75565096D01*
X136687741Y-75695930D01*
X136691949Y-75698987D01*
X136691960Y-75698995D01*
X136734622Y-75754328D01*
X136740597Y-75823942D01*
X136707987Y-75885735D01*
X136691960Y-75899623D01*
X136687738Y-75902690D01*
X136556909Y-76033519D01*
X136556909Y-76033520D01*
X136556907Y-76033522D01*
X136510200Y-76097808D01*
X136448150Y-76183212D01*
X136364148Y-76348073D01*
X136364147Y-76348076D01*
X136306973Y-76524043D01*
X136278028Y-76706795D01*
X136278028Y-76891822D01*
X136306973Y-77074574D01*
X136364147Y-77250541D01*
X136364148Y-77250544D01*
X136428870Y-77377566D01*
X136448150Y-77415405D01*
X136556907Y-77565096D01*
X136687741Y-77695930D01*
X136837432Y-77804687D01*
X136859922Y-77816146D01*
X137002292Y-77888688D01*
X137002295Y-77888689D01*
X137090278Y-77917276D01*
X137178264Y-77945864D01*
X137361014Y-77974809D01*
X137361015Y-77974809D01*
X137546041Y-77974809D01*
X137546042Y-77974809D01*
X137728792Y-77945864D01*
X137904763Y-77888688D01*
X138069624Y-77804687D01*
X138219315Y-77695930D01*
X138350149Y-77565096D01*
X138458906Y-77415405D01*
X138542907Y-77250544D01*
X138557569Y-77205420D01*
X138597006Y-77147744D01*
X138661364Y-77120545D01*
X138730211Y-77132459D01*
X138781687Y-77179703D01*
X138799500Y-77243737D01*
X138799500Y-81299903D01*
X138790855Y-81329343D01*
X138784332Y-81359330D01*
X138780577Y-81364345D01*
X138779815Y-81366942D01*
X138763181Y-81387584D01*
X138587584Y-81563181D01*
X138526261Y-81596666D01*
X138499903Y-81599500D01*
X136579766Y-81599500D01*
X136512727Y-81579815D01*
X136510875Y-81578602D01*
X136379185Y-81490609D01*
X136379172Y-81490602D01*
X136233501Y-81430264D01*
X136233489Y-81430261D01*
X136078845Y-81399500D01*
X136078842Y-81399500D01*
X135921158Y-81399500D01*
X135921155Y-81399500D01*
X135766510Y-81430261D01*
X135766507Y-81430261D01*
X135671952Y-81469427D01*
X135602482Y-81476895D01*
X135540003Y-81445619D01*
X135504351Y-81385530D01*
X135500500Y-81354865D01*
X135500500Y-56073713D01*
X139579500Y-56073713D01*
X139579500Y-56286287D01*
X139612754Y-56496243D01*
X139646304Y-56599500D01*
X139678444Y-56698414D01*
X139774951Y-56887820D01*
X139899890Y-57059786D01*
X140050213Y-57210109D01*
X140222179Y-57335048D01*
X140222181Y-57335049D01*
X140222184Y-57335051D01*
X140411588Y-57431557D01*
X140613757Y-57497246D01*
X140823713Y-57530500D01*
X140823714Y-57530500D01*
X141036286Y-57530500D01*
X141036287Y-57530500D01*
X141246243Y-57497246D01*
X141448412Y-57431557D01*
X141637816Y-57335051D01*
X141711906Y-57281222D01*
X141809786Y-57210109D01*
X141809788Y-57210106D01*
X141809792Y-57210104D01*
X141960104Y-57059792D01*
X141960106Y-57059788D01*
X141960109Y-57059786D01*
X142085048Y-56887820D01*
X142085047Y-56887820D01*
X142085051Y-56887816D01*
X142181557Y-56698412D01*
X142247246Y-56496243D01*
X142280500Y-56286287D01*
X142280500Y-56073713D01*
X142247246Y-55863757D01*
X142181557Y-55661588D01*
X142085051Y-55472184D01*
X142085049Y-55472181D01*
X142085048Y-55472179D01*
X142031913Y-55399044D01*
X141960109Y-55300214D01*
X141960105Y-55300209D01*
X141809786Y-55149890D01*
X141637820Y-55024951D01*
X141448414Y-54928444D01*
X141448413Y-54928443D01*
X141448412Y-54928443D01*
X141246243Y-54862754D01*
X141246241Y-54862753D01*
X141246240Y-54862753D01*
X141084957Y-54837208D01*
X141036287Y-54829500D01*
X140823713Y-54829500D01*
X140775042Y-54837208D01*
X140613760Y-54862753D01*
X140411585Y-54928444D01*
X140222179Y-55024951D01*
X140050213Y-55149890D01*
X139899890Y-55300213D01*
X139774951Y-55472179D01*
X139678444Y-55661585D01*
X139678443Y-55661587D01*
X139678443Y-55661588D01*
X139670309Y-55686621D01*
X139612753Y-55863760D01*
X139610822Y-55875954D01*
X139579500Y-56073713D01*
X135500500Y-56073713D01*
X135500500Y-55571287D01*
X135520185Y-55504248D01*
X135572989Y-55458493D01*
X135600303Y-55449671D01*
X135851578Y-55399690D01*
X136180705Y-55299850D01*
X136498462Y-55168231D01*
X136801787Y-55006100D01*
X137087760Y-54815019D01*
X137353627Y-54596827D01*
X137596827Y-54353627D01*
X137815019Y-54087760D01*
X138006100Y-53801787D01*
X138168231Y-53498462D01*
X138299850Y-53180705D01*
X138399690Y-52851578D01*
X138427418Y-52712181D01*
X138449671Y-52600309D01*
X138482056Y-52538398D01*
X138542772Y-52503823D01*
X138571288Y-52500500D01*
X162837730Y-52500500D01*
X162904769Y-52520185D01*
G37*
%TD.AperFunction*%
%TD*%
M02*
