%TF.GenerationSoftware,KiCad,Pcbnew,10.0.1*%
%TF.CreationDate,2026-05-16T15:39:36+09:00*%
%TF.ProjectId,power_IP2326_MP1584,706f7765-725f-4495-9032-3332365f4d50,rev?*%
%TF.SameCoordinates,Original*%
%TF.FileFunction,Legend,Top*%
%TF.FilePolarity,Positive*%
%FSLAX46Y46*%
G04 Gerber Fmt 4.6, Leading zero omitted, Abs format (unit mm)*
G04 Created by KiCad (PCBNEW 10.0.1) date 2026-05-16 15:39:36*
%MOMM*%
%LPD*%
G01*
G04 APERTURE LIST*
G04 Aperture macros list*
%AMRoundRect*
0 Rectangle with rounded corners*
0 $1 Rounding radius*
0 $2 $3 $4 $5 $6 $7 $8 $9 X,Y pos of 4 corners*
0 Add a 4 corners polygon primitive as box body*
4,1,4,$2,$3,$4,$5,$6,$7,$8,$9,$2,$3,0*
0 Add four circle primitives for the rounded corners*
1,1,$1+$1,$2,$3*
1,1,$1+$1,$4,$5*
1,1,$1+$1,$6,$7*
1,1,$1+$1,$8,$9*
0 Add four rect primitives between the rounded corners*
20,1,$1+$1,$2,$3,$4,$5,0*
20,1,$1+$1,$4,$5,$6,$7,0*
20,1,$1+$1,$6,$7,$8,$9,0*
20,1,$1+$1,$8,$9,$2,$3,0*%
%AMFreePoly0*
4,1,23,0.550000,-0.750000,0.000000,-0.750000,0.000000,-0.745722,-0.065263,-0.745722,-0.191342,-0.711940,-0.304381,-0.646677,-0.396677,-0.554381,-0.461940,-0.441342,-0.495722,-0.315263,-0.495722,-0.250000,-0.500000,-0.250000,-0.500000,0.250000,-0.495722,0.250000,-0.495722,0.315263,-0.461940,0.441342,-0.396677,0.554381,-0.304381,0.646677,-0.191342,0.711940,-0.065263,0.745722,0.000000,0.745722,
0.000000,0.750000,0.550000,0.750000,0.550000,-0.750000,0.550000,-0.750000,$1*%
%AMFreePoly1*
4,1,23,0.000000,0.745722,0.065263,0.745722,0.191342,0.711940,0.304381,0.646677,0.396677,0.554381,0.461940,0.441342,0.495722,0.315263,0.495722,0.250000,0.500000,0.250000,0.500000,-0.250000,0.495722,-0.250000,0.495722,-0.315263,0.461940,-0.441342,0.396677,-0.554381,0.304381,-0.646677,0.191342,-0.711940,0.065263,-0.745722,0.000000,-0.745722,0.000000,-0.750000,-0.550000,-0.750000,
-0.550000,0.750000,0.000000,0.750000,0.000000,0.745722,0.000000,0.745722,$1*%
G04 Aperture macros list end*
%ADD10C,0.100000*%
%ADD11C,0.150000*%
%ADD12C,0.120000*%
%ADD13RoundRect,0.200000X0.200000X0.275000X-0.200000X0.275000X-0.200000X-0.275000X0.200000X-0.275000X0*%
%ADD14RoundRect,0.200000X0.275000X-0.200000X0.275000X0.200000X-0.275000X0.200000X-0.275000X-0.200000X0*%
%ADD15R,1.350000X1.350000*%
%ADD16C,1.350000*%
%ADD17RoundRect,0.250000X-0.250000X-0.475000X0.250000X-0.475000X0.250000X0.475000X-0.250000X0.475000X0*%
%ADD18RoundRect,0.225000X-0.225000X-0.250000X0.225000X-0.250000X0.225000X0.250000X-0.225000X0.250000X0*%
%ADD19C,1.700000*%
%ADD20RoundRect,0.250000X-0.475000X0.250000X-0.475000X-0.250000X0.475000X-0.250000X0.475000X0.250000X0*%
%ADD21RoundRect,0.250000X-0.420000X-0.945000X0.420000X-0.945000X0.420000X0.945000X-0.420000X0.945000X0*%
%ADD22FreePoly0,90.000000*%
%ADD23R,1.500000X1.000000*%
%ADD24FreePoly1,90.000000*%
%ADD25RoundRect,0.250000X0.475000X-0.250000X0.475000X0.250000X-0.475000X0.250000X-0.475000X-0.250000X0*%
%ADD26RoundRect,0.218750X-0.218750X-0.256250X0.218750X-0.256250X0.218750X0.256250X-0.218750X0.256250X0*%
%ADD27RoundRect,0.150000X0.150000X-0.587500X0.150000X0.587500X-0.150000X0.587500X-0.150000X-0.587500X0*%
%ADD28C,2.000000*%
%ADD29RoundRect,0.225000X-0.250000X0.225000X-0.250000X-0.225000X0.250000X-0.225000X0.250000X0.225000X0*%
G04 APERTURE END LIST*
D10*
X136418633Y-66583333D02*
X136085300Y-66749999D01*
X136418633Y-66869047D02*
X135718633Y-66869047D01*
X135718633Y-66869047D02*
X135718633Y-66678571D01*
X135718633Y-66678571D02*
X135751966Y-66630952D01*
X135751966Y-66630952D02*
X135785300Y-66607142D01*
X135785300Y-66607142D02*
X135851966Y-66583333D01*
X135851966Y-66583333D02*
X135951966Y-66583333D01*
X135951966Y-66583333D02*
X136018633Y-66607142D01*
X136018633Y-66607142D02*
X136051966Y-66630952D01*
X136051966Y-66630952D02*
X136085300Y-66678571D01*
X136085300Y-66678571D02*
X136085300Y-66869047D01*
X135785300Y-66392856D02*
X135751966Y-66369047D01*
X135751966Y-66369047D02*
X135718633Y-66321428D01*
X135718633Y-66321428D02*
X135718633Y-66202380D01*
X135718633Y-66202380D02*
X135751966Y-66154761D01*
X135751966Y-66154761D02*
X135785300Y-66130952D01*
X135785300Y-66130952D02*
X135851966Y-66107142D01*
X135851966Y-66107142D02*
X135918633Y-66107142D01*
X135918633Y-66107142D02*
X136018633Y-66130952D01*
X136018633Y-66130952D02*
X136418633Y-66416666D01*
X136418633Y-66416666D02*
X136418633Y-66107142D01*
X139638633Y-76833333D02*
X139305300Y-76999999D01*
X139638633Y-77119047D02*
X138938633Y-77119047D01*
X138938633Y-77119047D02*
X138938633Y-76928571D01*
X138938633Y-76928571D02*
X138971966Y-76880952D01*
X138971966Y-76880952D02*
X139005300Y-76857142D01*
X139005300Y-76857142D02*
X139071966Y-76833333D01*
X139071966Y-76833333D02*
X139171966Y-76833333D01*
X139171966Y-76833333D02*
X139238633Y-76857142D01*
X139238633Y-76857142D02*
X139271966Y-76880952D01*
X139271966Y-76880952D02*
X139305300Y-76928571D01*
X139305300Y-76928571D02*
X139305300Y-77119047D01*
X139638633Y-76357142D02*
X139638633Y-76642856D01*
X139638633Y-76499999D02*
X138938633Y-76499999D01*
X138938633Y-76499999D02*
X139038633Y-76547618D01*
X139038633Y-76547618D02*
X139105300Y-76595237D01*
X139105300Y-76595237D02*
X139138633Y-76642856D01*
D11*
X172031009Y-86599999D02*
X172078628Y-86499999D01*
X172078628Y-86499999D02*
X172126247Y-86466665D01*
X172126247Y-86466665D02*
X172221485Y-86433332D01*
X172221485Y-86433332D02*
X172364342Y-86433332D01*
X172364342Y-86433332D02*
X172459580Y-86466665D01*
X172459580Y-86466665D02*
X172507200Y-86499999D01*
X172507200Y-86499999D02*
X172554819Y-86566665D01*
X172554819Y-86566665D02*
X172554819Y-86833332D01*
X172554819Y-86833332D02*
X171554819Y-86833332D01*
X171554819Y-86833332D02*
X171554819Y-86599999D01*
X171554819Y-86599999D02*
X171602438Y-86533332D01*
X171602438Y-86533332D02*
X171650057Y-86499999D01*
X171650057Y-86499999D02*
X171745295Y-86466665D01*
X171745295Y-86466665D02*
X171840533Y-86466665D01*
X171840533Y-86466665D02*
X171935771Y-86499999D01*
X171935771Y-86499999D02*
X171983390Y-86533332D01*
X171983390Y-86533332D02*
X172031009Y-86599999D01*
X172031009Y-86599999D02*
X172031009Y-86833332D01*
X172269104Y-86166665D02*
X172269104Y-85833332D01*
X172554819Y-86233332D02*
X171554819Y-85999999D01*
X171554819Y-85999999D02*
X172554819Y-85766665D01*
X171554819Y-85633332D02*
X171554819Y-85233332D01*
X172554819Y-85433332D02*
X171554819Y-85433332D01*
X171554819Y-85099999D02*
X171554819Y-84699999D01*
X172554819Y-84899999D02*
X171554819Y-84899999D01*
X172031009Y-84466666D02*
X172031009Y-84233333D01*
X172554819Y-84133333D02*
X172554819Y-84466666D01*
X172554819Y-84466666D02*
X171554819Y-84466666D01*
X171554819Y-84466666D02*
X171554819Y-84133333D01*
X172554819Y-83433333D02*
X172078628Y-83666666D01*
X172554819Y-83833333D02*
X171554819Y-83833333D01*
X171554819Y-83833333D02*
X171554819Y-83566666D01*
X171554819Y-83566666D02*
X171602438Y-83500000D01*
X171602438Y-83500000D02*
X171650057Y-83466666D01*
X171650057Y-83466666D02*
X171745295Y-83433333D01*
X171745295Y-83433333D02*
X171888152Y-83433333D01*
X171888152Y-83433333D02*
X171983390Y-83466666D01*
X171983390Y-83466666D02*
X172031009Y-83500000D01*
X172031009Y-83500000D02*
X172078628Y-83566666D01*
X172078628Y-83566666D02*
X172078628Y-83833333D01*
X172078628Y-83000000D02*
X172554819Y-83000000D01*
X171554819Y-83233333D02*
X172078628Y-83000000D01*
X172078628Y-83000000D02*
X171554819Y-82766666D01*
D10*
X145692523Y-82090329D02*
X145725857Y-82114138D01*
X145725857Y-82114138D02*
X145759190Y-82185567D01*
X145759190Y-82185567D02*
X145759190Y-82233186D01*
X145759190Y-82233186D02*
X145725857Y-82304614D01*
X145725857Y-82304614D02*
X145659190Y-82352233D01*
X145659190Y-82352233D02*
X145592523Y-82376043D01*
X145592523Y-82376043D02*
X145459190Y-82399852D01*
X145459190Y-82399852D02*
X145359190Y-82399852D01*
X145359190Y-82399852D02*
X145225857Y-82376043D01*
X145225857Y-82376043D02*
X145159190Y-82352233D01*
X145159190Y-82352233D02*
X145092523Y-82304614D01*
X145092523Y-82304614D02*
X145059190Y-82233186D01*
X145059190Y-82233186D02*
X145059190Y-82185567D01*
X145059190Y-82185567D02*
X145092523Y-82114138D01*
X145092523Y-82114138D02*
X145125857Y-82090329D01*
X145059190Y-81637948D02*
X145059190Y-81876043D01*
X145059190Y-81876043D02*
X145392523Y-81899852D01*
X145392523Y-81899852D02*
X145359190Y-81876043D01*
X145359190Y-81876043D02*
X145325857Y-81828424D01*
X145325857Y-81828424D02*
X145325857Y-81709376D01*
X145325857Y-81709376D02*
X145359190Y-81661757D01*
X145359190Y-81661757D02*
X145392523Y-81637948D01*
X145392523Y-81637948D02*
X145459190Y-81614138D01*
X145459190Y-81614138D02*
X145625857Y-81614138D01*
X145625857Y-81614138D02*
X145692523Y-81637948D01*
X145692523Y-81637948D02*
X145725857Y-81661757D01*
X145725857Y-81661757D02*
X145759190Y-81709376D01*
X145759190Y-81709376D02*
X145759190Y-81828424D01*
X145759190Y-81828424D02*
X145725857Y-81876043D01*
X145725857Y-81876043D02*
X145692523Y-81899852D01*
X145649193Y-80251949D02*
X145682527Y-80275758D01*
X145682527Y-80275758D02*
X145715860Y-80347187D01*
X145715860Y-80347187D02*
X145715860Y-80394806D01*
X145715860Y-80394806D02*
X145682527Y-80466234D01*
X145682527Y-80466234D02*
X145615860Y-80513853D01*
X145615860Y-80513853D02*
X145549193Y-80537663D01*
X145549193Y-80537663D02*
X145415860Y-80561472D01*
X145415860Y-80561472D02*
X145315860Y-80561472D01*
X145315860Y-80561472D02*
X145182527Y-80537663D01*
X145182527Y-80537663D02*
X145115860Y-80513853D01*
X145115860Y-80513853D02*
X145049193Y-80466234D01*
X145049193Y-80466234D02*
X145015860Y-80394806D01*
X145015860Y-80394806D02*
X145015860Y-80347187D01*
X145015860Y-80347187D02*
X145049193Y-80275758D01*
X145049193Y-80275758D02*
X145082527Y-80251949D01*
X145249193Y-79823377D02*
X145715860Y-79823377D01*
X144982527Y-79942425D02*
X145482527Y-80061472D01*
X145482527Y-80061472D02*
X145482527Y-79751949D01*
D11*
X154122872Y-55625659D02*
X154122872Y-56435182D01*
X154122872Y-56435182D02*
X154170491Y-56530420D01*
X154170491Y-56530420D02*
X154218110Y-56578040D01*
X154218110Y-56578040D02*
X154313348Y-56625659D01*
X154313348Y-56625659D02*
X154503824Y-56625659D01*
X154503824Y-56625659D02*
X154599062Y-56578040D01*
X154599062Y-56578040D02*
X154646681Y-56530420D01*
X154646681Y-56530420D02*
X154694300Y-56435182D01*
X154694300Y-56435182D02*
X154694300Y-55625659D01*
X155122872Y-55720897D02*
X155170491Y-55673278D01*
X155170491Y-55673278D02*
X155265729Y-55625659D01*
X155265729Y-55625659D02*
X155503824Y-55625659D01*
X155503824Y-55625659D02*
X155599062Y-55673278D01*
X155599062Y-55673278D02*
X155646681Y-55720897D01*
X155646681Y-55720897D02*
X155694300Y-55816135D01*
X155694300Y-55816135D02*
X155694300Y-55911373D01*
X155694300Y-55911373D02*
X155646681Y-56054230D01*
X155646681Y-56054230D02*
X155075253Y-56625659D01*
X155075253Y-56625659D02*
X155694300Y-56625659D01*
X152194301Y-70804765D02*
X152765729Y-70804765D01*
X152480015Y-71804765D02*
X152480015Y-70804765D01*
X153099063Y-71804765D02*
X153099063Y-70804765D01*
X153099063Y-70804765D02*
X153480015Y-70804765D01*
X153480015Y-70804765D02*
X153575253Y-70852384D01*
X153575253Y-70852384D02*
X153622872Y-70900003D01*
X153622872Y-70900003D02*
X153670491Y-70995241D01*
X153670491Y-70995241D02*
X153670491Y-71138098D01*
X153670491Y-71138098D02*
X153622872Y-71233336D01*
X153622872Y-71233336D02*
X153575253Y-71280955D01*
X153575253Y-71280955D02*
X153480015Y-71328574D01*
X153480015Y-71328574D02*
X153099063Y-71328574D01*
X154051444Y-70900003D02*
X154099063Y-70852384D01*
X154099063Y-70852384D02*
X154194301Y-70804765D01*
X154194301Y-70804765D02*
X154432396Y-70804765D01*
X154432396Y-70804765D02*
X154527634Y-70852384D01*
X154527634Y-70852384D02*
X154575253Y-70900003D01*
X154575253Y-70900003D02*
X154622872Y-70995241D01*
X154622872Y-70995241D02*
X154622872Y-71090479D01*
X154622872Y-71090479D02*
X154575253Y-71233336D01*
X154575253Y-71233336D02*
X154003825Y-71804765D01*
X154003825Y-71804765D02*
X154622872Y-71804765D01*
X154956206Y-70804765D02*
X155575253Y-70804765D01*
X155575253Y-70804765D02*
X155241920Y-71185717D01*
X155241920Y-71185717D02*
X155384777Y-71185717D01*
X155384777Y-71185717D02*
X155480015Y-71233336D01*
X155480015Y-71233336D02*
X155527634Y-71280955D01*
X155527634Y-71280955D02*
X155575253Y-71376193D01*
X155575253Y-71376193D02*
X155575253Y-71614288D01*
X155575253Y-71614288D02*
X155527634Y-71709526D01*
X155527634Y-71709526D02*
X155480015Y-71757146D01*
X155480015Y-71757146D02*
X155384777Y-71804765D01*
X155384777Y-71804765D02*
X155099063Y-71804765D01*
X155099063Y-71804765D02*
X155003825Y-71757146D01*
X155003825Y-71757146D02*
X154956206Y-71709526D01*
X155956206Y-70900003D02*
X156003825Y-70852384D01*
X156003825Y-70852384D02*
X156099063Y-70804765D01*
X156099063Y-70804765D02*
X156337158Y-70804765D01*
X156337158Y-70804765D02*
X156432396Y-70852384D01*
X156432396Y-70852384D02*
X156480015Y-70900003D01*
X156480015Y-70900003D02*
X156527634Y-70995241D01*
X156527634Y-70995241D02*
X156527634Y-71090479D01*
X156527634Y-71090479D02*
X156480015Y-71233336D01*
X156480015Y-71233336D02*
X155908587Y-71804765D01*
X155908587Y-71804765D02*
X156527634Y-71804765D01*
X157384777Y-70804765D02*
X157194301Y-70804765D01*
X157194301Y-70804765D02*
X157099063Y-70852384D01*
X157099063Y-70852384D02*
X157051444Y-70900003D01*
X157051444Y-70900003D02*
X156956206Y-71042860D01*
X156956206Y-71042860D02*
X156908587Y-71233336D01*
X156908587Y-71233336D02*
X156908587Y-71614288D01*
X156908587Y-71614288D02*
X156956206Y-71709526D01*
X156956206Y-71709526D02*
X157003825Y-71757146D01*
X157003825Y-71757146D02*
X157099063Y-71804765D01*
X157099063Y-71804765D02*
X157289539Y-71804765D01*
X157289539Y-71804765D02*
X157384777Y-71757146D01*
X157384777Y-71757146D02*
X157432396Y-71709526D01*
X157432396Y-71709526D02*
X157480015Y-71614288D01*
X157480015Y-71614288D02*
X157480015Y-71376193D01*
X157480015Y-71376193D02*
X157432396Y-71280955D01*
X157432396Y-71280955D02*
X157384777Y-71233336D01*
X157384777Y-71233336D02*
X157289539Y-71185717D01*
X157289539Y-71185717D02*
X157099063Y-71185717D01*
X157099063Y-71185717D02*
X157003825Y-71233336D01*
X157003825Y-71233336D02*
X156956206Y-71280955D01*
X156956206Y-71280955D02*
X156908587Y-71376193D01*
X158794337Y-53943757D02*
X158761004Y-53991377D01*
X158761004Y-53991377D02*
X158661004Y-54038996D01*
X158661004Y-54038996D02*
X158594337Y-54038996D01*
X158594337Y-54038996D02*
X158494337Y-53991377D01*
X158494337Y-53991377D02*
X158427671Y-53896138D01*
X158427671Y-53896138D02*
X158394337Y-53800900D01*
X158394337Y-53800900D02*
X158361004Y-53610424D01*
X158361004Y-53610424D02*
X158361004Y-53467567D01*
X158361004Y-53467567D02*
X158394337Y-53277091D01*
X158394337Y-53277091D02*
X158427671Y-53181853D01*
X158427671Y-53181853D02*
X158494337Y-53086615D01*
X158494337Y-53086615D02*
X158594337Y-53038996D01*
X158594337Y-53038996D02*
X158661004Y-53038996D01*
X158661004Y-53038996D02*
X158761004Y-53086615D01*
X158761004Y-53086615D02*
X158794337Y-53134234D01*
X159094337Y-54038996D02*
X159094337Y-53038996D01*
X159094337Y-53515186D02*
X159494337Y-53515186D01*
X159494337Y-54038996D02*
X159494337Y-53038996D01*
X159794337Y-53753281D02*
X160127670Y-53753281D01*
X159727670Y-54038996D02*
X159961004Y-53038996D01*
X159961004Y-53038996D02*
X160194337Y-54038996D01*
X160827670Y-54038996D02*
X160594337Y-53562805D01*
X160427670Y-54038996D02*
X160427670Y-53038996D01*
X160427670Y-53038996D02*
X160694337Y-53038996D01*
X160694337Y-53038996D02*
X160761004Y-53086615D01*
X160761004Y-53086615D02*
X160794337Y-53134234D01*
X160794337Y-53134234D02*
X160827670Y-53229472D01*
X160827670Y-53229472D02*
X160827670Y-53372329D01*
X160827670Y-53372329D02*
X160794337Y-53467567D01*
X160794337Y-53467567D02*
X160761004Y-53515186D01*
X160761004Y-53515186D02*
X160694337Y-53562805D01*
X160694337Y-53562805D02*
X160427670Y-53562805D01*
X161494337Y-53086615D02*
X161427670Y-53038996D01*
X161427670Y-53038996D02*
X161327670Y-53038996D01*
X161327670Y-53038996D02*
X161227670Y-53086615D01*
X161227670Y-53086615D02*
X161161004Y-53181853D01*
X161161004Y-53181853D02*
X161127670Y-53277091D01*
X161127670Y-53277091D02*
X161094337Y-53467567D01*
X161094337Y-53467567D02*
X161094337Y-53610424D01*
X161094337Y-53610424D02*
X161127670Y-53800900D01*
X161127670Y-53800900D02*
X161161004Y-53896138D01*
X161161004Y-53896138D02*
X161227670Y-53991377D01*
X161227670Y-53991377D02*
X161327670Y-54038996D01*
X161327670Y-54038996D02*
X161394337Y-54038996D01*
X161394337Y-54038996D02*
X161494337Y-53991377D01*
X161494337Y-53991377D02*
X161527670Y-53943757D01*
X161527670Y-53943757D02*
X161527670Y-53610424D01*
X161527670Y-53610424D02*
X161394337Y-53610424D01*
X161827670Y-53515186D02*
X162061004Y-53515186D01*
X162161004Y-54038996D02*
X161827670Y-54038996D01*
X161827670Y-54038996D02*
X161827670Y-53038996D01*
X161827670Y-53038996D02*
X162161004Y-53038996D01*
X135745275Y-61732760D02*
X135792894Y-61632760D01*
X135792894Y-61632760D02*
X135840513Y-61599426D01*
X135840513Y-61599426D02*
X135935751Y-61566093D01*
X135935751Y-61566093D02*
X136078608Y-61566093D01*
X136078608Y-61566093D02*
X136173846Y-61599426D01*
X136173846Y-61599426D02*
X136221466Y-61632760D01*
X136221466Y-61632760D02*
X136269085Y-61699426D01*
X136269085Y-61699426D02*
X136269085Y-61966093D01*
X136269085Y-61966093D02*
X135269085Y-61966093D01*
X135269085Y-61966093D02*
X135269085Y-61732760D01*
X135269085Y-61732760D02*
X135316704Y-61666093D01*
X135316704Y-61666093D02*
X135364323Y-61632760D01*
X135364323Y-61632760D02*
X135459561Y-61599426D01*
X135459561Y-61599426D02*
X135554799Y-61599426D01*
X135554799Y-61599426D02*
X135650037Y-61632760D01*
X135650037Y-61632760D02*
X135697656Y-61666093D01*
X135697656Y-61666093D02*
X135745275Y-61732760D01*
X135745275Y-61732760D02*
X135745275Y-61966093D01*
X135983370Y-61299426D02*
X135983370Y-60966093D01*
X136269085Y-61366093D02*
X135269085Y-61132760D01*
X135269085Y-61132760D02*
X136269085Y-60899426D01*
X135269085Y-60766093D02*
X135269085Y-60366093D01*
X136269085Y-60566093D02*
X135269085Y-60566093D01*
X135269085Y-60232760D02*
X135269085Y-59832760D01*
X136269085Y-60032760D02*
X135269085Y-60032760D01*
X135745275Y-59599427D02*
X135745275Y-59366094D01*
X136269085Y-59266094D02*
X136269085Y-59599427D01*
X136269085Y-59599427D02*
X135269085Y-59599427D01*
X135269085Y-59599427D02*
X135269085Y-59266094D01*
X136269085Y-58566094D02*
X135792894Y-58799427D01*
X136269085Y-58966094D02*
X135269085Y-58966094D01*
X135269085Y-58966094D02*
X135269085Y-58699427D01*
X135269085Y-58699427D02*
X135316704Y-58632761D01*
X135316704Y-58632761D02*
X135364323Y-58599427D01*
X135364323Y-58599427D02*
X135459561Y-58566094D01*
X135459561Y-58566094D02*
X135602418Y-58566094D01*
X135602418Y-58566094D02*
X135697656Y-58599427D01*
X135697656Y-58599427D02*
X135745275Y-58632761D01*
X135745275Y-58632761D02*
X135792894Y-58699427D01*
X135792894Y-58699427D02*
X135792894Y-58966094D01*
X135792894Y-58132761D02*
X136269085Y-58132761D01*
X135269085Y-58366094D02*
X135792894Y-58132761D01*
X135792894Y-58132761D02*
X135269085Y-57899427D01*
D10*
X171016666Y-73801966D02*
X170992857Y-73835300D01*
X170992857Y-73835300D02*
X170921428Y-73868633D01*
X170921428Y-73868633D02*
X170873809Y-73868633D01*
X170873809Y-73868633D02*
X170802381Y-73835300D01*
X170802381Y-73835300D02*
X170754762Y-73768633D01*
X170754762Y-73768633D02*
X170730952Y-73701966D01*
X170730952Y-73701966D02*
X170707143Y-73568633D01*
X170707143Y-73568633D02*
X170707143Y-73468633D01*
X170707143Y-73468633D02*
X170730952Y-73335300D01*
X170730952Y-73335300D02*
X170754762Y-73268633D01*
X170754762Y-73268633D02*
X170802381Y-73201966D01*
X170802381Y-73201966D02*
X170873809Y-73168633D01*
X170873809Y-73168633D02*
X170921428Y-73168633D01*
X170921428Y-73168633D02*
X170992857Y-73201966D01*
X170992857Y-73201966D02*
X171016666Y-73235300D01*
X171183333Y-73168633D02*
X171492857Y-73168633D01*
X171492857Y-73168633D02*
X171326190Y-73435300D01*
X171326190Y-73435300D02*
X171397619Y-73435300D01*
X171397619Y-73435300D02*
X171445238Y-73468633D01*
X171445238Y-73468633D02*
X171469047Y-73501966D01*
X171469047Y-73501966D02*
X171492857Y-73568633D01*
X171492857Y-73568633D02*
X171492857Y-73735300D01*
X171492857Y-73735300D02*
X171469047Y-73801966D01*
X171469047Y-73801966D02*
X171445238Y-73835300D01*
X171445238Y-73835300D02*
X171397619Y-73868633D01*
X171397619Y-73868633D02*
X171254762Y-73868633D01*
X171254762Y-73868633D02*
X171207143Y-73835300D01*
X171207143Y-73835300D02*
X171183333Y-73801966D01*
X172312368Y-81635699D02*
X172288559Y-81669033D01*
X172288559Y-81669033D02*
X172217130Y-81702366D01*
X172217130Y-81702366D02*
X172169511Y-81702366D01*
X172169511Y-81702366D02*
X172098083Y-81669033D01*
X172098083Y-81669033D02*
X172050464Y-81602366D01*
X172050464Y-81602366D02*
X172026654Y-81535699D01*
X172026654Y-81535699D02*
X172002845Y-81402366D01*
X172002845Y-81402366D02*
X172002845Y-81302366D01*
X172002845Y-81302366D02*
X172026654Y-81169033D01*
X172026654Y-81169033D02*
X172050464Y-81102366D01*
X172050464Y-81102366D02*
X172098083Y-81035699D01*
X172098083Y-81035699D02*
X172169511Y-81002366D01*
X172169511Y-81002366D02*
X172217130Y-81002366D01*
X172217130Y-81002366D02*
X172288559Y-81035699D01*
X172288559Y-81035699D02*
X172312368Y-81069033D01*
X172788559Y-81702366D02*
X172502845Y-81702366D01*
X172645702Y-81702366D02*
X172645702Y-81002366D01*
X172645702Y-81002366D02*
X172598083Y-81102366D01*
X172598083Y-81102366D02*
X172550464Y-81169033D01*
X172550464Y-81169033D02*
X172502845Y-81202366D01*
X142601511Y-82654890D02*
X142577702Y-82688224D01*
X142577702Y-82688224D02*
X142506273Y-82721557D01*
X142506273Y-82721557D02*
X142458654Y-82721557D01*
X142458654Y-82721557D02*
X142387226Y-82688224D01*
X142387226Y-82688224D02*
X142339607Y-82621557D01*
X142339607Y-82621557D02*
X142315797Y-82554890D01*
X142315797Y-82554890D02*
X142291988Y-82421557D01*
X142291988Y-82421557D02*
X142291988Y-82321557D01*
X142291988Y-82321557D02*
X142315797Y-82188224D01*
X142315797Y-82188224D02*
X142339607Y-82121557D01*
X142339607Y-82121557D02*
X142387226Y-82054890D01*
X142387226Y-82054890D02*
X142458654Y-82021557D01*
X142458654Y-82021557D02*
X142506273Y-82021557D01*
X142506273Y-82021557D02*
X142577702Y-82054890D01*
X142577702Y-82054890D02*
X142601511Y-82088224D01*
X142768178Y-82021557D02*
X143101511Y-82021557D01*
X143101511Y-82021557D02*
X142887226Y-82721557D01*
X142451966Y-74369047D02*
X142451966Y-74202380D01*
X142818633Y-74130952D02*
X142818633Y-74369047D01*
X142818633Y-74369047D02*
X142118633Y-74369047D01*
X142118633Y-74369047D02*
X142118633Y-74130952D01*
X142818633Y-73916666D02*
X142118633Y-73916666D01*
X142118633Y-73916666D02*
X142818633Y-73630952D01*
X142818633Y-73630952D02*
X142118633Y-73630952D01*
X135618633Y-79116666D02*
X135618633Y-78807142D01*
X135618633Y-78807142D02*
X135885300Y-78973809D01*
X135885300Y-78973809D02*
X135885300Y-78902380D01*
X135885300Y-78902380D02*
X135918633Y-78854761D01*
X135918633Y-78854761D02*
X135951966Y-78830952D01*
X135951966Y-78830952D02*
X136018633Y-78807142D01*
X136018633Y-78807142D02*
X136185300Y-78807142D01*
X136185300Y-78807142D02*
X136251966Y-78830952D01*
X136251966Y-78830952D02*
X136285300Y-78854761D01*
X136285300Y-78854761D02*
X136318633Y-78902380D01*
X136318633Y-78902380D02*
X136318633Y-79045237D01*
X136318633Y-79045237D02*
X136285300Y-79092856D01*
X136285300Y-79092856D02*
X136251966Y-79116666D01*
X136318633Y-81207142D02*
X136318633Y-81492856D01*
X136318633Y-81349999D02*
X135618633Y-81349999D01*
X135618633Y-81349999D02*
X135718633Y-81397618D01*
X135718633Y-81397618D02*
X135785300Y-81445237D01*
X135785300Y-81445237D02*
X135818633Y-81492856D01*
X140417232Y-79379598D02*
X140393423Y-79412932D01*
X140393423Y-79412932D02*
X140321994Y-79446265D01*
X140321994Y-79446265D02*
X140274375Y-79446265D01*
X140274375Y-79446265D02*
X140202947Y-79412932D01*
X140202947Y-79412932D02*
X140155328Y-79346265D01*
X140155328Y-79346265D02*
X140131518Y-79279598D01*
X140131518Y-79279598D02*
X140107709Y-79146265D01*
X140107709Y-79146265D02*
X140107709Y-79046265D01*
X140107709Y-79046265D02*
X140131518Y-78912932D01*
X140131518Y-78912932D02*
X140155328Y-78846265D01*
X140155328Y-78846265D02*
X140202947Y-78779598D01*
X140202947Y-78779598D02*
X140274375Y-78746265D01*
X140274375Y-78746265D02*
X140321994Y-78746265D01*
X140321994Y-78746265D02*
X140393423Y-78779598D01*
X140393423Y-78779598D02*
X140417232Y-78812932D01*
X140845804Y-78746265D02*
X140750566Y-78746265D01*
X140750566Y-78746265D02*
X140702947Y-78779598D01*
X140702947Y-78779598D02*
X140679137Y-78812932D01*
X140679137Y-78812932D02*
X140631518Y-78912932D01*
X140631518Y-78912932D02*
X140607709Y-79046265D01*
X140607709Y-79046265D02*
X140607709Y-79312932D01*
X140607709Y-79312932D02*
X140631518Y-79379598D01*
X140631518Y-79379598D02*
X140655328Y-79412932D01*
X140655328Y-79412932D02*
X140702947Y-79446265D01*
X140702947Y-79446265D02*
X140798185Y-79446265D01*
X140798185Y-79446265D02*
X140845804Y-79412932D01*
X140845804Y-79412932D02*
X140869613Y-79379598D01*
X140869613Y-79379598D02*
X140893423Y-79312932D01*
X140893423Y-79312932D02*
X140893423Y-79146265D01*
X140893423Y-79146265D02*
X140869613Y-79079598D01*
X140869613Y-79079598D02*
X140845804Y-79046265D01*
X140845804Y-79046265D02*
X140798185Y-79012932D01*
X140798185Y-79012932D02*
X140702947Y-79012932D01*
X140702947Y-79012932D02*
X140655328Y-79046265D01*
X140655328Y-79046265D02*
X140631518Y-79079598D01*
X140631518Y-79079598D02*
X140607709Y-79146265D01*
D11*
X141302607Y-90539909D02*
X141435940Y-90539909D01*
X141435940Y-90539909D02*
X141502607Y-90587528D01*
X141502607Y-90587528D02*
X141569273Y-90682766D01*
X141569273Y-90682766D02*
X141602607Y-90873242D01*
X141602607Y-90873242D02*
X141602607Y-91206575D01*
X141602607Y-91206575D02*
X141569273Y-91397051D01*
X141569273Y-91397051D02*
X141502607Y-91492290D01*
X141502607Y-91492290D02*
X141435940Y-91539909D01*
X141435940Y-91539909D02*
X141302607Y-91539909D01*
X141302607Y-91539909D02*
X141235940Y-91492290D01*
X141235940Y-91492290D02*
X141169273Y-91397051D01*
X141169273Y-91397051D02*
X141135940Y-91206575D01*
X141135940Y-91206575D02*
X141135940Y-90873242D01*
X141135940Y-90873242D02*
X141169273Y-90682766D01*
X141169273Y-90682766D02*
X141235940Y-90587528D01*
X141235940Y-90587528D02*
X141302607Y-90539909D01*
X141902606Y-90539909D02*
X141902606Y-91349432D01*
X141902606Y-91349432D02*
X141935940Y-91444670D01*
X141935940Y-91444670D02*
X141969273Y-91492290D01*
X141969273Y-91492290D02*
X142035940Y-91539909D01*
X142035940Y-91539909D02*
X142169273Y-91539909D01*
X142169273Y-91539909D02*
X142235940Y-91492290D01*
X142235940Y-91492290D02*
X142269273Y-91444670D01*
X142269273Y-91444670D02*
X142302606Y-91349432D01*
X142302606Y-91349432D02*
X142302606Y-90539909D01*
X142535939Y-90539909D02*
X142935939Y-90539909D01*
X142735939Y-91539909D02*
X142735939Y-90539909D01*
X143169272Y-91539909D02*
X143169272Y-90539909D01*
X143169272Y-90539909D02*
X143435939Y-90539909D01*
X143435939Y-90539909D02*
X143502606Y-90587528D01*
X143502606Y-90587528D02*
X143535939Y-90635147D01*
X143535939Y-90635147D02*
X143569272Y-90730385D01*
X143569272Y-90730385D02*
X143569272Y-90873242D01*
X143569272Y-90873242D02*
X143535939Y-90968480D01*
X143535939Y-90968480D02*
X143502606Y-91016099D01*
X143502606Y-91016099D02*
X143435939Y-91063718D01*
X143435939Y-91063718D02*
X143169272Y-91063718D01*
X143869272Y-90539909D02*
X143869272Y-91349432D01*
X143869272Y-91349432D02*
X143902606Y-91444670D01*
X143902606Y-91444670D02*
X143935939Y-91492290D01*
X143935939Y-91492290D02*
X144002606Y-91539909D01*
X144002606Y-91539909D02*
X144135939Y-91539909D01*
X144135939Y-91539909D02*
X144202606Y-91492290D01*
X144202606Y-91492290D02*
X144235939Y-91444670D01*
X144235939Y-91444670D02*
X144269272Y-91349432D01*
X144269272Y-91349432D02*
X144269272Y-90539909D01*
X144502605Y-90539909D02*
X144902605Y-90539909D01*
X144702605Y-91539909D02*
X144702605Y-90539909D01*
D10*
X165826966Y-74216665D02*
X165826966Y-74383332D01*
X166193633Y-74383332D02*
X165493633Y-74383332D01*
X165493633Y-74383332D02*
X165493633Y-74145237D01*
X165826966Y-73788094D02*
X165860300Y-73716666D01*
X165860300Y-73716666D02*
X165893633Y-73692856D01*
X165893633Y-73692856D02*
X165960300Y-73669047D01*
X165960300Y-73669047D02*
X166060300Y-73669047D01*
X166060300Y-73669047D02*
X166126966Y-73692856D01*
X166126966Y-73692856D02*
X166160300Y-73716666D01*
X166160300Y-73716666D02*
X166193633Y-73764285D01*
X166193633Y-73764285D02*
X166193633Y-73954761D01*
X166193633Y-73954761D02*
X165493633Y-73954761D01*
X165493633Y-73954761D02*
X165493633Y-73788094D01*
X165493633Y-73788094D02*
X165526966Y-73740475D01*
X165526966Y-73740475D02*
X165560300Y-73716666D01*
X165560300Y-73716666D02*
X165626966Y-73692856D01*
X165626966Y-73692856D02*
X165693633Y-73692856D01*
X165693633Y-73692856D02*
X165760300Y-73716666D01*
X165760300Y-73716666D02*
X165793633Y-73740475D01*
X165793633Y-73740475D02*
X165826966Y-73788094D01*
X165826966Y-73788094D02*
X165826966Y-73954761D01*
X166193633Y-73192856D02*
X166193633Y-73478570D01*
X166193633Y-73335713D02*
X165493633Y-73335713D01*
X165493633Y-73335713D02*
X165593633Y-73383332D01*
X165593633Y-73383332D02*
X165660300Y-73430951D01*
X165660300Y-73430951D02*
X165693633Y-73478570D01*
X141290421Y-76297619D02*
X141257087Y-76345238D01*
X141257087Y-76345238D02*
X141190421Y-76392857D01*
X141190421Y-76392857D02*
X141090421Y-76464285D01*
X141090421Y-76464285D02*
X141057087Y-76511904D01*
X141057087Y-76511904D02*
X141057087Y-76559523D01*
X141223754Y-76535714D02*
X141190421Y-76583333D01*
X141190421Y-76583333D02*
X141123754Y-76630952D01*
X141123754Y-76630952D02*
X140990421Y-76654761D01*
X140990421Y-76654761D02*
X140757087Y-76654761D01*
X140757087Y-76654761D02*
X140623754Y-76630952D01*
X140623754Y-76630952D02*
X140557087Y-76583333D01*
X140557087Y-76583333D02*
X140523754Y-76535714D01*
X140523754Y-76535714D02*
X140523754Y-76440476D01*
X140523754Y-76440476D02*
X140557087Y-76392857D01*
X140557087Y-76392857D02*
X140623754Y-76345238D01*
X140623754Y-76345238D02*
X140757087Y-76321428D01*
X140757087Y-76321428D02*
X140990421Y-76321428D01*
X140990421Y-76321428D02*
X141123754Y-76345238D01*
X141123754Y-76345238D02*
X141190421Y-76392857D01*
X141190421Y-76392857D02*
X141223754Y-76440476D01*
X141223754Y-76440476D02*
X141223754Y-76535714D01*
X141223754Y-75845237D02*
X141223754Y-76130951D01*
X141223754Y-75988094D02*
X140523754Y-75988094D01*
X140523754Y-75988094D02*
X140623754Y-76035713D01*
X140623754Y-76035713D02*
X140690421Y-76083332D01*
X140690421Y-76083332D02*
X140723754Y-76130951D01*
D11*
X157658463Y-78531775D02*
X157658463Y-77722252D01*
X157658463Y-77722252D02*
X157610844Y-77627014D01*
X157610844Y-77627014D02*
X157563225Y-77579395D01*
X157563225Y-77579395D02*
X157467987Y-77531775D01*
X157467987Y-77531775D02*
X157277511Y-77531775D01*
X157277511Y-77531775D02*
X157182273Y-77579395D01*
X157182273Y-77579395D02*
X157134654Y-77627014D01*
X157134654Y-77627014D02*
X157087035Y-77722252D01*
X157087035Y-77722252D02*
X157087035Y-78531775D01*
X156706082Y-78531775D02*
X156087035Y-78531775D01*
X156087035Y-78531775D02*
X156420368Y-78150823D01*
X156420368Y-78150823D02*
X156277511Y-78150823D01*
X156277511Y-78150823D02*
X156182273Y-78103204D01*
X156182273Y-78103204D02*
X156134654Y-78055585D01*
X156134654Y-78055585D02*
X156087035Y-77960347D01*
X156087035Y-77960347D02*
X156087035Y-77722252D01*
X156087035Y-77722252D02*
X156134654Y-77627014D01*
X156134654Y-77627014D02*
X156182273Y-77579395D01*
X156182273Y-77579395D02*
X156277511Y-77531775D01*
X156277511Y-77531775D02*
X156563225Y-77531775D01*
X156563225Y-77531775D02*
X156658463Y-77579395D01*
X156658463Y-77579395D02*
X156706082Y-77627014D01*
D10*
X169016666Y-74026966D02*
X168992857Y-74060300D01*
X168992857Y-74060300D02*
X168921428Y-74093633D01*
X168921428Y-74093633D02*
X168873809Y-74093633D01*
X168873809Y-74093633D02*
X168802381Y-74060300D01*
X168802381Y-74060300D02*
X168754762Y-73993633D01*
X168754762Y-73993633D02*
X168730952Y-73926966D01*
X168730952Y-73926966D02*
X168707143Y-73793633D01*
X168707143Y-73793633D02*
X168707143Y-73693633D01*
X168707143Y-73693633D02*
X168730952Y-73560300D01*
X168730952Y-73560300D02*
X168754762Y-73493633D01*
X168754762Y-73493633D02*
X168802381Y-73426966D01*
X168802381Y-73426966D02*
X168873809Y-73393633D01*
X168873809Y-73393633D02*
X168921428Y-73393633D01*
X168921428Y-73393633D02*
X168992857Y-73426966D01*
X168992857Y-73426966D02*
X169016666Y-73460300D01*
X169207143Y-73460300D02*
X169230952Y-73426966D01*
X169230952Y-73426966D02*
X169278571Y-73393633D01*
X169278571Y-73393633D02*
X169397619Y-73393633D01*
X169397619Y-73393633D02*
X169445238Y-73426966D01*
X169445238Y-73426966D02*
X169469047Y-73460300D01*
X169469047Y-73460300D02*
X169492857Y-73526966D01*
X169492857Y-73526966D02*
X169492857Y-73593633D01*
X169492857Y-73593633D02*
X169469047Y-73693633D01*
X169469047Y-73693633D02*
X169183333Y-74093633D01*
X169183333Y-74093633D02*
X169492857Y-74093633D01*
X136418633Y-68083333D02*
X136085300Y-68249999D01*
X136418633Y-68369047D02*
X135718633Y-68369047D01*
X135718633Y-68369047D02*
X135718633Y-68178571D01*
X135718633Y-68178571D02*
X135751966Y-68130952D01*
X135751966Y-68130952D02*
X135785300Y-68107142D01*
X135785300Y-68107142D02*
X135851966Y-68083333D01*
X135851966Y-68083333D02*
X135951966Y-68083333D01*
X135951966Y-68083333D02*
X136018633Y-68107142D01*
X136018633Y-68107142D02*
X136051966Y-68130952D01*
X136051966Y-68130952D02*
X136085300Y-68178571D01*
X136085300Y-68178571D02*
X136085300Y-68369047D01*
X135718633Y-67916666D02*
X135718633Y-67607142D01*
X135718633Y-67607142D02*
X135985300Y-67773809D01*
X135985300Y-67773809D02*
X135985300Y-67702380D01*
X135985300Y-67702380D02*
X136018633Y-67654761D01*
X136018633Y-67654761D02*
X136051966Y-67630952D01*
X136051966Y-67630952D02*
X136118633Y-67607142D01*
X136118633Y-67607142D02*
X136285300Y-67607142D01*
X136285300Y-67607142D02*
X136351966Y-67630952D01*
X136351966Y-67630952D02*
X136385300Y-67654761D01*
X136385300Y-67654761D02*
X136418633Y-67702380D01*
X136418633Y-67702380D02*
X136418633Y-67845237D01*
X136418633Y-67845237D02*
X136385300Y-67892856D01*
X136385300Y-67892856D02*
X136351966Y-67916666D01*
D11*
X135437543Y-87183332D02*
X135437543Y-87049998D01*
X135437543Y-87049998D02*
X135485162Y-86983332D01*
X135485162Y-86983332D02*
X135580400Y-86916665D01*
X135580400Y-86916665D02*
X135770876Y-86883332D01*
X135770876Y-86883332D02*
X136104209Y-86883332D01*
X136104209Y-86883332D02*
X136294685Y-86916665D01*
X136294685Y-86916665D02*
X136389924Y-86983332D01*
X136389924Y-86983332D02*
X136437543Y-87049998D01*
X136437543Y-87049998D02*
X136437543Y-87183332D01*
X136437543Y-87183332D02*
X136389924Y-87249998D01*
X136389924Y-87249998D02*
X136294685Y-87316665D01*
X136294685Y-87316665D02*
X136104209Y-87349998D01*
X136104209Y-87349998D02*
X135770876Y-87349998D01*
X135770876Y-87349998D02*
X135580400Y-87316665D01*
X135580400Y-87316665D02*
X135485162Y-87249998D01*
X135485162Y-87249998D02*
X135437543Y-87183332D01*
X135437543Y-86583332D02*
X136247066Y-86583332D01*
X136247066Y-86583332D02*
X136342304Y-86549999D01*
X136342304Y-86549999D02*
X136389924Y-86516665D01*
X136389924Y-86516665D02*
X136437543Y-86449999D01*
X136437543Y-86449999D02*
X136437543Y-86316665D01*
X136437543Y-86316665D02*
X136389924Y-86249999D01*
X136389924Y-86249999D02*
X136342304Y-86216665D01*
X136342304Y-86216665D02*
X136247066Y-86183332D01*
X136247066Y-86183332D02*
X135437543Y-86183332D01*
X135437543Y-85949999D02*
X135437543Y-85549999D01*
X136437543Y-85749999D02*
X135437543Y-85749999D01*
X136437543Y-85316666D02*
X135437543Y-85316666D01*
X135437543Y-85316666D02*
X135437543Y-85049999D01*
X135437543Y-85049999D02*
X135485162Y-84983333D01*
X135485162Y-84983333D02*
X135532781Y-84949999D01*
X135532781Y-84949999D02*
X135628019Y-84916666D01*
X135628019Y-84916666D02*
X135770876Y-84916666D01*
X135770876Y-84916666D02*
X135866114Y-84949999D01*
X135866114Y-84949999D02*
X135913733Y-84983333D01*
X135913733Y-84983333D02*
X135961352Y-85049999D01*
X135961352Y-85049999D02*
X135961352Y-85316666D01*
X135437543Y-84616666D02*
X136247066Y-84616666D01*
X136247066Y-84616666D02*
X136342304Y-84583333D01*
X136342304Y-84583333D02*
X136389924Y-84549999D01*
X136389924Y-84549999D02*
X136437543Y-84483333D01*
X136437543Y-84483333D02*
X136437543Y-84349999D01*
X136437543Y-84349999D02*
X136389924Y-84283333D01*
X136389924Y-84283333D02*
X136342304Y-84249999D01*
X136342304Y-84249999D02*
X136247066Y-84216666D01*
X136247066Y-84216666D02*
X135437543Y-84216666D01*
X135437543Y-83983333D02*
X135437543Y-83583333D01*
X136437543Y-83783333D02*
X135437543Y-83783333D01*
X136206688Y-75145635D02*
X135730497Y-75378968D01*
X136206688Y-75545635D02*
X135206688Y-75545635D01*
X135206688Y-75545635D02*
X135206688Y-75278968D01*
X135206688Y-75278968D02*
X135254307Y-75212302D01*
X135254307Y-75212302D02*
X135301926Y-75178968D01*
X135301926Y-75178968D02*
X135397164Y-75145635D01*
X135397164Y-75145635D02*
X135540021Y-75145635D01*
X135540021Y-75145635D02*
X135635259Y-75178968D01*
X135635259Y-75178968D02*
X135682878Y-75212302D01*
X135682878Y-75212302D02*
X135730497Y-75278968D01*
X135730497Y-75278968D02*
X135730497Y-75545635D01*
X135682878Y-74845635D02*
X135682878Y-74612302D01*
X136206688Y-74512302D02*
X136206688Y-74845635D01*
X136206688Y-74845635D02*
X135206688Y-74845635D01*
X135206688Y-74845635D02*
X135206688Y-74512302D01*
X136206688Y-74212302D02*
X135206688Y-74212302D01*
X135206688Y-74212302D02*
X135920973Y-73978969D01*
X135920973Y-73978969D02*
X135206688Y-73745635D01*
X135206688Y-73745635D02*
X136206688Y-73745635D01*
X135206688Y-73278969D02*
X135206688Y-73145635D01*
X135206688Y-73145635D02*
X135254307Y-73078969D01*
X135254307Y-73078969D02*
X135349545Y-73012302D01*
X135349545Y-73012302D02*
X135540021Y-72978969D01*
X135540021Y-72978969D02*
X135873354Y-72978969D01*
X135873354Y-72978969D02*
X136063830Y-73012302D01*
X136063830Y-73012302D02*
X136159069Y-73078969D01*
X136159069Y-73078969D02*
X136206688Y-73145635D01*
X136206688Y-73145635D02*
X136206688Y-73278969D01*
X136206688Y-73278969D02*
X136159069Y-73345635D01*
X136159069Y-73345635D02*
X136063830Y-73412302D01*
X136063830Y-73412302D02*
X135873354Y-73445635D01*
X135873354Y-73445635D02*
X135540021Y-73445635D01*
X135540021Y-73445635D02*
X135349545Y-73412302D01*
X135349545Y-73412302D02*
X135254307Y-73345635D01*
X135254307Y-73345635D02*
X135206688Y-73278969D01*
X135206688Y-72778969D02*
X135206688Y-72378969D01*
X136206688Y-72578969D02*
X135206688Y-72578969D01*
X135682878Y-72145636D02*
X135682878Y-71912303D01*
X136206688Y-71812303D02*
X136206688Y-72145636D01*
X136206688Y-72145636D02*
X135206688Y-72145636D01*
X135206688Y-72145636D02*
X135206688Y-71812303D01*
%TO.C,R2*%
D12*
X138162258Y-66004757D02*
X137687742Y-66004757D01*
X138162258Y-67049757D02*
X137687742Y-67049757D01*
%TO.C,R1*%
X140227500Y-76987258D02*
X140227500Y-76512742D01*
X141272500Y-76987258D02*
X141272500Y-76512742D01*
%TO.C,J3*%
X171300000Y-85840000D02*
X171300000Y-86950000D01*
X171300000Y-86950000D02*
X170190000Y-86950000D01*
%TO.C,C5*%
X143164975Y-81198477D02*
X143687479Y-81198477D01*
X143164975Y-82668477D02*
X143687479Y-82668477D01*
%TO.C,C4*%
X143217317Y-79585097D02*
X143498477Y-79585097D01*
X143217317Y-80605097D02*
X143498477Y-80605097D01*
%TO.C,U2*%
X139660000Y-54910000D02*
X170140000Y-54910000D01*
X170140000Y-72690000D01*
X139660000Y-72690000D01*
X139660000Y-54910000D01*
%TO.C,J14*%
X165740000Y-52450000D02*
X166850000Y-52450000D01*
X166850000Y-52450000D02*
X166850000Y-53560000D01*
%TO.C,J2*%
X136614115Y-60987411D02*
X136614115Y-56877411D01*
X138834115Y-56877411D02*
X136614115Y-56877411D01*
X138834115Y-60987411D02*
X136614115Y-60987411D01*
X138834115Y-60987411D02*
X138834115Y-56877411D01*
X138834115Y-61987411D02*
X138834115Y-63097411D01*
X138834115Y-63097411D02*
X137724115Y-63097411D01*
%TO.C,C3*%
X170365000Y-75338748D02*
X170365000Y-75861252D01*
X171835000Y-75338748D02*
X171835000Y-75861252D01*
%TO.C,C1*%
X168330000Y-77690000D02*
X168330000Y-80710000D01*
X168330000Y-80710000D02*
X172550000Y-80710000D01*
X172550000Y-77690000D02*
X168330000Y-77690000D01*
%TO.C,C7*%
X140214845Y-83242924D02*
X140214845Y-86262924D01*
X140214845Y-86262924D02*
X144434845Y-86262924D01*
X144434845Y-83242924D02*
X140214845Y-83242924D01*
%TO.C,JP1*%
X136750000Y-81700000D02*
X136750000Y-78900000D01*
X137450000Y-78250000D02*
X138050000Y-78250000D01*
X138050000Y-82350000D02*
X137450000Y-82350000D01*
X138750000Y-78900000D02*
X138750000Y-81700000D01*
X136750000Y-78950000D02*
G75*
G02*
X137450000Y-78250000I700000J0D01*
G01*
X137450000Y-82350000D02*
G75*
G02*
X136750000Y-81650000I-1J699999D01*
G01*
X138050000Y-78250000D02*
G75*
G02*
X138750000Y-78950000I0J-700000D01*
G01*
X138750000Y-81650000D02*
G75*
G02*
X138050000Y-82350000I-699999J-1D01*
G01*
%TO.C,C6*%
X139765566Y-81438884D02*
X139765566Y-80916380D01*
X141235566Y-81438884D02*
X141235566Y-80916380D01*
%TO.C,J4*%
X140875939Y-87975090D02*
X140875939Y-90195090D01*
X142985939Y-87975090D02*
X140875939Y-87975090D01*
X142985939Y-87975090D02*
X142985939Y-90195090D01*
X142985939Y-90195090D02*
X140875939Y-90195090D01*
X143985939Y-87975090D02*
X145095939Y-87975090D01*
X145095939Y-87975090D02*
X145095939Y-89085090D01*
%TO.C,FB1*%
X163924721Y-73290000D02*
X164250279Y-73290000D01*
X163924721Y-74310000D02*
X164250279Y-74310000D01*
%TO.C,Q1*%
X141745121Y-75490000D02*
X142745121Y-75490000D01*
X141745121Y-77010000D02*
X141745121Y-75490000D01*
X141795121Y-77010000D02*
X141745121Y-77010000D01*
X143695121Y-77010000D02*
X142915121Y-77010000D01*
X143865121Y-75490000D02*
X144865121Y-75490000D01*
X144865121Y-75490000D02*
X144865121Y-77010000D01*
X144865121Y-77010000D02*
X144815121Y-77010000D01*
X143255121Y-77790000D02*
X142925121Y-77550000D01*
X143255121Y-77310000D01*
X143255121Y-77790000D01*
G36*
X143255121Y-77790000D02*
G01*
X142925121Y-77550000D01*
X143255121Y-77310000D01*
X143255121Y-77790000D01*
G37*
%TO.C,U3*%
X145841608Y-74813133D02*
X167939608Y-74813133D01*
X167939608Y-91577133D01*
X145841608Y-91577133D01*
X145841608Y-74813133D01*
%TO.C,C2*%
X168590000Y-75459420D02*
X168590000Y-75740580D01*
X169610000Y-75459420D02*
X169610000Y-75740580D01*
%TO.C,R3*%
X138162258Y-67477500D02*
X137687742Y-67477500D01*
X138162258Y-68522500D02*
X137687742Y-68522500D01*
%TO.C,J9*%
X136672724Y-85500000D02*
X136672724Y-83390000D01*
X138892724Y-83390000D02*
X136672724Y-83390000D01*
X138892724Y-85500000D02*
X136672724Y-85500000D01*
X138892724Y-85500000D02*
X138892724Y-83390000D01*
X138892724Y-86500000D02*
X138892724Y-87610000D01*
X138892724Y-87610000D02*
X137782724Y-87610000D01*
%TO.C,J7*%
X136343528Y-69689309D02*
X137453528Y-69689309D01*
X136343528Y-70799309D02*
X136343528Y-69689309D01*
%TD*%
%LPC*%
%TO.C,JP1*%
G36*
X137000000Y-79550000D02*
G01*
X138500000Y-79550000D01*
X138500000Y-81050000D01*
X137000000Y-81050000D01*
X137000000Y-79550000D01*
G37*
%TD*%
D13*
%TO.C,R2*%
X138750000Y-66527257D03*
X137100000Y-66527257D03*
%TD*%
D14*
%TO.C,R1*%
X140750000Y-77575000D03*
X140750000Y-75925000D03*
%TD*%
D15*
%TO.C,J3*%
X170190000Y-85840000D03*
D16*
X170190000Y-83840000D03*
%TD*%
D17*
%TO.C,C5*%
X142476227Y-81933477D03*
X144376227Y-81933477D03*
%TD*%
D18*
%TO.C,C4*%
X142582897Y-80095097D03*
X144132897Y-80095097D03*
%TD*%
D19*
%TO.C,U2*%
X140914971Y-61233697D03*
X140930000Y-56180000D03*
X140914971Y-63732365D03*
X140914971Y-66302422D03*
X140914971Y-71371148D03*
X168757267Y-71585320D03*
X168772296Y-56394172D03*
%TD*%
D15*
%TO.C,J14*%
X165740000Y-53560000D03*
D16*
X163740000Y-53560000D03*
%TD*%
D15*
%TO.C,J2*%
X137724115Y-61987411D03*
D16*
X137724115Y-59987411D03*
X137724115Y-57987411D03*
%TD*%
D20*
%TO.C,C3*%
X171100000Y-74650000D03*
X171100000Y-76550000D03*
%TD*%
D21*
%TO.C,C1*%
X169260000Y-79200000D03*
X172340000Y-79200000D03*
%TD*%
%TO.C,C7*%
X141144845Y-84752924D03*
X144224845Y-84752924D03*
%TD*%
D19*
%TO.C,J8*%
X141000000Y-74000000D03*
%TD*%
D22*
%TO.C,JP1*%
X137750000Y-81600000D03*
D23*
X137750000Y-80300000D03*
D24*
X137750000Y-79000000D03*
%TD*%
D25*
%TO.C,C6*%
X140500566Y-82127632D03*
X140500566Y-80227632D03*
%TD*%
D15*
%TO.C,J4*%
X143985939Y-89085090D03*
D16*
X141985939Y-89085090D03*
%TD*%
D26*
%TO.C,FB1*%
X163300000Y-73800000D03*
X164875000Y-73800000D03*
%TD*%
D27*
%TO.C,Q1*%
X142355121Y-77187500D03*
X144255121Y-77187500D03*
X143305121Y-75312500D03*
%TD*%
D28*
%TO.C,U3*%
X166161608Y-89799133D03*
X166161608Y-87259133D03*
X166161608Y-79131133D03*
X166161608Y-76591133D03*
X147619608Y-79131133D03*
X147619608Y-76591133D03*
X147619608Y-89799133D03*
X147619608Y-87259133D03*
%TD*%
D29*
%TO.C,C2*%
X169100000Y-74825000D03*
X169100000Y-76375000D03*
%TD*%
D13*
%TO.C,R3*%
X138750000Y-68000000D03*
X137100000Y-68000000D03*
%TD*%
D15*
%TO.C,J9*%
X137782724Y-86500000D03*
D16*
X137782724Y-84500000D03*
%TD*%
D15*
%TO.C,J7*%
X137453528Y-70799309D03*
D16*
X137453528Y-72799309D03*
X137453528Y-74799309D03*
X137453528Y-76799309D03*
%TD*%
%LPD*%
M02*
