%TF.GenerationSoftware,KiCad,Pcbnew,10.0.1*%
%TF.CreationDate,2026-05-16T15:39:36+09:00*%
%TF.ProjectId,power_IP2326_MP1584,706f7765-725f-4495-9032-3332365f4d50,rev?*%
%TF.SameCoordinates,Original*%
%TF.FileFunction,Soldermask,Top*%
%TF.FilePolarity,Negative*%
%FSLAX46Y46*%
G04 Gerber Fmt 4.6, Leading zero omitted, Abs format (unit mm)*
G04 Created by KiCad (PCBNEW 10.0.1) date 2026-05-16 15:39:36*
%MOMM*%
%LPD*%
G01*
G04 APERTURE LIST*
G04 Aperture macros list*
%AMRoundRect*
0 Rectangle with rounded corners*
0 $1 Rounding radius*
0 $2 $3 $4 $5 $6 $7 $8 $9 X,Y pos of 4 corners*
0 Add a 4 corners polygon primitive as box body*
4,1,4,$2,$3,$4,$5,$6,$7,$8,$9,$2,$3,0*
0 Add four circle primitives for the rounded corners*
1,1,$1+$1,$2,$3*
1,1,$1+$1,$4,$5*
1,1,$1+$1,$6,$7*
1,1,$1+$1,$8,$9*
0 Add four rect primitives between the rounded corners*
20,1,$1+$1,$2,$3,$4,$5,0*
20,1,$1+$1,$4,$5,$6,$7,0*
20,1,$1+$1,$6,$7,$8,$9,0*
20,1,$1+$1,$8,$9,$2,$3,0*%
%AMFreePoly0*
4,1,23,0.550000,-0.750000,0.000000,-0.750000,0.000000,-0.745722,-0.065263,-0.745722,-0.191342,-0.711940,-0.304381,-0.646677,-0.396677,-0.554381,-0.461940,-0.441342,-0.495722,-0.315263,-0.495722,-0.250000,-0.500000,-0.250000,-0.500000,0.250000,-0.495722,0.250000,-0.495722,0.315263,-0.461940,0.441342,-0.396677,0.554381,-0.304381,0.646677,-0.191342,0.711940,-0.065263,0.745722,0.000000,0.745722,
0.000000,0.750000,0.550000,0.750000,0.550000,-0.750000,0.550000,-0.750000,$1*%
%AMFreePoly1*
4,1,23,0.000000,0.745722,0.065263,0.745722,0.191342,0.711940,0.304381,0.646677,0.396677,0.554381,0.461940,0.441342,0.495722,0.315263,0.495722,0.250000,0.500000,0.250000,0.500000,-0.250000,0.495722,-0.250000,0.495722,-0.315263,0.461940,-0.441342,0.396677,-0.554381,0.304381,-0.646677,0.191342,-0.711940,0.065263,-0.745722,0.000000,-0.745722,0.000000,-0.750000,-0.550000,-0.750000,
-0.550000,0.750000,0.000000,0.750000,0.000000,0.745722,0.000000,0.745722,$1*%
G04 Aperture macros list end*
%ADD10RoundRect,0.200000X0.200000X0.275000X-0.200000X0.275000X-0.200000X-0.275000X0.200000X-0.275000X0*%
%ADD11RoundRect,0.200000X0.275000X-0.200000X0.275000X0.200000X-0.275000X0.200000X-0.275000X-0.200000X0*%
%ADD12R,1.350000X1.350000*%
%ADD13C,1.350000*%
%ADD14RoundRect,0.250000X-0.250000X-0.475000X0.250000X-0.475000X0.250000X0.475000X-0.250000X0.475000X0*%
%ADD15RoundRect,0.225000X-0.225000X-0.250000X0.225000X-0.250000X0.225000X0.250000X-0.225000X0.250000X0*%
%ADD16C,1.700000*%
%ADD17RoundRect,0.250000X-0.475000X0.250000X-0.475000X-0.250000X0.475000X-0.250000X0.475000X0.250000X0*%
%ADD18RoundRect,0.250000X-0.420000X-0.945000X0.420000X-0.945000X0.420000X0.945000X-0.420000X0.945000X0*%
%ADD19FreePoly0,90.000000*%
%ADD20R,1.500000X1.000000*%
%ADD21FreePoly1,90.000000*%
%ADD22RoundRect,0.250000X0.475000X-0.250000X0.475000X0.250000X-0.475000X0.250000X-0.475000X-0.250000X0*%
%ADD23RoundRect,0.218750X-0.218750X-0.256250X0.218750X-0.256250X0.218750X0.256250X-0.218750X0.256250X0*%
%ADD24RoundRect,0.150000X0.150000X-0.587500X0.150000X0.587500X-0.150000X0.587500X-0.150000X-0.587500X0*%
%ADD25C,2.000000*%
%ADD26RoundRect,0.225000X-0.250000X0.225000X-0.250000X-0.225000X0.250000X-0.225000X0.250000X0.225000X0*%
G04 APERTURE END LIST*
%TO.C,JP1*%
G36*
X137000000Y-79550000D02*
G01*
X138500000Y-79550000D01*
X138500000Y-81050000D01*
X137000000Y-81050000D01*
X137000000Y-79550000D01*
G37*
%TD*%
D10*
%TO.C,R2*%
X138750000Y-66527257D03*
X137100000Y-66527257D03*
%TD*%
D11*
%TO.C,R1*%
X140750000Y-77575000D03*
X140750000Y-75925000D03*
%TD*%
D12*
%TO.C,J3*%
X170190000Y-85840000D03*
D13*
X170190000Y-83840000D03*
%TD*%
D14*
%TO.C,C5*%
X142476227Y-81933477D03*
X144376227Y-81933477D03*
%TD*%
D15*
%TO.C,C4*%
X142582897Y-80095097D03*
X144132897Y-80095097D03*
%TD*%
D16*
%TO.C,U2*%
X140914971Y-61233697D03*
X140930000Y-56180000D03*
X140914971Y-63732365D03*
X140914971Y-66302422D03*
X140914971Y-71371148D03*
X168757267Y-71585320D03*
X168772296Y-56394172D03*
%TD*%
D12*
%TO.C,J14*%
X165740000Y-53560000D03*
D13*
X163740000Y-53560000D03*
%TD*%
D12*
%TO.C,J2*%
X137724115Y-61987411D03*
D13*
X137724115Y-59987411D03*
X137724115Y-57987411D03*
%TD*%
D17*
%TO.C,C3*%
X171100000Y-74650000D03*
X171100000Y-76550000D03*
%TD*%
D18*
%TO.C,C1*%
X169260000Y-79200000D03*
X172340000Y-79200000D03*
%TD*%
%TO.C,C7*%
X141144845Y-84752924D03*
X144224845Y-84752924D03*
%TD*%
D16*
%TO.C,J8*%
X141000000Y-74000000D03*
%TD*%
D19*
%TO.C,JP1*%
X137750000Y-81600000D03*
D20*
X137750000Y-80300000D03*
D21*
X137750000Y-79000000D03*
%TD*%
D22*
%TO.C,C6*%
X140500566Y-82127632D03*
X140500566Y-80227632D03*
%TD*%
D12*
%TO.C,J4*%
X143985939Y-89085090D03*
D13*
X141985939Y-89085090D03*
%TD*%
D23*
%TO.C,FB1*%
X163300000Y-73800000D03*
X164875000Y-73800000D03*
%TD*%
D24*
%TO.C,Q1*%
X142355121Y-77187500D03*
X144255121Y-77187500D03*
X143305121Y-75312500D03*
%TD*%
D25*
%TO.C,U3*%
X166161608Y-89799133D03*
X166161608Y-87259133D03*
X166161608Y-79131133D03*
X166161608Y-76591133D03*
X147619608Y-79131133D03*
X147619608Y-76591133D03*
X147619608Y-89799133D03*
X147619608Y-87259133D03*
%TD*%
D26*
%TO.C,C2*%
X169100000Y-74825000D03*
X169100000Y-76375000D03*
%TD*%
D10*
%TO.C,R3*%
X138750000Y-68000000D03*
X137100000Y-68000000D03*
%TD*%
D12*
%TO.C,J9*%
X137782724Y-86500000D03*
D13*
X137782724Y-84500000D03*
%TD*%
D12*
%TO.C,J7*%
X137453528Y-70799309D03*
D13*
X137453528Y-72799309D03*
X137453528Y-74799309D03*
X137453528Y-76799309D03*
%TD*%
M02*
