%TF.GenerationSoftware,KiCad,Pcbnew,10.0.1*%
%TF.CreationDate,2026-05-18T01:38:09+09:00*%
%TF.ProjectId,core-XIAO-02,636f7265-2d58-4494-914f-2d30322e6b69,rev?*%
%TF.SameCoordinates,Original*%
%TF.FileFunction,Legend,Bot*%
%TF.FilePolarity,Positive*%
%FSLAX46Y46*%
G04 Gerber Fmt 4.6, Leading zero omitted, Abs format (unit mm)*
G04 Created by KiCad (PCBNEW 10.0.1) date 2026-05-18 01:38:09*
%MOMM*%
%LPD*%
G01*
G04 APERTURE LIST*
G04 Aperture macros list*
%AMRoundRect*
0 Rectangle with rounded corners*
0 $1 Rounding radius*
0 $2 $3 $4 $5 $6 $7 $8 $9 X,Y pos of 4 corners*
0 Add a 4 corners polygon primitive as box body*
4,1,4,$2,$3,$4,$5,$6,$7,$8,$9,$2,$3,0*
0 Add four circle primitives for the rounded corners*
1,1,$1+$1,$2,$3*
1,1,$1+$1,$4,$5*
1,1,$1+$1,$6,$7*
1,1,$1+$1,$8,$9*
0 Add four rect primitives between the rounded corners*
20,1,$1+$1,$2,$3,$4,$5,0*
20,1,$1+$1,$4,$5,$6,$7,0*
20,1,$1+$1,$6,$7,$8,$9,0*
20,1,$1+$1,$8,$9,$2,$3,0*%
%AMFreePoly0*
4,1,17,0.328621,0.767961,0.767961,0.328621,0.775400,0.310660,0.775400,-0.310660,0.767961,-0.328621,0.328621,-0.767961,0.310660,-0.775400,-0.310660,-0.775400,-0.328621,-0.767961,-0.767961,-0.328621,-0.775400,-0.310660,-0.775400,0.310660,-0.767961,0.328621,-0.328621,0.767961,-0.310660,0.775400,0.310660,0.775400,0.328621,0.767961,0.328621,0.767961,$1*%
G04 Aperture macros list end*
%ADD10C,0.150000*%
%ADD11C,0.100000*%
%ADD12C,0.120000*%
%ADD13C,1.700000*%
%ADD14R,1.350000X1.350000*%
%ADD15C,1.350000*%
%ADD16FreePoly0,180.000000*%
%ADD17C,1.550800*%
%ADD18C,1.524000*%
%ADD19R,1.700000X1.700000*%
%ADD20RoundRect,0.225000X-0.250000X0.225000X-0.250000X-0.225000X0.250000X-0.225000X0.250000X0.225000X0*%
%ADD21RoundRect,0.150000X0.875000X0.150000X-0.875000X0.150000X-0.875000X-0.150000X0.875000X-0.150000X0*%
%ADD22RoundRect,0.237500X-0.300000X-0.237500X0.300000X-0.237500X0.300000X0.237500X-0.300000X0.237500X0*%
G04 APERTURE END LIST*
D10*
X108476189Y-72704819D02*
X108476189Y-71704819D01*
X108047618Y-71800057D02*
X107999999Y-71752438D01*
X107999999Y-71752438D02*
X107904761Y-71704819D01*
X107904761Y-71704819D02*
X107666666Y-71704819D01*
X107666666Y-71704819D02*
X107571428Y-71752438D01*
X107571428Y-71752438D02*
X107523809Y-71800057D01*
X107523809Y-71800057D02*
X107476190Y-71895295D01*
X107476190Y-71895295D02*
X107476190Y-71990533D01*
X107476190Y-71990533D02*
X107523809Y-72133390D01*
X107523809Y-72133390D02*
X108095237Y-72704819D01*
X108095237Y-72704819D02*
X107476190Y-72704819D01*
X106476190Y-72609580D02*
X106523809Y-72657200D01*
X106523809Y-72657200D02*
X106666666Y-72704819D01*
X106666666Y-72704819D02*
X106761904Y-72704819D01*
X106761904Y-72704819D02*
X106904761Y-72657200D01*
X106904761Y-72657200D02*
X106999999Y-72561961D01*
X106999999Y-72561961D02*
X107047618Y-72466723D01*
X107047618Y-72466723D02*
X107095237Y-72276247D01*
X107095237Y-72276247D02*
X107095237Y-72133390D01*
X107095237Y-72133390D02*
X107047618Y-71942914D01*
X107047618Y-71942914D02*
X106999999Y-71847676D01*
X106999999Y-71847676D02*
X106904761Y-71752438D01*
X106904761Y-71752438D02*
X106761904Y-71704819D01*
X106761904Y-71704819D02*
X106666666Y-71704819D01*
X106666666Y-71704819D02*
X106523809Y-71752438D01*
X106523809Y-71752438D02*
X106476190Y-71800057D01*
D11*
X110007419Y-90333333D02*
X111007419Y-90566667D01*
X111007419Y-90566667D02*
X110007419Y-90800000D01*
X111007419Y-91033333D02*
X110007419Y-91033333D01*
X111007419Y-91366666D02*
X110007419Y-91366666D01*
X110007419Y-91366666D02*
X111007419Y-91766666D01*
X111007419Y-91766666D02*
X110007419Y-91766666D01*
X110007419Y-84233333D02*
X110007419Y-84666666D01*
X110007419Y-84666666D02*
X110388371Y-84433333D01*
X110388371Y-84433333D02*
X110388371Y-84533333D01*
X110388371Y-84533333D02*
X110435990Y-84599999D01*
X110435990Y-84599999D02*
X110483609Y-84633333D01*
X110483609Y-84633333D02*
X110578847Y-84666666D01*
X110578847Y-84666666D02*
X110816942Y-84666666D01*
X110816942Y-84666666D02*
X110912180Y-84633333D01*
X110912180Y-84633333D02*
X110959800Y-84599999D01*
X110959800Y-84599999D02*
X111007419Y-84533333D01*
X111007419Y-84533333D02*
X111007419Y-84333333D01*
X111007419Y-84333333D02*
X110959800Y-84266666D01*
X110959800Y-84266666D02*
X110912180Y-84233333D01*
X110007419Y-84866666D02*
X111007419Y-85100000D01*
X111007419Y-85100000D02*
X110007419Y-85333333D01*
X110007419Y-85500000D02*
X110007419Y-85933333D01*
X110007419Y-85933333D02*
X110388371Y-85700000D01*
X110388371Y-85700000D02*
X110388371Y-85800000D01*
X110388371Y-85800000D02*
X110435990Y-85866666D01*
X110435990Y-85866666D02*
X110483609Y-85900000D01*
X110483609Y-85900000D02*
X110578847Y-85933333D01*
X110578847Y-85933333D02*
X110816942Y-85933333D01*
X110816942Y-85933333D02*
X110912180Y-85900000D01*
X110912180Y-85900000D02*
X110959800Y-85866666D01*
X110959800Y-85866666D02*
X111007419Y-85800000D01*
X111007419Y-85800000D02*
X111007419Y-85600000D01*
X111007419Y-85600000D02*
X110959800Y-85533333D01*
X110959800Y-85533333D02*
X110912180Y-85500000D01*
X84357419Y-75433333D02*
X83357419Y-75433333D01*
X83357419Y-75433333D02*
X83357419Y-75700000D01*
X83357419Y-75700000D02*
X83405038Y-75766667D01*
X83405038Y-75766667D02*
X83452657Y-75800000D01*
X83452657Y-75800000D02*
X83547895Y-75833333D01*
X83547895Y-75833333D02*
X83690752Y-75833333D01*
X83690752Y-75833333D02*
X83785990Y-75800000D01*
X83785990Y-75800000D02*
X83833609Y-75766667D01*
X83833609Y-75766667D02*
X83881228Y-75700000D01*
X83881228Y-75700000D02*
X83881228Y-75433333D01*
X83357419Y-76266667D02*
X83357419Y-76400000D01*
X83357419Y-76400000D02*
X83405038Y-76466667D01*
X83405038Y-76466667D02*
X83500276Y-76533333D01*
X83500276Y-76533333D02*
X83690752Y-76566667D01*
X83690752Y-76566667D02*
X84024085Y-76566667D01*
X84024085Y-76566667D02*
X84214561Y-76533333D01*
X84214561Y-76533333D02*
X84309800Y-76466667D01*
X84309800Y-76466667D02*
X84357419Y-76400000D01*
X84357419Y-76400000D02*
X84357419Y-76266667D01*
X84357419Y-76266667D02*
X84309800Y-76200000D01*
X84309800Y-76200000D02*
X84214561Y-76133333D01*
X84214561Y-76133333D02*
X84024085Y-76100000D01*
X84024085Y-76100000D02*
X83690752Y-76100000D01*
X83690752Y-76100000D02*
X83500276Y-76133333D01*
X83500276Y-76133333D02*
X83405038Y-76200000D01*
X83405038Y-76200000D02*
X83357419Y-76266667D01*
X83357419Y-76800000D02*
X84357419Y-76966666D01*
X84357419Y-76966666D02*
X83643133Y-77100000D01*
X83643133Y-77100000D02*
X84357419Y-77233333D01*
X84357419Y-77233333D02*
X83357419Y-77400000D01*
X83833609Y-77666666D02*
X83833609Y-77900000D01*
X84357419Y-78000000D02*
X84357419Y-77666666D01*
X84357419Y-77666666D02*
X83357419Y-77666666D01*
X83357419Y-77666666D02*
X83357419Y-78000000D01*
X84357419Y-78699999D02*
X83881228Y-78466666D01*
X84357419Y-78299999D02*
X83357419Y-78299999D01*
X83357419Y-78299999D02*
X83357419Y-78566666D01*
X83357419Y-78566666D02*
X83405038Y-78633333D01*
X83405038Y-78633333D02*
X83452657Y-78666666D01*
X83452657Y-78666666D02*
X83547895Y-78699999D01*
X83547895Y-78699999D02*
X83690752Y-78699999D01*
X83690752Y-78699999D02*
X83785990Y-78666666D01*
X83785990Y-78666666D02*
X83833609Y-78633333D01*
X83833609Y-78633333D02*
X83881228Y-78566666D01*
X83881228Y-78566666D02*
X83881228Y-78299999D01*
X82703177Y-63853788D02*
X82703177Y-63520454D01*
X82703177Y-63520454D02*
X83179367Y-63487121D01*
X83179367Y-63487121D02*
X83131748Y-63520454D01*
X83131748Y-63520454D02*
X83084129Y-63587121D01*
X83084129Y-63587121D02*
X83084129Y-63753788D01*
X83084129Y-63753788D02*
X83131748Y-63820454D01*
X83131748Y-63820454D02*
X83179367Y-63853788D01*
X83179367Y-63853788D02*
X83274605Y-63887121D01*
X83274605Y-63887121D02*
X83512700Y-63887121D01*
X83512700Y-63887121D02*
X83607938Y-63853788D01*
X83607938Y-63853788D02*
X83655558Y-63820454D01*
X83655558Y-63820454D02*
X83703177Y-63753788D01*
X83703177Y-63753788D02*
X83703177Y-63587121D01*
X83703177Y-63587121D02*
X83655558Y-63520454D01*
X83655558Y-63520454D02*
X83607938Y-63487121D01*
X82703177Y-64087121D02*
X83703177Y-64320455D01*
X83703177Y-64320455D02*
X82703177Y-64553788D01*
X87583333Y-70093633D02*
X87749999Y-69760300D01*
X87869047Y-70093633D02*
X87869047Y-69393633D01*
X87869047Y-69393633D02*
X87678571Y-69393633D01*
X87678571Y-69393633D02*
X87630952Y-69426966D01*
X87630952Y-69426966D02*
X87607142Y-69460300D01*
X87607142Y-69460300D02*
X87583333Y-69526966D01*
X87583333Y-69526966D02*
X87583333Y-69626966D01*
X87583333Y-69626966D02*
X87607142Y-69693633D01*
X87607142Y-69693633D02*
X87630952Y-69726966D01*
X87630952Y-69726966D02*
X87678571Y-69760300D01*
X87678571Y-69760300D02*
X87869047Y-69760300D01*
X87130952Y-69393633D02*
X87369047Y-69393633D01*
X87369047Y-69393633D02*
X87392856Y-69726966D01*
X87392856Y-69726966D02*
X87369047Y-69693633D01*
X87369047Y-69693633D02*
X87321428Y-69660300D01*
X87321428Y-69660300D02*
X87202380Y-69660300D01*
X87202380Y-69660300D02*
X87154761Y-69693633D01*
X87154761Y-69693633D02*
X87130952Y-69726966D01*
X87130952Y-69726966D02*
X87107142Y-69793633D01*
X87107142Y-69793633D02*
X87107142Y-69960300D01*
X87107142Y-69960300D02*
X87130952Y-70026966D01*
X87130952Y-70026966D02*
X87154761Y-70060300D01*
X87154761Y-70060300D02*
X87202380Y-70093633D01*
X87202380Y-70093633D02*
X87321428Y-70093633D01*
X87321428Y-70093633D02*
X87369047Y-70060300D01*
X87369047Y-70060300D02*
X87392856Y-70026966D01*
D10*
X96672350Y-78434726D02*
X96672350Y-77434726D01*
X95624732Y-78339487D02*
X95672351Y-78387107D01*
X95672351Y-78387107D02*
X95815208Y-78434726D01*
X95815208Y-78434726D02*
X95910446Y-78434726D01*
X95910446Y-78434726D02*
X96053303Y-78387107D01*
X96053303Y-78387107D02*
X96148541Y-78291868D01*
X96148541Y-78291868D02*
X96196160Y-78196630D01*
X96196160Y-78196630D02*
X96243779Y-78006154D01*
X96243779Y-78006154D02*
X96243779Y-77863297D01*
X96243779Y-77863297D02*
X96196160Y-77672821D01*
X96196160Y-77672821D02*
X96148541Y-77577583D01*
X96148541Y-77577583D02*
X96053303Y-77482345D01*
X96053303Y-77482345D02*
X95910446Y-77434726D01*
X95910446Y-77434726D02*
X95815208Y-77434726D01*
X95815208Y-77434726D02*
X95672351Y-77482345D01*
X95672351Y-77482345D02*
X95624732Y-77529964D01*
X94672351Y-78434726D02*
X95243779Y-78434726D01*
X94958065Y-78434726D02*
X94958065Y-77434726D01*
X94958065Y-77434726D02*
X95053303Y-77577583D01*
X95053303Y-77577583D02*
X95148541Y-77672821D01*
X95148541Y-77672821D02*
X95243779Y-77720440D01*
D11*
X93583333Y-70093633D02*
X93749999Y-69760300D01*
X93869047Y-70093633D02*
X93869047Y-69393633D01*
X93869047Y-69393633D02*
X93678571Y-69393633D01*
X93678571Y-69393633D02*
X93630952Y-69426966D01*
X93630952Y-69426966D02*
X93607142Y-69460300D01*
X93607142Y-69460300D02*
X93583333Y-69526966D01*
X93583333Y-69526966D02*
X93583333Y-69626966D01*
X93583333Y-69626966D02*
X93607142Y-69693633D01*
X93607142Y-69693633D02*
X93630952Y-69726966D01*
X93630952Y-69726966D02*
X93678571Y-69760300D01*
X93678571Y-69760300D02*
X93869047Y-69760300D01*
X93154761Y-69626966D02*
X93154761Y-70093633D01*
X93273809Y-69360300D02*
X93392856Y-69860300D01*
X93392856Y-69860300D02*
X93083333Y-69860300D01*
X89583333Y-70093633D02*
X89749999Y-69760300D01*
X89869047Y-70093633D02*
X89869047Y-69393633D01*
X89869047Y-69393633D02*
X89678571Y-69393633D01*
X89678571Y-69393633D02*
X89630952Y-69426966D01*
X89630952Y-69426966D02*
X89607142Y-69460300D01*
X89607142Y-69460300D02*
X89583333Y-69526966D01*
X89583333Y-69526966D02*
X89583333Y-69626966D01*
X89583333Y-69626966D02*
X89607142Y-69693633D01*
X89607142Y-69693633D02*
X89630952Y-69726966D01*
X89630952Y-69726966D02*
X89678571Y-69760300D01*
X89678571Y-69760300D02*
X89869047Y-69760300D01*
X89416666Y-69393633D02*
X89107142Y-69393633D01*
X89107142Y-69393633D02*
X89273809Y-69660300D01*
X89273809Y-69660300D02*
X89202380Y-69660300D01*
X89202380Y-69660300D02*
X89154761Y-69693633D01*
X89154761Y-69693633D02*
X89130952Y-69726966D01*
X89130952Y-69726966D02*
X89107142Y-69793633D01*
X89107142Y-69793633D02*
X89107142Y-69960300D01*
X89107142Y-69960300D02*
X89130952Y-70026966D01*
X89130952Y-70026966D02*
X89154761Y-70060300D01*
X89154761Y-70060300D02*
X89202380Y-70093633D01*
X89202380Y-70093633D02*
X89345237Y-70093633D01*
X89345237Y-70093633D02*
X89392856Y-70060300D01*
X89392856Y-70060300D02*
X89416666Y-70026966D01*
D10*
X107073826Y-71859888D02*
X107788111Y-71859888D01*
X107788111Y-71859888D02*
X107930968Y-71812269D01*
X107930968Y-71812269D02*
X108026207Y-71717031D01*
X108026207Y-71717031D02*
X108073826Y-71574174D01*
X108073826Y-71574174D02*
X108073826Y-71478936D01*
X108073826Y-72383698D02*
X108073826Y-72574174D01*
X108073826Y-72574174D02*
X108026207Y-72669412D01*
X108026207Y-72669412D02*
X107978587Y-72717031D01*
X107978587Y-72717031D02*
X107835730Y-72812269D01*
X107835730Y-72812269D02*
X107645254Y-72859888D01*
X107645254Y-72859888D02*
X107264302Y-72859888D01*
X107264302Y-72859888D02*
X107169064Y-72812269D01*
X107169064Y-72812269D02*
X107121445Y-72764650D01*
X107121445Y-72764650D02*
X107073826Y-72669412D01*
X107073826Y-72669412D02*
X107073826Y-72478936D01*
X107073826Y-72478936D02*
X107121445Y-72383698D01*
X107121445Y-72383698D02*
X107169064Y-72336079D01*
X107169064Y-72336079D02*
X107264302Y-72288460D01*
X107264302Y-72288460D02*
X107502397Y-72288460D01*
X107502397Y-72288460D02*
X107597635Y-72336079D01*
X107597635Y-72336079D02*
X107645254Y-72383698D01*
X107645254Y-72383698D02*
X107692873Y-72478936D01*
X107692873Y-72478936D02*
X107692873Y-72669412D01*
X107692873Y-72669412D02*
X107645254Y-72764650D01*
X107645254Y-72764650D02*
X107597635Y-72812269D01*
X107597635Y-72812269D02*
X107502397Y-72859888D01*
D11*
X91583333Y-70093633D02*
X91749999Y-69760300D01*
X91869047Y-70093633D02*
X91869047Y-69393633D01*
X91869047Y-69393633D02*
X91678571Y-69393633D01*
X91678571Y-69393633D02*
X91630952Y-69426966D01*
X91630952Y-69426966D02*
X91607142Y-69460300D01*
X91607142Y-69460300D02*
X91583333Y-69526966D01*
X91583333Y-69526966D02*
X91583333Y-69626966D01*
X91583333Y-69626966D02*
X91607142Y-69693633D01*
X91607142Y-69693633D02*
X91630952Y-69726966D01*
X91630952Y-69726966D02*
X91678571Y-69760300D01*
X91678571Y-69760300D02*
X91869047Y-69760300D01*
X91392856Y-69460300D02*
X91369047Y-69426966D01*
X91369047Y-69426966D02*
X91321428Y-69393633D01*
X91321428Y-69393633D02*
X91202380Y-69393633D01*
X91202380Y-69393633D02*
X91154761Y-69426966D01*
X91154761Y-69426966D02*
X91130952Y-69460300D01*
X91130952Y-69460300D02*
X91107142Y-69526966D01*
X91107142Y-69526966D02*
X91107142Y-69593633D01*
X91107142Y-69593633D02*
X91130952Y-69693633D01*
X91130952Y-69693633D02*
X91416666Y-70093633D01*
X91416666Y-70093633D02*
X91107142Y-70093633D01*
X99047142Y-69874943D02*
X99213809Y-69874943D01*
X99213809Y-70241610D02*
X99213809Y-69541610D01*
X99213809Y-69541610D02*
X98975714Y-69541610D01*
X98618571Y-69874943D02*
X98547143Y-69908277D01*
X98547143Y-69908277D02*
X98523333Y-69941610D01*
X98523333Y-69941610D02*
X98499524Y-70008277D01*
X98499524Y-70008277D02*
X98499524Y-70108277D01*
X98499524Y-70108277D02*
X98523333Y-70174943D01*
X98523333Y-70174943D02*
X98547143Y-70208277D01*
X98547143Y-70208277D02*
X98594762Y-70241610D01*
X98594762Y-70241610D02*
X98785238Y-70241610D01*
X98785238Y-70241610D02*
X98785238Y-69541610D01*
X98785238Y-69541610D02*
X98618571Y-69541610D01*
X98618571Y-69541610D02*
X98570952Y-69574943D01*
X98570952Y-69574943D02*
X98547143Y-69608277D01*
X98547143Y-69608277D02*
X98523333Y-69674943D01*
X98523333Y-69674943D02*
X98523333Y-69741610D01*
X98523333Y-69741610D02*
X98547143Y-69808277D01*
X98547143Y-69808277D02*
X98570952Y-69841610D01*
X98570952Y-69841610D02*
X98618571Y-69874943D01*
X98618571Y-69874943D02*
X98785238Y-69874943D01*
X98023333Y-70241610D02*
X98309047Y-70241610D01*
X98166190Y-70241610D02*
X98166190Y-69541610D01*
X98166190Y-69541610D02*
X98213809Y-69641610D01*
X98213809Y-69641610D02*
X98261428Y-69708277D01*
X98261428Y-69708277D02*
X98309047Y-69741610D01*
%TO.C,R5*%
D12*
X86990000Y-71384420D02*
X86990000Y-71665580D01*
X88010000Y-71384420D02*
X88010000Y-71665580D01*
%TO.C,IC1*%
X94986161Y-78834907D02*
X94986161Y-79069907D01*
X94986161Y-91619907D02*
X94986161Y-91854907D01*
X94986161Y-91854907D02*
X102706161Y-91854907D01*
X102706161Y-78834907D02*
X94986161Y-78834907D01*
X102706161Y-79069907D02*
X102706161Y-78834907D01*
X102706161Y-91854907D02*
X102706161Y-91619907D01*
X103496161Y-79064907D02*
X103156161Y-78594907D01*
X103836161Y-78594907D01*
X103496161Y-79064907D01*
G36*
X103496161Y-79064907D02*
G01*
X103156161Y-78594907D01*
X103836161Y-78594907D01*
X103496161Y-79064907D01*
G37*
%TO.C,R4*%
X92990000Y-71384420D02*
X92990000Y-71665580D01*
X94010000Y-71384420D02*
X94010000Y-71665580D01*
%TO.C,R3*%
X88990000Y-71384420D02*
X88990000Y-71665580D01*
X90010000Y-71384420D02*
X90010000Y-71665580D01*
%TO.C,J9*%
X96239007Y-73573222D02*
X96239007Y-70813222D01*
X103969007Y-70813222D02*
X96239007Y-70813222D01*
X103969007Y-73573222D02*
X96239007Y-73573222D01*
X103969007Y-73573222D02*
X103969007Y-70813222D01*
X105239007Y-73573222D02*
X106619007Y-73573222D01*
X106619007Y-73573222D02*
X106619007Y-72193222D01*
%TO.C,R2*%
X90990000Y-71384420D02*
X90990000Y-71665580D01*
X92010000Y-71384420D02*
X92010000Y-71665580D01*
%TO.C,FB1*%
X98484210Y-67982977D02*
X98776744Y-67982977D01*
X98484210Y-69002977D02*
X98776744Y-69002977D01*
%TD*%
%LPC*%
D13*
%TO.C,J13*%
X116500000Y-80800000D03*
%TD*%
D14*
%TO.C,J15*%
X112300000Y-92100000D03*
D15*
X112300000Y-90100000D03*
%TD*%
D14*
%TO.C,J7*%
X93300000Y-65000000D03*
D15*
X93300000Y-63000000D03*
X93300000Y-61000000D03*
%TD*%
D14*
%TO.C,J3*%
X83750000Y-83500000D03*
D15*
X83750000Y-85500000D03*
X83750000Y-87500000D03*
X83750000Y-89500000D03*
X83750000Y-91500000D03*
%TD*%
D14*
%TO.C,J5*%
X112300000Y-86100000D03*
D15*
X112300000Y-84100000D03*
%TD*%
D14*
%TO.C,J1*%
X85650000Y-74650000D03*
D15*
X85650000Y-76650000D03*
X85650000Y-78650000D03*
%TD*%
D14*
%TO.C,J6*%
X81250000Y-65000000D03*
D15*
X81250000Y-63000000D03*
%TD*%
D14*
%TO.C,J11*%
X86300000Y-65000000D03*
D15*
X86300000Y-63000000D03*
X86300000Y-61000000D03*
%TD*%
D13*
%TO.C,J12*%
X117000000Y-87700000D03*
%TD*%
D16*
%TO.C,U2*%
X106456853Y-91730937D03*
D17*
X106456853Y-86650937D03*
X106456853Y-84110937D03*
X106456853Y-81570937D03*
X106456853Y-76490937D03*
D18*
X91216853Y-76490937D03*
D17*
X91216853Y-81570937D03*
X91216853Y-84110937D03*
X91216853Y-86650937D03*
X91216853Y-91730937D03*
%TD*%
D19*
%TO.C,J14*%
X83900000Y-68100000D03*
%TD*%
D14*
%TO.C,J10*%
X96700000Y-65000000D03*
D15*
X96700000Y-63000000D03*
X96700000Y-61000000D03*
%TD*%
D14*
%TO.C,J8*%
X89800000Y-65000000D03*
D15*
X89800000Y-63000000D03*
X89800000Y-61000000D03*
%TD*%
D20*
%TO.C,R5*%
X87500000Y-70750000D03*
X87500000Y-72300000D03*
%TD*%
D21*
%TO.C,IC1*%
X103496161Y-79629907D03*
X103496161Y-80899907D03*
X103496161Y-82169907D03*
X103496161Y-83439907D03*
X103496161Y-84709907D03*
X103496161Y-85979907D03*
X103496161Y-87249907D03*
X103496161Y-88519907D03*
X103496161Y-89789907D03*
X103496161Y-91059907D03*
X94196161Y-91059907D03*
X94196161Y-89789907D03*
X94196161Y-88519907D03*
X94196161Y-87249907D03*
X94196161Y-85979907D03*
X94196161Y-84709907D03*
X94196161Y-83439907D03*
X94196161Y-82169907D03*
X94196161Y-80899907D03*
X94196161Y-79629907D03*
%TD*%
D20*
%TO.C,R4*%
X93500000Y-70750000D03*
X93500000Y-72300000D03*
%TD*%
%TO.C,R3*%
X89500000Y-70750000D03*
X89500000Y-72300000D03*
%TD*%
D13*
%TO.C,J9*%
X105239007Y-72193222D03*
D19*
X102699007Y-72193222D03*
D13*
X100159007Y-72193222D03*
X97619007Y-72193222D03*
%TD*%
D20*
%TO.C,R2*%
X91500000Y-70750000D03*
X91500000Y-72300000D03*
%TD*%
D22*
%TO.C,FB1*%
X97767977Y-68492977D03*
X99492977Y-68492977D03*
%TD*%
%LPD*%
M02*
