%TF.GenerationSoftware,KiCad,Pcbnew,10.0.1*%
%TF.CreationDate,2026-05-18T01:38:09+09:00*%
%TF.ProjectId,core-XIAO-02,636f7265-2d58-4494-914f-2d30322e6b69,rev?*%
%TF.SameCoordinates,Original*%
%TF.FileFunction,Copper,L1,Top*%
%TF.FilePolarity,Positive*%
%FSLAX46Y46*%
G04 Gerber Fmt 4.6, Leading zero omitted, Abs format (unit mm)*
G04 Created by KiCad (PCBNEW 10.0.1) date 2026-05-18 01:38:09*
%MOMM*%
%LPD*%
G01*
G04 APERTURE LIST*
G04 Aperture macros list*
%AMRoundRect*
0 Rectangle with rounded corners*
0 $1 Rounding radius*
0 $2 $3 $4 $5 $6 $7 $8 $9 X,Y pos of 4 corners*
0 Add a 4 corners polygon primitive as box body*
4,1,4,$2,$3,$4,$5,$6,$7,$8,$9,$2,$3,0*
0 Add four circle primitives for the rounded corners*
1,1,$1+$1,$2,$3*
1,1,$1+$1,$4,$5*
1,1,$1+$1,$6,$7*
1,1,$1+$1,$8,$9*
0 Add four rect primitives between the rounded corners*
20,1,$1+$1,$2,$3,$4,$5,0*
20,1,$1+$1,$4,$5,$6,$7,0*
20,1,$1+$1,$6,$7,$8,$9,0*
20,1,$1+$1,$8,$9,$2,$3,0*%
%AMOutline5P*
0 Free polygon, 5 corners , with rotation*
0 The origin of the aperture is its center*
0 number of corners: always 5*
0 $1 to $10 corner X, Y*
0 $11 Rotation angle, in degrees counterclockwise*
0 create outline with 5 corners*
4,1,5,$1,$2,$3,$4,$5,$6,$7,$8,$9,$10,$1,$2,$11*%
%AMOutline6P*
0 Free polygon, 6 corners , with rotation*
0 The origin of the aperture is its center*
0 number of corners: always 6*
0 $1 to $12 corner X, Y*
0 $13 Rotation angle, in degrees counterclockwise*
0 create outline with 6 corners*
4,1,6,$1,$2,$3,$4,$5,$6,$7,$8,$9,$10,$11,$12,$1,$2,$13*%
%AMOutline7P*
0 Free polygon, 7 corners , with rotation*
0 The origin of the aperture is its center*
0 number of corners: always 7*
0 $1 to $14 corner X, Y*
0 $15 Rotation angle, in degrees counterclockwise*
0 create outline with 7 corners*
4,1,7,$1,$2,$3,$4,$5,$6,$7,$8,$9,$10,$11,$12,$13,$14,$1,$2,$15*%
%AMOutline8P*
0 Free polygon, 8 corners , with rotation*
0 The origin of the aperture is its center*
0 number of corners: always 8*
0 $1 to $16 corner X, Y*
0 $17 Rotation angle, in degrees counterclockwise*
0 create outline with 8 corners*
4,1,8,$1,$2,$3,$4,$5,$6,$7,$8,$9,$10,$11,$12,$13,$14,$15,$16,$1,$2,$17*%
G04 Aperture macros list end*
%TA.AperFunction,SMDPad,CuDef*%
%ADD10RoundRect,0.237500X-0.237500X0.300000X-0.237500X-0.300000X0.237500X-0.300000X0.237500X0.300000X0*%
%TD*%
%TA.AperFunction,ComponentPad*%
%ADD11C,1.700000*%
%TD*%
%TA.AperFunction,ComponentPad*%
%ADD12R,1.350000X1.350000*%
%TD*%
%TA.AperFunction,ComponentPad*%
%ADD13C,1.350000*%
%TD*%
%TA.AperFunction,SMDPad,CuDef*%
%ADD14RoundRect,0.237500X0.300000X0.237500X-0.300000X0.237500X-0.300000X-0.237500X0.300000X-0.237500X0*%
%TD*%
%TA.AperFunction,SMDPad,CuDef*%
%ADD15RoundRect,0.218750X-0.256250X0.218750X-0.256250X-0.218750X0.256250X-0.218750X0.256250X0.218750X0*%
%TD*%
%TA.AperFunction,SMDPad,CuDef*%
%ADD16RoundRect,0.400000X1.100000X0.400000X-1.100000X0.400000X-1.100000X-0.400000X1.100000X-0.400000X0*%
%TD*%
%TA.AperFunction,ComponentPad*%
%ADD17Outline8P,-0.750000X0.310660X-0.310660X0.750000X0.310660X0.750000X0.750000X0.310660X0.750000X-0.310660X0.310660X-0.750000X-0.310660X-0.750000X-0.750000X-0.310660X180.000000*%
%TD*%
%TA.AperFunction,ComponentPad*%
%ADD18C,1.400000*%
%TD*%
%TA.AperFunction,ComponentPad*%
%ADD19C,1.500000*%
%TD*%
%TA.AperFunction,ComponentPad*%
%ADD20C,1.524000*%
%TD*%
%TA.AperFunction,ComponentPad*%
%ADD21R,1.700000X1.700000*%
%TD*%
%TA.AperFunction,SMDPad,CuDef*%
%ADD22R,2.000000X4.000000*%
%TD*%
%TA.AperFunction,SMDPad,CuDef*%
%ADD23RoundRect,0.200000X-0.275000X0.200000X-0.275000X-0.200000X0.275000X-0.200000X0.275000X0.200000X0*%
%TD*%
%TA.AperFunction,ViaPad*%
%ADD24C,0.600000*%
%TD*%
%TA.AperFunction,Conductor*%
%ADD25C,0.250000*%
%TD*%
%TA.AperFunction,Conductor*%
%ADD26C,0.500000*%
%TD*%
%TA.AperFunction,Conductor*%
%ADD27C,0.800000*%
%TD*%
%TA.AperFunction,Conductor*%
%ADD28C,0.200000*%
%TD*%
%TA.AperFunction,Conductor*%
%ADD29C,0.400000*%
%TD*%
%TA.AperFunction,Conductor*%
%ADD30C,1.200000*%
%TD*%
%TA.AperFunction,Conductor*%
%ADD31C,1.000000*%
%TD*%
G04 APERTURE END LIST*
D10*
%TO.P,C1,1*%
%TO.N,3V3*%
X114750000Y-83637500D03*
%TO.P,C1,2*%
%TO.N,AGND*%
X114750000Y-85362500D03*
%TD*%
D11*
%TO.P,J13,1,Pin_1_1*%
%TO.N,3V3*%
X116500000Y-80800000D03*
%TD*%
D10*
%TO.P,C8,1*%
%TO.N,VIN*%
X116500000Y-89887500D03*
%TO.P,C8,2*%
%TO.N,AGND*%
X116500000Y-91612500D03*
%TD*%
D12*
%TO.P,J15,1,Pin_1_1*%
%TO.N,AGND*%
X112300000Y-92100000D03*
D13*
%TO.P,J15,2,Pin_2_2*%
%TO.N,VIN*%
X112300000Y-90100000D03*
%TD*%
D14*
%TO.P,C6,1*%
%TO.N,VIN*%
X87512500Y-70500000D03*
%TO.P,C6,2*%
%TO.N,PGND*%
X85787500Y-70500000D03*
%TD*%
D12*
%TO.P,J7,1,Pin_1_1*%
%TO.N,PGND*%
X93300000Y-65000000D03*
D13*
%TO.P,J7,2,Pin_2_2*%
%TO.N,Net-(J7-Pin_2)*%
X93300000Y-63000000D03*
%TO.P,J7,3,Pin_3_3*%
%TO.N,VIN*%
X93300000Y-61000000D03*
%TD*%
D12*
%TO.P,J3,1,Pin_1_1*%
%TO.N,AGND*%
X83750000Y-83500000D03*
D13*
%TO.P,J3,2,Pin_2_2*%
%TO.N,3V3*%
X83750000Y-85500000D03*
%TO.P,J3,3,Pin_3_3*%
%TO.N,SPI_SCK*%
X83750000Y-87500000D03*
%TO.P,J3,4,Pin_4_4*%
%TO.N,SPI_MISO*%
X83750000Y-89500000D03*
%TO.P,J3,5,Pin_5_5*%
%TO.N,SPI_MOSI*%
X83750000Y-91500000D03*
%TD*%
D12*
%TO.P,J5,1,Pin_1_1*%
%TO.N,AGND*%
X112300000Y-86100000D03*
D13*
%TO.P,J5,2,Pin_2_2*%
%TO.N,3V3*%
X112300000Y-84100000D03*
%TD*%
D12*
%TO.P,J1,1,Pin_1_1*%
%TO.N,PGND*%
X85650000Y-74650000D03*
D13*
%TO.P,J1,2,Pin_2_2*%
X85650000Y-76650000D03*
%TO.P,J1,3,Pin_3_3*%
%TO.N,VIN*%
X85650000Y-78650000D03*
%TD*%
D10*
%TO.P,C2,1*%
%TO.N,3V3*%
X116500000Y-83637500D03*
%TO.P,C2,2*%
%TO.N,AGND*%
X116500000Y-85362500D03*
%TD*%
D12*
%TO.P,J6,1,Pin_1_1*%
%TO.N,PGND*%
X81250000Y-65000000D03*
D13*
%TO.P,J6,2,Pin_2_2*%
%TO.N,VIN*%
X81250000Y-63000000D03*
%TD*%
D12*
%TO.P,J11,1,Pin_1_1*%
%TO.N,PGND*%
X86300000Y-65000000D03*
D13*
%TO.P,J11,2,Pin_2_2*%
%TO.N,Net-(J11-Pin_2)*%
X86300000Y-63000000D03*
%TO.P,J11,3,Pin_3_3*%
%TO.N,VIN*%
X86300000Y-61000000D03*
%TD*%
D10*
%TO.P,C3,1*%
%TO.N,VIN*%
X83800000Y-63150000D03*
%TO.P,C3,2*%
%TO.N,PGND*%
X83800000Y-64875000D03*
%TD*%
D15*
%TO.P,D1,1,K_1*%
%TO.N,PGND*%
X92050000Y-70502500D03*
%TO.P,D1,2,A_2*%
%TO.N,Net-(D1-A)*%
X92050000Y-72077500D03*
%TD*%
D11*
%TO.P,J12,1,Pin_1_1*%
%TO.N,VIN*%
X117000000Y-87700000D03*
%TD*%
D16*
%TO.P,U2,1,PA02_A0_D0_1*%
%TO.N,GPIO01*%
X107837853Y-91730937D03*
D17*
X106456853Y-91730937D03*
D16*
%TO.P,U2,2,PA4_A1_D1_2*%
%TO.N,GPIO02*%
X107837853Y-89190937D03*
D18*
X106456853Y-89190937D03*
D16*
%TO.P,U2,3,PA10_A2_D2_3*%
%TO.N,GPIO03*%
X107837853Y-86650937D03*
D19*
X106456853Y-86650937D03*
D16*
%TO.P,U2,4,PA11_A3_D3_4*%
%TO.N,GPIO04*%
X107837853Y-84110937D03*
D19*
X106456853Y-84110937D03*
D16*
%TO.P,U2,5,PA8_A4_D4_SDA_5*%
%TO.N,SDA*%
X107837853Y-81570937D03*
D19*
X106456853Y-81570937D03*
D16*
%TO.P,U2,6,PA9_A5_D5_SCL_6*%
%TO.N,SCL*%
X107837853Y-79030937D03*
D18*
X106456853Y-79030937D03*
D16*
%TO.P,U2,7,PB08_A6_TX_7*%
%TO.N,GPIO43*%
X107837853Y-76490937D03*
D19*
X106456853Y-76490937D03*
D20*
%TO.P,U2,8,PB09_D7_RX_8*%
%TO.N,GPIO09*%
X91216853Y-76490937D03*
D16*
X89803853Y-76490937D03*
D18*
%TO.P,U2,9,PA7_A8_D8_SCK_9*%
%TO.N,SPI_SCK*%
X91216853Y-79030937D03*
D16*
X89803853Y-79030937D03*
D19*
%TO.P,U2,10,PA5_A9_D9_MISO_10*%
%TO.N,SPI_MISO*%
X91216853Y-81570937D03*
D16*
X89803853Y-81570937D03*
D19*
%TO.P,U2,11,PA6_A10_D10_MOSI_11*%
%TO.N,SPI_MOSI*%
X91216853Y-84110937D03*
D16*
X89803853Y-84110937D03*
D19*
%TO.P,U2,12,3V3_12*%
%TO.N,3V3*%
X91216853Y-86650937D03*
D16*
X89803853Y-86650937D03*
D18*
%TO.P,U2,13,GND_13*%
%TO.N,AGND*%
X91216853Y-89190937D03*
D16*
X89803853Y-89190937D03*
D19*
%TO.P,U2,14,5V_14*%
%TO.N,VIN*%
X91216853Y-91730937D03*
D16*
X89803853Y-91730937D03*
%TD*%
D21*
%TO.P,J14,1,Pin_1_1*%
%TO.N,PGND*%
X83900000Y-68100000D03*
%TD*%
D22*
%TO.P,LS1,LEAD+*%
%TO.N,GPIO43*%
X112699007Y-62740622D03*
%TO.P,LS1,LEAD-*%
%TO.N,AGND*%
X100699007Y-62740622D03*
%TD*%
D12*
%TO.P,J10,1,Pin_1_1*%
%TO.N,PGND*%
X96700000Y-65000000D03*
D13*
%TO.P,J10,2,Pin_2_2*%
%TO.N,Net-(J10-Pin_2)*%
X96700000Y-63000000D03*
%TO.P,J10,3,Pin_3_3*%
%TO.N,VIN*%
X96700000Y-61000000D03*
%TD*%
D10*
%TO.P,C7,1*%
%TO.N,GPIO43*%
X114349007Y-66215622D03*
%TO.P,C7,2*%
%TO.N,AGND*%
X114349007Y-67940622D03*
%TD*%
D14*
%TO.P,C5,1*%
%TO.N,VIN*%
X87512500Y-72150000D03*
%TO.P,C5,2*%
%TO.N,PGND*%
X85787500Y-72150000D03*
%TD*%
D12*
%TO.P,J8,1,Pin_1_1*%
%TO.N,PGND*%
X89800000Y-65000000D03*
D13*
%TO.P,J8,2,Pin_2_2*%
%TO.N,Net-(J8-Pin_2)*%
X89800000Y-63000000D03*
%TO.P,J8,3,Pin_3_3*%
%TO.N,VIN*%
X89800000Y-61000000D03*
%TD*%
D23*
%TO.P,R1,1*%
%TO.N,VIN*%
X90250000Y-70425000D03*
%TO.P,R1,2*%
%TO.N,Net-(D1-A)*%
X90250000Y-72075000D03*
%TD*%
D10*
%TO.P,C9,1*%
%TO.N,VIN*%
X114750000Y-89887500D03*
%TO.P,C9,2*%
%TO.N,AGND*%
X114750000Y-91612500D03*
%TD*%
D11*
%TO.P,J9,1,Pin_1_1*%
%TO.N,3V3*%
X105239007Y-72193222D03*
D21*
%TO.P,J9,2,Pin_2_2*%
%TO.N,AGND*%
X102699007Y-72193222D03*
D11*
%TO.P,J9,3,Pin_3_3*%
%TO.N,SDA*%
X100159007Y-72193222D03*
%TO.P,J9,4,Pin_4_4*%
%TO.N,SCL*%
X97619007Y-72193222D03*
%TD*%
D24*
%TO.N,AGND*%
X114349007Y-67940622D03*
%TO.N,VIN*%
X103496161Y-76253839D03*
X100250000Y-77750000D03*
X102129907Y-79629907D03*
X107078223Y-59478223D03*
X107700000Y-74750000D03*
X102000000Y-59478223D03*
X111250000Y-74750000D03*
X108478223Y-60878223D03*
X111250000Y-80500000D03*
X108478223Y-63178223D03*
X98221777Y-59478223D03*
X95000000Y-77750000D03*
X94250000Y-78500000D03*
X111250000Y-77800000D03*
X111300000Y-70800000D03*
X104900000Y-59478223D03*
X111200000Y-67400000D03*
X105000000Y-74750000D03*
%TO.N,PGND*%
X93255367Y-67000000D03*
X89800000Y-67000000D03*
%TD*%
%TO.N,3V3*%
D25*
X111024000Y-84421406D02*
X111345406Y-84100000D01*
X117870867Y-79429133D02*
X116500000Y-80800000D01*
X114993222Y-72193222D02*
X117870867Y-75070867D01*
X91216853Y-86650937D02*
X93400937Y-86650937D01*
X94886092Y-93525000D02*
X109363908Y-93525000D01*
X114750000Y-83637500D02*
X113762500Y-83637500D01*
X109363908Y-93525000D02*
X111024000Y-91864908D01*
X117870867Y-75070867D02*
X117870867Y-79429133D01*
X111024000Y-91864908D02*
X111024000Y-84421406D01*
X116500000Y-83637500D02*
X116500000Y-80800000D01*
X116500000Y-83637500D02*
X114750000Y-83637500D01*
X113762500Y-83637500D02*
X113300000Y-84100000D01*
X94000000Y-92638908D02*
X94886092Y-93525000D01*
X111345406Y-84100000D02*
X112300000Y-84100000D01*
X94000000Y-87250000D02*
X94000000Y-92638908D01*
X93400937Y-86650937D02*
X94000000Y-87250000D01*
X105239007Y-72193222D02*
X114993222Y-72193222D01*
X113300000Y-84100000D02*
X112300000Y-84100000D01*
%TO.N,AGND*%
D26*
X114750000Y-85362500D02*
X114012500Y-86100000D01*
D27*
X93249000Y-89749000D02*
X93249000Y-92914628D01*
X93249000Y-92914628D02*
X94585372Y-94251000D01*
D26*
X116500000Y-85362500D02*
X114750000Y-85362500D01*
D25*
X118321867Y-84778133D02*
X117737500Y-85362500D01*
X102640622Y-62740622D02*
X100699007Y-62740622D01*
X103449000Y-71443229D02*
X103449000Y-63549000D01*
D27*
X112787500Y-91612500D02*
X112300000Y-92100000D01*
X111815628Y-92100000D02*
X112300000Y-92100000D01*
D25*
X103449000Y-63549000D02*
X102640622Y-62740622D01*
X102699007Y-72193222D02*
X103449000Y-71443229D01*
D27*
X114750000Y-91612500D02*
X112787500Y-91612500D01*
D25*
X117737500Y-85362500D02*
X116500000Y-85362500D01*
X118321867Y-69321867D02*
X118321867Y-84778133D01*
D26*
X114012500Y-86100000D02*
X112300000Y-86100000D01*
D27*
X94585372Y-94251000D02*
X109664628Y-94251000D01*
X92690937Y-89190937D02*
X93249000Y-89749000D01*
X91216853Y-89190937D02*
X92690937Y-89190937D01*
D25*
X116940622Y-67940622D02*
X118321867Y-69321867D01*
D27*
X109664628Y-94251000D02*
X111815628Y-92100000D01*
X116500000Y-91612500D02*
X114750000Y-91612500D01*
D25*
X114349007Y-67940622D02*
X116940622Y-67940622D01*
%TO.N,VIN*%
D27*
X79847867Y-79652133D02*
X80850000Y-78650000D01*
D28*
X87512500Y-72150000D02*
X87512500Y-78787500D01*
D27*
X79975000Y-63775000D02*
X80750000Y-63000000D01*
X118046867Y-91795531D02*
X118046867Y-88296867D01*
X81865628Y-61000000D02*
X81300000Y-61565628D01*
X91216853Y-94016853D02*
X92452000Y-95252000D01*
X114248000Y-95252000D02*
X116500000Y-93000000D01*
D29*
X116500000Y-89887500D02*
X117000000Y-89387500D01*
D27*
X80850000Y-78650000D02*
X82350000Y-78650000D01*
X113300000Y-87700000D02*
X112300000Y-88700000D01*
X93300000Y-61000000D02*
X89800000Y-61000000D01*
D29*
X114750000Y-89887500D02*
X112512500Y-89887500D01*
D27*
X117490354Y-87740354D02*
X117040354Y-87740354D01*
X91216853Y-91730937D02*
X91216853Y-94016853D01*
X79975000Y-77775000D02*
X79975000Y-63775000D01*
X79847867Y-91347867D02*
X79847867Y-79652133D01*
D29*
X83800000Y-63150000D02*
X81437500Y-63150000D01*
D27*
X91216853Y-94016853D02*
X82516853Y-94016853D01*
X92452000Y-95252000D02*
X114248000Y-95252000D01*
X96700000Y-61000000D02*
X93300000Y-61000000D01*
D29*
X117000000Y-89387500D02*
X117000000Y-87700000D01*
D27*
X80750000Y-63000000D02*
X81250000Y-63000000D01*
D28*
X90175000Y-70500000D02*
X90250000Y-70425000D01*
D27*
X80850000Y-78650000D02*
X79975000Y-77775000D01*
D29*
X81437500Y-63150000D02*
X81287500Y-63000000D01*
D27*
X81300000Y-62950000D02*
X81250000Y-63000000D01*
D28*
X86350000Y-79350000D02*
X85650000Y-78650000D01*
D29*
X116500000Y-89887500D02*
X114750000Y-89887500D01*
D27*
X82350000Y-78650000D02*
X85650000Y-78650000D01*
X116500000Y-93000000D02*
X116842398Y-93000000D01*
D28*
X87512500Y-70500000D02*
X90175000Y-70500000D01*
D27*
X117000000Y-87700000D02*
X113300000Y-87700000D01*
D29*
X112512500Y-89887500D02*
X112300000Y-90100000D01*
D27*
X100250000Y-77750000D02*
X95000000Y-77750000D01*
D29*
X81287500Y-63000000D02*
X81250000Y-63000000D01*
D28*
X87512500Y-72150000D02*
X87512500Y-70500000D01*
D27*
X117040354Y-87740354D02*
X117000000Y-87700000D01*
X89800000Y-61000000D02*
X86300000Y-61000000D01*
X118046867Y-88296867D02*
X117490354Y-87740354D01*
X112300000Y-88700000D02*
X112300000Y-90100000D01*
D28*
X87512500Y-78787500D02*
X86950000Y-79350000D01*
D27*
X116842398Y-93000000D02*
X118046867Y-91795531D01*
D28*
X86950000Y-79350000D02*
X86350000Y-79350000D01*
D27*
X82516853Y-94016853D02*
X79847867Y-91347867D01*
X86300000Y-61000000D02*
X81865628Y-61000000D01*
X81300000Y-61565628D02*
X81300000Y-62950000D01*
%TO.N,PGND*%
D30*
X89742028Y-65057972D02*
X89742028Y-65742028D01*
D31*
X86300000Y-65000000D02*
X89800000Y-65000000D01*
X93300000Y-65000000D02*
X96700000Y-65000000D01*
D28*
X93255367Y-68494633D02*
X93255367Y-67000000D01*
D30*
X93255367Y-67000000D02*
X93255367Y-65144633D01*
D29*
X81437500Y-64875000D02*
X81312500Y-65000000D01*
D31*
X89800000Y-65000000D02*
X93300000Y-65000000D01*
D28*
X92050000Y-69700000D02*
X93255367Y-68494633D01*
D30*
X93300000Y-65100000D02*
X93300000Y-65000000D01*
D28*
X85787500Y-70500000D02*
X85787500Y-72150000D01*
D30*
X93255367Y-65144633D02*
X93300000Y-65100000D01*
D27*
X89742028Y-65742028D02*
X89750000Y-65750000D01*
D30*
X89750000Y-66950000D02*
X89800000Y-67000000D01*
X89750000Y-65750000D02*
X89750000Y-66950000D01*
D28*
X85787500Y-74512500D02*
X85650000Y-74650000D01*
X85787500Y-72150000D02*
X85787500Y-74512500D01*
D30*
X89800000Y-67000000D02*
X93255367Y-67000000D01*
D27*
X85650000Y-74650000D02*
X85650000Y-76650000D01*
D28*
X92050000Y-70502500D02*
X92050000Y-69700000D01*
D30*
X89800000Y-65000000D02*
X89742028Y-65057972D01*
D29*
X83800000Y-64875000D02*
X81437500Y-64875000D01*
X81312500Y-65000000D02*
X81250000Y-65000000D01*
%TO.N,SPI_SCK*%
D25*
X83750000Y-87500000D02*
X85000000Y-87500000D01*
X87750000Y-80850000D02*
X89569063Y-79030937D01*
X85348000Y-87152000D02*
X85348000Y-85126380D01*
X85348000Y-85126380D02*
X87750000Y-82724380D01*
X85000000Y-87500000D02*
X85348000Y-87152000D01*
X89569063Y-79030937D02*
X91216853Y-79030937D01*
X87750000Y-82724380D02*
X87750000Y-80850000D01*
%TO.N,SPI_MISO*%
X85799000Y-85313190D02*
X89541253Y-81570937D01*
X89541253Y-81570937D02*
X91216853Y-81570937D01*
X85112190Y-89500000D02*
X85799000Y-88813190D01*
X83750000Y-89500000D02*
X85112190Y-89500000D01*
X85799000Y-88813190D02*
X85799000Y-85313190D01*
%TO.N,SPI_MOSI*%
X83750000Y-91500000D02*
X86250000Y-89000000D01*
X86250000Y-85500000D02*
X87639063Y-84110937D01*
X87639063Y-84110937D02*
X91216853Y-84110937D01*
X86250000Y-89000000D02*
X86250000Y-85500000D01*
%TO.N,Net-(D1-A)*%
D28*
X92047500Y-72075000D02*
X92050000Y-72077500D01*
X90250000Y-72075000D02*
X92047500Y-72075000D01*
%TO.N,SDA*%
D25*
X96250000Y-71375000D02*
X96975000Y-70650000D01*
X97750000Y-74500000D02*
X96250000Y-73000000D01*
X106320937Y-81570937D02*
X99250000Y-74500000D01*
X106456853Y-81570937D02*
X106320937Y-81570937D01*
X96975000Y-70650000D02*
X99650000Y-70650000D01*
X99650000Y-70650000D02*
X100144262Y-71144262D01*
X99250000Y-74500000D02*
X97750000Y-74500000D01*
X96250000Y-73000000D02*
X96250000Y-71375000D01*
X100144262Y-71144262D02*
X100159007Y-72193222D01*
%TO.N,SCL*%
X104418747Y-79030937D02*
X99436810Y-74049000D01*
X97604262Y-73604262D02*
X97619007Y-72193222D01*
X98049000Y-74049000D02*
X97604262Y-73604262D01*
X106456853Y-79030937D02*
X104418747Y-79030937D01*
X99436810Y-74049000D02*
X98049000Y-74049000D01*
%TO.N,GPIO43*%
X106456853Y-76490937D02*
X104890937Y-76490937D01*
X104890937Y-76490937D02*
X103900000Y-75500000D01*
X114349007Y-64390622D02*
X112699007Y-62740622D01*
X114349007Y-66215622D02*
X114349007Y-64390622D01*
X105184378Y-66215622D02*
X114349007Y-66215622D01*
X103900000Y-75500000D02*
X103900000Y-67500000D01*
X103900000Y-67500000D02*
X105184378Y-66215622D01*
%TD*%
%TA.AperFunction,Conductor*%
%TO.N,SDA*%
G36*
X106485085Y-80820604D02*
G01*
X106492892Y-80824989D01*
X106495312Y-80833610D01*
X106495307Y-80833651D01*
X106395836Y-81641245D01*
X106392381Y-81648203D01*
X105940148Y-82088015D01*
X105931828Y-82091326D01*
X105923603Y-82087784D01*
X105920829Y-82083134D01*
X105492347Y-80718491D01*
X105493138Y-80709571D01*
X105500005Y-80703823D01*
X105504894Y-80703369D01*
X106485085Y-80820604D01*
G37*
%TD.AperFunction*%
%TD*%
%TA.AperFunction,Conductor*%
%TO.N,3V3*%
G36*
X91580398Y-85994188D02*
G01*
X92706513Y-86522778D01*
X92712546Y-86529395D01*
X92713242Y-86533369D01*
X92713242Y-86768504D01*
X92709815Y-86776777D01*
X92706513Y-86779095D01*
X91580401Y-87307684D01*
X91571456Y-87308097D01*
X91565141Y-87302664D01*
X91279927Y-86775937D01*
X91215257Y-86656506D01*
X91214333Y-86647601D01*
X91215256Y-86645370D01*
X91565142Y-85999208D01*
X91572094Y-85993566D01*
X91580398Y-85994188D01*
G37*
%TD.AperFunction*%
%TD*%
%TA.AperFunction,Conductor*%
%TO.N,VIN*%
G36*
X115393685Y-56846856D02*
G01*
X115408683Y-56851260D01*
X115423682Y-56860899D01*
X115440783Y-56865920D01*
X115467457Y-56889031D01*
X115472269Y-56894584D01*
X115500176Y-56951599D01*
X115548169Y-57192884D01*
X115548172Y-57192895D01*
X115648018Y-57522044D01*
X115779355Y-57839118D01*
X115779590Y-57839697D01*
X115779635Y-57839792D01*
X115779637Y-57839797D01*
X115779639Y-57839802D01*
X115941760Y-58143108D01*
X115941771Y-58143126D01*
X116132842Y-58429084D01*
X116132852Y-58429098D01*
X116132863Y-58429111D01*
X116351048Y-58694970D01*
X116594227Y-58938149D01*
X116594302Y-58938216D01*
X116594823Y-58938638D01*
X116860107Y-59156352D01*
X117005970Y-59253814D01*
X117146081Y-59347434D01*
X117146744Y-59347802D01*
X117147526Y-59348206D01*
X117444097Y-59506727D01*
X117448370Y-59509011D01*
X117448371Y-59509012D01*
X117452868Y-59511416D01*
X117457845Y-59513060D01*
X117767162Y-59641183D01*
X118096289Y-59741023D01*
X118330074Y-59787525D01*
X118363356Y-59799267D01*
X118377208Y-59806513D01*
X118427480Y-59855018D01*
X118427485Y-59855027D01*
X118427487Y-59855029D01*
X118427487Y-59855031D01*
X118431115Y-59861400D01*
X118447367Y-59922770D01*
X118447367Y-68245584D01*
X118442343Y-68280522D01*
X118439156Y-68291375D01*
X118429518Y-68306370D01*
X118424498Y-68323472D01*
X118411023Y-68335148D01*
X118401381Y-68350152D01*
X118385165Y-68357556D01*
X118371696Y-68369229D01*
X118354045Y-68371767D01*
X118337824Y-68379175D01*
X118320180Y-68376638D01*
X118302538Y-68379176D01*
X118268675Y-68369234D01*
X118261696Y-68366047D01*
X118225524Y-68340933D01*
X117436712Y-67552122D01*
X117433550Y-67548960D01*
X117433547Y-67548956D01*
X117433547Y-67548957D01*
X117426480Y-67541890D01*
X117426480Y-67541889D01*
X117339355Y-67454764D01*
X117339354Y-67454763D01*
X117339353Y-67454762D01*
X117279349Y-67414669D01*
X117277962Y-67413742D01*
X117277961Y-67413741D01*
X117236912Y-67386312D01*
X117236908Y-67386309D01*
X117203437Y-67372445D01*
X117203434Y-67372445D01*
X117156414Y-67352969D01*
X117123074Y-67339159D01*
X117123070Y-67339158D01*
X117123066Y-67339157D01*
X117041155Y-67322863D01*
X117041147Y-67322863D01*
X117040144Y-67322663D01*
X117037287Y-67322095D01*
X117037215Y-67322057D01*
X117037211Y-67322079D01*
X117014925Y-67317646D01*
X117002237Y-67315122D01*
X117002229Y-67315122D01*
X117002228Y-67315122D01*
X115339875Y-67315122D01*
X115320716Y-67313633D01*
X115313273Y-67312469D01*
X115308897Y-67310405D01*
X115304935Y-67310097D01*
X115301724Y-67309154D01*
X115301946Y-67308396D01*
X115285341Y-67304668D01*
X115282584Y-67303536D01*
X115279530Y-67302464D01*
X115279877Y-67301475D01*
X115270430Y-67295752D01*
X115257466Y-67292683D01*
X115231739Y-67272625D01*
X115231522Y-67272853D01*
X115231408Y-67272744D01*
X115230580Y-67271721D01*
X115229947Y-67271227D01*
X115229603Y-67271019D01*
X115227832Y-67269182D01*
X115227821Y-67269162D01*
X115227715Y-67269051D01*
X115227747Y-67269019D01*
X115226566Y-67266759D01*
X115211566Y-67248220D01*
X115169347Y-67179772D01*
X115163362Y-67173787D01*
X115157746Y-67165110D01*
X115152260Y-67161059D01*
X115139418Y-67136794D01*
X115135145Y-67130192D01*
X115134278Y-67127915D01*
X115133621Y-67125959D01*
X115133336Y-67125438D01*
X115131879Y-67121606D01*
X115129385Y-67089663D01*
X115125343Y-67057875D01*
X115125344Y-67057869D01*
X115125665Y-67055869D01*
X115126564Y-67053516D01*
X115126442Y-67051948D01*
X115128942Y-67047298D01*
X115143786Y-67008475D01*
X115144403Y-67007514D01*
X115144407Y-67007511D01*
X115148178Y-67001643D01*
X115164798Y-66981020D01*
X115169347Y-66976472D01*
X115259915Y-66829638D01*
X115314181Y-66665875D01*
X115324507Y-66564799D01*
X115324506Y-65866446D01*
X115322663Y-65848408D01*
X115314181Y-65765369D01*
X115311685Y-65757838D01*
X115259915Y-65601606D01*
X115169347Y-65454772D01*
X115047357Y-65332782D01*
X115047356Y-65332781D01*
X115047354Y-65332779D01*
X115041693Y-65328303D01*
X115041937Y-65327993D01*
X115021484Y-65310920D01*
X115008251Y-65296207D01*
X114979535Y-65240767D01*
X114977587Y-65232195D01*
X114974507Y-65204730D01*
X114974507Y-64329016D01*
X114965368Y-64283072D01*
X114950470Y-64208171D01*
X114948494Y-64203401D01*
X114928369Y-64154815D01*
X114924425Y-64145294D01*
X114913353Y-64118563D01*
X114903321Y-64094342D01*
X114903314Y-64094329D01*
X114877355Y-64055479D01*
X114834866Y-63991889D01*
X114834863Y-63991886D01*
X114801705Y-63958729D01*
X114248432Y-63405456D01*
X114248427Y-63405451D01*
X114227280Y-63377200D01*
X114214673Y-63354111D01*
X114199506Y-63294686D01*
X114199506Y-60692744D01*
X114199346Y-60690819D01*
X114199119Y-60689160D01*
X114198126Y-60679923D01*
X114193098Y-60633139D01*
X114142803Y-60498291D01*
X114142802Y-60498290D01*
X114142800Y-60498286D01*
X114142789Y-60498271D01*
X114140399Y-60494551D01*
X114140398Y-60494550D01*
X114137496Y-60491201D01*
X114056554Y-60383077D01*
X114056551Y-60383074D01*
X114056549Y-60383072D01*
X113998623Y-60339708D01*
X113941342Y-60296828D01*
X113941339Y-60296826D01*
X113941337Y-60296825D01*
X113941335Y-60296824D01*
X113806489Y-60246530D01*
X113806490Y-60246530D01*
X113746890Y-60240123D01*
X113746888Y-60240122D01*
X113746880Y-60240122D01*
X113746871Y-60240122D01*
X113745848Y-60240122D01*
X111651130Y-60240122D01*
X111649199Y-60240281D01*
X111647552Y-60240507D01*
X111591523Y-60246530D01*
X111456673Y-60296826D01*
X111456672Y-60296827D01*
X111341463Y-60383072D01*
X111341457Y-60383078D01*
X111255212Y-60498287D01*
X111255210Y-60498290D01*
X111204914Y-60633138D01*
X111203054Y-60650449D01*
X111199887Y-60679917D01*
X111199886Y-60679923D01*
X111198507Y-60692743D01*
X111198507Y-64788498D01*
X111198666Y-64790428D01*
X111198892Y-64792076D01*
X111204914Y-64848104D01*
X111232697Y-64922593D01*
X111255209Y-64982950D01*
X111255210Y-64982952D01*
X111255211Y-64982954D01*
X111255212Y-64982955D01*
X111341457Y-65098164D01*
X111341459Y-65098166D01*
X111341462Y-65098169D01*
X111456671Y-65184415D01*
X111456678Y-65184419D01*
X111591524Y-65234713D01*
X111591523Y-65234713D01*
X111598451Y-65235457D01*
X111651134Y-65241122D01*
X113425125Y-65241121D01*
X113433386Y-65242769D01*
X113438530Y-65241848D01*
X113460060Y-65246144D01*
X113473182Y-65249997D01*
X113476768Y-65252302D01*
X113485312Y-65255853D01*
X113497051Y-65265336D01*
X113531960Y-65287771D01*
X113536133Y-65296909D01*
X113539662Y-65299760D01*
X113545557Y-65317545D01*
X113560985Y-65351327D01*
X113559922Y-65360881D01*
X113561646Y-65366081D01*
X113557582Y-65381921D01*
X113554109Y-65413156D01*
X113553582Y-65414538D01*
X113546351Y-65425701D01*
X113544285Y-65433759D01*
X113536375Y-65441104D01*
X113531855Y-65448083D01*
X113533148Y-65449105D01*
X113528667Y-65454771D01*
X113489932Y-65517568D01*
X113488435Y-65519311D01*
X113488081Y-65520478D01*
X113468194Y-65542886D01*
X113464720Y-65546934D01*
X113464234Y-65547346D01*
X113454080Y-65555893D01*
X113452285Y-65557506D01*
X113450952Y-65558641D01*
X113438230Y-65564308D01*
X113398107Y-65585092D01*
X113389540Y-65587039D01*
X113362060Y-65590122D01*
X105245985Y-65590122D01*
X105122771Y-65590122D01*
X105097317Y-65595185D01*
X105097265Y-65595195D01*
X105095446Y-65595556D01*
X105095439Y-65595556D01*
X105001921Y-65614158D01*
X104888097Y-65661305D01*
X104888096Y-65661306D01*
X104881002Y-65666046D01*
X104880989Y-65666055D01*
X104878005Y-65668050D01*
X104878004Y-65668051D01*
X104785646Y-65729762D01*
X104757571Y-65757838D01*
X104751502Y-65763906D01*
X104751494Y-65763913D01*
X104698521Y-65816888D01*
X104698520Y-65816889D01*
X104298788Y-66216620D01*
X104270538Y-66237769D01*
X104260611Y-66243190D01*
X104243180Y-66246982D01*
X104227524Y-66255529D01*
X104209749Y-66254255D01*
X104192338Y-66258044D01*
X104175626Y-66251811D01*
X104157832Y-66250537D01*
X104143568Y-66239856D01*
X104126873Y-66233630D01*
X104116181Y-66219349D01*
X104101904Y-66208658D01*
X104085010Y-66177711D01*
X104085000Y-66177698D01*
X104082313Y-66170492D01*
X104074500Y-66127172D01*
X104074500Y-63488199D01*
X104074500Y-63487393D01*
X104074499Y-63487389D01*
X104073315Y-63481436D01*
X104050463Y-63366548D01*
X104012652Y-63275264D01*
X104003312Y-63252714D01*
X103969084Y-63201490D01*
X103934858Y-63150267D01*
X103934856Y-63150264D01*
X103844637Y-63060045D01*
X103844621Y-63060030D01*
X103843176Y-63058585D01*
X103843176Y-63058584D01*
X103843144Y-63058554D01*
X103133772Y-62349182D01*
X103126482Y-62341892D01*
X103126480Y-62341889D01*
X103039355Y-62254764D01*
X102988131Y-62220537D01*
X102981462Y-62216080D01*
X102981460Y-62216079D01*
X102936966Y-62186348D01*
X102936966Y-62186349D01*
X102936901Y-62186305D01*
X102935468Y-62185605D01*
X102932840Y-62184623D01*
X102932837Y-62184623D01*
X102867078Y-62157386D01*
X102859447Y-62154225D01*
X102858721Y-62153924D01*
X102856415Y-62152969D01*
X102856414Y-62152968D01*
X102856414Y-62152969D01*
X102823074Y-62139159D01*
X102823066Y-62139157D01*
X102762663Y-62127142D01*
X102762656Y-62127141D01*
X102752000Y-62125020D01*
X102751954Y-62125012D01*
X102733291Y-62121300D01*
X102702232Y-62115122D01*
X102702231Y-62115122D01*
X102341336Y-62115122D01*
X102341331Y-62115121D01*
X102341329Y-62115122D01*
X102306395Y-62110097D01*
X102291396Y-62105692D01*
X102232650Y-62067949D01*
X102232621Y-62067915D01*
X102232620Y-62067915D01*
X102232619Y-62067913D01*
X102231463Y-62066580D01*
X102203983Y-62011705D01*
X102202338Y-62004143D01*
X102199506Y-61977790D01*
X102199506Y-60692744D01*
X102199346Y-60690819D01*
X102199119Y-60689160D01*
X102198126Y-60679923D01*
X102193098Y-60633139D01*
X102142803Y-60498291D01*
X102142802Y-60498290D01*
X102142800Y-60498286D01*
X102142789Y-60498271D01*
X102140399Y-60494551D01*
X102140398Y-60494550D01*
X102137496Y-60491201D01*
X102056554Y-60383077D01*
X102056551Y-60383074D01*
X102056549Y-60383072D01*
X101998623Y-60339708D01*
X101941342Y-60296828D01*
X101941339Y-60296826D01*
X101941337Y-60296825D01*
X101941335Y-60296824D01*
X101806489Y-60246530D01*
X101806490Y-60246530D01*
X101746890Y-60240123D01*
X101746888Y-60240122D01*
X101746880Y-60240122D01*
X101746871Y-60240122D01*
X101745848Y-60240122D01*
X99651130Y-60240122D01*
X99649199Y-60240281D01*
X99647552Y-60240507D01*
X99591523Y-60246530D01*
X99456673Y-60296826D01*
X99456672Y-60296827D01*
X99341463Y-60383072D01*
X99341457Y-60383078D01*
X99255212Y-60498287D01*
X99255210Y-60498290D01*
X99204914Y-60633138D01*
X99203054Y-60650449D01*
X99199887Y-60679917D01*
X99199886Y-60679923D01*
X99198507Y-60692743D01*
X99198507Y-64788498D01*
X99198666Y-64790428D01*
X99198892Y-64792076D01*
X99204914Y-64848104D01*
X99232697Y-64922593D01*
X99255209Y-64982950D01*
X99255210Y-64982952D01*
X99255211Y-64982954D01*
X99255212Y-64982955D01*
X99341457Y-65098164D01*
X99341459Y-65098166D01*
X99341462Y-65098169D01*
X99456671Y-65184415D01*
X99456678Y-65184419D01*
X99591524Y-65234713D01*
X99591523Y-65234713D01*
X99598451Y-65235457D01*
X99651134Y-65241122D01*
X101746879Y-65241121D01*
X101806490Y-65234713D01*
X101941338Y-65184418D01*
X102056553Y-65098168D01*
X102142803Y-64982953D01*
X102193098Y-64848105D01*
X102199507Y-64788495D01*
X102199507Y-63507946D01*
X102201376Y-63486497D01*
X102203013Y-63477176D01*
X102204412Y-63474346D01*
X102204529Y-63473015D01*
X102205812Y-63468645D01*
X102206783Y-63468930D01*
X102210878Y-63452888D01*
X102210182Y-63452629D01*
X102210743Y-63451123D01*
X102211632Y-63449933D01*
X102212356Y-63447100D01*
X102213594Y-63444390D01*
X102215222Y-63445133D01*
X102225985Y-63430744D01*
X102233997Y-63414552D01*
X102241431Y-63410094D01*
X102252592Y-63395173D01*
X102288977Y-63381584D01*
X102293920Y-63378621D01*
X102296683Y-63378706D01*
X102318046Y-63370729D01*
X102361877Y-63375432D01*
X102372521Y-63378557D01*
X102425262Y-63409852D01*
X102774574Y-63759164D01*
X102795723Y-63787415D01*
X102808331Y-63810504D01*
X102823500Y-63869933D01*
X102823500Y-70700892D01*
X102818475Y-70735834D01*
X102817622Y-70738739D01*
X102814070Y-70750834D01*
X102776327Y-70809577D01*
X102774958Y-70810764D01*
X102720097Y-70838240D01*
X102712539Y-70839885D01*
X102686168Y-70842722D01*
X101801130Y-70842722D01*
X101799199Y-70842881D01*
X101797552Y-70843107D01*
X101745170Y-70848738D01*
X101741523Y-70849130D01*
X101634246Y-70889142D01*
X101606673Y-70899426D01*
X101606672Y-70899427D01*
X101491463Y-70985672D01*
X101491457Y-70985678D01*
X101405215Y-71100883D01*
X101405207Y-71100895D01*
X101362426Y-71215599D01*
X101362425Y-71215600D01*
X101362425Y-71215601D01*
X101345510Y-71246577D01*
X101337193Y-71257687D01*
X101281259Y-71299558D01*
X101211575Y-71304543D01*
X101211569Y-71304541D01*
X101211568Y-71304542D01*
X101211566Y-71304541D01*
X101207092Y-71303568D01*
X101145767Y-71270086D01*
X101038795Y-71163114D01*
X101038793Y-71163112D01*
X100866826Y-71038173D01*
X100866825Y-71038172D01*
X100866823Y-71038171D01*
X100860743Y-71035073D01*
X100860740Y-71035071D01*
X100810873Y-71009662D01*
X100782026Y-70989326D01*
X100776699Y-70984295D01*
X100772732Y-70981121D01*
X100773738Y-70979862D01*
X100733726Y-70931612D01*
X100720933Y-70901916D01*
X100720649Y-70901250D01*
X100720348Y-70900538D01*
X100719998Y-70899702D01*
X100719883Y-70899424D01*
X100715625Y-70889143D01*
X100698574Y-70847976D01*
X100698571Y-70847971D01*
X100698571Y-70847970D01*
X100698039Y-70846913D01*
X100697950Y-70846758D01*
X100696904Y-70844853D01*
X100696531Y-70844154D01*
X100696496Y-70844081D01*
X100696446Y-70843999D01*
X100694355Y-70840216D01*
X100693325Y-70838720D01*
X100693319Y-70838711D01*
X100693319Y-70838710D01*
X100662361Y-70793760D01*
X100661437Y-70792399D01*
X100630119Y-70745529D01*
X100630113Y-70745523D01*
X100626985Y-70742395D01*
X100624468Y-70738739D01*
X100624464Y-70738735D01*
X100624463Y-70738733D01*
X100584011Y-70699404D01*
X100582962Y-70698370D01*
X100582455Y-70697865D01*
X100140198Y-70255608D01*
X100140178Y-70255586D01*
X100048733Y-70164141D01*
X99999375Y-70131162D01*
X99997509Y-70129915D01*
X99946286Y-70095688D01*
X99946283Y-70095686D01*
X99946280Y-70095685D01*
X99872603Y-70065168D01*
X99872603Y-70065167D01*
X99868176Y-70063334D01*
X99865801Y-70062351D01*
X99865793Y-70062344D01*
X99865792Y-70062347D01*
X99832452Y-70048537D01*
X99832444Y-70048535D01*
X99772041Y-70036520D01*
X99772034Y-70036519D01*
X99761378Y-70034398D01*
X99761332Y-70034390D01*
X99742669Y-70030678D01*
X99711610Y-70024500D01*
X99711609Y-70024500D01*
X96913390Y-70024500D01*
X96913389Y-70024500D01*
X96862535Y-70034615D01*
X96862530Y-70034616D01*
X96862520Y-70034617D01*
X96861771Y-70034766D01*
X96861764Y-70034768D01*
X96852971Y-70036518D01*
X96792548Y-70048537D01*
X96745397Y-70068067D01*
X96678715Y-70095688D01*
X96678714Y-70095689D01*
X96665865Y-70104273D01*
X96665861Y-70104275D01*
X96656347Y-70110633D01*
X96576267Y-70164139D01*
X96576264Y-70164142D01*
X96532704Y-70207703D01*
X96489144Y-70251265D01*
X96489142Y-70251267D01*
X95854298Y-70886110D01*
X95854291Y-70886117D01*
X95851270Y-70889139D01*
X95851267Y-70889142D01*
X95826013Y-70914396D01*
X95764144Y-70976264D01*
X95730050Y-71027288D01*
X95725660Y-71033856D01*
X95725656Y-71033862D01*
X95695689Y-71078707D01*
X95694986Y-71080143D01*
X95694003Y-71082778D01*
X95685633Y-71102990D01*
X95685629Y-71103000D01*
X95648542Y-71192535D01*
X95648536Y-71192550D01*
X95648536Y-71192552D01*
X95648534Y-71192555D01*
X95624500Y-71313384D01*
X95624500Y-73061615D01*
X95634756Y-73113176D01*
X95634776Y-73113272D01*
X95635151Y-73115156D01*
X95635152Y-73115173D01*
X95635154Y-73115173D01*
X95648535Y-73182444D01*
X95648537Y-73182451D01*
X95658095Y-73205528D01*
X95659720Y-73209450D01*
X95661294Y-73213250D01*
X95661295Y-73213253D01*
X95695685Y-73296280D01*
X95695690Y-73296289D01*
X95729914Y-73347507D01*
X95729915Y-73347509D01*
X95764140Y-73398731D01*
X95764141Y-73398732D01*
X95764142Y-73398733D01*
X95771605Y-73406196D01*
X95805810Y-73440401D01*
X95820842Y-73467930D01*
X95848118Y-73486114D01*
X95866991Y-73501582D01*
X95868683Y-73503273D01*
X95868684Y-73503275D01*
X95868703Y-73503294D01*
X95868709Y-73503299D01*
X97264141Y-74898732D01*
X97351269Y-74985860D01*
X97447410Y-75050100D01*
X97447412Y-75050100D01*
X97453707Y-75054307D01*
X97453713Y-75054310D01*
X97453714Y-75054311D01*
X97562619Y-75099421D01*
X97563284Y-75099706D01*
X97563481Y-75099869D01*
X97566345Y-75101223D01*
X97567544Y-75101461D01*
X97567548Y-75101463D01*
X97567551Y-75101463D01*
X97567552Y-75101463D01*
X97567553Y-75101464D01*
X97625404Y-75112971D01*
X97625481Y-75113011D01*
X97625485Y-75112987D01*
X97625514Y-75112993D01*
X97625530Y-75112996D01*
X97625550Y-75113000D01*
X97676412Y-75123116D01*
X97684270Y-75125500D01*
X97688392Y-75125500D01*
X97688393Y-75125500D01*
X97688394Y-75125500D01*
X98921718Y-75125500D01*
X98954223Y-75130173D01*
X98956650Y-75130521D01*
X98981894Y-75137934D01*
X99034640Y-75169230D01*
X105114293Y-81248883D01*
X105144917Y-81299417D01*
X105200658Y-81476938D01*
X105206353Y-81514085D01*
X105206353Y-81669364D01*
X105231820Y-81830156D01*
X105237143Y-81863763D01*
X105297970Y-82050966D01*
X105387329Y-82226342D01*
X105503025Y-82385583D01*
X105642207Y-82524765D01*
X105721898Y-82582664D01*
X105801443Y-82640458D01*
X105801445Y-82640459D01*
X105801448Y-82640461D01*
X105847825Y-82664091D01*
X105962181Y-82722358D01*
X105991022Y-82742689D01*
X105994987Y-82746433D01*
X105998756Y-82749993D01*
X106000436Y-82751579D01*
X106009427Y-82766980D01*
X106012977Y-82770333D01*
X106014150Y-82775069D01*
X106035662Y-82811918D01*
X106032674Y-82881724D01*
X105996504Y-82935445D01*
X105989499Y-82941515D01*
X105964590Y-82958288D01*
X105801446Y-83041413D01*
X105710594Y-83107422D01*
X105654076Y-83148485D01*
X105646697Y-83152617D01*
X105498532Y-83300782D01*
X105494402Y-83308158D01*
X105481078Y-83326498D01*
X105481076Y-83326500D01*
X105388210Y-83454318D01*
X105387329Y-83455531D01*
X105387327Y-83455533D01*
X105387325Y-83455538D01*
X105359842Y-83509477D01*
X105297970Y-83630907D01*
X105237143Y-83818110D01*
X105237142Y-83818113D01*
X105237142Y-83818115D01*
X105206353Y-84012508D01*
X105206353Y-84209364D01*
X105234222Y-84385323D01*
X105237143Y-84403763D01*
X105297970Y-84590966D01*
X105352301Y-84697595D01*
X105373637Y-84739471D01*
X105378230Y-84748484D01*
X105387013Y-84765721D01*
X105387330Y-84766343D01*
X105387331Y-84766346D01*
X105396390Y-84778814D01*
X105503025Y-84925583D01*
X105642207Y-85064765D01*
X105801448Y-85180461D01*
X105888339Y-85224734D01*
X105888338Y-85224734D01*
X105962180Y-85262358D01*
X105980850Y-85275519D01*
X105991022Y-85282689D01*
X106000436Y-85291579D01*
X106035662Y-85351918D01*
X106032674Y-85421724D01*
X105996504Y-85475445D01*
X105989499Y-85481515D01*
X105964590Y-85498288D01*
X105801446Y-85581413D01*
X105710594Y-85647422D01*
X105654076Y-85688485D01*
X105646697Y-85692617D01*
X105498568Y-85840746D01*
X105494498Y-85848026D01*
X105494356Y-85848222D01*
X105494258Y-85848358D01*
X105387329Y-85995531D01*
X105387326Y-85995535D01*
X105387325Y-85995538D01*
X105352635Y-86063621D01*
X105297970Y-86170907D01*
X105237143Y-86358110D01*
X105237142Y-86358113D01*
X105237142Y-86358115D01*
X105206353Y-86552508D01*
X105206353Y-86749364D01*
X105232887Y-86916894D01*
X105237143Y-86943763D01*
X105297970Y-87130966D01*
X105382122Y-87296122D01*
X105387329Y-87306342D01*
X105503025Y-87465583D01*
X105642207Y-87604765D01*
X105801448Y-87720461D01*
X105976828Y-87809821D01*
X106019801Y-87823784D01*
X106034287Y-87833577D01*
X106050384Y-87838619D01*
X106051414Y-87839315D01*
X106060807Y-87845739D01*
X106071351Y-87858633D01*
X106076638Y-87862207D01*
X106083878Y-87870872D01*
X106086743Y-87877455D01*
X106105036Y-87899827D01*
X106108100Y-87926537D01*
X106111757Y-87934939D01*
X106110180Y-87944660D01*
X106113001Y-87969241D01*
X106102844Y-87989898D01*
X106100573Y-88003907D01*
X106090378Y-88015253D01*
X106082174Y-88031940D01*
X106082161Y-88031956D01*
X106080066Y-88034238D01*
X106064112Y-88044488D01*
X106053878Y-88055881D01*
X106040804Y-88059465D01*
X106027043Y-88068309D01*
X105996017Y-88078390D01*
X105827653Y-88164176D01*
X105781116Y-88197989D01*
X105781115Y-88197989D01*
X105686650Y-88266622D01*
X105679271Y-88270754D01*
X105536670Y-88413355D01*
X105532541Y-88420729D01*
X105507348Y-88455407D01*
X105502764Y-88461716D01*
X105472959Y-88502738D01*
X105430093Y-88561736D01*
X105408875Y-88603379D01*
X105344307Y-88730100D01*
X105285912Y-88909818D01*
X105285911Y-88909821D01*
X105285911Y-88909823D01*
X105256353Y-89096444D01*
X105256353Y-89285428D01*
X105280415Y-89437347D01*
X105285912Y-89472055D01*
X105344307Y-89651773D01*
X105407230Y-89775265D01*
X105430093Y-89820136D01*
X105541163Y-89973010D01*
X105674780Y-90106627D01*
X105827654Y-90217697D01*
X105954734Y-90282447D01*
X105983578Y-90302781D01*
X105991906Y-90310646D01*
X106027130Y-90370987D01*
X106024140Y-90440792D01*
X105984231Y-90497624D01*
X105975525Y-90504589D01*
X105945515Y-90522323D01*
X105888177Y-90546073D01*
X105821250Y-90598064D01*
X105821238Y-90598075D01*
X105323989Y-91095324D01*
X105323981Y-91095333D01*
X105323977Y-91095337D01*
X105323958Y-91095360D01*
X105276743Y-91156137D01*
X105274007Y-91159237D01*
X105271985Y-91162264D01*
X105216915Y-91295218D01*
X105216912Y-91295228D01*
X105216909Y-91295240D01*
X105206487Y-91378224D01*
X105206363Y-91379148D01*
X105206352Y-91379304D01*
X105206352Y-92082570D01*
X105216911Y-92166638D01*
X105216912Y-92166646D01*
X105271989Y-92299612D01*
X105274005Y-92302629D01*
X105276748Y-92305738D01*
X105323974Y-92366532D01*
X105323978Y-92366536D01*
X105323979Y-92366537D01*
X105632653Y-92675211D01*
X105652216Y-92701342D01*
X105653802Y-92703461D01*
X105659223Y-92713388D01*
X105674077Y-92781661D01*
X105649663Y-92847126D01*
X105593731Y-92888999D01*
X105593727Y-92889001D01*
X105586539Y-92891682D01*
X105543205Y-92899500D01*
X95214375Y-92899500D01*
X95179439Y-92894477D01*
X95154197Y-92887065D01*
X95101452Y-92855769D01*
X94674426Y-92428743D01*
X94674421Y-92428738D01*
X94653274Y-92400487D01*
X94640667Y-92377398D01*
X94625500Y-92317973D01*
X94625500Y-87188390D01*
X94620506Y-87163289D01*
X94620504Y-87163280D01*
X94618185Y-87151619D01*
X94614391Y-87132546D01*
X94614391Y-87132544D01*
X94605795Y-87089325D01*
X94605795Y-87089324D01*
X94601464Y-87067552D01*
X94601461Y-87067543D01*
X94580662Y-87017329D01*
X94554314Y-86953719D01*
X94554312Y-86953714D01*
X94529709Y-86916894D01*
X94506719Y-86882486D01*
X94506716Y-86882483D01*
X94485858Y-86851267D01*
X94485856Y-86851264D01*
X94395637Y-86761045D01*
X94395621Y-86761030D01*
X94394176Y-86759585D01*
X94394176Y-86759584D01*
X94394144Y-86759554D01*
X93894330Y-86259740D01*
X93886797Y-86252207D01*
X93886795Y-86252204D01*
X93799670Y-86165079D01*
X93740436Y-86125500D01*
X93734055Y-86121236D01*
X93697218Y-86096621D01*
X93617706Y-86063687D01*
X93617543Y-86063621D01*
X93611135Y-86060967D01*
X93611131Y-86060964D01*
X93611131Y-86060965D01*
X93583392Y-86049475D01*
X93583382Y-86049472D01*
X93522968Y-86037455D01*
X93522966Y-86037455D01*
X93518628Y-86036592D01*
X93518626Y-86036591D01*
X93518625Y-86036591D01*
X93462551Y-86025437D01*
X93462547Y-86025437D01*
X93462544Y-86025437D01*
X93462543Y-86025437D01*
X92864287Y-86025437D01*
X92811598Y-86013686D01*
X91795200Y-85536596D01*
X91758633Y-85521152D01*
X91755848Y-85520264D01*
X91737232Y-85512612D01*
X91711523Y-85499513D01*
X91682676Y-85479178D01*
X91673265Y-85470290D01*
X91664277Y-85454894D01*
X91660726Y-85451540D01*
X91659551Y-85446798D01*
X91638041Y-85409949D01*
X91641033Y-85340143D01*
X91677194Y-85286434D01*
X91684207Y-85280358D01*
X91709109Y-85263588D01*
X91872256Y-85180462D01*
X91872255Y-85180462D01*
X91872258Y-85180461D01*
X91872259Y-85180459D01*
X91872477Y-85180349D01*
X91872478Y-85180348D01*
X91920336Y-85155964D01*
X91935748Y-85134429D01*
X91939248Y-85131789D01*
X92031499Y-85064765D01*
X92170681Y-84925583D01*
X92286377Y-84766342D01*
X92375737Y-84590962D01*
X92436562Y-84403763D01*
X92455771Y-84282482D01*
X92467353Y-84209359D01*
X92467353Y-84012514D01*
X92436562Y-83818110D01*
X92375735Y-83630907D01*
X92315588Y-83512863D01*
X92315588Y-83512862D01*
X92315587Y-83512861D01*
X92286381Y-83455539D01*
X92286374Y-83455527D01*
X92236184Y-83386448D01*
X92170681Y-83296291D01*
X92031499Y-83157109D01*
X91975627Y-83116516D01*
X91951878Y-83099261D01*
X91872256Y-83041411D01*
X91872253Y-83041409D01*
X91872244Y-83041404D01*
X91711523Y-82959514D01*
X91682678Y-82939180D01*
X91673263Y-82930288D01*
X91638041Y-82869949D01*
X91641033Y-82800143D01*
X91677194Y-82746434D01*
X91684207Y-82740358D01*
X91709109Y-82723588D01*
X91863986Y-82644675D01*
X91864395Y-82644504D01*
X91872047Y-82640569D01*
X91872474Y-82640351D01*
X91920336Y-82615964D01*
X91935748Y-82594429D01*
X91939248Y-82591789D01*
X92031499Y-82524765D01*
X92170681Y-82385583D01*
X92286377Y-82226342D01*
X92375737Y-82050962D01*
X92436562Y-81863763D01*
X92442030Y-81829235D01*
X92444619Y-81812892D01*
X92467353Y-81669357D01*
X92467353Y-81472514D01*
X92436562Y-81278110D01*
X92408340Y-81191254D01*
X92375737Y-81090912D01*
X92375735Y-81090909D01*
X92375735Y-81090907D01*
X92373498Y-81086517D01*
X92373188Y-81085722D01*
X92372452Y-81084464D01*
X92286376Y-80915531D01*
X92279659Y-80906286D01*
X92170681Y-80756291D01*
X92031499Y-80617109D01*
X91912546Y-80530684D01*
X91872256Y-80501411D01*
X91839739Y-80484844D01*
X91837600Y-80483754D01*
X91696882Y-80412054D01*
X91646921Y-80395821D01*
X91640246Y-80392739D01*
X91636672Y-80389616D01*
X91622231Y-80382516D01*
X91612895Y-80376132D01*
X91592014Y-80350595D01*
X91587632Y-80346766D01*
X91586947Y-80344398D01*
X91568668Y-80322043D01*
X91560704Y-80252628D01*
X91591522Y-80189940D01*
X91593621Y-80187653D01*
X91646664Y-80153563D01*
X91677685Y-80143484D01*
X91846052Y-80057697D01*
X91998926Y-79946627D01*
X92132543Y-79813010D01*
X92243613Y-79660136D01*
X92329400Y-79491769D01*
X92387793Y-79312055D01*
X92395114Y-79265834D01*
X92417353Y-79125423D01*
X92417353Y-78936450D01*
X92387793Y-78749818D01*
X92329398Y-78570100D01*
X92284143Y-78481284D01*
X92243613Y-78401738D01*
X92243611Y-78401735D01*
X92243610Y-78401733D01*
X92211367Y-78357355D01*
X92132543Y-78248864D01*
X91998926Y-78115247D01*
X91846052Y-78004177D01*
X91846051Y-78004176D01*
X91846049Y-78004175D01*
X91819563Y-77990679D01*
X91819563Y-77990680D01*
X91677690Y-77918391D01*
X91676253Y-77917924D01*
X91673318Y-77916970D01*
X91658834Y-77907180D01*
X91642751Y-77902145D01*
X91641760Y-77901475D01*
X91632305Y-77895009D01*
X91621775Y-77882131D01*
X91616494Y-77878561D01*
X91609252Y-77869896D01*
X91606381Y-77863301D01*
X91588082Y-77840919D01*
X91585021Y-77814235D01*
X91581364Y-77805833D01*
X91582941Y-77796096D01*
X91580121Y-77771504D01*
X91590270Y-77750860D01*
X91592538Y-77736863D01*
X91602731Y-77725514D01*
X91610935Y-77708826D01*
X91613037Y-77706536D01*
X91628981Y-77696289D01*
X91639227Y-77684883D01*
X91652317Y-77681291D01*
X91666082Y-77672444D01*
X91701485Y-77660942D01*
X91878547Y-77570724D01*
X92039317Y-77453918D01*
X92179834Y-77313401D01*
X92296640Y-77152631D01*
X92386858Y-76975569D01*
X92448266Y-76786573D01*
X92479353Y-76590298D01*
X92479353Y-76391576D01*
X92448266Y-76195301D01*
X92417562Y-76100803D01*
X92386859Y-76006307D01*
X92386858Y-76006304D01*
X92332047Y-75898733D01*
X92296640Y-75829243D01*
X92179834Y-75668473D01*
X92039317Y-75527956D01*
X91943135Y-75458076D01*
X91878542Y-75411146D01*
X91820005Y-75381320D01*
X91820001Y-75381319D01*
X91701485Y-75320931D01*
X91701482Y-75320930D01*
X91701479Y-75320929D01*
X91701477Y-75320928D01*
X91701458Y-75320921D01*
X91512493Y-75259524D01*
X91372031Y-75237277D01*
X91372025Y-75237276D01*
X91365303Y-75236212D01*
X91316214Y-75228437D01*
X91316213Y-75228437D01*
X91185726Y-75228437D01*
X91182797Y-75228298D01*
X91181918Y-75227994D01*
X91172490Y-75227376D01*
X91164502Y-75226324D01*
X91156516Y-75225273D01*
X91140609Y-75222109D01*
X91045494Y-75196623D01*
X90993143Y-75192503D01*
X90973589Y-75190965D01*
X90973585Y-75190964D01*
X90966878Y-75190437D01*
X90966874Y-75190437D01*
X90966873Y-75190437D01*
X88640842Y-75190437D01*
X88640827Y-75190437D01*
X88562210Y-75196623D01*
X88379366Y-75245616D01*
X88210703Y-75331551D01*
X88063596Y-75450680D01*
X87944467Y-75597787D01*
X87858532Y-75766450D01*
X87809540Y-75949293D01*
X87809267Y-75951367D01*
X87809158Y-75954146D01*
X87803353Y-76027902D01*
X87803353Y-76953961D01*
X87809539Y-77032578D01*
X87840600Y-77148499D01*
X87858532Y-77215424D01*
X87858533Y-77215425D01*
X87880636Y-77258805D01*
X87944467Y-77384083D01*
X87993605Y-77444762D01*
X87998748Y-77451114D01*
X87998750Y-77451116D01*
X88063591Y-77531189D01*
X88063593Y-77531191D01*
X88063596Y-77531194D01*
X88173576Y-77620254D01*
X88207881Y-77648034D01*
X88214993Y-77654256D01*
X88215555Y-77654787D01*
X88215555Y-77654788D01*
X88233344Y-77671591D01*
X88268562Y-77731935D01*
X88265565Y-77801740D01*
X88229393Y-77855452D01*
X88214267Y-77868557D01*
X88213867Y-77868881D01*
X88213820Y-77868923D01*
X88210370Y-77871822D01*
X88063596Y-77990680D01*
X87944467Y-78137787D01*
X87858532Y-78306450D01*
X87809540Y-78489293D01*
X87809267Y-78491367D01*
X87809158Y-78494146D01*
X87803353Y-78567902D01*
X87803353Y-79493961D01*
X87809539Y-79572578D01*
X87833001Y-79660137D01*
X87854105Y-79738902D01*
X87854672Y-79741019D01*
X87854817Y-79741559D01*
X87854816Y-79741565D01*
X87858638Y-79763653D01*
X87860521Y-79786931D01*
X87846307Y-79855338D01*
X87839214Y-79868621D01*
X87817513Y-79897893D01*
X87439152Y-80276257D01*
X87351269Y-80364140D01*
X87351267Y-80364142D01*
X87322828Y-80392581D01*
X87308325Y-80407084D01*
X87264142Y-80451265D01*
X87264140Y-80451268D01*
X87242435Y-80483754D01*
X87242433Y-80483757D01*
X87195694Y-80553702D01*
X87195679Y-80553729D01*
X87148540Y-80667534D01*
X87148540Y-80667535D01*
X87148537Y-80667544D01*
X87134445Y-80738395D01*
X87134444Y-80738396D01*
X87124500Y-80788386D01*
X87124500Y-82396097D01*
X87124499Y-82396099D01*
X87124500Y-82396100D01*
X87119476Y-82431034D01*
X87112064Y-82456275D01*
X87080769Y-82509019D01*
X85103834Y-84485953D01*
X85075577Y-84507106D01*
X85066969Y-84511806D01*
X84998695Y-84526656D01*
X84933232Y-84502237D01*
X84891362Y-84446302D01*
X84884807Y-84385328D01*
X84885468Y-84380729D01*
X84892021Y-84355059D01*
X84919091Y-84282483D01*
X84925500Y-84222873D01*
X84925499Y-82777128D01*
X84919091Y-82717517D01*
X84915376Y-82707557D01*
X84868797Y-82582671D01*
X84868793Y-82582664D01*
X84804229Y-82496419D01*
X84782548Y-82467456D01*
X84782542Y-82467450D01*
X84711044Y-82413927D01*
X84667335Y-82381206D01*
X84667332Y-82381204D01*
X84667330Y-82381203D01*
X84667328Y-82381202D01*
X84532482Y-82330908D01*
X84532483Y-82330908D01*
X84472883Y-82324501D01*
X84472881Y-82324500D01*
X84472873Y-82324500D01*
X84472864Y-82324500D01*
X84471841Y-82324500D01*
X83027123Y-82324500D01*
X83025192Y-82324659D01*
X83023545Y-82324885D01*
X82967516Y-82330908D01*
X82832666Y-82381204D01*
X82832665Y-82381205D01*
X82717456Y-82467450D01*
X82717450Y-82467456D01*
X82631205Y-82582665D01*
X82631203Y-82582668D01*
X82580908Y-82717516D01*
X82574500Y-82777125D01*
X82574500Y-84222876D01*
X82574659Y-84224806D01*
X82574885Y-84226454D01*
X82580907Y-84282482D01*
X82607975Y-84355054D01*
X82631202Y-84417328D01*
X82631206Y-84417335D01*
X82717452Y-84532544D01*
X82717453Y-84532544D01*
X82719072Y-84534707D01*
X82726329Y-84539189D01*
X82747932Y-84555361D01*
X82747934Y-84555364D01*
X82747934Y-84555363D01*
X82781885Y-84580779D01*
X82788265Y-84585555D01*
X82813217Y-84610507D01*
X82822587Y-84623023D01*
X82847006Y-84688487D01*
X82847009Y-84688533D01*
X82847171Y-84690809D01*
X82836644Y-84750316D01*
X82833814Y-84756632D01*
X82820972Y-84778814D01*
X82744624Y-84883898D01*
X82660620Y-85048763D01*
X82660618Y-85048767D01*
X82660610Y-85048790D01*
X82603445Y-85224730D01*
X82574500Y-85407480D01*
X82574500Y-85592518D01*
X82603445Y-85775268D01*
X82660610Y-85951208D01*
X82660617Y-85951227D01*
X82660617Y-85951228D01*
X82660618Y-85951231D01*
X82660619Y-85951232D01*
X82660620Y-85951235D01*
X82744622Y-86116096D01*
X82853379Y-86265787D01*
X82853381Y-86265789D01*
X82986669Y-86399077D01*
X82997189Y-86411044D01*
X83007792Y-86424796D01*
X83033137Y-86489906D01*
X83019407Y-86557647D01*
X83019257Y-86558384D01*
X83019255Y-86558385D01*
X83015867Y-86564807D01*
X82986735Y-86601224D01*
X82984212Y-86603378D01*
X82848886Y-86738705D01*
X82844757Y-86746079D01*
X82830953Y-86765080D01*
X82830950Y-86765083D01*
X82744626Y-86883897D01*
X82744618Y-86883910D01*
X82660617Y-87048770D01*
X82660617Y-87048771D01*
X82660610Y-87048790D01*
X82603445Y-87224730D01*
X82586383Y-87332460D01*
X82574500Y-87407486D01*
X82574500Y-87592514D01*
X82574499Y-87592514D01*
X82581098Y-87634173D01*
X82581098Y-87634174D01*
X82603445Y-87775268D01*
X82660610Y-87951208D01*
X82660617Y-87951227D01*
X82660617Y-87951228D01*
X82660618Y-87951231D01*
X82660619Y-87951232D01*
X82660620Y-87951235D01*
X82712755Y-88053554D01*
X82744622Y-88116096D01*
X82853379Y-88265787D01*
X82853381Y-88265789D01*
X82986669Y-88399077D01*
X82997189Y-88411044D01*
X83007792Y-88424796D01*
X83033137Y-88489906D01*
X83019420Y-88557584D01*
X83019257Y-88558384D01*
X83019255Y-88558385D01*
X83015867Y-88564807D01*
X82986742Y-88601217D01*
X82984216Y-88603374D01*
X82848885Y-88738705D01*
X82844754Y-88746084D01*
X82806672Y-88798499D01*
X82744622Y-88883902D01*
X82660617Y-89048770D01*
X82660617Y-89048771D01*
X82660610Y-89048790D01*
X82603445Y-89224730D01*
X82574500Y-89407480D01*
X82574500Y-89592518D01*
X82603445Y-89775265D01*
X82603445Y-89775267D01*
X82660610Y-89951208D01*
X82660617Y-89951227D01*
X82660619Y-89951232D01*
X82660620Y-89951235D01*
X82734617Y-90096460D01*
X82744622Y-90116096D01*
X82853379Y-90265787D01*
X82853381Y-90265789D01*
X82986669Y-90399077D01*
X82997189Y-90411044D01*
X83007792Y-90424796D01*
X83033137Y-90489906D01*
X83019797Y-90555724D01*
X83019257Y-90558384D01*
X83019255Y-90558385D01*
X83015867Y-90564807D01*
X82986735Y-90601224D01*
X82984212Y-90603378D01*
X82848879Y-90738712D01*
X82844736Y-90746109D01*
X82844358Y-90746629D01*
X82744626Y-90883897D01*
X82744618Y-90883910D01*
X82660617Y-91048770D01*
X82660617Y-91048771D01*
X82660610Y-91048790D01*
X82603445Y-91224730D01*
X82574500Y-91407480D01*
X82574500Y-91592518D01*
X82603445Y-91775268D01*
X82660610Y-91951208D01*
X82660617Y-91951227D01*
X82660617Y-91951228D01*
X82660618Y-91951231D01*
X82660619Y-91951232D01*
X82660620Y-91951235D01*
X82727540Y-92082571D01*
X82727540Y-92082573D01*
X82744620Y-92116094D01*
X82752525Y-92126974D01*
X82853379Y-92265787D01*
X82984213Y-92396621D01*
X83133904Y-92505378D01*
X83170856Y-92524206D01*
X83298764Y-92589379D01*
X83298767Y-92589380D01*
X83298769Y-92589380D01*
X83298770Y-92589381D01*
X83298790Y-92589388D01*
X83386749Y-92617967D01*
X83386750Y-92617967D01*
X83474736Y-92646555D01*
X83657486Y-92675500D01*
X83657487Y-92675500D01*
X83842513Y-92675500D01*
X83842514Y-92675500D01*
X84025264Y-92646555D01*
X84201235Y-92589379D01*
X84366096Y-92505378D01*
X84515787Y-92396621D01*
X84646621Y-92265787D01*
X84698829Y-92193929D01*
X87803853Y-92193929D01*
X87809655Y-92267646D01*
X87809764Y-92270427D01*
X87810037Y-92272500D01*
X87810037Y-92272501D01*
X87817302Y-92299613D01*
X87859002Y-92455242D01*
X87944675Y-92623389D01*
X87944881Y-92623797D01*
X87944891Y-92623812D01*
X88063951Y-92770837D01*
X88128222Y-92822883D01*
X88210977Y-92889898D01*
X88210979Y-92889899D01*
X88210988Y-92889905D01*
X88211400Y-92890113D01*
X88379545Y-92975786D01*
X88562289Y-93024752D01*
X88640865Y-93030936D01*
X88640869Y-93030936D01*
X88640870Y-93030937D01*
X88640877Y-93030937D01*
X89553853Y-93030937D01*
X89553853Y-91980937D01*
X87803853Y-91980937D01*
X87803853Y-92193929D01*
X84698829Y-92193929D01*
X84755378Y-92116096D01*
X84839379Y-91951235D01*
X84864004Y-91875448D01*
X84882009Y-91820031D01*
X84896555Y-91775264D01*
X84925500Y-91592514D01*
X84925500Y-91407486D01*
X84911042Y-91316210D01*
X84910540Y-91280940D01*
X84913395Y-91258843D01*
X84934015Y-91204747D01*
X84936537Y-91201059D01*
X84941337Y-91195274D01*
X84941509Y-91194885D01*
X84941847Y-91194660D01*
X84951203Y-91183384D01*
X86648729Y-89485860D01*
X86648733Y-89485858D01*
X86735858Y-89398733D01*
X86787256Y-89321809D01*
X86804312Y-89296285D01*
X86833948Y-89224736D01*
X86851463Y-89182452D01*
X86860340Y-89137821D01*
X86862329Y-89127824D01*
X86862329Y-89127819D01*
X86862500Y-89126961D01*
X86865978Y-89109479D01*
X86865978Y-89109476D01*
X86875500Y-89061607D01*
X86875500Y-88938393D01*
X86875500Y-85828281D01*
X86880522Y-85793348D01*
X86887934Y-85768103D01*
X86919228Y-85715361D01*
X87304775Y-85329815D01*
X87705207Y-84929381D01*
X87733456Y-84908235D01*
X87735608Y-84907059D01*
X87745636Y-84901583D01*
X87763053Y-84897794D01*
X87778701Y-84889250D01*
X87796486Y-84890521D01*
X87813908Y-84886731D01*
X87830610Y-84892960D01*
X87848393Y-84894231D01*
X87879370Y-84911145D01*
X87884965Y-84915333D01*
X87921143Y-84958307D01*
X87937028Y-84989483D01*
X87944471Y-85004090D01*
X87944643Y-85004325D01*
X87946379Y-85006714D01*
X87948556Y-85009132D01*
X87952855Y-85014441D01*
X88063596Y-85151194D01*
X88155072Y-85225270D01*
X88207876Y-85268030D01*
X88214986Y-85274251D01*
X88233342Y-85291589D01*
X88268562Y-85351932D01*
X88265566Y-85421738D01*
X88229393Y-85475452D01*
X88214267Y-85488557D01*
X88213867Y-85488881D01*
X88213820Y-85488923D01*
X88210370Y-85491822D01*
X88063596Y-85610680D01*
X87944467Y-85757787D01*
X87858532Y-85926450D01*
X87809540Y-86109293D01*
X87809267Y-86111367D01*
X87809158Y-86114146D01*
X87803354Y-86187894D01*
X87803353Y-86187917D01*
X87803353Y-87113961D01*
X87809539Y-87192578D01*
X87840600Y-87308499D01*
X87858532Y-87375424D01*
X87874869Y-87407486D01*
X87944465Y-87544081D01*
X87944466Y-87544082D01*
X87944467Y-87544083D01*
X87983686Y-87592514D01*
X88063595Y-87691193D01*
X88063598Y-87691196D01*
X88207875Y-87808029D01*
X88214985Y-87814250D01*
X88233342Y-87831589D01*
X88268562Y-87891933D01*
X88265566Y-87961738D01*
X88229393Y-88015452D01*
X88214267Y-88028557D01*
X88213867Y-88028881D01*
X88213820Y-88028923D01*
X88210370Y-88031822D01*
X88063596Y-88150680D01*
X87944467Y-88297787D01*
X87858532Y-88466450D01*
X87809540Y-88649293D01*
X87809267Y-88651367D01*
X87809158Y-88654146D01*
X87803353Y-88727902D01*
X87803353Y-89653961D01*
X87809539Y-89732578D01*
X87822225Y-89779921D01*
X87855386Y-89903682D01*
X87858533Y-89915425D01*
X87873911Y-89945606D01*
X87944467Y-90084083D01*
X87966363Y-90111122D01*
X87972743Y-90119000D01*
X87972745Y-90119004D01*
X88015084Y-90171287D01*
X88063596Y-90231194D01*
X88209638Y-90349457D01*
X88216731Y-90355662D01*
X88233886Y-90371863D01*
X88269110Y-90432204D01*
X88266120Y-90502009D01*
X88229955Y-90555723D01*
X88226884Y-90558385D01*
X88215990Y-90567826D01*
X88212819Y-90570482D01*
X88063951Y-90691035D01*
X87944891Y-90838060D01*
X87944879Y-90838077D01*
X87944676Y-90838482D01*
X87859002Y-91006631D01*
X87810037Y-91189372D01*
X87809764Y-91191446D01*
X87809655Y-91194226D01*
X87803854Y-91267937D01*
X87803853Y-91267949D01*
X87803853Y-91480937D01*
X89662024Y-91480937D01*
X89696959Y-91485960D01*
X89711957Y-91490364D01*
X89770708Y-91528109D01*
X89770732Y-91528137D01*
X89770735Y-91528139D01*
X89770736Y-91528141D01*
X89771895Y-91529478D01*
X89799371Y-91584339D01*
X89801016Y-91591897D01*
X89803853Y-91618268D01*
X89803853Y-91730937D01*
X89912024Y-91730937D01*
X89946959Y-91735960D01*
X89961957Y-91740364D01*
X90020708Y-91778109D01*
X90020732Y-91778137D01*
X90020735Y-91778139D01*
X90020736Y-91778141D01*
X90021895Y-91779478D01*
X90049371Y-91834339D01*
X90051016Y-91841897D01*
X90053853Y-91868268D01*
X90053853Y-93030937D01*
X90966829Y-93030937D01*
X90966834Y-93030937D01*
X90966935Y-93030932D01*
X90967547Y-93030880D01*
X91019066Y-93026825D01*
X91040563Y-93025134D01*
X91043340Y-93025024D01*
X91045402Y-93024753D01*
X91045416Y-93024752D01*
X91045417Y-93024752D01*
X91156110Y-92995092D01*
X91185325Y-92987265D01*
X91201233Y-92984101D01*
X91217208Y-92981998D01*
X91233392Y-92980937D01*
X91315234Y-92980937D01*
X91315235Y-92980937D01*
X91509558Y-92950158D01*
X91696688Y-92889355D01*
X91871996Y-92800032D01*
X91874380Y-92798299D01*
X91875440Y-92797921D01*
X91876149Y-92797487D01*
X91876240Y-92797635D01*
X91901120Y-92788757D01*
X91906979Y-92774614D01*
X91418099Y-92285735D01*
X91384614Y-92224412D01*
X91389598Y-92154721D01*
X91431469Y-92098787D01*
X91443764Y-92090676D01*
X91477809Y-92071021D01*
X91556937Y-91991893D01*
X91576585Y-91957862D01*
X91627149Y-91909649D01*
X91695756Y-91896425D01*
X91760621Y-91922393D01*
X91771651Y-91932183D01*
X92281235Y-92441768D01*
X92300065Y-92455706D01*
X92308503Y-92464024D01*
X92341493Y-92521236D01*
X92344142Y-92531461D01*
X92344537Y-92532983D01*
X92348500Y-92564081D01*
X92348500Y-93003327D01*
X92383097Y-93177260D01*
X92383105Y-93177293D01*
X92400294Y-93218793D01*
X92409233Y-93240372D01*
X92450984Y-93341170D01*
X92450985Y-93341172D01*
X92510063Y-93429588D01*
X92513487Y-93434712D01*
X92513490Y-93434718D01*
X92537937Y-93471305D01*
X92549537Y-93488666D01*
X92549540Y-93488669D01*
X93885908Y-94825035D01*
X93982328Y-94921455D01*
X94011338Y-94950465D01*
X94158818Y-95049009D01*
X94158831Y-95049016D01*
X94240764Y-95082953D01*
X94322706Y-95116894D01*
X94322708Y-95116894D01*
X94322713Y-95116896D01*
X94489052Y-95149982D01*
X94491775Y-95150704D01*
X94496678Y-95151500D01*
X109753321Y-95151500D01*
X109757443Y-95151500D01*
X109765298Y-95149116D01*
X109927294Y-95116895D01*
X110009234Y-95082953D01*
X110091175Y-95049013D01*
X110179587Y-94989936D01*
X110238664Y-94950464D01*
X111864706Y-93324418D01*
X111892957Y-93303272D01*
X111916047Y-93290665D01*
X111975470Y-93275499D01*
X113022871Y-93275499D01*
X113022872Y-93275499D01*
X113082483Y-93269091D01*
X113217331Y-93218796D01*
X113332546Y-93132546D01*
X113418796Y-93017331D01*
X113469091Y-92882483D01*
X113475500Y-92822873D01*
X113475500Y-92654829D01*
X113476117Y-92650541D01*
X113480523Y-92619893D01*
X113484927Y-92604895D01*
X113522672Y-92546144D01*
X113522700Y-92546119D01*
X113522699Y-92546119D01*
X113524041Y-92544956D01*
X113578920Y-92517477D01*
X113586479Y-92515833D01*
X113612832Y-92513000D01*
X114027872Y-92513000D01*
X114061698Y-92517703D01*
X114093624Y-92526757D01*
X114124884Y-92540512D01*
X114196641Y-92584771D01*
X114198526Y-92585981D01*
X114200995Y-92586740D01*
X114362247Y-92640174D01*
X114463323Y-92650500D01*
X115036676Y-92650499D01*
X115036684Y-92650498D01*
X115036687Y-92650498D01*
X115036695Y-92650497D01*
X115036985Y-92650479D01*
X115038001Y-92650363D01*
X115082342Y-92645833D01*
X115092031Y-92644844D01*
X115092031Y-92644843D01*
X115137753Y-92640174D01*
X115301516Y-92585908D01*
X115362518Y-92548282D01*
X115375123Y-92540507D01*
X115375130Y-92540505D01*
X115406375Y-92526757D01*
X115438300Y-92517703D01*
X115472128Y-92513000D01*
X115777872Y-92513000D01*
X115811698Y-92517703D01*
X115843624Y-92526757D01*
X115874884Y-92540512D01*
X115948477Y-92585904D01*
X115948478Y-92585904D01*
X115948482Y-92585907D01*
X115948679Y-92586028D01*
X115950995Y-92586740D01*
X116112247Y-92640174D01*
X116213323Y-92650500D01*
X116786676Y-92650499D01*
X116786684Y-92650498D01*
X116786687Y-92650498D01*
X116786695Y-92650497D01*
X116786985Y-92650479D01*
X116788001Y-92650363D01*
X116832342Y-92645833D01*
X116842031Y-92644844D01*
X116842031Y-92644843D01*
X116887753Y-92640174D01*
X117051516Y-92585908D01*
X117198350Y-92495340D01*
X117320340Y-92373350D01*
X117410908Y-92226516D01*
X117465174Y-92062753D01*
X117475500Y-91961677D01*
X117475499Y-91263324D01*
X117474345Y-91252031D01*
X117465174Y-91162247D01*
X117463149Y-91156137D01*
X117410908Y-90998484D01*
X117320340Y-90851650D01*
X117318624Y-90849934D01*
X117313971Y-90843719D01*
X117297472Y-90821678D01*
X117289980Y-90807957D01*
X117275129Y-90739688D01*
X117275258Y-90737884D01*
X117294627Y-90679689D01*
X117298812Y-90673177D01*
X117315452Y-90652529D01*
X117319947Y-90648035D01*
X117410448Y-90501311D01*
X117410453Y-90501300D01*
X117410453Y-90501297D01*
X117410455Y-90501295D01*
X117437344Y-90420147D01*
X117464680Y-90337652D01*
X117474999Y-90236654D01*
X117475000Y-90236641D01*
X117475000Y-90137500D01*
X113775001Y-90137500D01*
X113775001Y-90236663D01*
X113785319Y-90337653D01*
X113839544Y-90501296D01*
X113839550Y-90501310D01*
X113843505Y-90507721D01*
X113852767Y-90525945D01*
X113856016Y-90533902D01*
X113856417Y-90537823D01*
X113857571Y-90540093D01*
X113858622Y-90543934D01*
X113857745Y-90544173D01*
X113862959Y-90560085D01*
X113863270Y-90560021D01*
X113863428Y-90560783D01*
X113863380Y-90561368D01*
X113863953Y-90563116D01*
X113864589Y-90567536D01*
X113862858Y-90567784D01*
X113861768Y-90581194D01*
X113863704Y-90587779D01*
X113862095Y-90593264D01*
X113863134Y-90603408D01*
X113859355Y-90610862D01*
X113857765Y-90630423D01*
X113847100Y-90644395D01*
X113844042Y-90654825D01*
X113831606Y-90665607D01*
X113831545Y-90665729D01*
X113831302Y-90665871D01*
X113829549Y-90667391D01*
X113819691Y-90680308D01*
X113820807Y-90681646D01*
X113819126Y-90683048D01*
X113816813Y-90684078D01*
X113815437Y-90685882D01*
X113814811Y-90686342D01*
X113814051Y-90685308D01*
X113803425Y-90690043D01*
X113791253Y-90700598D01*
X113757392Y-90710553D01*
X113756150Y-90710732D01*
X113738462Y-90712000D01*
X113525119Y-90712000D01*
X113490180Y-90706976D01*
X113476862Y-90703065D01*
X113418085Y-90665289D01*
X113389064Y-90601742D01*
X113388069Y-90594821D01*
X113392874Y-90538859D01*
X113446066Y-90375147D01*
X113475000Y-90192473D01*
X113475000Y-90007526D01*
X113446066Y-89824852D01*
X113444534Y-89820136D01*
X113388921Y-89648971D01*
X113388915Y-89648957D01*
X113388880Y-89648888D01*
X113359635Y-89591490D01*
X113355208Y-89582803D01*
X113355207Y-89582801D01*
X113355207Y-89582800D01*
X113355205Y-89582798D01*
X113332552Y-89538339D01*
X113775000Y-89538339D01*
X113775000Y-89538342D01*
X113775000Y-89538345D01*
X113775000Y-89637500D01*
X114500000Y-89637500D01*
X114500000Y-88850000D01*
X114463363Y-88850000D01*
X114463361Y-88850000D01*
X114463343Y-88850001D01*
X114463332Y-88850002D01*
X114463319Y-88850003D01*
X114362345Y-88860319D01*
X114198701Y-88914545D01*
X114198689Y-88914550D01*
X114198686Y-88914552D01*
X114051980Y-89005041D01*
X114051958Y-89005057D01*
X114051955Y-89005059D01*
X113930059Y-89126955D01*
X113930057Y-89126958D01*
X113930041Y-89126980D01*
X113839552Y-89273686D01*
X113839550Y-89273689D01*
X113839543Y-89273703D01*
X113785318Y-89437348D01*
X113775000Y-89538339D01*
X113332552Y-89538339D01*
X113304949Y-89484165D01*
X113289983Y-89463568D01*
X113289982Y-89463568D01*
X112836497Y-89917053D01*
X112775174Y-89950538D01*
X112705482Y-89945554D01*
X112649549Y-89903682D01*
X112641432Y-89891377D01*
X112620080Y-89854394D01*
X112545606Y-89779920D01*
X112508625Y-89758569D01*
X112460410Y-89708003D01*
X112447186Y-89639396D01*
X112473154Y-89574531D01*
X112482937Y-89563507D01*
X112936430Y-89110015D01*
X112936429Y-89110014D01*
X112915843Y-89095056D01*
X112915839Y-89095054D01*
X112915834Y-89095050D01*
X112751043Y-89011084D01*
X112751040Y-89011083D01*
X112751039Y-89011082D01*
X112751036Y-89011081D01*
X112575148Y-88953933D01*
X112477032Y-88938393D01*
X112392473Y-88925000D01*
X112392472Y-88925000D01*
X112207528Y-88925000D01*
X112207527Y-88925000D01*
X112170992Y-88930786D01*
X112024848Y-88953933D01*
X111848971Y-89011077D01*
X111848957Y-89011083D01*
X111848884Y-89011120D01*
X111845672Y-89012757D01*
X111845670Y-89012757D01*
X111845669Y-89012759D01*
X111812260Y-89024141D01*
X111798623Y-89026701D01*
X111729103Y-89019723D01*
X111674395Y-88976273D01*
X111672472Y-88973545D01*
X111651485Y-88922347D01*
X111651162Y-88920397D01*
X111649500Y-88900156D01*
X111649500Y-87417328D01*
X111651613Y-87402635D01*
X111654523Y-87382392D01*
X111656570Y-87375423D01*
X111658927Y-87367393D01*
X111696672Y-87308643D01*
X111696700Y-87308618D01*
X111696699Y-87308618D01*
X111698041Y-87307455D01*
X111752920Y-87279976D01*
X111760479Y-87278332D01*
X111786832Y-87275499D01*
X113022871Y-87275499D01*
X113022872Y-87275499D01*
X113082483Y-87269091D01*
X113217331Y-87218796D01*
X113332546Y-87132546D01*
X113418796Y-87017331D01*
X113421070Y-87011235D01*
X113444704Y-86947868D01*
X113461613Y-86916899D01*
X113470987Y-86904378D01*
X113526915Y-86862510D01*
X113531896Y-86860653D01*
X113538166Y-86858315D01*
X113581491Y-86850500D01*
X114086420Y-86850500D01*
X114183962Y-86831096D01*
X114231413Y-86821658D01*
X114367995Y-86765084D01*
X114446627Y-86712544D01*
X114490916Y-86682952D01*
X114724449Y-86449416D01*
X114752696Y-86428272D01*
X114775786Y-86415664D01*
X114835210Y-86400499D01*
X115036670Y-86400499D01*
X115036676Y-86400499D01*
X115137753Y-86390174D01*
X115301516Y-86335908D01*
X115448350Y-86245340D01*
X115524717Y-86168972D01*
X115552964Y-86147827D01*
X115566688Y-86140333D01*
X115634946Y-86125482D01*
X115636756Y-86125611D01*
X115694953Y-86144977D01*
X115701471Y-86149166D01*
X115722106Y-86165796D01*
X115801650Y-86245340D01*
X115948484Y-86335908D01*
X116112247Y-86390174D01*
X116117003Y-86390659D01*
X116117013Y-86390662D01*
X116117018Y-86390661D01*
X116117020Y-86390661D01*
X116151259Y-86399209D01*
X116156001Y-86401144D01*
X116164112Y-86404454D01*
X116218745Y-86448010D01*
X116241156Y-86514176D01*
X116241770Y-86529132D01*
X116241492Y-86543947D01*
X116241168Y-86548054D01*
X116241168Y-86548056D01*
X116238282Y-86584728D01*
X116238283Y-86584729D01*
X116743850Y-87090296D01*
X116777335Y-87151619D01*
X116772351Y-87221311D01*
X116730479Y-87277244D01*
X116718173Y-87285362D01*
X116692996Y-87299898D01*
X116692990Y-87299903D01*
X116599903Y-87392990D01*
X116599898Y-87392996D01*
X116585362Y-87418173D01*
X116534793Y-87466387D01*
X116466185Y-87479607D01*
X116401322Y-87453637D01*
X116390296Y-87443850D01*
X115884728Y-86938282D01*
X115884727Y-86938282D01*
X115845380Y-86992438D01*
X115748903Y-87181784D01*
X115683242Y-87383865D01*
X115681798Y-87392990D01*
X115650000Y-87593753D01*
X115650000Y-87806246D01*
X115674567Y-87961356D01*
X115681715Y-88006485D01*
X115681716Y-88006493D01*
X115683242Y-88016133D01*
X115748903Y-88218214D01*
X115748904Y-88218217D01*
X115832004Y-88381308D01*
X115845374Y-88407548D01*
X115845375Y-88407550D01*
X115878977Y-88453801D01*
X115884728Y-88461716D01*
X116390297Y-87956147D01*
X116451619Y-87922663D01*
X116521311Y-87927647D01*
X116577244Y-87969519D01*
X116585363Y-87981828D01*
X116599896Y-88007000D01*
X116599899Y-88007004D01*
X116599901Y-88007007D01*
X116692993Y-88100099D01*
X116718169Y-88114634D01*
X116766384Y-88165202D01*
X116779606Y-88233809D01*
X116753638Y-88298673D01*
X116743849Y-88309702D01*
X116248917Y-88804633D01*
X116243823Y-88809447D01*
X116210851Y-88838887D01*
X116199806Y-88844130D01*
X116187681Y-88855230D01*
X116178099Y-88860461D01*
X116151267Y-88867176D01*
X116147734Y-88868854D01*
X116145640Y-88868584D01*
X116117538Y-88875618D01*
X116108759Y-88875537D01*
X116081305Y-88872199D01*
X116078499Y-88871533D01*
X116078498Y-88871533D01*
X115948701Y-88914545D01*
X115948689Y-88914550D01*
X115948686Y-88914552D01*
X115801980Y-89005041D01*
X115801958Y-89005057D01*
X115801955Y-89005059D01*
X115725285Y-89081730D01*
X115725282Y-89081731D01*
X115725282Y-89081733D01*
X115697027Y-89102883D01*
X115683309Y-89110373D01*
X115615051Y-89125224D01*
X115615036Y-89125222D01*
X115615036Y-89125223D01*
X115615035Y-89125222D01*
X115613245Y-89125095D01*
X115555044Y-89105727D01*
X115548529Y-89101540D01*
X115527897Y-89084914D01*
X115448038Y-89005055D01*
X115448034Y-89005052D01*
X115448031Y-89005050D01*
X115448018Y-89005041D01*
X115318251Y-88925000D01*
X115301311Y-88914551D01*
X115301309Y-88914550D01*
X115301295Y-88914543D01*
X115137650Y-88860318D01*
X115036659Y-88850000D01*
X115036654Y-88850000D01*
X115000000Y-88850000D01*
X115000000Y-89637500D01*
X117474999Y-89637500D01*
X117474999Y-89538360D01*
X117474998Y-89538345D01*
X117464680Y-89437347D01*
X117410453Y-89273699D01*
X117410450Y-89273692D01*
X117354863Y-89183573D01*
X117340799Y-89151206D01*
X117337136Y-89137819D01*
X117338427Y-89067963D01*
X117377278Y-89009895D01*
X117384426Y-89003929D01*
X117425557Y-88981201D01*
X117518215Y-88951096D01*
X117707554Y-88854622D01*
X117709976Y-88852862D01*
X117729121Y-88838953D01*
X117755858Y-88829412D01*
X117761717Y-88815269D01*
X117256149Y-88309702D01*
X117222664Y-88248379D01*
X117227648Y-88178688D01*
X117269519Y-88122754D01*
X117281822Y-88114639D01*
X117307007Y-88100099D01*
X117400099Y-88007007D01*
X117414634Y-87981830D01*
X117465199Y-87933616D01*
X117533805Y-87920391D01*
X117598671Y-87946358D01*
X117609702Y-87956149D01*
X118115269Y-88461717D01*
X118115269Y-88461716D01*
X118115270Y-88461717D01*
X118115270Y-88461716D01*
X118126251Y-88457168D01*
X118127776Y-88453801D01*
X118130910Y-88441722D01*
X118134547Y-88435182D01*
X118154622Y-88407554D01*
X118205824Y-88307065D01*
X118206911Y-88305112D01*
X118209155Y-88302902D01*
X118225111Y-88280264D01*
X118232457Y-88272487D01*
X118251129Y-88261585D01*
X118256705Y-88256098D01*
X118262666Y-88254850D01*
X118292792Y-88237262D01*
X118362598Y-88240249D01*
X118419708Y-88280501D01*
X118444308Y-88333844D01*
X118445065Y-88337718D01*
X118447367Y-88361498D01*
X118447367Y-92752214D01*
X118447366Y-92752220D01*
X118447367Y-92752223D01*
X118442342Y-92787158D01*
X118437937Y-92802156D01*
X118400168Y-92860922D01*
X118394615Y-92865734D01*
X118337601Y-92893641D01*
X118108273Y-92939259D01*
X118105031Y-92939578D01*
X118090404Y-92943031D01*
X118086235Y-92944692D01*
X118068221Y-92950157D01*
X118068218Y-92950158D01*
X117767154Y-93041484D01*
X117450079Y-93172821D01*
X117449509Y-93173053D01*
X117449391Y-93173108D01*
X117146100Y-93335221D01*
X117146081Y-93335232D01*
X117146075Y-93335235D01*
X116997189Y-93434718D01*
X116860115Y-93526308D01*
X116860101Y-93526318D01*
X116860093Y-93526323D01*
X116860087Y-93526329D01*
X116594228Y-93744514D01*
X116351048Y-93987694D01*
X116132863Y-94253553D01*
X116132852Y-94253567D01*
X116132848Y-94253573D01*
X116132845Y-94253577D01*
X115941769Y-94539541D01*
X115941766Y-94539547D01*
X115941755Y-94539566D01*
X115779642Y-94842857D01*
X115779589Y-94842971D01*
X115779355Y-94843546D01*
X115648018Y-95160620D01*
X115548172Y-95489769D01*
X115548169Y-95489780D01*
X115501674Y-95723535D01*
X115501674Y-95723536D01*
X115489932Y-95756820D01*
X115482685Y-95770674D01*
X115434180Y-95820946D01*
X115434170Y-95820951D01*
X115434169Y-95820953D01*
X115434166Y-95820953D01*
X115427798Y-95824581D01*
X115366428Y-95840833D01*
X82536985Y-95840833D01*
X82502044Y-95835808D01*
X82487045Y-95831403D01*
X82472048Y-95821765D01*
X82454950Y-95816745D01*
X82428276Y-95793634D01*
X82423464Y-95788081D01*
X82395557Y-95731066D01*
X82348151Y-95492739D01*
X82347111Y-95486746D01*
X82346368Y-95483779D01*
X82346360Y-95483739D01*
X82344015Y-95478079D01*
X82247717Y-95160628D01*
X82148649Y-94921456D01*
X82116101Y-94842878D01*
X82116100Y-94842877D01*
X82116098Y-94842871D01*
X82106564Y-94825035D01*
X81954755Y-94541020D01*
X81954341Y-94540220D01*
X81953968Y-94539547D01*
X81762891Y-94253581D01*
X81762886Y-94253573D01*
X81545183Y-93988301D01*
X81544685Y-93987695D01*
X81301504Y-93744514D01*
X81249072Y-93701484D01*
X81036938Y-93527389D01*
X81035950Y-93526556D01*
X81035633Y-93526318D01*
X81035628Y-93526315D01*
X81035622Y-93526311D01*
X80890866Y-93429588D01*
X80749668Y-93335242D01*
X80749660Y-93335237D01*
X80749654Y-93335233D01*
X80749649Y-93335230D01*
X80749642Y-93335226D01*
X80749633Y-93335221D01*
X80749626Y-93335217D01*
X80531819Y-93218797D01*
X80446336Y-93173105D01*
X80446331Y-93173103D01*
X80446326Y-93173101D01*
X80446231Y-93173056D01*
X80445652Y-93172821D01*
X80128574Y-93041483D01*
X79928979Y-92980937D01*
X79928978Y-92980936D01*
X79799445Y-92941643D01*
X79799434Y-92941640D01*
X79565662Y-92895139D01*
X79532378Y-92883397D01*
X79518524Y-92876150D01*
X79468246Y-92827635D01*
X79464611Y-92821251D01*
X79448367Y-92759895D01*
X79448367Y-73927125D01*
X84474500Y-73927125D01*
X84474500Y-75372870D01*
X84474659Y-75374806D01*
X84474885Y-75376454D01*
X84480907Y-75432482D01*
X84483112Y-75438393D01*
X84531202Y-75567328D01*
X84531206Y-75567335D01*
X84617452Y-75682544D01*
X84617453Y-75682545D01*
X84617454Y-75682546D01*
X84686161Y-75733980D01*
X84686750Y-75734432D01*
X84687543Y-75735519D01*
X84690290Y-75738266D01*
X84690433Y-75738090D01*
X84693008Y-75740166D01*
X84700217Y-75748193D01*
X84710488Y-75758464D01*
X84711870Y-75760310D01*
X84711409Y-75760654D01*
X84719493Y-75769656D01*
X84724487Y-75777426D01*
X84723924Y-75777787D01*
X84745147Y-75841569D01*
X84740203Y-75880919D01*
X84735690Y-75896289D01*
X84717031Y-75934239D01*
X84644624Y-76033898D01*
X84560620Y-76198763D01*
X84560618Y-76198767D01*
X84560610Y-76198790D01*
X84503445Y-76374730D01*
X84474500Y-76557480D01*
X84474500Y-76742519D01*
X84488972Y-76833889D01*
X84503445Y-76925268D01*
X84560610Y-77101208D01*
X84560617Y-77101227D01*
X84560617Y-77101228D01*
X84560618Y-77101231D01*
X84560619Y-77101232D01*
X84560620Y-77101235D01*
X84644622Y-77266096D01*
X84753379Y-77415787D01*
X84868781Y-77531189D01*
X84884213Y-77546621D01*
X84884702Y-77547022D01*
X84886200Y-77548064D01*
X84944412Y-77590358D01*
X84969716Y-77614950D01*
X84973806Y-77620254D01*
X85387720Y-78034167D01*
X85467055Y-78113501D01*
X85500540Y-78174824D01*
X85495556Y-78244515D01*
X85453685Y-78300449D01*
X85441374Y-78308569D01*
X85404397Y-78329917D01*
X85404392Y-78329921D01*
X85329921Y-78404392D01*
X85329915Y-78404400D01*
X85308568Y-78441374D01*
X85258001Y-78489589D01*
X85189393Y-78502811D01*
X85124529Y-78476843D01*
X85113501Y-78467054D01*
X84660015Y-78013567D01*
X84660014Y-78013568D01*
X84645051Y-78034162D01*
X84561081Y-78198962D01*
X84503933Y-78374850D01*
X84475000Y-78557526D01*
X84475000Y-78742472D01*
X84503933Y-78925148D01*
X84561081Y-79101036D01*
X84561082Y-79101039D01*
X84561083Y-79101040D01*
X84561084Y-79101043D01*
X84645050Y-79265834D01*
X84645054Y-79265839D01*
X84645056Y-79265843D01*
X84660014Y-79286429D01*
X84660015Y-79286430D01*
X85113501Y-78832944D01*
X85174824Y-78799459D01*
X85244515Y-78804443D01*
X85300449Y-78846314D01*
X85308567Y-78858622D01*
X85329920Y-78895606D01*
X85404394Y-78970080D01*
X85404395Y-78970081D01*
X85404397Y-78970082D01*
X85441373Y-78991430D01*
X85489588Y-79041996D01*
X85502812Y-79110603D01*
X85476844Y-79175468D01*
X85467054Y-79186498D01*
X85013568Y-79639982D01*
X85013567Y-79639983D01*
X85013568Y-79639983D01*
X85013568Y-79639984D01*
X85034165Y-79654949D01*
X85198956Y-79738915D01*
X85198959Y-79738916D01*
X85374852Y-79796066D01*
X85557527Y-79825000D01*
X85742472Y-79825000D01*
X85742473Y-79825000D01*
X85925147Y-79796066D01*
X86101040Y-79738916D01*
X86101043Y-79738915D01*
X86265836Y-79654947D01*
X86265845Y-79654942D01*
X86286430Y-79639984D01*
X86286431Y-79639983D01*
X85832945Y-79186497D01*
X85799460Y-79125174D01*
X85804444Y-79055482D01*
X85846316Y-78999549D01*
X85858609Y-78991439D01*
X85895606Y-78970080D01*
X85970080Y-78895606D01*
X85991430Y-78858625D01*
X86041993Y-78810412D01*
X86110599Y-78797187D01*
X86175465Y-78823153D01*
X86186496Y-78832944D01*
X86639983Y-79286431D01*
X86639984Y-79286431D01*
X86654936Y-79265853D01*
X86654943Y-79265843D01*
X86654948Y-79265834D01*
X86685252Y-79206360D01*
X86738915Y-79101043D01*
X86738916Y-79101040D01*
X86796066Y-78925147D01*
X86825000Y-78742473D01*
X86825000Y-78557526D01*
X86796066Y-78374852D01*
X86738916Y-78198959D01*
X86738915Y-78198956D01*
X86654949Y-78034165D01*
X86639983Y-78013568D01*
X86639982Y-78013568D01*
X86186497Y-78467053D01*
X86125174Y-78500538D01*
X86055482Y-78495554D01*
X85999549Y-78453682D01*
X85991430Y-78441374D01*
X85970080Y-78404394D01*
X85895606Y-78329920D01*
X85895605Y-78329919D01*
X85895602Y-78329917D01*
X85858626Y-78308569D01*
X85810410Y-78258002D01*
X85797188Y-78189395D01*
X85823156Y-78124530D01*
X85832938Y-78113507D01*
X86310675Y-77635771D01*
X86331957Y-77611385D01*
X86352492Y-77592606D01*
X86415787Y-77546621D01*
X86546621Y-77415787D01*
X86655378Y-77266096D01*
X86739379Y-77101235D01*
X86796555Y-76925264D01*
X86825500Y-76742514D01*
X86825500Y-76557486D01*
X86796555Y-76374736D01*
X86739379Y-76198765D01*
X86739379Y-76198764D01*
X86710289Y-76141674D01*
X86655378Y-76033904D01*
X86628159Y-75996440D01*
X86584658Y-75936565D01*
X86584657Y-75936562D01*
X86568187Y-75905347D01*
X86564644Y-75895416D01*
X86565906Y-75894965D01*
X86562223Y-75873686D01*
X86561179Y-75870759D01*
X86561487Y-75869432D01*
X86559296Y-75856776D01*
X86557616Y-75852717D01*
X86558115Y-75849949D01*
X86555287Y-75833606D01*
X86559501Y-75812806D01*
X86561932Y-75804528D01*
X86568347Y-75793265D01*
X86570028Y-75783958D01*
X86590160Y-75754969D01*
X86592637Y-75752309D01*
X86609071Y-75737548D01*
X86682546Y-75682546D01*
X86768796Y-75567331D01*
X86819091Y-75432483D01*
X86825500Y-75372873D01*
X86825499Y-73927128D01*
X86819091Y-73867517D01*
X86793944Y-73800095D01*
X86793592Y-73799152D01*
X86768798Y-73732673D01*
X86768797Y-73732671D01*
X86768795Y-73732668D01*
X86768793Y-73732664D01*
X86682547Y-73617455D01*
X86682544Y-73617452D01*
X86682542Y-73617450D01*
X86598068Y-73554213D01*
X86567335Y-73531206D01*
X86567332Y-73531204D01*
X86567330Y-73531203D01*
X86567328Y-73531202D01*
X86485368Y-73500633D01*
X86457936Y-73486275D01*
X86456143Y-73485029D01*
X86450940Y-73481134D01*
X86449770Y-73480599D01*
X86444539Y-73476964D01*
X86425315Y-73453085D01*
X86409877Y-73436506D01*
X86408568Y-73437347D01*
X86407665Y-73435941D01*
X86406889Y-73433297D01*
X86404426Y-73430652D01*
X86404421Y-73430642D01*
X86402017Y-73425839D01*
X86402988Y-73425352D01*
X86400724Y-73422540D01*
X86398996Y-73406404D01*
X86388000Y-73368932D01*
X86388000Y-73156280D01*
X86393023Y-73121345D01*
X86397260Y-73106915D01*
X86398596Y-73102364D01*
X86430700Y-73048818D01*
X86436972Y-73042660D01*
X86458738Y-73025612D01*
X86548350Y-72970340D01*
X86550071Y-72968618D01*
X86578311Y-72947477D01*
X86592037Y-72939981D01*
X86660294Y-72925128D01*
X86662101Y-72925257D01*
X86720310Y-72944627D01*
X86726822Y-72948812D01*
X86747459Y-72965443D01*
X86751955Y-72969939D01*
X86751958Y-72969941D01*
X86751961Y-72969944D01*
X86751965Y-72969947D01*
X86751973Y-72969952D01*
X86751980Y-72969957D01*
X86809499Y-73005435D01*
X86898688Y-73060448D01*
X86898699Y-73060453D01*
X87062347Y-73114680D01*
X87163351Y-73124999D01*
X87762500Y-73124999D01*
X87861628Y-73124999D01*
X87861640Y-73124999D01*
X87861654Y-73124998D01*
X87962652Y-73114680D01*
X88126300Y-73060453D01*
X88126311Y-73060448D01*
X88273034Y-72969947D01*
X88273038Y-72969944D01*
X88394944Y-72848038D01*
X88394947Y-72848034D01*
X88395449Y-72847221D01*
X88405358Y-72831155D01*
X88485448Y-72701311D01*
X88485453Y-72701300D01*
X88539680Y-72537652D01*
X88549999Y-72436654D01*
X88550000Y-72436641D01*
X88550000Y-72400000D01*
X87762500Y-72400000D01*
X87762500Y-73124999D01*
X87163351Y-73124999D01*
X87262500Y-73124998D01*
X87262500Y-71900000D01*
X87762500Y-71900000D01*
X88549999Y-71900000D01*
X88549999Y-71863360D01*
X88549998Y-71863345D01*
X88539680Y-71762347D01*
X88485453Y-71598699D01*
X88485448Y-71598688D01*
X88438209Y-71522103D01*
X88394957Y-71451980D01*
X88394943Y-71451960D01*
X88382793Y-71439810D01*
X88368263Y-71425280D01*
X88347117Y-71397029D01*
X88339626Y-71383309D01*
X88324775Y-71315051D01*
X88324904Y-71313242D01*
X88344270Y-71255047D01*
X88348463Y-71248523D01*
X88365082Y-71227900D01*
X88394944Y-71198038D01*
X88394947Y-71198034D01*
X88485448Y-71051311D01*
X88485453Y-71051300D01*
X88489804Y-71038171D01*
X88515010Y-70962101D01*
X88539680Y-70887652D01*
X88549999Y-70786654D01*
X88550000Y-70786641D01*
X88550000Y-70750000D01*
X87762500Y-70750000D01*
X87762500Y-71900000D01*
X87262500Y-71900000D01*
X87262500Y-70250000D01*
X87762500Y-70250000D01*
X88549999Y-70250000D01*
X88549999Y-70213360D01*
X88549998Y-70213342D01*
X88546410Y-70178216D01*
X88545410Y-70168427D01*
X89275000Y-70168427D01*
X89275000Y-70175000D01*
X90000000Y-70175000D01*
X90000000Y-69525000D01*
X89999999Y-69524999D01*
X89918417Y-69524999D01*
X89847904Y-69531406D01*
X89847880Y-69531412D01*
X89685607Y-69581979D01*
X89685601Y-69581981D01*
X89540127Y-69669922D01*
X89540126Y-69669923D01*
X89419925Y-69790123D01*
X89331980Y-69935603D01*
X89318858Y-69977713D01*
X89291607Y-70065168D01*
X89281407Y-70097900D01*
X89275389Y-70164141D01*
X89275000Y-70168427D01*
X88545410Y-70168427D01*
X88539680Y-70112347D01*
X88514242Y-70035578D01*
X88485455Y-69948703D01*
X88485448Y-69948689D01*
X88485448Y-69948688D01*
X88434080Y-69865408D01*
X88394957Y-69801980D01*
X88394952Y-69801973D01*
X88394947Y-69801965D01*
X88394944Y-69801961D01*
X88394941Y-69801958D01*
X88394939Y-69801955D01*
X88273043Y-69680059D01*
X88273040Y-69680057D01*
X88273038Y-69680055D01*
X88273034Y-69680052D01*
X88273028Y-69680048D01*
X88273018Y-69680041D01*
X88130560Y-69592172D01*
X88126311Y-69589551D01*
X88126309Y-69589550D01*
X88126295Y-69589543D01*
X87962650Y-69535318D01*
X87861659Y-69525000D01*
X87861654Y-69525000D01*
X87762500Y-69525000D01*
X87762500Y-70250000D01*
X87262500Y-70250000D01*
X87262500Y-69524999D01*
X87262500Y-69524998D01*
X87163368Y-69524999D01*
X87163348Y-69525000D01*
X87163344Y-69525001D01*
X87163335Y-69525001D01*
X87163334Y-69525002D01*
X87062345Y-69535319D01*
X86898701Y-69589545D01*
X86898689Y-69589550D01*
X86898686Y-69589552D01*
X86751968Y-69680049D01*
X86751960Y-69680055D01*
X86750639Y-69681376D01*
X86750638Y-69681379D01*
X86722383Y-69702528D01*
X86708663Y-69710019D01*
X86640410Y-69724870D01*
X86640390Y-69724868D01*
X86640389Y-69724869D01*
X86640387Y-69724868D01*
X86638603Y-69724741D01*
X86580391Y-69705370D01*
X86573884Y-69701188D01*
X86553245Y-69684555D01*
X86548350Y-69679660D01*
X86548346Y-69679657D01*
X86428866Y-69605961D01*
X86428863Y-69605960D01*
X86401520Y-69589094D01*
X86401521Y-69589094D01*
X86401518Y-69589093D01*
X86401513Y-69589091D01*
X86400069Y-69588612D01*
X86400053Y-69588606D01*
X86246221Y-69537632D01*
X86243401Y-69536466D01*
X86237748Y-69534824D01*
X86136687Y-69524500D01*
X86136678Y-69524500D01*
X85438330Y-69524500D01*
X85438312Y-69524501D01*
X85438290Y-69524503D01*
X85438280Y-69524504D01*
X85337250Y-69534824D01*
X85173477Y-69589094D01*
X85026651Y-69679658D01*
X85026647Y-69679661D01*
X84904662Y-69801646D01*
X84904470Y-69801958D01*
X84822037Y-69935603D01*
X84814091Y-69948485D01*
X84814084Y-69948503D01*
X84804408Y-69977707D01*
X84804407Y-69977709D01*
X84770123Y-70081167D01*
X84761677Y-70094110D01*
X84760190Y-70108673D01*
X84759367Y-70114919D01*
X84759184Y-70118521D01*
X84749500Y-70213305D01*
X84749500Y-70213315D01*
X84749500Y-70786669D01*
X84749501Y-70786687D01*
X84749503Y-70786711D01*
X84749504Y-70786718D01*
X84759824Y-70887748D01*
X84759824Y-70887749D01*
X84759825Y-70887752D01*
X84787160Y-70970241D01*
X84814024Y-71051312D01*
X84814092Y-71051515D01*
X84814093Y-71051518D01*
X84840608Y-71094506D01*
X84901081Y-71192548D01*
X84904661Y-71198351D01*
X84904662Y-71198352D01*
X84931022Y-71224712D01*
X84952173Y-71252967D01*
X84959665Y-71266688D01*
X84974517Y-71334948D01*
X84974388Y-71336754D01*
X84955020Y-71394957D01*
X84950839Y-71401463D01*
X84934203Y-71422106D01*
X84904662Y-71451646D01*
X84904468Y-71451961D01*
X84815102Y-71596846D01*
X84814091Y-71598485D01*
X84814084Y-71598503D01*
X84800697Y-71638906D01*
X84800696Y-71638909D01*
X84770123Y-71731168D01*
X84761677Y-71744111D01*
X84760190Y-71758673D01*
X84759367Y-71764919D01*
X84759184Y-71768521D01*
X84749500Y-71863305D01*
X84749500Y-71863315D01*
X84749500Y-72436669D01*
X84749501Y-72436687D01*
X84749503Y-72436711D01*
X84749504Y-72436718D01*
X84759824Y-72537748D01*
X84759824Y-72537750D01*
X84759825Y-72537752D01*
X84781213Y-72602295D01*
X84814092Y-72701516D01*
X84904660Y-72848350D01*
X85026650Y-72970340D01*
X85112923Y-73023553D01*
X85130991Y-73037117D01*
X85138606Y-73044003D01*
X85139860Y-73046048D01*
X85140014Y-73046164D01*
X85143442Y-73049975D01*
X85142685Y-73050655D01*
X85142878Y-73050970D01*
X85153952Y-73062751D01*
X85154175Y-73062581D01*
X85154511Y-73062279D01*
X85154535Y-73062306D01*
X85154857Y-73062061D01*
X85157886Y-73066030D01*
X85157891Y-73066038D01*
X85157896Y-73066044D01*
X85160929Y-73070018D01*
X85159090Y-73071420D01*
X85163128Y-73079835D01*
X85175545Y-73094157D01*
X85184319Y-73124006D01*
X85185149Y-73125735D01*
X85185499Y-73128018D01*
X85185732Y-73129635D01*
X85187000Y-73147320D01*
X85187000Y-73332670D01*
X85181975Y-73367612D01*
X85180853Y-73371431D01*
X85177570Y-73382612D01*
X85139827Y-73441355D01*
X85138458Y-73442542D01*
X85083597Y-73470018D01*
X85076039Y-73471663D01*
X85049668Y-73474500D01*
X84927130Y-73474500D01*
X84927128Y-73474500D01*
X84926423Y-73474550D01*
X84924979Y-73474731D01*
X84867516Y-73480907D01*
X84732666Y-73531204D01*
X84732665Y-73531205D01*
X84617456Y-73617450D01*
X84617450Y-73617456D01*
X84531205Y-73732665D01*
X84531203Y-73732668D01*
X84480908Y-73867516D01*
X84474500Y-73927125D01*
X79448367Y-73927125D01*
X79448367Y-67202125D01*
X82549500Y-67202125D01*
X82549500Y-68997876D01*
X82549659Y-68999806D01*
X82549885Y-69001454D01*
X82555907Y-69057482D01*
X82583690Y-69131971D01*
X82606202Y-69192328D01*
X82606206Y-69192335D01*
X82649086Y-69249616D01*
X82692450Y-69307542D01*
X82692456Y-69307548D01*
X82721419Y-69329229D01*
X82807664Y-69393793D01*
X82807671Y-69393797D01*
X82942517Y-69444091D01*
X82942516Y-69444091D01*
X82949444Y-69444835D01*
X83002127Y-69450500D01*
X84797872Y-69450499D01*
X84857483Y-69444091D01*
X84992331Y-69393796D01*
X85107546Y-69307546D01*
X85193796Y-69192331D01*
X85244091Y-69057483D01*
X85250500Y-68997873D01*
X85250499Y-67202128D01*
X85250499Y-67202125D01*
X85250498Y-67202118D01*
X85244091Y-67142520D01*
X85244091Y-67142517D01*
X85237915Y-67125959D01*
X85237168Y-67123957D01*
X85193798Y-67007673D01*
X85193797Y-67007671D01*
X85193795Y-67007668D01*
X85193793Y-67007664D01*
X85107547Y-66892455D01*
X85107544Y-66892452D01*
X85107542Y-66892450D01*
X85038976Y-66841122D01*
X84992335Y-66806206D01*
X84992332Y-66806204D01*
X84992330Y-66806203D01*
X84992328Y-66806202D01*
X84857482Y-66755908D01*
X84857483Y-66755908D01*
X84797883Y-66749501D01*
X84797881Y-66749500D01*
X84797873Y-66749500D01*
X84797864Y-66749500D01*
X84796841Y-66749500D01*
X83002123Y-66749500D01*
X83000192Y-66749659D01*
X82998545Y-66749885D01*
X82942516Y-66755908D01*
X82807666Y-66806204D01*
X82807665Y-66806205D01*
X82692456Y-66892450D01*
X82692450Y-66892456D01*
X82606205Y-67007665D01*
X82606203Y-67007668D01*
X82555908Y-67142516D01*
X82549500Y-67202125D01*
X79448367Y-67202125D01*
X79448367Y-64277125D01*
X80074500Y-64277125D01*
X80074500Y-65722876D01*
X80074659Y-65724806D01*
X80074885Y-65726454D01*
X80080907Y-65782482D01*
X80105496Y-65848406D01*
X80131202Y-65917328D01*
X80131203Y-65917330D01*
X80131204Y-65917332D01*
X80131205Y-65917333D01*
X80217450Y-66032542D01*
X80217456Y-66032548D01*
X80218887Y-66033619D01*
X80332664Y-66118793D01*
X80332671Y-66118797D01*
X80467517Y-66169091D01*
X80467516Y-66169091D01*
X80474444Y-66169835D01*
X80527127Y-66175500D01*
X81972872Y-66175499D01*
X82032483Y-66169091D01*
X82167331Y-66118796D01*
X82282546Y-66032546D01*
X82368796Y-65917331D01*
X82419091Y-65782483D01*
X82425500Y-65722873D01*
X82425500Y-65717329D01*
X82426972Y-65707094D01*
X82430523Y-65682393D01*
X82434735Y-65668051D01*
X82434927Y-65667394D01*
X82472672Y-65608644D01*
X82472700Y-65608619D01*
X82472699Y-65608619D01*
X82474041Y-65607456D01*
X82528920Y-65579977D01*
X82536479Y-65578333D01*
X82562832Y-65575500D01*
X82855399Y-65575500D01*
X82883870Y-65579593D01*
X82890331Y-65580521D01*
X82909314Y-65586096D01*
X82962869Y-65618207D01*
X82972819Y-65628343D01*
X82977786Y-65633976D01*
X83101648Y-65757838D01*
X83101647Y-65757838D01*
X83101649Y-65757839D01*
X83101650Y-65757840D01*
X83248484Y-65848408D01*
X83412247Y-65902674D01*
X83513323Y-65913000D01*
X84086676Y-65912999D01*
X84086684Y-65912998D01*
X84086687Y-65912998D01*
X84086695Y-65912997D01*
X84086985Y-65912979D01*
X84088001Y-65912863D01*
X84132342Y-65908333D01*
X84142031Y-65907344D01*
X84142031Y-65907343D01*
X84187753Y-65902674D01*
X84351516Y-65848408D01*
X84498350Y-65757840D01*
X84620340Y-65635850D01*
X84710908Y-65489016D01*
X84765174Y-65325253D01*
X84775500Y-65224177D01*
X84775499Y-64525824D01*
X84765174Y-64424747D01*
X84710908Y-64260984D01*
X84620340Y-64114150D01*
X84618624Y-64112434D01*
X84618562Y-64112352D01*
X84597472Y-64084178D01*
X84589980Y-64070457D01*
X84575129Y-64002188D01*
X84575258Y-64000384D01*
X84594627Y-63942189D01*
X84598812Y-63935677D01*
X84615452Y-63915029D01*
X84619947Y-63910535D01*
X84710448Y-63763811D01*
X84710453Y-63763800D01*
X84710678Y-63763123D01*
X84759395Y-63616100D01*
X84764680Y-63600152D01*
X84774999Y-63499154D01*
X84775000Y-63499141D01*
X84775000Y-63400000D01*
X82825001Y-63400000D01*
X82825001Y-63499163D01*
X82835319Y-63600153D01*
X82873999Y-63716883D01*
X82889546Y-63763800D01*
X82889551Y-63763811D01*
X82904110Y-63787415D01*
X82980041Y-63910518D01*
X82980056Y-63910539D01*
X82981367Y-63911850D01*
X82992551Y-63924683D01*
X82995814Y-63928992D01*
X82997977Y-63934695D01*
X83001862Y-63940486D01*
X83002532Y-63940121D01*
X83003601Y-63942079D01*
X83003110Y-63942347D01*
X83009625Y-63952059D01*
X83013582Y-63960667D01*
X83012690Y-63961076D01*
X83014837Y-63972867D01*
X83018431Y-63978014D01*
X83018883Y-63989816D01*
X83020592Y-63994320D01*
X83019597Y-63999016D01*
X83023880Y-64022539D01*
X83024832Y-64022608D01*
X83024564Y-64026348D01*
X83024479Y-64026620D01*
X83024460Y-64026801D01*
X83024423Y-64026797D01*
X83020754Y-64038567D01*
X83021110Y-64047832D01*
X83007690Y-64080475D01*
X83007575Y-64080670D01*
X82988454Y-64105355D01*
X82979652Y-64114157D01*
X82977457Y-64116934D01*
X82949605Y-64142249D01*
X82949651Y-64142309D01*
X82948950Y-64142844D01*
X82947509Y-64144155D01*
X82945756Y-64145287D01*
X82943561Y-64146967D01*
X82942097Y-64147652D01*
X82941630Y-64147955D01*
X82941588Y-64147891D01*
X82933756Y-64151561D01*
X82928666Y-64156748D01*
X82895713Y-64169390D01*
X82891539Y-64170338D01*
X82886798Y-64171416D01*
X82859315Y-64174500D01*
X82506971Y-64174500D01*
X82472030Y-64169475D01*
X82457031Y-64165070D01*
X82398261Y-64127300D01*
X82390690Y-64118563D01*
X82374870Y-64090782D01*
X82374097Y-64089750D01*
X82374090Y-64089742D01*
X82368793Y-64082665D01*
X82368793Y-64082664D01*
X82282547Y-63967455D01*
X82270889Y-63958728D01*
X82249245Y-63942524D01*
X82211330Y-63914141D01*
X82186377Y-63889188D01*
X82177007Y-63876671D01*
X82170775Y-63859963D01*
X82169463Y-63858210D01*
X82169306Y-63856024D01*
X82152591Y-63811208D01*
X82152426Y-63808895D01*
X82162950Y-63749390D01*
X82163401Y-63748384D01*
X82165784Y-63743065D01*
X82178626Y-63720884D01*
X82254757Y-63616099D01*
X82254947Y-63615838D01*
X82338915Y-63451043D01*
X82338916Y-63451040D01*
X82396066Y-63275147D01*
X82425000Y-63092473D01*
X82425000Y-62907526D01*
X82425000Y-62907521D01*
X82424994Y-62907480D01*
X85124500Y-62907480D01*
X85124500Y-63092518D01*
X85153445Y-63275268D01*
X85210610Y-63451208D01*
X85210618Y-63451231D01*
X85210620Y-63451235D01*
X85294624Y-63616100D01*
X85368066Y-63717184D01*
X85368068Y-63717186D01*
X85384536Y-63748399D01*
X85385877Y-63752155D01*
X85389790Y-63763123D01*
X85393777Y-63832879D01*
X85393260Y-63835102D01*
X85365625Y-63888870D01*
X85361055Y-63894070D01*
X85342225Y-63911479D01*
X85267455Y-63967452D01*
X85267449Y-63967458D01*
X85181212Y-64082655D01*
X85181203Y-64082668D01*
X85130908Y-64217516D01*
X85124500Y-64277125D01*
X85124500Y-65722876D01*
X85124659Y-65724806D01*
X85124885Y-65726454D01*
X85130907Y-65782482D01*
X85155496Y-65848406D01*
X85181202Y-65917328D01*
X85181203Y-65917330D01*
X85181204Y-65917332D01*
X85181205Y-65917333D01*
X85267450Y-66032542D01*
X85267456Y-66032548D01*
X85268887Y-66033619D01*
X85382664Y-66118793D01*
X85382671Y-66118797D01*
X85517517Y-66169091D01*
X85517516Y-66169091D01*
X85524444Y-66169835D01*
X85577127Y-66175500D01*
X87022872Y-66175499D01*
X87082483Y-66169091D01*
X87217331Y-66118796D01*
X87315886Y-66045017D01*
X87330763Y-66035457D01*
X87341438Y-66029628D01*
X87341439Y-66029629D01*
X87367013Y-66015665D01*
X87426435Y-66000500D01*
X88507670Y-66000500D01*
X88542606Y-66005523D01*
X88557604Y-66009927D01*
X88616355Y-66047672D01*
X88617542Y-66049041D01*
X88645018Y-66103902D01*
X88646663Y-66111460D01*
X88649500Y-66137831D01*
X88649500Y-67036615D01*
X88675713Y-67202118D01*
X88675714Y-67202123D01*
X88676598Y-67207701D01*
X88676599Y-67207704D01*
X88676600Y-67207710D01*
X88711501Y-67315123D01*
X88730124Y-67372438D01*
X88730126Y-67372443D01*
X88730128Y-67372447D01*
X88737192Y-67386310D01*
X88737195Y-67386315D01*
X88737195Y-67386316D01*
X88808766Y-67526784D01*
X88808770Y-67526792D01*
X88827174Y-67552122D01*
X88910586Y-67666928D01*
X88960586Y-67716928D01*
X89083072Y-67839414D01*
X89223212Y-67941232D01*
X89377555Y-68019873D01*
X89542299Y-68073402D01*
X89713389Y-68100500D01*
X89713390Y-68100500D01*
X89886611Y-68100500D01*
X92483073Y-68100500D01*
X92518000Y-68105521D01*
X92528853Y-68108707D01*
X92587634Y-68146477D01*
X92616663Y-68210031D01*
X92606724Y-68279190D01*
X92606723Y-68279192D01*
X92603538Y-68286167D01*
X92578422Y-68322342D01*
X91681286Y-69219477D01*
X91578506Y-69322256D01*
X91578503Y-69322259D01*
X91569481Y-69331282D01*
X91569479Y-69331284D01*
X91548301Y-69367967D01*
X91546546Y-69371006D01*
X91546538Y-69371019D01*
X91539350Y-69383471D01*
X91539349Y-69383473D01*
X91523040Y-69411720D01*
X91490423Y-69468213D01*
X91472574Y-69534826D01*
X91471822Y-69537632D01*
X91457209Y-69592170D01*
X91457208Y-69592172D01*
X91443314Y-69624616D01*
X91429271Y-69647654D01*
X91388491Y-69688651D01*
X91344609Y-69715718D01*
X91272338Y-69787988D01*
X91266699Y-69791841D01*
X91264461Y-69795213D01*
X91234489Y-69813852D01*
X91230385Y-69815652D01*
X91227395Y-69816965D01*
X91227392Y-69816966D01*
X91224953Y-69818037D01*
X91214334Y-69822127D01*
X91214331Y-69822128D01*
X91184872Y-69823193D01*
X91155655Y-69826952D01*
X91150366Y-69824441D01*
X91144507Y-69824653D01*
X91101903Y-69804568D01*
X91098335Y-69801958D01*
X91087082Y-69793725D01*
X91082097Y-69790078D01*
X91067637Y-69777687D01*
X90959877Y-69669927D01*
X90959876Y-69669926D01*
X90959875Y-69669925D01*
X90891422Y-69628544D01*
X90891418Y-69628542D01*
X90814395Y-69581980D01*
X90814396Y-69581980D01*
X90735938Y-69557532D01*
X90728796Y-69554270D01*
X90708306Y-69536515D01*
X90599381Y-69526618D01*
X90581572Y-69525000D01*
X90581571Y-69525000D01*
X90500000Y-69525000D01*
X90500000Y-70283170D01*
X90499999Y-70283176D01*
X90500000Y-70283179D01*
X90494975Y-70318114D01*
X90490570Y-70333112D01*
X90452827Y-70391855D01*
X90452792Y-70391885D01*
X90452791Y-70391887D01*
X90452789Y-70391887D01*
X90451458Y-70393042D01*
X90396597Y-70420518D01*
X90389039Y-70422163D01*
X90362668Y-70425000D01*
X90250000Y-70425000D01*
X90250000Y-70533170D01*
X90249999Y-70533176D01*
X90250000Y-70533179D01*
X90244975Y-70568114D01*
X90240570Y-70583112D01*
X90202827Y-70641855D01*
X90202792Y-70641885D01*
X90202791Y-70641887D01*
X90202789Y-70641887D01*
X90201458Y-70643042D01*
X90146597Y-70670518D01*
X90139039Y-70672163D01*
X90112668Y-70675000D01*
X89275001Y-70675000D01*
X89275001Y-70681590D01*
X89281406Y-70752087D01*
X89281407Y-70752099D01*
X89281409Y-70752108D01*
X89281412Y-70752118D01*
X89331979Y-70914391D01*
X89331981Y-70914397D01*
X89419922Y-71059871D01*
X89419926Y-71059876D01*
X89509408Y-71149358D01*
X89530559Y-71177613D01*
X89538051Y-71191334D01*
X89552903Y-71259594D01*
X89552774Y-71261400D01*
X89533403Y-71319606D01*
X89529223Y-71326110D01*
X89512591Y-71346750D01*
X89469057Y-71390284D01*
X89419531Y-71439810D01*
X89419530Y-71439811D01*
X89419529Y-71439811D01*
X89419529Y-71439812D01*
X89331522Y-71585392D01*
X89280911Y-71747811D01*
X89274500Y-71818377D01*
X89274500Y-72331620D01*
X89279747Y-72389361D01*
X89280913Y-72402192D01*
X89280913Y-72402194D01*
X89280914Y-72402196D01*
X89285643Y-72417374D01*
X89285647Y-72417390D01*
X89331520Y-72564603D01*
X89331522Y-72564606D01*
X89414287Y-72701516D01*
X89419530Y-72710188D01*
X89539811Y-72830469D01*
X89539813Y-72830470D01*
X89539815Y-72830472D01*
X89539822Y-72830476D01*
X89541154Y-72831436D01*
X89544056Y-72833035D01*
X89685394Y-72918478D01*
X89847804Y-72969086D01*
X89918384Y-72975500D01*
X89918387Y-72975500D01*
X90581613Y-72975500D01*
X90581616Y-72975500D01*
X90652196Y-72969086D01*
X90814606Y-72918478D01*
X90960185Y-72830472D01*
X90971935Y-72818722D01*
X91035209Y-72755448D01*
X91035213Y-72755446D01*
X91063456Y-72734303D01*
X91077182Y-72726808D01*
X91094604Y-72723017D01*
X91096531Y-72721966D01*
X91098719Y-72722122D01*
X91145439Y-72711957D01*
X91147249Y-72712086D01*
X91205446Y-72731452D01*
X91211964Y-72735641D01*
X91232594Y-72752266D01*
X91344608Y-72864280D01*
X91344612Y-72864283D01*
X91344618Y-72864286D01*
X91344627Y-72864293D01*
X91443256Y-72925128D01*
X91487704Y-72952544D01*
X91487707Y-72952545D01*
X91487713Y-72952549D01*
X91647315Y-73005436D01*
X91745826Y-73015500D01*
X91745831Y-73015500D01*
X92354169Y-73015500D01*
X92354174Y-73015500D01*
X92452685Y-73005436D01*
X92612287Y-72952549D01*
X92755391Y-72864281D01*
X92874281Y-72745391D01*
X92962549Y-72602287D01*
X93015436Y-72442685D01*
X93025500Y-72344174D01*
X93025500Y-71810826D01*
X93015436Y-71712315D01*
X92991112Y-71638909D01*
X92962552Y-71552720D01*
X92962399Y-71552407D01*
X92961407Y-71550860D01*
X92874293Y-71409627D01*
X92874288Y-71409620D01*
X92874283Y-71409612D01*
X92874280Y-71409608D01*
X92854952Y-71390280D01*
X92833806Y-71362029D01*
X92826315Y-71348309D01*
X92811464Y-71280051D01*
X92811593Y-71278242D01*
X92830959Y-71220047D01*
X92835152Y-71213523D01*
X92851899Y-71192772D01*
X92852127Y-71192545D01*
X92874281Y-71170391D01*
X92962549Y-71027287D01*
X93015436Y-70867685D01*
X93025500Y-70769174D01*
X93025500Y-70235826D01*
X93015436Y-70137315D01*
X92962549Y-69977713D01*
X92893274Y-69865401D01*
X92879213Y-69833040D01*
X92875087Y-69817959D01*
X92876380Y-69748105D01*
X92878821Y-69740327D01*
X92909446Y-69689786D01*
X93606640Y-68992593D01*
X93606644Y-68992591D01*
X93624082Y-68975153D01*
X93624083Y-68975153D01*
X93735887Y-68863349D01*
X93814944Y-68726417D01*
X93855867Y-68573690D01*
X93855867Y-68005013D01*
X93860889Y-67970080D01*
X93867165Y-67948704D01*
X93895990Y-67898502D01*
X93899056Y-67895256D01*
X93904706Y-67890289D01*
X93904938Y-67889929D01*
X93905309Y-67889759D01*
X93916312Y-67880086D01*
X93972295Y-67839414D01*
X94094781Y-67716928D01*
X94196599Y-67576788D01*
X94275240Y-67422445D01*
X94328769Y-67257701D01*
X94355867Y-67086611D01*
X94355867Y-66142329D01*
X94358944Y-66120931D01*
X94360890Y-66107393D01*
X94365294Y-66092395D01*
X94403039Y-66033644D01*
X94403067Y-66033619D01*
X94403066Y-66033619D01*
X94404408Y-66032456D01*
X94459287Y-66004977D01*
X94466846Y-66003333D01*
X94493199Y-66000500D01*
X95566216Y-66000500D01*
X95594686Y-66004593D01*
X95601148Y-66005522D01*
X95609545Y-66007987D01*
X95627420Y-66013236D01*
X95670289Y-66035659D01*
X95686970Y-66049101D01*
X95700636Y-66057386D01*
X95782664Y-66118793D01*
X95782671Y-66118797D01*
X95917517Y-66169091D01*
X95917516Y-66169091D01*
X95924444Y-66169835D01*
X95977127Y-66175500D01*
X97422872Y-66175499D01*
X97482483Y-66169091D01*
X97617331Y-66118796D01*
X97732546Y-66032546D01*
X97818796Y-65917331D01*
X97869091Y-65782483D01*
X97875500Y-65722873D01*
X97875499Y-64277128D01*
X97869091Y-64217517D01*
X97865605Y-64208171D01*
X97818797Y-64082671D01*
X97818793Y-64082664D01*
X97732547Y-63967455D01*
X97720889Y-63958728D01*
X97706902Y-63948257D01*
X97706900Y-63948255D01*
X97706899Y-63948254D01*
X97661733Y-63914442D01*
X97636781Y-63889491D01*
X97627411Y-63876975D01*
X97602993Y-63811514D01*
X97602827Y-63809188D01*
X97613355Y-63749680D01*
X97616189Y-63743354D01*
X97629025Y-63721186D01*
X97705378Y-63616096D01*
X97789379Y-63451235D01*
X97846555Y-63275264D01*
X97875500Y-63092514D01*
X97875500Y-62907486D01*
X97846555Y-62724736D01*
X97789379Y-62548765D01*
X97789379Y-62548764D01*
X97705512Y-62384167D01*
X97705378Y-62383904D01*
X97596621Y-62234213D01*
X97465787Y-62103379D01*
X97454856Y-62095437D01*
X97417023Y-62067949D01*
X97405585Y-62059638D01*
X97380280Y-62035046D01*
X97376188Y-62029740D01*
X96882945Y-61536497D01*
X96849460Y-61475174D01*
X96854444Y-61405482D01*
X96896316Y-61349549D01*
X96908609Y-61341439D01*
X96945606Y-61320080D01*
X97020080Y-61245606D01*
X97041430Y-61208625D01*
X97091995Y-61160411D01*
X97160602Y-61147187D01*
X97225467Y-61173154D01*
X97236497Y-61182944D01*
X97689983Y-61636430D01*
X97689984Y-61636430D01*
X97704942Y-61615845D01*
X97704947Y-61615836D01*
X97788915Y-61451043D01*
X97788916Y-61451040D01*
X97846066Y-61275147D01*
X97875000Y-61092473D01*
X97875000Y-60907526D01*
X97846066Y-60724852D01*
X97788916Y-60548959D01*
X97788915Y-60548956D01*
X97704949Y-60384165D01*
X97689983Y-60363568D01*
X97689982Y-60363568D01*
X97236497Y-60817053D01*
X97175174Y-60850538D01*
X97105482Y-60845554D01*
X97049549Y-60803682D01*
X97041430Y-60791374D01*
X97020080Y-60754394D01*
X96945606Y-60679920D01*
X96945605Y-60679919D01*
X96945602Y-60679917D01*
X96908626Y-60658569D01*
X96860410Y-60608002D01*
X96847188Y-60539395D01*
X96873156Y-60474530D01*
X96882937Y-60463509D01*
X97336431Y-60010016D01*
X97336430Y-60010015D01*
X97315834Y-59995050D01*
X97151043Y-59911084D01*
X97151040Y-59911083D01*
X97151039Y-59911082D01*
X97151036Y-59911081D01*
X96975148Y-59853933D01*
X96883810Y-59839466D01*
X96792473Y-59825000D01*
X96792472Y-59825000D01*
X96607528Y-59825000D01*
X96607527Y-59825000D01*
X96546635Y-59834644D01*
X96424850Y-59853933D01*
X96248962Y-59911081D01*
X96248956Y-59911083D01*
X96248956Y-59911084D01*
X96233381Y-59919019D01*
X96084162Y-59995051D01*
X96063568Y-60010014D01*
X96063567Y-60010015D01*
X96517055Y-60463501D01*
X96550540Y-60524824D01*
X96545556Y-60594515D01*
X96503685Y-60650449D01*
X96491374Y-60658569D01*
X96454397Y-60679917D01*
X96454392Y-60679921D01*
X96379921Y-60754392D01*
X96379915Y-60754400D01*
X96358568Y-60791374D01*
X96308001Y-60839589D01*
X96239393Y-60852811D01*
X96174529Y-60826843D01*
X96163501Y-60817054D01*
X95710015Y-60363567D01*
X95710014Y-60363568D01*
X95695051Y-60384162D01*
X95611081Y-60548962D01*
X95553933Y-60724850D01*
X95525000Y-60907526D01*
X95525000Y-61092472D01*
X95553933Y-61275148D01*
X95611081Y-61451036D01*
X95611082Y-61451039D01*
X95611083Y-61451040D01*
X95611084Y-61451043D01*
X95695050Y-61615834D01*
X95695053Y-61615838D01*
X95695056Y-61615843D01*
X95710014Y-61636429D01*
X95710015Y-61636430D01*
X96163501Y-61182944D01*
X96224824Y-61149459D01*
X96294515Y-61154443D01*
X96350449Y-61196314D01*
X96358567Y-61208622D01*
X96379920Y-61245606D01*
X96454394Y-61320080D01*
X96454395Y-61320081D01*
X96454397Y-61320082D01*
X96491373Y-61341430D01*
X96539588Y-61391996D01*
X96552812Y-61460603D01*
X96526844Y-61525468D01*
X96517054Y-61536498D01*
X96039378Y-62014171D01*
X96039342Y-62014210D01*
X96018036Y-62038618D01*
X95997508Y-62057390D01*
X95934213Y-62103377D01*
X95798887Y-62238703D01*
X95794760Y-62246074D01*
X95788454Y-62254755D01*
X95788448Y-62254763D01*
X95694626Y-62383897D01*
X95694622Y-62383903D01*
X95694620Y-62383905D01*
X95694618Y-62383910D01*
X95610617Y-62548770D01*
X95610617Y-62548771D01*
X95610610Y-62548790D01*
X95553445Y-62724730D01*
X95524500Y-62907480D01*
X95524500Y-63092518D01*
X95553445Y-63275268D01*
X95610610Y-63451208D01*
X95610618Y-63451231D01*
X95610620Y-63451235D01*
X95694624Y-63616100D01*
X95768065Y-63717183D01*
X95778696Y-63734694D01*
X95782548Y-63742412D01*
X95783236Y-63746251D01*
X95784531Y-63748384D01*
X95785877Y-63752155D01*
X95785014Y-63752462D01*
X95791400Y-63767925D01*
X95791725Y-63767832D01*
X95792408Y-63770208D01*
X95792407Y-63770361D01*
X95792671Y-63771000D01*
X95793623Y-63775303D01*
X95792379Y-63775578D01*
X95792298Y-63790672D01*
X95795727Y-63799825D01*
X95794147Y-63807137D01*
X95794873Y-63811186D01*
X95792152Y-63817731D01*
X95792061Y-63834631D01*
X95793303Y-63834920D01*
X95792833Y-63836941D01*
X95792041Y-63838368D01*
X95792033Y-63839999D01*
X95791325Y-63842366D01*
X95790038Y-63841981D01*
X95784440Y-63852078D01*
X95780976Y-63868119D01*
X95759866Y-63896405D01*
X95758850Y-63897424D01*
X95745352Y-63909138D01*
X95671447Y-63964464D01*
X95640870Y-63981229D01*
X95633783Y-63983900D01*
X95633770Y-63983905D01*
X95632996Y-63984329D01*
X95632663Y-63984413D01*
X95629840Y-63985709D01*
X95629604Y-63985194D01*
X95573563Y-63999500D01*
X94433784Y-63999500D01*
X94433782Y-63999499D01*
X94433782Y-63999500D01*
X94398848Y-63994477D01*
X94372576Y-63986762D01*
X94329710Y-63964339D01*
X94312784Y-63950700D01*
X94299188Y-63942482D01*
X94261740Y-63914447D01*
X94261739Y-63914447D01*
X94261736Y-63914444D01*
X94261733Y-63914442D01*
X94236781Y-63889491D01*
X94227411Y-63876975D01*
X94202993Y-63811514D01*
X94202827Y-63809188D01*
X94213355Y-63749680D01*
X94216189Y-63743354D01*
X94229025Y-63721186D01*
X94305378Y-63616096D01*
X94389379Y-63451235D01*
X94446555Y-63275264D01*
X94475500Y-63092514D01*
X94475500Y-62907486D01*
X94446555Y-62724736D01*
X94389379Y-62548765D01*
X94389379Y-62548764D01*
X94305512Y-62384167D01*
X94305378Y-62383904D01*
X94196621Y-62234213D01*
X94065787Y-62103379D01*
X94054856Y-62095437D01*
X94017023Y-62067949D01*
X94005585Y-62059638D01*
X93980280Y-62035046D01*
X93976188Y-62029740D01*
X93482945Y-61536497D01*
X93449460Y-61475174D01*
X93454444Y-61405482D01*
X93496316Y-61349549D01*
X93508609Y-61341439D01*
X93545606Y-61320080D01*
X93620080Y-61245606D01*
X93641430Y-61208625D01*
X93691995Y-61160411D01*
X93760602Y-61147187D01*
X93825467Y-61173154D01*
X93836497Y-61182944D01*
X94289983Y-61636430D01*
X94289984Y-61636430D01*
X94304942Y-61615845D01*
X94304947Y-61615836D01*
X94388915Y-61451043D01*
X94388916Y-61451040D01*
X94446066Y-61275147D01*
X94475000Y-61092473D01*
X94475000Y-60907526D01*
X94446066Y-60724852D01*
X94388916Y-60548959D01*
X94388915Y-60548956D01*
X94304949Y-60384165D01*
X94289983Y-60363568D01*
X94289982Y-60363568D01*
X93836497Y-60817053D01*
X93775174Y-60850538D01*
X93705482Y-60845554D01*
X93649549Y-60803682D01*
X93641430Y-60791374D01*
X93620080Y-60754394D01*
X93545606Y-60679920D01*
X93545605Y-60679919D01*
X93545602Y-60679917D01*
X93508626Y-60658569D01*
X93460410Y-60608002D01*
X93447188Y-60539395D01*
X93473156Y-60474530D01*
X93482938Y-60463507D01*
X93936431Y-60010015D01*
X93915834Y-59995050D01*
X93751043Y-59911084D01*
X93751040Y-59911083D01*
X93751039Y-59911082D01*
X93751036Y-59911081D01*
X93575148Y-59853933D01*
X93483810Y-59839466D01*
X93392473Y-59825000D01*
X93392472Y-59825000D01*
X93207528Y-59825000D01*
X93207527Y-59825000D01*
X93146635Y-59834644D01*
X93024850Y-59853933D01*
X92848962Y-59911081D01*
X92848956Y-59911083D01*
X92848956Y-59911084D01*
X92833381Y-59919019D01*
X92684162Y-59995051D01*
X92663568Y-60010014D01*
X92663567Y-60010015D01*
X93117055Y-60463501D01*
X93150540Y-60524824D01*
X93145556Y-60594515D01*
X93103685Y-60650449D01*
X93091374Y-60658569D01*
X93054397Y-60679917D01*
X93054392Y-60679921D01*
X92979921Y-60754392D01*
X92979915Y-60754400D01*
X92958568Y-60791374D01*
X92908001Y-60839589D01*
X92839393Y-60852811D01*
X92774529Y-60826843D01*
X92763501Y-60817054D01*
X92310015Y-60363567D01*
X92310014Y-60363568D01*
X92295051Y-60384162D01*
X92211081Y-60548962D01*
X92153933Y-60724850D01*
X92125000Y-60907526D01*
X92125000Y-61092472D01*
X92153933Y-61275148D01*
X92211081Y-61451036D01*
X92211082Y-61451039D01*
X92211083Y-61451040D01*
X92211084Y-61451043D01*
X92295050Y-61615834D01*
X92295052Y-61615836D01*
X92295052Y-61615838D01*
X92301552Y-61624783D01*
X92310015Y-61636430D01*
X92310016Y-61636431D01*
X92763503Y-61182943D01*
X92824824Y-61149460D01*
X92894515Y-61154444D01*
X92950449Y-61196315D01*
X92958569Y-61208626D01*
X92979917Y-61245602D01*
X92979919Y-61245604D01*
X92979920Y-61245606D01*
X93054394Y-61320080D01*
X93054395Y-61320081D01*
X93054397Y-61320082D01*
X93091373Y-61341430D01*
X93139588Y-61391996D01*
X93152812Y-61460603D01*
X93126844Y-61525468D01*
X93117054Y-61536498D01*
X92639378Y-62014171D01*
X92639342Y-62014210D01*
X92618036Y-62038618D01*
X92597508Y-62057390D01*
X92534213Y-62103377D01*
X92398887Y-62238703D01*
X92394760Y-62246074D01*
X92388454Y-62254755D01*
X92388448Y-62254763D01*
X92294626Y-62383897D01*
X92294622Y-62383903D01*
X92294620Y-62383905D01*
X92294618Y-62383910D01*
X92210617Y-62548770D01*
X92210617Y-62548771D01*
X92210610Y-62548790D01*
X92153445Y-62724730D01*
X92124500Y-62907480D01*
X92124500Y-63092518D01*
X92153445Y-63275268D01*
X92210610Y-63451208D01*
X92210618Y-63451231D01*
X92210620Y-63451235D01*
X92294624Y-63616100D01*
X92368065Y-63717183D01*
X92378696Y-63734694D01*
X92382548Y-63742412D01*
X92383236Y-63746251D01*
X92384531Y-63748384D01*
X92385877Y-63752155D01*
X92385014Y-63752462D01*
X92391400Y-63767925D01*
X92391725Y-63767832D01*
X92392408Y-63770208D01*
X92392407Y-63770361D01*
X92392671Y-63771000D01*
X92393623Y-63775303D01*
X92392379Y-63775578D01*
X92392298Y-63790672D01*
X92395727Y-63799825D01*
X92394147Y-63807137D01*
X92394873Y-63811186D01*
X92392152Y-63817731D01*
X92392061Y-63834631D01*
X92393303Y-63834920D01*
X92392833Y-63836941D01*
X92392041Y-63838368D01*
X92392033Y-63839999D01*
X92391325Y-63842366D01*
X92390038Y-63841981D01*
X92384440Y-63852078D01*
X92380976Y-63868119D01*
X92359866Y-63896405D01*
X92358850Y-63897424D01*
X92345352Y-63909138D01*
X92271447Y-63964464D01*
X92240870Y-63981229D01*
X92233783Y-63983900D01*
X92233770Y-63983905D01*
X92232996Y-63984329D01*
X92232663Y-63984413D01*
X92229840Y-63985709D01*
X92229604Y-63985194D01*
X92173563Y-63999500D01*
X90933784Y-63999500D01*
X90933782Y-63999499D01*
X90933782Y-63999500D01*
X90898848Y-63994477D01*
X90872576Y-63986762D01*
X90829710Y-63964339D01*
X90812784Y-63950700D01*
X90799188Y-63942482D01*
X90761740Y-63914447D01*
X90761739Y-63914447D01*
X90761736Y-63914444D01*
X90761733Y-63914442D01*
X90736781Y-63889491D01*
X90727411Y-63876975D01*
X90702993Y-63811514D01*
X90702827Y-63809188D01*
X90713355Y-63749680D01*
X90716189Y-63743354D01*
X90729025Y-63721186D01*
X90805378Y-63616096D01*
X90889379Y-63451235D01*
X90946555Y-63275264D01*
X90975500Y-63092514D01*
X90975500Y-62907486D01*
X90946555Y-62724736D01*
X90889379Y-62548765D01*
X90889379Y-62548764D01*
X90805512Y-62384167D01*
X90805378Y-62383904D01*
X90696621Y-62234213D01*
X90565787Y-62103379D01*
X90554856Y-62095437D01*
X90517023Y-62067949D01*
X90505585Y-62059638D01*
X90480280Y-62035046D01*
X90476188Y-62029740D01*
X89982945Y-61536497D01*
X89949460Y-61475174D01*
X89954444Y-61405482D01*
X89996316Y-61349549D01*
X90008609Y-61341439D01*
X90045606Y-61320080D01*
X90120080Y-61245606D01*
X90141430Y-61208625D01*
X90191995Y-61160411D01*
X90260602Y-61147187D01*
X90325467Y-61173154D01*
X90336497Y-61182944D01*
X90789983Y-61636430D01*
X90789984Y-61636430D01*
X90804942Y-61615845D01*
X90804947Y-61615836D01*
X90888915Y-61451043D01*
X90888916Y-61451040D01*
X90946066Y-61275147D01*
X90975000Y-61092473D01*
X90975000Y-60907526D01*
X90946066Y-60724852D01*
X90888916Y-60548959D01*
X90888915Y-60548956D01*
X90804949Y-60384165D01*
X90789983Y-60363568D01*
X90789982Y-60363568D01*
X90336497Y-60817053D01*
X90275174Y-60850538D01*
X90205482Y-60845554D01*
X90149549Y-60803682D01*
X90141430Y-60791374D01*
X90120080Y-60754394D01*
X90045606Y-60679920D01*
X90045605Y-60679919D01*
X90045602Y-60679917D01*
X90008626Y-60658569D01*
X89960410Y-60608002D01*
X89947188Y-60539395D01*
X89973156Y-60474530D01*
X89982938Y-60463507D01*
X90436431Y-60010015D01*
X90415834Y-59995050D01*
X90251043Y-59911084D01*
X90251040Y-59911083D01*
X90251039Y-59911082D01*
X90251036Y-59911081D01*
X90075148Y-59853933D01*
X89983810Y-59839466D01*
X89892473Y-59825000D01*
X89892472Y-59825000D01*
X89707528Y-59825000D01*
X89707527Y-59825000D01*
X89646635Y-59834644D01*
X89524850Y-59853933D01*
X89348962Y-59911081D01*
X89348956Y-59911083D01*
X89348956Y-59911084D01*
X89333381Y-59919019D01*
X89184162Y-59995051D01*
X89163568Y-60010014D01*
X89163567Y-60010015D01*
X89617055Y-60463501D01*
X89650540Y-60524824D01*
X89645556Y-60594515D01*
X89603685Y-60650449D01*
X89591374Y-60658569D01*
X89554397Y-60679917D01*
X89554392Y-60679921D01*
X89479921Y-60754392D01*
X89479915Y-60754400D01*
X89458568Y-60791374D01*
X89408001Y-60839589D01*
X89339393Y-60852811D01*
X89274529Y-60826843D01*
X89263501Y-60817054D01*
X88810015Y-60363567D01*
X88810014Y-60363568D01*
X88795051Y-60384162D01*
X88711081Y-60548962D01*
X88653933Y-60724850D01*
X88625000Y-60907526D01*
X88625000Y-61092472D01*
X88653933Y-61275148D01*
X88711081Y-61451036D01*
X88711082Y-61451039D01*
X88711083Y-61451040D01*
X88711084Y-61451043D01*
X88795050Y-61615834D01*
X88795053Y-61615838D01*
X88795056Y-61615843D01*
X88810014Y-61636429D01*
X88810015Y-61636430D01*
X89263501Y-61182944D01*
X89324824Y-61149459D01*
X89394515Y-61154443D01*
X89450449Y-61196314D01*
X89458567Y-61208622D01*
X89479920Y-61245606D01*
X89554394Y-61320080D01*
X89554395Y-61320081D01*
X89554397Y-61320082D01*
X89591373Y-61341430D01*
X89639588Y-61391996D01*
X89652812Y-61460603D01*
X89626844Y-61525468D01*
X89617054Y-61536498D01*
X89139378Y-62014171D01*
X89139342Y-62014210D01*
X89118036Y-62038618D01*
X89097508Y-62057390D01*
X89034213Y-62103377D01*
X88898887Y-62238703D01*
X88894760Y-62246074D01*
X88888454Y-62254755D01*
X88888448Y-62254763D01*
X88794626Y-62383897D01*
X88794622Y-62383903D01*
X88794620Y-62383905D01*
X88794618Y-62383910D01*
X88710617Y-62548770D01*
X88710617Y-62548771D01*
X88710610Y-62548790D01*
X88653445Y-62724730D01*
X88624500Y-62907480D01*
X88624500Y-63092518D01*
X88653445Y-63275268D01*
X88710610Y-63451208D01*
X88710618Y-63451231D01*
X88710620Y-63451235D01*
X88794624Y-63616100D01*
X88868065Y-63717183D01*
X88878696Y-63734694D01*
X88882548Y-63742412D01*
X88883236Y-63746251D01*
X88884531Y-63748384D01*
X88885877Y-63752155D01*
X88885014Y-63752462D01*
X88891400Y-63767925D01*
X88891725Y-63767832D01*
X88892408Y-63770208D01*
X88892407Y-63770361D01*
X88892671Y-63771000D01*
X88893623Y-63775303D01*
X88892379Y-63775578D01*
X88892298Y-63790672D01*
X88895727Y-63799825D01*
X88894147Y-63807137D01*
X88894873Y-63811186D01*
X88892152Y-63817731D01*
X88892061Y-63834631D01*
X88893303Y-63834920D01*
X88892833Y-63836941D01*
X88892041Y-63838368D01*
X88892033Y-63839999D01*
X88891325Y-63842366D01*
X88890038Y-63841981D01*
X88884440Y-63852078D01*
X88880976Y-63868119D01*
X88859866Y-63896405D01*
X88858850Y-63897424D01*
X88845352Y-63909138D01*
X88771447Y-63964464D01*
X88740870Y-63981229D01*
X88733783Y-63983900D01*
X88733770Y-63983905D01*
X88732996Y-63984329D01*
X88732663Y-63984413D01*
X88729840Y-63985709D01*
X88729604Y-63985194D01*
X88673563Y-63999500D01*
X87433784Y-63999500D01*
X87433782Y-63999499D01*
X87433782Y-63999500D01*
X87398848Y-63994477D01*
X87372576Y-63986762D01*
X87329710Y-63964339D01*
X87312784Y-63950700D01*
X87299188Y-63942482D01*
X87261740Y-63914447D01*
X87261739Y-63914447D01*
X87261736Y-63914444D01*
X87261733Y-63914442D01*
X87236781Y-63889491D01*
X87227411Y-63876975D01*
X87202993Y-63811514D01*
X87202827Y-63809188D01*
X87213355Y-63749680D01*
X87216189Y-63743354D01*
X87229025Y-63721186D01*
X87305378Y-63616096D01*
X87389379Y-63451235D01*
X87446555Y-63275264D01*
X87475500Y-63092514D01*
X87475500Y-62907486D01*
X87446555Y-62724736D01*
X87389379Y-62548765D01*
X87389379Y-62548764D01*
X87305512Y-62384167D01*
X87305378Y-62383904D01*
X87196621Y-62234213D01*
X87065787Y-62103379D01*
X87054856Y-62095437D01*
X87017023Y-62067949D01*
X87005585Y-62059638D01*
X86980280Y-62035046D01*
X86976188Y-62029740D01*
X86482945Y-61536497D01*
X86449460Y-61475174D01*
X86454444Y-61405482D01*
X86496316Y-61349549D01*
X86508609Y-61341439D01*
X86545606Y-61320080D01*
X86620080Y-61245606D01*
X86641430Y-61208625D01*
X86691993Y-61160412D01*
X86760599Y-61147187D01*
X86825465Y-61173153D01*
X86836496Y-61182944D01*
X87289983Y-61636431D01*
X87289984Y-61636431D01*
X87304936Y-61615853D01*
X87304943Y-61615843D01*
X87304947Y-61615836D01*
X87388915Y-61451043D01*
X87388916Y-61451040D01*
X87446066Y-61275147D01*
X87475000Y-61092473D01*
X87475000Y-60907526D01*
X87446066Y-60724852D01*
X87388916Y-60548959D01*
X87388915Y-60548956D01*
X87304949Y-60384165D01*
X87289983Y-60363568D01*
X87289982Y-60363568D01*
X86836497Y-60817053D01*
X86775174Y-60850538D01*
X86705482Y-60845554D01*
X86649549Y-60803682D01*
X86641430Y-60791374D01*
X86620080Y-60754394D01*
X86545606Y-60679920D01*
X86545605Y-60679919D01*
X86545602Y-60679917D01*
X86508626Y-60658569D01*
X86460410Y-60608002D01*
X86447188Y-60539395D01*
X86473156Y-60474530D01*
X86482938Y-60463507D01*
X86936431Y-60010015D01*
X86915834Y-59995050D01*
X86751043Y-59911084D01*
X86751040Y-59911083D01*
X86751039Y-59911082D01*
X86751036Y-59911081D01*
X86575148Y-59853933D01*
X86483810Y-59839466D01*
X86392473Y-59825000D01*
X86392472Y-59825000D01*
X86207528Y-59825000D01*
X86207527Y-59825000D01*
X86146635Y-59834644D01*
X86024850Y-59853933D01*
X85848962Y-59911081D01*
X85848956Y-59911083D01*
X85848956Y-59911084D01*
X85833381Y-59919019D01*
X85684162Y-59995051D01*
X85663568Y-60010014D01*
X85663567Y-60010015D01*
X86117055Y-60463501D01*
X86150540Y-60524824D01*
X86145556Y-60594515D01*
X86103685Y-60650449D01*
X86091374Y-60658569D01*
X86054397Y-60679917D01*
X86054392Y-60679921D01*
X85979921Y-60754392D01*
X85979915Y-60754400D01*
X85958568Y-60791374D01*
X85908001Y-60839589D01*
X85839393Y-60852811D01*
X85774529Y-60826843D01*
X85763501Y-60817054D01*
X85310015Y-60363567D01*
X85310014Y-60363568D01*
X85295051Y-60384162D01*
X85211081Y-60548962D01*
X85153933Y-60724850D01*
X85125000Y-60907526D01*
X85125000Y-61092472D01*
X85153933Y-61275148D01*
X85211081Y-61451036D01*
X85211082Y-61451039D01*
X85211083Y-61451040D01*
X85211084Y-61451043D01*
X85295050Y-61615834D01*
X85295053Y-61615838D01*
X85295056Y-61615843D01*
X85310014Y-61636429D01*
X85310015Y-61636430D01*
X85763501Y-61182944D01*
X85824824Y-61149459D01*
X85894515Y-61154443D01*
X85950449Y-61196314D01*
X85958567Y-61208622D01*
X85979920Y-61245606D01*
X86054394Y-61320080D01*
X86054395Y-61320081D01*
X86054397Y-61320082D01*
X86091373Y-61341430D01*
X86139588Y-61391996D01*
X86152812Y-61460603D01*
X86126844Y-61525468D01*
X86117054Y-61536498D01*
X85639378Y-62014171D01*
X85639342Y-62014210D01*
X85618036Y-62038618D01*
X85597508Y-62057390D01*
X85534213Y-62103377D01*
X85398887Y-62238703D01*
X85394760Y-62246074D01*
X85388454Y-62254755D01*
X85388448Y-62254763D01*
X85294626Y-62383897D01*
X85294622Y-62383903D01*
X85294620Y-62383905D01*
X85294618Y-62383910D01*
X85210617Y-62548770D01*
X85210617Y-62548771D01*
X85210610Y-62548790D01*
X85153445Y-62724730D01*
X85124500Y-62907480D01*
X82424994Y-62907480D01*
X82410677Y-62817095D01*
X82410671Y-62817053D01*
X82408103Y-62800839D01*
X82825000Y-62800839D01*
X82825000Y-62800842D01*
X82825000Y-62800845D01*
X82825000Y-62900000D01*
X83550000Y-62900000D01*
X84050000Y-62900000D01*
X84774999Y-62900000D01*
X84774999Y-62800860D01*
X84774998Y-62800845D01*
X84764680Y-62699847D01*
X84710453Y-62536199D01*
X84710448Y-62536188D01*
X84664645Y-62461931D01*
X84619957Y-62389480D01*
X84619952Y-62389473D01*
X84619947Y-62389465D01*
X84619944Y-62389461D01*
X84619941Y-62389458D01*
X84619939Y-62389455D01*
X84498043Y-62267559D01*
X84498040Y-62267557D01*
X84498038Y-62267555D01*
X84498034Y-62267552D01*
X84498028Y-62267548D01*
X84498018Y-62267541D01*
X84366385Y-62186349D01*
X84351311Y-62177051D01*
X84351309Y-62177050D01*
X84351295Y-62177043D01*
X84187650Y-62122818D01*
X84086659Y-62112500D01*
X84086654Y-62112500D01*
X84050000Y-62112500D01*
X84050000Y-62900000D01*
X83550000Y-62900000D01*
X83550000Y-62112500D01*
X83513363Y-62112500D01*
X83513361Y-62112500D01*
X83513343Y-62112501D01*
X83513332Y-62112502D01*
X83513319Y-62112503D01*
X83412345Y-62122819D01*
X83248701Y-62177045D01*
X83248689Y-62177050D01*
X83248686Y-62177052D01*
X83101980Y-62267541D01*
X83101958Y-62267557D01*
X83101955Y-62267559D01*
X82980059Y-62389455D01*
X82980057Y-62389458D01*
X82980041Y-62389480D01*
X82889552Y-62536186D01*
X82889550Y-62536189D01*
X82889543Y-62536203D01*
X82835318Y-62699848D01*
X82825000Y-62800839D01*
X82408103Y-62800839D01*
X82396066Y-62724852D01*
X82396066Y-62724849D01*
X82396066Y-62724848D01*
X82338925Y-62548986D01*
X82338917Y-62548962D01*
X82338916Y-62548961D01*
X82338916Y-62548959D01*
X82338915Y-62548956D01*
X82254949Y-62384165D01*
X82239983Y-62363568D01*
X82239982Y-62363568D01*
X81786497Y-62817053D01*
X81725174Y-62850538D01*
X81655482Y-62845554D01*
X81599549Y-62803682D01*
X81591430Y-62791374D01*
X81570080Y-62754394D01*
X81495606Y-62679920D01*
X81495605Y-62679919D01*
X81495602Y-62679917D01*
X81458626Y-62658569D01*
X81410410Y-62608002D01*
X81397188Y-62539395D01*
X81423156Y-62474530D01*
X81432937Y-62463509D01*
X81886431Y-62010016D01*
X81886430Y-62010015D01*
X81865834Y-61995050D01*
X81701043Y-61911084D01*
X81701040Y-61911083D01*
X81701039Y-61911082D01*
X81701036Y-61911081D01*
X81525148Y-61853933D01*
X81433810Y-61839466D01*
X81342473Y-61825000D01*
X81342472Y-61825000D01*
X81157528Y-61825000D01*
X81157527Y-61825000D01*
X81096635Y-61834644D01*
X80974850Y-61853933D01*
X80798962Y-61911081D01*
X80634162Y-61995051D01*
X80613568Y-62010014D01*
X80613567Y-62010015D01*
X81067055Y-62463501D01*
X81100540Y-62524824D01*
X81095556Y-62594515D01*
X81053685Y-62650449D01*
X81041374Y-62658569D01*
X81004397Y-62679917D01*
X81004392Y-62679921D01*
X80929921Y-62754392D01*
X80929915Y-62754400D01*
X80908568Y-62791374D01*
X80858001Y-62839589D01*
X80789393Y-62852811D01*
X80724529Y-62826843D01*
X80713501Y-62817054D01*
X80260015Y-62363567D01*
X80260014Y-62363568D01*
X80245053Y-62384160D01*
X80245050Y-62384165D01*
X80245049Y-62384167D01*
X80173380Y-62524824D01*
X80161081Y-62548962D01*
X80103933Y-62724850D01*
X80089329Y-62817054D01*
X80075000Y-62907526D01*
X80075000Y-63092473D01*
X80075007Y-63092518D01*
X80103933Y-63275148D01*
X80161083Y-63451042D01*
X80245051Y-63615836D01*
X80318465Y-63716883D01*
X80318466Y-63716884D01*
X80334936Y-63748099D01*
X80340189Y-63762822D01*
X80344189Y-63832528D01*
X80343673Y-63834751D01*
X80316007Y-63888593D01*
X80311434Y-63893794D01*
X80292623Y-63911181D01*
X80217452Y-63967454D01*
X80131207Y-64082663D01*
X80131203Y-64082668D01*
X80080908Y-64217516D01*
X80074500Y-64277125D01*
X79448367Y-64277125D01*
X79448367Y-59930449D01*
X79451131Y-59911228D01*
X79453390Y-59895513D01*
X79456741Y-59884103D01*
X79457794Y-59880514D01*
X79495565Y-59821741D01*
X79495566Y-59821739D01*
X79501118Y-59816928D01*
X79558130Y-59789022D01*
X79799445Y-59741023D01*
X80128572Y-59641183D01*
X80446329Y-59509564D01*
X80749654Y-59347433D01*
X81035627Y-59156352D01*
X81301494Y-58938160D01*
X81544694Y-58694960D01*
X81762886Y-58429093D01*
X81953967Y-58143120D01*
X82116098Y-57839795D01*
X82247717Y-57522038D01*
X82347557Y-57192911D01*
X82394059Y-56959129D01*
X82405799Y-56925850D01*
X82413046Y-56911995D01*
X82461557Y-56861716D01*
X82467956Y-56858073D01*
X82529306Y-56841833D01*
X115358749Y-56841833D01*
X115393685Y-56846856D01*
G37*
%TD.AperFunction*%
%TA.AperFunction,Conductor*%
G36*
X114699872Y-72823743D02*
G01*
X114725116Y-72831156D01*
X114777862Y-72862452D01*
X117196441Y-75281031D01*
X117217590Y-75309282D01*
X117230198Y-75332371D01*
X117245367Y-75391800D01*
X117245367Y-79100849D01*
X117240343Y-79135786D01*
X117232931Y-79161027D01*
X117201636Y-79213771D01*
X116970446Y-79444959D01*
X116970445Y-79444962D01*
X116942191Y-79466113D01*
X116927207Y-79474295D01*
X116861582Y-79489308D01*
X116848292Y-79488643D01*
X116821047Y-79483629D01*
X116820984Y-79483892D01*
X116816238Y-79482752D01*
X116657239Y-79457570D01*
X116654953Y-79457208D01*
X116606287Y-79449500D01*
X116606286Y-79449500D01*
X116393709Y-79449500D01*
X116354776Y-79455666D01*
X116345042Y-79457208D01*
X116307654Y-79463129D01*
X116183763Y-79482752D01*
X115981582Y-79548445D01*
X115792182Y-79644949D01*
X115792179Y-79644950D01*
X115792179Y-79644951D01*
X115771277Y-79660137D01*
X115620210Y-79769892D01*
X115469892Y-79920210D01*
X115344949Y-80092182D01*
X115248417Y-80281637D01*
X115247946Y-80282579D01*
X115246862Y-80286452D01*
X115225817Y-80351225D01*
X115225816Y-80351228D01*
X115182896Y-80483317D01*
X115182761Y-80483726D01*
X115182754Y-80483755D01*
X115149500Y-80693713D01*
X115149500Y-80906291D01*
X115181434Y-81107921D01*
X115181435Y-81107921D01*
X115182753Y-81116242D01*
X115182754Y-81116244D01*
X115235347Y-81278109D01*
X115248442Y-81318410D01*
X115248443Y-81318412D01*
X115338457Y-81495076D01*
X115344951Y-81507820D01*
X115469890Y-81679786D01*
X115469892Y-81679788D01*
X115620214Y-81830110D01*
X115620219Y-81830114D01*
X115792174Y-81955046D01*
X115796334Y-81957595D01*
X115796064Y-81958035D01*
X115819754Y-81974735D01*
X115832164Y-81986456D01*
X115866718Y-82044217D01*
X115870196Y-82057071D01*
X115874500Y-82089458D01*
X115874500Y-82622688D01*
X115869476Y-82657627D01*
X115863082Y-82679400D01*
X115825305Y-82738177D01*
X115809213Y-82749993D01*
X115801655Y-82754655D01*
X115801645Y-82754663D01*
X115723724Y-82832583D01*
X115720946Y-82834573D01*
X115719987Y-82836168D01*
X115690874Y-82856120D01*
X115678827Y-82862059D01*
X115615158Y-82874525D01*
X115614052Y-82874446D01*
X115614035Y-82874444D01*
X115613238Y-82874387D01*
X115611452Y-82873792D01*
X115609993Y-82874047D01*
X115601630Y-82870523D01*
X115555034Y-82855014D01*
X115548526Y-82850831D01*
X115527891Y-82834201D01*
X115448351Y-82754661D01*
X115448350Y-82754660D01*
X115326334Y-82679400D01*
X115301518Y-82664093D01*
X115301513Y-82664091D01*
X115146221Y-82612632D01*
X115143401Y-82611466D01*
X115137748Y-82609824D01*
X115036687Y-82599500D01*
X115036678Y-82599500D01*
X114463330Y-82599500D01*
X114463312Y-82599501D01*
X114463290Y-82599503D01*
X114463280Y-82599504D01*
X114362250Y-82609824D01*
X114198477Y-82664094D01*
X114051651Y-82754658D01*
X113929662Y-82876646D01*
X113929648Y-82876666D01*
X113891863Y-82937923D01*
X113891863Y-82937926D01*
X113869247Y-82965022D01*
X113854542Y-82978248D01*
X113799113Y-83006967D01*
X113793838Y-83008166D01*
X113790546Y-83008914D01*
X113763057Y-83012000D01*
X113700888Y-83012000D01*
X113673617Y-83017424D01*
X113673612Y-83017424D01*
X113580049Y-83036035D01*
X113580048Y-83036035D01*
X113580034Y-83036040D01*
X113547763Y-83049408D01*
X113547762Y-83049409D01*
X113532897Y-83055567D01*
X113510669Y-83064774D01*
X113466213Y-83083188D01*
X113456057Y-83089975D01*
X113455949Y-83090047D01*
X113448140Y-83095265D01*
X113363765Y-83151641D01*
X113331853Y-83183555D01*
X113288780Y-83226628D01*
X113259421Y-83248375D01*
X113246167Y-83255439D01*
X113229816Y-83258824D01*
X113227457Y-83260113D01*
X113224585Y-83259907D01*
X113177773Y-83269601D01*
X113175638Y-83269427D01*
X113118142Y-83249811D01*
X113112136Y-83245908D01*
X113092023Y-83229615D01*
X113065789Y-83203381D01*
X113065787Y-83203379D01*
X112969782Y-83133627D01*
X112916094Y-83094620D01*
X112900940Y-83086899D01*
X112893656Y-83083188D01*
X112751235Y-83010620D01*
X112751232Y-83010619D01*
X112751231Y-83010618D01*
X112751228Y-83010617D01*
X112751208Y-83010610D01*
X112575267Y-82953445D01*
X112575268Y-82953445D01*
X112483889Y-82938972D01*
X112392519Y-82924500D01*
X112392514Y-82924500D01*
X112207486Y-82924500D01*
X112207483Y-82924500D01*
X112170928Y-82930290D01*
X112146569Y-82934148D01*
X112024730Y-82953445D01*
X111848790Y-83010610D01*
X111848771Y-83010617D01*
X111848770Y-83010617D01*
X111683903Y-83094621D01*
X111609768Y-83148485D01*
X111605423Y-83151642D01*
X111546082Y-83194755D01*
X111538702Y-83198888D01*
X111403380Y-83334210D01*
X111343443Y-83416705D01*
X111323532Y-83438215D01*
X111321215Y-83440188D01*
X111313062Y-83446475D01*
X111310107Y-83449649D01*
X111304627Y-83454318D01*
X111279008Y-83465756D01*
X111254879Y-83480071D01*
X111248412Y-83481538D01*
X111162961Y-83498535D01*
X111162953Y-83498537D01*
X111143304Y-83506676D01*
X111136550Y-83509474D01*
X111129098Y-83512560D01*
X111128838Y-83512666D01*
X111049140Y-83545678D01*
X111049122Y-83545686D01*
X111049107Y-83545695D01*
X110946670Y-83614142D01*
X110742704Y-83818110D01*
X110625269Y-83935546D01*
X110625267Y-83935548D01*
X110581705Y-83979109D01*
X110541887Y-84018926D01*
X110539926Y-84019996D01*
X110538670Y-84021880D01*
X110469687Y-84125120D01*
X110469682Y-84125131D01*
X110448337Y-84176667D01*
X110448336Y-84176670D01*
X110422541Y-84238941D01*
X110422536Y-84238956D01*
X110422533Y-84238967D01*
X110398500Y-84359790D01*
X110398500Y-91536624D01*
X110398499Y-91536626D01*
X110398500Y-91536627D01*
X110393476Y-91571561D01*
X110386064Y-91596802D01*
X110354769Y-91649546D01*
X110062640Y-91941675D01*
X110034390Y-91962824D01*
X110024463Y-91968245D01*
X109956190Y-91983099D01*
X109890725Y-91958685D01*
X109848852Y-91902753D01*
X109846165Y-91895547D01*
X109838352Y-91852227D01*
X109838352Y-91267937D01*
X109838352Y-91267926D01*
X109838351Y-91267907D01*
X109837990Y-91263324D01*
X109832165Y-91189292D01*
X109783173Y-91006449D01*
X109735577Y-90913036D01*
X109697238Y-90837790D01*
X109613362Y-90734213D01*
X109578110Y-90690680D01*
X109434640Y-90574500D01*
X109434206Y-90574149D01*
X109433742Y-90573772D01*
X109433735Y-90573762D01*
X109426740Y-90567639D01*
X109408372Y-90550293D01*
X109373146Y-90489953D01*
X109376135Y-90420147D01*
X109412307Y-90366427D01*
X109427820Y-90352985D01*
X109430986Y-90350332D01*
X109430998Y-90350321D01*
X109431002Y-90350320D01*
X109578110Y-90231194D01*
X109697236Y-90084086D01*
X109783173Y-89915425D01*
X109832165Y-89732582D01*
X109838353Y-89653958D01*
X109838352Y-88727917D01*
X109832165Y-88649292D01*
X109783173Y-88466449D01*
X109739791Y-88381308D01*
X109697238Y-88297790D01*
X109652398Y-88242418D01*
X109578110Y-88150680D01*
X109465469Y-88059465D01*
X109436052Y-88035643D01*
X109432432Y-88032595D01*
X109428143Y-88028842D01*
X109427767Y-88028251D01*
X109424661Y-88025676D01*
X109408371Y-88010292D01*
X109373146Y-87949952D01*
X109376136Y-87880146D01*
X109412307Y-87826427D01*
X109427820Y-87812985D01*
X109430986Y-87810332D01*
X109430998Y-87810321D01*
X109431002Y-87810320D01*
X109578110Y-87691194D01*
X109697236Y-87544086D01*
X109702328Y-87534094D01*
X109717686Y-87503947D01*
X109717689Y-87503945D01*
X109717688Y-87503945D01*
X109783173Y-87375425D01*
X109832165Y-87192582D01*
X109838353Y-87113958D01*
X109838352Y-86187917D01*
X109832165Y-86109292D01*
X109783173Y-85926449D01*
X109737234Y-85836288D01*
X109697238Y-85757790D01*
X109662923Y-85715415D01*
X109578110Y-85610680D01*
X109467559Y-85521157D01*
X109436052Y-85495643D01*
X109432432Y-85492595D01*
X109428143Y-85488842D01*
X109427767Y-85488251D01*
X109424661Y-85485676D01*
X109408371Y-85470292D01*
X109373146Y-85409952D01*
X109376136Y-85340146D01*
X109412307Y-85286427D01*
X109427820Y-85272985D01*
X109430986Y-85270332D01*
X109430998Y-85270321D01*
X109431002Y-85270320D01*
X109578110Y-85151194D01*
X109697236Y-85004086D01*
X109697239Y-85004082D01*
X109717688Y-84963945D01*
X109783173Y-84835425D01*
X109832165Y-84652582D01*
X109838353Y-84573958D01*
X109838352Y-83647917D01*
X109832165Y-83569292D01*
X109783173Y-83386449D01*
X109725146Y-83272564D01*
X109697238Y-83217790D01*
X109664407Y-83177248D01*
X109578110Y-83070680D01*
X109433846Y-82953857D01*
X109426744Y-82947644D01*
X109420254Y-82941515D01*
X109408369Y-82930290D01*
X109373146Y-82869952D01*
X109376136Y-82800147D01*
X109376139Y-82800143D01*
X109412307Y-82746427D01*
X109427820Y-82732985D01*
X109430986Y-82730332D01*
X109430998Y-82730321D01*
X109431002Y-82730320D01*
X109578110Y-82611194D01*
X109697236Y-82464086D01*
X109783173Y-82295425D01*
X109832165Y-82112582D01*
X109838353Y-82033958D01*
X109838352Y-81107917D01*
X109832165Y-81029292D01*
X109783173Y-80846449D01*
X109737234Y-80756288D01*
X109697238Y-80677790D01*
X109664407Y-80637248D01*
X109659430Y-80631102D01*
X109659427Y-80631097D01*
X109578114Y-80530684D01*
X109578111Y-80530682D01*
X109578110Y-80530680D01*
X109458983Y-80434212D01*
X109433842Y-80413853D01*
X109426741Y-80407640D01*
X109408372Y-80390293D01*
X109373146Y-80329953D01*
X109376135Y-80260147D01*
X109412307Y-80206427D01*
X109427820Y-80192985D01*
X109430986Y-80190332D01*
X109430998Y-80190321D01*
X109431002Y-80190320D01*
X109578110Y-80071194D01*
X109697236Y-79924086D01*
X109699210Y-79920213D01*
X109717226Y-79884852D01*
X109717687Y-79883948D01*
X109717688Y-79883945D01*
X109747722Y-79825000D01*
X109783173Y-79755425D01*
X109832165Y-79572582D01*
X109838353Y-79493958D01*
X109838352Y-78567917D01*
X109832165Y-78489292D01*
X109783173Y-78306449D01*
X109728403Y-78198956D01*
X109697238Y-78137790D01*
X109613325Y-78034167D01*
X109578110Y-77990680D01*
X109488837Y-77918388D01*
X109436052Y-77875643D01*
X109432432Y-77872595D01*
X109428143Y-77868842D01*
X109427767Y-77868251D01*
X109424661Y-77865676D01*
X109408371Y-77850292D01*
X109373146Y-77789952D01*
X109376136Y-77720146D01*
X109412307Y-77666427D01*
X109427820Y-77652985D01*
X109430986Y-77650332D01*
X109430998Y-77650321D01*
X109431002Y-77650320D01*
X109578110Y-77531194D01*
X109697236Y-77384086D01*
X109783173Y-77215425D01*
X109832165Y-77032582D01*
X109838353Y-76953958D01*
X109838352Y-76027917D01*
X109832165Y-75949292D01*
X109783173Y-75766449D01*
X109733250Y-75668470D01*
X109697238Y-75597790D01*
X109664407Y-75557248D01*
X109578110Y-75450680D01*
X109482023Y-75372870D01*
X109430999Y-75331551D01*
X109289635Y-75259524D01*
X109286005Y-75257674D01*
X109285996Y-75257669D01*
X109262342Y-75245617D01*
X109195415Y-75227684D01*
X109195415Y-75227683D01*
X109079494Y-75196623D01*
X109027143Y-75192503D01*
X109007589Y-75190965D01*
X109007585Y-75190964D01*
X109000878Y-75190437D01*
X109000874Y-75190437D01*
X109000873Y-75190437D01*
X106674842Y-75190437D01*
X106674827Y-75190437D01*
X106596210Y-75196623D01*
X106456311Y-75234109D01*
X106440405Y-75237273D01*
X106440375Y-75237277D01*
X106424429Y-75239376D01*
X106408246Y-75240437D01*
X106358426Y-75240437D01*
X106164031Y-75271226D01*
X106164029Y-75271226D01*
X106164026Y-75271227D01*
X106046907Y-75309282D01*
X105976822Y-75332054D01*
X105976819Y-75332055D01*
X105915369Y-75363365D01*
X105895263Y-75371481D01*
X105878516Y-75376590D01*
X105878511Y-75376592D01*
X105128864Y-75728471D01*
X105059813Y-75739138D01*
X104995957Y-75710779D01*
X104988494Y-75703903D01*
X104574426Y-75289835D01*
X104574421Y-75289830D01*
X104553274Y-75261579D01*
X104540667Y-75238490D01*
X104525500Y-75179065D01*
X104525500Y-73565552D01*
X104530522Y-73530619D01*
X104534433Y-73517300D01*
X104544396Y-73501796D01*
X104545053Y-73497837D01*
X104551568Y-73490636D01*
X104572206Y-73458523D01*
X104586556Y-73451969D01*
X104591932Y-73446028D01*
X104610645Y-73440967D01*
X104635758Y-73429498D01*
X104639070Y-73429022D01*
X104651142Y-73430016D01*
X104659378Y-73427789D01*
X104694194Y-73433560D01*
X104695741Y-73434051D01*
X104712452Y-73442076D01*
X104712939Y-73441071D01*
X104719453Y-73444226D01*
X104721450Y-73445218D01*
X104725211Y-73446279D01*
X104922764Y-73510468D01*
X105132720Y-73543722D01*
X105132721Y-73543722D01*
X105345293Y-73543722D01*
X105345294Y-73543722D01*
X105555250Y-73510468D01*
X105757419Y-73444779D01*
X105946823Y-73348273D01*
X105968796Y-73332308D01*
X106118793Y-73223331D01*
X106118793Y-73223330D01*
X106118851Y-73223288D01*
X106119612Y-73222512D01*
X106269111Y-73073014D01*
X106269113Y-73073010D01*
X106269116Y-73073008D01*
X106394056Y-72901041D01*
X106394059Y-72901034D01*
X106396600Y-72896889D01*
X106397039Y-72897158D01*
X106413737Y-72873472D01*
X106425470Y-72861050D01*
X106483245Y-72826496D01*
X106493422Y-72823744D01*
X106496096Y-72823021D01*
X106528462Y-72818722D01*
X114664940Y-72818722D01*
X114699872Y-72823743D01*
G37*
%TD.AperFunction*%
%TA.AperFunction,Conductor*%
G36*
X92266882Y-90207752D02*
G01*
X92323156Y-90249164D01*
X92348108Y-90314426D01*
X92348500Y-90324284D01*
X92348500Y-90895760D01*
X92348499Y-90895766D01*
X92348500Y-90895769D01*
X92343475Y-90930704D01*
X92339070Y-90945702D01*
X92301303Y-91004467D01*
X92288305Y-91015731D01*
X92279881Y-91021457D01*
X91771651Y-91529689D01*
X91710328Y-91563174D01*
X91640637Y-91558190D01*
X91584703Y-91516319D01*
X91576583Y-91504009D01*
X91556937Y-91469981D01*
X91477809Y-91390853D01*
X91477807Y-91390852D01*
X91477805Y-91390850D01*
X91443778Y-91371205D01*
X91395562Y-91320638D01*
X91382340Y-91252031D01*
X91408308Y-91187166D01*
X91418089Y-91176145D01*
X91906978Y-90687257D01*
X91906978Y-90687256D01*
X91899256Y-90681646D01*
X91871998Y-90661842D01*
X91871996Y-90661841D01*
X91696690Y-90572517D01*
X91696684Y-90572515D01*
X91661088Y-90560950D01*
X91603412Y-90521514D01*
X91576213Y-90457155D01*
X91588127Y-90388309D01*
X91635371Y-90336832D01*
X91672053Y-90322073D01*
X92197154Y-90203337D01*
X92266882Y-90207752D01*
G37*
%TD.AperFunction*%
%TA.AperFunction,Conductor*%
G36*
X118395006Y-85744510D02*
G01*
X118436869Y-85800442D01*
X118439551Y-85807634D01*
X118447367Y-85850961D01*
X118447367Y-87032660D01*
X118442341Y-87067607D01*
X118439329Y-87077861D01*
X118432763Y-87088074D01*
X118430438Y-87099991D01*
X118414222Y-87116918D01*
X118401548Y-87136635D01*
X118390504Y-87141677D01*
X118382104Y-87150446D01*
X118359311Y-87155918D01*
X118337989Y-87165654D01*
X118325970Y-87163924D01*
X118314166Y-87166759D01*
X118292035Y-87159041D01*
X118268832Y-87155703D01*
X118258022Y-87147181D01*
X118248192Y-87143753D01*
X118222706Y-87119338D01*
X118220272Y-87116228D01*
X118207441Y-87096107D01*
X118154624Y-86992449D01*
X118115270Y-86938282D01*
X118115269Y-86938282D01*
X118115268Y-86938282D01*
X117609702Y-87443849D01*
X117548379Y-87477334D01*
X117478687Y-87472350D01*
X117422754Y-87430478D01*
X117414634Y-87418169D01*
X117400099Y-87392993D01*
X117307007Y-87299901D01*
X117307004Y-87299899D01*
X117307000Y-87299896D01*
X117281828Y-87285363D01*
X117233613Y-87234796D01*
X117220391Y-87166189D01*
X117246359Y-87101324D01*
X117256135Y-87090310D01*
X117761716Y-86584728D01*
X117734296Y-86564807D01*
X117707550Y-86545375D01*
X117707548Y-86545374D01*
X117518216Y-86448903D01*
X117518214Y-86448902D01*
X117332551Y-86388578D01*
X117300881Y-86373007D01*
X117289191Y-86365014D01*
X117244961Y-86310926D01*
X117235681Y-86251508D01*
X117235957Y-86248450D01*
X117237377Y-86244847D01*
X117236995Y-86241512D01*
X117245573Y-86224063D01*
X117261588Y-86183451D01*
X117271766Y-86171923D01*
X117320340Y-86123350D01*
X117360624Y-86058036D01*
X117365215Y-86052994D01*
X117366615Y-86049199D01*
X117386586Y-86029522D01*
X117391478Y-86024149D01*
X117392543Y-86023345D01*
X117398266Y-86019224D01*
X117399619Y-86018006D01*
X117403647Y-86014968D01*
X117412324Y-86011694D01*
X117450862Y-85993037D01*
X117457630Y-85991499D01*
X117459477Y-85991080D01*
X117486941Y-85988000D01*
X117799107Y-85988000D01*
X117859529Y-85975981D01*
X117919952Y-85963963D01*
X117964644Y-85945451D01*
X118033786Y-85916812D01*
X118087251Y-85881087D01*
X118136233Y-85848358D01*
X118223104Y-85761486D01*
X118251358Y-85740342D01*
X118261270Y-85734931D01*
X118329544Y-85720086D01*
X118395006Y-85744510D01*
G37*
%TD.AperFunction*%
%TA.AperFunction,Conductor*%
G36*
X101313898Y-73104161D02*
G01*
X101313905Y-73104165D01*
X101317578Y-73106915D01*
X101359442Y-73162843D01*
X101366756Y-73182452D01*
X101405209Y-73285550D01*
X101405213Y-73285557D01*
X101413241Y-73296281D01*
X101491457Y-73400764D01*
X101491459Y-73400766D01*
X101491462Y-73400769D01*
X101606671Y-73487015D01*
X101606678Y-73487019D01*
X101741524Y-73537313D01*
X101741523Y-73537313D01*
X101748451Y-73538057D01*
X101801134Y-73543722D01*
X103132670Y-73543721D01*
X103166276Y-73548553D01*
X103167604Y-73548744D01*
X103182603Y-73553148D01*
X103241381Y-73590922D01*
X103241390Y-73590932D01*
X103242576Y-73592301D01*
X103270018Y-73647123D01*
X103271663Y-73654681D01*
X103274500Y-73681052D01*
X103274500Y-75438393D01*
X103274500Y-75561607D01*
X103274500Y-75561608D01*
X103274499Y-75561608D01*
X103275078Y-75564515D01*
X103275077Y-75564515D01*
X103286517Y-75622030D01*
X103295756Y-75668473D01*
X103296213Y-75670770D01*
X103296706Y-75673248D01*
X103298537Y-75682451D01*
X103340581Y-75783958D01*
X103345688Y-75796286D01*
X103345689Y-75796288D01*
X103345690Y-75796289D01*
X103345690Y-75796290D01*
X103346824Y-75797987D01*
X103346830Y-75798000D01*
X103346893Y-75798091D01*
X103351196Y-75804530D01*
X103363237Y-75822551D01*
X103363258Y-75822581D01*
X103365209Y-75825500D01*
X103365211Y-75825503D01*
X103414140Y-75898731D01*
X103414141Y-75898732D01*
X103414142Y-75898733D01*
X103501267Y-75985858D01*
X103501268Y-75985858D01*
X103508335Y-75992925D01*
X103508334Y-75992925D01*
X103508338Y-75992928D01*
X103511850Y-75996440D01*
X104492195Y-76976788D01*
X104492200Y-76976792D01*
X104492204Y-76976795D01*
X104594647Y-77045246D01*
X104594648Y-77045246D01*
X104595670Y-77045929D01*
X104600259Y-77047571D01*
X104661332Y-77072868D01*
X104661334Y-77072870D01*
X104708480Y-77092398D01*
X104708485Y-77092400D01*
X104728534Y-77096388D01*
X104793562Y-77109323D01*
X104793564Y-77109323D01*
X104815082Y-77113603D01*
X104827959Y-77116165D01*
X104856454Y-77125533D01*
X105878512Y-77605280D01*
X105901410Y-77614952D01*
X105915010Y-77620697D01*
X105915021Y-77620699D01*
X105917816Y-77621591D01*
X105918969Y-77622370D01*
X105920212Y-77622895D01*
X105920108Y-77623139D01*
X105923655Y-77625535D01*
X105936459Y-77629252D01*
X105976823Y-77649819D01*
X105976825Y-77649819D01*
X105976828Y-77649821D01*
X106019801Y-77663784D01*
X106034287Y-77673577D01*
X106050384Y-77678619D01*
X106051414Y-77679315D01*
X106060807Y-77685739D01*
X106071351Y-77698633D01*
X106076638Y-77702207D01*
X106083878Y-77710872D01*
X106086743Y-77717455D01*
X106105036Y-77739827D01*
X106108100Y-77766537D01*
X106111757Y-77774939D01*
X106110180Y-77784660D01*
X106113001Y-77809241D01*
X106102844Y-77829898D01*
X106100573Y-77843907D01*
X106090378Y-77855253D01*
X106082174Y-77871940D01*
X106082161Y-77871956D01*
X106080066Y-77874238D01*
X106064112Y-77884488D01*
X106053878Y-77895881D01*
X106040804Y-77899465D01*
X106027043Y-77908309D01*
X105996023Y-77918388D01*
X105996011Y-77918393D01*
X105941178Y-77946332D01*
X105920305Y-77954680D01*
X105905061Y-77959223D01*
X105905056Y-77959225D01*
X104963084Y-78394022D01*
X104952318Y-78396386D01*
X104946052Y-78400414D01*
X104911117Y-78405437D01*
X104747029Y-78405437D01*
X104712093Y-78400414D01*
X104686851Y-78393002D01*
X104634106Y-78361706D01*
X100040410Y-73768010D01*
X100019261Y-73739760D01*
X100015390Y-73732671D01*
X100013839Y-73729830D01*
X100010047Y-73712401D01*
X100001499Y-73696740D01*
X100002773Y-73678966D01*
X99998986Y-73661560D01*
X100005219Y-73644846D01*
X100006495Y-73627049D01*
X100017174Y-73612787D01*
X100023400Y-73596095D01*
X100037682Y-73585402D01*
X100048376Y-73571123D01*
X100079311Y-73554237D01*
X100079329Y-73554223D01*
X100083209Y-73552776D01*
X100086545Y-73551533D01*
X100129859Y-73543722D01*
X100265293Y-73543722D01*
X100265294Y-73543722D01*
X100475250Y-73510468D01*
X100677419Y-73444779D01*
X100866823Y-73348273D01*
X100938373Y-73296289D01*
X101035331Y-73225845D01*
X101037543Y-73224353D01*
X101040989Y-73221733D01*
X101046836Y-73217484D01*
X101052671Y-73209453D01*
X101139732Y-73122391D01*
X101167980Y-73101245D01*
X101180163Y-73094593D01*
X101248434Y-73079743D01*
X101313898Y-73104161D01*
G37*
%TD.AperFunction*%
%TA.AperFunction,Conductor*%
G36*
X113393080Y-66846145D02*
G01*
X113412060Y-66851718D01*
X113465614Y-66883829D01*
X113471766Y-66890096D01*
X113488815Y-66911864D01*
X113526181Y-66972443D01*
X113526183Y-66972445D01*
X113528667Y-66976472D01*
X113535551Y-66983356D01*
X113539176Y-66987711D01*
X113541658Y-66993444D01*
X113555021Y-67012070D01*
X113560997Y-67024154D01*
X113566019Y-67049716D01*
X113566934Y-67051830D01*
X113566706Y-67053215D01*
X113573531Y-67087952D01*
X113573394Y-67089871D01*
X113554026Y-67148079D01*
X113549845Y-67154585D01*
X113533209Y-67175228D01*
X113528670Y-67179767D01*
X113528668Y-67179768D01*
X113438101Y-67326599D01*
X113438100Y-67326603D01*
X113438099Y-67326606D01*
X113433939Y-67339160D01*
X113394884Y-67457017D01*
X113394878Y-67457036D01*
X113383833Y-67490369D01*
X113383833Y-67490370D01*
X113383832Y-67490370D01*
X113383062Y-67497901D01*
X113383061Y-67497907D01*
X113373507Y-67591427D01*
X113373507Y-67591437D01*
X113373507Y-68289791D01*
X113373508Y-68289809D01*
X113373510Y-68289833D01*
X113373511Y-68289840D01*
X113383831Y-68390870D01*
X113383831Y-68390872D01*
X113383832Y-68390874D01*
X113438099Y-68554637D01*
X113438100Y-68554640D01*
X113445182Y-68566122D01*
X113528667Y-68701472D01*
X113650657Y-68823462D01*
X113797491Y-68914030D01*
X113961254Y-68968296D01*
X114062330Y-68978622D01*
X114635683Y-68978621D01*
X114635691Y-68978620D01*
X114635694Y-68978620D01*
X114635702Y-68978619D01*
X114635992Y-68978601D01*
X114637008Y-68978485D01*
X114681349Y-68973955D01*
X114691038Y-68972966D01*
X114691038Y-68972965D01*
X114736760Y-68968296D01*
X114900523Y-68914030D01*
X115047357Y-68823462D01*
X115169347Y-68701472D01*
X115169349Y-68701469D01*
X115185969Y-68674523D01*
X115185975Y-68674512D01*
X115207147Y-68640188D01*
X115229756Y-68613102D01*
X115244467Y-68599871D01*
X115299907Y-68571151D01*
X115308478Y-68569203D01*
X115335950Y-68566122D01*
X116612340Y-68566122D01*
X116633778Y-68569204D01*
X116647272Y-68571143D01*
X116672516Y-68578556D01*
X116725262Y-68609852D01*
X117647440Y-69532030D01*
X117668590Y-69560282D01*
X117681198Y-69583371D01*
X117696367Y-69642800D01*
X117696367Y-73694584D01*
X117691343Y-73729522D01*
X117688156Y-73740375D01*
X117650381Y-73799152D01*
X117586824Y-73828175D01*
X117517674Y-73818234D01*
X117510696Y-73815047D01*
X117474524Y-73789933D01*
X115489213Y-71804623D01*
X115486150Y-71801560D01*
X115486147Y-71801556D01*
X115486147Y-71801557D01*
X115479080Y-71794490D01*
X115479080Y-71794489D01*
X115391955Y-71707364D01*
X115391954Y-71707363D01*
X115391953Y-71707362D01*
X115335258Y-71669480D01*
X115289508Y-71638910D01*
X115289505Y-71638908D01*
X115289504Y-71638908D01*
X115289503Y-71638907D01*
X115289501Y-71638906D01*
X115289393Y-71638834D01*
X115289391Y-71638832D01*
X115288469Y-71638216D01*
X115283851Y-71636565D01*
X115187960Y-71596846D01*
X115187897Y-71596822D01*
X115182253Y-71594484D01*
X115182252Y-71594483D01*
X115175679Y-71591760D01*
X115175666Y-71591756D01*
X115115283Y-71579746D01*
X115115277Y-71579745D01*
X115115245Y-71579738D01*
X115114683Y-71579627D01*
X115113932Y-71579477D01*
X115106800Y-71578058D01*
X115106785Y-71578056D01*
X115054832Y-71567722D01*
X115054831Y-71567722D01*
X106529818Y-71567722D01*
X106529813Y-71567721D01*
X106529812Y-71567722D01*
X106494878Y-71562698D01*
X106478496Y-71557887D01*
X106421485Y-71522103D01*
X106412557Y-71512235D01*
X106396827Y-71489409D01*
X106396598Y-71489550D01*
X106394059Y-71485407D01*
X106394057Y-71485404D01*
X106394056Y-71485402D01*
X106269116Y-71313435D01*
X106118793Y-71163112D01*
X105946827Y-71038173D01*
X105890871Y-71009662D01*
X105779252Y-70952789D01*
X105779247Y-70952787D01*
X105757421Y-70941666D01*
X105757420Y-70941665D01*
X105757419Y-70941665D01*
X105643487Y-70904646D01*
X105564081Y-70878845D01*
X105559559Y-70876992D01*
X105550369Y-70874822D01*
X105545606Y-70874448D01*
X105393964Y-70850430D01*
X105371757Y-70846913D01*
X105345297Y-70842722D01*
X105345294Y-70842722D01*
X105132720Y-70842722D01*
X105132716Y-70842722D01*
X105099544Y-70847976D01*
X105084049Y-70850430D01*
X105064650Y-70853502D01*
X104922766Y-70875974D01*
X104769761Y-70925689D01*
X104720591Y-70941666D01*
X104720588Y-70941667D01*
X104720580Y-70941670D01*
X104716082Y-70943533D01*
X104715896Y-70943085D01*
X104688271Y-70952496D01*
X104676380Y-70954729D01*
X104674635Y-70955056D01*
X104605115Y-70948086D01*
X104550406Y-70904646D01*
X104548559Y-70902026D01*
X104548479Y-70901912D01*
X104527482Y-70850683D01*
X104527160Y-70848738D01*
X104525500Y-70828516D01*
X104525500Y-67828281D01*
X104530522Y-67793348D01*
X104537934Y-67768103D01*
X104569228Y-67715361D01*
X105394544Y-66890045D01*
X105422794Y-66868897D01*
X105445886Y-66856289D01*
X105505311Y-66841122D01*
X113358145Y-66841122D01*
X113393080Y-66846145D01*
G37*
%TD.AperFunction*%
%TD*%
%TA.AperFunction,Conductor*%
%TO.N,SPI_SCK*%
G36*
X90892101Y-78423242D02*
G01*
X91218206Y-79025365D01*
X91219133Y-79034272D01*
X91218206Y-79036509D01*
X90892101Y-79638631D01*
X90885148Y-79644274D01*
X90876910Y-79643682D01*
X89827021Y-79159074D01*
X89820945Y-79152495D01*
X89820224Y-79148451D01*
X89820224Y-78913422D01*
X89823651Y-78905149D01*
X89827018Y-78902800D01*
X90876911Y-78418190D01*
X90885857Y-78417835D01*
X90892101Y-78423242D01*
G37*
%TD.AperFunction*%
%TD*%
%TA.AperFunction,Conductor*%
%TO.N,VIN*%
G36*
X91934558Y-91948651D02*
G01*
X91616853Y-93227326D01*
X90816853Y-93227326D01*
X90499148Y-91948651D01*
X91216853Y-91726326D01*
X91934558Y-91948651D01*
G37*
%TD.AperFunction*%
%TD*%
%TA.AperFunction,Conductor*%
%TO.N,GPIO43*%
G36*
X106108564Y-75839209D02*
G01*
X106458447Y-76485366D01*
X106459372Y-76494273D01*
X106458447Y-76496508D01*
X106108564Y-77142664D01*
X106101611Y-77148307D01*
X106093305Y-77147684D01*
X105619054Y-76925074D01*
X104967193Y-76619095D01*
X104961160Y-76612478D01*
X104960464Y-76608504D01*
X104960464Y-76373369D01*
X104963891Y-76365096D01*
X104967191Y-76362779D01*
X106093307Y-75834188D01*
X106102249Y-75833776D01*
X106108564Y-75839209D01*
G37*
%TD.AperFunction*%
%TD*%
%TA.AperFunction,Conductor*%
%TO.N,SPI_MOSI*%
G36*
X90868564Y-83459209D02*
G01*
X91218447Y-84105366D01*
X91219372Y-84114273D01*
X91218447Y-84116508D01*
X90868564Y-84762664D01*
X90861611Y-84768307D01*
X90853305Y-84767684D01*
X90379054Y-84545074D01*
X89727193Y-84239095D01*
X89721160Y-84232478D01*
X89720464Y-84228504D01*
X89720464Y-83993369D01*
X89723891Y-83985096D01*
X89727191Y-83982779D01*
X90853307Y-83454188D01*
X90862249Y-83453776D01*
X90868564Y-83459209D01*
G37*
%TD.AperFunction*%
%TD*%
%TA.AperFunction,Conductor*%
%TO.N,SCL*%
G36*
X106132101Y-78423242D02*
G01*
X106458206Y-79025365D01*
X106459133Y-79034272D01*
X106458206Y-79036509D01*
X106132101Y-79638631D01*
X106125148Y-79644274D01*
X106116910Y-79643682D01*
X105067021Y-79159074D01*
X105060945Y-79152495D01*
X105060224Y-79148451D01*
X105060224Y-78913422D01*
X105063651Y-78905149D01*
X105067018Y-78902800D01*
X106116911Y-78418190D01*
X106125857Y-78417835D01*
X106132101Y-78423242D01*
G37*
%TD.AperFunction*%
%TD*%
%TA.AperFunction,Conductor*%
%TO.N,AGND*%
G36*
X92604363Y-88788875D02*
G01*
X92611676Y-88794041D01*
X92613482Y-88800286D01*
X92613482Y-89581587D01*
X92610055Y-89589860D01*
X92604362Y-89592999D01*
X91430605Y-89858408D01*
X91421780Y-89856890D01*
X91416849Y-89850459D01*
X91337069Y-89592999D01*
X91213555Y-89194399D01*
X91213555Y-89187474D01*
X91416849Y-88531413D01*
X91422571Y-88524526D01*
X91430604Y-88523465D01*
X92604363Y-88788875D01*
G37*
%TD.AperFunction*%
%TD*%
%TA.AperFunction,Conductor*%
%TO.N,SPI_MISO*%
G36*
X90868564Y-80919209D02*
G01*
X91218447Y-81565366D01*
X91219372Y-81574273D01*
X91218447Y-81576508D01*
X90868564Y-82222664D01*
X90861611Y-82228307D01*
X90853305Y-82227684D01*
X90379054Y-82005074D01*
X89727193Y-81699095D01*
X89721160Y-81692478D01*
X89720464Y-81688504D01*
X89720464Y-81453369D01*
X89723891Y-81445096D01*
X89727191Y-81442779D01*
X90853307Y-80914188D01*
X90862249Y-80913776D01*
X90868564Y-80919209D01*
G37*
%TD.AperFunction*%
%TD*%
M02*
