%TF.GenerationSoftware,KiCad,Pcbnew,10.0.1*%
%TF.CreationDate,2026-05-18T01:38:09+09:00*%
%TF.ProjectId,core-XIAO-02,636f7265-2d58-4494-914f-2d30322e6b69,rev?*%
%TF.SameCoordinates,Original*%
%TF.FileFunction,Soldermask,Bot*%
%TF.FilePolarity,Negative*%
%FSLAX46Y46*%
G04 Gerber Fmt 4.6, Leading zero omitted, Abs format (unit mm)*
G04 Created by KiCad (PCBNEW 10.0.1) date 2026-05-18 01:38:09*
%MOMM*%
%LPD*%
G01*
G04 APERTURE LIST*
G04 Aperture macros list*
%AMRoundRect*
0 Rectangle with rounded corners*
0 $1 Rounding radius*
0 $2 $3 $4 $5 $6 $7 $8 $9 X,Y pos of 4 corners*
0 Add a 4 corners polygon primitive as box body*
4,1,4,$2,$3,$4,$5,$6,$7,$8,$9,$2,$3,0*
0 Add four circle primitives for the rounded corners*
1,1,$1+$1,$2,$3*
1,1,$1+$1,$4,$5*
1,1,$1+$1,$6,$7*
1,1,$1+$1,$8,$9*
0 Add four rect primitives between the rounded corners*
20,1,$1+$1,$2,$3,$4,$5,0*
20,1,$1+$1,$4,$5,$6,$7,0*
20,1,$1+$1,$6,$7,$8,$9,0*
20,1,$1+$1,$8,$9,$2,$3,0*%
%AMFreePoly0*
4,1,17,0.328621,0.767961,0.767961,0.328621,0.775400,0.310660,0.775400,-0.310660,0.767961,-0.328621,0.328621,-0.767961,0.310660,-0.775400,-0.310660,-0.775400,-0.328621,-0.767961,-0.767961,-0.328621,-0.775400,-0.310660,-0.775400,0.310660,-0.767961,0.328621,-0.328621,0.767961,-0.310660,0.775400,0.310660,0.775400,0.328621,0.767961,0.328621,0.767961,$1*%
G04 Aperture macros list end*
%ADD10C,1.700000*%
%ADD11R,1.350000X1.350000*%
%ADD12C,1.350000*%
%ADD13FreePoly0,180.000000*%
%ADD14C,1.550800*%
%ADD15C,1.524000*%
%ADD16R,1.700000X1.700000*%
%ADD17RoundRect,0.225000X-0.250000X0.225000X-0.250000X-0.225000X0.250000X-0.225000X0.250000X0.225000X0*%
%ADD18RoundRect,0.150000X0.875000X0.150000X-0.875000X0.150000X-0.875000X-0.150000X0.875000X-0.150000X0*%
%ADD19RoundRect,0.237500X-0.300000X-0.237500X0.300000X-0.237500X0.300000X0.237500X-0.300000X0.237500X0*%
G04 APERTURE END LIST*
D10*
%TO.C,J13*%
X116500000Y-80800000D03*
%TD*%
D11*
%TO.C,J15*%
X112300000Y-92100000D03*
D12*
X112300000Y-90100000D03*
%TD*%
D11*
%TO.C,J7*%
X93300000Y-65000000D03*
D12*
X93300000Y-63000000D03*
X93300000Y-61000000D03*
%TD*%
D11*
%TO.C,J3*%
X83750000Y-83500000D03*
D12*
X83750000Y-85500000D03*
X83750000Y-87500000D03*
X83750000Y-89500000D03*
X83750000Y-91500000D03*
%TD*%
D11*
%TO.C,J5*%
X112300000Y-86100000D03*
D12*
X112300000Y-84100000D03*
%TD*%
D11*
%TO.C,J1*%
X85650000Y-74650000D03*
D12*
X85650000Y-76650000D03*
X85650000Y-78650000D03*
%TD*%
D11*
%TO.C,J6*%
X81250000Y-65000000D03*
D12*
X81250000Y-63000000D03*
%TD*%
D11*
%TO.C,J11*%
X86300000Y-65000000D03*
D12*
X86300000Y-63000000D03*
X86300000Y-61000000D03*
%TD*%
D10*
%TO.C,J12*%
X117000000Y-87700000D03*
%TD*%
D13*
%TO.C,U2*%
X106456853Y-91730937D03*
D14*
X106456853Y-86650937D03*
X106456853Y-84110937D03*
X106456853Y-81570937D03*
X106456853Y-76490937D03*
D15*
X91216853Y-76490937D03*
D14*
X91216853Y-81570937D03*
X91216853Y-84110937D03*
X91216853Y-86650937D03*
X91216853Y-91730937D03*
%TD*%
D16*
%TO.C,J14*%
X83900000Y-68100000D03*
%TD*%
D11*
%TO.C,J10*%
X96700000Y-65000000D03*
D12*
X96700000Y-63000000D03*
X96700000Y-61000000D03*
%TD*%
D11*
%TO.C,J8*%
X89800000Y-65000000D03*
D12*
X89800000Y-63000000D03*
X89800000Y-61000000D03*
%TD*%
D17*
%TO.C,R5*%
X87500000Y-70750000D03*
X87500000Y-72300000D03*
%TD*%
D18*
%TO.C,IC1*%
X103496161Y-79629907D03*
X103496161Y-80899907D03*
X103496161Y-82169907D03*
X103496161Y-83439907D03*
X103496161Y-84709907D03*
X103496161Y-85979907D03*
X103496161Y-87249907D03*
X103496161Y-88519907D03*
X103496161Y-89789907D03*
X103496161Y-91059907D03*
X94196161Y-91059907D03*
X94196161Y-89789907D03*
X94196161Y-88519907D03*
X94196161Y-87249907D03*
X94196161Y-85979907D03*
X94196161Y-84709907D03*
X94196161Y-83439907D03*
X94196161Y-82169907D03*
X94196161Y-80899907D03*
X94196161Y-79629907D03*
%TD*%
D17*
%TO.C,R4*%
X93500000Y-70750000D03*
X93500000Y-72300000D03*
%TD*%
%TO.C,R3*%
X89500000Y-70750000D03*
X89500000Y-72300000D03*
%TD*%
D10*
%TO.C,J9*%
X105239007Y-72193222D03*
D16*
X102699007Y-72193222D03*
D10*
X100159007Y-72193222D03*
X97619007Y-72193222D03*
%TD*%
D17*
%TO.C,R2*%
X91500000Y-70750000D03*
X91500000Y-72300000D03*
%TD*%
D19*
%TO.C,FB1*%
X97767977Y-68492977D03*
X99492977Y-68492977D03*
%TD*%
M02*
