M48
; DRILL file KiCad 10.0.1 date 2026-05-18T01:38:09
; FORMAT={-:-/ absolute / inch / decimal}
; #@! TF.CreationDate,2026-05-18T01:38:09+09:00
; #@! TF.GenerationSoftware,Kicad,Pcbnew,10.0.1
; #@! TF.FileFunction,Plated,1,2,PTH
FMAT,2
INCH
; #@! TA.AperFunction,Plated,PTH,ViaDrill
T1C0.0118
; #@! TA.AperFunction,Plated,PTH,ComponentDrill
T2C0.0315
; #@! TA.AperFunction,Plated,PTH,ComponentDrill
T3C0.0335
; #@! TA.AperFunction,Plated,PTH,ComponentDrill
T4C0.0350
; #@! TA.AperFunction,Plated,PTH,ComponentDrill
T5C0.0394
%
G90
G05
T1
X3.5354Y-2.6378
X3.6715Y-2.6378
X3.7106Y-3.0906
X3.7402Y-3.061
X3.867Y-2.3417
X3.9469Y-3.061
X4.0157Y-2.3417
X4.0209Y-3.135
X4.0747Y-3.0021
X4.1299Y-2.3417
X4.1339Y-2.9429
X4.2157Y-2.3417
X4.2402Y-2.9429
X4.2708Y-2.3968
X4.2708Y-2.4873
X4.378Y-2.6535
X4.3799Y-2.9429
X4.3799Y-3.063
X4.3799Y-3.1693
X4.3819Y-2.7874
X4.5019Y-2.6748
T2
X3.1988Y-2.4803
X3.1988Y-2.5591
X3.2972Y-3.2874
X3.2972Y-3.3661
X3.2972Y-3.4449
X3.2972Y-3.5236
X3.2972Y-3.6024
X3.372Y-2.939
X3.372Y-3.0177
X3.372Y-3.0965
X3.3976Y-2.4016
X3.3976Y-2.4803
X3.3976Y-2.5591
X3.5354Y-2.4016
X3.5354Y-2.4803
X3.5354Y-2.5591
X3.6732Y-2.4016
X3.6732Y-2.4803
X3.6732Y-2.5591
X3.8071Y-2.4016
X3.8071Y-2.4803
X3.8071Y-2.5591
X4.4213Y-3.311
X4.4213Y-3.3898
X4.4213Y-3.5472
X4.4213Y-3.626
T3
X3.5912Y-3.1115
X3.5912Y-3.2115
X3.5912Y-3.3115
X3.5912Y-3.4115
X3.5912Y-3.5115
X3.5912Y-3.6115
X4.1912Y-3.0115
X4.1912Y-3.1115
X4.1912Y-3.2115
X4.1912Y-3.3115
X4.1912Y-3.4115
X4.1912Y-3.5115
X4.1912Y-3.6115
T4
X3.5912Y-3.0115
T5
X3.3031Y-2.6811
X3.8433Y-2.8423
X3.9433Y-2.8423
X4.0433Y-2.8423
X4.1433Y-2.8423
X4.5866Y-3.1811
X4.6063Y-3.4528
M30
