%TF.GenerationSoftware,KiCad,Pcbnew,10.0.1*%
%TF.CreationDate,2026-05-18T01:38:09+09:00*%
%TF.ProjectId,core-XIAO-02,636f7265-2d58-4494-914f-2d30322e6b69,rev?*%
%TF.SameCoordinates,Original*%
%TF.FileFunction,Copper,L2,Bot*%
%TF.FilePolarity,Positive*%
%FSLAX46Y46*%
G04 Gerber Fmt 4.6, Leading zero omitted, Abs format (unit mm)*
G04 Created by KiCad (PCBNEW 10.0.1) date 2026-05-18 01:38:09*
%MOMM*%
%LPD*%
G01*
G04 APERTURE LIST*
G04 Aperture macros list*
%AMRoundRect*
0 Rectangle with rounded corners*
0 $1 Rounding radius*
0 $2 $3 $4 $5 $6 $7 $8 $9 X,Y pos of 4 corners*
0 Add a 4 corners polygon primitive as box body*
4,1,4,$2,$3,$4,$5,$6,$7,$8,$9,$2,$3,0*
0 Add four circle primitives for the rounded corners*
1,1,$1+$1,$2,$3*
1,1,$1+$1,$4,$5*
1,1,$1+$1,$6,$7*
1,1,$1+$1,$8,$9*
0 Add four rect primitives between the rounded corners*
20,1,$1+$1,$2,$3,$4,$5,0*
20,1,$1+$1,$4,$5,$6,$7,0*
20,1,$1+$1,$6,$7,$8,$9,0*
20,1,$1+$1,$8,$9,$2,$3,0*%
%AMOutline5P*
0 Free polygon, 5 corners , with rotation*
0 The origin of the aperture is its center*
0 number of corners: always 5*
0 $1 to $10 corner X, Y*
0 $11 Rotation angle, in degrees counterclockwise*
0 create outline with 5 corners*
4,1,5,$1,$2,$3,$4,$5,$6,$7,$8,$9,$10,$1,$2,$11*%
%AMOutline6P*
0 Free polygon, 6 corners , with rotation*
0 The origin of the aperture is its center*
0 number of corners: always 6*
0 $1 to $12 corner X, Y*
0 $13 Rotation angle, in degrees counterclockwise*
0 create outline with 6 corners*
4,1,6,$1,$2,$3,$4,$5,$6,$7,$8,$9,$10,$11,$12,$1,$2,$13*%
%AMOutline7P*
0 Free polygon, 7 corners , with rotation*
0 The origin of the aperture is its center*
0 number of corners: always 7*
0 $1 to $14 corner X, Y*
0 $15 Rotation angle, in degrees counterclockwise*
0 create outline with 7 corners*
4,1,7,$1,$2,$3,$4,$5,$6,$7,$8,$9,$10,$11,$12,$13,$14,$1,$2,$15*%
%AMOutline8P*
0 Free polygon, 8 corners , with rotation*
0 The origin of the aperture is its center*
0 number of corners: always 8*
0 $1 to $16 corner X, Y*
0 $17 Rotation angle, in degrees counterclockwise*
0 create outline with 8 corners*
4,1,8,$1,$2,$3,$4,$5,$6,$7,$8,$9,$10,$11,$12,$13,$14,$15,$16,$1,$2,$17*%
G04 Aperture macros list end*
%TA.AperFunction,ComponentPad*%
%ADD10C,1.700000*%
%TD*%
%TA.AperFunction,ComponentPad*%
%ADD11R,1.350000X1.350000*%
%TD*%
%TA.AperFunction,ComponentPad*%
%ADD12C,1.350000*%
%TD*%
%TA.AperFunction,ComponentPad*%
%ADD13Outline8P,-0.750000X0.310660X-0.310660X0.750000X0.310660X0.750000X0.750000X0.310660X0.750000X-0.310660X0.310660X-0.750000X-0.310660X-0.750000X-0.750000X-0.310660X180.000000*%
%TD*%
%TA.AperFunction,ComponentPad*%
%ADD14C,1.400000*%
%TD*%
%TA.AperFunction,ComponentPad*%
%ADD15C,1.500000*%
%TD*%
%TA.AperFunction,ComponentPad*%
%ADD16C,1.524000*%
%TD*%
%TA.AperFunction,ComponentPad*%
%ADD17R,1.700000X1.700000*%
%TD*%
%TA.AperFunction,SMDPad,CuDef*%
%ADD18RoundRect,0.225000X-0.250000X0.225000X-0.250000X-0.225000X0.250000X-0.225000X0.250000X0.225000X0*%
%TD*%
%TA.AperFunction,SMDPad,CuDef*%
%ADD19RoundRect,0.150000X0.875000X0.150000X-0.875000X0.150000X-0.875000X-0.150000X0.875000X-0.150000X0*%
%TD*%
%TA.AperFunction,SMDPad,CuDef*%
%ADD20RoundRect,0.237500X-0.300000X-0.237500X0.300000X-0.237500X0.300000X0.237500X-0.300000X0.237500X0*%
%TD*%
%TA.AperFunction,ViaPad*%
%ADD21C,0.600000*%
%TD*%
%TA.AperFunction,Conductor*%
%ADD22C,0.250000*%
%TD*%
%TA.AperFunction,Conductor*%
%ADD23C,0.800000*%
%TD*%
%TA.AperFunction,Conductor*%
%ADD24C,0.200000*%
%TD*%
%TA.AperFunction,Conductor*%
%ADD25C,1.000000*%
%TD*%
G04 APERTURE END LIST*
D10*
%TO.P,J13,1,Pin_1_1*%
%TO.N,3V3*%
X116500000Y-80800000D03*
%TD*%
D11*
%TO.P,J15,1,Pin_1_1*%
%TO.N,AGND*%
X112300000Y-92100000D03*
D12*
%TO.P,J15,2,Pin_2_2*%
%TO.N,VIN*%
X112300000Y-90100000D03*
%TD*%
D11*
%TO.P,J7,1,Pin_1_1*%
%TO.N,PGND*%
X93300000Y-65000000D03*
D12*
%TO.P,J7,2,Pin_2_2*%
%TO.N,Net-(J7-Pin_2)*%
X93300000Y-63000000D03*
%TO.P,J7,3,Pin_3_3*%
%TO.N,VIN*%
X93300000Y-61000000D03*
%TD*%
D11*
%TO.P,J3,1,Pin_1_1*%
%TO.N,AGND*%
X83750000Y-83500000D03*
D12*
%TO.P,J3,2,Pin_2_2*%
%TO.N,3V3*%
X83750000Y-85500000D03*
%TO.P,J3,3,Pin_3_3*%
%TO.N,SPI_SCK*%
X83750000Y-87500000D03*
%TO.P,J3,4,Pin_4_4*%
%TO.N,SPI_MISO*%
X83750000Y-89500000D03*
%TO.P,J3,5,Pin_5_5*%
%TO.N,SPI_MOSI*%
X83750000Y-91500000D03*
%TD*%
D11*
%TO.P,J5,1,Pin_1_1*%
%TO.N,AGND*%
X112300000Y-86100000D03*
D12*
%TO.P,J5,2,Pin_2_2*%
%TO.N,3V3*%
X112300000Y-84100000D03*
%TD*%
D11*
%TO.P,J1,1,Pin_1_1*%
%TO.N,PGND*%
X85650000Y-74650000D03*
D12*
%TO.P,J1,2,Pin_2_2*%
X85650000Y-76650000D03*
%TO.P,J1,3,Pin_3_3*%
%TO.N,VIN*%
X85650000Y-78650000D03*
%TD*%
D11*
%TO.P,J6,1,Pin_1_1*%
%TO.N,PGND*%
X81250000Y-65000000D03*
D12*
%TO.P,J6,2,Pin_2_2*%
%TO.N,VIN*%
X81250000Y-63000000D03*
%TD*%
D11*
%TO.P,J11,1,Pin_1_1*%
%TO.N,PGND*%
X86300000Y-65000000D03*
D12*
%TO.P,J11,2,Pin_2_2*%
%TO.N,Net-(J11-Pin_2)*%
X86300000Y-63000000D03*
%TO.P,J11,3,Pin_3_3*%
%TO.N,VIN*%
X86300000Y-61000000D03*
%TD*%
D10*
%TO.P,J12,1,Pin_1_1*%
%TO.N,VIN*%
X117000000Y-87700000D03*
%TD*%
D13*
%TO.P,U2,1,PA02_A0_D0_1*%
%TO.N,GPIO01*%
X106456853Y-91730937D03*
D14*
%TO.P,U2,2,PA4_A1_D1_2*%
%TO.N,GPIO02*%
X106456853Y-89190937D03*
D15*
%TO.P,U2,3,PA10_A2_D2_3*%
%TO.N,GPIO03*%
X106456853Y-86650937D03*
%TO.P,U2,4,PA11_A3_D3_4*%
%TO.N,GPIO04*%
X106456853Y-84110937D03*
%TO.P,U2,5,PA8_A4_D4_SDA_5*%
%TO.N,SDA*%
X106456853Y-81570937D03*
D14*
%TO.P,U2,6,PA9_A5_D5_SCL_6*%
%TO.N,SCL*%
X106456853Y-79030937D03*
D15*
%TO.P,U2,7,PB08_A6_TX_7*%
%TO.N,GPIO43*%
X106456853Y-76490937D03*
D16*
%TO.P,U2,8,PB09_D7_RX_8*%
%TO.N,GPIO09*%
X91216853Y-76490937D03*
D14*
%TO.P,U2,9,PA7_A8_D8_SCK_9*%
%TO.N,SPI_SCK*%
X91216853Y-79030937D03*
D15*
%TO.P,U2,10,PA5_A9_D9_MISO_10*%
%TO.N,SPI_MISO*%
X91216853Y-81570937D03*
%TO.P,U2,11,PA6_A10_D10_MOSI_11*%
%TO.N,SPI_MOSI*%
X91216853Y-84110937D03*
%TO.P,U2,12,3V3_12*%
%TO.N,3V3*%
X91216853Y-86650937D03*
D14*
%TO.P,U2,13,GND_13*%
%TO.N,AGND*%
X91216853Y-89190937D03*
D15*
%TO.P,U2,14,5V_14*%
%TO.N,VIN*%
X91216853Y-91730937D03*
%TD*%
D17*
%TO.P,J14,1,Pin_1_1*%
%TO.N,PGND*%
X83900000Y-68100000D03*
%TD*%
D11*
%TO.P,J10,1,Pin_1_1*%
%TO.N,PGND*%
X96700000Y-65000000D03*
D12*
%TO.P,J10,2,Pin_2_2*%
%TO.N,Net-(J10-Pin_2)*%
X96700000Y-63000000D03*
%TO.P,J10,3,Pin_3_3*%
%TO.N,VIN*%
X96700000Y-61000000D03*
%TD*%
D11*
%TO.P,J8,1,Pin_1_1*%
%TO.N,PGND*%
X89800000Y-65000000D03*
D12*
%TO.P,J8,2,Pin_2_2*%
%TO.N,Net-(J8-Pin_2)*%
X89800000Y-63000000D03*
%TO.P,J8,3,Pin_3_3*%
%TO.N,VIN*%
X89800000Y-61000000D03*
%TD*%
D18*
%TO.P,R5,1*%
%TO.N,Net-(J11-Pin_2)*%
X87500000Y-70750000D03*
%TO.P,R5,2*%
%TO.N,LED01*%
X87500000Y-72300000D03*
%TD*%
D19*
%TO.P,IC1,1,DIR_1*%
%TO.N,VIN*%
X103496161Y-79629907D03*
%TO.P,IC1,2,A1_2*%
%TO.N,GPIO04*%
X103496161Y-80899907D03*
%TO.P,IC1,3,A2_3*%
%TO.N,AGND*%
X103496161Y-82169907D03*
%TO.P,IC1,4,A3_4*%
%TO.N,GPIO03*%
X103496161Y-83439907D03*
%TO.P,IC1,5,A4_5*%
%TO.N,AGND*%
X103496161Y-84709907D03*
%TO.P,IC1,6,A5_6*%
%TO.N,GPIO02*%
X103496161Y-85979907D03*
%TO.P,IC1,7,A6_7*%
%TO.N,AGND*%
X103496161Y-87249907D03*
%TO.P,IC1,8,A7_8*%
%TO.N,GPIO01*%
X103496161Y-88519907D03*
%TO.P,IC1,9,A8_9*%
%TO.N,AGND*%
X103496161Y-89789907D03*
%TO.P,IC1,10,GND_10*%
X103496161Y-91059907D03*
%TO.P,IC1,11,B8_11*%
X94196161Y-91059907D03*
%TO.P,IC1,12,B7_12*%
%TO.N,LED04*%
X94196161Y-89789907D03*
%TO.P,IC1,13,B6_13*%
%TO.N,AGND*%
X94196161Y-88519907D03*
%TO.P,IC1,14,B5_14*%
%TO.N,LED03*%
X94196161Y-87249907D03*
%TO.P,IC1,15,B4_15*%
%TO.N,AGND*%
X94196161Y-85979907D03*
%TO.P,IC1,16,B3_16*%
%TO.N,LED02*%
X94196161Y-84709907D03*
%TO.P,IC1,17,B2_17*%
%TO.N,AGND*%
X94196161Y-83439907D03*
%TO.P,IC1,18,B1_18*%
%TO.N,LED01*%
X94196161Y-82169907D03*
%TO.P,IC1,19,~{OE}_19*%
%TO.N,AGND*%
X94196161Y-80899907D03*
%TO.P,IC1,20,VCC_20*%
%TO.N,VIN*%
X94196161Y-79629907D03*
%TD*%
D18*
%TO.P,R4,1*%
%TO.N,Net-(J10-Pin_2)*%
X93500000Y-70750000D03*
%TO.P,R4,2*%
%TO.N,LED04*%
X93500000Y-72300000D03*
%TD*%
%TO.P,R3,1*%
%TO.N,Net-(J8-Pin_2)*%
X89500000Y-70750000D03*
%TO.P,R3,2*%
%TO.N,LED02*%
X89500000Y-72300000D03*
%TD*%
D10*
%TO.P,J9,1,Pin_1_1*%
%TO.N,3V3*%
X105239007Y-72193222D03*
D17*
%TO.P,J9,2,Pin_2_2*%
%TO.N,AGND*%
X102699007Y-72193222D03*
D10*
%TO.P,J9,3,Pin_3_3*%
%TO.N,SDA*%
X100159007Y-72193222D03*
%TO.P,J9,4,Pin_4_4*%
%TO.N,SCL*%
X97619007Y-72193222D03*
%TD*%
D18*
%TO.P,R2,1*%
%TO.N,Net-(J7-Pin_2)*%
X91500000Y-70750000D03*
%TO.P,R2,2*%
%TO.N,LED03*%
X91500000Y-72300000D03*
%TD*%
D20*
%TO.P,FB1,1*%
%TO.N,PGND*%
X97767977Y-68492977D03*
%TO.P,FB1,2*%
%TO.N,AGND*%
X99492977Y-68492977D03*
%TD*%
D21*
%TO.N,AGND*%
X114349007Y-67940622D03*
%TO.N,VIN*%
X103496161Y-76253839D03*
X100250000Y-77750000D03*
X102129907Y-79629907D03*
X107078223Y-59478223D03*
X107700000Y-74750000D03*
X102000000Y-59478223D03*
X111250000Y-74750000D03*
X108478223Y-60878223D03*
X111250000Y-80500000D03*
X108478223Y-63178223D03*
X98221777Y-59478223D03*
X95000000Y-77750000D03*
X94250000Y-78500000D03*
X111250000Y-77800000D03*
X111300000Y-70800000D03*
X104900000Y-59478223D03*
X111200000Y-67400000D03*
X105000000Y-74750000D03*
%TO.N,PGND*%
X93255367Y-67000000D03*
X89800000Y-67000000D03*
%TD*%
%TO.N,3V3*%
D22*
X87900937Y-86650937D02*
X91216853Y-86650937D01*
X86750000Y-85500000D02*
X87900937Y-86650937D01*
X83750000Y-85500000D02*
X86750000Y-85500000D01*
%TO.N,AGND*%
X112250000Y-93250000D02*
X112250000Y-92150000D01*
X101750000Y-85250000D02*
X102250000Y-84750000D01*
D23*
X110250000Y-91250000D02*
X111100000Y-92100000D01*
D22*
X92769907Y-88519907D02*
X94196161Y-88519907D01*
D23*
X87000000Y-92625000D02*
X87000000Y-90500000D01*
X79848867Y-85151133D02*
X79848867Y-91598867D01*
D22*
X94196161Y-83439907D02*
X92939907Y-83439907D01*
X101750000Y-87750000D02*
X102250093Y-87249907D01*
X103496161Y-91059907D02*
X103496161Y-92996161D01*
X102290093Y-84709907D02*
X103496161Y-84709907D01*
X92939907Y-83439907D02*
X92500000Y-83000000D01*
X102080093Y-82169907D02*
X103496161Y-82169907D01*
D24*
X102699007Y-69499007D02*
X102699007Y-72193222D01*
D22*
X104500000Y-94000000D02*
X111500000Y-94000000D01*
X92939907Y-83439907D02*
X92500000Y-83879814D01*
X92500000Y-81250000D02*
X92850093Y-80899907D01*
X92809907Y-91059907D02*
X92500000Y-90750000D01*
X103496161Y-91059907D02*
X103496161Y-89789907D01*
X102250000Y-84750000D02*
X101750000Y-84250000D01*
X92500000Y-88789814D02*
X92769907Y-88519907D01*
D23*
X110250000Y-87000000D02*
X110250000Y-91250000D01*
X85625000Y-94000000D02*
X87000000Y-92625000D01*
D22*
X92500000Y-85500000D02*
X92979907Y-85979907D01*
D24*
X101692977Y-68492977D02*
X102699007Y-69499007D01*
D22*
X102250093Y-87249907D02*
X103496161Y-87249907D01*
X92500000Y-83000000D02*
X92500000Y-81250000D01*
D23*
X112300000Y-86100000D02*
X111150000Y-86100000D01*
D22*
X92500000Y-86459814D02*
X92500000Y-88250000D01*
X102250000Y-84750000D02*
X102290093Y-84709907D01*
D23*
X111150000Y-86100000D02*
X110250000Y-87000000D01*
X81500000Y-83500000D02*
X79848867Y-85151133D01*
D22*
X101750000Y-86749814D02*
X101750000Y-85250000D01*
X92979907Y-85979907D02*
X92500000Y-86459814D01*
D24*
X99492977Y-68492977D02*
X101692977Y-68492977D01*
D22*
X102289907Y-89789907D02*
X101750000Y-89250000D01*
X92979907Y-85979907D02*
X94196161Y-85979907D01*
D23*
X79848867Y-91598867D02*
X82250000Y-94000000D01*
D22*
X103496161Y-92996161D02*
X104500000Y-94000000D01*
X92500000Y-83879814D02*
X92500000Y-85500000D01*
X101750000Y-89250000D02*
X101750000Y-87750000D01*
X101750000Y-84250000D02*
X101750000Y-82500000D01*
D23*
X82250000Y-94000000D02*
X85625000Y-94000000D01*
D22*
X103496161Y-89789907D02*
X102289907Y-89789907D01*
D23*
X88309063Y-89190937D02*
X91216853Y-89190937D01*
D22*
X102250093Y-87249907D02*
X101750000Y-86749814D01*
X112250000Y-92150000D02*
X112300000Y-92100000D01*
X92850093Y-80899907D02*
X94196161Y-80899907D01*
D23*
X111100000Y-92100000D02*
X112300000Y-92100000D01*
D22*
X94196161Y-91059907D02*
X92809907Y-91059907D01*
D23*
X87000000Y-90500000D02*
X88309063Y-89190937D01*
D22*
X92500000Y-88250000D02*
X92769907Y-88519907D01*
X92500000Y-90750000D02*
X92500000Y-88789814D01*
X111500000Y-94000000D02*
X112250000Y-93250000D01*
X101750000Y-82500000D02*
X102080093Y-82169907D01*
X103496161Y-91059907D02*
X94196161Y-91059907D01*
D23*
X83750000Y-83500000D02*
X81500000Y-83500000D01*
%TO.N,VIN*%
X103496161Y-76253839D02*
X105000000Y-74750000D01*
X107700000Y-74750000D02*
X111250000Y-74750000D01*
X111250000Y-74750000D02*
X111250000Y-77800000D01*
X103496161Y-79629907D02*
X103496161Y-76253839D01*
X111250000Y-65950000D02*
X108478223Y-63178223D01*
X111250000Y-71500000D02*
X111250000Y-65950000D01*
X116900000Y-86100000D02*
X116900000Y-87600000D01*
X105000000Y-74750000D02*
X107700000Y-74750000D01*
X116491959Y-85741959D02*
X116541959Y-85741959D01*
X108478223Y-63178223D02*
X108478223Y-60878223D01*
X102000000Y-59478223D02*
X98221777Y-59478223D01*
X108478223Y-60878223D02*
X107078223Y-59478223D01*
X111250000Y-77800000D02*
X111250000Y-80500000D01*
X116541959Y-85741959D02*
X116900000Y-86100000D01*
X94196161Y-79303839D02*
X94196161Y-79629907D01*
X94250000Y-78500000D02*
X94250000Y-79250000D01*
X107078223Y-59478223D02*
X104900000Y-59478223D01*
X98221777Y-59478223D02*
X96700000Y-61000000D01*
X111250000Y-80500000D02*
X116491959Y-85741959D01*
X111250000Y-74750000D02*
X111250000Y-71500000D01*
X100250000Y-77750000D02*
X102129907Y-79629907D01*
X102129907Y-79629907D02*
X103496161Y-79629907D01*
X94250000Y-79250000D02*
X94196161Y-79303839D01*
X104900000Y-59478223D02*
X102000000Y-59478223D01*
X95000000Y-77750000D02*
X94250000Y-78500000D01*
X116900000Y-87600000D02*
X117000000Y-87700000D01*
%TO.N,PGND*%
D25*
X86300000Y-65000000D02*
X81250000Y-65000000D01*
X85550000Y-68100000D02*
X83900000Y-68100000D01*
X86300000Y-65000000D02*
X86300000Y-67350000D01*
D23*
X96700000Y-65000000D02*
X96714655Y-65014655D01*
X82550000Y-74650000D02*
X85650000Y-74650000D01*
X81250000Y-65000000D02*
X81300000Y-65050000D01*
X96714655Y-67439655D02*
X97767977Y-68492977D01*
X96714655Y-65014655D02*
X96714655Y-67439655D01*
X81300000Y-73400000D02*
X82550000Y-74650000D01*
D25*
X86300000Y-67350000D02*
X85550000Y-68100000D01*
D23*
X81300000Y-65050000D02*
X81300000Y-73400000D01*
%TO.N,Net-(J7-Pin_2)*%
D22*
X92400000Y-70750000D02*
X92700000Y-70450000D01*
X92700000Y-69400000D02*
X94750000Y-67350000D01*
X93300000Y-63100000D02*
X93300000Y-63000000D01*
X94750000Y-64550000D02*
X93300000Y-63100000D01*
X91500000Y-70750000D02*
X92400000Y-70750000D01*
X92700000Y-70450000D02*
X92700000Y-69400000D01*
X94750000Y-67350000D02*
X94750000Y-64550000D01*
%TO.N,Net-(J11-Pin_2)*%
X88000000Y-64700000D02*
X86300000Y-63000000D01*
X87500000Y-70750000D02*
X87500000Y-68200000D01*
X88000000Y-67700000D02*
X88000000Y-64700000D01*
X87500000Y-68200000D02*
X88000000Y-67700000D01*
%TO.N,GPIO01*%
X103995823Y-88519907D02*
X103496161Y-88519907D01*
X106456853Y-90980937D02*
X103995823Y-88519907D01*
X106456853Y-91730937D02*
X106456853Y-90980937D01*
%TO.N,GPIO02*%
X106456853Y-89190937D02*
X106456853Y-88200988D01*
X106456853Y-88200988D02*
X104235772Y-85979907D01*
X104235772Y-85979907D02*
X103496161Y-85979907D01*
%TO.N,GPIO03*%
X106456853Y-86650937D02*
X106456853Y-85968277D01*
X103928483Y-83439907D02*
X103496161Y-83439907D01*
X106456853Y-85968277D02*
X103928483Y-83439907D01*
%TO.N,GPIO04*%
X103928483Y-80899907D02*
X103496161Y-80899907D01*
X106456853Y-84110937D02*
X106456853Y-83428277D01*
X106456853Y-83428277D02*
X103928483Y-80899907D01*
%TO.N,Net-(J10-Pin_2)*%
X95250000Y-64450000D02*
X95250000Y-67650000D01*
X96700000Y-63000000D02*
X95250000Y-64450000D01*
X93500000Y-69400000D02*
X93500000Y-70750000D01*
X95250000Y-67650000D02*
X93500000Y-69400000D01*
%TO.N,Net-(J8-Pin_2)*%
X89500000Y-70750000D02*
X89500000Y-69300000D01*
X91500000Y-64500000D02*
X90000000Y-63000000D01*
X91500000Y-67300000D02*
X91500000Y-64500000D01*
X89500000Y-69300000D02*
X91500000Y-67300000D01*
X90000000Y-63000000D02*
X89800000Y-63000000D01*
%TO.N,LED01*%
X95749000Y-81851000D02*
X95749000Y-77349000D01*
X95749000Y-77349000D02*
X93400000Y-75000000D01*
X94196161Y-82169907D02*
X94263399Y-82237145D01*
X93400000Y-75000000D02*
X89250000Y-75000000D01*
X87500000Y-73250000D02*
X87500000Y-72300000D01*
X89250000Y-75000000D02*
X87500000Y-73250000D01*
X94263399Y-82237145D02*
X95362855Y-82237145D01*
X95362855Y-82237145D02*
X95749000Y-81851000D01*
%TO.N,LED04*%
X94196161Y-89789907D02*
X94236068Y-89750000D01*
X97102000Y-76788570D02*
X97000000Y-76686570D01*
X93500000Y-73086570D02*
X93500000Y-72300000D01*
X97000000Y-76586570D02*
X93500000Y-73086570D01*
X97102000Y-88398000D02*
X97102000Y-76788570D01*
X95750000Y-89750000D02*
X97102000Y-88398000D01*
X94236068Y-89750000D02*
X95750000Y-89750000D01*
X97000000Y-76686570D02*
X97000000Y-76586570D01*
%TO.N,LED03*%
X96651000Y-76975380D02*
X93773620Y-74098000D01*
X95750000Y-87250000D02*
X96651000Y-86349000D01*
X93773620Y-74098000D02*
X91848000Y-74098000D01*
X94196161Y-87249907D02*
X94196254Y-87250000D01*
X96651000Y-86349000D02*
X96651000Y-76975380D01*
X91848000Y-74098000D02*
X91500000Y-73750000D01*
X91500000Y-73750000D02*
X91500000Y-72300000D01*
X94196254Y-87250000D02*
X95750000Y-87250000D01*
%TO.N,LED02*%
X95622855Y-84777145D02*
X96200000Y-84200000D01*
X96200000Y-77162190D02*
X93586810Y-74549000D01*
X94263399Y-84777145D02*
X95622855Y-84777145D01*
X94196161Y-84709907D02*
X94263399Y-84777145D01*
X96200000Y-84200000D02*
X96200000Y-77162190D01*
X90049000Y-74549000D02*
X89500000Y-74000000D01*
X89500000Y-74000000D02*
X89500000Y-72300000D01*
X93586810Y-74549000D02*
X90049000Y-74549000D01*
%TD*%
%TA.AperFunction,Conductor*%
%TO.N,3V3*%
G36*
X90868564Y-85999209D02*
G01*
X91218447Y-86645366D01*
X91219372Y-86654273D01*
X91218447Y-86656508D01*
X90868564Y-87302664D01*
X90861611Y-87308307D01*
X90853305Y-87307684D01*
X90379054Y-87085074D01*
X89727193Y-86779095D01*
X89721160Y-86772478D01*
X89720464Y-86768504D01*
X89720464Y-86533369D01*
X89723891Y-86525096D01*
X89727191Y-86522779D01*
X90853307Y-85994188D01*
X90862249Y-85993776D01*
X90868564Y-85999209D01*
G37*
%TD.AperFunction*%
%TD*%
%TA.AperFunction,Conductor*%
%TO.N,GPIO01*%
G36*
X106023184Y-90370492D02*
G01*
X106545238Y-90892547D01*
X106545241Y-90892549D01*
X106762924Y-90979112D01*
X106769345Y-90985352D01*
X106850094Y-91179931D01*
X106981168Y-91495777D01*
X106981174Y-91504732D01*
X106974847Y-91511068D01*
X106970354Y-91511962D01*
X105954742Y-91511285D01*
X105946471Y-91507853D01*
X105943050Y-91499577D01*
X105946476Y-91491313D01*
X106368465Y-91069325D01*
X106191687Y-90892547D01*
X105846408Y-90547268D01*
X105842981Y-90538995D01*
X105846407Y-90530723D01*
X106006639Y-90370491D01*
X106014911Y-90367065D01*
X106023184Y-90370492D01*
G37*
%TD.AperFunction*%
%TD*%
%TA.AperFunction,Conductor*%
%TO.N,GPIO03*%
G36*
X106039110Y-85606224D02*
G01*
X106979596Y-86116491D01*
X106985233Y-86123448D01*
X106985489Y-86129069D01*
X106927268Y-86420055D01*
X106922284Y-86427495D01*
X106913500Y-86429233D01*
X106910230Y-86428052D01*
X106105954Y-85993195D01*
X106100307Y-85986246D01*
X106100080Y-85985358D01*
X106022086Y-85618942D01*
X106023716Y-85610139D01*
X106031094Y-85605064D01*
X106039110Y-85606224D01*
G37*
%TD.AperFunction*%
%TD*%
%TA.AperFunction,Conductor*%
%TO.N,GPIO02*%
G36*
X106265948Y-87833307D02*
G01*
X106543595Y-88110954D01*
X106546131Y-88114749D01*
X106581853Y-88200988D01*
X106991150Y-88737928D01*
X106993440Y-88746585D01*
X106989311Y-88754029D01*
X106464319Y-89189120D01*
X106455762Y-89191761D01*
X106449387Y-89189120D01*
X105924394Y-88754029D01*
X105920211Y-88746112D01*
X105922554Y-88737930D01*
X106331853Y-88200988D01*
X106331852Y-88200987D01*
X106091177Y-88009968D01*
X106086828Y-88002141D01*
X106089287Y-87993530D01*
X106090169Y-87992540D01*
X106249403Y-87833306D01*
X106257675Y-87829880D01*
X106265948Y-87833307D01*
G37*
%TD.AperFunction*%
%TD*%
%TA.AperFunction,Conductor*%
%TO.N,AGND*%
G36*
X106670963Y-60383744D02*
G01*
X106696207Y-60391157D01*
X106748953Y-60422453D01*
X107528797Y-61202297D01*
X107549946Y-61230548D01*
X107562554Y-61253637D01*
X107577723Y-61313066D01*
X107577723Y-63266922D01*
X107612320Y-63440855D01*
X107612324Y-63440874D01*
X107612326Y-63440881D01*
X107612328Y-63440889D01*
X107646269Y-63522829D01*
X107680210Y-63604770D01*
X107736165Y-63688512D01*
X107739358Y-63693291D01*
X107739361Y-63693296D01*
X107778760Y-63752261D01*
X107778763Y-63752264D01*
X110300575Y-66274074D01*
X110321723Y-66302324D01*
X110334331Y-66325413D01*
X110349500Y-66384842D01*
X110349500Y-73707670D01*
X110344475Y-73742614D01*
X110340070Y-73757612D01*
X110302327Y-73816355D01*
X110300958Y-73817542D01*
X110246097Y-73845018D01*
X110238539Y-73846663D01*
X110212168Y-73849500D01*
X104911299Y-73849500D01*
X104737342Y-73884101D01*
X104737337Y-73884103D01*
X104737335Y-73884103D01*
X104737332Y-73884104D01*
X104574941Y-73951367D01*
X104574928Y-73951375D01*
X104573454Y-73951986D01*
X104447131Y-74036392D01*
X104447131Y-74036393D01*
X104433113Y-74045759D01*
X104425960Y-74050539D01*
X104425959Y-74050540D01*
X104425927Y-74050571D01*
X104425925Y-74050573D01*
X102796699Y-75679799D01*
X102796695Y-75679802D01*
X102767842Y-75722988D01*
X102767840Y-75722991D01*
X102757224Y-75738879D01*
X102698149Y-75827288D01*
X102678533Y-75874647D01*
X102678528Y-75874659D01*
X102675771Y-75881313D01*
X102630266Y-75991170D01*
X102630265Y-75991175D01*
X102630264Y-75991179D01*
X102630264Y-75991180D01*
X102611581Y-76085108D01*
X102611581Y-76085109D01*
X102595661Y-76165140D01*
X102595661Y-78504968D01*
X102590637Y-78539906D01*
X102587450Y-78550759D01*
X102549675Y-78609536D01*
X102486118Y-78638559D01*
X102416968Y-78628618D01*
X102409990Y-78625431D01*
X102373818Y-78600317D01*
X100824049Y-77050548D01*
X100824041Y-77050540D01*
X100824034Y-77050534D01*
X100676548Y-76951988D01*
X100676549Y-76951988D01*
X100676547Y-76951987D01*
X100580548Y-76912222D01*
X100512666Y-76884105D01*
X100512658Y-76884103D01*
X100512651Y-76884101D01*
X100512632Y-76884097D01*
X100338699Y-76849500D01*
X100338696Y-76849500D01*
X100338692Y-76849500D01*
X100161308Y-76849500D01*
X100161303Y-76849500D01*
X100161299Y-76849500D01*
X99987366Y-76884097D01*
X99987333Y-76884105D01*
X99823451Y-76951987D01*
X99675962Y-77050536D01*
X99675949Y-77050548D01*
X99550548Y-77175949D01*
X99550536Y-77175962D01*
X99451987Y-77323451D01*
X99384105Y-77487333D01*
X99384097Y-77487366D01*
X99349500Y-77661299D01*
X99349500Y-77838699D01*
X99384097Y-78012632D01*
X99384105Y-78012665D01*
X99451987Y-78176547D01*
X99451988Y-78176548D01*
X99550534Y-78324034D01*
X99550540Y-78324041D01*
X99550548Y-78324049D01*
X101555864Y-80329366D01*
X101555866Y-80329368D01*
X101558786Y-80331319D01*
X101584516Y-80348511D01*
X101584519Y-80348513D01*
X101588578Y-80351224D01*
X101588582Y-80351229D01*
X101588583Y-80351228D01*
X101703360Y-80427920D01*
X101785300Y-80461860D01*
X101823948Y-80477869D01*
X101842568Y-80485582D01*
X101863190Y-80494124D01*
X101866727Y-80495738D01*
X101870824Y-80497287D01*
X101878523Y-80500476D01*
X101878333Y-80500932D01*
X101892608Y-80505967D01*
X101906463Y-80513213D01*
X101919301Y-80525600D01*
X101935109Y-80533872D01*
X101956727Y-80561710D01*
X101956744Y-80561726D01*
X101956757Y-80561748D01*
X101957908Y-80563770D01*
X101974103Y-80621919D01*
X101974312Y-80630030D01*
X101973579Y-80644159D01*
X101973812Y-80644178D01*
X101973564Y-80647326D01*
X101973563Y-80647334D01*
X101973563Y-80647335D01*
X101970661Y-80684203D01*
X101970661Y-81115615D01*
X101973562Y-81152477D01*
X101973562Y-81152479D01*
X101973563Y-81152480D01*
X101973564Y-81152486D01*
X102019411Y-81310287D01*
X102019417Y-81310306D01*
X102054370Y-81369407D01*
X102081646Y-81415529D01*
X102082815Y-81420136D01*
X102083651Y-81419680D01*
X102114921Y-81476946D01*
X102129776Y-81545174D01*
X102129645Y-81547015D01*
X102110309Y-81605197D01*
X102106631Y-81610928D01*
X102091423Y-81634619D01*
X102091140Y-81637060D01*
X102083716Y-81651764D01*
X102019879Y-81759707D01*
X101974060Y-81917421D01*
X101974059Y-81917426D01*
X101973864Y-81919903D01*
X101973865Y-81919906D01*
X101973866Y-81919907D01*
X103354332Y-81919907D01*
X103389267Y-81924930D01*
X103404265Y-81929334D01*
X103463016Y-81967079D01*
X103463040Y-81967107D01*
X103463043Y-81967109D01*
X103463044Y-81967111D01*
X103464203Y-81968448D01*
X103491679Y-82023309D01*
X103493324Y-82030867D01*
X103496161Y-82057238D01*
X103496161Y-82278077D01*
X103496160Y-82278083D01*
X103496161Y-82278086D01*
X103491136Y-82313021D01*
X103486731Y-82328019D01*
X103448988Y-82386762D01*
X103448953Y-82386792D01*
X103448952Y-82386794D01*
X103448950Y-82386794D01*
X103447619Y-82387949D01*
X103392758Y-82415425D01*
X103385200Y-82417070D01*
X103358829Y-82419907D01*
X101973864Y-82419907D01*
X101974059Y-82422387D01*
X101974059Y-82422390D01*
X101974060Y-82422393D01*
X102019879Y-82580105D01*
X102081974Y-82685103D01*
X102084475Y-82689538D01*
X102105909Y-82729451D01*
X102105801Y-82729536D01*
X102115087Y-82746542D01*
X102115333Y-82747000D01*
X102122219Y-82779756D01*
X102129777Y-82814462D01*
X102129647Y-82816290D01*
X102110298Y-82874497D01*
X102091055Y-82904462D01*
X102090799Y-82906664D01*
X102083387Y-82921339D01*
X102019417Y-83029508D01*
X102019413Y-83029519D01*
X101973564Y-83187326D01*
X101973563Y-83187332D01*
X101973562Y-83187333D01*
X101973562Y-83187335D01*
X101970661Y-83224197D01*
X101970661Y-83655615D01*
X101972478Y-83678701D01*
X101973555Y-83692391D01*
X101973562Y-83692473D01*
X101973562Y-83692476D01*
X101973564Y-83692486D01*
X102019413Y-83850293D01*
X102019417Y-83850306D01*
X102019419Y-83850310D01*
X102081646Y-83955531D01*
X102084018Y-83959725D01*
X102105602Y-83999690D01*
X102105530Y-83999747D01*
X102115006Y-84017102D01*
X102115193Y-84017447D01*
X102122126Y-84050040D01*
X102129776Y-84085174D01*
X102129645Y-84087015D01*
X102110309Y-84145199D01*
X102091423Y-84174619D01*
X102091140Y-84177060D01*
X102083716Y-84191764D01*
X102019879Y-84299707D01*
X101974060Y-84457421D01*
X101974059Y-84457426D01*
X101973864Y-84459903D01*
X101973865Y-84459906D01*
X101973866Y-84459907D01*
X103354332Y-84459907D01*
X103389267Y-84464930D01*
X103404265Y-84469334D01*
X103463016Y-84507079D01*
X103463040Y-84507107D01*
X103463043Y-84507109D01*
X103463044Y-84507111D01*
X103464203Y-84508448D01*
X103491679Y-84563309D01*
X103493324Y-84570867D01*
X103496161Y-84597238D01*
X103496161Y-84818077D01*
X103496160Y-84818083D01*
X103496161Y-84818086D01*
X103491136Y-84853021D01*
X103486731Y-84868019D01*
X103448988Y-84926762D01*
X103448953Y-84926792D01*
X103448952Y-84926794D01*
X103448950Y-84926794D01*
X103447619Y-84927949D01*
X103392758Y-84955425D01*
X103385200Y-84957070D01*
X103358829Y-84959907D01*
X101973864Y-84959907D01*
X101974059Y-84962387D01*
X101974059Y-84962390D01*
X101974060Y-84962393D01*
X102019879Y-85120105D01*
X102081974Y-85225103D01*
X102084475Y-85229538D01*
X102105909Y-85269451D01*
X102105801Y-85269536D01*
X102115087Y-85286542D01*
X102115333Y-85287000D01*
X102122219Y-85319756D01*
X102129777Y-85354462D01*
X102129647Y-85356290D01*
X102110298Y-85414497D01*
X102091055Y-85444462D01*
X102090799Y-85446664D01*
X102083387Y-85461339D01*
X102019417Y-85569508D01*
X102019413Y-85569519D01*
X101973564Y-85727326D01*
X101973563Y-85727332D01*
X101973562Y-85727333D01*
X101973562Y-85727335D01*
X101970661Y-85764197D01*
X101970661Y-85764205D01*
X101970661Y-86195608D01*
X101973556Y-86232393D01*
X101973562Y-86232473D01*
X101973562Y-86232476D01*
X101973564Y-86232486D01*
X102019411Y-86390287D01*
X102019415Y-86390300D01*
X102019416Y-86390303D01*
X102019417Y-86390305D01*
X102023151Y-86396620D01*
X102081646Y-86495531D01*
X102084018Y-86499725D01*
X102105602Y-86539690D01*
X102105530Y-86539747D01*
X102115006Y-86557102D01*
X102115193Y-86557447D01*
X102122126Y-86590040D01*
X102129776Y-86625174D01*
X102129645Y-86627015D01*
X102110309Y-86685199D01*
X102091423Y-86714619D01*
X102091140Y-86717060D01*
X102083716Y-86731764D01*
X102019879Y-86839707D01*
X102007039Y-86883903D01*
X101975583Y-86992180D01*
X101974060Y-86997421D01*
X101974059Y-86997426D01*
X101973864Y-86999903D01*
X101973865Y-86999906D01*
X101973866Y-86999907D01*
X103354332Y-86999907D01*
X103389267Y-87004930D01*
X103404265Y-87009334D01*
X103463016Y-87047079D01*
X103463040Y-87047107D01*
X103463043Y-87047109D01*
X103463044Y-87047111D01*
X103464203Y-87048448D01*
X103491679Y-87103309D01*
X103493324Y-87110867D01*
X103496161Y-87137238D01*
X103496161Y-87358077D01*
X103496160Y-87358083D01*
X103496161Y-87358086D01*
X103491136Y-87393021D01*
X103486731Y-87408019D01*
X103448988Y-87466762D01*
X103448953Y-87466792D01*
X103448952Y-87466794D01*
X103448950Y-87466794D01*
X103447619Y-87467949D01*
X103392758Y-87495425D01*
X103385200Y-87497070D01*
X103358829Y-87499907D01*
X101973864Y-87499907D01*
X101974059Y-87502387D01*
X101974059Y-87502390D01*
X101974060Y-87502393D01*
X102019879Y-87660105D01*
X102081974Y-87765103D01*
X102084475Y-87769538D01*
X102105909Y-87809451D01*
X102105801Y-87809536D01*
X102115087Y-87826542D01*
X102115333Y-87827000D01*
X102122219Y-87859756D01*
X102129777Y-87894462D01*
X102129647Y-87896290D01*
X102110298Y-87954497D01*
X102091055Y-87984462D01*
X102090799Y-87986664D01*
X102083387Y-88001339D01*
X102037548Y-88078850D01*
X102019416Y-88109510D01*
X102019415Y-88109513D01*
X102006320Y-88154586D01*
X101973564Y-88267326D01*
X101973563Y-88267332D01*
X101973562Y-88267333D01*
X101973562Y-88267335D01*
X101970661Y-88304197D01*
X101970661Y-88735615D01*
X101973562Y-88772477D01*
X101973562Y-88772479D01*
X101973563Y-88772480D01*
X101973564Y-88772486D01*
X102019413Y-88930293D01*
X102019417Y-88930306D01*
X102019419Y-88930310D01*
X102081646Y-89035531D01*
X102084018Y-89039725D01*
X102105602Y-89079690D01*
X102105530Y-89079747D01*
X102115006Y-89097102D01*
X102115193Y-89097447D01*
X102122105Y-89129941D01*
X102129776Y-89165174D01*
X102129645Y-89167015D01*
X102110309Y-89225199D01*
X102091423Y-89254619D01*
X102091140Y-89257060D01*
X102083716Y-89271764D01*
X102019879Y-89379707D01*
X101974059Y-89537424D01*
X101973864Y-89539903D01*
X101973865Y-89539906D01*
X101973866Y-89539907D01*
X103354332Y-89539907D01*
X103389267Y-89544930D01*
X103404265Y-89549334D01*
X103463016Y-89587079D01*
X103463040Y-89587107D01*
X103463043Y-89587109D01*
X103463044Y-89587111D01*
X103464203Y-89588448D01*
X103491679Y-89643309D01*
X103493324Y-89650867D01*
X103496161Y-89677238D01*
X103496161Y-89789907D01*
X103604332Y-89789907D01*
X103639267Y-89794930D01*
X103654265Y-89799334D01*
X103713016Y-89837079D01*
X103713040Y-89837107D01*
X103713043Y-89837109D01*
X103713044Y-89837111D01*
X103714203Y-89838448D01*
X103741679Y-89893309D01*
X103743324Y-89900867D01*
X103746161Y-89927238D01*
X103746161Y-90809907D01*
X105018455Y-90809907D01*
X105018456Y-90809907D01*
X105018456Y-90809905D01*
X105018261Y-90807418D01*
X105018260Y-90807412D01*
X105002166Y-90752016D01*
X105002216Y-90734325D01*
X104997243Y-90717077D01*
X104997275Y-90705795D01*
X105002345Y-90688710D01*
X105002364Y-90682151D01*
X105002514Y-90681651D01*
X105005326Y-90672318D01*
X105008779Y-90667027D01*
X105017149Y-90638819D01*
X105040088Y-90619055D01*
X105043514Y-90613807D01*
X105049071Y-90611315D01*
X105070083Y-90593214D01*
X105098343Y-90589232D01*
X105107272Y-90585231D01*
X105116673Y-90586650D01*
X105139269Y-90583467D01*
X105166191Y-90594126D01*
X105176359Y-90595661D01*
X105181514Y-90600192D01*
X105192137Y-90604398D01*
X105194917Y-90606334D01*
X105211735Y-90620409D01*
X105405032Y-90813706D01*
X105426184Y-90841962D01*
X105433676Y-90855683D01*
X105448528Y-90923943D01*
X105448399Y-90925749D01*
X105429031Y-90983951D01*
X105424852Y-90990454D01*
X105408216Y-91011098D01*
X105323989Y-91095324D01*
X105323981Y-91095333D01*
X105323977Y-91095337D01*
X105323958Y-91095360D01*
X105285257Y-91145177D01*
X105285254Y-91145181D01*
X105271989Y-91162258D01*
X105271988Y-91162259D01*
X105231189Y-91260758D01*
X105230012Y-91263275D01*
X105227641Y-91265961D01*
X105214240Y-91288545D01*
X105205530Y-91299352D01*
X105186519Y-91312549D01*
X105183776Y-91315658D01*
X105180843Y-91316489D01*
X105148135Y-91339197D01*
X105078330Y-91341691D01*
X105073944Y-91340572D01*
X105032898Y-91316224D01*
X105018457Y-91309908D01*
X105018456Y-91309907D01*
X105018454Y-91309907D01*
X103746161Y-91309907D01*
X103746161Y-91859907D01*
X104436790Y-91859907D01*
X104436795Y-91859907D01*
X104436810Y-91859906D01*
X104473650Y-91857007D01*
X104473656Y-91857006D01*
X104631354Y-91811190D01*
X104631357Y-91811189D01*
X104772713Y-91727592D01*
X104772722Y-91727585D01*
X104888839Y-91611468D01*
X104888848Y-91611456D01*
X104966546Y-91480074D01*
X104977341Y-91469321D01*
X104982972Y-91458221D01*
X104988627Y-91452586D01*
X104996919Y-91444843D01*
X105006994Y-91439782D01*
X105010570Y-91436221D01*
X105019646Y-91430901D01*
X105029639Y-91428406D01*
X105059352Y-91413481D01*
X105080470Y-91415720D01*
X105087437Y-91413982D01*
X105098085Y-91417589D01*
X105128831Y-91420850D01*
X105144225Y-91433218D01*
X105153613Y-91436399D01*
X105163285Y-91448533D01*
X105183298Y-91464613D01*
X105183298Y-91464614D01*
X105183844Y-91465398D01*
X105191196Y-91483549D01*
X105197164Y-91491035D01*
X105198153Y-91500721D01*
X105204477Y-91516332D01*
X105204740Y-91517947D01*
X105206352Y-91537878D01*
X105206352Y-92082574D01*
X105216911Y-92166638D01*
X105216912Y-92166646D01*
X105271989Y-92299612D01*
X105273768Y-92302274D01*
X105275946Y-92304717D01*
X105276362Y-92305242D01*
X105323974Y-92366532D01*
X105323978Y-92366536D01*
X105323979Y-92366537D01*
X105329003Y-92371561D01*
X105821240Y-92863799D01*
X105821249Y-92863807D01*
X105821250Y-92863808D01*
X105821269Y-92863825D01*
X105888174Y-92915800D01*
X105888175Y-92915801D01*
X105950565Y-92941643D01*
X106021143Y-92970877D01*
X106105216Y-92981437D01*
X106808486Y-92981438D01*
X106892562Y-92970877D01*
X107025529Y-92915800D01*
X107092448Y-92863816D01*
X107341090Y-92615172D01*
X107589727Y-92366537D01*
X107589728Y-92366534D01*
X107589735Y-92366528D01*
X107605988Y-92345606D01*
X107641716Y-92299616D01*
X107661777Y-92251185D01*
X107668221Y-92235625D01*
X107696793Y-92166647D01*
X107703143Y-92116094D01*
X107707353Y-92082576D01*
X107707353Y-91775264D01*
X107707354Y-91379304D01*
X107696793Y-91295228D01*
X107641716Y-91162261D01*
X107589732Y-91095342D01*
X107360177Y-90865787D01*
X107136517Y-90642127D01*
X107121642Y-90622837D01*
X107115221Y-90616597D01*
X107074483Y-90581040D01*
X107059371Y-90572361D01*
X107031651Y-90550827D01*
X107028547Y-90548088D01*
X107025531Y-90546073D01*
X107025530Y-90546072D01*
X107025528Y-90546071D01*
X106990074Y-90531385D01*
X106982119Y-90525903D01*
X106975780Y-90524357D01*
X106955792Y-90512879D01*
X106949713Y-90509388D01*
X106949711Y-90509387D01*
X106946113Y-90507321D01*
X106897779Y-90456866D01*
X106884396Y-90388290D01*
X106899875Y-90349362D01*
X106900174Y-90346387D01*
X106901945Y-90344157D01*
X106910213Y-90323365D01*
X106923034Y-90309344D01*
X106930246Y-90302581D01*
X106940929Y-90295079D01*
X106943632Y-90291677D01*
X106947791Y-90290260D01*
X106958767Y-90282551D01*
X107086052Y-90217697D01*
X107238926Y-90106627D01*
X107338067Y-90007486D01*
X111124500Y-90007486D01*
X111124500Y-90011407D01*
X111124500Y-90192513D01*
X111128489Y-90217699D01*
X111153445Y-90375268D01*
X111210610Y-90551208D01*
X111210617Y-90551227D01*
X111210619Y-90551232D01*
X111210620Y-90551235D01*
X111268603Y-90665031D01*
X111294622Y-90716096D01*
X111370258Y-90820200D01*
X111372016Y-90822905D01*
X111373128Y-90826622D01*
X111384832Y-90848804D01*
X111390084Y-90863524D01*
X111391483Y-90887978D01*
X111392041Y-90889843D01*
X111391664Y-90891149D01*
X111394075Y-90933271D01*
X111393558Y-90935495D01*
X111365910Y-90989287D01*
X111361338Y-90994488D01*
X111342518Y-91011885D01*
X111267809Y-91067812D01*
X111267805Y-91067816D01*
X111181650Y-91182903D01*
X111181647Y-91182909D01*
X111181646Y-91182909D01*
X111131404Y-91317616D01*
X111131403Y-91317616D01*
X111131400Y-91317628D01*
X111125000Y-91377146D01*
X111125000Y-91377155D01*
X111125000Y-91850000D01*
X111791277Y-91850000D01*
X111858316Y-91869685D01*
X111904071Y-91922489D01*
X111914015Y-91991647D01*
X111911052Y-92006088D01*
X111900000Y-92047339D01*
X111900000Y-92152661D01*
X111903747Y-92166647D01*
X111911052Y-92193907D01*
X111909389Y-92263757D01*
X111870226Y-92321619D01*
X111805998Y-92349123D01*
X111791277Y-92350000D01*
X111125000Y-92350000D01*
X111125000Y-92822852D01*
X111131400Y-92882370D01*
X111131402Y-92882377D01*
X111134343Y-92890261D01*
X111181645Y-93017086D01*
X111181649Y-93017093D01*
X111199910Y-93041486D01*
X111267807Y-93132185D01*
X111267809Y-93132187D01*
X111267812Y-93132190D01*
X111382906Y-93218350D01*
X111382913Y-93218354D01*
X111517620Y-93268596D01*
X111517627Y-93268598D01*
X111524468Y-93269333D01*
X111577138Y-93274998D01*
X111577155Y-93274999D01*
X111577172Y-93275000D01*
X112050000Y-93275000D01*
X112050000Y-92608722D01*
X112069685Y-92541683D01*
X112122489Y-92495928D01*
X112191647Y-92485984D01*
X112206082Y-92488945D01*
X112247339Y-92500000D01*
X112352659Y-92500000D01*
X112352661Y-92500000D01*
X112393907Y-92488948D01*
X112463755Y-92490609D01*
X112521618Y-92529771D01*
X112549123Y-92593999D01*
X112550000Y-92608722D01*
X112550000Y-93275000D01*
X113022828Y-93275000D01*
X113022836Y-93275000D01*
X113022847Y-93274999D01*
X113058560Y-93271158D01*
X113082372Y-93268598D01*
X113082379Y-93268596D01*
X113217086Y-93218354D01*
X113217093Y-93218350D01*
X113332187Y-93132190D01*
X113332190Y-93132187D01*
X113418350Y-93017093D01*
X113418354Y-93017086D01*
X113468596Y-92882379D01*
X113468598Y-92882372D01*
X113470905Y-92860922D01*
X113474998Y-92822860D01*
X113475000Y-92822827D01*
X113475000Y-92350000D01*
X112808723Y-92350000D01*
X112741684Y-92330315D01*
X112695929Y-92277511D01*
X112685985Y-92208353D01*
X112688948Y-92193907D01*
X112700000Y-92152661D01*
X112700000Y-92047339D01*
X112688948Y-92006092D01*
X112690611Y-91936243D01*
X112729774Y-91878381D01*
X112794002Y-91850877D01*
X112808723Y-91850000D01*
X113475000Y-91850000D01*
X113475000Y-91377172D01*
X113474998Y-91377138D01*
X113468598Y-91317628D01*
X113468595Y-91317616D01*
X113448327Y-91263275D01*
X113418354Y-91182913D01*
X113418350Y-91182906D01*
X113332190Y-91067812D01*
X113332188Y-91067810D01*
X113332186Y-91067808D01*
X113261440Y-91014847D01*
X113236487Y-90989895D01*
X113227117Y-90977379D01*
X113202699Y-90911918D01*
X113202533Y-90909592D01*
X113213059Y-90850089D01*
X113215887Y-90843777D01*
X113228727Y-90821594D01*
X113305378Y-90716096D01*
X113389379Y-90551235D01*
X113446555Y-90375264D01*
X113475500Y-90192514D01*
X113475500Y-90007486D01*
X113446555Y-89824736D01*
X113394299Y-89663907D01*
X113389380Y-89648767D01*
X113389379Y-89648764D01*
X113332646Y-89537420D01*
X113305378Y-89483904D01*
X113196621Y-89334213D01*
X113065787Y-89203379D01*
X112916096Y-89094622D01*
X112751235Y-89010620D01*
X112751232Y-89010619D01*
X112751231Y-89010618D01*
X112751228Y-89010617D01*
X112751208Y-89010610D01*
X112575267Y-88953445D01*
X112575268Y-88953445D01*
X112483889Y-88938972D01*
X112392519Y-88924500D01*
X112392514Y-88924500D01*
X112207486Y-88924500D01*
X112172900Y-88929978D01*
X112172881Y-88929981D01*
X112024730Y-88953445D01*
X111848790Y-89010610D01*
X111848771Y-89010617D01*
X111848770Y-89010617D01*
X111683903Y-89094621D01*
X111628349Y-89134985D01*
X111628348Y-89134985D01*
X111546083Y-89194754D01*
X111538704Y-89198886D01*
X111398886Y-89338704D01*
X111394756Y-89346080D01*
X111370471Y-89379507D01*
X111370469Y-89379510D01*
X111294621Y-89483903D01*
X111229015Y-89612662D01*
X111213400Y-89643309D01*
X111210617Y-89648770D01*
X111210617Y-89648771D01*
X111210610Y-89648790D01*
X111153445Y-89824730D01*
X111130109Y-89972066D01*
X111130102Y-89972108D01*
X111129960Y-89973011D01*
X111124500Y-90007486D01*
X107338067Y-90007486D01*
X107372543Y-89973010D01*
X107483613Y-89820136D01*
X107569400Y-89651769D01*
X107627793Y-89472055D01*
X107638020Y-89407486D01*
X107657353Y-89285423D01*
X107657353Y-89096450D01*
X107627793Y-88909818D01*
X107599611Y-88823085D01*
X107596823Y-88814504D01*
X107581437Y-88767151D01*
X107569400Y-88730105D01*
X107569398Y-88730102D01*
X107569398Y-88730100D01*
X107567160Y-88725709D01*
X107566849Y-88724910D01*
X107566112Y-88723651D01*
X107492809Y-88579786D01*
X107492809Y-88579785D01*
X107483612Y-88561735D01*
X107418791Y-88472519D01*
X107411365Y-88462298D01*
X107403380Y-88449798D01*
X107393169Y-88431478D01*
X107388075Y-88424796D01*
X107152760Y-88116096D01*
X107044196Y-87973676D01*
X107028251Y-87945954D01*
X107027820Y-87944914D01*
X107020213Y-87926547D01*
X107016452Y-87917467D01*
X107007725Y-87883273D01*
X107006054Y-87867732D01*
X107009288Y-87849799D01*
X107007594Y-87842138D01*
X107013613Y-87825823D01*
X107018456Y-87798978D01*
X107020424Y-87795047D01*
X107028587Y-87785243D01*
X107031781Y-87776589D01*
X107056643Y-87751549D01*
X107059227Y-87749600D01*
X107077579Y-87738129D01*
X107112258Y-87720461D01*
X107271499Y-87604765D01*
X107410681Y-87465583D01*
X107526377Y-87306342D01*
X107615737Y-87130962D01*
X107676562Y-86943763D01*
X107686042Y-86883907D01*
X107686284Y-86882381D01*
X107686284Y-86882380D01*
X107702435Y-86780407D01*
X107707353Y-86749359D01*
X107707353Y-86552514D01*
X107691531Y-86452622D01*
X107685348Y-86413584D01*
X107685348Y-86413583D01*
X107676562Y-86358109D01*
X107673642Y-86349123D01*
X107669689Y-86336956D01*
X107623759Y-86195601D01*
X107615737Y-86170912D01*
X107615735Y-86170909D01*
X107615735Y-86170907D01*
X107613501Y-86166522D01*
X107613188Y-86165720D01*
X107612449Y-86164458D01*
X107596745Y-86133638D01*
X107552774Y-86047339D01*
X107526377Y-85995532D01*
X107410681Y-85836291D01*
X107369601Y-85795211D01*
X107336076Y-85758089D01*
X107322002Y-85747612D01*
X107271499Y-85697109D01*
X107238965Y-85673472D01*
X107191878Y-85639261D01*
X107112256Y-85581411D01*
X107112253Y-85581409D01*
X107112244Y-85581404D01*
X106951523Y-85499514D01*
X106922678Y-85479180D01*
X106913263Y-85470288D01*
X106878041Y-85409949D01*
X106881033Y-85340143D01*
X106917194Y-85286434D01*
X106924207Y-85280358D01*
X106949109Y-85263588D01*
X107103986Y-85184675D01*
X107104395Y-85184504D01*
X107112047Y-85180569D01*
X107112474Y-85180351D01*
X107160336Y-85155964D01*
X107175748Y-85134429D01*
X107179248Y-85131789D01*
X107271499Y-85064765D01*
X107410681Y-84925583D01*
X107526377Y-84766342D01*
X107615737Y-84590962D01*
X107676562Y-84403763D01*
X107682730Y-84364819D01*
X107707353Y-84209359D01*
X107707353Y-84012514D01*
X107676562Y-83818110D01*
X107645210Y-83721619D01*
X107635740Y-83692473D01*
X107635740Y-83692472D01*
X107628166Y-83669165D01*
X107615737Y-83630912D01*
X107615735Y-83630909D01*
X107615735Y-83630907D01*
X107613483Y-83626487D01*
X107613177Y-83625703D01*
X107612455Y-83624471D01*
X107540833Y-83483904D01*
X107526377Y-83455532D01*
X107526374Y-83455528D01*
X107526374Y-83455527D01*
X107490457Y-83406093D01*
X107410681Y-83296291D01*
X107369601Y-83255211D01*
X107336076Y-83218089D01*
X107322002Y-83207612D01*
X107271499Y-83157109D01*
X107191878Y-83099261D01*
X107112256Y-83041411D01*
X107112253Y-83041409D01*
X107112244Y-83041404D01*
X106951523Y-82959514D01*
X106922678Y-82939180D01*
X106913263Y-82930288D01*
X106878041Y-82869949D01*
X106881033Y-82800143D01*
X106917194Y-82746434D01*
X106924207Y-82740358D01*
X106949109Y-82723588D01*
X107103986Y-82644675D01*
X107104395Y-82644504D01*
X107112047Y-82640569D01*
X107112474Y-82640351D01*
X107160336Y-82615964D01*
X107175748Y-82594429D01*
X107179248Y-82591789D01*
X107271499Y-82524765D01*
X107410681Y-82385583D01*
X107526377Y-82226342D01*
X107615737Y-82050962D01*
X107676562Y-81863763D01*
X107681893Y-81830104D01*
X107682730Y-81824820D01*
X107682730Y-81824819D01*
X107705563Y-81680660D01*
X107707353Y-81669359D01*
X107707353Y-81472514D01*
X107676562Y-81278110D01*
X107639281Y-81163373D01*
X107626019Y-81122555D01*
X107626019Y-81122554D01*
X107618352Y-81098960D01*
X107615737Y-81090912D01*
X107615735Y-81090909D01*
X107615735Y-81090907D01*
X107613487Y-81086496D01*
X107613180Y-81085708D01*
X107612453Y-81084466D01*
X107531989Y-80926547D01*
X107531989Y-80926546D01*
X107526380Y-80915538D01*
X107526376Y-80915531D01*
X107410681Y-80756291D01*
X107271499Y-80617109D01*
X107112258Y-80501413D01*
X107104983Y-80497706D01*
X107079450Y-80484696D01*
X107079436Y-80484689D01*
X107077606Y-80483757D01*
X106936882Y-80412054D01*
X106902780Y-80400974D01*
X106895486Y-80398604D01*
X106895478Y-80398600D01*
X106893898Y-80398087D01*
X106862231Y-80382516D01*
X106852895Y-80376132D01*
X106841614Y-80362336D01*
X106826902Y-80352278D01*
X106819957Y-80335850D01*
X106808668Y-80322043D01*
X106806636Y-80304336D01*
X106799698Y-80287922D01*
X106802737Y-80270349D01*
X106800704Y-80252628D01*
X106808568Y-80236630D01*
X106811605Y-80219074D01*
X106831520Y-80189943D01*
X106833621Y-80187653D01*
X106886664Y-80153563D01*
X106917685Y-80143484D01*
X107086052Y-80057697D01*
X107238926Y-79946627D01*
X107372543Y-79813010D01*
X107483613Y-79660136D01*
X107569400Y-79491769D01*
X107627793Y-79312055D01*
X107635072Y-79266096D01*
X107657353Y-79125423D01*
X107657353Y-78936450D01*
X107627793Y-78749818D01*
X107569398Y-78570100D01*
X107524143Y-78481284D01*
X107483613Y-78401738D01*
X107483611Y-78401735D01*
X107483610Y-78401733D01*
X107427168Y-78324049D01*
X107372543Y-78248864D01*
X107238926Y-78115247D01*
X107086052Y-78004177D01*
X107086050Y-78004176D01*
X106917685Y-77918388D01*
X106917682Y-77918387D01*
X106893905Y-77910662D01*
X106879423Y-77900874D01*
X106863348Y-77895844D01*
X106862238Y-77895094D01*
X106858784Y-77892732D01*
X106852900Y-77888709D01*
X106842370Y-77875833D01*
X106837088Y-77872263D01*
X106829845Y-77863599D01*
X106826974Y-77857006D01*
X106808670Y-77834624D01*
X106805606Y-77807938D01*
X106801949Y-77799539D01*
X106803525Y-77789803D01*
X106800702Y-77765210D01*
X106810848Y-77744568D01*
X106813115Y-77730568D01*
X106823312Y-77719211D01*
X106831518Y-77702517D01*
X106833620Y-77700228D01*
X106849557Y-77689984D01*
X106859797Y-77678582D01*
X106872891Y-77674987D01*
X106886661Y-77666137D01*
X106936878Y-77649821D01*
X107112258Y-77560461D01*
X107271499Y-77444765D01*
X107410681Y-77305583D01*
X107526377Y-77146342D01*
X107615737Y-76970962D01*
X107676562Y-76783763D01*
X107685559Y-76726959D01*
X107707353Y-76589359D01*
X107707353Y-76392514D01*
X107676562Y-76198110D01*
X107640727Y-76087823D01*
X107639845Y-76085107D01*
X107639845Y-76085106D01*
X107631540Y-76059548D01*
X107615737Y-76010912D01*
X107615735Y-76010909D01*
X107615735Y-76010907D01*
X107613486Y-76006494D01*
X107613179Y-76005706D01*
X107612455Y-76004471D01*
X107534998Y-75852453D01*
X107525806Y-75828613D01*
X107525447Y-75827288D01*
X107520421Y-75808752D01*
X107521874Y-75738900D01*
X107560861Y-75680921D01*
X107561437Y-75680443D01*
X107615587Y-75654389D01*
X107622005Y-75653062D01*
X107647087Y-75650500D01*
X110207671Y-75650500D01*
X110242606Y-75655523D01*
X110257604Y-75659927D01*
X110316355Y-75697672D01*
X110316379Y-75697700D01*
X110316382Y-75697702D01*
X110316383Y-75697704D01*
X110317542Y-75699041D01*
X110345018Y-75753902D01*
X110346663Y-75761460D01*
X110349500Y-75787831D01*
X110349500Y-80588699D01*
X110384097Y-80762632D01*
X110384103Y-80762658D01*
X110384106Y-80762670D01*
X110402936Y-80808128D01*
X110451985Y-80926544D01*
X110501766Y-81001046D01*
X110501771Y-81001055D01*
X110550538Y-81074039D01*
X110550540Y-81074041D01*
X112189849Y-82713349D01*
X112189851Y-82713351D01*
X112211001Y-82741605D01*
X112217207Y-82752971D01*
X112232058Y-82821245D01*
X112207640Y-82886708D01*
X112156646Y-82926614D01*
X112148109Y-82930222D01*
X112119234Y-82938477D01*
X112024736Y-82953443D01*
X112024731Y-82953444D01*
X111848794Y-83010609D01*
X111848770Y-83010617D01*
X111683909Y-83094618D01*
X111683903Y-83094622D01*
X111656164Y-83114776D01*
X111656163Y-83114776D01*
X111546083Y-83194754D01*
X111538704Y-83198886D01*
X111398887Y-83338703D01*
X111394756Y-83346081D01*
X111363748Y-83388761D01*
X111342279Y-83418310D01*
X111294622Y-83483902D01*
X111210617Y-83648770D01*
X111210617Y-83648771D01*
X111210610Y-83648790D01*
X111153445Y-83824730D01*
X111141524Y-83900000D01*
X111141524Y-83900001D01*
X111124500Y-84007481D01*
X111124500Y-84192514D01*
X111126112Y-84202692D01*
X111153445Y-84375268D01*
X111210610Y-84551208D01*
X111210617Y-84551227D01*
X111210619Y-84551232D01*
X111210620Y-84551235D01*
X111287533Y-84702183D01*
X111294622Y-84716096D01*
X111369267Y-84818836D01*
X111370135Y-84820095D01*
X111370883Y-84822367D01*
X111384830Y-84848801D01*
X111389632Y-84862257D01*
X111390084Y-84863524D01*
X111391274Y-84884323D01*
X111391978Y-84886462D01*
X111391501Y-84888301D01*
X111394075Y-84933271D01*
X111393558Y-84935495D01*
X111365910Y-84989287D01*
X111361338Y-84994488D01*
X111342518Y-85011885D01*
X111267809Y-85067812D01*
X111267805Y-85067816D01*
X111181650Y-85182903D01*
X111181647Y-85182909D01*
X111181646Y-85182909D01*
X111131402Y-85317621D01*
X111131400Y-85317628D01*
X111125000Y-85377146D01*
X111125000Y-85377155D01*
X111125000Y-85850000D01*
X111791277Y-85850000D01*
X111858316Y-85869685D01*
X111904071Y-85922489D01*
X111914015Y-85991647D01*
X111911052Y-86006088D01*
X111900000Y-86047339D01*
X111900000Y-86152661D01*
X111910282Y-86191036D01*
X111911052Y-86193907D01*
X111909389Y-86263757D01*
X111870226Y-86321619D01*
X111805998Y-86349123D01*
X111791277Y-86350000D01*
X111125000Y-86350000D01*
X111125000Y-86822852D01*
X111131400Y-86882370D01*
X111131402Y-86882377D01*
X111131970Y-86883899D01*
X111181645Y-87017086D01*
X111181649Y-87017093D01*
X111205364Y-87048772D01*
X111267807Y-87132185D01*
X111267813Y-87132191D01*
X111273954Y-87136788D01*
X111382906Y-87218350D01*
X111382913Y-87218354D01*
X111517620Y-87268596D01*
X111517627Y-87268598D01*
X111524468Y-87269333D01*
X111577138Y-87274998D01*
X111577155Y-87274999D01*
X111577172Y-87275000D01*
X112050000Y-87275000D01*
X112050000Y-86608722D01*
X112069685Y-86541683D01*
X112122489Y-86495928D01*
X112191647Y-86485984D01*
X112206082Y-86488945D01*
X112247339Y-86500000D01*
X112352659Y-86500000D01*
X112352661Y-86500000D01*
X112393907Y-86488948D01*
X112463755Y-86490609D01*
X112521618Y-86529771D01*
X112549123Y-86593999D01*
X112550000Y-86608722D01*
X112550000Y-87275000D01*
X113022828Y-87275000D01*
X113022836Y-87275000D01*
X113022847Y-87274999D01*
X113058560Y-87271158D01*
X113082372Y-87268598D01*
X113082379Y-87268596D01*
X113217086Y-87218354D01*
X113217093Y-87218350D01*
X113332187Y-87132190D01*
X113332190Y-87132187D01*
X113418350Y-87017093D01*
X113418354Y-87017086D01*
X113468596Y-86882379D01*
X113468598Y-86882372D01*
X113473207Y-86839509D01*
X113474998Y-86822860D01*
X113475000Y-86822827D01*
X113475000Y-86350000D01*
X112808723Y-86350000D01*
X112741684Y-86330315D01*
X112695929Y-86277511D01*
X112685985Y-86208353D01*
X112688948Y-86193907D01*
X112689717Y-86191038D01*
X112700000Y-86152661D01*
X112700000Y-86047339D01*
X112688948Y-86006092D01*
X112690611Y-85936243D01*
X112729774Y-85878381D01*
X112794002Y-85850877D01*
X112808723Y-85850000D01*
X113475000Y-85850000D01*
X113475000Y-85377172D01*
X113474998Y-85377138D01*
X113468598Y-85317628D01*
X113468596Y-85317621D01*
X113466435Y-85311826D01*
X113418354Y-85182913D01*
X113418350Y-85182906D01*
X113332190Y-85067812D01*
X113332188Y-85067810D01*
X113332186Y-85067808D01*
X113261440Y-85014847D01*
X113236487Y-84989895D01*
X113227117Y-84977379D01*
X113202699Y-84911918D01*
X113202533Y-84909592D01*
X113213059Y-84850089D01*
X113215887Y-84843777D01*
X113228727Y-84821594D01*
X113305378Y-84716096D01*
X113389379Y-84551235D01*
X113446555Y-84375264D01*
X113461101Y-84283417D01*
X113471524Y-84249716D01*
X113477074Y-84238008D01*
X113523579Y-84185866D01*
X113590893Y-84167144D01*
X113653151Y-84184944D01*
X113654680Y-84185866D01*
X113661091Y-84189732D01*
X113684737Y-84208237D01*
X114735592Y-85259091D01*
X115917924Y-86441423D01*
X115917930Y-86441428D01*
X115934684Y-86452622D01*
X115940775Y-86458739D01*
X115945711Y-86460912D01*
X115961661Y-86479711D01*
X115969186Y-86487267D01*
X115970846Y-86489774D01*
X115972886Y-86493203D01*
X115973995Y-86494530D01*
X115977490Y-86499808D01*
X115979447Y-86506151D01*
X115995496Y-86542983D01*
X115996895Y-86549700D01*
X115999500Y-86574984D01*
X115999500Y-86721970D01*
X115994477Y-86756906D01*
X115986002Y-86785768D01*
X115967344Y-86823716D01*
X115844951Y-86992178D01*
X115844950Y-86992180D01*
X115748445Y-87181580D01*
X115682752Y-87383759D01*
X115682752Y-87383760D01*
X115663950Y-87502479D01*
X115663950Y-87502480D01*
X115649500Y-87593713D01*
X115649500Y-87806290D01*
X115654086Y-87835243D01*
X115655789Y-87845999D01*
X115657833Y-87858900D01*
X115657833Y-87858902D01*
X115679296Y-87994415D01*
X115682752Y-88016237D01*
X115682754Y-88016243D01*
X115738914Y-88189087D01*
X115743011Y-88201694D01*
X115748442Y-88218409D01*
X115748445Y-88218416D01*
X115759204Y-88239531D01*
X115844951Y-88407820D01*
X115969890Y-88579786D01*
X115969891Y-88579787D01*
X116120216Y-88730112D01*
X116292169Y-88855042D01*
X116292177Y-88855047D01*
X116292179Y-88855048D01*
X116292181Y-88855049D01*
X116292182Y-88855050D01*
X116292200Y-88855060D01*
X116292442Y-88855182D01*
X116481588Y-88951557D01*
X116683757Y-89017246D01*
X116893713Y-89050500D01*
X116893714Y-89050500D01*
X117106286Y-89050500D01*
X117106287Y-89050500D01*
X117316243Y-89017246D01*
X117518412Y-88951557D01*
X117707816Y-88855051D01*
X117763623Y-88814505D01*
X117879786Y-88730109D01*
X117879788Y-88730106D01*
X117879792Y-88730104D01*
X117879794Y-88730102D01*
X117879844Y-88730066D01*
X117880605Y-88729290D01*
X118030104Y-88579792D01*
X118030106Y-88579788D01*
X118030109Y-88579786D01*
X118150860Y-88413585D01*
X118155051Y-88407816D01*
X118204787Y-88310201D01*
X118215018Y-88299368D01*
X118225119Y-88281358D01*
X118232460Y-88273585D01*
X118247858Y-88264597D01*
X118252761Y-88259406D01*
X118261497Y-88254763D01*
X118269592Y-88250867D01*
X118272079Y-88250458D01*
X118292799Y-88238363D01*
X118334719Y-88240158D01*
X118338536Y-88239531D01*
X118340565Y-88240408D01*
X118362605Y-88241353D01*
X118394138Y-88263581D01*
X118402664Y-88267269D01*
X118405624Y-88271678D01*
X118419713Y-88281609D01*
X118435971Y-88316868D01*
X118441616Y-88325273D01*
X118441696Y-88329283D01*
X118444308Y-88334946D01*
X118445065Y-88338820D01*
X118447367Y-88362600D01*
X118447367Y-92752214D01*
X118442342Y-92787158D01*
X118437937Y-92802156D01*
X118400168Y-92860922D01*
X118394615Y-92865734D01*
X118337601Y-92893641D01*
X118111113Y-92938693D01*
X118111091Y-92938698D01*
X118096293Y-92941642D01*
X118096291Y-92941642D01*
X118096289Y-92941643D01*
X118083211Y-92945609D01*
X118083167Y-92945621D01*
X118010651Y-92967620D01*
X118010650Y-92967621D01*
X117767160Y-93041483D01*
X117767154Y-93041485D01*
X117767152Y-93041486D01*
X117450080Y-93172821D01*
X117449505Y-93173055D01*
X117449391Y-93173108D01*
X117146100Y-93335221D01*
X117146081Y-93335232D01*
X117146075Y-93335235D01*
X116954559Y-93463202D01*
X116860115Y-93526308D01*
X116860101Y-93526318D01*
X116860093Y-93526323D01*
X116860087Y-93526329D01*
X116594228Y-93744514D01*
X116351048Y-93987694D01*
X116132863Y-94253553D01*
X116132852Y-94253567D01*
X116132848Y-94253573D01*
X116132845Y-94253577D01*
X115941769Y-94539541D01*
X115941766Y-94539547D01*
X115941755Y-94539566D01*
X115779642Y-94842857D01*
X115779589Y-94842971D01*
X115779355Y-94843546D01*
X115648018Y-95160620D01*
X115548172Y-95489769D01*
X115548169Y-95489780D01*
X115501674Y-95723535D01*
X115501674Y-95723536D01*
X115489932Y-95756820D01*
X115482685Y-95770674D01*
X115434180Y-95820946D01*
X115434170Y-95820951D01*
X115434169Y-95820953D01*
X115434166Y-95820953D01*
X115427798Y-95824581D01*
X115366428Y-95840833D01*
X82536985Y-95840833D01*
X82502044Y-95835808D01*
X82487045Y-95831403D01*
X82472048Y-95821765D01*
X82454950Y-95816745D01*
X82428276Y-95793634D01*
X82423464Y-95788081D01*
X82395557Y-95731066D01*
X82348151Y-95492739D01*
X82347111Y-95486746D01*
X82346368Y-95483779D01*
X82346360Y-95483739D01*
X82344015Y-95478079D01*
X82247717Y-95160628D01*
X82116098Y-94842871D01*
X81953967Y-94539546D01*
X81762886Y-94253573D01*
X81545183Y-93988301D01*
X81544685Y-93987695D01*
X81301504Y-93744514D01*
X81249072Y-93701484D01*
X81036938Y-93527389D01*
X81035950Y-93526556D01*
X81035633Y-93526318D01*
X81035628Y-93526315D01*
X81035622Y-93526311D01*
X80897372Y-93433935D01*
X80749668Y-93335242D01*
X80749660Y-93335237D01*
X80749654Y-93335233D01*
X80749649Y-93335230D01*
X80749642Y-93335226D01*
X80749633Y-93335221D01*
X80749626Y-93335217D01*
X80574440Y-93241578D01*
X80446336Y-93173105D01*
X80446331Y-93173103D01*
X80446326Y-93173101D01*
X80446231Y-93173056D01*
X80445652Y-93172821D01*
X80128574Y-93041483D01*
X80006827Y-93004552D01*
X79804133Y-92943065D01*
X79799439Y-92941641D01*
X79799434Y-92941640D01*
X79565662Y-92895139D01*
X79532378Y-92883397D01*
X79518524Y-92876150D01*
X79468246Y-92827635D01*
X79464611Y-92821251D01*
X79448367Y-92759895D01*
X79448367Y-81641829D01*
X79453390Y-81606893D01*
X79453888Y-81605199D01*
X79457794Y-81591894D01*
X79467424Y-81576904D01*
X79472434Y-81559824D01*
X79495539Y-81533144D01*
X79496908Y-81531957D01*
X79551787Y-81504477D01*
X79559346Y-81502833D01*
X79585699Y-81500000D01*
X89824523Y-81500000D01*
X89859459Y-81505023D01*
X89874457Y-81509427D01*
X89889447Y-81519057D01*
X89906528Y-81524067D01*
X89933208Y-81547172D01*
X89934395Y-81548541D01*
X89961871Y-81603402D01*
X89963516Y-81610960D01*
X89966353Y-81637331D01*
X89966353Y-81669364D01*
X89997142Y-81863757D01*
X89997143Y-81863763D01*
X90057970Y-82050966D01*
X90147329Y-82226342D01*
X90263025Y-82385583D01*
X90402207Y-82524765D01*
X90561448Y-82640461D01*
X90655069Y-82688163D01*
X90655068Y-82688163D01*
X90722180Y-82722358D01*
X90740850Y-82735519D01*
X90751022Y-82742689D01*
X90760436Y-82751579D01*
X90795662Y-82811918D01*
X90792674Y-82881724D01*
X90756504Y-82935445D01*
X90749499Y-82941515D01*
X90724590Y-82958288D01*
X90561446Y-83041413D01*
X90480810Y-83100000D01*
X90414078Y-83148484D01*
X90406697Y-83152617D01*
X90258533Y-83300781D01*
X90254401Y-83308160D01*
X90213338Y-83364678D01*
X90147329Y-83455530D01*
X90132872Y-83483904D01*
X90057970Y-83630907D01*
X89997143Y-83818110D01*
X89997143Y-83818112D01*
X89997142Y-83818115D01*
X89966353Y-84012508D01*
X89966353Y-84209364D01*
X89997142Y-84403757D01*
X89997143Y-84403763D01*
X90057970Y-84590966D01*
X90147329Y-84766342D01*
X90263025Y-84925583D01*
X90402207Y-85064765D01*
X90462176Y-85108335D01*
X90561443Y-85180458D01*
X90561445Y-85180459D01*
X90561448Y-85180461D01*
X90578951Y-85189379D01*
X90721025Y-85261769D01*
X90722181Y-85262358D01*
X90751022Y-85282689D01*
X90760436Y-85291579D01*
X90795662Y-85351918D01*
X90792674Y-85421724D01*
X90756504Y-85475445D01*
X90749499Y-85481515D01*
X90724588Y-85498289D01*
X90675372Y-85523365D01*
X90655263Y-85531482D01*
X90638518Y-85536590D01*
X90638503Y-85536596D01*
X89622107Y-86013686D01*
X89569418Y-86025437D01*
X88229220Y-86025437D01*
X88229219Y-86025436D01*
X88229219Y-86025437D01*
X88194284Y-86020414D01*
X88169042Y-86013002D01*
X88116297Y-85981706D01*
X87246419Y-85111829D01*
X87242928Y-85108338D01*
X87242925Y-85108334D01*
X87242925Y-85108335D01*
X87235859Y-85101269D01*
X87235858Y-85101267D01*
X87148733Y-85014142D01*
X87076525Y-84965894D01*
X87050795Y-84948701D01*
X87050633Y-84948593D01*
X87048570Y-84947214D01*
X87046285Y-84945687D01*
X87046283Y-84945686D01*
X87046285Y-84945686D01*
X86973042Y-84915350D01*
X86965794Y-84912348D01*
X86965792Y-84912346D01*
X86965792Y-84912347D01*
X86932452Y-84898537D01*
X86932453Y-84898537D01*
X86917820Y-84895626D01*
X86858885Y-84883904D01*
X86831898Y-84878536D01*
X86831896Y-84878535D01*
X86811608Y-84874500D01*
X84829561Y-84874500D01*
X84811521Y-84873181D01*
X84805115Y-84872239D01*
X84799960Y-84869865D01*
X84794616Y-84869474D01*
X84791957Y-84868693D01*
X84792146Y-84868046D01*
X84778170Y-84865110D01*
X84773325Y-84863224D01*
X84773320Y-84863222D01*
X84773311Y-84863219D01*
X84772137Y-84862874D01*
X84771926Y-84862746D01*
X84770805Y-84862365D01*
X84770841Y-84862257D01*
X84770839Y-84862256D01*
X84770864Y-84862191D01*
X84770888Y-84862120D01*
X84758753Y-84854797D01*
X84746020Y-84851827D01*
X84718087Y-84830256D01*
X84717526Y-84829679D01*
X84706200Y-84816216D01*
X84681637Y-84782408D01*
X84665171Y-84751203D01*
X84659916Y-84736476D01*
X84655925Y-84666725D01*
X84656444Y-84664490D01*
X84684088Y-84610713D01*
X84688667Y-84605504D01*
X84707476Y-84588118D01*
X84782190Y-84532186D01*
X84868350Y-84417093D01*
X84868354Y-84417086D01*
X84918596Y-84282379D01*
X84918598Y-84282372D01*
X84922110Y-84249710D01*
X84924998Y-84222860D01*
X84925000Y-84222827D01*
X84925000Y-83750000D01*
X84258723Y-83750000D01*
X84191684Y-83730315D01*
X84145929Y-83677511D01*
X84135985Y-83608353D01*
X84138948Y-83593907D01*
X84141865Y-83583021D01*
X84150000Y-83552661D01*
X84150000Y-83447339D01*
X84138948Y-83406092D01*
X84140611Y-83336243D01*
X84179774Y-83278381D01*
X84244002Y-83250877D01*
X84258723Y-83250000D01*
X84925000Y-83250000D01*
X84925000Y-82777172D01*
X84924998Y-82777138D01*
X84918598Y-82717628D01*
X84918596Y-82717621D01*
X84918596Y-82717620D01*
X84868354Y-82582913D01*
X84868350Y-82582906D01*
X84782190Y-82467812D01*
X84782187Y-82467809D01*
X84782185Y-82467807D01*
X84721628Y-82422474D01*
X84667093Y-82381649D01*
X84667088Y-82381646D01*
X84667089Y-82381646D01*
X84532377Y-82331402D01*
X84532370Y-82331400D01*
X84472852Y-82325000D01*
X84472844Y-82325000D01*
X84000000Y-82325000D01*
X84000000Y-82991277D01*
X83980315Y-83058316D01*
X83927511Y-83104071D01*
X83858353Y-83114015D01*
X83843911Y-83111052D01*
X83802661Y-83100000D01*
X83802660Y-83100000D01*
X83697339Y-83100000D01*
X83656092Y-83111051D01*
X83586243Y-83109389D01*
X83528381Y-83070226D01*
X83500877Y-83005998D01*
X83500000Y-82991277D01*
X83500000Y-82325000D01*
X83027155Y-82325000D01*
X83027146Y-82325000D01*
X82967628Y-82331400D01*
X82967621Y-82331402D01*
X82832910Y-82381646D01*
X82832907Y-82381648D01*
X82717813Y-82467807D01*
X82717807Y-82467813D01*
X82631648Y-82582907D01*
X82631646Y-82582910D01*
X82581402Y-82717621D01*
X82581400Y-82717628D01*
X82575000Y-82777146D01*
X82575000Y-82777155D01*
X82575000Y-83250000D01*
X83241277Y-83250000D01*
X83308316Y-83269685D01*
X83354071Y-83322489D01*
X83364015Y-83391647D01*
X83361052Y-83406093D01*
X83350000Y-83447339D01*
X83350000Y-83552660D01*
X83361052Y-83593907D01*
X83359389Y-83663757D01*
X83320226Y-83721619D01*
X83255998Y-83749123D01*
X83241277Y-83750000D01*
X82575000Y-83750000D01*
X82575000Y-84222852D01*
X82581400Y-84282370D01*
X82581402Y-84282377D01*
X82631646Y-84417089D01*
X82631649Y-84417093D01*
X82631650Y-84417095D01*
X82700038Y-84508448D01*
X82717809Y-84532186D01*
X82786898Y-84583907D01*
X82788558Y-84585149D01*
X82788559Y-84585150D01*
X82813515Y-84610107D01*
X82822884Y-84622623D01*
X82847300Y-84688088D01*
X82847303Y-84688121D01*
X82847465Y-84690395D01*
X82836943Y-84749898D01*
X82834112Y-84756218D01*
X82821265Y-84778411D01*
X82744624Y-84883898D01*
X82660620Y-85048763D01*
X82660618Y-85048767D01*
X82660610Y-85048790D01*
X82603445Y-85224730D01*
X82574500Y-85407480D01*
X82574500Y-85592518D01*
X82603445Y-85775268D01*
X82660610Y-85951208D01*
X82660617Y-85951227D01*
X82660619Y-85951232D01*
X82660620Y-85951235D01*
X82731279Y-86089909D01*
X82744622Y-86116096D01*
X82853379Y-86265787D01*
X82853381Y-86265789D01*
X82986669Y-86399077D01*
X82997189Y-86411044D01*
X83007792Y-86424796D01*
X83033137Y-86489906D01*
X83019294Y-86558204D01*
X83019257Y-86558384D01*
X83019255Y-86558385D01*
X83015867Y-86564807D01*
X82986735Y-86601224D01*
X82984212Y-86603378D01*
X82848885Y-86738705D01*
X82844754Y-86746084D01*
X82806672Y-86798499D01*
X82744622Y-86883902D01*
X82706643Y-86958440D01*
X82660620Y-87048764D01*
X82660620Y-87048765D01*
X82660616Y-87048772D01*
X82603446Y-87224726D01*
X82603445Y-87224733D01*
X82579502Y-87375906D01*
X82579502Y-87375907D01*
X82574500Y-87407487D01*
X82574500Y-87592514D01*
X82574499Y-87592514D01*
X82580935Y-87633143D01*
X82603445Y-87775268D01*
X82660610Y-87951208D01*
X82660617Y-87951227D01*
X82660619Y-87951232D01*
X82660620Y-87951235D01*
X82741266Y-88109509D01*
X82741267Y-88109510D01*
X82741267Y-88109511D01*
X82744619Y-88116090D01*
X82744626Y-88116102D01*
X82853376Y-88265783D01*
X82853381Y-88265789D01*
X82986669Y-88399077D01*
X82997189Y-88411044D01*
X83007792Y-88424796D01*
X83033137Y-88489906D01*
X83019368Y-88557840D01*
X83019257Y-88558384D01*
X83019255Y-88558385D01*
X83015867Y-88564807D01*
X82986735Y-88601224D01*
X82984212Y-88603378D01*
X82848886Y-88738705D01*
X82844753Y-88746086D01*
X82825029Y-88773233D01*
X82744655Y-88883858D01*
X82744622Y-88883903D01*
X82744620Y-88883905D01*
X82744618Y-88883910D01*
X82660617Y-89048770D01*
X82660617Y-89048771D01*
X82660610Y-89048790D01*
X82603445Y-89224730D01*
X82574500Y-89407480D01*
X82574500Y-89592518D01*
X82603445Y-89775268D01*
X82660610Y-89951208D01*
X82660617Y-89951227D01*
X82660619Y-89951232D01*
X82660620Y-89951235D01*
X82739795Y-90106622D01*
X82739795Y-90106623D01*
X82744619Y-90116091D01*
X82744622Y-90116096D01*
X82831633Y-90235857D01*
X82853379Y-90265787D01*
X82920492Y-90332900D01*
X82986673Y-90399081D01*
X82997191Y-90411047D01*
X83007791Y-90424795D01*
X83033137Y-90489906D01*
X83019258Y-90558381D01*
X83015867Y-90564807D01*
X82986735Y-90601224D01*
X82984212Y-90603378D01*
X82848884Y-90738707D01*
X82844754Y-90746082D01*
X82765125Y-90855683D01*
X82744622Y-90883903D01*
X82744620Y-90883905D01*
X82744618Y-90883910D01*
X82660617Y-91048770D01*
X82660617Y-91048771D01*
X82660610Y-91048790D01*
X82603445Y-91224730D01*
X82596915Y-91265961D01*
X82592280Y-91295226D01*
X82591627Y-91299352D01*
X82574500Y-91407481D01*
X82574500Y-91592517D01*
X82580836Y-91632519D01*
X82580836Y-91632520D01*
X82603445Y-91775268D01*
X82660610Y-91951208D01*
X82660617Y-91951227D01*
X82660617Y-91951228D01*
X82660618Y-91951231D01*
X82660619Y-91951232D01*
X82660620Y-91951235D01*
X82727543Y-92082577D01*
X82727543Y-92082579D01*
X82744620Y-92116094D01*
X82771187Y-92152659D01*
X82853379Y-92265787D01*
X82984213Y-92396621D01*
X83133904Y-92505378D01*
X83212811Y-92545583D01*
X83298764Y-92589379D01*
X83298767Y-92589380D01*
X83386750Y-92617967D01*
X83474736Y-92646555D01*
X83657486Y-92675500D01*
X83657487Y-92675500D01*
X83842513Y-92675500D01*
X83842514Y-92675500D01*
X84025264Y-92646555D01*
X84201235Y-92589379D01*
X84366096Y-92505378D01*
X84515787Y-92396621D01*
X84646621Y-92265787D01*
X84755378Y-92116096D01*
X84839379Y-91951235D01*
X84896555Y-91775264D01*
X84925500Y-91592514D01*
X84925500Y-91407486D01*
X84896555Y-91224736D01*
X84840877Y-91053377D01*
X84839821Y-91049630D01*
X84755378Y-90883904D01*
X84717675Y-90832011D01*
X84717675Y-90832010D01*
X84717673Y-90832009D01*
X84671521Y-90768485D01*
X84646624Y-90734216D01*
X84513339Y-90600931D01*
X84502828Y-90588975D01*
X84492214Y-90575212D01*
X84466861Y-90510105D01*
X84480731Y-90441631D01*
X84484130Y-90435189D01*
X84513267Y-90398773D01*
X84515779Y-90396626D01*
X84515787Y-90396621D01*
X84646621Y-90265787D01*
X84755378Y-90116096D01*
X84839379Y-89951235D01*
X84896555Y-89775264D01*
X84925500Y-89592514D01*
X84925500Y-89407486D01*
X84896555Y-89224736D01*
X84889616Y-89203381D01*
X84884209Y-89186738D01*
X84865755Y-89129941D01*
X84839402Y-89048832D01*
X84839381Y-89048770D01*
X84839380Y-89048769D01*
X84839380Y-89048767D01*
X84839379Y-89048764D01*
X84789848Y-88951555D01*
X84755378Y-88883904D01*
X84646621Y-88734213D01*
X84515787Y-88603379D01*
X84515786Y-88603378D01*
X84513339Y-88600931D01*
X84502828Y-88588975D01*
X84492214Y-88575212D01*
X84466861Y-88510105D01*
X84480731Y-88441631D01*
X84484130Y-88435189D01*
X84513267Y-88398773D01*
X84515779Y-88396626D01*
X84515787Y-88396621D01*
X84646621Y-88265787D01*
X84755378Y-88116096D01*
X84839379Y-87951235D01*
X84896555Y-87775264D01*
X84925500Y-87592514D01*
X84925500Y-87407486D01*
X84896555Y-87224736D01*
X84847057Y-87072396D01*
X84839380Y-87048767D01*
X84839379Y-87048764D01*
X84796577Y-86964763D01*
X84755378Y-86883904D01*
X84646621Y-86734213D01*
X84515787Y-86603379D01*
X84515786Y-86603378D01*
X84513339Y-86600931D01*
X84502828Y-86588975D01*
X84492214Y-86575212D01*
X84466861Y-86510105D01*
X84480731Y-86441631D01*
X84484130Y-86435189D01*
X84513267Y-86398773D01*
X84515779Y-86396626D01*
X84515787Y-86396621D01*
X84646621Y-86265787D01*
X84700939Y-86191023D01*
X84725520Y-86165732D01*
X84743171Y-86152121D01*
X84796008Y-86128452D01*
X84800403Y-86127626D01*
X84807879Y-86126931D01*
X84808273Y-86126778D01*
X84808667Y-86126857D01*
X84823268Y-86125500D01*
X86421718Y-86125500D01*
X86456650Y-86130521D01*
X86481894Y-86137934D01*
X86534640Y-86169230D01*
X87502195Y-87136788D01*
X87502200Y-87136792D01*
X87502204Y-87136795D01*
X87604647Y-87205246D01*
X87605669Y-87205929D01*
X87610248Y-87207567D01*
X87654958Y-87226086D01*
X87718485Y-87252400D01*
X87758376Y-87260334D01*
X87836371Y-87275849D01*
X87838586Y-87276345D01*
X87839328Y-87276437D01*
X87839330Y-87276437D01*
X87839331Y-87276437D01*
X87962544Y-87276437D01*
X89569421Y-87276437D01*
X89622110Y-87288188D01*
X90638512Y-87765280D01*
X90665285Y-87776589D01*
X90675010Y-87780697D01*
X90675021Y-87780699D01*
X90677820Y-87781592D01*
X90696456Y-87789250D01*
X90730377Y-87806534D01*
X90731977Y-87807471D01*
X90735697Y-87809273D01*
X90737680Y-87810259D01*
X90741428Y-87811315D01*
X90780606Y-87824045D01*
X90795094Y-87833838D01*
X90811180Y-87838876D01*
X90812274Y-87839615D01*
X90821611Y-87845999D01*
X90832150Y-87858887D01*
X90837437Y-87862461D01*
X90844679Y-87871127D01*
X90847545Y-87877713D01*
X90865842Y-87900087D01*
X90868907Y-87926792D01*
X90872563Y-87935192D01*
X90870987Y-87944914D01*
X90873809Y-87969500D01*
X90863655Y-87990153D01*
X90861385Y-88004162D01*
X90851188Y-88015513D01*
X90842983Y-88032201D01*
X90842968Y-88032219D01*
X90840873Y-88034501D01*
X90824925Y-88044748D01*
X90814693Y-88056139D01*
X90801616Y-88059726D01*
X90787848Y-88068573D01*
X90756213Y-88078851D01*
X90587910Y-88164607D01*
X90587624Y-88164783D01*
X90587493Y-88164819D01*
X90583572Y-88166818D01*
X90583174Y-88166037D01*
X90567770Y-88170381D01*
X90562521Y-88183053D01*
X91015607Y-88636137D01*
X91049092Y-88697460D01*
X91044108Y-88767151D01*
X91002237Y-88823085D01*
X90989929Y-88831204D01*
X90955897Y-88850853D01*
X90955894Y-88850855D01*
X90876771Y-88929978D01*
X90876767Y-88929984D01*
X90857119Y-88964013D01*
X90806550Y-89012227D01*
X90737943Y-89025447D01*
X90673079Y-88999477D01*
X90662053Y-88989690D01*
X90208969Y-88536605D01*
X90196297Y-88541854D01*
X90191953Y-88557258D01*
X90192734Y-88557656D01*
X90190735Y-88561577D01*
X90190699Y-88561708D01*
X90190523Y-88561994D01*
X90104766Y-88730298D01*
X90104765Y-88730301D01*
X90046401Y-88909932D01*
X90024411Y-89048770D01*
X90016853Y-89096489D01*
X90016853Y-89285384D01*
X90027876Y-89354981D01*
X90046401Y-89471940D01*
X90104765Y-89651571D01*
X90104766Y-89651573D01*
X90121499Y-89684413D01*
X90190519Y-89819870D01*
X90208969Y-89845265D01*
X90662054Y-89392180D01*
X90723376Y-89358696D01*
X90793068Y-89363680D01*
X90849001Y-89405552D01*
X90857120Y-89417860D01*
X90859578Y-89422117D01*
X90876766Y-89451889D01*
X90876768Y-89451891D01*
X90876769Y-89451893D01*
X90955897Y-89531021D01*
X90989925Y-89550667D01*
X91038141Y-89601234D01*
X91051364Y-89669841D01*
X91025396Y-89734706D01*
X91015606Y-89745735D01*
X90562522Y-90198818D01*
X90562522Y-90198819D01*
X90562526Y-90198823D01*
X90587911Y-90217266D01*
X90756207Y-90303019D01*
X90756213Y-90303021D01*
X90780602Y-90310945D01*
X90795086Y-90320734D01*
X90811168Y-90325768D01*
X90812274Y-90326516D01*
X90821611Y-90332900D01*
X90832144Y-90345780D01*
X90837427Y-90349351D01*
X90844670Y-90358016D01*
X90847539Y-90364607D01*
X90865842Y-90386988D01*
X90868905Y-90413677D01*
X90872562Y-90422076D01*
X90870986Y-90431806D01*
X90873809Y-90456401D01*
X90863659Y-90477045D01*
X90861392Y-90491048D01*
X90851192Y-90502404D01*
X90842983Y-90519104D01*
X90842970Y-90519118D01*
X90840876Y-90521399D01*
X90824934Y-90531643D01*
X90814707Y-90543031D01*
X90801625Y-90546620D01*
X90787852Y-90555472D01*
X90736826Y-90572053D01*
X90736823Y-90572054D01*
X90561446Y-90661413D01*
X90486186Y-90716094D01*
X90486185Y-90716095D01*
X90486184Y-90716096D01*
X90436738Y-90752021D01*
X90414077Y-90768485D01*
X90406697Y-90772617D01*
X90258532Y-90920782D01*
X90254400Y-90928161D01*
X90233209Y-90957328D01*
X90152935Y-91067815D01*
X90147329Y-91075531D01*
X90147327Y-91075533D01*
X90147325Y-91075538D01*
X90111842Y-91145177D01*
X90057970Y-91250907D01*
X89997143Y-91438110D01*
X89997142Y-91438113D01*
X89997142Y-91438115D01*
X89966353Y-91632508D01*
X89966353Y-91829364D01*
X89985655Y-91951232D01*
X89997143Y-92023763D01*
X90057970Y-92210966D01*
X90103139Y-92299614D01*
X90147329Y-92386342D01*
X90263025Y-92545583D01*
X90402207Y-92684765D01*
X90561448Y-92800461D01*
X90633323Y-92837083D01*
X90722207Y-92882372D01*
X90730374Y-92886533D01*
X90731977Y-92887471D01*
X90735676Y-92889263D01*
X90737684Y-92890261D01*
X90741449Y-92891323D01*
X90777730Y-92903111D01*
X90816781Y-92915799D01*
X90816782Y-92915800D01*
X90852530Y-92927415D01*
X90924026Y-92950646D01*
X91118431Y-92981437D01*
X91118436Y-92981437D01*
X91315274Y-92981437D01*
X91315275Y-92981437D01*
X91509679Y-92950646D01*
X91537390Y-92941642D01*
X91696878Y-92889821D01*
X91872258Y-92800461D01*
X92031499Y-92684765D01*
X92170681Y-92545583D01*
X92286377Y-92386342D01*
X92375737Y-92210962D01*
X92436562Y-92023763D01*
X92448941Y-91945606D01*
X92467353Y-91829359D01*
X92467353Y-91632514D01*
X92436562Y-91438110D01*
X92397415Y-91317628D01*
X92397411Y-91317616D01*
X92397411Y-91317615D01*
X92394906Y-91309907D01*
X92673864Y-91309907D01*
X92674059Y-91312387D01*
X92674059Y-91312390D01*
X92674060Y-91312393D01*
X92719879Y-91470105D01*
X92803475Y-91611459D01*
X92803482Y-91611468D01*
X92919599Y-91727585D01*
X92919608Y-91727592D01*
X92919613Y-91727595D01*
X93060960Y-91811187D01*
X93060961Y-91811187D01*
X93060964Y-91811189D01*
X93060967Y-91811190D01*
X93060989Y-91811196D01*
X93060994Y-91811198D01*
X93218654Y-91857003D01*
X93218658Y-91857004D01*
X93218665Y-91857006D01*
X93218671Y-91857007D01*
X93255511Y-91859906D01*
X93255527Y-91859907D01*
X93946161Y-91859907D01*
X94446161Y-91859907D01*
X95136790Y-91859907D01*
X95136795Y-91859907D01*
X95136810Y-91859906D01*
X95173650Y-91857007D01*
X95173656Y-91857006D01*
X95331354Y-91811190D01*
X95331357Y-91811189D01*
X95472713Y-91727592D01*
X95472722Y-91727585D01*
X95588839Y-91611468D01*
X95588846Y-91611459D01*
X95672442Y-91470105D01*
X95718261Y-91312393D01*
X95718456Y-91309908D01*
X95718456Y-91309907D01*
X101973864Y-91309907D01*
X101974059Y-91312387D01*
X101974059Y-91312390D01*
X101974060Y-91312393D01*
X102019879Y-91470105D01*
X102103475Y-91611459D01*
X102103482Y-91611468D01*
X102219599Y-91727585D01*
X102219608Y-91727592D01*
X102219613Y-91727595D01*
X102360960Y-91811187D01*
X102360961Y-91811187D01*
X102360964Y-91811189D01*
X102360967Y-91811190D01*
X102360989Y-91811196D01*
X102360994Y-91811198D01*
X102518654Y-91857003D01*
X102518658Y-91857004D01*
X102518665Y-91857006D01*
X102518671Y-91857007D01*
X102555511Y-91859906D01*
X102555527Y-91859907D01*
X103246161Y-91859907D01*
X103246161Y-91309907D01*
X101973864Y-91309907D01*
X95718456Y-91309907D01*
X94446161Y-91309907D01*
X94446161Y-91859907D01*
X93946161Y-91859907D01*
X93946161Y-91309907D01*
X92673864Y-91309907D01*
X92394906Y-91309907D01*
X92377241Y-91255542D01*
X92376180Y-91251781D01*
X92375735Y-91250907D01*
X92296476Y-91095353D01*
X92296476Y-91095352D01*
X92296474Y-91095350D01*
X92286377Y-91075532D01*
X92170681Y-90916291D01*
X92031499Y-90777109D01*
X91872258Y-90661413D01*
X91696878Y-90572052D01*
X91696877Y-90572051D01*
X91696874Y-90572050D01*
X91653095Y-90557825D01*
X91638606Y-90548029D01*
X91622508Y-90542986D01*
X91621426Y-90542254D01*
X91612091Y-90535871D01*
X91601542Y-90522971D01*
X91596256Y-90519397D01*
X91589016Y-90510731D01*
X91586152Y-90504150D01*
X91567862Y-90481782D01*
X91564796Y-90455065D01*
X91561140Y-90446662D01*
X91562716Y-90436942D01*
X91559897Y-90412368D01*
X91570055Y-90391705D01*
X91572328Y-90377694D01*
X91582519Y-90366351D01*
X91590717Y-90349676D01*
X91592818Y-90347386D01*
X91608773Y-90337132D01*
X91619026Y-90325723D01*
X91632107Y-90322136D01*
X91645858Y-90313299D01*
X91677492Y-90303021D01*
X91845790Y-90217268D01*
X91871181Y-90198820D01*
X91871181Y-90198819D01*
X91418097Y-89745734D01*
X91384613Y-89684413D01*
X91389597Y-89614721D01*
X91431469Y-89558788D01*
X91443772Y-89550672D01*
X91477809Y-89531021D01*
X91556937Y-89451893D01*
X91576585Y-89417861D01*
X91627151Y-89369648D01*
X91695758Y-89356424D01*
X91760622Y-89382392D01*
X91771652Y-89392182D01*
X92224735Y-89845265D01*
X92224736Y-89845265D01*
X92243184Y-89819874D01*
X92328938Y-89651574D01*
X92387304Y-89471939D01*
X92416853Y-89285384D01*
X92416853Y-89096489D01*
X92387304Y-88909934D01*
X92328938Y-88730299D01*
X92243182Y-88561996D01*
X92242994Y-88561737D01*
X92224739Y-88536610D01*
X92224735Y-88536606D01*
X92224734Y-88536606D01*
X91771651Y-88989689D01*
X91710328Y-89023174D01*
X91640636Y-89018190D01*
X91584703Y-88976318D01*
X91576583Y-88964009D01*
X91570484Y-88953445D01*
X91556937Y-88929981D01*
X91477809Y-88850853D01*
X91461180Y-88841252D01*
X91443777Y-88831204D01*
X91395563Y-88780636D01*
X91382341Y-88712029D01*
X91408310Y-88647165D01*
X91418093Y-88636141D01*
X91871181Y-88183053D01*
X91870611Y-88182639D01*
X91845786Y-88164603D01*
X91845784Y-88164602D01*
X91677489Y-88078850D01*
X91677487Y-88078849D01*
X91653100Y-88070926D01*
X91638612Y-88061133D01*
X91622526Y-88056096D01*
X91621428Y-88055354D01*
X91612090Y-88048969D01*
X91601552Y-88036082D01*
X91596269Y-88032511D01*
X91589026Y-88023844D01*
X91586159Y-88017258D01*
X91567861Y-87994881D01*
X91564797Y-87968179D01*
X91561141Y-87959780D01*
X91562717Y-87950054D01*
X91559896Y-87925467D01*
X91570049Y-87904815D01*
X91572319Y-87890810D01*
X91582515Y-87879458D01*
X91590719Y-87862771D01*
X91592835Y-87860465D01*
X91608777Y-87850222D01*
X91619010Y-87838832D01*
X91632090Y-87835243D01*
X91645858Y-87826397D01*
X91696878Y-87809821D01*
X91872258Y-87720461D01*
X92031499Y-87604765D01*
X92170681Y-87465583D01*
X92286377Y-87306342D01*
X92375737Y-87130962D01*
X92431135Y-86960463D01*
X92442905Y-86943250D01*
X92444145Y-86939998D01*
X92440633Y-86928157D01*
X92442160Y-86908417D01*
X92446044Y-86883899D01*
X92462435Y-86780407D01*
X92467353Y-86749358D01*
X92467353Y-86552514D01*
X92436562Y-86358110D01*
X92406565Y-86265789D01*
X92395740Y-86232473D01*
X92395740Y-86232472D01*
X92383759Y-86195601D01*
X92375737Y-86170912D01*
X92375735Y-86170909D01*
X92375735Y-86170907D01*
X92373483Y-86166488D01*
X92373176Y-86165700D01*
X92372452Y-86164463D01*
X92312774Y-86047339D01*
X92286376Y-85995531D01*
X92281717Y-85989118D01*
X92170681Y-85836291D01*
X92031499Y-85697109D01*
X91998965Y-85673472D01*
X91951878Y-85639261D01*
X91872256Y-85581411D01*
X91872253Y-85581409D01*
X91872244Y-85581404D01*
X91711523Y-85499514D01*
X91682678Y-85479180D01*
X91673263Y-85470288D01*
X91638041Y-85409949D01*
X91641033Y-85340143D01*
X91677194Y-85286434D01*
X91684207Y-85280358D01*
X91709109Y-85263588D01*
X91863986Y-85184675D01*
X91864395Y-85184504D01*
X91872047Y-85180569D01*
X91872474Y-85180351D01*
X91920336Y-85155964D01*
X91935748Y-85134429D01*
X91939248Y-85131789D01*
X92031499Y-85064765D01*
X92170681Y-84925583D01*
X92286377Y-84766342D01*
X92375737Y-84590962D01*
X92431135Y-84420463D01*
X92444443Y-84401001D01*
X92440633Y-84388157D01*
X92442160Y-84368417D01*
X92462435Y-84240408D01*
X92467353Y-84209357D01*
X92467353Y-84012514D01*
X92441659Y-83850293D01*
X92436562Y-83818110D01*
X92405210Y-83721619D01*
X92395740Y-83692473D01*
X92395740Y-83692472D01*
X92388166Y-83669165D01*
X92375737Y-83630912D01*
X92375735Y-83630909D01*
X92375735Y-83630907D01*
X92373483Y-83626487D01*
X92373177Y-83625703D01*
X92372455Y-83624471D01*
X92300833Y-83483904D01*
X92286377Y-83455532D01*
X92286374Y-83455528D01*
X92286374Y-83455527D01*
X92250457Y-83406093D01*
X92170681Y-83296291D01*
X92031499Y-83157109D01*
X91951878Y-83099261D01*
X91872256Y-83041411D01*
X91872253Y-83041409D01*
X91872244Y-83041404D01*
X91711523Y-82959514D01*
X91682678Y-82939180D01*
X91673263Y-82930288D01*
X91638041Y-82869949D01*
X91641033Y-82800143D01*
X91677194Y-82746434D01*
X91684207Y-82740358D01*
X91709109Y-82723588D01*
X91863986Y-82644675D01*
X91864395Y-82644504D01*
X91872047Y-82640569D01*
X91872474Y-82640351D01*
X91920336Y-82615964D01*
X91935748Y-82594429D01*
X91939248Y-82591789D01*
X92031499Y-82524765D01*
X92170681Y-82385583D01*
X92286377Y-82226342D01*
X92375737Y-82050962D01*
X92431135Y-81880463D01*
X92444443Y-81861001D01*
X92440633Y-81848157D01*
X92442160Y-81828417D01*
X92462435Y-81700408D01*
X92467353Y-81669357D01*
X92467353Y-81601834D01*
X92470485Y-81574141D01*
X92471319Y-81570498D01*
X92473007Y-81564751D01*
X92473078Y-81562820D01*
X92474799Y-81555312D01*
X92476889Y-81551582D01*
X92479991Y-81541698D01*
X92479793Y-81541641D01*
X92480054Y-81540749D01*
X92480643Y-81539621D01*
X92483850Y-81529404D01*
X92486986Y-81522862D01*
X92488916Y-81523787D01*
X92498163Y-81506088D01*
X92500000Y-81500883D01*
X92500000Y-81409406D01*
X92505021Y-81374479D01*
X92508207Y-81363626D01*
X92545977Y-81304845D01*
X92609531Y-81275816D01*
X92678652Y-81285738D01*
X92679524Y-81286137D01*
X92723256Y-81319497D01*
X92724310Y-81320761D01*
X92735835Y-81337085D01*
X92778605Y-81409406D01*
X92781963Y-81415083D01*
X92784474Y-81419537D01*
X92805909Y-81459451D01*
X92805801Y-81459536D01*
X92814644Y-81475731D01*
X92814731Y-81475879D01*
X92815376Y-81477079D01*
X92817279Y-81486132D01*
X92830050Y-81540278D01*
X92830021Y-81541071D01*
X92829317Y-81543385D01*
X92829752Y-81545453D01*
X92824490Y-81559264D01*
X92811581Y-81601736D01*
X92790927Y-81635150D01*
X92790795Y-81636379D01*
X92782963Y-81652055D01*
X92727390Y-81746025D01*
X92727389Y-81746026D01*
X92719415Y-81759509D01*
X92684857Y-81878460D01*
X92684854Y-81878472D01*
X92683706Y-81882422D01*
X92668700Y-81905913D01*
X92673014Y-81922325D01*
X92672682Y-81928520D01*
X92672303Y-81933332D01*
X92672302Y-81933341D01*
X92670661Y-81954188D01*
X92670661Y-82385615D01*
X92673562Y-82422477D01*
X92673562Y-82422479D01*
X92673563Y-82422480D01*
X92673564Y-82422486D01*
X92719411Y-82580287D01*
X92719417Y-82580305D01*
X92719418Y-82580307D01*
X92754370Y-82639407D01*
X92781646Y-82685529D01*
X92782815Y-82690136D01*
X92783651Y-82689680D01*
X92814921Y-82746946D01*
X92829776Y-82815174D01*
X92829645Y-82817015D01*
X92810309Y-82875199D01*
X92791423Y-82904619D01*
X92791140Y-82907060D01*
X92783716Y-82921764D01*
X92719879Y-83029707D01*
X92701154Y-83094160D01*
X92674086Y-83187333D01*
X92674060Y-83187421D01*
X92674059Y-83187426D01*
X92673864Y-83189903D01*
X92673865Y-83189906D01*
X92673866Y-83189907D01*
X94054332Y-83189907D01*
X94089267Y-83194930D01*
X94104265Y-83199334D01*
X94163016Y-83237079D01*
X94163040Y-83237107D01*
X94163043Y-83237109D01*
X94163044Y-83237111D01*
X94164203Y-83238448D01*
X94191679Y-83293309D01*
X94193324Y-83300867D01*
X94196161Y-83327238D01*
X94196161Y-83548077D01*
X94196160Y-83548083D01*
X94196161Y-83548086D01*
X94191136Y-83583021D01*
X94186731Y-83598019D01*
X94148988Y-83656762D01*
X94148953Y-83656792D01*
X94148952Y-83656794D01*
X94148950Y-83656794D01*
X94147619Y-83657949D01*
X94092758Y-83685425D01*
X94085200Y-83687070D01*
X94058829Y-83689907D01*
X92673864Y-83689907D01*
X92674059Y-83692387D01*
X92674059Y-83692390D01*
X92674060Y-83692393D01*
X92719879Y-83850105D01*
X92781974Y-83955103D01*
X92784475Y-83959538D01*
X92805909Y-83999451D01*
X92805801Y-83999536D01*
X92815087Y-84016542D01*
X92815333Y-84017000D01*
X92822219Y-84049756D01*
X92829777Y-84084462D01*
X92829647Y-84086290D01*
X92810298Y-84144497D01*
X92791055Y-84174462D01*
X92790799Y-84176664D01*
X92783386Y-84191340D01*
X92727390Y-84286025D01*
X92727389Y-84286026D01*
X92719415Y-84299509D01*
X92697406Y-84375265D01*
X92685254Y-84417095D01*
X92684857Y-84418460D01*
X92684854Y-84418472D01*
X92683706Y-84422422D01*
X92668700Y-84445913D01*
X92673014Y-84462325D01*
X92672682Y-84468520D01*
X92672303Y-84473332D01*
X92672302Y-84473341D01*
X92670661Y-84494188D01*
X92670661Y-84925615D01*
X92673562Y-84962477D01*
X92673562Y-84962479D01*
X92673563Y-84962480D01*
X92673564Y-84962486D01*
X92719413Y-85120293D01*
X92719417Y-85120306D01*
X92719419Y-85120310D01*
X92781646Y-85225531D01*
X92784018Y-85229725D01*
X92805602Y-85269690D01*
X92805530Y-85269747D01*
X92815006Y-85287102D01*
X92815193Y-85287447D01*
X92822126Y-85320040D01*
X92829776Y-85355174D01*
X92829645Y-85357015D01*
X92810309Y-85415199D01*
X92791423Y-85444619D01*
X92791140Y-85447060D01*
X92783716Y-85461764D01*
X92719879Y-85569707D01*
X92710616Y-85601592D01*
X92674063Y-85727412D01*
X92674060Y-85727421D01*
X92674059Y-85727426D01*
X92673864Y-85729903D01*
X92673865Y-85729906D01*
X92673866Y-85729907D01*
X95718456Y-85729907D01*
X95718456Y-85729903D01*
X95718455Y-85729902D01*
X95718261Y-85727420D01*
X95718237Y-85727339D01*
X95681705Y-85601592D01*
X95680727Y-85598031D01*
X95671333Y-85561691D01*
X95671492Y-85561623D01*
X95668497Y-85549815D01*
X95667967Y-85548670D01*
X95666270Y-85542105D01*
X95667239Y-85512419D01*
X95665597Y-85482769D01*
X95668366Y-85477884D01*
X95668550Y-85472273D01*
X95685413Y-85447825D01*
X95695678Y-85429723D01*
X95694180Y-85428441D01*
X95694889Y-85427613D01*
X95698037Y-85425563D01*
X95700063Y-85421992D01*
X95700071Y-85421985D01*
X95702115Y-85420006D01*
X95703567Y-85421506D01*
X95708222Y-85414758D01*
X95726126Y-85407277D01*
X95753444Y-85389494D01*
X95764875Y-85386649D01*
X95805307Y-85378608D01*
X95837590Y-85365235D01*
X95871782Y-85356510D01*
X95885580Y-85355027D01*
X95954337Y-85367436D01*
X96005461Y-85415031D01*
X96008135Y-85419539D01*
X96025500Y-85482821D01*
X96025500Y-86020716D01*
X96020476Y-86055653D01*
X96013064Y-86080894D01*
X95981769Y-86133638D01*
X95902497Y-86212910D01*
X95874242Y-86234061D01*
X95860521Y-86241553D01*
X95792365Y-86256412D01*
X95792248Y-86256403D01*
X95792248Y-86256404D01*
X95792247Y-86256403D01*
X95791855Y-86256376D01*
X95731511Y-86235663D01*
X95726755Y-86232473D01*
X95722930Y-86229907D01*
X92673864Y-86229907D01*
X92674059Y-86232387D01*
X92674059Y-86232390D01*
X92674060Y-86232393D01*
X92719879Y-86390105D01*
X92781974Y-86495103D01*
X92784475Y-86499538D01*
X92805909Y-86539451D01*
X92805801Y-86539536D01*
X92815087Y-86556542D01*
X92815333Y-86557000D01*
X92822219Y-86589756D01*
X92829777Y-86624462D01*
X92829647Y-86626290D01*
X92810298Y-86684497D01*
X92791055Y-86714462D01*
X92790799Y-86716664D01*
X92783386Y-86731340D01*
X92727390Y-86826025D01*
X92727389Y-86826026D01*
X92719415Y-86839509D01*
X92684857Y-86958460D01*
X92684854Y-86958472D01*
X92683706Y-86962422D01*
X92670997Y-86982317D01*
X92672047Y-86998647D01*
X92673014Y-87002325D01*
X92672682Y-87008520D01*
X92672303Y-87013332D01*
X92672302Y-87013341D01*
X92670661Y-87034188D01*
X92670661Y-87465615D01*
X92673562Y-87502477D01*
X92673563Y-87502479D01*
X92673564Y-87502486D01*
X92719413Y-87660293D01*
X92719417Y-87660306D01*
X92719419Y-87660310D01*
X92781646Y-87765531D01*
X92784018Y-87769725D01*
X92805602Y-87809690D01*
X92805530Y-87809747D01*
X92815006Y-87827102D01*
X92815193Y-87827447D01*
X92822126Y-87860040D01*
X92829776Y-87895174D01*
X92829645Y-87897015D01*
X92810309Y-87955197D01*
X92806631Y-87960928D01*
X92791423Y-87984619D01*
X92791140Y-87987060D01*
X92783716Y-88001764D01*
X92719879Y-88109707D01*
X92703878Y-88164783D01*
X92674086Y-88267333D01*
X92674060Y-88267421D01*
X92674059Y-88267426D01*
X92673864Y-88269903D01*
X92673865Y-88269906D01*
X92673866Y-88269907D01*
X95718456Y-88269907D01*
X95718456Y-88269903D01*
X95718455Y-88269902D01*
X95718261Y-88267420D01*
X95672442Y-88109708D01*
X95653657Y-88077944D01*
X95646680Y-88064281D01*
X95646533Y-88063943D01*
X95645933Y-88059158D01*
X95640163Y-88045077D01*
X95640139Y-88045084D01*
X95640100Y-88044929D01*
X95640102Y-88044928D01*
X95639936Y-88044522D01*
X95636669Y-88031432D01*
X95638096Y-87996606D01*
X95637847Y-87994616D01*
X95638208Y-87993860D01*
X95639530Y-87961624D01*
X95679324Y-87904728D01*
X95681694Y-87902823D01*
X95746288Y-87876189D01*
X95759345Y-87875500D01*
X95811608Y-87875500D01*
X95811608Y-87875499D01*
X95876129Y-87862666D01*
X95932452Y-87851463D01*
X95965792Y-87837652D01*
X96046286Y-87804312D01*
X96108612Y-87762666D01*
X96148733Y-87735858D01*
X96235858Y-87648733D01*
X96235859Y-87648730D01*
X96252210Y-87632377D01*
X96280471Y-87611221D01*
X96290401Y-87605799D01*
X96307805Y-87602014D01*
X96313529Y-87598889D01*
X96320040Y-87599354D01*
X96358673Y-87590953D01*
X96424136Y-87615374D01*
X96466003Y-87671308D01*
X96468684Y-87678497D01*
X96476500Y-87721825D01*
X96476500Y-88069717D01*
X96476499Y-88069719D01*
X96476500Y-88069720D01*
X96471476Y-88104654D01*
X96464064Y-88129895D01*
X96432769Y-88182639D01*
X95883284Y-88732123D01*
X95855028Y-88753275D01*
X95841307Y-88760767D01*
X95773035Y-88775618D01*
X95761375Y-88774784D01*
X95735080Y-88769907D01*
X95734705Y-88769907D01*
X92673866Y-88769907D01*
X92673864Y-88769907D01*
X92674059Y-88772387D01*
X92674059Y-88772390D01*
X92674060Y-88772393D01*
X92719879Y-88930105D01*
X92781974Y-89035103D01*
X92784475Y-89039538D01*
X92805909Y-89079451D01*
X92805801Y-89079536D01*
X92815059Y-89096490D01*
X92815333Y-89097000D01*
X92822219Y-89129756D01*
X92829777Y-89164462D01*
X92829647Y-89166290D01*
X92810298Y-89224497D01*
X92791055Y-89254462D01*
X92790799Y-89256664D01*
X92783387Y-89271339D01*
X92719416Y-89379510D01*
X92719415Y-89379513D01*
X92719413Y-89379519D01*
X92673564Y-89537326D01*
X92673563Y-89537332D01*
X92673562Y-89537333D01*
X92673562Y-89537335D01*
X92670661Y-89574197D01*
X92670661Y-90005615D01*
X92673562Y-90042477D01*
X92673562Y-90042479D01*
X92673563Y-90042480D01*
X92673564Y-90042486D01*
X92719413Y-90200293D01*
X92719417Y-90200306D01*
X92719419Y-90200310D01*
X92781646Y-90305531D01*
X92784018Y-90309725D01*
X92805602Y-90349690D01*
X92805530Y-90349747D01*
X92815006Y-90367102D01*
X92815193Y-90367447D01*
X92822126Y-90400040D01*
X92829776Y-90435174D01*
X92829645Y-90437015D01*
X92810309Y-90495199D01*
X92791423Y-90524619D01*
X92791140Y-90527060D01*
X92783716Y-90541764D01*
X92719879Y-90649707D01*
X92708548Y-90688710D01*
X92674063Y-90807412D01*
X92674060Y-90807421D01*
X92674059Y-90807426D01*
X92673864Y-90809903D01*
X92673865Y-90809906D01*
X92673866Y-90809907D01*
X95718456Y-90809907D01*
X95718456Y-90809903D01*
X101973864Y-90809903D01*
X101973865Y-90809906D01*
X101973866Y-90809907D01*
X103246161Y-90809907D01*
X103246161Y-90039907D01*
X101973864Y-90039907D01*
X101974059Y-90042387D01*
X101974059Y-90042390D01*
X101974060Y-90042393D01*
X102019879Y-90200105D01*
X102081507Y-90304313D01*
X102082036Y-90305207D01*
X102084424Y-90309432D01*
X102105990Y-90349389D01*
X102105914Y-90349449D01*
X102115309Y-90366656D01*
X102115563Y-90367125D01*
X102122759Y-90400999D01*
X102130127Y-90434868D01*
X102130127Y-90434870D01*
X102129998Y-90436673D01*
X102110629Y-90494864D01*
X102091457Y-90524694D01*
X102091193Y-90526975D01*
X102083772Y-90541670D01*
X102047277Y-90603381D01*
X102019879Y-90649708D01*
X101974061Y-90807418D01*
X101974060Y-90807421D01*
X101974059Y-90807426D01*
X101973864Y-90809903D01*
X95718456Y-90809903D01*
X95718455Y-90809902D01*
X95718261Y-90807420D01*
X95672442Y-90649708D01*
X95630004Y-90577949D01*
X95623565Y-90565505D01*
X95622922Y-90564069D01*
X95622229Y-90558984D01*
X95616784Y-90545281D01*
X95616549Y-90545341D01*
X95616401Y-90544758D01*
X95616560Y-90544717D01*
X95615378Y-90541741D01*
X95612569Y-90529779D01*
X95614202Y-90500071D01*
X95613490Y-90494839D01*
X95614624Y-90492402D01*
X95616406Y-90460015D01*
X95655626Y-90404761D01*
X95658032Y-90402828D01*
X95722624Y-90376190D01*
X95735690Y-90375500D01*
X95811608Y-90375500D01*
X95811608Y-90375499D01*
X95876129Y-90362666D01*
X95932452Y-90351463D01*
X95965792Y-90337652D01*
X96046286Y-90304312D01*
X96103941Y-90265787D01*
X96148733Y-90235858D01*
X96235858Y-90148733D01*
X96235859Y-90148731D01*
X96242925Y-90141665D01*
X96242928Y-90141661D01*
X97500729Y-88883860D01*
X97500733Y-88883858D01*
X97587858Y-88796733D01*
X97650917Y-88702359D01*
X97656312Y-88694285D01*
X97703023Y-88581514D01*
X97703463Y-88580452D01*
X97727500Y-88459606D01*
X97727500Y-76726964D01*
X97727500Y-76726959D01*
X97704466Y-76611161D01*
X97703463Y-76606118D01*
X97669848Y-76524964D01*
X97656312Y-76492285D01*
X97623770Y-76443583D01*
X97618256Y-76435330D01*
X97612003Y-76424898D01*
X97606287Y-76414205D01*
X97601082Y-76403200D01*
X97554315Y-76290291D01*
X97554308Y-76290280D01*
X97490845Y-76195301D01*
X97490839Y-76195292D01*
X97485860Y-76187839D01*
X94387011Y-73088990D01*
X94385145Y-73086498D01*
X94365859Y-73060734D01*
X94358367Y-73047013D01*
X94343515Y-72978753D01*
X94344096Y-72970628D01*
X94362241Y-72914373D01*
X94409046Y-72838491D01*
X94411524Y-72834852D01*
X94414315Y-72829949D01*
X94423516Y-72815030D01*
X94423106Y-72813223D01*
X94429161Y-72781916D01*
X94447517Y-72726521D01*
X94465349Y-72672708D01*
X94475500Y-72573345D01*
X94475499Y-72086935D01*
X96268507Y-72086935D01*
X96268507Y-72299508D01*
X96301761Y-72509466D01*
X96301761Y-72509469D01*
X96354801Y-72672707D01*
X96367449Y-72711632D01*
X96367450Y-72711634D01*
X96459492Y-72892278D01*
X96463958Y-72901042D01*
X96588897Y-73073008D01*
X96588899Y-73073010D01*
X96739223Y-73223334D01*
X96911176Y-73348264D01*
X96911207Y-73348282D01*
X96911449Y-73348404D01*
X97100595Y-73444779D01*
X97302764Y-73510468D01*
X97512720Y-73543722D01*
X97512721Y-73543722D01*
X97725293Y-73543722D01*
X97725294Y-73543722D01*
X97935250Y-73510468D01*
X98137419Y-73444779D01*
X98326823Y-73348273D01*
X98413485Y-73285310D01*
X98498793Y-73223331D01*
X98498794Y-73223328D01*
X98498797Y-73223327D01*
X98498799Y-73223326D01*
X98498800Y-73223324D01*
X98498854Y-73223285D01*
X98499612Y-73222512D01*
X98649111Y-73073014D01*
X98649113Y-73073010D01*
X98649116Y-73073008D01*
X98774055Y-72901042D01*
X98774054Y-72901042D01*
X98774058Y-72901038D01*
X98774060Y-72901033D01*
X98782073Y-72890004D01*
X98782078Y-72890000D01*
X98792236Y-72877753D01*
X98799654Y-72869900D01*
X98834573Y-72849516D01*
X98837401Y-72847336D01*
X98838465Y-72847244D01*
X98859992Y-72834679D01*
X98929798Y-72837669D01*
X98983510Y-72873834D01*
X98989714Y-72880993D01*
X99001736Y-72897415D01*
X99003956Y-72901039D01*
X99003958Y-72901042D01*
X99128897Y-73073008D01*
X99128899Y-73073010D01*
X99279223Y-73223334D01*
X99451176Y-73348264D01*
X99451207Y-73348282D01*
X99451449Y-73348404D01*
X99640595Y-73444779D01*
X99842764Y-73510468D01*
X100052720Y-73543722D01*
X100052721Y-73543722D01*
X100265293Y-73543722D01*
X100265294Y-73543722D01*
X100475250Y-73510468D01*
X100677419Y-73444779D01*
X100866823Y-73348273D01*
X100953485Y-73285310D01*
X101038791Y-73223332D01*
X101038791Y-73223331D01*
X101038799Y-73223326D01*
X101038803Y-73223321D01*
X101040986Y-73221736D01*
X101040986Y-73221735D01*
X101040990Y-73221733D01*
X101046835Y-73217485D01*
X101052671Y-73209453D01*
X101140120Y-73122003D01*
X101168368Y-73100857D01*
X101180551Y-73094205D01*
X101248822Y-73079355D01*
X101314280Y-73103768D01*
X101317954Y-73106518D01*
X101359828Y-73162449D01*
X101359830Y-73162453D01*
X101405653Y-73285310D01*
X101405656Y-73285315D01*
X101491816Y-73400409D01*
X101491819Y-73400412D01*
X101606913Y-73486572D01*
X101606920Y-73486576D01*
X101741627Y-73536818D01*
X101741634Y-73536820D01*
X101748475Y-73537555D01*
X101801145Y-73543220D01*
X101801162Y-73543221D01*
X101801179Y-73543222D01*
X102449007Y-73543222D01*
X102449007Y-72805472D01*
X102468692Y-72738433D01*
X102521496Y-72692678D01*
X102590654Y-72682734D01*
X102605100Y-72685697D01*
X102633181Y-72693222D01*
X102764832Y-72693222D01*
X102764833Y-72693222D01*
X102792912Y-72685698D01*
X102862762Y-72687359D01*
X102920625Y-72726521D01*
X102948130Y-72790749D01*
X102949007Y-72805472D01*
X102949007Y-73543222D01*
X103596835Y-73543222D01*
X103596843Y-73543222D01*
X103596854Y-73543221D01*
X103632567Y-73539380D01*
X103656379Y-73536820D01*
X103656386Y-73536818D01*
X103791093Y-73486576D01*
X103791100Y-73486572D01*
X103906194Y-73400412D01*
X103906197Y-73400409D01*
X103992357Y-73285315D01*
X103992361Y-73285308D01*
X104035199Y-73170453D01*
X104052110Y-73139482D01*
X104060429Y-73128369D01*
X104116359Y-73086498D01*
X104186049Y-73081511D01*
X104190532Y-73082486D01*
X104251857Y-73115968D01*
X104359223Y-73223334D01*
X104531176Y-73348264D01*
X104531207Y-73348282D01*
X104531449Y-73348404D01*
X104720595Y-73444779D01*
X104922764Y-73510468D01*
X105132720Y-73543722D01*
X105132721Y-73543722D01*
X105345293Y-73543722D01*
X105345294Y-73543722D01*
X105555250Y-73510468D01*
X105757419Y-73444779D01*
X105946823Y-73348273D01*
X106033485Y-73285310D01*
X106118793Y-73223331D01*
X106118794Y-73223328D01*
X106118797Y-73223327D01*
X106118799Y-73223326D01*
X106118800Y-73223324D01*
X106118854Y-73223285D01*
X106119612Y-73222512D01*
X106269111Y-73073014D01*
X106269113Y-73073010D01*
X106269116Y-73073008D01*
X106394055Y-72901042D01*
X106394054Y-72901042D01*
X106394058Y-72901038D01*
X106394060Y-72901032D01*
X106414452Y-72872966D01*
X106422737Y-72844751D01*
X106490564Y-72711634D01*
X106556253Y-72509465D01*
X106589507Y-72299509D01*
X106589507Y-72086935D01*
X106556253Y-71876979D01*
X106490564Y-71674810D01*
X106394058Y-71485406D01*
X106394056Y-71485403D01*
X106394055Y-71485401D01*
X106393709Y-71484925D01*
X106393707Y-71484921D01*
X106269119Y-71313438D01*
X106118795Y-71163114D01*
X106118793Y-71163112D01*
X105946827Y-71038173D01*
X105917725Y-71023345D01*
X105779252Y-70952789D01*
X105779247Y-70952787D01*
X105757421Y-70941666D01*
X105757420Y-70941665D01*
X105757419Y-70941665D01*
X105628779Y-70899867D01*
X105564081Y-70878845D01*
X105559559Y-70876992D01*
X105550369Y-70874822D01*
X105545606Y-70874448D01*
X105393964Y-70850430D01*
X105374496Y-70847346D01*
X105345297Y-70842722D01*
X105345294Y-70842722D01*
X105132720Y-70842722D01*
X105132716Y-70842722D01*
X105093783Y-70848888D01*
X105084049Y-70850430D01*
X105046661Y-70856351D01*
X104922770Y-70875974D01*
X104720589Y-70941667D01*
X104531189Y-71038171D01*
X104359225Y-71163108D01*
X104257900Y-71264433D01*
X104257898Y-71264434D01*
X104257898Y-71264435D01*
X104229643Y-71285585D01*
X104217460Y-71292237D01*
X104149187Y-71307087D01*
X104083723Y-71282668D01*
X104083724Y-71282668D01*
X104082031Y-71281401D01*
X104080033Y-71279905D01*
X104038182Y-71223987D01*
X104035199Y-71215989D01*
X103992361Y-71101135D01*
X103992357Y-71101128D01*
X103906197Y-70986034D01*
X103906194Y-70986031D01*
X103906192Y-70986029D01*
X103836814Y-70934093D01*
X103791100Y-70899871D01*
X103791095Y-70899868D01*
X103791096Y-70899868D01*
X103656384Y-70849624D01*
X103656377Y-70849622D01*
X103596859Y-70843222D01*
X103596851Y-70843222D01*
X102949007Y-70843222D01*
X102949007Y-71580971D01*
X102929322Y-71648010D01*
X102876518Y-71693765D01*
X102807360Y-71703709D01*
X102792915Y-71700746D01*
X102764835Y-71693222D01*
X102764833Y-71693222D01*
X102633181Y-71693222D01*
X102633178Y-71693222D01*
X102605099Y-71700746D01*
X102535249Y-71699083D01*
X102477387Y-71659920D01*
X102449884Y-71595691D01*
X102449007Y-71580971D01*
X102449007Y-70843222D01*
X101801162Y-70843222D01*
X101801153Y-70843222D01*
X101741635Y-70849622D01*
X101741628Y-70849624D01*
X101606917Y-70899868D01*
X101606914Y-70899870D01*
X101491820Y-70986029D01*
X101491817Y-70986032D01*
X101491815Y-70986035D01*
X101405654Y-71101130D01*
X101362814Y-71215989D01*
X101362811Y-71215994D01*
X101362811Y-71215995D01*
X101345895Y-71246971D01*
X101337578Y-71258080D01*
X101281642Y-71299948D01*
X101211963Y-71304931D01*
X101211953Y-71304928D01*
X101211951Y-71304929D01*
X101211949Y-71304927D01*
X101207480Y-71303956D01*
X101146155Y-71270474D01*
X101038795Y-71163114D01*
X101038793Y-71163112D01*
X100866827Y-71038173D01*
X100837725Y-71023345D01*
X100699252Y-70952789D01*
X100699247Y-70952787D01*
X100677421Y-70941666D01*
X100677420Y-70941665D01*
X100677419Y-70941665D01*
X100548779Y-70899867D01*
X100484081Y-70878845D01*
X100479559Y-70876992D01*
X100470369Y-70874822D01*
X100465606Y-70874448D01*
X100313964Y-70850430D01*
X100294496Y-70847346D01*
X100265297Y-70842722D01*
X100265294Y-70842722D01*
X100052720Y-70842722D01*
X100052716Y-70842722D01*
X100013783Y-70848888D01*
X100004049Y-70850430D01*
X99966661Y-70856351D01*
X99842770Y-70875974D01*
X99640589Y-70941667D01*
X99451189Y-71038171D01*
X99279217Y-71163114D01*
X99128899Y-71313432D01*
X99128897Y-71313435D01*
X99003959Y-71485401D01*
X99003952Y-71485410D01*
X99003641Y-71485918D01*
X99002506Y-71487399D01*
X99001092Y-71489347D01*
X99001043Y-71489311D01*
X98988067Y-71506263D01*
X98978360Y-71516541D01*
X98918018Y-71551764D01*
X98848212Y-71548772D01*
X98794495Y-71512600D01*
X98788292Y-71505441D01*
X98776281Y-71489033D01*
X98774060Y-71485409D01*
X98774058Y-71485406D01*
X98774057Y-71485404D01*
X98649116Y-71313435D01*
X98498793Y-71163112D01*
X98326827Y-71038173D01*
X98297725Y-71023345D01*
X98159252Y-70952789D01*
X98159247Y-70952787D01*
X98137421Y-70941666D01*
X98137420Y-70941665D01*
X98137419Y-70941665D01*
X98008779Y-70899867D01*
X97944081Y-70878845D01*
X97939559Y-70876992D01*
X97930369Y-70874822D01*
X97925606Y-70874448D01*
X97773964Y-70850430D01*
X97754496Y-70847346D01*
X97725297Y-70842722D01*
X97725294Y-70842722D01*
X97512720Y-70842722D01*
X97512716Y-70842722D01*
X97473783Y-70848888D01*
X97464049Y-70850430D01*
X97426661Y-70856351D01*
X97302770Y-70875974D01*
X97100589Y-70941667D01*
X96911189Y-71038171D01*
X96739217Y-71163114D01*
X96588899Y-71313432D01*
X96463956Y-71485404D01*
X96367452Y-71674802D01*
X96301761Y-71876977D01*
X96301759Y-71876984D01*
X96293792Y-71927291D01*
X96293792Y-71927292D01*
X96268507Y-72086935D01*
X94475499Y-72086935D01*
X94475499Y-72026656D01*
X94472799Y-72000229D01*
X94465349Y-71927292D01*
X94465348Y-71927289D01*
X94412003Y-71766303D01*
X94411999Y-71766297D01*
X94411998Y-71766294D01*
X94411996Y-71766291D01*
X94411854Y-71765998D01*
X94410861Y-71764450D01*
X94322980Y-71621974D01*
X94322975Y-71621967D01*
X94322970Y-71621959D01*
X94322967Y-71621955D01*
X94322964Y-71621952D01*
X94320354Y-71618942D01*
X94305196Y-71597120D01*
X94297656Y-71583311D01*
X94297147Y-71580971D01*
X94282804Y-71515051D01*
X94282933Y-71513242D01*
X94302299Y-71455047D01*
X94306492Y-71448523D01*
X94321405Y-71430020D01*
X94322962Y-71428049D01*
X94322968Y-71428044D01*
X94412003Y-71283697D01*
X94465349Y-71122708D01*
X94475500Y-71023345D01*
X94475499Y-70641825D01*
X94480522Y-70606891D01*
X94484925Y-70591896D01*
X94522670Y-70533144D01*
X94524039Y-70531957D01*
X94578920Y-70504476D01*
X94583259Y-70503532D01*
X94586482Y-70502832D01*
X94612831Y-70500000D01*
X99000000Y-70500000D01*
X99000000Y-69608425D01*
X99005022Y-69573492D01*
X99009169Y-69559368D01*
X99046941Y-69500593D01*
X99107983Y-69471954D01*
X99122143Y-69469622D01*
X99142281Y-69467975D01*
X99143820Y-69467974D01*
X99143830Y-69467976D01*
X99742977Y-69467976D01*
X99842105Y-69467976D01*
X99842117Y-69467976D01*
X99842131Y-69467975D01*
X99943129Y-69457657D01*
X100106777Y-69403430D01*
X100106788Y-69403425D01*
X100253511Y-69312924D01*
X100253515Y-69312921D01*
X100375421Y-69191015D01*
X100375424Y-69191011D01*
X100465925Y-69044288D01*
X100465930Y-69044277D01*
X100520157Y-68880629D01*
X100530476Y-68779631D01*
X100530477Y-68779618D01*
X100530477Y-68742977D01*
X99742977Y-68742977D01*
X99742977Y-69467976D01*
X99143830Y-69467976D01*
X99242977Y-69467975D01*
X99242977Y-68242977D01*
X99742977Y-68242977D01*
X100530476Y-68242977D01*
X100530476Y-68206337D01*
X100530475Y-68206322D01*
X100520157Y-68105324D01*
X100465930Y-67941676D01*
X100465925Y-67941665D01*
X100420122Y-67867408D01*
X100375434Y-67794957D01*
X100375429Y-67794950D01*
X100375424Y-67794942D01*
X100375421Y-67794938D01*
X100375418Y-67794935D01*
X100375416Y-67794932D01*
X100253520Y-67673036D01*
X100253517Y-67673034D01*
X100253515Y-67673032D01*
X100253511Y-67673029D01*
X100253505Y-67673025D01*
X100253495Y-67673018D01*
X100143916Y-67605429D01*
X100106788Y-67582528D01*
X100106786Y-67582527D01*
X100106772Y-67582520D01*
X99943127Y-67528295D01*
X99842136Y-67517977D01*
X99842131Y-67517977D01*
X99742977Y-67517977D01*
X99742977Y-68242977D01*
X99242977Y-68242977D01*
X99242977Y-67517976D01*
X99143837Y-67517977D01*
X99143813Y-67517979D01*
X99136599Y-67518716D01*
X99113384Y-67514400D01*
X99113381Y-67514399D01*
X99104606Y-67512768D01*
X99042293Y-67481164D01*
X99007596Y-67423339D01*
X99004330Y-67411307D01*
X99000000Y-67378824D01*
X99000000Y-60520552D01*
X99003093Y-60499043D01*
X99005023Y-60485616D01*
X99009427Y-60470618D01*
X99047172Y-60411867D01*
X99047200Y-60411842D01*
X99047199Y-60411842D01*
X99048541Y-60410679D01*
X99103420Y-60383200D01*
X99110979Y-60381556D01*
X99137332Y-60378723D01*
X106636031Y-60378723D01*
X106670963Y-60383744D01*
G37*
%TD.AperFunction*%
%TA.AperFunction,Conductor*%
G36*
X115393685Y-56846856D02*
G01*
X115408683Y-56851260D01*
X115423682Y-56860899D01*
X115440783Y-56865920D01*
X115467457Y-56889031D01*
X115472269Y-56894584D01*
X115500176Y-56951599D01*
X115548169Y-57192884D01*
X115548172Y-57192895D01*
X115648018Y-57522044D01*
X115779355Y-57839118D01*
X115779590Y-57839697D01*
X115779635Y-57839792D01*
X115779637Y-57839797D01*
X115779639Y-57839802D01*
X115941760Y-58143108D01*
X115941771Y-58143126D01*
X116132842Y-58429084D01*
X116132852Y-58429098D01*
X116214988Y-58529181D01*
X116351048Y-58694970D01*
X116594227Y-58938149D01*
X116594302Y-58938216D01*
X116594823Y-58938638D01*
X116860107Y-59156352D01*
X117005970Y-59253814D01*
X117146081Y-59347434D01*
X117146744Y-59347802D01*
X117147526Y-59348206D01*
X117444097Y-59506727D01*
X117448370Y-59509011D01*
X117448371Y-59509012D01*
X117452868Y-59511416D01*
X117457845Y-59513060D01*
X117767162Y-59641183D01*
X118096289Y-59741023D01*
X118330074Y-59787525D01*
X118363356Y-59799267D01*
X118377208Y-59806513D01*
X118427480Y-59855018D01*
X118427485Y-59855027D01*
X118427487Y-59855029D01*
X118427487Y-59855031D01*
X118431115Y-59861400D01*
X118447367Y-59922770D01*
X118447367Y-87031558D01*
X118442341Y-87066505D01*
X118439329Y-87076759D01*
X118432755Y-87086985D01*
X118430424Y-87098916D01*
X118414214Y-87115829D01*
X118401548Y-87135533D01*
X118390490Y-87140581D01*
X118382078Y-87149359D01*
X118359297Y-87154823D01*
X118337989Y-87164552D01*
X118325956Y-87162820D01*
X118314136Y-87165656D01*
X118292018Y-87157937D01*
X118268832Y-87154601D01*
X118258013Y-87146070D01*
X118248168Y-87142634D01*
X118222687Y-87118212D01*
X118220255Y-87115103D01*
X118207439Y-87094999D01*
X118183881Y-87048765D01*
X118183880Y-87048764D01*
X118163789Y-87009334D01*
X118155051Y-86992184D01*
X118155049Y-86992181D01*
X118155048Y-86992179D01*
X118130535Y-86958440D01*
X118130533Y-86958438D01*
X118119871Y-86943763D01*
X118030109Y-86820213D01*
X117879794Y-86669898D01*
X117879792Y-86669896D01*
X117863931Y-86658372D01*
X117861895Y-86656758D01*
X117859911Y-86653949D01*
X117840727Y-86635305D01*
X117827125Y-86617665D01*
X117803452Y-86564827D01*
X117803448Y-86564807D01*
X117802628Y-86560441D01*
X117800500Y-86537564D01*
X117800500Y-86011125D01*
X117800074Y-86009169D01*
X117765896Y-85837341D01*
X117765893Y-85837332D01*
X117698016Y-85673459D01*
X117698009Y-85673446D01*
X117599465Y-85525966D01*
X117599462Y-85525962D01*
X117546479Y-85472980D01*
X117385325Y-85311826D01*
X117385323Y-85311823D01*
X117116000Y-85042499D01*
X117115997Y-85042496D01*
X117047337Y-84996619D01*
X116980525Y-84951976D01*
X116970754Y-84944729D01*
X116961382Y-84937038D01*
X116952363Y-84928864D01*
X112929787Y-80906287D01*
X115149499Y-80906287D01*
X115152709Y-80926548D01*
X115180706Y-81103322D01*
X115181526Y-81108495D01*
X115182754Y-81116243D01*
X115182755Y-81116248D01*
X115182756Y-81116252D01*
X115245803Y-81310287D01*
X115245808Y-81310303D01*
X115248444Y-81318414D01*
X115344951Y-81507820D01*
X115469890Y-81679786D01*
X115469892Y-81679788D01*
X115620216Y-81830112D01*
X115792169Y-81955042D01*
X115792200Y-81955060D01*
X115792442Y-81955182D01*
X115981588Y-82051557D01*
X116183757Y-82117246D01*
X116393713Y-82150500D01*
X116393714Y-82150500D01*
X116606286Y-82150500D01*
X116606287Y-82150500D01*
X116816243Y-82117246D01*
X117018412Y-82051557D01*
X117207816Y-81955051D01*
X117302501Y-81886259D01*
X117379786Y-81830109D01*
X117379787Y-81830106D01*
X117379790Y-81830105D01*
X117379792Y-81830104D01*
X117379793Y-81830102D01*
X117379847Y-81830063D01*
X117380605Y-81829290D01*
X117530104Y-81679792D01*
X117530106Y-81679788D01*
X117530109Y-81679786D01*
X117655048Y-81507820D01*
X117655047Y-81507820D01*
X117655051Y-81507816D01*
X117655053Y-81507810D01*
X117675445Y-81479744D01*
X117683730Y-81451529D01*
X117751557Y-81318412D01*
X117817246Y-81116243D01*
X117850500Y-80906287D01*
X117850500Y-80693713D01*
X117817246Y-80483757D01*
X117751557Y-80281588D01*
X117655051Y-80092184D01*
X117655049Y-80092181D01*
X117655048Y-80092179D01*
X117654702Y-80091703D01*
X117654700Y-80091699D01*
X117530112Y-79920216D01*
X117379788Y-79769892D01*
X117379786Y-79769890D01*
X117207820Y-79644951D01*
X117194167Y-79637994D01*
X117040245Y-79559567D01*
X117040240Y-79559565D01*
X117018414Y-79548444D01*
X117018413Y-79548443D01*
X117018412Y-79548443D01*
X116921550Y-79516970D01*
X116825074Y-79485623D01*
X116820552Y-79483770D01*
X116811362Y-79481600D01*
X116806599Y-79481226D01*
X116654957Y-79457208D01*
X116635489Y-79454124D01*
X116606290Y-79449500D01*
X116606287Y-79449500D01*
X116393713Y-79449500D01*
X116393709Y-79449500D01*
X116354776Y-79455666D01*
X116345042Y-79457208D01*
X116307654Y-79463129D01*
X116183763Y-79482752D01*
X115981582Y-79548445D01*
X115792182Y-79644949D01*
X115792179Y-79644950D01*
X115792179Y-79644951D01*
X115706196Y-79707420D01*
X115620210Y-79769892D01*
X115469892Y-79920210D01*
X115344949Y-80092182D01*
X115248445Y-80281582D01*
X115248444Y-80281584D01*
X115248444Y-80281585D01*
X115206052Y-80412055D01*
X115182754Y-80483757D01*
X115182752Y-80483762D01*
X115157873Y-80640842D01*
X115157866Y-80640887D01*
X115157753Y-80641603D01*
X115149500Y-80693713D01*
X115149500Y-80697895D01*
X115149500Y-80906287D01*
X115149499Y-80906287D01*
X112929787Y-80906287D01*
X112800022Y-80776522D01*
X112199426Y-80175926D01*
X112199421Y-80175921D01*
X112178274Y-80147670D01*
X112165667Y-80124581D01*
X112150500Y-80065156D01*
X112150500Y-65861307D01*
X112150500Y-65861305D01*
X112147856Y-65848016D01*
X112147855Y-65848013D01*
X112115895Y-65687334D01*
X112050339Y-65529071D01*
X112048695Y-65524474D01*
X111949465Y-65375966D01*
X111949464Y-65375965D01*
X111824035Y-65250536D01*
X109427649Y-62854149D01*
X109406497Y-62825893D01*
X109393890Y-62802804D01*
X109378723Y-62743379D01*
X109378723Y-60789528D01*
X109378632Y-60788790D01*
X109378131Y-60786555D01*
X109344780Y-60618887D01*
X109344365Y-60616460D01*
X109344119Y-60615564D01*
X109344118Y-60615557D01*
X109295856Y-60499044D01*
X109276236Y-60451676D01*
X109204367Y-60344117D01*
X109204366Y-60344115D01*
X109177687Y-60304186D01*
X107652266Y-58778765D01*
X107652252Y-58778753D01*
X107652249Y-58778751D01*
X107594636Y-58740257D01*
X107594622Y-58740248D01*
X107593182Y-58739286D01*
X107504770Y-58680210D01*
X107504767Y-58680208D01*
X107504763Y-58680206D01*
X107422830Y-58646269D01*
X107422829Y-58646269D01*
X107340889Y-58612328D01*
X107340881Y-58612326D01*
X107340874Y-58612324D01*
X107340855Y-58612320D01*
X107166922Y-58577723D01*
X107166919Y-58577723D01*
X107166915Y-58577723D01*
X107166914Y-58577723D01*
X104988691Y-58577723D01*
X102088691Y-58577723D01*
X99141830Y-58577723D01*
X99141825Y-58577722D01*
X99141823Y-58577723D01*
X99106889Y-58572698D01*
X99091890Y-58568293D01*
X99033144Y-58530550D01*
X99033115Y-58530516D01*
X99033114Y-58530516D01*
X99033113Y-58530514D01*
X99031957Y-58529181D01*
X99004477Y-58474306D01*
X99002832Y-58466744D01*
X99000000Y-58440391D01*
X99000000Y-56983662D01*
X99005023Y-56948726D01*
X99009427Y-56933728D01*
X99047172Y-56874977D01*
X99047200Y-56874952D01*
X99047199Y-56874952D01*
X99048541Y-56873789D01*
X99103420Y-56846310D01*
X99110979Y-56844666D01*
X99137332Y-56841833D01*
X115358749Y-56841833D01*
X115393685Y-56846856D01*
G37*
%TD.AperFunction*%
%TD*%
%TA.AperFunction,Conductor*%
%TO.N,AGND*%
G36*
X91221224Y-89190937D02*
G01*
X91013654Y-89860795D01*
X89820224Y-89590937D01*
X89820224Y-88790937D01*
X91013654Y-88521079D01*
X91221224Y-89190937D01*
G37*
%TD.AperFunction*%
%TD*%
%TA.AperFunction,Conductor*%
%TO.N,PGND*%
G36*
X98438497Y-56861518D02*
G01*
X98484252Y-56914322D01*
X98495142Y-56974675D01*
X98494500Y-56983649D01*
X98494500Y-58440388D01*
X98494859Y-58447084D01*
X98478792Y-58515081D01*
X98428514Y-58563597D01*
X98371037Y-58577723D01*
X98133076Y-58577723D01*
X97959119Y-58612324D01*
X97959114Y-58612326D01*
X97959112Y-58612326D01*
X97959109Y-58612327D01*
X97796704Y-58679596D01*
X97796693Y-58679602D01*
X97795228Y-58680210D01*
X97664138Y-58767802D01*
X97663808Y-58768023D01*
X97663543Y-58768201D01*
X97663538Y-58768204D01*
X97647750Y-58778751D01*
X97647733Y-58778766D01*
X97647725Y-58778773D01*
X96642064Y-59784433D01*
X96642065Y-59784433D01*
X96613811Y-59805585D01*
X96586440Y-59820531D01*
X96546411Y-59834172D01*
X96424730Y-59853445D01*
X96248790Y-59910610D01*
X96248771Y-59910617D01*
X96248770Y-59910617D01*
X96083903Y-59994621D01*
X96004575Y-60052258D01*
X95946081Y-60094755D01*
X95938702Y-60098888D01*
X95798887Y-60238703D01*
X95794754Y-60246084D01*
X95756672Y-60298499D01*
X95694622Y-60383902D01*
X95610617Y-60548770D01*
X95610617Y-60548771D01*
X95610610Y-60548790D01*
X95553445Y-60724730D01*
X95524500Y-60907480D01*
X95524500Y-61092518D01*
X95553445Y-61275268D01*
X95610610Y-61451208D01*
X95610617Y-61451227D01*
X95610617Y-61451228D01*
X95610618Y-61451231D01*
X95610619Y-61451232D01*
X95610620Y-61451235D01*
X95694622Y-61616096D01*
X95803379Y-61765787D01*
X95803381Y-61765789D01*
X95936669Y-61899077D01*
X95947189Y-61911044D01*
X95957792Y-61924796D01*
X95983137Y-61989906D01*
X95978608Y-62012253D01*
X95969257Y-62058384D01*
X95969255Y-62058385D01*
X95965867Y-62064807D01*
X95936735Y-62101224D01*
X95934212Y-62103378D01*
X95798885Y-62238705D01*
X95794754Y-62246084D01*
X95756672Y-62298499D01*
X95694622Y-62383902D01*
X95610617Y-62548770D01*
X95610617Y-62548771D01*
X95610610Y-62548790D01*
X95553445Y-62724730D01*
X95524500Y-62907480D01*
X95524500Y-63092519D01*
X95524499Y-63092519D01*
X95538951Y-63183761D01*
X95538952Y-63183764D01*
X95539457Y-63219054D01*
X95536603Y-63241143D01*
X95515980Y-63295250D01*
X95513460Y-63298935D01*
X95508661Y-63304718D01*
X95508490Y-63305108D01*
X95508152Y-63305332D01*
X95498786Y-63316620D01*
X95050287Y-63765120D01*
X95022031Y-63786272D01*
X95008310Y-63793764D01*
X94990892Y-63797553D01*
X94975250Y-63806096D01*
X94940045Y-63808616D01*
X94938240Y-63808487D01*
X94880038Y-63789116D01*
X94873531Y-63784934D01*
X94852892Y-63768301D01*
X94491478Y-63406888D01*
X94470328Y-63378635D01*
X94460896Y-63361361D01*
X94457160Y-63346390D01*
X94450382Y-63335589D01*
X94445735Y-63300606D01*
X94445870Y-63288045D01*
X94447390Y-63269989D01*
X94455458Y-63219054D01*
X94475500Y-63092514D01*
X94475500Y-62907486D01*
X94446555Y-62724736D01*
X94390877Y-62553377D01*
X94389821Y-62549630D01*
X94305378Y-62383904D01*
X94243327Y-62298499D01*
X94196621Y-62234213D01*
X94065787Y-62103379D01*
X94065786Y-62103378D01*
X94063339Y-62100931D01*
X94052828Y-62088975D01*
X94042214Y-62075212D01*
X94016861Y-62010105D01*
X94030731Y-61941631D01*
X94034130Y-61935189D01*
X94063267Y-61898773D01*
X94065779Y-61896626D01*
X94065787Y-61896621D01*
X94196621Y-61765787D01*
X94305378Y-61616096D01*
X94389379Y-61451235D01*
X94446555Y-61275264D01*
X94475500Y-61092514D01*
X94475500Y-60907486D01*
X94446555Y-60724736D01*
X94389379Y-60548765D01*
X94389379Y-60548764D01*
X94339673Y-60451212D01*
X94305378Y-60383904D01*
X94305377Y-60383903D01*
X94289040Y-60361417D01*
X94196621Y-60234213D01*
X94065787Y-60103379D01*
X93916096Y-59994622D01*
X93751235Y-59910620D01*
X93751232Y-59910619D01*
X93751231Y-59910618D01*
X93751228Y-59910617D01*
X93751208Y-59910610D01*
X93575267Y-59853445D01*
X93575268Y-59853445D01*
X93483889Y-59838972D01*
X93392519Y-59824500D01*
X93392514Y-59824500D01*
X93207486Y-59824500D01*
X93207483Y-59824500D01*
X93161798Y-59831736D01*
X93146569Y-59834148D01*
X93024730Y-59853445D01*
X92848790Y-59910610D01*
X92848771Y-59910617D01*
X92848770Y-59910617D01*
X92683903Y-59994621D01*
X92604575Y-60052258D01*
X92546081Y-60094755D01*
X92538702Y-60098888D01*
X92398887Y-60238703D01*
X92394754Y-60246084D01*
X92356672Y-60298499D01*
X92294622Y-60383902D01*
X92210617Y-60548770D01*
X92210617Y-60548771D01*
X92210610Y-60548790D01*
X92153445Y-60724730D01*
X92124500Y-60907480D01*
X92124500Y-61092518D01*
X92153445Y-61275268D01*
X92210610Y-61451208D01*
X92210617Y-61451227D01*
X92210617Y-61451228D01*
X92210618Y-61451231D01*
X92210619Y-61451232D01*
X92210620Y-61451235D01*
X92294622Y-61616096D01*
X92403379Y-61765787D01*
X92403381Y-61765789D01*
X92536669Y-61899077D01*
X92547189Y-61911044D01*
X92557792Y-61924796D01*
X92583137Y-61989906D01*
X92578608Y-62012253D01*
X92569257Y-62058384D01*
X92569255Y-62058385D01*
X92565867Y-62064807D01*
X92536735Y-62101224D01*
X92534212Y-62103378D01*
X92398885Y-62238705D01*
X92394754Y-62246084D01*
X92356672Y-62298499D01*
X92294622Y-62383902D01*
X92210617Y-62548770D01*
X92210617Y-62548771D01*
X92210610Y-62548790D01*
X92153445Y-62724730D01*
X92124500Y-62907480D01*
X92124500Y-63092518D01*
X92153445Y-63275268D01*
X92210610Y-63451208D01*
X92210617Y-63451227D01*
X92210617Y-63451228D01*
X92210618Y-63451231D01*
X92210619Y-63451232D01*
X92210620Y-63451235D01*
X92294622Y-63616096D01*
X92368362Y-63717591D01*
X92384832Y-63748804D01*
X92390084Y-63763524D01*
X92394075Y-63833271D01*
X92393558Y-63835495D01*
X92365910Y-63889287D01*
X92361338Y-63894488D01*
X92342518Y-63911885D01*
X92267809Y-63967812D01*
X92267805Y-63967816D01*
X92196138Y-64063551D01*
X92184771Y-64076702D01*
X92173578Y-64087950D01*
X92173538Y-64087920D01*
X92166683Y-64094764D01*
X92166332Y-64095232D01*
X92162887Y-64098695D01*
X92135801Y-64113572D01*
X92109781Y-64130251D01*
X92105441Y-64130248D01*
X92101647Y-64132332D01*
X92071119Y-64130224D01*
X92047635Y-64130209D01*
X92047247Y-64131993D01*
X92043618Y-64131203D01*
X92041790Y-64130205D01*
X92040037Y-64130204D01*
X92038672Y-64129803D01*
X92039001Y-64128681D01*
X92037589Y-64127910D01*
X92031943Y-64127521D01*
X92018376Y-64117417D01*
X91982313Y-64097722D01*
X91024426Y-63139835D01*
X91024421Y-63139830D01*
X91003274Y-63111579D01*
X90990667Y-63088490D01*
X90975500Y-63029065D01*
X90975500Y-62907486D01*
X90946555Y-62724737D01*
X90946553Y-62724730D01*
X90890877Y-62553377D01*
X90889821Y-62549630D01*
X90805378Y-62383904D01*
X90743327Y-62298499D01*
X90696621Y-62234213D01*
X90565787Y-62103379D01*
X90565786Y-62103378D01*
X90563339Y-62100931D01*
X90552828Y-62088975D01*
X90542214Y-62075212D01*
X90516861Y-62010105D01*
X90530731Y-61941631D01*
X90534130Y-61935189D01*
X90563267Y-61898773D01*
X90565779Y-61896626D01*
X90565787Y-61896621D01*
X90696621Y-61765787D01*
X90805378Y-61616096D01*
X90889379Y-61451235D01*
X90946555Y-61275264D01*
X90975500Y-61092514D01*
X90975500Y-60907486D01*
X90946555Y-60724736D01*
X90889379Y-60548765D01*
X90889379Y-60548764D01*
X90839673Y-60451212D01*
X90805378Y-60383904D01*
X90805377Y-60383903D01*
X90789040Y-60361417D01*
X90696621Y-60234213D01*
X90565787Y-60103379D01*
X90416096Y-59994622D01*
X90251235Y-59910620D01*
X90251232Y-59910619D01*
X90251231Y-59910618D01*
X90251228Y-59910617D01*
X90251208Y-59910610D01*
X90075267Y-59853445D01*
X90075268Y-59853445D01*
X89983889Y-59838972D01*
X89892519Y-59824500D01*
X89892514Y-59824500D01*
X89707486Y-59824500D01*
X89707483Y-59824500D01*
X89661798Y-59831736D01*
X89646569Y-59834148D01*
X89524730Y-59853445D01*
X89348790Y-59910610D01*
X89348771Y-59910617D01*
X89348770Y-59910617D01*
X89183903Y-59994621D01*
X89104575Y-60052258D01*
X89046081Y-60094755D01*
X89038702Y-60098888D01*
X88898887Y-60238703D01*
X88894754Y-60246084D01*
X88856672Y-60298499D01*
X88794622Y-60383902D01*
X88710617Y-60548770D01*
X88710617Y-60548771D01*
X88710610Y-60548790D01*
X88653445Y-60724730D01*
X88624500Y-60907480D01*
X88624500Y-61092518D01*
X88653445Y-61275268D01*
X88710610Y-61451208D01*
X88710617Y-61451227D01*
X88710617Y-61451228D01*
X88710618Y-61451231D01*
X88710619Y-61451232D01*
X88710620Y-61451235D01*
X88794622Y-61616096D01*
X88903379Y-61765787D01*
X88903381Y-61765789D01*
X89036669Y-61899077D01*
X89047189Y-61911044D01*
X89057792Y-61924796D01*
X89083137Y-61989906D01*
X89078608Y-62012253D01*
X89069257Y-62058384D01*
X89069255Y-62058385D01*
X89065867Y-62064807D01*
X89036735Y-62101224D01*
X89034212Y-62103378D01*
X88898885Y-62238705D01*
X88894754Y-62246084D01*
X88856672Y-62298499D01*
X88794622Y-62383902D01*
X88710617Y-62548770D01*
X88710617Y-62548771D01*
X88710610Y-62548790D01*
X88653445Y-62724730D01*
X88624500Y-62907480D01*
X88624500Y-63092518D01*
X88653445Y-63275268D01*
X88710610Y-63451208D01*
X88710617Y-63451227D01*
X88710617Y-63451228D01*
X88710618Y-63451231D01*
X88710619Y-63451232D01*
X88710620Y-63451235D01*
X88794622Y-63616096D01*
X88868362Y-63717591D01*
X88884832Y-63748804D01*
X88890084Y-63763524D01*
X88894075Y-63833271D01*
X88893558Y-63835495D01*
X88865910Y-63889287D01*
X88861338Y-63894488D01*
X88842518Y-63911885D01*
X88767809Y-63967812D01*
X88767805Y-63967816D01*
X88681653Y-64082899D01*
X88681646Y-64082910D01*
X88681643Y-64082917D01*
X88642798Y-64187064D01*
X88626001Y-64217883D01*
X88625760Y-64218206D01*
X88587512Y-64246931D01*
X88588034Y-64247776D01*
X88578751Y-64253511D01*
X88569893Y-64260165D01*
X88554822Y-64261266D01*
X88507918Y-64274142D01*
X88441238Y-64253273D01*
X88422433Y-64237842D01*
X88418823Y-64234232D01*
X88395637Y-64211045D01*
X88395606Y-64211016D01*
X87505653Y-63321063D01*
X87484507Y-63292818D01*
X87473828Y-63273259D01*
X87458712Y-63217376D01*
X87458584Y-63212899D01*
X87459067Y-63205409D01*
X87458977Y-63204994D01*
X87459118Y-63204614D01*
X87460060Y-63189991D01*
X87475500Y-63092514D01*
X87475500Y-62907486D01*
X87446555Y-62724736D01*
X87390877Y-62553377D01*
X87389821Y-62549630D01*
X87305378Y-62383904D01*
X87243327Y-62298499D01*
X87196621Y-62234213D01*
X87065787Y-62103379D01*
X87065786Y-62103378D01*
X87063339Y-62100931D01*
X87052828Y-62088975D01*
X87042214Y-62075212D01*
X87016861Y-62010105D01*
X87030731Y-61941631D01*
X87034130Y-61935189D01*
X87063267Y-61898773D01*
X87065779Y-61896626D01*
X87065787Y-61896621D01*
X87196621Y-61765787D01*
X87305378Y-61616096D01*
X87389379Y-61451235D01*
X87446555Y-61275264D01*
X87475500Y-61092514D01*
X87475500Y-60907486D01*
X87446555Y-60724736D01*
X87389379Y-60548765D01*
X87389379Y-60548764D01*
X87339673Y-60451212D01*
X87305378Y-60383904D01*
X87305377Y-60383903D01*
X87289040Y-60361417D01*
X87196621Y-60234213D01*
X87065787Y-60103379D01*
X86916096Y-59994622D01*
X86751235Y-59910620D01*
X86751232Y-59910619D01*
X86751231Y-59910618D01*
X86751228Y-59910617D01*
X86751208Y-59910610D01*
X86575267Y-59853445D01*
X86575268Y-59853445D01*
X86483889Y-59838972D01*
X86392519Y-59824500D01*
X86392514Y-59824500D01*
X86207486Y-59824500D01*
X86207483Y-59824500D01*
X86161798Y-59831736D01*
X86146569Y-59834148D01*
X86024730Y-59853445D01*
X85848790Y-59910610D01*
X85848771Y-59910617D01*
X85848770Y-59910617D01*
X85683903Y-59994621D01*
X85604575Y-60052258D01*
X85546081Y-60094755D01*
X85538702Y-60098888D01*
X85398887Y-60238703D01*
X85394754Y-60246084D01*
X85356672Y-60298499D01*
X85294622Y-60383902D01*
X85210617Y-60548770D01*
X85210617Y-60548771D01*
X85210610Y-60548790D01*
X85153445Y-60724730D01*
X85124500Y-60907480D01*
X85124500Y-61092518D01*
X85153445Y-61275268D01*
X85210610Y-61451208D01*
X85210617Y-61451227D01*
X85210617Y-61451228D01*
X85210618Y-61451231D01*
X85210619Y-61451232D01*
X85210620Y-61451235D01*
X85294622Y-61616096D01*
X85403379Y-61765787D01*
X85403381Y-61765789D01*
X85536669Y-61899077D01*
X85547189Y-61911044D01*
X85557792Y-61924796D01*
X85583137Y-61989906D01*
X85578608Y-62012253D01*
X85569257Y-62058384D01*
X85569255Y-62058385D01*
X85565867Y-62064807D01*
X85536735Y-62101224D01*
X85534212Y-62103378D01*
X85398885Y-62238705D01*
X85394754Y-62246084D01*
X85356672Y-62298499D01*
X85294622Y-62383902D01*
X85210617Y-62548770D01*
X85210617Y-62548771D01*
X85210610Y-62548790D01*
X85153445Y-62724730D01*
X85124500Y-62907480D01*
X85124500Y-63092518D01*
X85153445Y-63275268D01*
X85210610Y-63451208D01*
X85210617Y-63451227D01*
X85210617Y-63451228D01*
X85210618Y-63451231D01*
X85210619Y-63451232D01*
X85210620Y-63451235D01*
X85294622Y-63616096D01*
X85368362Y-63717591D01*
X85384832Y-63748804D01*
X85390084Y-63763524D01*
X85394075Y-63833271D01*
X85393558Y-63835495D01*
X85365910Y-63889287D01*
X85361338Y-63894488D01*
X85342518Y-63911885D01*
X85267809Y-63967812D01*
X85267805Y-63967816D01*
X85181650Y-64082903D01*
X85181647Y-64082909D01*
X85181646Y-64082909D01*
X85131402Y-64217621D01*
X85131400Y-64217628D01*
X85125000Y-64277146D01*
X85125000Y-64277155D01*
X85125000Y-64750000D01*
X85791277Y-64750000D01*
X85858316Y-64769685D01*
X85904071Y-64822489D01*
X85914015Y-64891647D01*
X85911052Y-64906093D01*
X85900000Y-64947339D01*
X85900000Y-65052660D01*
X85911052Y-65093907D01*
X85909389Y-65163757D01*
X85870226Y-65221619D01*
X85805998Y-65249123D01*
X85791277Y-65250000D01*
X85125000Y-65250000D01*
X85125000Y-65722852D01*
X85131400Y-65782370D01*
X85131402Y-65782377D01*
X85181646Y-65917088D01*
X85181648Y-65917091D01*
X85267807Y-66032185D01*
X85267809Y-66032187D01*
X85267812Y-66032190D01*
X85382906Y-66118350D01*
X85382913Y-66118354D01*
X85517620Y-66168596D01*
X85517627Y-66168598D01*
X85524468Y-66169333D01*
X85577138Y-66174998D01*
X85577155Y-66174999D01*
X85577172Y-66175000D01*
X86050000Y-66175000D01*
X86050000Y-65508722D01*
X86069685Y-65441683D01*
X86122489Y-65395928D01*
X86191647Y-65385984D01*
X86206082Y-65388945D01*
X86247339Y-65400000D01*
X86352659Y-65400000D01*
X86352661Y-65400000D01*
X86393907Y-65388948D01*
X86463755Y-65390609D01*
X86521618Y-65429771D01*
X86549123Y-65493999D01*
X86550000Y-65508722D01*
X86550000Y-66175000D01*
X87022828Y-66175000D01*
X87022836Y-66175000D01*
X87022847Y-66174999D01*
X87082369Y-66168599D01*
X87082372Y-66168598D01*
X87082379Y-66168596D01*
X87190466Y-66128282D01*
X87224946Y-66120782D01*
X87238793Y-66119792D01*
X87307066Y-66134644D01*
X87356468Y-66184046D01*
X87356469Y-66184048D01*
X87356471Y-66184050D01*
X87356471Y-66184052D01*
X87359330Y-66189287D01*
X87374500Y-66248717D01*
X87374500Y-67371717D01*
X87369476Y-67406654D01*
X87362064Y-67431895D01*
X87330769Y-67484639D01*
X87219127Y-67596281D01*
X87103580Y-67711828D01*
X87103570Y-67711838D01*
X87101270Y-67714139D01*
X87101267Y-67714142D01*
X87057703Y-67757705D01*
X87014140Y-67801268D01*
X86993311Y-67832443D01*
X86993305Y-67832452D01*
X86988345Y-67839874D01*
X86988344Y-67839876D01*
X86986183Y-67843110D01*
X86986182Y-67843111D01*
X86945704Y-67903688D01*
X86945697Y-67903699D01*
X86945690Y-67903710D01*
X86945685Y-67903719D01*
X86945684Y-67903721D01*
X86936663Y-67925500D01*
X86929968Y-67941666D01*
X86915955Y-67975497D01*
X86915954Y-67975498D01*
X86898544Y-68017528D01*
X86898536Y-68017550D01*
X86898533Y-68017561D01*
X86874500Y-68138384D01*
X86874500Y-69817165D01*
X86874499Y-69817167D01*
X86874500Y-69817169D01*
X86869476Y-69852104D01*
X86863902Y-69871085D01*
X86831799Y-69924629D01*
X86825534Y-69930780D01*
X86803762Y-69947833D01*
X86796955Y-69952031D01*
X86677026Y-70071962D01*
X86588002Y-70216292D01*
X86588000Y-70216295D01*
X86587993Y-70216309D01*
X86534652Y-70377285D01*
X86534650Y-70377295D01*
X86524500Y-70476639D01*
X86524500Y-71023334D01*
X86524503Y-71023381D01*
X86534650Y-71122707D01*
X86534651Y-71122710D01*
X86587996Y-71283694D01*
X86588001Y-71283705D01*
X86600080Y-71303288D01*
X86677018Y-71428024D01*
X86677025Y-71428034D01*
X86677029Y-71428040D01*
X86677032Y-71428044D01*
X86677033Y-71428045D01*
X86677034Y-71428046D01*
X86679645Y-71431057D01*
X86694803Y-71452879D01*
X86702343Y-71466688D01*
X86717195Y-71534948D01*
X86717066Y-71536754D01*
X86697696Y-71594959D01*
X86693518Y-71601460D01*
X86679777Y-71618513D01*
X86679914Y-71618632D01*
X86677034Y-71621951D01*
X86677033Y-71621952D01*
X86677018Y-71621974D01*
X86588002Y-71766292D01*
X86588000Y-71766295D01*
X86587993Y-71766309D01*
X86534652Y-71927285D01*
X86534650Y-71927295D01*
X86524500Y-72026639D01*
X86524500Y-72573334D01*
X86524503Y-72573381D01*
X86534650Y-72672707D01*
X86534651Y-72672710D01*
X86587996Y-72833694D01*
X86588001Y-72833705D01*
X86603155Y-72858273D01*
X86677018Y-72978024D01*
X86677027Y-72978037D01*
X86677029Y-72978040D01*
X86677032Y-72978044D01*
X86796956Y-73097968D01*
X86796958Y-73097969D01*
X86800416Y-73100102D01*
X86800419Y-73100105D01*
X86800421Y-73100105D01*
X86800424Y-73100107D01*
X86827519Y-73122721D01*
X86840747Y-73137428D01*
X86869468Y-73192864D01*
X86871415Y-73201429D01*
X86874500Y-73228916D01*
X86874500Y-73311615D01*
X86898532Y-73432434D01*
X86898541Y-73432465D01*
X86944005Y-73542224D01*
X86945686Y-73546283D01*
X86945687Y-73546285D01*
X86945688Y-73546286D01*
X86979915Y-73597509D01*
X87014141Y-73648733D01*
X87105586Y-73740178D01*
X87105608Y-73740198D01*
X87108554Y-73743144D01*
X88761016Y-75395606D01*
X88761045Y-75395637D01*
X88851263Y-75485855D01*
X88851271Y-75485861D01*
X88908328Y-75523986D01*
X88908334Y-75523989D01*
X88914271Y-75527956D01*
X88953715Y-75554312D01*
X88953720Y-75554314D01*
X89019453Y-75581541D01*
X89025061Y-75583863D01*
X89025063Y-75583865D01*
X89042475Y-75591077D01*
X89067548Y-75601463D01*
X89188394Y-75625500D01*
X89311607Y-75625500D01*
X90023900Y-75625500D01*
X90049970Y-75629248D01*
X90058832Y-75630522D01*
X90066410Y-75632746D01*
X90071257Y-75634170D01*
X90130036Y-75671943D01*
X90159062Y-75735498D01*
X90151221Y-75799783D01*
X90147415Y-75809160D01*
X90138248Y-75827312D01*
X90137069Y-75829234D01*
X90046844Y-76006310D01*
X90046844Y-76006311D01*
X90046837Y-76006330D01*
X89985440Y-76195295D01*
X89954353Y-76391570D01*
X89954353Y-76590302D01*
X89985440Y-76786577D01*
X90046837Y-76975542D01*
X90046845Y-76975565D01*
X90046847Y-76975569D01*
X90110778Y-77101038D01*
X90110778Y-77101040D01*
X90110779Y-77101040D01*
X90137066Y-77152631D01*
X90253872Y-77313401D01*
X90394389Y-77453918D01*
X90555159Y-77570724D01*
X90732221Y-77660942D01*
X90760381Y-77670091D01*
X90774866Y-77679883D01*
X90790959Y-77684923D01*
X90791981Y-77685614D01*
X90801387Y-77692045D01*
X90811931Y-77704938D01*
X90817214Y-77708510D01*
X90824455Y-77717175D01*
X90827319Y-77723755D01*
X90845617Y-77746130D01*
X90848682Y-77772839D01*
X90852339Y-77781239D01*
X90850763Y-77790961D01*
X90853585Y-77815544D01*
X90843430Y-77836199D01*
X90841160Y-77850209D01*
X90830964Y-77861558D01*
X90822761Y-77878246D01*
X90822744Y-77878265D01*
X90820649Y-77880547D01*
X90804699Y-77890795D01*
X90794468Y-77902186D01*
X90781395Y-77905771D01*
X90767632Y-77914616D01*
X90756016Y-77918390D01*
X90587653Y-78004176D01*
X90546738Y-78033904D01*
X90446651Y-78106622D01*
X90439270Y-78110755D01*
X90296669Y-78253356D01*
X90292539Y-78260731D01*
X90253463Y-78314515D01*
X90253463Y-78314516D01*
X90190093Y-78401736D01*
X90182928Y-78415799D01*
X90104307Y-78570100D01*
X90045912Y-78749818D01*
X90045911Y-78749821D01*
X90045911Y-78749823D01*
X90016353Y-78936444D01*
X90016353Y-79125428D01*
X90038633Y-79266096D01*
X90045912Y-79312055D01*
X90104307Y-79491773D01*
X90168191Y-79617151D01*
X90190093Y-79660136D01*
X90301163Y-79813010D01*
X90434780Y-79946627D01*
X90587654Y-80057697D01*
X90756021Y-80143484D01*
X90756026Y-80143485D01*
X90756027Y-80143486D01*
X90779799Y-80151210D01*
X90794287Y-80161005D01*
X90810390Y-80166050D01*
X90811472Y-80166782D01*
X90820807Y-80173165D01*
X90831355Y-80186064D01*
X90836642Y-80189639D01*
X90843882Y-80198305D01*
X90846745Y-80204885D01*
X90865036Y-80227254D01*
X90868101Y-80253970D01*
X90871758Y-80262374D01*
X90870181Y-80272093D01*
X90873001Y-80296668D01*
X90862842Y-80317330D01*
X90860570Y-80331342D01*
X90850378Y-80342684D01*
X90842179Y-80359363D01*
X90840084Y-80361646D01*
X90824122Y-80371904D01*
X90813872Y-80383313D01*
X90800794Y-80386898D01*
X90787042Y-80395736D01*
X90775281Y-80399558D01*
X90762229Y-80403799D01*
X90762228Y-80403800D01*
X90738872Y-80411389D01*
X90736816Y-80412057D01*
X90561447Y-80501412D01*
X90521541Y-80530407D01*
X90414078Y-80608484D01*
X90406697Y-80612617D01*
X90259378Y-80759936D01*
X90256768Y-80764785D01*
X90255600Y-80766510D01*
X90213338Y-80824678D01*
X90147329Y-80915531D01*
X90124819Y-80959707D01*
X90120506Y-80966080D01*
X90099252Y-80983625D01*
X90080329Y-81003661D01*
X90072692Y-81005551D01*
X90066625Y-81010561D01*
X90039257Y-81013831D01*
X90012508Y-81020455D01*
X89998728Y-81018674D01*
X89997249Y-81018851D01*
X89996217Y-81018349D01*
X89991469Y-81017736D01*
X89958487Y-81010561D01*
X89931398Y-81004667D01*
X89896463Y-80999645D01*
X89824525Y-80994500D01*
X89824523Y-80994500D01*
X79585699Y-80994500D01*
X79583888Y-80994597D01*
X79578993Y-80994859D01*
X79510998Y-80978785D01*
X79462486Y-80928501D01*
X79448367Y-80871036D01*
X79448367Y-78557480D01*
X84474500Y-78557480D01*
X84474500Y-78742518D01*
X84503445Y-78925268D01*
X84560610Y-79101208D01*
X84560617Y-79101227D01*
X84560617Y-79101228D01*
X84560618Y-79101231D01*
X84560619Y-79101232D01*
X84560620Y-79101235D01*
X84644622Y-79266096D01*
X84753379Y-79415787D01*
X84884213Y-79546621D01*
X85033904Y-79655378D01*
X85114763Y-79696577D01*
X85198764Y-79739379D01*
X85198767Y-79739380D01*
X85286750Y-79767967D01*
X85374736Y-79796555D01*
X85557486Y-79825500D01*
X85557487Y-79825500D01*
X85742513Y-79825500D01*
X85742514Y-79825500D01*
X85925264Y-79796555D01*
X86101235Y-79739379D01*
X86266096Y-79655378D01*
X86415787Y-79546621D01*
X86546621Y-79415787D01*
X86655378Y-79266096D01*
X86739379Y-79101235D01*
X86796555Y-78925264D01*
X86825500Y-78742514D01*
X86825500Y-78557486D01*
X86796555Y-78374736D01*
X86755657Y-78248864D01*
X86739380Y-78198767D01*
X86739379Y-78198764D01*
X86655377Y-78033903D01*
X86546621Y-77884213D01*
X86415787Y-77753379D01*
X86415786Y-77753378D01*
X86415784Y-77753376D01*
X86403762Y-77744642D01*
X86395746Y-77738818D01*
X86375014Y-77723755D01*
X86355585Y-77709638D01*
X86330280Y-77685046D01*
X86327384Y-77681291D01*
X86326190Y-77679742D01*
X85832945Y-77186497D01*
X85799460Y-77125174D01*
X85804444Y-77055482D01*
X85846316Y-76999549D01*
X85858609Y-76991439D01*
X85895606Y-76970080D01*
X85970080Y-76895606D01*
X85991430Y-76858625D01*
X86041995Y-76810411D01*
X86110602Y-76797187D01*
X86175467Y-76823154D01*
X86186497Y-76832944D01*
X86639983Y-77286430D01*
X86639984Y-77286430D01*
X86654942Y-77265845D01*
X86654947Y-77265836D01*
X86738915Y-77101043D01*
X86738916Y-77101040D01*
X86738918Y-77101036D01*
X86771892Y-76999549D01*
X86796066Y-76925147D01*
X86825000Y-76742473D01*
X86825000Y-76557526D01*
X86796066Y-76374852D01*
X86738916Y-76198959D01*
X86738915Y-76198956D01*
X86654947Y-76034162D01*
X86654945Y-76034159D01*
X86581237Y-75932706D01*
X86564768Y-75901494D01*
X86559516Y-75886775D01*
X86555526Y-75817021D01*
X86556047Y-75814778D01*
X86583684Y-75761019D01*
X86588258Y-75755815D01*
X86607080Y-75738414D01*
X86682191Y-75682186D01*
X86768350Y-75567093D01*
X86768354Y-75567086D01*
X86818596Y-75432379D01*
X86818598Y-75432372D01*
X86822548Y-75395637D01*
X86824998Y-75372860D01*
X86825000Y-75372827D01*
X86825000Y-74900000D01*
X86158723Y-74900000D01*
X86091684Y-74880315D01*
X86045929Y-74827511D01*
X86035985Y-74758353D01*
X86038948Y-74743907D01*
X86050000Y-74702661D01*
X86050000Y-74597339D01*
X86038948Y-74556092D01*
X86040611Y-74486243D01*
X86079774Y-74428381D01*
X86144002Y-74400877D01*
X86158723Y-74400000D01*
X86825000Y-74400000D01*
X86825000Y-73927172D01*
X86824998Y-73927138D01*
X86818598Y-73867628D01*
X86818596Y-73867621D01*
X86818596Y-73867620D01*
X86768354Y-73732913D01*
X86768350Y-73732906D01*
X86682190Y-73617812D01*
X86682187Y-73617809D01*
X86682185Y-73617807D01*
X86596071Y-73553342D01*
X86567093Y-73531649D01*
X86567086Y-73531645D01*
X86499732Y-73506524D01*
X86432377Y-73481402D01*
X86432370Y-73481400D01*
X86372852Y-73475000D01*
X86372844Y-73475000D01*
X85900000Y-73475000D01*
X85900000Y-74141277D01*
X85880315Y-74208316D01*
X85827511Y-74254071D01*
X85758353Y-74264015D01*
X85743911Y-74261052D01*
X85702661Y-74250000D01*
X85702660Y-74250000D01*
X85597339Y-74250000D01*
X85556092Y-74261051D01*
X85486243Y-74259389D01*
X85428381Y-74220226D01*
X85400877Y-74155998D01*
X85400000Y-74141277D01*
X85400000Y-73475000D01*
X84927155Y-73475000D01*
X84927146Y-73475000D01*
X84867628Y-73481400D01*
X84867621Y-73481402D01*
X84732910Y-73531646D01*
X84732907Y-73531648D01*
X84617813Y-73617807D01*
X84617807Y-73617813D01*
X84531648Y-73732907D01*
X84531646Y-73732910D01*
X84481402Y-73867621D01*
X84481400Y-73867628D01*
X84475000Y-73927146D01*
X84475000Y-73927155D01*
X84475000Y-74400000D01*
X85141277Y-74400000D01*
X85208316Y-74419685D01*
X85254071Y-74472489D01*
X85264015Y-74541647D01*
X85261052Y-74556093D01*
X85250000Y-74597339D01*
X85250000Y-74702660D01*
X85261052Y-74743907D01*
X85259389Y-74813757D01*
X85220226Y-74871619D01*
X85155998Y-74899123D01*
X85141277Y-74900000D01*
X84475000Y-74900000D01*
X84475000Y-75372852D01*
X84481400Y-75432370D01*
X84481401Y-75432372D01*
X84481403Y-75432379D01*
X84526881Y-75554314D01*
X84531646Y-75567088D01*
X84531648Y-75567091D01*
X84617807Y-75682185D01*
X84617808Y-75682186D01*
X84617809Y-75682187D01*
X84617812Y-75682190D01*
X84688967Y-75735457D01*
X84713916Y-75760409D01*
X84723286Y-75772927D01*
X84747700Y-75838392D01*
X84747703Y-75838422D01*
X84747865Y-75840696D01*
X84737343Y-75900199D01*
X84734512Y-75906519D01*
X84721665Y-75928712D01*
X84645051Y-76034162D01*
X84561083Y-76198956D01*
X84503933Y-76374850D01*
X84503933Y-76374852D01*
X84475000Y-76557526D01*
X84475000Y-76742473D01*
X84483666Y-76797187D01*
X84503933Y-76925148D01*
X84561081Y-77101036D01*
X84561082Y-77101038D01*
X84561083Y-77101040D01*
X84561084Y-77101043D01*
X84645050Y-77265834D01*
X84645054Y-77265839D01*
X84645056Y-77265843D01*
X84660014Y-77286429D01*
X84660015Y-77286430D01*
X85113501Y-76832944D01*
X85174824Y-76799459D01*
X85244515Y-76804443D01*
X85300449Y-76846314D01*
X85308567Y-76858622D01*
X85329920Y-76895606D01*
X85404394Y-76970080D01*
X85404395Y-76970081D01*
X85404397Y-76970082D01*
X85441373Y-76991430D01*
X85489588Y-77041996D01*
X85502812Y-77110603D01*
X85476844Y-77175468D01*
X85467054Y-77186498D01*
X84989378Y-77664171D01*
X84989342Y-77664210D01*
X84968036Y-77688618D01*
X84947508Y-77707390D01*
X84884213Y-77753377D01*
X84748887Y-77888703D01*
X84744753Y-77896084D01*
X84728548Y-77918390D01*
X84644622Y-78033903D01*
X84603175Y-78115247D01*
X84560617Y-78198770D01*
X84560617Y-78198771D01*
X84560610Y-78198790D01*
X84503445Y-78374730D01*
X84474500Y-78557480D01*
X79448367Y-78557480D01*
X79448367Y-67202146D01*
X82550000Y-67202146D01*
X82550000Y-67202155D01*
X82550000Y-67850000D01*
X83287750Y-67850000D01*
X83354789Y-67869685D01*
X83400544Y-67922489D01*
X83410488Y-67991647D01*
X83407524Y-68006095D01*
X83400000Y-68034171D01*
X83400000Y-68165828D01*
X83407524Y-68193905D01*
X83405863Y-68263755D01*
X83366701Y-68321618D01*
X83302473Y-68349123D01*
X83287750Y-68350000D01*
X82550000Y-68350000D01*
X82550000Y-68997852D01*
X82556400Y-69057370D01*
X82556402Y-69057377D01*
X82573686Y-69103718D01*
X82606645Y-69192086D01*
X82606649Y-69192093D01*
X82649487Y-69249317D01*
X82692807Y-69307185D01*
X82692813Y-69307191D01*
X82700485Y-69312934D01*
X82807906Y-69393350D01*
X82807913Y-69393354D01*
X82942620Y-69443596D01*
X82942627Y-69443598D01*
X82949468Y-69444333D01*
X83002138Y-69449998D01*
X83002155Y-69449999D01*
X83002172Y-69450000D01*
X83650000Y-69450000D01*
X83650000Y-68712250D01*
X83669685Y-68645211D01*
X83722489Y-68599456D01*
X83791647Y-68589512D01*
X83806093Y-68592475D01*
X83834174Y-68600000D01*
X83965825Y-68600000D01*
X83965826Y-68600000D01*
X83993905Y-68592476D01*
X84063755Y-68594137D01*
X84121618Y-68633299D01*
X84149123Y-68697527D01*
X84150000Y-68712250D01*
X84150000Y-69450000D01*
X84797828Y-69450000D01*
X84797836Y-69450000D01*
X84797847Y-69449999D01*
X84833560Y-69446158D01*
X84857372Y-69443598D01*
X84857379Y-69443596D01*
X84992086Y-69393354D01*
X84992093Y-69393350D01*
X85107187Y-69307190D01*
X85107190Y-69307187D01*
X85193350Y-69192093D01*
X85193354Y-69192086D01*
X85243596Y-69057379D01*
X85243598Y-69057372D01*
X85245069Y-69043689D01*
X85249998Y-68997860D01*
X85250000Y-68997827D01*
X85250000Y-68350000D01*
X84512250Y-68350000D01*
X84445211Y-68330315D01*
X84399456Y-68277511D01*
X84389512Y-68208353D01*
X84392476Y-68193905D01*
X84399999Y-68165828D01*
X84400000Y-68165825D01*
X84400000Y-68034175D01*
X84399999Y-68034171D01*
X84395545Y-68017550D01*
X84392476Y-68006094D01*
X84394137Y-67936245D01*
X84433299Y-67878382D01*
X84497527Y-67850877D01*
X84512250Y-67850000D01*
X85250000Y-67850000D01*
X85250000Y-67202172D01*
X85249998Y-67202138D01*
X85243598Y-67142628D01*
X85243596Y-67142621D01*
X85230156Y-67106586D01*
X85193354Y-67007913D01*
X85193350Y-67007906D01*
X85107190Y-66892812D01*
X85107187Y-66892809D01*
X85107185Y-66892807D01*
X85049317Y-66849487D01*
X84992093Y-66806649D01*
X84992086Y-66806645D01*
X84924732Y-66781524D01*
X84857377Y-66756402D01*
X84857370Y-66756400D01*
X84797852Y-66750000D01*
X84797844Y-66750000D01*
X84150000Y-66750000D01*
X84150000Y-67487749D01*
X84130315Y-67554788D01*
X84077511Y-67600543D01*
X84008353Y-67610487D01*
X83993908Y-67607524D01*
X83965828Y-67600000D01*
X83965826Y-67600000D01*
X83834174Y-67600000D01*
X83834171Y-67600000D01*
X83806092Y-67607524D01*
X83736242Y-67605861D01*
X83678380Y-67566698D01*
X83650877Y-67502469D01*
X83650000Y-67487749D01*
X83650000Y-66750000D01*
X83002155Y-66750000D01*
X83002146Y-66750000D01*
X82942628Y-66756400D01*
X82942621Y-66756402D01*
X82807910Y-66806646D01*
X82807907Y-66806648D01*
X82692813Y-66892807D01*
X82692807Y-66892813D01*
X82606648Y-67007907D01*
X82606646Y-67007910D01*
X82556402Y-67142621D01*
X82556400Y-67142628D01*
X82550000Y-67202146D01*
X79448367Y-67202146D01*
X79448367Y-62907480D01*
X80074500Y-62907480D01*
X80074500Y-63092518D01*
X80103445Y-63275268D01*
X80160610Y-63451208D01*
X80160617Y-63451227D01*
X80160617Y-63451228D01*
X80160618Y-63451231D01*
X80160619Y-63451232D01*
X80160620Y-63451235D01*
X80244622Y-63616096D01*
X80318362Y-63717591D01*
X80334832Y-63748804D01*
X80340084Y-63763524D01*
X80344075Y-63833271D01*
X80343558Y-63835495D01*
X80315910Y-63889287D01*
X80311338Y-63894488D01*
X80292518Y-63911885D01*
X80217809Y-63967812D01*
X80217805Y-63967816D01*
X80131650Y-64082903D01*
X80131647Y-64082909D01*
X80131646Y-64082909D01*
X80081402Y-64217621D01*
X80081400Y-64217628D01*
X80075000Y-64277146D01*
X80075000Y-64277155D01*
X80075000Y-64750000D01*
X80741277Y-64750000D01*
X80808316Y-64769685D01*
X80854071Y-64822489D01*
X80864015Y-64891647D01*
X80861052Y-64906093D01*
X80850000Y-64947339D01*
X80850000Y-65052660D01*
X80861052Y-65093907D01*
X80859389Y-65163757D01*
X80820226Y-65221619D01*
X80755998Y-65249123D01*
X80741277Y-65250000D01*
X80075000Y-65250000D01*
X80075000Y-65722852D01*
X80081400Y-65782370D01*
X80081402Y-65782377D01*
X80131646Y-65917088D01*
X80131648Y-65917091D01*
X80217807Y-66032185D01*
X80217809Y-66032187D01*
X80217812Y-66032190D01*
X80332906Y-66118350D01*
X80332913Y-66118354D01*
X80467620Y-66168596D01*
X80467627Y-66168598D01*
X80474468Y-66169333D01*
X80527138Y-66174998D01*
X80527155Y-66174999D01*
X80527172Y-66175000D01*
X81000000Y-66175000D01*
X81000000Y-65508722D01*
X81019685Y-65441683D01*
X81072489Y-65395928D01*
X81141647Y-65385984D01*
X81156082Y-65388945D01*
X81197339Y-65400000D01*
X81302659Y-65400000D01*
X81302661Y-65400000D01*
X81343907Y-65388948D01*
X81413755Y-65390609D01*
X81471618Y-65429771D01*
X81499123Y-65493999D01*
X81500000Y-65508722D01*
X81500000Y-66175000D01*
X81972828Y-66175000D01*
X81972836Y-66175000D01*
X81972847Y-66174999D01*
X82008560Y-66171158D01*
X82032372Y-66168598D01*
X82032379Y-66168596D01*
X82167086Y-66118354D01*
X82167093Y-66118350D01*
X82282187Y-66032190D01*
X82282190Y-66032187D01*
X82368350Y-65917093D01*
X82368354Y-65917086D01*
X82418596Y-65782379D01*
X82418598Y-65782372D01*
X82420069Y-65768689D01*
X82424998Y-65722860D01*
X82425000Y-65722827D01*
X82425000Y-65250000D01*
X81758723Y-65250000D01*
X81691684Y-65230315D01*
X81645929Y-65177511D01*
X81635985Y-65108353D01*
X81638948Y-65093907D01*
X81650000Y-65052661D01*
X81650000Y-64947339D01*
X81638948Y-64906092D01*
X81640611Y-64836243D01*
X81679774Y-64778381D01*
X81744002Y-64750877D01*
X81758723Y-64750000D01*
X82425000Y-64750000D01*
X82425000Y-64277172D01*
X82424998Y-64277138D01*
X82418660Y-64218206D01*
X82418598Y-64217627D01*
X82418596Y-64217620D01*
X82368354Y-64082913D01*
X82368350Y-64082906D01*
X82282190Y-63967812D01*
X82282188Y-63967810D01*
X82282186Y-63967808D01*
X82211440Y-63914847D01*
X82186487Y-63889895D01*
X82177117Y-63877379D01*
X82152699Y-63811918D01*
X82152533Y-63809592D01*
X82163059Y-63750089D01*
X82165887Y-63743777D01*
X82178727Y-63721594D01*
X82255378Y-63616096D01*
X82339379Y-63451235D01*
X82396555Y-63275264D01*
X82425500Y-63092514D01*
X82425500Y-62907486D01*
X82396555Y-62724736D01*
X82340877Y-62553377D01*
X82339821Y-62549630D01*
X82255378Y-62383904D01*
X82193327Y-62298499D01*
X82146621Y-62234213D01*
X82015787Y-62103379D01*
X81866096Y-61994622D01*
X81701235Y-61910620D01*
X81701232Y-61910619D01*
X81701231Y-61910618D01*
X81701228Y-61910617D01*
X81701208Y-61910610D01*
X81525267Y-61853445D01*
X81525268Y-61853445D01*
X81433889Y-61838972D01*
X81342519Y-61824500D01*
X81342514Y-61824500D01*
X81157486Y-61824500D01*
X81157483Y-61824500D01*
X81111798Y-61831736D01*
X81096569Y-61834148D01*
X80974730Y-61853445D01*
X80798790Y-61910610D01*
X80798771Y-61910617D01*
X80798770Y-61910617D01*
X80633903Y-61994621D01*
X80592597Y-62024633D01*
X80496084Y-62094754D01*
X80488703Y-62098887D01*
X80348887Y-62238703D01*
X80344754Y-62246084D01*
X80306672Y-62298499D01*
X80244622Y-62383902D01*
X80160617Y-62548770D01*
X80160617Y-62548771D01*
X80160610Y-62548790D01*
X80103445Y-62724730D01*
X80074500Y-62907480D01*
X79448367Y-62907480D01*
X79448367Y-59930449D01*
X79453390Y-59895513D01*
X79457794Y-59880515D01*
X79495565Y-59821741D01*
X79495566Y-59821739D01*
X79501118Y-59816928D01*
X79558130Y-59789022D01*
X79799445Y-59741023D01*
X80128572Y-59641183D01*
X80446329Y-59509564D01*
X80749654Y-59347433D01*
X81035627Y-59156352D01*
X81301494Y-58938160D01*
X81544694Y-58694960D01*
X81762886Y-58429093D01*
X81953967Y-58143120D01*
X82116098Y-57839795D01*
X82247717Y-57522038D01*
X82347557Y-57192911D01*
X82394059Y-56959129D01*
X82405799Y-56925850D01*
X82413046Y-56911995D01*
X82461557Y-56861716D01*
X82467956Y-56858073D01*
X82529306Y-56841833D01*
X98371458Y-56841833D01*
X98438497Y-56861518D01*
G37*
%TD.AperFunction*%
%TA.AperFunction,Conductor*%
G36*
X89706082Y-65388945D02*
G01*
X89747339Y-65400000D01*
X89852659Y-65400000D01*
X89852661Y-65400000D01*
X89893907Y-65388948D01*
X89963755Y-65390609D01*
X90021618Y-65429771D01*
X90049123Y-65493999D01*
X90050000Y-65508722D01*
X90050000Y-66175000D01*
X90522828Y-66175000D01*
X90522836Y-66175000D01*
X90522847Y-66174999D01*
X90582369Y-66168599D01*
X90582372Y-66168598D01*
X90582379Y-66168596D01*
X90690466Y-66128282D01*
X90724946Y-66120782D01*
X90738793Y-66119792D01*
X90807066Y-66134644D01*
X90856468Y-66184046D01*
X90856469Y-66184048D01*
X90856471Y-66184050D01*
X90856471Y-66184052D01*
X90859330Y-66189287D01*
X90874500Y-66248717D01*
X90874500Y-66971717D01*
X90869476Y-67006654D01*
X90862064Y-67031895D01*
X90830769Y-67084639D01*
X89014148Y-68901258D01*
X89014143Y-68901264D01*
X89014135Y-68901274D01*
X88945687Y-69003711D01*
X88945685Y-69003715D01*
X88928887Y-69044274D01*
X88923462Y-69057372D01*
X88912347Y-69084207D01*
X88906823Y-69097543D01*
X88898538Y-69117540D01*
X88898538Y-69117542D01*
X88898535Y-69117551D01*
X88898530Y-69117573D01*
X88874500Y-69238384D01*
X88874500Y-69817165D01*
X88874499Y-69817167D01*
X88874500Y-69817169D01*
X88869476Y-69852104D01*
X88863902Y-69871085D01*
X88831799Y-69924629D01*
X88825534Y-69930780D01*
X88803762Y-69947833D01*
X88796955Y-69952031D01*
X88677027Y-70071961D01*
X88614895Y-70172692D01*
X88595858Y-70195501D01*
X88592282Y-70199786D01*
X88581966Y-70209065D01*
X88518959Y-70239263D01*
X88449628Y-70230602D01*
X88449614Y-70230596D01*
X88446379Y-70229190D01*
X88402148Y-70196733D01*
X88401079Y-70195501D01*
X88389199Y-70179332D01*
X88385103Y-70172692D01*
X88322970Y-70071959D01*
X88322969Y-70071958D01*
X88322968Y-70071956D01*
X88203044Y-69952032D01*
X88203043Y-69952031D01*
X88203042Y-69952030D01*
X88199571Y-69949889D01*
X88199570Y-69949889D01*
X88172475Y-69927272D01*
X88159248Y-69912565D01*
X88130528Y-69857122D01*
X88128580Y-69848550D01*
X88125500Y-69821085D01*
X88125500Y-68528280D01*
X88130522Y-68493347D01*
X88137934Y-68468102D01*
X88169228Y-68415360D01*
X88398729Y-68185860D01*
X88398733Y-68185858D01*
X88485858Y-68098733D01*
X88537256Y-68021809D01*
X88554312Y-67996285D01*
X88583632Y-67925500D01*
X88601463Y-67882452D01*
X88625500Y-67761606D01*
X88625500Y-66191206D01*
X88626475Y-66184427D01*
X88630522Y-66156272D01*
X88634099Y-66144089D01*
X88671875Y-66085314D01*
X88735431Y-66056290D01*
X88800519Y-66064463D01*
X88805444Y-66066502D01*
X88809417Y-66068148D01*
X88836277Y-66083442D01*
X88882910Y-66118352D01*
X88882913Y-66118354D01*
X89017620Y-66168596D01*
X89017627Y-66168598D01*
X89024468Y-66169333D01*
X89077138Y-66174998D01*
X89077155Y-66174999D01*
X89077172Y-66175000D01*
X89550000Y-66175000D01*
X89550000Y-65508722D01*
X89569685Y-65441683D01*
X89622489Y-65395928D01*
X89691647Y-65385984D01*
X89706082Y-65388945D01*
G37*
%TD.AperFunction*%
%TA.AperFunction,Conductor*%
G36*
X93206082Y-65388945D02*
G01*
X93247339Y-65400000D01*
X93352659Y-65400000D01*
X93352661Y-65400000D01*
X93393907Y-65388948D01*
X93463755Y-65390609D01*
X93521618Y-65429771D01*
X93549123Y-65493999D01*
X93550000Y-65508722D01*
X93550000Y-66175000D01*
X93982671Y-66175000D01*
X94017606Y-66180023D01*
X94032604Y-66184427D01*
X94091355Y-66222172D01*
X94091379Y-66222200D01*
X94091382Y-66222202D01*
X94091383Y-66222204D01*
X94092542Y-66223541D01*
X94120018Y-66278402D01*
X94121663Y-66285960D01*
X94124500Y-66312331D01*
X94124500Y-67021717D01*
X94124499Y-67021719D01*
X94124500Y-67021720D01*
X94119476Y-67056654D01*
X94112064Y-67081895D01*
X94080769Y-67134639D01*
X93202952Y-68012457D01*
X92262919Y-68952490D01*
X92214139Y-69001268D01*
X92145688Y-69103711D01*
X92145684Y-69103720D01*
X92112346Y-69184209D01*
X92109087Y-69192078D01*
X92109081Y-69192093D01*
X92098538Y-69217542D01*
X92098535Y-69217551D01*
X92098530Y-69217573D01*
X92074500Y-69338384D01*
X92074500Y-69678683D01*
X92074499Y-69678687D01*
X92074500Y-69678690D01*
X92069475Y-69713624D01*
X92065564Y-69726941D01*
X92027787Y-69785717D01*
X91964229Y-69814739D01*
X91957459Y-69815712D01*
X91904345Y-69810994D01*
X91904330Y-69811068D01*
X91903733Y-69810940D01*
X91900825Y-69810682D01*
X91897716Y-69809652D01*
X91897710Y-69809650D01*
X91798355Y-69799500D01*
X91798346Y-69799500D01*
X91201662Y-69799500D01*
X91201644Y-69799501D01*
X91201636Y-69799501D01*
X91201617Y-69799503D01*
X91135861Y-69806220D01*
X91102292Y-69809650D01*
X91102290Y-69809650D01*
X91102286Y-69809651D01*
X91102282Y-69809651D01*
X91102121Y-69809706D01*
X90941304Y-69862996D01*
X90941295Y-69863000D01*
X90941292Y-69863002D01*
X90796974Y-69952018D01*
X90796952Y-69952034D01*
X90796949Y-69952036D01*
X90677036Y-70071949D01*
X90677032Y-70071954D01*
X90677032Y-70071955D01*
X90677029Y-70071959D01*
X90677025Y-70071966D01*
X90614895Y-70172692D01*
X90595858Y-70195501D01*
X90592282Y-70199786D01*
X90581966Y-70209065D01*
X90518959Y-70239263D01*
X90449628Y-70230602D01*
X90449614Y-70230596D01*
X90446379Y-70229190D01*
X90402148Y-70196733D01*
X90401079Y-70195501D01*
X90389199Y-70179332D01*
X90385103Y-70172692D01*
X90322970Y-70071959D01*
X90322969Y-70071958D01*
X90322968Y-70071956D01*
X90203044Y-69952032D01*
X90203043Y-69952031D01*
X90199575Y-69949892D01*
X90181493Y-69936317D01*
X90173884Y-69929435D01*
X90172628Y-69927387D01*
X90172466Y-69927265D01*
X90169040Y-69923455D01*
X90169799Y-69922771D01*
X90169603Y-69922451D01*
X90158549Y-69910689D01*
X90157642Y-69911382D01*
X90151573Y-69903429D01*
X90153393Y-69902040D01*
X90149325Y-69893543D01*
X90136927Y-69879229D01*
X90128146Y-69849305D01*
X90127334Y-69847607D01*
X90126999Y-69845423D01*
X90126757Y-69843742D01*
X90125500Y-69826125D01*
X90125500Y-69628280D01*
X90130522Y-69593347D01*
X90137934Y-69568102D01*
X90169228Y-69515360D01*
X91898729Y-67785860D01*
X91898733Y-67785858D01*
X91985858Y-67698733D01*
X92026176Y-67638393D01*
X92054312Y-67596286D01*
X92090214Y-67509609D01*
X92101459Y-67482461D01*
X92101459Y-67482459D01*
X92101463Y-67482451D01*
X92125500Y-67361607D01*
X92125500Y-67238393D01*
X92125500Y-66191206D01*
X92126475Y-66184427D01*
X92130522Y-66156272D01*
X92134099Y-66144089D01*
X92171875Y-66085314D01*
X92235431Y-66056290D01*
X92300519Y-66064463D01*
X92305444Y-66066502D01*
X92309417Y-66068148D01*
X92336277Y-66083442D01*
X92382910Y-66118352D01*
X92382913Y-66118354D01*
X92517620Y-66168596D01*
X92517627Y-66168598D01*
X92524468Y-66169333D01*
X92577138Y-66174998D01*
X92577155Y-66174999D01*
X92577172Y-66175000D01*
X93050000Y-66175000D01*
X93050000Y-65508722D01*
X93069685Y-65441683D01*
X93122489Y-65395928D01*
X93191647Y-65385984D01*
X93206082Y-65388945D01*
G37*
%TD.AperFunction*%
%TA.AperFunction,Conductor*%
G36*
X98413834Y-60662177D02*
G01*
X98469767Y-60704049D01*
X98494184Y-60769513D01*
X98494500Y-60778359D01*
X98494500Y-67378824D01*
X98498626Y-67441006D01*
X98498668Y-67441658D01*
X98491034Y-67475580D01*
X98483448Y-67509609D01*
X98483357Y-67509698D01*
X98483329Y-67509824D01*
X98458523Y-67534278D01*
X98433789Y-67558759D01*
X98433663Y-67558785D01*
X98433573Y-67558875D01*
X98399526Y-67566027D01*
X98365440Y-67573259D01*
X98365269Y-67573224D01*
X98365196Y-67573240D01*
X98365029Y-67573176D01*
X98335921Y-67567328D01*
X98218127Y-67528295D01*
X98117136Y-67517977D01*
X98117131Y-67517977D01*
X98017977Y-67517977D01*
X98017977Y-69467976D01*
X98117105Y-69467976D01*
X98117117Y-69467976D01*
X98117131Y-69467975D01*
X98218129Y-69457657D01*
X98336346Y-69418483D01*
X98406173Y-69416082D01*
X98466215Y-69451814D01*
X98497408Y-69514334D01*
X98499033Y-69545035D01*
X98494500Y-69608421D01*
X98494500Y-69870500D01*
X98474815Y-69937539D01*
X98422011Y-69983294D01*
X98370500Y-69994500D01*
X94612826Y-69994500D01*
X94558837Y-69997392D01*
X94558825Y-69997393D01*
X94532484Y-70000224D01*
X94532468Y-70000226D01*
X94532462Y-70000227D01*
X94511061Y-70003690D01*
X94481503Y-70008475D01*
X94481501Y-70008475D01*
X94479194Y-70008849D01*
X94475971Y-70009549D01*
X94475795Y-70009587D01*
X94471456Y-70010531D01*
X94389174Y-70039566D01*
X94388293Y-70039863D01*
X94354249Y-70041198D01*
X94320214Y-70043026D01*
X94319389Y-70042566D01*
X94318477Y-70042602D01*
X94300880Y-70032244D01*
X94261041Y-70010029D01*
X94203044Y-69952032D01*
X94199575Y-69949892D01*
X94181493Y-69936317D01*
X94173884Y-69929435D01*
X94172628Y-69927387D01*
X94172466Y-69927265D01*
X94169040Y-69923455D01*
X94169799Y-69922771D01*
X94169603Y-69922451D01*
X94158549Y-69910689D01*
X94157642Y-69911382D01*
X94151573Y-69903429D01*
X94153393Y-69902040D01*
X94149325Y-69893543D01*
X94136927Y-69879229D01*
X94128146Y-69849305D01*
X94127334Y-69847607D01*
X94126999Y-69845423D01*
X94126757Y-69843742D01*
X94125500Y-69826125D01*
X94125500Y-69728280D01*
X94130522Y-69693347D01*
X94137934Y-69668102D01*
X94169228Y-69615360D01*
X95004949Y-68779640D01*
X96730478Y-68779640D01*
X96740796Y-68880630D01*
X96795022Y-69044274D01*
X96795023Y-69044277D01*
X96795028Y-69044288D01*
X96803103Y-69057379D01*
X96885518Y-69190995D01*
X96885525Y-69191005D01*
X96885529Y-69191011D01*
X96885532Y-69191015D01*
X96885534Y-69191017D01*
X96885536Y-69191020D01*
X97007432Y-69312916D01*
X97007435Y-69312918D01*
X97007438Y-69312921D01*
X97007442Y-69312924D01*
X97007450Y-69312929D01*
X97007457Y-69312934D01*
X97079908Y-69357622D01*
X97154165Y-69403425D01*
X97154176Y-69403430D01*
X97317824Y-69457657D01*
X97418828Y-69467976D01*
X97517977Y-69467975D01*
X97517977Y-68742977D01*
X96730478Y-68742977D01*
X96730478Y-68779640D01*
X95004949Y-68779640D01*
X95578273Y-68206316D01*
X96730477Y-68206316D01*
X96730477Y-68206322D01*
X96730477Y-68242977D01*
X97517977Y-68242977D01*
X97517977Y-67517976D01*
X97517977Y-67517975D01*
X97418845Y-67517976D01*
X97418825Y-67517977D01*
X97418821Y-67517978D01*
X97418812Y-67517978D01*
X97418811Y-67517979D01*
X97317822Y-67528296D01*
X97154178Y-67582522D01*
X97154166Y-67582527D01*
X97154163Y-67582529D01*
X97007457Y-67673018D01*
X97007435Y-67673034D01*
X97007432Y-67673036D01*
X96885536Y-67794932D01*
X96885534Y-67794935D01*
X96885518Y-67794957D01*
X96795029Y-67941663D01*
X96795027Y-67941666D01*
X96795020Y-67941680D01*
X96740795Y-68105325D01*
X96730477Y-68206316D01*
X95578273Y-68206316D01*
X95648729Y-68135860D01*
X95648733Y-68135858D01*
X95735858Y-68048733D01*
X95804311Y-67946286D01*
X95804312Y-67946285D01*
X95831932Y-67879603D01*
X95851463Y-67832452D01*
X95875500Y-67711606D01*
X95875500Y-66316829D01*
X95877345Y-66304000D01*
X95880523Y-66281893D01*
X95884927Y-66266895D01*
X95922672Y-66208144D01*
X95922700Y-66208119D01*
X95922699Y-66208119D01*
X95924041Y-66206956D01*
X95978920Y-66179477D01*
X95986479Y-66177833D01*
X96012832Y-66175000D01*
X96450000Y-66175000D01*
X96450000Y-65508722D01*
X96469685Y-65441683D01*
X96522489Y-65395928D01*
X96591647Y-65385984D01*
X96606082Y-65388945D01*
X96647339Y-65400000D01*
X96752659Y-65400000D01*
X96752661Y-65400000D01*
X96793907Y-65388948D01*
X96863755Y-65390609D01*
X96921618Y-65429771D01*
X96949123Y-65493999D01*
X96950000Y-65508722D01*
X96950000Y-66175000D01*
X97422828Y-66175000D01*
X97422836Y-66175000D01*
X97422847Y-66174999D01*
X97458560Y-66171158D01*
X97482372Y-66168598D01*
X97482379Y-66168596D01*
X97617086Y-66118354D01*
X97617093Y-66118350D01*
X97732187Y-66032190D01*
X97732190Y-66032187D01*
X97818350Y-65917093D01*
X97818354Y-65917086D01*
X97868596Y-65782379D01*
X97868598Y-65782372D01*
X97870069Y-65768689D01*
X97874998Y-65722860D01*
X97875000Y-65722827D01*
X97875000Y-65250000D01*
X97208723Y-65250000D01*
X97141684Y-65230315D01*
X97095929Y-65177511D01*
X97085985Y-65108353D01*
X97088948Y-65093907D01*
X97100000Y-65052661D01*
X97100000Y-64947339D01*
X97088948Y-64906092D01*
X97090611Y-64836243D01*
X97129774Y-64778381D01*
X97194002Y-64750877D01*
X97208723Y-64750000D01*
X97875000Y-64750000D01*
X97875000Y-64277172D01*
X97874998Y-64277138D01*
X97868660Y-64218206D01*
X97868598Y-64217627D01*
X97868596Y-64217620D01*
X97818354Y-64082913D01*
X97818350Y-64082906D01*
X97732190Y-63967812D01*
X97732188Y-63967810D01*
X97732186Y-63967808D01*
X97661440Y-63914847D01*
X97636487Y-63889895D01*
X97627117Y-63877379D01*
X97602699Y-63811918D01*
X97602533Y-63809592D01*
X97613059Y-63750089D01*
X97615887Y-63743777D01*
X97628727Y-63721594D01*
X97705378Y-63616096D01*
X97789379Y-63451235D01*
X97846555Y-63275264D01*
X97875500Y-63092514D01*
X97875500Y-62907486D01*
X97846555Y-62724736D01*
X97790877Y-62553377D01*
X97789821Y-62549630D01*
X97705378Y-62383904D01*
X97643327Y-62298499D01*
X97596621Y-62234213D01*
X97465787Y-62103379D01*
X97465786Y-62103378D01*
X97463339Y-62100931D01*
X97452828Y-62088975D01*
X97442214Y-62075212D01*
X97416861Y-62010105D01*
X97430731Y-61941631D01*
X97434130Y-61935189D01*
X97463267Y-61898773D01*
X97465779Y-61896626D01*
X97465787Y-61896621D01*
X97596621Y-61765787D01*
X97705378Y-61616096D01*
X97789379Y-61451235D01*
X97846555Y-61275264D01*
X97865377Y-61156421D01*
X97875799Y-61122715D01*
X97889160Y-61094531D01*
X97913522Y-61059974D01*
X98282820Y-60690677D01*
X98344142Y-60657193D01*
X98413834Y-60662177D01*
G37*
%TD.AperFunction*%
%TD*%
%TA.AperFunction,Conductor*%
%TO.N,GPIO04*%
G36*
X106039110Y-83066224D02*
G01*
X106979596Y-83576491D01*
X106985233Y-83583448D01*
X106985489Y-83589069D01*
X106927268Y-83880055D01*
X106922284Y-83887495D01*
X106913500Y-83889233D01*
X106910230Y-83888052D01*
X106105954Y-83453195D01*
X106100307Y-83446246D01*
X106100080Y-83445358D01*
X106022086Y-83078942D01*
X106023716Y-83070139D01*
X106031094Y-83065064D01*
X106039110Y-83066224D01*
G37*
%TD.AperFunction*%
%TD*%
M02*
